<svg xmlns="http://www.w3.org/2000/svg" width="202.965" height="113.004" viewBox="0 0 202.965 113.004">
  <g id="bras-and-shapewear" transform="translate(-1025.849 -3037.261)">
    <path id="Path_15" data-name="Path 15" d="M491.429,4230.736h-6.413a3.205,3.205,0,1,1,0-6.41h6.413a3.205,3.205,0,0,1,0,6.41" transform="translate(634.476 -1110.136)" fill="#fff"/>
    <path id="Path_16" data-name="Path 16" d="M507.529,4229.021a3.2,3.2,0,0,1-3.205-3.206v-32.052a3.205,3.205,0,1,1,6.411,0v32.052a3.2,3.2,0,0,1-3.205,3.206" transform="translate(663.25 -1153.296)" fill="#fff"/>
    <path id="Path_17" data-name="Path 17" d="M465.317,4229.021a3.2,3.2,0,0,1-3.205-3.206v-32.052a3.205,3.205,0,1,1,6.411,0v32.052a3.2,3.2,0,0,1-3.205,3.206" transform="translate(609.299 -1153.296)" fill="#fff"/>
    <path id="Path_18" data-name="Path 18" d="M491.459,4251.747a39.862,39.862,0,0,0,27.062,10.578h0a39.559,39.559,0,0,0,23.792-7.9c-.189-17.647-3.613-31.021-10.989-42.83a61.891,61.891,0,0,0-39.867,40.151m27.064,16.988h0a46.309,46.309,0,0,1-32.959-13.762,3.208,3.208,0,0,1-.818-3.128,68.278,68.278,0,0,1,47.1-47.1,3.2,3.2,0,0,1,3.522,1.3c9.119,13.573,13.368,29.444,13.368,49.949a3.206,3.206,0,0,1-1.2,2.5,46.639,46.639,0,0,1-29.009,10.236" transform="translate(638.073 -1135.312)" fill="#fff"/>
    <path id="Path_19" data-name="Path 19" d="M462.9,4254.425a39.851,39.851,0,0,0,50.856-2.678,61.891,61.891,0,0,0-39.867-40.151c-7.377,11.808-10.8,25.182-10.99,42.83m23.795,14.31a46.009,46.009,0,0,1-29.012-10.236,3.206,3.206,0,0,1-1.2-2.5c0-20.505,4.249-36.376,13.368-49.949a3.2,3.2,0,0,1,3.522-1.3,68.277,68.277,0,0,1,47.1,47.1,3.208,3.208,0,0,1-.818,3.128,46.3,46.3,0,0,1-32.959,13.762" transform="translate(602.106 -1135.312)" fill="#fff"/>
    <path id="Path_20" data-name="Path 20" d="M526.556,4241.2H513.735a3.205,3.205,0,1,1,0-6.41h9.616v-9.68H512.707a3.205,3.205,0,1,1,0-6.41h13.849a3.2,3.2,0,0,1,3.205,3.2v16.09a3.206,3.206,0,0,1-3.205,3.206" transform="translate(669.868 -1117.329)" fill="#fff"/>
    <path id="Path_21" data-name="Path 21" d="M466.882,4241.2H454.061a3.206,3.206,0,0,1-3.205-3.206V4221.9a3.2,3.2,0,0,1,3.205-3.2H467.91a3.205,3.205,0,1,1,0,6.41H457.267v9.68h9.616a3.205,3.205,0,1,1,0,6.41" transform="translate(594.913 -1117.329)" fill="#fff"/>
    <rect id="Rectangle_53" data-name="Rectangle 53" width="3.606" height="10.627" transform="translate(1039.987 3059.223)" fill="#e82933"/>
    <rect id="Rectangle_54" data-name="Rectangle 54" width="3.606" height="10.627" transform="translate(1039.987 3080.478)" fill="#e82933"/>
    <rect id="Rectangle_55" data-name="Rectangle 55" width="10.627" height="3.606" transform="translate(1047.103 3073.362)" fill="#e82933"/>
    <rect id="Rectangle_56" data-name="Rectangle 56" width="10.627" height="3.606" transform="translate(1025.849 3073.362)" fill="#e82933"/>
    <rect id="Rectangle_57" data-name="Rectangle 57" width="3.606" height="10.627" transform="translate(1211.069 3118.383)" fill="#e82933"/>
    <rect id="Rectangle_58" data-name="Rectangle 58" width="3.606" height="10.627" transform="translate(1211.069 3139.638)" fill="#e82933"/>
    <rect id="Rectangle_59" data-name="Rectangle 59" width="10.627" height="3.606" transform="translate(1218.186 3132.521)" fill="#e82933"/>
    <rect id="Rectangle_60" data-name="Rectangle 60" width="10.627" height="3.606" transform="translate(1196.932 3132.521)" fill="#e82933"/>
  </g>
</svg>
