<svg xmlns="http://www.w3.org/2000/svg" width="110.941" height="133.915" viewBox="0 0 110.941 133.915">
  <g id="hosiery" transform="translate(-438.771 -2738.602)">
    <path id="Path_31" data-name="Path 31" d="M170.561,4128.2h-6.483a14.506,14.506,0,0,1-11.53-5.747l-.028-.035a13.63,13.63,0,0,0-6.63-4.78l-2.927-.976a10.483,10.483,0,0,1-7.176-9.959v-2.908a14.229,14.229,0,0,1,.422-3.44l1.1-4.389a22.643,22.643,0,0,0-1.226-9.413,15.973,15.973,0,0,0-1.337-3.032c-1.118-2.089-2.646-4.953-5.523-14.964a77.7,77.7,0,0,1-2.571-26.671c-7.638.541-30.158,2.032-46.307,2.032a2.219,2.219,0,0,1,0-4.437c19.461,0,48.333-2.188,48.623-2.21a2.217,2.217,0,0,1,2.363,2.536,73.431,73.431,0,0,0,2.156,27.525c2.747,9.56,4.149,12.183,5.172,14.1a20.144,20.144,0,0,1,1.647,3.764c2.189,6.817,1.4,11.417,1.363,11.608-.009.047-.021.1-.032.143l-1.119,4.482a9.75,9.75,0,0,0-.292,2.366v2.908a6.051,6.051,0,0,0,4.144,5.75l2.927.976a18.04,18.04,0,0,1,8.751,6.3l.028.034a10.051,10.051,0,0,0,8.006,4h6.483a.712.712,0,0,0,.711-.71,2.989,2.989,0,0,0-2.027-2.831,10.6,10.6,0,0,1-5.725-4.664c-4.949-8.424-9.095-14.562-11.374-16.84-1.121-1.121-3.453-3.453-4.379-36.38-.432-15.306-.347-30.285-.339-31.481-.55-8.991-4.778-13.548-12.566-13.548H80.341a2.219,2.219,0,0,1,0-4.437h54.522c10.137,0,16.333,6.486,17,17.8,0,.047,0,.1,0,.147-.218,29.21,1.015,61.391,3.45,64.8,3.471,3.493,9.022,12.58,12.028,17.7a6.169,6.169,0,0,0,3.326,2.711,7.425,7.425,0,0,1,5.038,7.03,5.153,5.153,0,0,1-5.146,5.148" transform="translate(374.005 -1255.681)" fill="#fff"/>
    <path id="Path_32" data-name="Path 32" d="M112.9,4119.047H107.58a6.177,6.177,0,0,1-5.219-2.853l-4.059-6.325a41.754,41.754,0,0,0-8.716-9.787,11.479,11.479,0,0,1-3.695-5.466l-.694-2.21a11.491,11.491,0,0,1,3.643-12.33l2.06-1.71a2.3,2.3,0,0,1,.363-.244c1.573-.853,5.876-3.727,6.856-6.713.238-.725.616-2.58,1.053-4.727,2.065-10.124,5.908-28.968,14.681-37.323a2.218,2.218,0,0,1,3.059,3.212c-7.764,7.394-11.566,26.038-13.393,35-.5,2.47-.868,4.254-1.185,5.223-1.6,4.874-7.435,8.38-8.764,9.123l-1.9,1.576a7.074,7.074,0,0,0-2.241,7.587l.694,2.211a7.055,7.055,0,0,0,2.271,3.36,46.172,46.172,0,0,1,9.642,10.825l4.057,6.325a1.759,1.759,0,0,0,1.486.813H112.9a1.506,1.506,0,0,0,1.472-1.2l.118-.572a1.682,1.682,0,0,0-.78-1.783l-.024-.013a11.077,11.077,0,0,1-3.97-3.959l-.013-.024a31.633,31.633,0,0,1-4.3-15.924v-.928a2.211,2.211,0,0,1,.359-1.208c4.7-7.225,18.739-34.729,18.881-35.006a2.218,2.218,0,0,1,3.952,2.014c-.567,1.113-13.642,26.729-18.757,34.851v.277a27.207,27.207,0,0,0,3.691,13.675l.011.019a6.625,6.625,0,0,0,2.353,2.363l.03.017a6.115,6.115,0,0,1,2.914,6.524l-.117.571a5.963,5.963,0,0,1-5.818,4.741" transform="translate(377.774 -1246.531)" fill="#fff"/>
    <rect id="Rectangle_37" data-name="Rectangle 37" width="2.495" height="7.353" transform="translate(448.553 2805.582)" fill="#e82933"/>
    <rect id="Rectangle_38" data-name="Rectangle 38" width="2.495" height="7.353" transform="translate(448.553 2820.287)" fill="#e82933"/>
    <rect id="Rectangle_39" data-name="Rectangle 39" width="7.353" height="2.495" transform="translate(453.477 2815.362)" fill="#e82933"/>
    <rect id="Rectangle_40" data-name="Rectangle 40" width="7.353" height="2.495" transform="translate(438.771 2815.362)" fill="#e82933"/>
    <rect id="Rectangle_41" data-name="Rectangle 41" width="2.495" height="7.353" transform="translate(537.377 2738.602)" fill="#e82933"/>
    <rect id="Rectangle_42" data-name="Rectangle 42" width="2.495" height="7.353" transform="translate(537.377 2753.308)" fill="#e82933"/>
    <rect id="Rectangle_43" data-name="Rectangle 43" width="7.353" height="2.495" transform="translate(542.301 2748.383)" fill="#e82933"/>
    <rect id="Rectangle_44" data-name="Rectangle 44" width="7.353" height="2.495" transform="translate(527.595 2748.383)" fill="#e82933"/>
  </g>
</svg>
