<svg xmlns="http://www.w3.org/2000/svg" width="149.671" height="98.03" viewBox="0 0 149.671 98.03">
  <g id="mens-underwear" transform="translate(-417.122 -3052.457)">
    <path id="Path_11" data-name="Path 11" d="M77.19,4274.6l32.17,12.064,4.205-6.308a14.647,14.647,0,0,1,24.378,0l4.2,6.307,32.169-12.064-8.348-58.431H85.539Zm64.09,16.977a2.221,2.221,0,0,1-1.847-.987l-5.181-7.772a10.215,10.215,0,0,0-17,0l-5.181,7.772a2.215,2.215,0,0,1-2.624.845L73.964,4278.13a2.216,2.216,0,0,1-1.415-2.39l8.871-62.1a2.221,2.221,0,0,1,2.2-1.905h84.275a2.221,2.221,0,0,1,2.2,1.905l8.871,62.1a2.217,2.217,0,0,1-1.417,2.39l-35.485,13.307a2.214,2.214,0,0,1-.777.143" transform="translate(370.779 -1141.092)" fill="#fff"/>
    <path id="Path_12" data-name="Path 12" d="M167.252,4224.614H79.163a2.218,2.218,0,1,1,0-4.435h88.089a2.218,2.218,0,1,1,0,4.435" transform="translate(373.326 -1136.228)" fill="#fff"/>
    <path id="Path_13" data-name="Path 13" d="M111.106,4275.148a2.218,2.218,0,0,1-1.672-3.671l2.7-3.106a24.4,24.4,0,0,0,5.977-16V4222.4a2.218,2.218,0,1,1,4.435,0v29.975a28.841,28.841,0,0,1-7.065,18.907l-2.7,3.106a2.214,2.214,0,0,1-1.676.762" transform="translate(391.732 -1136.228)" fill="#fff"/>
    <path id="Path_14" data-name="Path 14" d="M106.476,4275.148a2.211,2.211,0,0,1-1.675-.762l-2.7-3.106a28.841,28.841,0,0,1-7.065-18.907V4222.4a2.218,2.218,0,1,1,4.435,0v29.975a24.4,24.4,0,0,0,5.979,16l2.7,3.106a2.219,2.219,0,0,1-1.674,3.671" transform="translate(383.752 -1136.228)" fill="#fff"/>
    <rect id="Rectangle_69" data-name="Rectangle 69" width="2.495" height="7.353" transform="translate(554.517 3052.457)" fill="#e82933"/>
    <rect id="Rectangle_70" data-name="Rectangle 70" width="2.495" height="7.353" transform="translate(554.517 3067.163)" fill="#e82933"/>
    <rect id="Rectangle_71" data-name="Rectangle 71" width="7.353" height="2.495" transform="translate(559.44 3062.239)" fill="#e82933"/>
    <rect id="Rectangle_72" data-name="Rectangle 72" width="7.353" height="2.495" transform="translate(544.736 3062.239)" fill="#e82933"/>
    <rect id="Rectangle_73" data-name="Rectangle 73" width="2.495" height="7.353" transform="translate(426.902 3119.94)" fill="#e82933"/>
    <rect id="Rectangle_74" data-name="Rectangle 74" width="2.495" height="7.355" transform="translate(426.902 3134.645)" fill="#e82933"/>
    <rect id="Rectangle_75" data-name="Rectangle 75" width="7.353" height="2.495" transform="translate(431.826 3129.721)" fill="#e82933"/>
    <rect id="Rectangle_76" data-name="Rectangle 76" width="7.353" height="2.495" transform="translate(417.122 3129.721)" fill="#e82933"/>
  </g>
</svg>
