<svg version="1.2" baseProfile="tiny-ps" xmlns="http://www.w3.org/2000/svg" viewBox="0 0 16 29" width="16" height="29">
	<title>next-svg</title>
	<style>
		tspan { white-space:pre }
		.shp0 { fill: #ef4344 } 
	</style>
	<g id="next">
		<g id="Group_50">
			<path id="Path_8" class="shp0" d="M15.16 13.55L1.9 0.32C1.69 0.12 1.4 0 1.11 0C0.81 0 0.53 0.12 0.32 0.33C0.12 0.54 0 0.82 0 1.11C0 1.41 0.12 1.69 0.33 1.9L12.8 14.34L0.33 26.77C0.12 26.98 0 27.26 0 27.56C0 27.85 0.12 28.13 0.33 28.34C0.53 28.55 0.82 28.67 1.11 28.67C1.41 28.67 1.69 28.55 1.9 28.34L15.16 15.12C15.26 15.02 15.34 14.89 15.4 14.76C15.46 14.62 15.48 14.48 15.48 14.33C15.48 14.19 15.46 14.04 15.4 13.91C15.34 13.77 15.26 13.65 15.16 13.55L15.16 13.55Z" />
		</g>
	</g>
</svg>