<svg xmlns="http://www.w3.org/2000/svg" width="120.517" height="124.198" viewBox="0 0 120.517 124.198">
  <g id="socks" transform="translate(-730.591 -2757.481)">
    <path id="Path_22" data-name="Path 22" d="M307.751,4025.934v47.357a11.021,11.021,0,0,1-3.217,7.809l-23.976,24.176a13.309,13.309,0,0,0,9.449,22.679,12.939,12.939,0,0,0,7.733-2.5,2.3,2.3,0,0,1,.243-.155l36.2-26.045c.054-.038.109-.074.164-.107a11.194,11.194,0,0,0,4.454-8.9v-64.317Zm-17.743,106.456a17.744,17.744,0,0,1-12.627-30.209l24.006-24.2a6.617,6.617,0,0,0,1.928-4.685v-49.576a2.219,2.219,0,0,1,2.218-2.218h35.487a2.218,2.218,0,0,1,2.218,2.218v66.536a15.648,15.648,0,0,1-6.461,12.621,2.2,2.2,0,0,1-.2.126l-36.218,26.059a2.043,2.043,0,0,1-.218.137,17.346,17.346,0,0,1-10.135,3.2" transform="translate(485.87 -1250.709)" fill="#fff"/>
    <path id="Path_23" data-name="Path 23" d="M295.981,4100.441a2.246,2.246,0,0,1-.38-.033,2.217,2.217,0,0,1-1.808-2.562,16.355,16.355,0,0,0-17.808-19.038,2.218,2.218,0,1,1-.456-4.412,20.788,20.788,0,0,1,22.634,24.2,2.218,2.218,0,0,1-2.183,1.842" transform="translate(486.604 -1220.29)" fill="#fff"/>
    <path id="Path_24" data-name="Path 24" d="M312.213,4087.161a2.209,2.209,0,0,1-1.444-.536,17.834,17.834,0,0,1,11.623-31.358h.008a2.218,2.218,0,1,1,0,4.436h-.011a13.4,13.4,0,0,0-8.734,23.56,2.217,2.217,0,0,1-1.445,3.9" transform="translate(504.485 -1231.251)" fill="#fff"/>
    <path id="Path_25" data-name="Path 25" d="M272.625,4122.686a2.193,2.193,0,0,1-.876-.182,17.754,17.754,0,0,1-8.469-25,2.264,2.264,0,0,1,.251-.363,16.573,16.573,0,0,1,2.607-3.419l23.99-24.21a6.63,6.63,0,0,0,1.931-4.651v-49.589a2.218,2.218,0,0,1,2.218-2.218H329.76a2.218,2.218,0,0,1,2.218,2.218v4.435a2.218,2.218,0,1,1-4.435,0v-2.218h-31.05v47.372a11.1,11.1,0,0,1-3.22,7.778l-23.993,24.212a12.494,12.494,0,0,0-2.076,2.8,2.253,2.253,0,0,1-.21.312,13.309,13.309,0,0,0,6.508,18.465,2.218,2.218,0,0,1-.878,4.256" transform="translate(479.384 -1255.574)" fill="#fff"/>
    <path id="Path_26" data-name="Path 26" d="M278.094,4074.434a2.2,2.2,0,0,1-1.4-.5,16.183,16.183,0,0,0-11.943-3.566,2.25,2.25,0,0,1-2.457-2.207,2.2,2.2,0,0,1,2.118-2.218A20.584,20.584,0,0,1,279.5,4070.5a2.218,2.218,0,0,1-1.408,3.935" transform="translate(480.122 -1225.155)" fill="#fff"/>
    <rect id="Rectangle_77" data-name="Rectangle 77" width="2.495" height="7.353" transform="translate(740.372 2786.667)" fill="#e82933"/>
    <rect id="Rectangle_78" data-name="Rectangle 78" width="2.495" height="7.353" transform="translate(740.372 2801.374)" fill="#e82933"/>
    <rect id="Rectangle_79" data-name="Rectangle 79" width="7.353" height="2.495" transform="translate(745.295 2796.45)" fill="#e82933"/>
    <rect id="Rectangle_80" data-name="Rectangle 80" width="7.353" height="2.495" transform="translate(730.591 2796.45)" fill="#e82933"/>
    <rect id="Rectangle_81" data-name="Rectangle 81" width="2.495" height="7.353" transform="translate(838.831 2846.406)" fill="#e82933"/>
    <rect id="Rectangle_82" data-name="Rectangle 82" width="2.495" height="7.353" transform="translate(838.831 2861.111)" fill="#e82933"/>
    <rect id="Rectangle_83" data-name="Rectangle 83" width="7.353" height="2.495" transform="translate(843.755 2856.188)" fill="#e82933"/>
    <rect id="Rectangle_84" data-name="Rectangle 84" width="7.353" height="2.495" transform="translate(829.049 2856.188)" fill="#e82933"/>
  </g>
</svg>
