<svg id="SPORTSWEAR" xmlns="http://www.w3.org/2000/svg" width="164.999" height="174.913" viewBox="0 0 164.999 174.913">
  <path id="Path_27" data-name="Path 27" d="M505.03,4079.672H566.9v-8.2a20.759,20.759,0,0,1,.611-4.988l5.895-23.566-.464-.463a20.767,20.767,0,0,1-6.042-14.583V4010.92H563.13c-1.605,11.013-8.678,27.5-27.164,27.5s-25.559-16.488-27.164-27.5H505.03v16.948a20.769,20.769,0,0,1-6.044,14.583l-.462.463,5.893,23.556a20.79,20.79,0,0,1,.613,5Zm65.312,6.874H501.592a3.437,3.437,0,0,1-3.437-3.437v-11.642a13.922,13.922,0,0,0-.41-3.336l-6.364-25.437a3.438,3.438,0,0,1,.906-3.267l1.839-1.84a13.85,13.85,0,0,0,4.029-9.72v-20.386a3.437,3.437,0,0,1,3.437-3.437H511.9a3.438,3.438,0,0,1,3.433,3.25c.056.984,1.632,24.252,20.629,24.252,19.085,0,20.577-23.261,20.631-24.252a3.438,3.438,0,0,1,3.432-3.25h10.312a3.437,3.437,0,0,1,3.437,3.437v20.386a13.839,13.839,0,0,0,4.029,9.72l1.839,1.84a3.437,3.437,0,0,1,.9,3.267l-6.364,25.444a13.828,13.828,0,0,0-.408,3.33v11.642a3.437,3.437,0,0,1-3.437,3.437" transform="translate(-415.655 -3994.132)" fill="#fff"/>
  <path id="Path_28" data-name="Path 28" d="M566.493,4036.248H497.475a3.438,3.438,0,0,1,0-6.875h69.018a3.438,3.438,0,0,1,0,6.875" transform="translate(-411.672 -3957.584)" fill="#fff"/>
  <path id="Path_29" data-name="Path 29" d="M560.01,4148.741H525.634a3.437,3.437,0,0,1-3.388-2.873l-10.361-62.155-10.358,62.155a3.439,3.439,0,0,1-3.391,2.873H463.76a3.438,3.438,0,0,1-3.415-3.818l12.232-110,1.517-13.748a3.438,3.438,0,0,1,3.415-3.061h48.125a3.438,3.438,0,0,1,0,6.877H480.59l-1.18,10.688L467.6,4141.867h27.623l13.271-79.628a3.437,3.437,0,0,1,6.782,0l13.271,79.628H556.17l-7.041-63.512a3.437,3.437,0,0,1,6.833-.756l7.463,67.326a3.438,3.438,0,0,1-3.415,3.816" transform="translate(-460.323 -3973.828)" fill="#fff"/>
  <path id="Path_30" data-name="Path 30" d="M518.411,4030.62H468.768a3.438,3.438,0,0,1,0-6.875h49.642a3.438,3.438,0,0,1,0,6.875" transform="translate(-453.097 -3965.705)" fill="#fff"/>
  <rect id="Rectangle_85" data-name="Rectangle 85" width="3.867" height="11.397" transform="translate(128.603 118.314)" fill="#e82933"/>
  <rect id="Rectangle_86" data-name="Rectangle 86" width="3.867" height="11.397" transform="translate(128.603 141.105)" fill="#e82933"/>
  <rect id="Rectangle_87" data-name="Rectangle 87" width="11.397" height="3.867" transform="translate(136.234 133.473)" fill="#e82933"/>
  <rect id="Rectangle_88" data-name="Rectangle 88" width="11.397" height="3.867" transform="translate(113.441 133.473)" fill="#e82933"/>
  <rect id="Rectangle_89" data-name="Rectangle 89" width="3.867" height="11.397" transform="translate(40.546)" fill="#e82933"/>
  <rect id="Rectangle_90" data-name="Rectangle 90" width="3.867" height="11.397" transform="translate(40.546 22.793)" fill="#e82933"/>
  <rect id="Rectangle_91" data-name="Rectangle 91" width="11.397" height="3.867" transform="translate(48.178 15.161)" fill="#e82933"/>
  <rect id="Rectangle_92" data-name="Rectangle 92" width="11.397" height="3.867" transform="translate(25.387 15.161)" fill="#e82933"/>
</svg>
