<svg xmlns="http://www.w3.org/2000/svg" width="128.26" height="109.856" viewBox="0 0 128.26 109.856">
  <g id="undershirts" transform="translate(-1318.739 -2734.956)">
    <rect id="Rectangle_93" data-name="Rectangle 93" width="2.495" height="7.353" transform="translate(1434.723 2816.819)" fill="#e82933"/>
    <rect id="Rectangle_94" data-name="Rectangle 94" width="2.495" height="7.353" transform="translate(1434.723 2831.525)" fill="#e82933"/>
    <rect id="Rectangle_95" data-name="Rectangle 95" width="7.353" height="2.495" transform="translate(1439.646 2826.601)" fill="#e82933"/>
    <rect id="Rectangle_96" data-name="Rectangle 96" width="7.353" height="2.495" transform="translate(1424.942 2826.601)" fill="#e82933"/>
    <rect id="Rectangle_97" data-name="Rectangle 97" width="2.495" height="7.353" transform="translate(1328.52 2734.956)" fill="#e82933"/>
    <rect id="Rectangle_98" data-name="Rectangle 98" width="2.495" height="7.353" transform="translate(1328.52 2749.66)" fill="#e82933"/>
    <rect id="Rectangle_99" data-name="Rectangle 99" width="7.353" height="2.495" transform="translate(1333.445 2744.736)" fill="#e82933"/>
    <rect id="Rectangle_100" data-name="Rectangle 100" width="7.353" height="2.495" transform="translate(1318.739 2744.736)" fill="#e82933"/>
    <path id="Path_34" data-name="Path 34" d="M651.536,4063.054a2.209,2.209,0,0,1-1.228-.374L637,4053.809a2.217,2.217,0,0,1-.845-2.625l12.172-32.445a13.282,13.282,0,0,1,4.469-5.973l15.157-11.364a2.215,2.215,0,0,1,2.981.293,24.682,24.682,0,0,0,36.618,0,2.219,2.219,0,0,1,2.982-.293l15.151,11.361a13.273,13.273,0,0,1,4.473,5.979l12.171,32.442a2.219,2.219,0,0,1-.846,2.625l-13.308,8.871a2.215,2.215,0,0,1-3.075-.615l-8.871-13.307a2.218,2.218,0,0,1,3.691-2.46l7.64,11.461,10-6.665L726,4020.3a8.835,8.835,0,0,0-2.981-3.985l-13.582-10.186a29.139,29.139,0,0,1-40.393,0l-13.587,10.187a8.867,8.867,0,0,0-2.979,3.982l-11.554,30.8,10,6.665,7.641-11.461a2.218,2.218,0,1,1,3.692,2.46l-8.873,13.307a2.214,2.214,0,0,1-1.847.988" transform="translate(695.464 -1262.544)" fill="#fff"/>
    <path id="Path_35" data-name="Path 35" d="M681.135,4097.628a53.4,53.4,0,0,1-30.082-9.2,2.217,2.217,0,0,1-.968-1.833v-66.538a2.218,2.218,0,1,1,4.435,0v65.35a49.354,49.354,0,0,0,53.229,0v-65.35a2.218,2.218,0,1,1,4.435,0V4086.6a2.214,2.214,0,0,1-.969,1.833,53.389,53.389,0,0,1-30.08,9.2" transform="translate(703.572 -1252.816)" fill="#fff"/>
  </g>
</svg>
