<svg xmlns="http://www.w3.org/2000/svg" width="123.836" height="81.515" viewBox="0 0 123.836 81.515">
  <g id="womens-underwear" transform="translate(-735.729 -3050.246)">
    <path id="Path_33" data-name="Path 33" d="M363.418,4230.044l-4.435-17.742a246.58,246.58,0,0,1-93.149,0l-4.435,17.742c19.895,7.17,34.878,23.82,39.921,39.922H323.5C328.54,4253.864,343.523,4237.214,363.418,4230.044Zm-99.616-9.607,2.032.736a246.74,246.74,0,0,0,93.149,0l2.032-.736" transform="translate(479.609 -1140.767)" fill="none" stroke="#fff" stroke-linecap="round" stroke-linejoin="round" stroke-width="2.814"/>
    <rect id="Rectangle_45" data-name="Rectangle 45" width="2.495" height="7.353" transform="translate(745.512 3109.701)" fill="#e82933"/>
    <rect id="Rectangle_46" data-name="Rectangle 46" width="2.495" height="7.353" transform="translate(745.512 3124.407)" fill="#e82933"/>
    <rect id="Rectangle_47" data-name="Rectangle 47" width="7.353" height="2.495" transform="translate(750.436 3119.481)" fill="#e82933"/>
    <rect id="Rectangle_48" data-name="Rectangle 48" width="7.353" height="2.495" transform="translate(735.729 3119.481)" fill="#e82933"/>
    <rect id="Rectangle_49" data-name="Rectangle 49" width="2.495" height="7.353" transform="translate(847.289 3050.246)" fill="#e82933"/>
    <rect id="Rectangle_50" data-name="Rectangle 50" width="2.495" height="7.353" transform="translate(847.289 3064.95)" fill="#e82933"/>
    <rect id="Rectangle_51" data-name="Rectangle 51" width="7.353" height="2.495" transform="translate(852.213 3060.026)" fill="#e82933"/>
    <rect id="Rectangle_52" data-name="Rectangle 52" width="7.353" height="2.495" transform="translate(837.507 3060.026)" fill="#e82933"/>
  </g>
</svg>
