<?xml version="1.0" standalone="no"?>
<!DOCTYPE svg PUBLIC "-//W3C//DTD SVG 1.1//EN" "http://www.w3.org/Graphics/SVG/1.1/DTD/svg11.dtd" >
<svg xmlns="http://www.w3.org/2000/svg" xmlns:xlink="http://www.w3.org/1999/xlink" version="1.1">
<metadata>
Created by FontForge 20170731 at Sun Aug 23 11:09:35 2020
 By Aleksey,,,
Copyright (c) 2020 by BumBumType. All rights reserved.
</metadata>
<defs>
<font id="AlbraGrotesk-Semi" horiz-adv-x="598" >
  <font-face 
    font-family="Albra Grotesk Semi"
    font-weight="600"
    font-stretch="normal"
    units-per-em="1000"
    panose-1="0 0 7 0 0 0 0 0 0 0"
    ascent="760"
    descent="-240"
    x-height="481"
    cap-height="715"
    bbox="-145 -222 1179 1131"
    underline-thickness="127"
    underline-position="-251"
    unicode-range="U+000D-1F10C"
  />
<missing-glyph horiz-adv-x="584" 
d="M63 0v715h457v-715h-457zM138 75h309v565h-309v-565z" />
    <glyph glyph-name="f_i" unicode="fi" horiz-adv-x="606" 
d="M118 383h-97v98h97v84q0 164 149 164q48 0 90 -14l-20 -101q-31 9 -52 9q-26 0 -36.5 -15t-10.5 -43v-84h320v-481h-123v383h-195v-383h-122v383zM438 568.5q-23 21.5 -23 53.5t23 54t59 22q35 0 58 -22t23 -54t-23 -53.5t-58 -21.5q-36 0 -59 21.5z" />
    <glyph glyph-name="f_l" unicode="fl" horiz-adv-x="610" 
d="M117 383h-96v98h96v88q0 74 38 117t116 43q54 0 95 -18l-21 -98q-11 4 -27 7t-29 3q-29 0 -40 -15t-11 -41v-86h116v-98h-114v-383h-123v383zM439 0v715h123v-715h-123z" />
    <glyph glyph-name=".notdef" horiz-adv-x="584" 
d="M63 0v715h457v-715h-457zM138 75h309v565h-309v-565z" />
    <glyph glyph-name=".null" horiz-adv-x="0" 
 />
    <glyph glyph-name="nonmarkingreturn" unicode="&#xd;" horiz-adv-x="278" 
 />
    <glyph glyph-name="space" unicode=" " horiz-adv-x="278" 
 />
    <glyph glyph-name="exclam" unicode="!" horiz-adv-x="305" 
d="M82 725h140q-14 -308 -18 -513h-105q-5 285 -17 513zM89.5 14q-26.5 26 -26.5 63t26.5 63.5t63.5 26.5t62.5 -26t25.5 -64q0 -37 -25.5 -63t-62.5 -26t-63.5 26z" />
    <glyph glyph-name="quotedbl" unicode="&#x22;" horiz-adv-x="429" 
d="M81 458l-16 267h128l-16 -267h-96zM252 458l-16 267h128l-16 -267h-96z" />
    <glyph glyph-name="numbersign" unicode="#" horiz-adv-x="778" 
d="M137 0l42 178h-116v104h140l28 120h-116v107h141l48 206h102l-49 -206h145l48 206h103l-49 -206h111v-107h-136l-29 -120h109v-104h-134l-42 -178h-100l42 178h-146l-42 -178h-100zM304 282h145l28 120h-145z" />
    <glyph glyph-name="dollar" unicode="$" horiz-adv-x="614" 
d="M261 -12q-93 13 -145 63.5t-69 110.5l113 53q11 -53 50 -91t107 -38q55 0 89.5 25.5t34.5 70.5q0 33 -19.5 54.5t-49.5 34.5t-83 30q-68 21 -114.5 44.5t-78 65t-31.5 104.5q0 83 54 136t142 62v82h102v-86q76 -15 121 -59t59 -95l-105 -49q-11 42 -44.5 75t-92.5 33
q-48 0 -79 -23.5t-31 -66.5q0 -34 20 -54.5t48 -32t93 -32.5q67 -22 112.5 -47.5t73.5 -66.5t28 -102q0 -84 -54.5 -137.5t-148.5 -64.5v-88h-102v89z" />
    <glyph glyph-name="percent" unicode="%" horiz-adv-x="981" 
d="M276 18l-83 57l514 626l83 -57zM154 369q-44 26 -69 70t-25 96q0 51 24.5 94.5t69 69t101.5 25.5q56 0 99.5 -25.5t67.5 -68.5t24 -95t-24 -96t-68 -70t-100 -26t-100 26zM313.5 471q23.5 26 23.5 63t-23.5 62.5t-58.5 25.5q-36 0 -60 -25t-24 -63q0 -39 23.5 -64
t59.5 -25t59.5 26zM630 12q-45 26 -70 70t-25 96q0 51 25 95t69.5 69.5t101.5 25.5q56 0 99.5 -25.5t67.5 -69t24 -95.5q0 -51 -23.5 -95t-67 -70.5t-100.5 -26.5q-56 0 -101 26zM789 114q23 26 23 63t-23 63t-59 26q-35 0 -59 -25t-24 -64q0 -38 24 -63.5t60 -25.5
q35 0 58 26z" />
    <glyph glyph-name="ampersand" unicode="&#x26;" horiz-adv-x="807" 
d="M179.5 10q-55.5 25 -86.5 68.5t-31 98.5q0 74 50 126t115 82q-29 36 -44 57t-27 50.5t-12 62.5q0 49 27 89.5t75.5 64t110.5 23.5q57 0 103.5 -20.5t73.5 -57.5t27 -85q0 -65 -45 -114.5t-111 -90.5l133 -138q46 82 45 198l112 -13q-4 -155 -81 -264l142 -147h-157
l-62 65q-50 -39 -109.5 -59.5t-122.5 -20.5q-70 0 -125.5 25zM464 141l-166 174q-51 -29 -77 -57.5t-26 -67.5q0 -46 34 -72.5t90 -26.5q79 0 145 50zM382.5 457q31.5 22 48 46.5t16.5 51.5q0 36 -25 60t-65 24q-39 0 -65 -23.5t-26 -60.5q0 -30 16 -54t48 -57l14 -14
q7 5 38.5 27z" />
    <glyph glyph-name="quotesingle" unicode="'" horiz-adv-x="258" 
d="M81 458l-16 267h128l-16 -267h-96z" />
    <glyph glyph-name="parenleft" unicode="(" horiz-adv-x="404" 
d="M128.5 31q-65.5 135 -65.5 281q0 102 32.5 197t90.5 171.5t134 123.5l55 -75q-90 -71 -145 -181t-55 -234q0 -87 26.5 -169t72.5 -148t103 -105l-56 -76q-127 80 -192.5 215z" />
    <glyph glyph-name="parenright" unicode=")" horiz-adv-x="410" 
d="M34 -103q91 70 146 180t55 235q0 87 -26.5 169t-72.5 147.5t-103 105.5l56 75q126 -80 191.5 -215t65.5 -283q0 -96 -30.5 -190t-88.5 -172t-137 -127z" />
    <glyph glyph-name="asterisk" unicode="*" horiz-adv-x="567" 
d="M195 305l-77 56l97 126l-152 43l30 91l147 -53l-6 157h96l-5 -159l149 54l29 -91l-149 -44l95 -121l-78 -57l-87 130z" />
    <glyph glyph-name="plus" unicode="+" horiz-adv-x="608" 
d="M253 54v211h-200v97h200v204h101v-204h201v-97h-201v-211h-101z" />
    <glyph glyph-name="comma" unicode="," horiz-adv-x="270" 
d="M65 -116l3 73q32 0 46 10.5t19 36.5q-36 4 -57.5 27t-21.5 55q0 34 23.5 58t61.5 24q43 0 63 -31t20 -85q0 -80 -39.5 -125t-97.5 -45q-11 0 -20 2z" />
    <glyph glyph-name="hyphen" unicode="-" horiz-adv-x="496" 
d="M63 207v116h370v-116h-370z" />
    <glyph glyph-name="period" unicode="." horiz-adv-x="291" 
d="M83.5 13q-24.5 26 -24.5 64q0 39 24 65t65 26q40 0 65 -26t25 -65q0 -38 -25 -64t-65 -26t-64.5 26z" />
    <glyph glyph-name="slash" unicode="/" horiz-adv-x="476" 
d="M43 -101l280 868h110l-280 -868h-110z" />
    <glyph glyph-name="zero" unicode="0" horiz-adv-x="628" 
d="M111 81.5q-68 95.5 -68 266.5q0 175 70 274.5t201 99.5q130 0 200.5 -98.5t70.5 -275.5q0 -172 -68 -267t-203 -95t-203 95.5zM424.5 153.5q36.5 63.5 36.5 196.5q0 268 -147 268q-74 0 -110.5 -68.5t-36.5 -200.5q0 -131 36.5 -195t110.5 -64t110.5 63.5z" />
    <glyph glyph-name="one" unicode="1" horiz-adv-x="434" 
d="M205 543q-18 -32 -51.5 -48.5t-72.5 -16.5h-38v112h23q59 0 98.5 33.5t46.5 86.5h115v-710h-121v543z" />
    <glyph glyph-name="two" unicode="2" horiz-adv-x="570" 
d="M55 88q126 102 200 174.5t109 132t35 114.5q0 50 -27.5 80.5t-81.5 30.5q-71 0 -102.5 -51t-32.5 -119l-113 31q6 61 33 115.5t81.5 90t137.5 35.5q73 0 124.5 -27t78 -74t26.5 -105q0 -98 -75 -194.5t-213 -208.5h290v-113h-470v88z" />
    <glyph glyph-name="three" unicode="3" horiz-adv-x="604" 
d="M150 18q-58 32 -85.5 80t-32.5 100l130 14q3 -51 36.5 -88t105.5 -37q62 0 98.5 30.5t36.5 82.5q0 62 -52.5 95.5t-140.5 31.5v91q77 2 120.5 31.5t43.5 78.5q0 39 -29 66t-83 27q-67 0 -98 -38.5t-31 -87.5l-116 13q1 50 24.5 99t77.5 82t141 33q73 0 127 -24.5
t82.5 -65.5t28.5 -90q0 -41 -19 -75.5t-49 -56t-61 -27.5v-2q67 -14 112.5 -57t45.5 -123q0 -65 -33 -113.5t-93.5 -75t-139.5 -26.5q-89 0 -147 32z" />
    <glyph glyph-name="four" unicode="4" horiz-adv-x="626" 
d="M363 0v156h-338v91l324 463h138v-455h106v-99h-106v-156h-124zM144 255h223v316h-1z" />
    <glyph glyph-name="five" unicode="5" horiz-adv-x="610" 
d="M162.5 16q-55.5 30 -85.5 75.5t-40 94.5l127 16q8 -45 42 -78t96 -33q65 0 103 39t38 109q0 67 -36 104.5t-99 37.5q-90 0 -133 -79l-117 27l44 381h426v-109h-322l-23 -174q61 54 148 54q64 0 118 -27.5t86 -81t32 -129.5q0 -78 -34.5 -136t-95.5 -89.5t-140 -31.5
t-134.5 30z" />
    <glyph glyph-name="six" unicode="6" horiz-adv-x="619" 
d="M117 74q-73 88 -73 269q0 180 73 279.5t207 99.5q69 0 119 -25t79 -63t40 -80l-124 -36q-9 42 -38.5 71.5t-81.5 29.5q-70 0 -109.5 -66t-36.5 -184q26 36 69.5 57t102.5 21q72 0 125 -30.5t81.5 -82.5t28.5 -114q0 -70 -34.5 -123t-94.5 -82t-134 -29q-126 0 -199 88z
M414.5 124.5q35.5 35.5 35.5 93.5q0 57 -35 93t-98 36q-60 0 -96 -30.5t-45 -68.5q0 -69 38.5 -114t105.5 -45q59 0 94.5 35.5z" />
    <glyph glyph-name="seven" unicode="7" horiz-adv-x="539" 
d="M198 320q65 146 199 277h-367v113h479v-108q-124 -135 -189.5 -283t-79.5 -319h-126q19 174 84 320z" />
    <glyph glyph-name="eight" unicode="8" horiz-adv-x="616" 
d="M161.5 14q-59.5 28 -90.5 77t-31 111q0 70 37 117t95 73v1q-44 22 -72.5 60.5t-28.5 91.5q0 52 28.5 92t82 62.5t126.5 22.5q74 0 128 -22.5t82 -63t28 -91.5q0 -52 -29.5 -90t-72.5 -57v-1q57 -28 94 -75t37 -116q0 -62 -32.5 -112t-94 -79t-145.5 -29q-82 0 -141.5 28z
M414 128q37 35 37 89t-38 90.5t-105 36.5q-66 0 -105 -36t-39 -91q0 -52 37.5 -88t105.5 -36q70 0 107 35zM394.5 466.5q31.5 27.5 31.5 71.5t-32 69t-86 25q-56 0 -86.5 -26t-30.5 -67q0 -46 32 -73t85 -27q55 0 86.5 27.5z" />
    <glyph glyph-name="nine" unicode="9" horiz-adv-x="619" 
d="M135.5 36q-59.5 50 -77.5 118l123 36q9 -42 38.5 -71.5t81.5 -29.5q71 0 110.5 66t36.5 184q-59 -78 -172 -78q-70 0 -123.5 29.5t-83 81t-29.5 115.5q0 70 34.5 123.5t94.5 82.5t135 29q126 0 198.5 -88t72.5 -269q0 -177 -72 -278t-208 -101q-100 0 -159.5 50z
M398.5 392q35.5 30 44.5 68q0 70 -38.5 114.5t-105.5 44.5q-59 0 -94.5 -35.5t-35.5 -92.5t35.5 -93t99.5 -36q59 0 94.5 30z" />
    <glyph glyph-name="colon" unicode=":" horiz-adv-x="291" 
d="M83.5 13q-24.5 26 -24.5 64q0 39 24 65t65 26q40 0 65 -26t25 -65q0 -38 -25 -64t-65 -26t-64.5 26zM83.5 348q-24.5 26 -24.5 64q0 39 24 65t65 26q40 0 65 -26t25 -65q0 -38 -25 -64t-65 -26t-64.5 26z" />
    <glyph glyph-name="semicolon" unicode=";" horiz-adv-x="291" 
d="M70 -116l3 73q32 0 46 10.5t19 36.5q-36 4 -57.5 27t-21.5 55q0 34 23.5 58t61.5 24q43 0 63 -31t20 -85q0 -80 -39.5 -125t-97.5 -45q-11 0 -20 2zM83.5 352q-24.5 26 -24.5 64q0 39 24 65t65 26q40 0 65 -26t25 -65q0 -38 -25 -64t-65 -26t-64.5 26z" />
    <glyph glyph-name="less" unicode="&#x3c;" horiz-adv-x="535" 
d="M482 36l-429 226v118l429 224v-112l-332 -168l332 -180v-108z" />
    <glyph glyph-name="equal" unicode="=" horiz-adv-x="564" 
d="M53 356v100h457v-100h-457zM53 164v100h457v-100h-457z" />
    <glyph glyph-name="greater" unicode="&#x3e;" horiz-adv-x="535" 
d="M53 23v109l330 185l-330 175v112l429 -228v-121z" />
    <glyph glyph-name="question" unicode="?" horiz-adv-x="603" 
d="M215 305q0 42 26 70.5t92 72.5q39 25 58.5 46t19.5 53q0 37 -29 60.5t-79 23.5q-63 0 -91.5 -34t-28.5 -80l-128 18q2 54 26.5 101.5t79 78.5t141.5 31q77 0 132 -25t83.5 -69.5t28.5 -101.5q0 -61 -29 -98.5t-83 -74.5q-54 -36 -71 -51.5t-17 -32.5q0 -9 4.5 -20
t9.5 -18.5t8 -13.5l-115 -28q-38 43 -38 92zM230.5 14q-27.5 27 -27.5 64t27.5 64t65.5 27t65.5 -27t27.5 -64t-27.5 -64t-65.5 -27t-65.5 27z" />
    <glyph glyph-name="at" unicode="@" horiz-adv-x="817" 
d="M232.5 -81q-87.5 43 -138.5 128t-51 205t51 207t137.5 132t189.5 45q101 0 181 -43t125.5 -119.5t45.5 -174.5q0 -70 -23.5 -125t-66 -85.5t-96.5 -30.5q-39 0 -61 17.5t-30 55.5h-2q-15 -33 -48 -51.5t-68 -18.5q-37 0 -75 21.5t-63 66.5t-25 111q0 65 24.5 110
t62.5 66.5t78 21.5q36 0 65 -17.5t45 -43.5h2v51h92v-301h19q31 0 50 38.5t19 106.5q0 117 -63 186.5t-181 69.5q-82 0 -146 -34t-100.5 -100t-36.5 -158q0 -93 36.5 -158.5t101 -99.5t147.5 -34q29 0 73 6l12 -84q-44 -10 -89 -10q-106 0 -193.5 43zM471 181.5
q24 31.5 24 80.5q0 48 -24 80t-69 32q-43 0 -65.5 -29t-22.5 -83q0 -55 23 -83.5t65 -28.5q45 0 69 31.5z" />
    <glyph glyph-name="A" unicode="A" horiz-adv-x="714" 
d="M19 0l256 715h163l257 -715h-136l-60 172h-288l-60 -172h-132zM251 287h207l-103 293h-1z" />
    <glyph glyph-name="B" unicode="B" horiz-adv-x="640" 
d="M63 715h303q100 0 157.5 -48.5t57.5 -127.5q0 -55 -27.5 -96t-74.5 -60v-2q63 -22 96 -69.5t33 -112.5q0 -91 -64 -145t-175 -54h-306v715zM376 110q44 0 71 28t27 76q0 49 -27.5 78.5t-73.5 29.5h-182v-212h185zM355 421q41 0 67 25t26 68q0 44 -25 69t-66 25h-166v-187
h164z" />
    <glyph glyph-name="C" unicode="C" horiz-adv-x="719" 
d="M205 23.5q-77 40.5 -123.5 125.5t-46.5 210q0 124 46.5 208t122.5 124.5t167 40.5q90 0 153.5 -38t99.5 -94.5t50 -118.5l-130 -36q-16 74 -58.5 123.5t-119.5 49.5q-55 0 -99.5 -28.5t-70.5 -86.5t-26 -143q0 -86 26.5 -145t73 -88t105.5 -29q75 0 115.5 46t50.5 110
l130 -26q-11 -60 -45 -115.5t-96.5 -92.5t-154.5 -37q-93 0 -170 40.5z" />
    <glyph glyph-name="D" unicode="D" horiz-adv-x="684" 
d="M63 715h240q116 0 193.5 -46.5t114.5 -126.5t37 -182q0 -108 -39.5 -189t-117.5 -126t-188 -45h-240v715zM317 116q100 0 150 64t50 177q0 114 -51.5 178t-149.5 64h-125v-483h126z" />
    <glyph glyph-name="E" unicode="E" horiz-adv-x="604" 
d="M63 0v715h492v-116h-364v-179h321v-109h-321v-195h362v-116h-490z" />
    <glyph glyph-name="F" unicode="F" horiz-adv-x="594" 
d="M63 0v715h499v-118h-369v-176h321v-112h-321v-309h-130z" />
    <glyph glyph-name="G" unicode="G" horiz-adv-x="763" 
d="M213 20q-75 37 -126.5 120.5t-51.5 214.5q0 128 49 212.5t127.5 124.5t168.5 40q122 0 197.5 -66.5t103.5 -158.5l-130 -38q-16 58 -60 103.5t-116 45.5q-52 0 -98.5 -26.5t-76.5 -85.5t-30 -150q0 -89 30 -147t78.5 -84.5t106.5 -26.5q56 0 100 24t67.5 63.5t23.5 83.5
v13h-199v100h323v-382h-96l-8 150h-3q-5 -36 -34.5 -75t-80.5 -65.5t-116 -26.5q-74 0 -149 37z" />
    <glyph glyph-name="H" unicode="H" horiz-adv-x="709" 
d="M63 0v715h128v-289h327v289h128v-715h-128v308h-327v-308h-128z" />
    <glyph glyph-name="I" unicode="I" horiz-adv-x="255" 
d="M63 0v715h128v-715h-128z" />
    <glyph glyph-name="J" unicode="J" horiz-adv-x="597" 
d="M154 17.5q-56 34.5 -82.5 88t-30.5 113.5l129 17q2 -56 32.5 -97t98.5 -41q109 0 109 119v498h127v-492q0 -114 -61 -177t-178 -63q-88 0 -144 34.5z" />
    <glyph glyph-name="K" unicode="K" horiz-adv-x="664" 
d="M63 0v715h128v-336l287 336h158l-290 -330l306 -385h-160l-232 294l-69 -74v-220h-128z" />
    <glyph glyph-name="L" unicode="L" horiz-adv-x="570" 
d="M63 0v715h128v-596h337v-119h-465z" />
    <glyph glyph-name="M" unicode="M" horiz-adv-x="851" 
d="M63 0v715h141l225 -345l219 345h139v-715h-125v522h-3l-219 -333h-32l-216 334h-3v-523h-126z" />
    <glyph glyph-name="N" unicode="N" horiz-adv-x="717" 
d="M63 0v715h141l322 -521h2v521h126v-715h-139l-325 523h-1v-523h-126z" />
    <glyph glyph-name="O" unicode="O" horiz-adv-x="753" 
d="M210.5 25q-78.5 42 -127 127t-48.5 208q0 122 49 206t127.5 125t167.5 41q90 0 167.5 -41t124.5 -125t47 -206q0 -121 -47 -206.5t-124.5 -128t-167.5 -42.5t-168.5 42zM481 125.5q46 27.5 74 86.5t28 149q0 88 -28 145.5t-74 84t-102 26.5t-103.5 -27t-76.5 -84.5
t-29 -145.5q0 -89 29.5 -148t77 -86.5t103.5 -27.5q55 0 101 27.5z" />
    <glyph glyph-name="P" unicode="P" horiz-adv-x="612" 
d="M63 715h282q78 0 134 -29.5t84.5 -81t28.5 -116.5q0 -64 -28 -116.5t-86.5 -84.5t-144.5 -32h-142v-255h-128v715zM338 367q58 0 90.5 31t32.5 88q0 55 -32.5 84.5t-89.5 29.5h-148v-233h147z" />
    <glyph glyph-name="Q" unicode="Q" horiz-adv-x="753" 
d="M494 -76.5q-44 20.5 -73 61.5q-26 -2 -41 -2q-90 0 -169 42t-127.5 127t-48.5 208q0 122 49 206t127.5 125t167.5 41q90 0 167.5 -41t124.5 -125t47 -206q0 -132 -54.5 -220t-143.5 -128q32 -4 108 -4h67l-7 -105h-89q-61 0 -105 20.5zM481 125.5q46 27.5 74 86.5t28 149
q0 88 -28 145.5t-74 84t-102 26.5t-103.5 -27t-76.5 -84.5t-29 -145.5q0 -89 29.5 -148t77 -86.5t103.5 -27.5q55 0 101 27.5z" />
    <glyph glyph-name="R" unicode="R" horiz-adv-x="662" 
d="M63 715h294q117 0 179.5 -54t62.5 -152q0 -95 -52 -145.5t-123 -68.5l191 -292v-3h-152l-173 274h-99v-274h-128v715zM323 377q62 0 101.5 27.5t39.5 91.5t-36 86.5t-85 22.5h-152v-228h132z" />
    <glyph glyph-name="S" unicode="S" horiz-adv-x="622" 
d="M176.5 10.5q-59.5 27.5 -93 69t-46.5 87.5l124 57q11 -53 51.5 -91t110.5 -38q56 0 90 24t34 67q0 34 -21 55.5t-50.5 33.5t-86.5 30q-73 23 -121.5 47.5t-79.5 66.5t-31 105q0 62 30.5 109.5t86 73t128.5 25.5q74 0 128.5 -25t86.5 -63.5t44 -79.5l-116 -52
q-11 45 -46 77.5t-93 32.5q-49 0 -80 -23t-31 -64q0 -33 20.5 -54t50 -32.5t94.5 -32.5q71 -23 118.5 -48.5t77 -67.5t29.5 -104q0 -99 -72 -156t-193 -57q-84 0 -143.5 27.5z" />
    <glyph glyph-name="T" unicode="T" horiz-adv-x="623" 
d="M247 0v599h-223v116h575v-116h-224v-599h-128z" />
    <glyph glyph-name="U" unicode="U" horiz-adv-x="696" 
d="M200 13q-64 30 -100.5 85t-36.5 127v490h128v-459q0 -80 42.5 -119t114.5 -39q74 0 115.5 40.5t41.5 117.5v459h128v-489q0 -70 -37 -125.5t-103 -86.5t-148 -31q-81 0 -145 30z" />
    <glyph glyph-name="V" unicode="V" horiz-adv-x="696" 
d="M266 0l-251 715h138l197 -572h1l196 572h133l-250 -715h-164z" />
    <glyph glyph-name="W" unicode="W" horiz-adv-x="1022" 
d="M234 0l-215 715h131l151 -512h2l152 512h114l150 -510h2l151 510h131l-215 -715h-125l-151 516h-2l-151 -516h-125z" />
    <glyph glyph-name="X" unicode="X" horiz-adv-x="715" 
d="M25 0l249 359l-244 356h152l181 -268l172 268h152l-247 -355l250 -360h-154l-182 266l-178 -266h-151z" />
    <glyph glyph-name="Y" unicode="Y" horiz-adv-x="667" 
d="M270 0v265l-261 450h146l182 -323l181 323h140l-261 -450v-265h-127z" />
    <glyph glyph-name="Z" unicode="Z" horiz-adv-x="622" 
d="M44 0v102l365 497h-353v116h508v-102l-369 -498h382v-115h-533z" />
    <glyph glyph-name="bracketleft" unicode="[" horiz-adv-x="327" 
d="M63 -151v931h226v-104h-118v-722h118v-105h-226z" />
    <glyph glyph-name="backslash" unicode="\" horiz-adv-x="486" 
d="M323 -101l-280 868h120l281 -868h-121z" />
    <glyph glyph-name="bracketright" unicode="]" horiz-adv-x="327" 
d="M38 -151v104h118v723h-118v104h225v-931h-225z" />
    <glyph glyph-name="asciicircum" unicode="^" horiz-adv-x="630" 
d="M59 365l197 350h118l197 -350h-127l-129 245l-130 -245h-126z" />
    <glyph glyph-name="underscore" unicode="_" horiz-adv-x="453" 
d="M0 -157v115h453v-115h-453z" />
    <glyph glyph-name="grave" unicode="`" horiz-adv-x="385" 
d="M196 579l-121 146h156l78 -146h-113z" />
    <glyph glyph-name="a" unicode="a" horiz-adv-x="550" 
d="M88.5 23.5q-44.5 37.5 -44.5 101.5q0 61 38.5 96t91.5 50.5t128 27.5q43 6 55.5 12t12.5 23q0 28 -23 47t-66 19q-50 0 -79.5 -23t-39.5 -53l-94 53q19 49 74 85t144 36q90 0 147.5 -44t54.5 -137l-6 -194q-2 -43 40 -40v-92q-24 -3 -28 -3q-47 0 -72.5 11t-36 34.5
t-13.5 65.5h-2q-16 -52 -58 -82.5t-107 -30.5q-72 0 -116.5 37.5zM302.5 99.5q30.5 18.5 47.5 47.5t18 60l1 42q-9 -12 -22 -17.5t-37 -10.5q-58 -12 -85 -20t-43.5 -23t-16.5 -41q0 -28 17.5 -42t50.5 -14q39 0 69.5 18.5z" />
    <glyph glyph-name="b" unicode="b" horiz-adv-x="560" 
d="M233.5 9q-36.5 23 -56.5 58h-1v-67h-122v715h123v-300h1q22 35 61 58t87 23q51 0 97.5 -26.5t77 -83.5t30.5 -143q0 -89 -32.5 -147t-81 -84t-98.5 -26q-49 0 -85.5 23zM375 127.5q32 40.5 32 116.5q0 75 -31.5 113t-84.5 38t-85 -39t-32 -111q0 -74 32.5 -116t85.5 -42
q51 0 83 40.5z" />
    <glyph glyph-name="c" unicode="c" horiz-adv-x="534" 
d="M148.5 14q-55.5 30 -87.5 87.5t-32 138.5q0 84 34 142.5t91 87t124 28.5q91 0 142.5 -47.5t71.5 -108.5l-114 -37q-12 40 -35.5 65.5t-66.5 25.5q-51 0 -86 -38.5t-35 -117.5q0 -80 35.5 -116.5t84.5 -36.5q43 0 70.5 26t34.5 66l120 -10q-7 -42 -31 -84t-72.5 -71.5
t-121.5 -29.5q-71 0 -126.5 30z" />
    <glyph glyph-name="d" unicode="d" horiz-adv-x="560" 
d="M141.5 12.5q-48.5 26.5 -80.5 84.5t-32 145q0 85 30 142.5t77.5 84.5t100.5 27q49 0 86 -23t60 -57h1v299h122v-715h-121v65h-1q-20 -33 -57 -56t-87 -23t-98.5 26.5zM354 129.5q32 43.5 32 116.5q0 72 -31.5 110.5t-85.5 38.5q-53 0 -84.5 -37.5t-31.5 -111.5
q0 -76 32.5 -118t83.5 -42q53 0 85 43.5z" />
    <glyph glyph-name="e" unicode="e" horiz-adv-x="529" 
d="M152 12q-55 28 -88 85.5t-33 141.5q0 81 31.5 139.5t87 89t127.5 30.5q104 0 161.5 -63t57.5 -179v-47h-340q3 -53 36.5 -88.5t85.5 -35.5q46 0 74 24.5t38 55.5l97 -48q-21 -53 -74.5 -93t-139.5 -40q-66 0 -121 28zM370 293q-7 114 -102 114q-48 0 -75.5 -31t-32.5 -83
h210z" />
    <glyph glyph-name="f" unicode="f" horiz-adv-x="378" 
d="M117 383h-96v98h96v88q0 74 38 117t116 43q54 0 95 -18l-21 -98q-11 4 -27 7t-29 3q-29 0 -40 -15t-11 -41v-86h116v-98h-114v-383h-123v383z" />
    <glyph glyph-name="g" unicode="g" horiz-adv-x="547" 
d="M86 -182.5q-60 33.5 -60 90.5q0 35 22 65t63 48v2q-34 13 -50 33.5t-16 43.5q0 31 25.5 54.5t63.5 29.5v2q-88 48 -88 134q0 48 26.5 88.5t76.5 64.5t116 24h51q32 0 48 10.5t21 30t5 55.5h120v-35q0 -45 -35.5 -66.5t-88.5 -21.5v-3q41 -22 64.5 -58.5t23.5 -84.5
q0 -51 -27 -89.5t-77.5 -60t-117.5 -21.5l-54 1q-15 0 -25 -9t-10 -21q0 -15 13 -22.5t34 -7.5h154q82 0 125 -35t43 -97q0 -84 -75 -131t-202 -47q-109 0 -169 33.5zM370 -114q42 18 42 58q0 54 -82 54l-127 -3q-24 -1 -41 -19t-17 -43q0 -34 35.5 -49.5t88.5 -15.5
q59 0 101 18zM329.5 255.5q24.5 24.5 24.5 67.5t-25.5 69.5t-67.5 26.5t-67 -26t-25 -69t25 -68t68 -25t67.5 24.5z" />
    <glyph glyph-name="h" unicode="h" horiz-adv-x="535" 
d="M54 715h123v-312h1q44 93 146 93q68 0 115 -40.5t47 -123.5v-332h-122v302q0 44 -20.5 67.5t-58.5 23.5q-48 0 -78 -35.5t-30 -110.5v-247h-123v715z" />
    <glyph glyph-name="i" unicode="i" horiz-adv-x="225" 
d="M54 0v481h123v-481h-123zM57 568.5q-23 21.5 -23 53.5t23 54t59 22q35 0 58 -22t23 -54t-23 -53.5t-58 -21.5q-36 0 -59 21.5z" />
    <glyph glyph-name="j" unicode="j" horiz-adv-x="247" 
d="M-28 -201l11 102q18 -3 33 -3q38 0 48.5 19.5t10.5 47.5v516h123v-506q0 -85 -45 -133t-126 -48q-34 0 -55 5zM80 568.5q-23 21.5 -23 53.5t23 54t59 22q35 0 58 -22t23 -54t-23 -53.5t-58 -21.5q-36 0 -59 21.5z" />
    <glyph glyph-name="k" unicode="k" horiz-adv-x="531" 
d="M54 0v715h123v-421l174 187h152l-192 -200l201 -281h-147l-139 202l-49 -49v-153h-123z" />
    <glyph glyph-name="l" unicode="l" horiz-adv-x="225" 
d="M54 0v715h123v-715h-123z" />
    <glyph glyph-name="m" unicode="m" horiz-adv-x="806" 
d="M54 481h123v-67h1q15 34 48 58t86 24q43 0 78.5 -21t53.5 -66q22 41 57 64t92 23q65 0 114.5 -38.5t49.5 -139.5v-318h-123v305q0 87 -72 87q-48 0 -71.5 -36.5t-23.5 -96.5v-259h-123v305q0 87 -72 87q-49 0 -72 -36t-23 -97v-259h-123v481z" />
    <glyph glyph-name="n" unicode="n" horiz-adv-x="535" 
d="M54 481h123v-67h1q19 39 58 60.5t89 21.5q68 0 114.5 -40t46.5 -121v-335h-122v307q0 40 -20.5 63.5t-58.5 23.5q-48 0 -78 -35t-30 -103v-256h-123v481z" />
    <glyph glyph-name="o" unicode="o" horiz-adv-x="547" 
d="M151.5 13q-55.5 29 -89 87t-33.5 140t33.5 140.5t88.5 88t120 29.5q66 0 122 -29.5t90.5 -87.5t34.5 -140q0 -81 -33.5 -139t-89.5 -88t-123 -30q-65 0 -120.5 29zM360 125q34 38 34 116q0 80 -35 117.5t-86 37.5t-85.5 -38t-34.5 -117q0 -78 34 -116t87 -38q52 0 86 38z
" />
    <glyph glyph-name="p" unicode="p" horiz-adv-x="560" 
d="M54 481h123v-66h1q21 34 57 57.5t85 23.5q52 0 100 -26t79.5 -83t31.5 -144q0 -86 -31.5 -144t-79.5 -85.5t-99 -27.5q-48 0 -84 21.5t-59 53.5h-1v-261h-123v681zM376 128q32 40 32 115q0 76 -32 114t-84 38q-55 0 -86.5 -40t-31.5 -112q0 -73 32 -114t86 -41
q52 0 84 40z" />
    <glyph glyph-name="q" unicode="q" horiz-adv-x="560" 
d="M384 61h-1q-21 -31 -58.5 -53t-83.5 -22q-50 0 -99 27.5t-81 85t-32 143.5q0 87 32 144t80 83.5t98 26.5t87 -23.5t57 -57.5h1v66h122v-681h-122v261zM354 129q32 41 32 113q0 73 -32 113t-85 40q-52 0 -84.5 -39t-32.5 -113q0 -73 31.5 -114t85.5 -41q53 0 85 41z" />
    <glyph glyph-name="r" unicode="r" horiz-adv-x="374" 
d="M54 481h123v-70q20 39 48 62t68 23q37 0 64 -16l-21 -113q-27 13 -61 13q-48 0 -73 -39.5t-25 -117.5v-223h-123v481z" />
    <glyph glyph-name="s" unicode="s" horiz-adv-x="473" 
d="M86.5 26q-52.5 42 -64.5 100l107 33q8 -34 35.5 -58.5t76.5 -24.5q37 0 56 15t19 40q0 21 -14 33.5t-35 19.5t-62 16q-77 18 -122 48.5t-45 98.5q0 69 52 110t142 41q88 0 140 -37.5t70 -86.5l-102 -38q-13 29 -41 50t-68 21q-32 0 -49.5 -14t-17.5 -36q0 -21 15 -33
t32.5 -17t64.5 -16q74 -17 120 -49t46 -101q0 -68 -51 -112.5t-152 -44.5q-100 0 -152.5 42z" />
    <glyph glyph-name="t" unicode="t" horiz-adv-x="384" 
d="M152.5 19q-36.5 33 -36.5 84v280h-92v98h58q18 0 26 8.5t8 26.5v96l122 26v-157h115v-98h-115v-254q0 -41 44 -41q26 0 48 11l25 -91q-46 -22 -99 -22q-67 0 -103.5 33z" />
    <glyph glyph-name="u" unicode="u" horiz-adv-x="535" 
d="M97 26q-48 40 -48 121v334h122v-308q0 -39 20.5 -62t58.5 -23q47 0 77.5 34.5t30.5 101.5v257h123v-481h-123v66h-1q-21 -39 -58 -59.5t-84 -20.5q-70 0 -118 40z" />
    <glyph glyph-name="v" unicode="v" horiz-adv-x="521" 
d="M195 0l-180 481h133l114 -339l111 339h133l-183 -481h-128z" />
    <glyph glyph-name="w" unicode="w" horiz-adv-x="749" 
d="M173 0l-155 481h127l90 -311l92 311h95l91 -311l91 311h127l-155 -481h-108l-94 311l-92 -311h-109z" />
    <glyph glyph-name="x" unicode="x" horiz-adv-x="542" 
d="M19 0l178 245l-169 236h145l99 -149h2l98 149h140l-165 -232l176 -249h-142l-109 162h-2l-110 -162h-141z" />
    <glyph glyph-name="y" unicode="y" horiz-adv-x="515" 
d="M32 -193l7 101h76q39 0 57.5 28t21.5 66l-176 479h126l113 -351l116 351h124l-178 -480q-21 -58 -44 -98t-69.5 -70t-119.5 -30q-26 0 -54 4z" />
    <glyph glyph-name="z" unicode="z" horiz-adv-x="491" 
d="M46 0v95l251 283h-242v103h388v-95l-248 -282h260v-104h-409z" />
    <glyph glyph-name="braceleft" unicode="{" horiz-adv-x="490" 
d="M326.5 -155q-42.5 10 -71.5 54t-36 141q-5 82 -14.5 120.5t-41 65.5t-100.5 42v93q67 15 99 42.5t42 67.5t16 120q8 96 37.5 140t72 54t118.5 10h11v-115h-11q-37 0 -59 -6.5t-39 -35t-20 -89.5q-5 -88 -12.5 -129.5t-30.5 -67.5t-72 -36q49 -11 72.5 -40t31 -72
t11.5 -122q3 -62 19 -90.5t38 -35t60 -6.5h12v-115h-12q-78 0 -120.5 10z" />
    <glyph glyph-name="bar" unicode="|" horiz-adv-x="238" 
d="M63 -170v937h111v-937h-111z" />
    <glyph glyph-name="braceright" unicode="}" horiz-adv-x="490" 
d="M31 -49h11q36 0 58 6.5t39 34.5t20 89q5 87 12 128t30 68t74 38q-50 11 -73.5 40t-31 71.5t-11.5 122.5q-3 62 -19 90.5t-37.5 35t-59.5 6.5h-12v114h12q78 0 120 -10t71 -54t36 -141q6 -79 15 -118t41 -67t100 -42v-94q-68 -15 -99.5 -43t-41.5 -68t-15 -119
q-7 -96 -38 -140t-73.5 -54t-116.5 -10h-11v116z" />
    <glyph glyph-name="asciitilde" unicode="~" horiz-adv-x="710" 
d="M422 237q-29 12 -73 37q-33 19 -53.5 28t-39.5 9q-30 0 -61.5 -21t-54.5 -48l-87 93q41 49 94.5 80t110.5 31q38 0 69 -13t70 -37q29 -18 49.5 -27t41.5 -9q24 0 43.5 13.5t42.5 39.5l83 -90q-26 -38 -73 -68t-99 -30q-34 0 -63 12z" />
    <glyph glyph-name="exclamdown" unicode="&#xa1;" horiz-adv-x="297" 
d="M96 313h105q4 -239 17 -513h-140q14 257 18 513zM85 384.5q-26 26.5 -26 63.5t26 63t62 26q37 0 63.5 -26t26.5 -63t-26 -63.5t-63 -26.5t-63 26.5z" />
    <glyph glyph-name="cent" unicode="&#xa2;" horiz-adv-x="551" 
d="M226 -11q-84 18 -135.5 85.5t-51.5 181.5q0 90 34.5 152t91 92t122.5 30h13l10 69h69l-11 -82q58 -20 96.5 -68.5t50.5 -121.5l-119 -17q-10 61 -45 88l-41 -301q34 7 57.5 31.5t28.5 70.5l119 -6q-11 -99 -69.5 -153t-151.5 -57l-12 -89h-69zM285 419q-52 0 -88 -40.5
t-36 -121.5q0 -63 22.5 -101t58.5 -52z" />
    <glyph glyph-name="sterling" unicode="&#xa3;" horiz-adv-x="692" 
d="M129.5 1q-32.5 15 -53 44.5t-20.5 72.5q0 57 35.5 93.5t87.5 36.5q46 0 74.5 -26t43.5 -59q7 23 7 51q0 52 -29 101h-165v95h110q-37 56 -37 116q0 59 31.5 103.5t83 68.5t111.5 24q87 0 143 -50.5t70 -142.5l-108 -29q-10 56 -34.5 87t-75.5 31q-48 0 -77 -27.5
t-29 -72.5q0 -49 46 -108h213v-95h-159q19 -43 19 -83q0 -68 -45 -127q31 -9 64 -9q53 0 77 24.5t25 79.5l113 -8q-7 -91 -55 -148.5t-145 -57.5q-86 0 -141 49q-49 -49 -114 -49q-34 0 -66.5 15zM260 100q-9 22 -26.5 41.5t-43.5 19.5q-17 0 -28.5 -11.5t-11.5 -28.5
q0 -19 15 -31t40 -12q33 0 55 22z" />
    <glyph glyph-name="currency" unicode="&#xa4;" horiz-adv-x="616" 
d="M450 108q-64 -45 -143 -45t-144 45l-40 -40l-52 52l40 40q-46 66 -46 144q0 79 46 143l-41 42l54 54l40 -41q64 46 142 46q79 0 146 -47l41 41l52 -52l-41 -41q46 -64 46 -145q0 -79 -45 -142l41 -41l-54 -54zM240.5 148q30.5 -12 62.5 -12q34 0 66.5 13t57.5 38
q23 23 36.5 55t13.5 66q0 68 -49 117t-117 49q-34 0 -65.5 -13t-55.5 -37q-25 -25 -38 -57t-13 -66q0 -33 12 -63.5t36 -54.5q23 -23 53.5 -35z" />
    <glyph glyph-name="yen" unicode="&#xa5;" horiz-adv-x="601" 
d="M243 0v102h-157v93h157v56h-163v94h120l-191 356h130l164 -322l163 322h126l-191 -356h123v-94h-166v-56h159v-93h-159v-102h-115z" />
    <glyph glyph-name="brokenbar" unicode="&#xa6;" horiz-adv-x="239" 
d="M63 406v361h113v-361h-113zM63 -170v357h113v-357h-113z" />
    <glyph glyph-name="section" unicode="&#xa7;" horiz-adv-x="661" 
d="M186.5 -137.5q-55.5 39.5 -74.5 124.5l124 29q5 -34 28 -62.5t66 -28.5q29 0 53 15t24 48q0 24 -12.5 37.5t-36.5 28.5l-185 109q-102 60 -102 154q0 97 106 149q-48 48 -48 108q0 42 22.5 81t69.5 63.5t116 24.5q81 0 135.5 -37.5t66.5 -109.5l-121 -36q-12 81 -82 81
q-34 0 -55 -17.5t-21 -43.5q0 -25 19 -42t49 -32l147 -72q123 -59 123 -167q0 -58 -30.5 -97.5t-80.5 -63.5q26 -26 40 -53.5t14 -61.5q0 -50 -27.5 -88t-76.5 -59t-112 -21q-83 0 -138.5 39.5zM461.5 196.5q15.5 17.5 15.5 44.5q0 25 -16.5 45.5t-43.5 34.5l-170 90
q-57 -28 -57 -74q0 -44 52 -73l176 -99q28 14 43.5 31.5z" />
    <glyph glyph-name="dieresis" unicode="&#xa8;" horiz-adv-x="513" 
d="M302 610q-23 21 -23 50q0 30 23 51.5t55 21.5q33 0 57 -21.5t24 -51.5q0 -29 -24 -50t-57 -21q-32 0 -55 21zM99 609.5q-24 20.5 -24 50.5t24 51.5t55 21.5q33 0 56.5 -22t23.5 -51t-23.5 -50t-55.5 -21t-56 20.5z" />
    <glyph glyph-name="copyright" unicode="&#xa9;" horiz-adv-x="828" 
d="M222.5 32q-87.5 49 -137.5 134.5t-50 189.5t49.5 190t136 136t192.5 50t192.5 -50t136.5 -136.5t50 -190.5t-49.5 -189t-136 -134t-191.5 -49t-192.5 49zM318 164q-46 24 -73.5 74.5t-27.5 124.5t27.5 123.5t73 73.5t98.5 24q79 0 123.5 -45.5t57.5 -104.5l-79 -21
q-8 40 -33.5 70.5t-71.5 30.5q-49 0 -81.5 -38.5t-32.5 -112.5q0 -75 33.5 -114t86.5 -39q44 0 68 27.5t29 64.5l79 -16q-11 -58 -54 -102t-122 -44q-55 0 -101 24zM565 100q67 39 105 106.5t38 147.5q0 82 -38.5 150.5t-106 109t-149.5 40.5t-149.5 -40t-106 -108.5
t-38.5 -149.5t38 -148.5t105 -107t151 -39.5t151 39z" />
    <glyph glyph-name="ordfeminine" unicode="&#xaa;" horiz-adv-x="424" 
d="M132.5 435.5q-29.5 15.5 -49.5 50.5t-20 89q0 52 19 86t48.5 50t59.5 16q27 0 48 -13t34 -32h1v36h87v-290h-86v37h-1q-11 -19 -32.5 -32t-49.5 -13q-29 0 -58.5 15.5zM258.5 513q16.5 23 16.5 63q0 39 -16.5 60t-45.5 21q-28 0 -45 -20.5t-17 -60.5q0 -42 17 -64t45 -22
q29 0 45.5 23z" />
    <glyph glyph-name="guillemotleft" unicode="&#xab;" horiz-adv-x="562" 
d="M172 53l-118 200v11l118 191h123l-116 -196l116 -206h-123zM385 53l-117 200v11l117 191h123l-115 -196l115 -206h-123z" />
    <glyph glyph-name="logicalnot" unicode="&#xac;" horiz-adv-x="686" 
d="M521 178v210h-468v112h580v-322h-112z" />
    <glyph glyph-name="uni00AD" unicode="&#xad;" horiz-adv-x="496" 
d="M63 207v116h370v-116h-370z" />
    <glyph glyph-name="registered" unicode="&#xae;" horiz-adv-x="852" 
d="M234.5 32q-87.5 49 -137.5 134.5t-50 189.5t49.5 190t136 136t192.5 50t192.5 -50t136.5 -136.5t50 -190.5t-49.5 -189t-136 -134t-191.5 -49t-192.5 49zM577 100q67 39 105 106.5t38 147.5q0 82 -38.5 150.5t-106 109t-149.5 40.5t-149.5 -40t-106 -108.5t-38.5 -149.5
t38 -148.5t105 -107t151 -39.5t151 39zM278 578h175q70 0 107.5 -32t37.5 -90q0 -56 -31 -86t-72 -41l112 -173v-2h-93l-101 162h-57v-162h-78v424zM433 378q36 0 59 16t23 53q0 41 -23.5 52.5t-47.5 11.5h-88v-133h77z" />
    <glyph glyph-name="macron" unicode="&#xaf;" horiz-adv-x="481" 
d="M75 597v98h330v-98h-330z" />
    <glyph glyph-name="degree" unicode="&#xb0;" horiz-adv-x="553" 
d="M174.5 365q-46.5 26 -74 72t-27.5 104q0 57 26.5 102t73 70.5t103.5 25.5t103.5 -25.5t73.5 -70.5t27 -103q0 -57 -27 -103t-73.5 -72t-102.5 -26t-102.5 26zM343 472.5q26 28.5 26 67.5q0 40 -27 67t-65 27t-65 -27.5t-27 -67.5t26 -67.5t66 -27.5t66 28.5z" />
    <glyph glyph-name="plusminus" unicode="&#xb1;" horiz-adv-x="584" 
d="M241 182v125h-131v97h131v124h105v-124h131v-97h-131v-125h-105zM53 44v101h478v-101h-478z" />
    <glyph glyph-name="uni00B2" unicode="&#xb2;" horiz-adv-x="385" 
d="M49 369q113 93 157.5 146t44.5 96q0 26 -14 42t-42 16q-38 0 -55.5 -29.5t-18.5 -69.5l-80 23q6 61 44 105t114 44q67 0 104.5 -36t37.5 -89q0 -102 -163 -229h163v-80h-292v61z" />
    <glyph glyph-name="uni00B3" unicode="&#xb3;" horiz-adv-x="403" 
d="M80 339q-40 38 -45 91l93 11q1 -28 18.5 -48.5t56.5 -20.5q31 0 49.5 15.5t18.5 42.5q0 34 -29.5 51.5t-76.5 15.5v64q43 1 67 16.5t24 42.5q0 21 -15 35.5t-41 14.5q-36 0 -53 -21t-19 -51l-82 11q2 55 38.5 94t113.5 39q69 0 109 -31.5t40 -77.5q0 -37 -25 -64t-53 -33
v-1q93 -22 93 -107q0 -58 -44.5 -92.5t-118.5 -34.5q-79 0 -119 38z" />
    <glyph glyph-name="acute" unicode="&#xb4;" horiz-adv-x="385" 
d="M75 579l78 146h156l-121 -146h-113z" />
    <glyph glyph-name="uni00B5" unicode="&#xb5;" horiz-adv-x="593" 
d="M57 520h138v-297q0 -61 23.5 -91t70.5 -30q51 0 79.5 34.5t28.5 100.5v283h139v-520h-127v49h-1q-1 -1 -14.5 -17.5t-45 -31t-67.5 -14.5q-29 0 -52.5 8.5t-33.5 18.5v-179h-138v686z" />
    <glyph glyph-name="paragraph" unicode="&#xb6;" horiz-adv-x="672" 
d="M343 257q-125 0 -202.5 58.5t-77.5 172.5q0 109 74 168t206 59h265v-873h-90v778h-85v-778h-90v415z" />
    <glyph glyph-name="periodcentered" unicode="&#xb7;" horiz-adv-x="301" 
d="M87.5 243.5q-24.5 24.5 -24.5 58.5t25.5 58t62.5 24q38 0 62 -24t24 -58q0 -36 -25.5 -59.5t-61.5 -23.5q-38 0 -62.5 24.5z" />
    <glyph glyph-name="cedilla" unicode="&#xb8;" horiz-adv-x="388" 
d="M114 -195q-30 25 -39 61l85 9q2 -10 9.5 -17.5t21.5 -7.5q13 0 20.5 7.5t7.5 21.5t-8 21.5t-20 7.5q-17 0 -29 -12l-55 34l58 70h83l-42 -46q8 5 28 5q33 0 56 -22t23 -59q0 -45 -31.5 -71.5t-84.5 -26.5t-83 25z" />
    <glyph glyph-name="uni00B9" unicode="&#xb9;" horiz-adv-x="305" 
d="M140 619q-11 -18 -32 -28t-42 -10h-23v82h15q34 0 57.5 20t28.5 51h84v-426h-88v311z" />
    <glyph glyph-name="ordmasculine" unicode="&#xba;" horiz-adv-x="429" 
d="M107 459q-44 40 -44 113q0 50 21 85.5t55 53.5t74 18t75 -18t56.5 -53t21.5 -84q0 -71 -43.5 -113t-108.5 -42q-63 0 -107 40zM260 511q18 20 18 62q0 44 -18.5 64t-45.5 20t-45 -20.5t-18 -63.5q0 -41 17.5 -61.5t45.5 -20.5t46 20z" />
    <glyph glyph-name="guillemotright" unicode="&#xbb;" horiz-adv-x="562" 
d="M53 53l116 206l-116 196h124l117 -191v-11l-117 -200h-124zM267 53l115 206l-115 196h123l117 -191v-11l-117 -200h-123z" />
    <glyph glyph-name="onequarter" unicode="&#xbc;" horiz-adv-x="895" 
d="M140 619q-11 -18 -32 -28t-42 -10h-23v82h15q34 0 57.5 20t28.5 51h84v-426h-88v311zM224 -20l-64 39l434 719l63 -38zM703 0v91h-199v64l191 271h99v-267h64v-68h-64v-91h-91zM588 159h120v171h-1z" />
    <glyph glyph-name="onehalf" unicode="&#xbd;" horiz-adv-x="897" 
d="M140 619q-11 -18 -32 -28t-42 -10h-23v82h15q34 0 57.5 20t28.5 51h84v-426h-88v311zM224 -20l-64 39l434 719l63 -38zM561 61q113 93 157.5 146t44.5 96q0 26 -14 42t-42 16q-38 0 -55.5 -29.5t-18.5 -69.5l-80 22q6 62 44.5 106t113.5 44q67 0 104.5 -36t37.5 -89
q0 -102 -163 -229h163v-80h-292v61z" />
    <glyph glyph-name="threequarters" unicode="&#xbe;" horiz-adv-x="971" 
d="M80 339q-40 38 -45 91l93 11q1 -28 18.5 -48.5t56.5 -20.5q31 0 49.5 15.5t18.5 42.5q0 34 -29.5 51.5t-76.5 15.5v64q43 1 67 16.5t24 42.5q0 21 -15 35.5t-41 14.5q-36 0 -53 -21t-19 -51l-82 11q2 55 38.5 94t113.5 39q69 0 109 -31.5t40 -77.5q0 -37 -25 -64t-53 -33
v-1q93 -22 93 -107q0 -58 -44.5 -92.5t-118.5 -34.5q-79 0 -119 38zM300 -20l-64 39l434 719l63 -38zM779 0v91h-199v64l191 271h99v-267h64v-68h-64v-91h-91zM664 159h120v171h-1z" />
    <glyph glyph-name="questiondown" unicode="&#xbf;" horiz-adv-x="603" 
d="M121.5 -167q-64.5 54 -64.5 142q0 62 30 100.5t82 72.5q54 36 71 51t17 33q0 13 -9 29t-13 23l115 28q38 -47 38 -94q0 -29 -13 -50.5t-35.5 -40t-70.5 -50.5q-41 -27 -59.5 -47.5t-18.5 -51.5q0 -37 29.5 -61t79.5 -24q62 0 90.5 33.5t29.5 81.5l127 -18
q-1 -52 -25 -100t-78.5 -79.5t-142.5 -31.5q-115 0 -179.5 54zM241.5 382.5q-27.5 26.5 -27.5 63.5t27 64t66 27q38 0 65.5 -26.5t27.5 -64.5q0 -37 -27.5 -63.5t-66.5 -26.5q-37 0 -64.5 26.5z" />
    <glyph glyph-name="Agrave" unicode="&#xc0;" horiz-adv-x="714" 
d="M19 0l256 715h163l257 -715h-136l-60 172h-288l-60 -172h-132zM251 287h207l-103 293h-1zM317 749l-121 146h156l78 -146h-113z" />
    <glyph glyph-name="Aacute" unicode="&#xc1;" horiz-adv-x="714" 
d="M19 0l256 715h163l257 -715h-136l-60 172h-288l-60 -172h-132zM251 287h207l-103 293h-1zM298 749l78 146h156l-121 -146h-113z" />
    <glyph glyph-name="Acircumflex" unicode="&#xc2;" horiz-adv-x="714" 
d="M19 0l256 715h163l257 -715h-136l-60 172h-288l-60 -172h-132zM251 287h207l-103 293h-1zM189 748l101 147h144l94 -147h-117l-51 74l-53 -74h-118z" />
    <glyph glyph-name="Atilde" unicode="&#xc3;" horiz-adv-x="714" 
d="M19 0l256 715h163l257 -715h-136l-60 172h-288l-60 -172h-132zM251 287h207l-103 293h-1zM163 785q20 54 50 80t73 26q25 0 40.5 -6.5t35.5 -19.5q33 -22 54 -22q18 0 33.5 11.5t24.5 34.5l75 -26q-38 -112 -120 -112q-22 0 -39 7t-28 13.5t-14 8.5q-33 20 -54 20
q-35 0 -58 -49z" />
    <glyph glyph-name="Adieresis" unicode="&#xc4;" horiz-adv-x="714" 
d="M19 0l256 715h163l257 -715h-136l-60 172h-288l-60 -172h-132zM251 287h207l-103 293h-1zM201 779.5q-24 20.5 -24 50.5t24 51.5t55 21.5q33 0 56.5 -22t23.5 -51t-23.5 -50t-55.5 -21t-56 20.5zM404 780q-23 21 -23 50q0 30 23 51.5t55 21.5q33 0 57 -21.5t24 -51.5
q0 -29 -24 -50t-57 -21q-32 0 -55 21z" />
    <glyph glyph-name="Aring" unicode="&#xc5;" horiz-adv-x="714" 
d="M19 0l256 715h163l257 -715h-136l-60 172h-288l-60 -172h-132zM251 287h207l-103 293h-1zM272.5 767.5q-34.5 33.5 -34.5 84.5q0 50 35 83.5t87 33.5q51 0 85.5 -33t34.5 -84q0 -52 -33.5 -85t-86.5 -33t-87.5 33.5zM395.5 813q15.5 15 15.5 39q0 23 -15.5 37.5
t-35.5 14.5q-22 0 -37.5 -14.5t-15.5 -37.5q0 -24 16 -39t37 -15q20 0 35.5 15z" />
    <glyph glyph-name="AE" unicode="&#xc6;" horiz-adv-x="979" 
d="M18 0l331 715h584v-115h-343v-180h301v-109h-301v-196h340v-115h-468v188h-221l-86 -188h-137zM293 302h169v293h-35z" />
    <glyph glyph-name="Ccedilla" unicode="&#xc7;" horiz-adv-x="719" 
d="M263 -195q-30 25 -39 61l85 9q2 -10 9.5 -17.5t21.5 -7.5q13 0 20.5 7.5t7.5 21.5t-8 21.5t-20 7.5q-17 0 -29 -12l-55 34l49 59q-77 14 -138 59t-96.5 123.5t-35.5 187.5q0 124 46.5 208t122.5 124.5t167 40.5q90 0 153.5 -38t99.5 -94.5t50 -118.5l-130 -36
q-16 74 -58.5 123.5t-119.5 49.5q-55 0 -99.5 -28.5t-70.5 -86.5t-26 -143q0 -86 26.5 -145t73 -88t105.5 -29q75 0 115.5 46t50.5 110l130 -26q-12 -64 -47.5 -119.5t-96.5 -90t-145 -35.5l-27 -29q8 5 28 5q33 0 56 -22t23 -59q0 -45 -31.5 -71.5t-84.5 -26.5t-83 25z" />
    <glyph glyph-name="Egrave" unicode="&#xc8;" horiz-adv-x="604" 
d="M63 0v715h492v-116h-364v-179h321v-109h-321v-195h362v-116h-490zM276 749l-121 146h156l78 -146h-113z" />
    <glyph glyph-name="Eacute" unicode="&#xc9;" horiz-adv-x="604" 
d="M63 0v715h492v-116h-364v-179h321v-109h-321v-195h362v-116h-490zM257 749l78 146h156l-121 -146h-113z" />
    <glyph glyph-name="Ecircumflex" unicode="&#xca;" horiz-adv-x="604" 
d="M63 0v715h492v-116h-364v-179h321v-109h-321v-195h362v-116h-490zM148 748l101 147h144l94 -147h-117l-51 74l-53 -74h-118z" />
    <glyph glyph-name="Edieresis" unicode="&#xcb;" horiz-adv-x="604" 
d="M63 0v715h492v-116h-364v-179h321v-109h-321v-195h362v-116h-490zM160 779.5q-24 20.5 -24 50.5t24 51.5t55 21.5q33 0 56.5 -22t23.5 -51t-23.5 -50t-55.5 -21t-56 20.5zM363 780q-23 21 -23 50q0 30 23 51.5t55 21.5q33 0 57 -21.5t24 -51.5q0 -29 -24 -50t-57 -21
q-32 0 -55 21z" />
    <glyph glyph-name="Igrave" unicode="&#xcc;" horiz-adv-x="255" 
d="M63 0v715h128v-715h-128zM85 749l-121 146h156l78 -146h-113z" />
    <glyph glyph-name="Iacute" unicode="&#xcd;" horiz-adv-x="255" 
d="M63 0v715h128v-715h-128zM66 749l78 146h156l-121 -146h-113z" />
    <glyph glyph-name="Icircumflex" unicode="&#xce;" horiz-adv-x="255" 
d="M63 0v715h128v-715h-128zM-25 748l90 147h130l85 -147h-105l-47 74l-47 -74h-106z" />
    <glyph glyph-name="Idieresis" unicode="&#xcf;" horiz-adv-x="255" 
d="M63 0v715h128v-715h-128zM-12 768.5q-21 18.5 -21 44.5t21 44.5t48 18.5q29 0 50 -19t21 -45q0 -25 -21 -43.5t-49 -18.5t-49 18.5zM166 768.5q-20 18.5 -20 44.5t20 44.5t48 18.5q30 0 50.5 -18.5t20.5 -44.5t-21 -44.5t-50 -18.5q-28 0 -48 18.5z" />
    <glyph glyph-name="Eth" unicode="&#xd0;" horiz-adv-x="684" 
d="M63 319h-68v93h68v303h240q116 0 193.5 -46.5t114.5 -126.5t37 -182q0 -108 -39.5 -189t-117.5 -126t-188 -45h-240v319zM317 116q100 0 150 64t50 177q0 114 -51.5 178t-149.5 64h-125v-187h155v-93h-155v-203h126z" />
    <glyph glyph-name="Ntilde" unicode="&#xd1;" horiz-adv-x="717" 
d="M63 0v715h141l322 -521h2v521h126v-715h-139l-325 523h-1v-523h-126zM172 785q20 54 50 80t73 26q25 0 40.5 -6.5t35.5 -19.5q33 -22 54 -22q18 0 33.5 11.5t24.5 34.5l75 -26q-38 -112 -120 -112q-22 0 -39 7t-28 13.5t-14 8.5q-33 20 -54 20q-35 0 -58 -49z" />
    <glyph glyph-name="Ograve" unicode="&#xd2;" horiz-adv-x="753" 
d="M210.5 25q-78.5 42 -127 127t-48.5 208q0 122 49 206t127.5 125t167.5 41q90 0 167.5 -41t124.5 -125t47 -206q0 -121 -47 -206.5t-124.5 -128t-167.5 -42.5t-168.5 42zM481 125.5q46 27.5 74 86.5t28 149q0 88 -28 145.5t-74 84t-102 26.5t-103.5 -27t-76.5 -84.5
t-29 -145.5q0 -89 29.5 -148t77 -86.5t103.5 -27.5q55 0 101 27.5zM335 754l-121 146h156l78 -146h-113z" />
    <glyph glyph-name="Oacute" unicode="&#xd3;" horiz-adv-x="753" 
d="M210.5 25q-78.5 42 -127 127t-48.5 208q0 122 49 206t127.5 125t167.5 41q90 0 167.5 -41t124.5 -125t47 -206q0 -121 -47 -206.5t-124.5 -128t-167.5 -42.5t-168.5 42zM481 125.5q46 27.5 74 86.5t28 149q0 88 -28 145.5t-74 84t-102 26.5t-103.5 -27t-76.5 -84.5
t-29 -145.5q0 -89 29.5 -148t77 -86.5t103.5 -27.5q55 0 101 27.5zM316 754l78 146h156l-121 -146h-113z" />
    <glyph glyph-name="Ocircumflex" unicode="&#xd4;" horiz-adv-x="753" 
d="M210.5 25q-78.5 42 -127 127t-48.5 208q0 122 49 206t127.5 125t167.5 41q90 0 167.5 -41t124.5 -125t47 -206q0 -121 -47 -206.5t-124.5 -128t-167.5 -42.5t-168.5 42zM481 125.5q46 27.5 74 86.5t28 149q0 88 -28 145.5t-74 84t-102 26.5t-103.5 -27t-76.5 -84.5
t-29 -145.5q0 -89 29.5 -148t77 -86.5t103.5 -27.5q55 0 101 27.5zM207 753l101 147h144l94 -147h-117l-51 74l-53 -74h-118z" />
    <glyph glyph-name="Otilde" unicode="&#xd5;" horiz-adv-x="753" 
d="M210.5 25q-78.5 42 -127 127t-48.5 208q0 122 49 206t127.5 125t167.5 41q90 0 167.5 -41t124.5 -125t47 -206q0 -121 -47 -206.5t-124.5 -128t-167.5 -42.5t-168.5 42zM481 125.5q46 27.5 74 86.5t28 149q0 88 -28 145.5t-74 84t-102 26.5t-103.5 -27t-76.5 -84.5
t-29 -145.5q0 -89 29.5 -148t77 -86.5t103.5 -27.5q55 0 101 27.5zM181 790q20 54 50 80t73 26q25 0 40.5 -6.5t35.5 -19.5q33 -22 54 -22q18 0 33.5 11.5t24.5 34.5l75 -26q-38 -112 -120 -112q-22 0 -39 7t-28 13.5t-14 8.5q-33 20 -54 20q-35 0 -58 -49z" />
    <glyph glyph-name="Odieresis" unicode="&#xd6;" horiz-adv-x="753" 
d="M210.5 25q-78.5 42 -127 127t-48.5 208q0 122 49 206t127.5 125t167.5 41q90 0 167.5 -41t124.5 -125t47 -206q0 -121 -47 -206.5t-124.5 -128t-167.5 -42.5t-168.5 42zM481 125.5q46 27.5 74 86.5t28 149q0 88 -28 145.5t-74 84t-102 26.5t-103.5 -27t-76.5 -84.5
t-29 -145.5q0 -89 29.5 -148t77 -86.5t103.5 -27.5q55 0 101 27.5zM219 784.5q-24 20.5 -24 50.5t24 51.5t55 21.5q33 0 56.5 -22t23.5 -51t-23.5 -50t-55.5 -21t-56 20.5zM422 785q-23 21 -23 50q0 30 23 51.5t55 21.5q33 0 57 -21.5t24 -51.5q0 -29 -24 -50t-57 -21
q-32 0 -55 21z" />
    <glyph glyph-name="multiply" unicode="&#xd7;" horiz-adv-x="655" 
d="M127 45l-70 68l199 204l-199 197l71 71l199 -199l201 199l70 -72l-200 -198l199 -200l-71 -70l-199 201z" />
    <glyph glyph-name="Oslash" unicode="&#xd8;" horiz-adv-x="753" 
d="M41 35l68 78q-74 99 -74 247q0 122 49 206t127.5 125t167.5 41q58 0 112.5 -17.5t98.5 -52.5l61 69l60 -54l-64 -73q71 -97 71 -244q0 -122 -47.5 -207t-124.5 -127.5t-166 -42.5q-58 0 -113.5 18t-100.5 54l-64 -74zM484 127q46 29 72.5 88t26.5 144q0 82 -26 142
l-310 -354q55 -49 133 -49q58 0 104 29zM509 569q-26 24 -60 36t-70 12q-56 0 -103.5 -27t-76.5 -84.5t-29 -145.5q0 -83 28 -146z" />
    <glyph glyph-name="Ugrave" unicode="&#xd9;" horiz-adv-x="696" 
d="M200 13q-64 30 -100.5 85t-36.5 127v490h128v-459q0 -80 42.5 -119t114.5 -39q74 0 115.5 40.5t41.5 117.5v459h128v-489q0 -70 -37 -125.5t-103 -86.5t-148 -31q-81 0 -145 30zM310 749l-121 146h156l78 -146h-113z" />
    <glyph glyph-name="Uacute" unicode="&#xda;" horiz-adv-x="696" 
d="M200 13q-64 30 -100.5 85t-36.5 127v490h128v-459q0 -80 42.5 -119t114.5 -39q74 0 115.5 40.5t41.5 117.5v459h128v-489q0 -70 -37 -125.5t-103 -86.5t-148 -31q-81 0 -145 30zM291 749l78 146h156l-121 -146h-113z" />
    <glyph glyph-name="Ucircumflex" unicode="&#xdb;" horiz-adv-x="696" 
d="M200 13q-64 30 -100.5 85t-36.5 127v490h128v-459q0 -80 42.5 -119t114.5 -39q74 0 115.5 40.5t41.5 117.5v459h128v-489q0 -70 -37 -125.5t-103 -86.5t-148 -31q-81 0 -145 30zM182 748l101 147h144l94 -147h-117l-51 74l-53 -74h-118z" />
    <glyph glyph-name="Udieresis" unicode="&#xdc;" horiz-adv-x="696" 
d="M200 13q-64 30 -100.5 85t-36.5 127v490h128v-459q0 -80 42.5 -119t114.5 -39q74 0 115.5 40.5t41.5 117.5v459h128v-489q0 -70 -37 -125.5t-103 -86.5t-148 -31q-81 0 -145 30zM193 779.5q-24 20.5 -24 50.5t24 51.5t55 21.5q33 0 56.5 -22t23.5 -51t-23.5 -50
t-55.5 -21t-56 20.5zM396 780q-23 21 -23 50q0 30 23 51.5t55 21.5q33 0 57 -21.5t24 -51.5q0 -29 -24 -50t-57 -21q-32 0 -55 21z" />
    <glyph glyph-name="Yacute" unicode="&#xdd;" horiz-adv-x="667" 
d="M270 0v265l-261 450h146l182 -323l181 323h140l-261 -450v-265h-127zM275 749l78 146h156l-121 -146h-113z" />
    <glyph glyph-name="Thorn" unicode="&#xde;" horiz-adv-x="612" 
d="M63 715h128v-118h141q118 0 189 -56.5t71 -166.5q0 -118 -75.5 -176t-190.5 -58h-135v-140h-128v715zM335 254q42 0 84.5 21t42.5 95q0 111 -130 111h-141v-227h144z" />
    <glyph glyph-name="germandbls" unicode="&#xdf;" horiz-adv-x="618" 
d="M264 25q-47 40 -61 95l104 31q5 -26 24.5 -44.5t57.5 -18.5q31 0 54.5 16.5t23.5 54.5q0 31 -16.5 49.5t-35.5 26t-66 23.5q-53 18 -84 45t-31 78q0 48 26.5 72.5t73.5 46.5q35 16 55 31t20 41q0 27 -26.5 43.5t-70.5 16.5q-64 0 -99.5 -39t-35.5 -115v-478h-123v475
q0 81 32 139t90.5 88t134.5 30q93 0 154 -42.5t61 -119.5q0 -56 -31 -84.5t-81 -48.5q-37 -14 -53 -23t-16 -25q0 -14 14 -21t32 -11.5t24 -6.5q73 -20 123.5 -60t50.5 -126q0 -84 -54.5 -131.5t-141.5 -47.5q-82 0 -129 40z" />
    <glyph glyph-name="agrave" unicode="&#xe0;" horiz-adv-x="550" 
d="M88.5 23.5q-44.5 37.5 -44.5 101.5q0 61 38.5 96t91.5 50.5t128 27.5q43 6 55.5 12t12.5 23q0 28 -23 47t-66 19q-50 0 -79.5 -23t-39.5 -53l-94 53q19 49 74 85t144 36q90 0 147.5 -44t54.5 -137l-6 -194q-2 -43 40 -40v-92q-24 -3 -28 -3q-47 0 -72.5 11t-36 34.5
t-13.5 65.5h-2q-16 -52 -58 -82.5t-107 -30.5q-72 0 -116.5 37.5zM302.5 99.5q30.5 18.5 47.5 47.5t18 60l1 42q-9 -12 -22 -17.5t-37 -10.5q-58 -12 -85 -20t-43.5 -23t-16.5 -41q0 -28 17.5 -42t50.5 -14q39 0 69.5 18.5zM235 544l-121 146h156l78 -146h-113z" />
    <glyph glyph-name="aacute" unicode="&#xe1;" horiz-adv-x="550" 
d="M88.5 23.5q-44.5 37.5 -44.5 101.5q0 61 38.5 96t91.5 50.5t128 27.5q43 6 55.5 12t12.5 23q0 28 -23 47t-66 19q-50 0 -79.5 -23t-39.5 -53l-94 53q19 49 74 85t144 36q90 0 147.5 -44t54.5 -137l-6 -194q-2 -43 40 -40v-92q-24 -3 -28 -3q-47 0 -72.5 11t-36 34.5
t-13.5 65.5h-2q-16 -52 -58 -82.5t-107 -30.5q-72 0 -116.5 37.5zM302.5 99.5q30.5 18.5 47.5 47.5t18 60l1 42q-9 -12 -22 -17.5t-37 -10.5q-58 -12 -85 -20t-43.5 -23t-16.5 -41q0 -28 17.5 -42t50.5 -14q39 0 69.5 18.5zM216 544l78 146h156l-121 -146h-113z" />
    <glyph glyph-name="acircumflex" unicode="&#xe2;" horiz-adv-x="550" 
d="M88.5 23.5q-44.5 37.5 -44.5 101.5q0 61 38.5 96t91.5 50.5t128 27.5q43 6 55.5 12t12.5 23q0 28 -23 47t-66 19q-50 0 -79.5 -23t-39.5 -53l-94 53q19 49 74 85t144 36q90 0 147.5 -44t54.5 -137l-6 -194q-2 -43 40 -40v-92q-24 -3 -28 -3q-47 0 -72.5 11t-36 34.5
t-13.5 65.5h-2q-16 -52 -58 -82.5t-107 -30.5q-72 0 -116.5 37.5zM302.5 99.5q30.5 18.5 47.5 47.5t18 60l1 42q-9 -12 -22 -17.5t-37 -10.5q-58 -12 -85 -20t-43.5 -23t-16.5 -41q0 -28 17.5 -42t50.5 -14q39 0 69.5 18.5zM107 543l101 147h144l94 -147h-117l-51 74
l-53 -74h-118z" />
    <glyph glyph-name="atilde" unicode="&#xe3;" horiz-adv-x="550" 
d="M88.5 23.5q-44.5 37.5 -44.5 101.5q0 61 38.5 96t91.5 50.5t128 27.5q43 6 55.5 12t12.5 23q0 28 -23 47t-66 19q-50 0 -79.5 -23t-39.5 -53l-94 53q19 49 74 85t144 36q90 0 147.5 -44t54.5 -137l-6 -194q-2 -43 40 -40v-92q-24 -3 -28 -3q-47 0 -72.5 11t-36 34.5
t-13.5 65.5h-2q-16 -52 -58 -82.5t-107 -30.5q-72 0 -116.5 37.5zM302.5 99.5q30.5 18.5 47.5 47.5t18 60l1 42q-9 -12 -22 -17.5t-37 -10.5q-58 -12 -85 -20t-43.5 -23t-16.5 -41q0 -28 17.5 -42t50.5 -14q39 0 69.5 18.5zM81 580q20 54 50 80t73 26q25 0 40.5 -6.5
t35.5 -19.5q33 -22 54 -22q18 0 33.5 11.5t24.5 34.5l75 -26q-38 -112 -120 -112q-22 0 -39 7t-28 13.5t-14 8.5q-33 20 -54 20q-35 0 -58 -49z" />
    <glyph glyph-name="adieresis" unicode="&#xe4;" horiz-adv-x="550" 
d="M88.5 23.5q-44.5 37.5 -44.5 101.5q0 61 38.5 96t91.5 50.5t128 27.5q43 6 55.5 12t12.5 23q0 28 -23 47t-66 19q-50 0 -79.5 -23t-39.5 -53l-94 53q19 49 74 85t144 36q90 0 147.5 -44t54.5 -137l-6 -194q-2 -43 40 -40v-92q-24 -3 -28 -3q-47 0 -72.5 11t-36 34.5
t-13.5 65.5h-2q-16 -52 -58 -82.5t-107 -30.5q-72 0 -116.5 37.5zM302.5 99.5q30.5 18.5 47.5 47.5t18 60l1 42q-9 -12 -22 -17.5t-37 -10.5q-58 -12 -85 -20t-43.5 -23t-16.5 -41q0 -28 17.5 -42t50.5 -14q39 0 69.5 18.5zM118 574.5q-24 20.5 -24 50.5t24 51.5t55 21.5
q33 0 56.5 -22t23.5 -51t-23.5 -50t-55.5 -21t-56 20.5zM321 575q-23 21 -23 50q0 30 23 51.5t55 21.5q33 0 57 -21.5t24 -51.5q0 -29 -24 -50t-57 -21q-32 0 -55 21z" />
    <glyph glyph-name="aring" unicode="&#xe5;" horiz-adv-x="550" 
d="M88.5 23.5q-44.5 37.5 -44.5 101.5q0 61 38.5 96t91.5 50.5t128 27.5q43 6 55.5 12t12.5 23q0 28 -23 47t-66 19q-50 0 -79.5 -23t-39.5 -53l-94 53q19 49 74 85t144 36q90 0 147.5 -44t54.5 -137l-6 -194q-2 -43 40 -40v-92q-24 -3 -28 -3q-47 0 -72.5 11t-36 34.5
t-13.5 65.5h-2q-16 -52 -58 -82.5t-107 -30.5q-72 0 -116.5 37.5zM302.5 99.5q30.5 18.5 47.5 47.5t18 60l1 42q-9 -12 -22 -17.5t-37 -10.5q-58 -12 -85 -20t-43.5 -23t-16.5 -41q0 -28 17.5 -42t50.5 -14q39 0 69.5 18.5zM190.5 562.5q-34.5 33.5 -34.5 84.5q0 50 35 83.5
t87 33.5q51 0 85.5 -33t34.5 -84q0 -52 -33.5 -85t-86.5 -33t-87.5 33.5zM313.5 608q15.5 15 15.5 39q0 23 -15.5 37.5t-35.5 14.5q-22 0 -37.5 -14.5t-15.5 -37.5q0 -24 16 -39t37 -15q20 0 35.5 15z" />
    <glyph glyph-name="ae" unicode="&#xe6;" horiz-adv-x="858" 
d="M480 16.5q-52 31.5 -79 92.5q-31 -58 -79 -90.5t-120 -32.5q-73 0 -118.5 35.5t-45.5 102.5q0 55 30.5 88.5t77.5 50t113 28.5l72 13q17 4 25.5 10t8.5 22q0 25 -22.5 44t-67.5 19q-49 0 -78.5 -22.5t-40.5 -53.5l-94 54q20 48 74 84.5t145 36.5q58 0 96 -18.5t63 -53.5
q36 37 74.5 54.5t92.5 17.5q103 0 161.5 -61.5t58.5 -184.5v-41h-340q2 -56 35.5 -90.5t86.5 -34.5q44 0 72.5 23.5t39.5 56.5l96 -49q-20 -52 -73.5 -92t-140.5 -40q-71 0 -123 31.5zM295.5 99.5q31.5 18.5 49.5 48t18 61.5v40q-11 -12 -29.5 -18.5t-62.5 -15.5
q-62 -13 -86.5 -28.5t-24.5 -48.5q0 -28 17.5 -42.5t48.5 -14.5q38 0 69.5 18.5zM702 292q-4 57 -29 86.5t-71 29.5t-76 -30t-34 -86h210z" />
    <glyph glyph-name="ccedilla" unicode="&#xe7;" horiz-adv-x="534" 
d="M202 -191q-30 25 -39 61l85 9q2 -10 9.5 -17.5t21.5 -7.5q13 0 20.5 7.5t7.5 21.5t-8 21.5t-20 7.5q-17 0 -29 -12l-55 34l43 52q-93 11 -151 76.5t-58 177.5q0 84 34 142.5t91 87t124 28.5q91 0 142.5 -47.5t71.5 -108.5l-114 -37q-12 40 -35.5 65.5t-66.5 25.5
q-51 0 -86 -38.5t-35 -117.5q0 -80 35.5 -116.5t84.5 -36.5q43 0 70.5 26t34.5 66l120 -10q-11 -61 -53.5 -114.5t-125.5 -66.5l-27 -30q8 5 28 5q33 0 56 -22t23 -59q0 -45 -31.5 -71.5t-84.5 -26.5t-83 25z" />
    <glyph glyph-name="egrave" unicode="&#xe8;" horiz-adv-x="529" 
d="M152 12q-55 28 -88 85.5t-33 141.5q0 81 31.5 139.5t87 89t127.5 30.5q104 0 161.5 -63t57.5 -179v-47h-340q3 -53 36.5 -88.5t85.5 -35.5q46 0 74 24.5t38 55.5l97 -48q-21 -53 -74.5 -93t-139.5 -40q-66 0 -121 28zM370 293q-7 114 -102 114q-48 0 -75.5 -31t-32.5 -83
h210zM226 542l-121 146h156l78 -146h-113z" />
    <glyph glyph-name="eacute" unicode="&#xe9;" horiz-adv-x="529" 
d="M152 12q-55 28 -88 85.5t-33 141.5q0 81 31.5 139.5t87 89t127.5 30.5q104 0 161.5 -63t57.5 -179v-47h-340q3 -53 36.5 -88.5t85.5 -35.5q46 0 74 24.5t38 55.5l97 -48q-21 -53 -74.5 -93t-139.5 -40q-66 0 -121 28zM370 293q-7 114 -102 114q-48 0 -75.5 -31t-32.5 -83
h210zM207 542l78 146h156l-121 -146h-113z" />
    <glyph glyph-name="ecircumflex" unicode="&#xea;" horiz-adv-x="529" 
d="M152 12q-55 28 -88 85.5t-33 141.5q0 81 31.5 139.5t87 89t127.5 30.5q104 0 161.5 -63t57.5 -179v-47h-340q3 -53 36.5 -88.5t85.5 -35.5q46 0 74 24.5t38 55.5l97 -48q-21 -53 -74.5 -93t-139.5 -40q-66 0 -121 28zM370 293q-7 114 -102 114q-48 0 -75.5 -31t-32.5 -83
h210zM98 541l101 147h144l94 -147h-117l-51 74l-53 -74h-118z" />
    <glyph glyph-name="edieresis" unicode="&#xeb;" horiz-adv-x="529" 
d="M152 12q-55 28 -88 85.5t-33 141.5q0 81 31.5 139.5t87 89t127.5 30.5q104 0 161.5 -63t57.5 -179v-47h-340q3 -53 36.5 -88.5t85.5 -35.5q46 0 74 24.5t38 55.5l97 -48q-21 -53 -74.5 -93t-139.5 -40q-66 0 -121 28zM370 293q-7 114 -102 114q-48 0 -75.5 -31t-32.5 -83
h210zM110 572.5q-24 20.5 -24 50.5t24 51.5t55 21.5q33 0 56.5 -22t23.5 -51t-23.5 -50t-55.5 -21t-56 20.5zM313 573q-23 21 -23 50q0 30 23 51.5t55 21.5q33 0 57 -21.5t24 -51.5q0 -29 -24 -50t-57 -21q-32 0 -55 21z" />
    <glyph glyph-name="igrave" unicode="&#xec;" horiz-adv-x="225" 
d="M54 0v481h123v-481h-123zM74 540l-121 146h156l78 -146h-113z" />
    <glyph glyph-name="iacute" unicode="&#xed;" horiz-adv-x="225" 
d="M54 0v481h123v-481h-123zM55 540l78 146h156l-121 -146h-113z" />
    <glyph glyph-name="icircumflex" unicode="&#xee;" horiz-adv-x="225" 
d="M54 0v481h123v-481h-123zM-31 539l87 147h126l82 -147h-102l-45 74l-46 -74h-102z" />
    <glyph glyph-name="idieresis" unicode="&#xef;" horiz-adv-x="225" 
d="M54 0v481h123v-481h-123zM-17 560.5q-20 18.5 -20 44.5t20 44.5t47 18.5q28 0 47.5 -19t19.5 -45q0 -25 -19.5 -43.5t-47.5 -18.5q-27 0 -47 18.5zM154.5 560.5q-19.5 18.5 -19.5 44.5t19.5 44.5t46.5 18.5t47.5 -18.5t20.5 -45.5q0 -25 -20 -43.5t-48 -18.5
q-27 0 -46.5 18.5z" />
    <glyph glyph-name="eth" unicode="&#xf0;" horiz-adv-x="574" 
d="M154 14q-58 30 -91.5 87.5t-33.5 137.5q0 77 30.5 134.5t83.5 88.5t118 31q74 0 133 -44q-27 64 -90 119l-126 -54l-31 68l85 36q-51 29 -105 44l27 77q98 -25 178 -79l142 60l32 -67l-108 -46q70 -66 108 -151.5t38 -183.5q0 -92 -33.5 -157t-92.5 -98t-134 -33
q-72 0 -130 30zM382.5 129.5q34.5 42.5 34.5 113.5q0 70 -35 111.5t-97 41.5q-60 0 -96 -38.5t-36 -114.5q0 -72 34 -114t97 -42q64 0 98.5 42.5z" />
    <glyph glyph-name="ntilde" unicode="&#xf1;" horiz-adv-x="535" 
d="M54 481h123v-67h1q19 39 58 60.5t89 21.5q68 0 114.5 -40t46.5 -121v-335h-122v307q0 40 -20.5 63.5t-58.5 23.5q-48 0 -78 -35t-30 -103v-256h-123v481zM85 576q20 54 50 80t73 26q25 0 40.5 -6.5t35.5 -19.5q33 -22 54 -22q18 0 33.5 11.5t24.5 34.5l75 -26
q-38 -112 -120 -112q-22 0 -39 7t-28 13.5t-14 8.5q-33 20 -54 20q-35 0 -58 -49z" />
    <glyph glyph-name="ograve" unicode="&#xf2;" horiz-adv-x="547" 
d="M151.5 13q-55.5 29 -89 87t-33.5 140t33.5 140.5t88.5 88t120 29.5q66 0 122 -29.5t90.5 -87.5t34.5 -140q0 -81 -33.5 -139t-89.5 -88t-123 -30q-65 0 -120.5 29zM360 125q34 38 34 116q0 80 -35 117.5t-86 37.5t-85.5 -38t-34.5 -117q0 -78 34 -116t87 -38q52 0 86 38z
M232 542l-121 146h156l78 -146h-113z" />
    <glyph glyph-name="oacute" unicode="&#xf3;" horiz-adv-x="547" 
d="M151.5 13q-55.5 29 -89 87t-33.5 140t33.5 140.5t88.5 88t120 29.5q66 0 122 -29.5t90.5 -87.5t34.5 -140q0 -81 -33.5 -139t-89.5 -88t-123 -30q-65 0 -120.5 29zM360 125q34 38 34 116q0 80 -35 117.5t-86 37.5t-85.5 -38t-34.5 -117q0 -78 34 -116t87 -38q52 0 86 38z
M213 542l78 146h156l-121 -146h-113z" />
    <glyph glyph-name="ocircumflex" unicode="&#xf4;" horiz-adv-x="547" 
d="M151.5 13q-55.5 29 -89 87t-33.5 140t33.5 140.5t88.5 88t120 29.5q66 0 122 -29.5t90.5 -87.5t34.5 -140q0 -81 -33.5 -139t-89.5 -88t-123 -30q-65 0 -120.5 29zM360 125q34 38 34 116q0 80 -35 117.5t-86 37.5t-85.5 -38t-34.5 -117q0 -78 34 -116t87 -38q52 0 86 38z
M104 541l101 147h144l94 -147h-117l-51 74l-53 -74h-118z" />
    <glyph glyph-name="otilde" unicode="&#xf5;" horiz-adv-x="547" 
d="M151.5 13q-55.5 29 -89 87t-33.5 140t33.5 140.5t88.5 88t120 29.5q66 0 122 -29.5t90.5 -87.5t34.5 -140q0 -81 -33.5 -139t-89.5 -88t-123 -30q-65 0 -120.5 29zM360 125q34 38 34 116q0 80 -35 117.5t-86 37.5t-85.5 -38t-34.5 -117q0 -78 34 -116t87 -38q52 0 86 38z
M78 578q20 54 50 80t73 26q25 0 40.5 -6.5t35.5 -19.5q33 -22 54 -22q18 0 33.5 11.5t24.5 34.5l75 -26q-38 -112 -120 -112q-22 0 -39 7t-28 13.5t-14 8.5q-33 20 -54 20q-35 0 -58 -49z" />
    <glyph glyph-name="odieresis" unicode="&#xf6;" horiz-adv-x="547" 
d="M151.5 13q-55.5 29 -89 87t-33.5 140t33.5 140.5t88.5 88t120 29.5q66 0 122 -29.5t90.5 -87.5t34.5 -140q0 -81 -33.5 -139t-89.5 -88t-123 -30q-65 0 -120.5 29zM360 125q34 38 34 116q0 80 -35 117.5t-86 37.5t-85.5 -38t-34.5 -117q0 -78 34 -116t87 -38q52 0 86 38z
M116 572.5q-24 20.5 -24 50.5t24 51.5t55 21.5q33 0 56.5 -22t23.5 -51t-23.5 -50t-55.5 -21t-56 20.5zM319 573q-23 21 -23 50q0 30 23 51.5t55 21.5q33 0 57 -21.5t24 -51.5q0 -29 -24 -50t-57 -21q-32 0 -55 21z" />
    <glyph glyph-name="divide" unicode="&#xf7;" horiz-adv-x="617" 
d="M57 266v99h503v-99h-503zM247 66q-23 22 -23 54t23.5 55t57.5 23t57 -22.5t23 -54.5q0 -33 -23 -55t-59 -22q-33 0 -56 22zM247 451q-23 22 -23 54q0 33 23 55t57 22q35 0 58 -21.5t23 -55.5q0 -33 -23 -54.5t-59 -21.5q-33 0 -56 22z" />
    <glyph glyph-name="oslash" unicode="&#xf8;" horiz-adv-x="583" 
d="M48 23l45 53q-61 71 -61 180q0 86 37 146.5t96.5 91t127.5 30.5q82 0 146 -43l44 52l53 -45l-45 -53q59 -72 59 -181q0 -86 -36.5 -146t-95 -90t-125.5 -30q-82 0 -147 42l-44 -51zM385 138.5q35 39.5 35 116.5q0 47 -14 81l-184 -216q33 -21 73 -21q55 0 90 39.5z
M363 392q-30 21 -68 21q-55 0 -93.5 -40.5t-38.5 -117.5q0 -47 15 -80z" />
    <glyph glyph-name="ugrave" unicode="&#xf9;" horiz-adv-x="535" 
d="M97 26q-48 40 -48 121v334h122v-308q0 -39 20.5 -62t58.5 -23q47 0 77.5 34.5t30.5 101.5v257h123v-481h-123v66h-1q-21 -39 -58 -59.5t-84 -20.5q-70 0 -118 40zM223 540l-121 146h156l78 -146h-113z" />
    <glyph glyph-name="uacute" unicode="&#xfa;" horiz-adv-x="535" 
d="M97 26q-48 40 -48 121v334h122v-308q0 -39 20.5 -62t58.5 -23q47 0 77.5 34.5t30.5 101.5v257h123v-481h-123v66h-1q-21 -39 -58 -59.5t-84 -20.5q-70 0 -118 40zM204 540l78 146h156l-121 -146h-113z" />
    <glyph glyph-name="ucircumflex" unicode="&#xfb;" horiz-adv-x="535" 
d="M97 26q-48 40 -48 121v334h122v-308q0 -39 20.5 -62t58.5 -23q47 0 77.5 34.5t30.5 101.5v257h123v-481h-123v66h-1q-21 -39 -58 -59.5t-84 -20.5q-70 0 -118 40zM95 539l101 147h144l94 -147h-117l-51 74l-53 -74h-118z" />
    <glyph glyph-name="udieresis" unicode="&#xfc;" horiz-adv-x="535" 
d="M97 26q-48 40 -48 121v334h122v-308q0 -39 20.5 -62t58.5 -23q47 0 77.5 34.5t30.5 101.5v257h123v-481h-123v66h-1q-21 -39 -58 -59.5t-84 -20.5q-70 0 -118 40zM107 570.5q-24 20.5 -24 50.5t24 51.5t55 21.5q33 0 56.5 -22t23.5 -51t-23.5 -50t-55.5 -21t-56 20.5z
M310 571q-23 21 -23 50q0 30 23 51.5t55 21.5q33 0 57 -21.5t24 -51.5q0 -29 -24 -50t-57 -21q-32 0 -55 21z" />
    <glyph glyph-name="yacute" unicode="&#xfd;" horiz-adv-x="515" 
d="M32 -193l7 101h76q39 0 57.5 28t21.5 66l-176 479h126l113 -351l116 351h124l-178 -480q-21 -58 -44 -98t-69.5 -70t-119.5 -30q-26 0 -54 4zM205 540l78 146h156l-121 -146h-113z" />
    <glyph glyph-name="thorn" unicode="&#xfe;" horiz-adv-x="561" 
d="M54 715h123v-300h1q21 34 57 57.5t84 23.5q50 0 98.5 -26.5t81.5 -83t33 -143.5q0 -86 -32 -144t-80.5 -85.5t-100.5 -27.5q-47 0 -83 21.5t-58 53.5h-1v-261h-123v915zM376.5 132q31.5 39 31.5 110q0 72 -32 110t-84 38q-53 0 -85 -39.5t-32 -108.5q0 -68 32 -108.5
t85 -40.5t84.5 39z" />
    <glyph glyph-name="ydieresis" unicode="&#xff;" horiz-adv-x="515" 
d="M32 -193l7 101h76q39 0 57.5 28t21.5 66l-176 479h126l113 -351l116 351h124l-178 -480q-21 -58 -44 -98t-69.5 -70t-119.5 -30q-26 0 -54 4zM107 570.5q-24 20.5 -24 50.5t24 51.5t55 21.5q33 0 56.5 -22t23.5 -51t-23.5 -50t-55.5 -21t-56 20.5zM310 571q-23 21 -23 50
q0 30 23 51.5t55 21.5q33 0 57 -21.5t24 -51.5q0 -29 -24 -50t-57 -21q-32 0 -55 21z" />
    <glyph glyph-name="Amacron" unicode="&#x100;" horiz-adv-x="714" 
d="M19 0l256 715h163l257 -715h-136l-60 172h-288l-60 -172h-132zM251 287h207l-103 293h-1zM193 767v98h330v-98h-330z" />
    <glyph glyph-name="amacron" unicode="&#x101;" horiz-adv-x="550" 
d="M88.5 23.5q-44.5 37.5 -44.5 101.5q0 61 38.5 96t91.5 50.5t128 27.5q43 6 55.5 12t12.5 23q0 28 -23 47t-66 19q-50 0 -79.5 -23t-39.5 -53l-94 53q19 49 74 85t144 36q90 0 147.5 -44t54.5 -137l-6 -194q-2 -43 40 -40v-92q-24 -3 -28 -3q-47 0 -72.5 11t-36 34.5
t-13.5 65.5h-2q-16 -52 -58 -82.5t-107 -30.5q-72 0 -116.5 37.5zM302.5 99.5q30.5 18.5 47.5 47.5t18 60l1 42q-9 -12 -22 -17.5t-37 -10.5q-58 -12 -85 -20t-43.5 -23t-16.5 -41q0 -28 17.5 -42t50.5 -14q39 0 69.5 18.5zM111 562v98h330v-98h-330z" />
    <glyph glyph-name="Abreve" unicode="&#x102;" horiz-adv-x="714" 
d="M19 0l256 715h163l257 -715h-136l-60 172h-288l-60 -172h-132zM251 287h207l-103 293h-1zM276.5 764.5q-36.5 19.5 -57 53.5t-20.5 77h104q0 -28 16 -46t41 -18q24 0 39.5 18.5t15.5 45.5h103q0 -41 -19.5 -75.5t-56 -54.5t-83.5 -20q-46 0 -82.5 19.5z" />
    <glyph glyph-name="abreve" unicode="&#x103;" horiz-adv-x="550" 
d="M88.5 23.5q-44.5 37.5 -44.5 101.5q0 61 38.5 96t91.5 50.5t128 27.5q43 6 55.5 12t12.5 23q0 28 -23 47t-66 19q-50 0 -79.5 -23t-39.5 -53l-94 53q19 49 74 85t144 36q90 0 147.5 -44t54.5 -137l-6 -194q-2 -43 40 -40v-92q-24 -3 -28 -3q-47 0 -72.5 11t-36 34.5
t-13.5 65.5h-2q-16 -52 -58 -82.5t-107 -30.5q-72 0 -116.5 37.5zM302.5 99.5q30.5 18.5 47.5 47.5t18 60l1 42q-9 -12 -22 -17.5t-37 -10.5q-58 -12 -85 -20t-43.5 -23t-16.5 -41q0 -28 17.5 -42t50.5 -14q39 0 69.5 18.5zM194.5 559.5q-36.5 19.5 -57 53.5t-20.5 77h104
q0 -28 16 -46t41 -18q24 0 39.5 18.5t15.5 45.5h103q0 -41 -19.5 -75.5t-56 -54.5t-83.5 -20q-46 0 -82.5 19.5z" />
    <glyph glyph-name="Aogonek" unicode="&#x104;" horiz-adv-x="714" 
d="M514.5 -196.5q-28.5 25.5 -28.5 65.5q0 38 25 72t60 59h-12l-60 172h-288l-60 -172h-132l256 715h163l257 -715h-26q-81 -58 -81 -104q0 -15 9 -24t26 -9q15 0 27.5 5.5t29.5 17.5l12 -77q-16 -13 -43.5 -22t-56.5 -9q-49 0 -77.5 25.5zM251 287h207l-103 293h-1z" />
    <glyph glyph-name="aogonek" unicode="&#x105;" horiz-adv-x="550" 
d="M360.5 -196.5q-28.5 25.5 -28.5 65.5q0 38 25 72t60 59h2q-44 23 -47 99h-2q-16 -52 -58 -82.5t-107 -30.5q-72 0 -116.5 37.5t-44.5 101.5q0 61 38.5 96t91.5 50.5t128 27.5q43 6 55.5 12t12.5 23q0 28 -23 47t-66 19q-50 0 -79.5 -23t-39.5 -53l-94 53q19 49 74 85
t144 36q90 0 147.5 -44t54.5 -137l-6 -194q-2 -43 40 -40v-92l-22 -3q-66 -50 -66 -93q0 -14 9 -23t25 -9q15 0 28 5.5t30 17.5l12 -77q-16 -13 -43.5 -22t-56.5 -9q-49 0 -77.5 25.5zM302.5 99.5q30.5 18.5 47.5 47.5t18 60l1 42q-9 -12 -22 -17.5t-37 -10.5
q-58 -12 -85 -20t-43.5 -23t-16.5 -41q0 -28 17.5 -42t50.5 -14q39 0 69.5 18.5z" />
    <glyph glyph-name="Cacute" unicode="&#x106;" horiz-adv-x="719" 
d="M205 23.5q-77 40.5 -123.5 125.5t-46.5 210q0 124 46.5 208t122.5 124.5t167 40.5q90 0 153.5 -38t99.5 -94.5t50 -118.5l-130 -36q-16 74 -58.5 123.5t-119.5 49.5q-55 0 -99.5 -28.5t-70.5 -86.5t-26 -143q0 -86 26.5 -145t73 -88t105.5 -29q75 0 115.5 46t50.5 110
l130 -26q-11 -60 -45 -115.5t-96.5 -92.5t-154.5 -37q-93 0 -170 40.5zM305 754l78 146h156l-121 -146h-113z" />
    <glyph glyph-name="cacute" unicode="&#x107;" horiz-adv-x="534" 
d="M148.5 14q-55.5 30 -87.5 87.5t-32 138.5q0 84 34 142.5t91 87t124 28.5q91 0 142.5 -47.5t71.5 -108.5l-114 -37q-12 40 -35.5 65.5t-66.5 25.5q-51 0 -86 -38.5t-35 -117.5q0 -80 35.5 -116.5t84.5 -36.5q43 0 70.5 26t34.5 66l120 -10q-7 -42 -31 -84t-72.5 -71.5
t-121.5 -29.5q-71 0 -126.5 30zM213 542l78 146h156l-121 -146h-113z" />
    <glyph glyph-name="Ccircumflex" unicode="&#x108;" horiz-adv-x="719" 
d="M205 23.5q-77 40.5 -123.5 125.5t-46.5 210q0 124 46.5 208t122.5 124.5t167 40.5q90 0 153.5 -38t99.5 -94.5t50 -118.5l-130 -36q-16 74 -58.5 123.5t-119.5 49.5q-55 0 -99.5 -28.5t-70.5 -86.5t-26 -143q0 -86 26.5 -145t73 -88t105.5 -29q75 0 115.5 46t50.5 110
l130 -26q-11 -60 -45 -115.5t-96.5 -92.5t-154.5 -37q-93 0 -170 40.5zM196 753l101 147h144l94 -147h-117l-51 74l-53 -74h-118z" />
    <glyph glyph-name="ccircumflex" unicode="&#x109;" horiz-adv-x="534" 
d="M148.5 14q-55.5 30 -87.5 87.5t-32 138.5q0 84 34 142.5t91 87t124 28.5q91 0 142.5 -47.5t71.5 -108.5l-114 -37q-12 40 -35.5 65.5t-66.5 25.5q-51 0 -86 -38.5t-35 -117.5q0 -80 35.5 -116.5t84.5 -36.5q43 0 70.5 26t34.5 66l120 -10q-7 -42 -31 -84t-72.5 -71.5
t-121.5 -29.5q-71 0 -126.5 30zM104 541l101 147h144l94 -147h-117l-51 74l-53 -74h-118z" />
    <glyph glyph-name="Cdotaccent" unicode="&#x10a;" horiz-adv-x="719" 
d="M205 23.5q-77 40.5 -123.5 125.5t-46.5 210q0 124 46.5 208t122.5 124.5t167 40.5q90 0 153.5 -38t99.5 -94.5t50 -118.5l-130 -36q-16 74 -58.5 123.5t-119.5 49.5q-55 0 -99.5 -28.5t-70.5 -86.5t-26 -143q0 -86 26.5 -145t73 -88t105.5 -29q75 0 115.5 46t50.5 110
l130 -26q-11 -60 -45 -115.5t-96.5 -92.5t-154.5 -37q-93 0 -170 40.5zM308.5 784.5q-23.5 20.5 -23.5 51.5t23.5 53.5t56.5 22.5q32 0 56 -22t24 -52q0 -31 -23 -52.5t-57 -21.5q-33 0 -56.5 20.5z" />
    <glyph glyph-name="cdotaccent" unicode="&#x10b;" horiz-adv-x="534" 
d="M148.5 14q-55.5 30 -87.5 87.5t-32 138.5q0 84 34 142.5t91 87t124 28.5q91 0 142.5 -47.5t71.5 -108.5l-114 -37q-12 40 -35.5 65.5t-66.5 25.5q-51 0 -86 -38.5t-35 -117.5q0 -80 35.5 -116.5t84.5 -36.5q43 0 70.5 26t34.5 66l120 -10q-7 -42 -31 -84t-72.5 -71.5
t-121.5 -29.5q-71 0 -126.5 30zM216.5 572.5q-23.5 20.5 -23.5 51.5t23.5 53.5t56.5 22.5q32 0 56 -22t24 -52q0 -31 -23 -52.5t-57 -21.5q-33 0 -56.5 20.5z" />
    <glyph glyph-name="Ccaron" unicode="&#x10c;" horiz-adv-x="719" 
d="M205 23.5q-77 40.5 -123.5 125.5t-46.5 210q0 124 46.5 208t122.5 124.5t167 40.5q90 0 153.5 -38t99.5 -94.5t50 -118.5l-130 -36q-16 74 -58.5 123.5t-119.5 49.5q-55 0 -99.5 -28.5t-70.5 -86.5t-26 -143q0 -86 26.5 -145t73 -88t105.5 -29q75 0 115.5 46t50.5 110
l130 -26q-11 -60 -45 -115.5t-96.5 -92.5t-154.5 -37q-93 0 -170 40.5zM299 753l-102 147h118l53 -75l53 75h117l-96 -147h-143z" />
    <glyph glyph-name="ccaron" unicode="&#x10d;" horiz-adv-x="534" 
d="M148.5 14q-55.5 30 -87.5 87.5t-32 138.5q0 84 34 142.5t91 87t124 28.5q91 0 142.5 -47.5t71.5 -108.5l-114 -37q-12 40 -35.5 65.5t-66.5 25.5q-51 0 -86 -38.5t-35 -117.5q0 -80 35.5 -116.5t84.5 -36.5q43 0 70.5 26t34.5 66l120 -10q-7 -42 -31 -84t-72.5 -71.5
t-121.5 -29.5q-71 0 -126.5 30zM207 541l-102 147h118l53 -75l53 75h117l-96 -147h-143z" />
    <glyph glyph-name="Dcaron" unicode="&#x10e;" horiz-adv-x="684" 
d="M63 715h240q116 0 193.5 -46.5t114.5 -126.5t37 -182q0 -108 -39.5 -189t-117.5 -126t-188 -45h-240v715zM317 116q100 0 150 64t50 177q0 114 -51.5 178t-149.5 64h-125v-483h126zM265 748l-102 147h118l53 -75l53 75h117l-96 -147h-143z" />
    <glyph glyph-name="dcaron" unicode="&#x10f;" horiz-adv-x="560" 
d="M141.5 12.5q-48.5 26.5 -80.5 84.5t-32 145q0 85 30 142.5t77.5 84.5t100.5 27q49 0 86 -23t60 -57h1v299h122v-715h-121v65h-1q-20 -33 -57 -56t-87 -23t-98.5 26.5zM354 129.5q32 43.5 32 116.5q0 72 -31.5 110.5t-85.5 38.5q-53 0 -84.5 -37.5t-31.5 -111.5
q0 -76 32.5 -118t83.5 -42q53 0 85 43.5zM548 542l34 173h132l-67 -173h-99z" />
    <glyph glyph-name="Dcroat" unicode="&#x110;" horiz-adv-x="684" 
d="M63 319h-68v93h68v303h240q116 0 193.5 -46.5t114.5 -126.5t37 -182q0 -108 -39.5 -189t-117.5 -126t-188 -45h-240v319zM317 116q100 0 150 64t50 177q0 114 -51.5 178t-149.5 64h-125v-187h155v-93h-155v-203h126z" />
    <glyph glyph-name="dcroat" unicode="&#x111;" horiz-adv-x="560" 
d="M141.5 12.5q-48.5 26.5 -80.5 84.5t-32 145q0 85 30 142.5t77.5 84.5t100.5 27q49 0 86 -23t60 -57h1v114h-127v88h127v97h122v-97h60v-88h-60v-530h-121v65h-1q-20 -33 -57 -56t-87 -23t-98.5 26.5zM354 129.5q32 43.5 32 116.5q0 72 -31.5 110.5t-85.5 38.5
q-53 0 -84.5 -37.5t-31.5 -111.5q0 -76 32.5 -118t83.5 -42q53 0 85 43.5z" />
    <glyph glyph-name="Emacron" unicode="&#x112;" horiz-adv-x="604" 
d="M63 0v715h492v-116h-364v-179h321v-109h-321v-195h362v-116h-490zM152 767v98h330v-98h-330z" />
    <glyph glyph-name="emacron" unicode="&#x113;" horiz-adv-x="529" 
d="M152 12q-55 28 -88 85.5t-33 141.5q0 81 31.5 139.5t87 89t127.5 30.5q104 0 161.5 -63t57.5 -179v-47h-340q3 -53 36.5 -88.5t85.5 -35.5q46 0 74 24.5t38 55.5l97 -48q-21 -53 -74.5 -93t-139.5 -40q-66 0 -121 28zM370 293q-7 114 -102 114q-48 0 -75.5 -31t-32.5 -83
h210zM102 560v98h330v-98h-330z" />
    <glyph glyph-name="Ebreve" unicode="&#x114;" horiz-adv-x="604" 
d="M63 0v715h492v-116h-364v-179h321v-109h-321v-195h362v-116h-490zM236.5 764.5q-36.5 19.5 -57 53.5t-20.5 77h104q0 -28 16 -46t41 -18q24 0 39.5 18.5t15.5 45.5h103q0 -41 -19.5 -75.5t-56 -54.5t-83.5 -20q-46 0 -82.5 19.5z" />
    <glyph glyph-name="ebreve" unicode="&#x115;" horiz-adv-x="529" 
d="M152 12q-55 28 -88 85.5t-33 141.5q0 81 31.5 139.5t87 89t127.5 30.5q104 0 161.5 -63t57.5 -179v-47h-340q3 -53 36.5 -88.5t85.5 -35.5q46 0 74 24.5t38 55.5l97 -48q-21 -53 -74.5 -93t-139.5 -40q-66 0 -121 28zM370 293q-7 114 -102 114q-48 0 -75.5 -31t-32.5 -83
h210zM185.5 557.5q-36.5 19.5 -57 53.5t-20.5 77h104q0 -28 16 -46t41 -18q24 0 39.5 18.5t15.5 45.5h103q0 -41 -19.5 -75.5t-56 -54.5t-83.5 -20q-46 0 -82.5 19.5z" />
    <glyph glyph-name="Edotaccent" unicode="&#x116;" horiz-adv-x="604" 
d="M63 0v715h492v-116h-364v-179h321v-109h-321v-195h362v-116h-490zM260.5 779.5q-23.5 20.5 -23.5 51.5t23.5 53.5t56.5 22.5q32 0 56 -22t24 -52q0 -31 -23 -52.5t-57 -21.5q-33 0 -56.5 20.5z" />
    <glyph glyph-name="edotaccent" unicode="&#x117;" horiz-adv-x="529" 
d="M152 12q-55 28 -88 85.5t-33 141.5q0 81 31.5 139.5t87 89t127.5 30.5q104 0 161.5 -63t57.5 -179v-47h-340q3 -53 36.5 -88.5t85.5 -35.5q46 0 74 24.5t38 55.5l97 -48q-21 -53 -74.5 -93t-139.5 -40q-66 0 -121 28zM370 293q-7 114 -102 114q-48 0 -75.5 -31t-32.5 -83
h210zM210.5 572.5q-23.5 20.5 -23.5 51.5t23.5 53.5t56.5 22.5q32 0 56 -22t24 -52q0 -31 -23 -52.5t-57 -21.5q-33 0 -56.5 20.5z" />
    <glyph glyph-name="Eogonek" unicode="&#x118;" horiz-adv-x="604" 
d="M419.5 -195.5q-30.5 26.5 -30.5 66.5q0 33 22 64.5t68 64.5h-416v715h492v-116h-364v-179h321v-109h-321v-195h362v-116h-1q-35 -31 -50 -57t-15 -44q0 -14 10 -25t29 -11q16 0 28 7t28 22l10 -77q-11 -15 -36.5 -26t-57.5 -11q-48 0 -78.5 26.5z" />
    <glyph glyph-name="eogonek" unicode="&#x119;" horiz-adv-x="529" 
d="M256 -180q-30 27 -30 66q0 49 52 98h-5q-66 0 -121 28t-88 85.5t-33 141.5q0 81 31.5 139.5t87 89t127.5 30.5q104 0 161.5 -63t57.5 -179v-47h-340q3 -53 36.5 -88.5t85.5 -35.5q46 0 74 24.5t38 55.5l97 -48q-12 -31 -38.5 -61.5t-70.5 -50.5q-29 -27 -41.5 -50.5
t-12.5 -40.5q0 -14 10 -25t29 -11q16 0 28 7t28 22l10 -77q-11 -15 -36.5 -26t-56.5 -11q-50 0 -80 27zM370 293q-7 114 -102 114q-48 0 -75.5 -31t-32.5 -83h210z" />
    <glyph glyph-name="Ecaron" unicode="&#x11a;" horiz-adv-x="604" 
d="M63 0v715h492v-116h-364v-179h321v-109h-321v-195h362v-116h-490zM251 748l-102 147h118l53 -75l53 75h117l-96 -147h-143z" />
    <glyph glyph-name="ecaron" unicode="&#x11b;" horiz-adv-x="529" 
d="M152 12q-55 28 -88 85.5t-33 141.5q0 81 31.5 139.5t87 89t127.5 30.5q104 0 161.5 -63t57.5 -179v-47h-340q3 -53 36.5 -88.5t85.5 -35.5q46 0 74 24.5t38 55.5l97 -48q-21 -53 -74.5 -93t-139.5 -40q-66 0 -121 28zM370 293q-7 114 -102 114q-48 0 -75.5 -31t-32.5 -83
h210zM201 541l-102 147h118l53 -75l53 75h117l-96 -147h-143z" />
    <glyph glyph-name="Gcircumflex" unicode="&#x11c;" horiz-adv-x="763" 
d="M213 20q-75 37 -126.5 120.5t-51.5 214.5q0 128 49 212.5t127.5 124.5t168.5 40q122 0 197.5 -66.5t103.5 -158.5l-130 -38q-16 58 -60 103.5t-116 45.5q-52 0 -98.5 -26.5t-76.5 -85.5t-30 -150q0 -89 30 -147t78.5 -84.5t106.5 -26.5q56 0 100 24t67.5 63.5t23.5 83.5
v13h-199v100h323v-382h-96l-8 150h-3q-5 -36 -34.5 -75t-80.5 -65.5t-116 -26.5q-74 0 -149 37zM202 752l101 147h144l94 -147h-117l-51 74l-53 -74h-118z" />
    <glyph glyph-name="gcircumflex" unicode="&#x11d;" horiz-adv-x="547" 
d="M86 -182.5q-60 33.5 -60 90.5q0 35 22 65t63 48v2q-34 13 -50 33.5t-16 43.5q0 31 25.5 54.5t63.5 29.5v2q-88 48 -88 134q0 48 26.5 88.5t76.5 64.5t116 24h51q33 0 49 10.5t21 32.5h-61l-51 74l-53 -74h-118l101 147h144l60 -94h102v-35q0 -45 -35.5 -66.5t-88.5 -21.5
v-3q41 -22 64.5 -58.5t23.5 -84.5q0 -51 -27 -89.5t-77.5 -60t-117.5 -21.5l-54 1q-15 0 -25 -9t-10 -21q0 -15 13 -22.5t34 -7.5h154q82 0 125 -35t43 -97q0 -84 -75 -131t-202 -47q-109 0 -169 33.5zM370 -114q42 18 42 58q0 54 -82 54l-127 -3q-24 -1 -41 -19t-17 -43
q0 -34 35.5 -49.5t88.5 -15.5q59 0 101 18zM329.5 255.5q24.5 24.5 24.5 67.5t-25.5 69.5t-67.5 26.5t-67 -26t-25 -69t25 -68t68 -25t67.5 24.5z" />
    <glyph glyph-name="Gbreve" unicode="&#x11e;" horiz-adv-x="763" 
d="M213 20q-75 37 -126.5 120.5t-51.5 214.5q0 128 49 212.5t127.5 124.5t168.5 40q122 0 197.5 -66.5t103.5 -158.5l-130 -38q-16 58 -60 103.5t-116 45.5q-52 0 -98.5 -26.5t-76.5 -85.5t-30 -150q0 -89 30 -147t78.5 -84.5t106.5 -26.5q56 0 100 24t67.5 63.5t23.5 83.5
v13h-199v100h323v-382h-96l-8 150h-3q-5 -36 -34.5 -75t-80.5 -65.5t-116 -26.5q-74 0 -149 37zM290.5 768.5q-36.5 19.5 -57 53.5t-20.5 77h104q0 -28 16 -46t41 -18q24 0 39.5 18.5t15.5 45.5h103q0 -41 -19.5 -75.5t-56 -54.5t-83.5 -20q-46 0 -82.5 19.5z" />
    <glyph glyph-name="gbreve" unicode="&#x11f;" horiz-adv-x="547" 
d="M86 -182.5q-60 33.5 -60 90.5q0 35 22 65t63 48v2q-34 13 -50 33.5t-16 43.5q0 31 25.5 54.5t63.5 29.5v2q-88 48 -88 134q0 48 26.5 88.5t76.5 64.5t116 24h51q44 0 58.5 19.5t15.5 64.5q-46 -44 -115 -44q-47 0 -84 20t-57 54t-20 76h104q0 -28 16 -46t41 -18
q24 0 39.5 18.5t15.5 45.5h103q0 -52 -32 -94h109v-35q0 -45 -35.5 -66.5t-88.5 -21.5v-3q41 -22 64.5 -58.5t23.5 -84.5q0 -51 -27 -89.5t-77.5 -60t-117.5 -21.5l-54 1q-15 0 -25 -9t-10 -21q0 -15 13 -22.5t34 -7.5h154q82 0 125 -35t43 -97q0 -84 -75 -131t-202 -47
q-109 0 -169 33.5zM370 -114q42 18 42 58q0 54 -82 54l-127 -3q-24 -1 -41 -19t-17 -43q0 -34 35.5 -49.5t88.5 -15.5q59 0 101 18zM329.5 255.5q24.5 24.5 24.5 67.5t-25.5 69.5t-67.5 26.5t-67 -26t-25 -69t25 -68t68 -25t67.5 24.5z" />
    <glyph glyph-name="Gdotaccent" unicode="&#x120;" horiz-adv-x="763" 
d="M213 20q-75 37 -126.5 120.5t-51.5 214.5q0 128 49 212.5t127.5 124.5t168.5 40q122 0 197.5 -66.5t103.5 -158.5l-130 -38q-16 58 -60 103.5t-116 45.5q-52 0 -98.5 -26.5t-76.5 -85.5t-30 -150q0 -89 30 -147t78.5 -84.5t106.5 -26.5q56 0 100 24t67.5 63.5t23.5 83.5
v13h-199v100h323v-382h-96l-8 150h-3q-5 -36 -34.5 -75t-80.5 -65.5t-116 -26.5q-74 0 -149 37zM314.5 783.5q-23.5 20.5 -23.5 51.5t23.5 53.5t56.5 22.5q32 0 56 -22t24 -52q0 -31 -23 -52.5t-57 -21.5q-33 0 -56.5 20.5z" />
    <glyph glyph-name="gdotaccent" unicode="&#x121;" horiz-adv-x="547" 
d="M86 -182.5q-60 33.5 -60 90.5q0 35 22 65t63 48v2q-34 13 -50 33.5t-16 43.5q0 31 25.5 54.5t63.5 29.5v2q-88 48 -88 134q0 48 26.5 88.5t76.5 64.5t116 24h51q32 0 48 10.5t21 30t5 55.5h120v-35q0 -45 -35.5 -66.5t-88.5 -21.5v-3q41 -22 64.5 -58.5t23.5 -84.5
q0 -51 -27 -89.5t-77.5 -60t-117.5 -21.5l-54 1q-15 0 -25 -9t-10 -21q0 -15 13 -22.5t34 -7.5h154q82 0 125 -35t43 -97q0 -84 -75 -131t-202 -47q-109 0 -169 33.5zM370 -114q42 18 42 58q0 54 -82 54l-127 -3q-24 -1 -41 -19t-17 -43q0 -34 35.5 -49.5t88.5 -15.5
q59 0 101 18zM329.5 255.5q24.5 24.5 24.5 67.5t-25.5 69.5t-67.5 26.5t-67 -26t-25 -69t25 -68t68 -25t67.5 24.5zM215.5 571.5q-23.5 20.5 -23.5 51.5t23.5 53.5t56.5 22.5q32 0 56 -22t24 -52q0 -31 -23 -52.5t-57 -21.5q-33 0 -56.5 20.5z" />
    <glyph glyph-name="uni0122" unicode="&#x122;" horiz-adv-x="763" 
d="M213 20q-75 37 -126.5 120.5t-51.5 214.5q0 128 49 212.5t127.5 124.5t168.5 40q122 0 197.5 -66.5t103.5 -158.5l-130 -38q-16 58 -60 103.5t-116 45.5q-52 0 -98.5 -26.5t-76.5 -85.5t-30 -150q0 -89 30 -147t78.5 -84.5t106.5 -26.5q56 0 100 24t67.5 63.5t23.5 83.5
v13h-199v100h323v-382h-96l-8 150h-3q-5 -36 -34.5 -75t-80.5 -65.5t-116 -26.5q-74 0 -149 37zM287 -206l35 148h139l-72 -148h-102z" />
    <glyph glyph-name="uni0123" unicode="&#x123;" horiz-adv-x="547" 
d="M86 -182.5q-60 33.5 -60 90.5q0 35 22 65t63 48v2q-34 13 -50 33.5t-16 43.5q0 31 25.5 54.5t63.5 29.5v2q-88 48 -88 134q0 48 26.5 88.5t76.5 64.5t116 24h51q32 0 48 10.5t21 30t5 55.5h120v-35q0 -45 -35.5 -66.5t-88.5 -21.5v-3q41 -22 64.5 -58.5t23.5 -84.5
q0 -51 -27 -89.5t-77.5 -60t-117.5 -21.5l-54 1q-15 0 -25 -9t-10 -21q0 -15 13 -22.5t34 -7.5h154q82 0 125 -35t43 -97q0 -84 -75 -131t-202 -47q-109 0 -169 33.5zM370 -114q42 18 42 58q0 54 -82 54l-127 -3q-24 -1 -41 -19t-17 -43q0 -34 35.5 -49.5t88.5 -15.5
q59 0 101 18zM329.5 255.5q24.5 24.5 24.5 67.5t-25.5 69.5t-67.5 26.5t-67 -26t-25 -69t25 -68t68 -25t67.5 24.5zM201 540l72 148h102l-35 -148h-139z" />
    <glyph glyph-name="Hcircumflex" unicode="&#x124;" horiz-adv-x="709" 
d="M63 0v715h128v-289h327v289h128v-715h-128v308h-327v-308h-128zM184 748l101 147h144l94 -147h-117l-51 74l-53 -74h-118z" />
    <glyph glyph-name="hcircumflex" unicode="&#x125;" horiz-adv-x="535" 
d="M54 715h123v-312h1q44 93 146 93q68 0 115 -40.5t47 -123.5v-332h-122v302q0 44 -20.5 67.5t-58.5 23.5q-48 0 -78 -35.5t-30 -110.5v-247h-123v715zM106 748l101 147h144l94 -147h-117l-51 74l-53 -74h-118z" />
    <glyph glyph-name="Hbar" unicode="&#x126;" horiz-adv-x="709" 
d="M63 0v515h-74v93h74v107h128v-107h327v107h128v-107h74v-93h-74v-515h-128v308h-327v-308h-128zM191 426h327v89h-327v-89z" />
    <glyph glyph-name="hbar" unicode="&#x127;" horiz-adv-x="535" 
d="M54 564h-60v88h60v63h123v-63h112v-88h-112v-161h1q44 93 146 93q68 0 115 -40.5t47 -123.5v-332h-122v302q0 44 -20.5 67.5t-58.5 23.5q-48 0 -78 -35.5t-30 -110.5v-247h-123v564z" />
    <glyph glyph-name="Itilde" unicode="&#x128;" horiz-adv-x="255" 
d="M63 0v715h128v-715h-128zM-49 785q18 54 44.5 80t64.5 26q22 0 37.5 -6.5t32.5 -19.5q29 -22 48 -22q35 0 52 46l68 -26q-36 -112 -108 -112q-21 0 -36 7t-37 22q-29 20 -48 20q-16 0 -29.5 -12.5t-23.5 -36.5z" />
    <glyph glyph-name="itilde" unicode="&#x129;" horiz-adv-x="225" 
d="M54 0v481h123v-481h-123zM-60 576q18 54 44.5 80t64.5 26q22 0 37.5 -6.5t32.5 -19.5q29 -22 48 -22q35 0 52 46l68 -26q-36 -112 -108 -112q-21 0 -36 7t-37 22q-29 20 -48 20q-16 0 -29.5 -12.5t-23.5 -36.5z" />
    <glyph glyph-name="Imacron" unicode="&#x12a;" horiz-adv-x="255" 
d="M63 0v715h128v-715h-128zM-22 767v98h297v-98h-297z" />
    <glyph glyph-name="imacron" unicode="&#x12b;" horiz-adv-x="225" 
d="M54 0v481h123v-481h-123zM-33 558v98h297v-98h-297z" />
    <glyph glyph-name="Ibreve" unicode="&#x12c;" horiz-adv-x="255" 
d="M63 0v715h128v-715h-128zM24 788q-40 43 -40 107h93q0 -28 14 -46t37 -18q22 0 36 18.5t14 45.5h93q0 -63 -39.5 -106.5t-103.5 -43.5t-104 43z" />
    <glyph glyph-name="ibreve" unicode="&#x12d;" horiz-adv-x="225" 
d="M54 0v481h123v-481h-123zM14 579q-40 43 -40 107h93q0 -28 14 -46t37 -18q22 0 35.5 18.5t13.5 45.5h92q0 -41 -17.5 -75.5t-50 -54.5t-74.5 -20q-63 0 -103 43z" />
    <glyph glyph-name="Iogonek" unicode="&#x12e;" horiz-adv-x="255" 
d="M58.5 -195.5q-30.5 26.5 -30.5 66.5q0 33 22 64.5t68 64.5h-55v715h128v-715q-35 -31 -50 -57t-15 -44q0 -14 10 -25t29 -11q16 0 28 7t28 22l10 -77q-11 -15 -36.5 -26t-57.5 -11q-48 0 -78.5 26.5z" />
    <glyph glyph-name="iogonek" unicode="&#x12f;" horiz-adv-x="225" 
d="M35.5 -195.5q-30.5 26.5 -30.5 66.5q0 33 22 64.5t68 64.5h-41v481h123v-481h-9q-35 -31 -50 -57t-15 -44q0 -14 10 -25t29 -11q16 0 28 7t28 22l10 -77q-11 -15 -36.5 -26t-57.5 -11q-48 0 -78.5 26.5zM57 568.5q-23 21.5 -23 53.5t23 54t59 22q35 0 58 -22t23 -54
t-23 -53.5t-58 -21.5q-36 0 -59 21.5z" />
    <glyph glyph-name="Idotaccent" unicode="&#x130;" horiz-adv-x="255" 
d="M63 0v715h128v-715h-128zM69.5 779.5q-23.5 20.5 -23.5 51.5t23.5 53.5t56.5 22.5q32 0 56 -22t24 -52q0 -31 -23 -52.5t-57 -21.5q-33 0 -56.5 20.5z" />
    <glyph glyph-name="dotlessi" unicode="&#x131;" horiz-adv-x="225" 
d="M54 0v481h123v-481h-123z" />
    <glyph glyph-name="Jcircumflex" unicode="&#x134;" horiz-adv-x="597" 
d="M154 17.5q-56 34.5 -82.5 88t-30.5 113.5l129 17q2 -56 32.5 -97t98.5 -41q109 0 109 119v498h127v-492q0 -114 -61 -177t-178 -63q-88 0 -144 34.5zM294 753l101 147h144l94 -147h-117l-51 74l-53 -74h-118z" />
    <glyph glyph-name="jcircumflex" unicode="&#x135;" horiz-adv-x="247" 
d="M-28 -201l11 102q18 -3 33 -3q38 0 48.5 19.5t10.5 47.5v516h123v-506q0 -85 -45 -133t-126 -48q-34 0 -55 5zM-13 539l90 147h130l85 -147h-105l-47 74l-47 -74h-106z" />
    <glyph glyph-name="uni0136" unicode="&#x136;" horiz-adv-x="664" 
d="M63 0v715h128v-336l287 336h158l-290 -330l306 -385h-160l-232 294l-69 -74v-220h-128zM255 -206l35 148h139l-72 -148h-102z" />
    <glyph glyph-name="uni0137" unicode="&#x137;" horiz-adv-x="531" 
d="M54 0v715h123v-421l174 187h152l-192 -200l201 -281h-147l-139 202l-49 -49v-153h-123zM181 -206l35 148h139l-72 -148h-102z" />
    <glyph glyph-name="kgreenlandic" unicode="&#x138;" horiz-adv-x="528" 
d="M54 0v481h123v-187l171 187h151l-189 -200l199 -281h-146l-137 202l-49 -49v-153h-123z" />
    <glyph glyph-name="Lacute" unicode="&#x139;" horiz-adv-x="570" 
d="M63 0v715h128v-596h337v-119h-465zM66 749l78 146h156l-121 -146h-113z" />
    <glyph glyph-name="lacute" unicode="&#x13a;" horiz-adv-x="225" 
d="M54 0v715h123v-715h-123zM54 759l78 146h156l-121 -146h-113z" />
    <glyph glyph-name="uni013B" unicode="&#x13b;" horiz-adv-x="570" 
d="M63 0v715h128v-596h337v-119h-465zM196 -206l35 148h139l-72 -148h-102z" />
    <glyph glyph-name="uni013C" unicode="&#x13c;" horiz-adv-x="225" 
d="M54 0v715h123v-715h-123zM13 -206l35 148h139l-72 -148h-102z" />
    <glyph glyph-name="Lcaron" unicode="&#x13d;" horiz-adv-x="570" 
d="M63 0v715h128v-596h337v-119h-465zM280 542l34 173h132l-67 -173h-99z" />
    <glyph glyph-name="lcaron" unicode="&#x13e;" horiz-adv-x="225" 
d="M54 0v715h123v-715h-123zM219 542l34 173h132l-67 -173h-99z" />
    <glyph glyph-name="Ldot" unicode="&#x13f;" horiz-adv-x="570" 
d="M63 0v715h128v-596h337v-119h-465zM310.5 319.5q-24.5 24.5 -24.5 58.5t25.5 58t62.5 24q38 0 62 -24t24 -58q0 -36 -25.5 -59.5t-61.5 -23.5q-38 0 -62.5 24.5z" />
    <glyph glyph-name="ldot" unicode="&#x140;" horiz-adv-x="486" 
d="M54 0v715h123v-715h-123zM293.5 243.5q-24.5 24.5 -24.5 58.5t25.5 58t62.5 24q38 0 62 -24t24 -58q0 -36 -25.5 -59.5t-61.5 -23.5q-38 0 -62.5 24.5z" />
    <glyph glyph-name="Lslash" unicode="&#x141;" horiz-adv-x="570" 
d="M63 0v214l-49 -27l-42 101l91 52v375h128v-303l165 94l47 -101l-212 -119v-167h337v-119h-465z" />
    <glyph glyph-name="lslash" unicode="&#x142;" horiz-adv-x="348" 
d="M113 0v257l-92 -60v133l92 60v325h122v-247l92 60v-133l-92 -60v-335h-122z" />
    <glyph glyph-name="Nacute" unicode="&#x143;" horiz-adv-x="717" 
d="M63 0v715h141l322 -521h2v521h126v-715h-139l-325 523h-1v-523h-126zM307 749l78 146h156l-121 -146h-113z" />
    <glyph glyph-name="nacute" unicode="&#x144;" horiz-adv-x="535" 
d="M54 481h123v-67h1q19 39 58 60.5t89 21.5q68 0 114.5 -40t46.5 -121v-335h-122v307q0 40 -20.5 63.5t-58.5 23.5q-48 0 -78 -35t-30 -103v-256h-123v481zM220 540l78 146h156l-121 -146h-113z" />
    <glyph glyph-name="uni0145" unicode="&#x145;" horiz-adv-x="717" 
d="M63 0v715h141l322 -521h2v521h126v-715h-139l-325 523h-1v-523h-126zM273 -206l35 148h139l-72 -148h-102z" />
    <glyph glyph-name="uni0146" unicode="&#x146;" horiz-adv-x="535" 
d="M54 481h123v-67h1q19 39 58 60.5t89 21.5q68 0 114.5 -40t46.5 -121v-335h-122v307q0 40 -20.5 63.5t-58.5 23.5q-48 0 -78 -35t-30 -103v-256h-123v481zM172 -206l35 148h139l-72 -148h-102z" />
    <glyph glyph-name="Ncaron" unicode="&#x147;" horiz-adv-x="717" 
d="M63 0v715h141l322 -521h2v521h126v-715h-139l-325 523h-1v-523h-126zM301 748l-102 147h118l53 -75l53 75h117l-96 -147h-143z" />
    <glyph glyph-name="ncaron" unicode="&#x148;" horiz-adv-x="535" 
d="M54 481h123v-67h1q19 39 58 60.5t89 21.5q68 0 114.5 -40t46.5 -121v-335h-122v307q0 40 -20.5 63.5t-58.5 23.5q-48 0 -78 -35t-30 -103v-256h-123v481zM214 539l-102 147h118l53 -75l53 75h117l-96 -147h-143z" />
    <glyph glyph-name="Eng" unicode="&#x14a;" horiz-adv-x="717" 
d="M411.5 -180.5q-36.5 19.5 -55.5 43.5l74 69q7 -13 23 -24.5t34 -11.5q22 0 33 13t11 37v54h-16l-325 523h-1v-523h-126v715h141l322 -521h2v521h126v-756q0 -74 -39.5 -116.5t-115.5 -42.5q-51 0 -87.5 19.5z" />
    <glyph glyph-name="eng" unicode="&#x14b;" horiz-adv-x="535" 
d="M243.5 -180.5q-36.5 19.5 -55.5 43.5l74 69q7 -13 23 -24.5t34 -11.5q22 0 33 13t11 37v54h1v307q0 40 -20.5 63.5t-58.5 23.5q-48 0 -78 -35t-30 -103v-256h-123v481h123v-67h1q19 39 58 60.5t89 21.5q68 0 114.5 -40t46.5 -121v-376q0 -74 -39.5 -116.5t-115.5 -42.5
q-51 0 -87.5 19.5z" />
    <glyph glyph-name="Omacron" unicode="&#x14c;" horiz-adv-x="753" 
d="M210.5 25q-78.5 42 -127 127t-48.5 208q0 122 49 206t127.5 125t167.5 41q90 0 167.5 -41t124.5 -125t47 -206q0 -121 -47 -206.5t-124.5 -128t-167.5 -42.5t-168.5 42zM481 125.5q46 27.5 74 86.5t28 149q0 88 -28 145.5t-74 84t-102 26.5t-103.5 -27t-76.5 -84.5
t-29 -145.5q0 -89 29.5 -148t77 -86.5t103.5 -27.5q55 0 101 27.5zM211 772v98h330v-98h-330z" />
    <glyph glyph-name="omacron" unicode="&#x14d;" horiz-adv-x="547" 
d="M151.5 13q-55.5 29 -89 87t-33.5 140t33.5 140.5t88.5 88t120 29.5q66 0 122 -29.5t90.5 -87.5t34.5 -140q0 -81 -33.5 -139t-89.5 -88t-123 -30q-65 0 -120.5 29zM360 125q34 38 34 116q0 80 -35 117.5t-86 37.5t-85.5 -38t-34.5 -117q0 -78 34 -116t87 -38q52 0 86 38z
M108 560v98h330v-98h-330z" />
    <glyph glyph-name="Obreve" unicode="&#x14e;" horiz-adv-x="753" 
d="M210.5 25q-78.5 42 -127 127t-48.5 208q0 122 49 206t127.5 125t167.5 41q90 0 167.5 -41t124.5 -125t47 -206q0 -121 -47 -206.5t-124.5 -128t-167.5 -42.5t-168.5 42zM481 125.5q46 27.5 74 86.5t28 149q0 88 -28 145.5t-74 84t-102 26.5t-103.5 -27t-76.5 -84.5
t-29 -145.5q0 -89 29.5 -148t77 -86.5t103.5 -27.5q55 0 101 27.5zM294.5 769.5q-36.5 19.5 -57 53.5t-20.5 77h104q0 -28 16 -46t41 -18q24 0 39.5 18.5t15.5 45.5h103q0 -41 -19.5 -75.5t-56 -54.5t-83.5 -20q-46 0 -82.5 19.5z" />
    <glyph glyph-name="obreve" unicode="&#x14f;" horiz-adv-x="547" 
d="M151.5 13q-55.5 29 -89 87t-33.5 140t33.5 140.5t88.5 88t120 29.5q66 0 122 -29.5t90.5 -87.5t34.5 -140q0 -81 -33.5 -139t-89.5 -88t-123 -30q-65 0 -120.5 29zM360 125q34 38 34 116q0 80 -35 117.5t-86 37.5t-85.5 -38t-34.5 -117q0 -78 34 -116t87 -38q52 0 86 38z
M192.5 557.5q-36.5 19.5 -57 53.5t-20.5 77h104q0 -28 16 -46t41 -18q24 0 39.5 18.5t15.5 45.5h103q0 -41 -19.5 -75.5t-56 -54.5t-83.5 -20q-46 0 -82.5 19.5z" />
    <glyph glyph-name="Ohungarumlaut" unicode="&#x150;" horiz-adv-x="753" 
d="M210.5 25q-78.5 42 -127 127t-48.5 208q0 122 49 206t127.5 125t167.5 41q90 0 167.5 -41t124.5 -125t47 -206q0 -121 -47 -206.5t-124.5 -128t-167.5 -42.5t-168.5 42zM481 125.5q46 27.5 74 86.5t28 149q0 88 -28 145.5t-74 84t-102 26.5t-103.5 -27t-76.5 -84.5
t-29 -145.5q0 -89 29.5 -148t77 -86.5t103.5 -27.5q55 0 101 27.5zM220 754l74 146h142l-114 -146h-102zM408 754l75 146h143l-117 -146h-101z" />
    <glyph glyph-name="ohungarumlaut" unicode="&#x151;" horiz-adv-x="547" 
d="M151.5 13q-55.5 29 -89 87t-33.5 140t33.5 140.5t88.5 88t120 29.5q66 0 122 -29.5t90.5 -87.5t34.5 -140q0 -81 -33.5 -139t-89.5 -88t-123 -30q-65 0 -120.5 29zM360 125q34 38 34 116q0 80 -35 117.5t-86 37.5t-85.5 -38t-34.5 -117q0 -78 34 -116t87 -38q52 0 86 38z
M117 542l74 146h142l-114 -146h-102zM305 542l75 146h143l-117 -146h-101z" />
    <glyph glyph-name="OE" unicode="&#x152;" horiz-adv-x="1124" 
d="M202.5 25q-74.5 42 -121 127.5t-46.5 207.5t46.5 206t121.5 125t160 41q72 0 129 -30.5t93 -91.5v105h490v-116h-363v-179h320v-109h-320v-195h361v-116h-488v108q-36 -62 -93 -93.5t-131 -31.5q-84 0 -158.5 42zM481 125.5q46 27.5 74 86.5t28 149q0 88 -28 145.5
t-74 84t-102 26.5t-103.5 -27t-76.5 -84.5t-29 -145.5q0 -89 29.5 -148t77 -86.5t103.5 -27.5q55 0 101 27.5z" />
    <glyph glyph-name="oe" unicode="&#x153;" horiz-adv-x="886" 
d="M151.5 13q-55.5 29 -89 87t-33.5 140t33.5 140.5t88.5 88t120 29.5q55 0 102 -21.5t79 -62.5q31 42 75 63t104 21q106 0 163.5 -63t57.5 -179v-45h-339q2 -54 36 -89.5t86 -35.5q44 0 72.5 23.5t39.5 56.5l96 -49q-22 -55 -75.5 -94t-137.5 -39q-56 0 -102 20.5t-77 61.5
q-31 -40 -77.5 -61t-101.5 -21q-65 0 -120.5 29zM360 125q34 38 34 116q0 80 -35 117.5t-86 37.5t-85.5 -38t-34.5 -117q0 -78 34 -116t87 -38q52 0 86 38zM727 292q-7 116 -102 116q-48 0 -75 -31.5t-33 -84.5h210z" />
    <glyph glyph-name="Racute" unicode="&#x154;" horiz-adv-x="662" 
d="M63 715h294q117 0 179.5 -54t62.5 -152q0 -95 -52 -145.5t-123 -68.5l191 -292v-3h-152l-173 274h-99v-274h-128v715zM323 377q62 0 101.5 27.5t39.5 91.5t-36 86.5t-85 22.5h-152v-228h132zM262 749l78 146h156l-121 -146h-113z" />
    <glyph glyph-name="racute" unicode="&#x155;" horiz-adv-x="374" 
d="M54 481h123v-70q20 39 48 62t68 23q37 0 64 -16l-21 -113q-27 13 -61 13q-48 0 -73 -39.5t-25 -117.5v-223h-123v481zM147 541l78 146h156l-121 -146h-113z" />
    <glyph glyph-name="uni0156" unicode="&#x156;" horiz-adv-x="662" 
d="M63 715h294q117 0 179.5 -54t62.5 -152q0 -95 -52 -145.5t-123 -68.5l191 -292v-3h-152l-173 274h-99v-274h-128v715zM240 -206l35 148h139l-72 -148h-102zM323 377q62 0 101.5 27.5t39.5 91.5t-36 86.5t-85 22.5h-152v-228h132z" />
    <glyph glyph-name="uni0157" unicode="&#x157;" horiz-adv-x="374" 
d="M54 481h123v-70q20 39 48 62t68 23q37 0 64 -16l-21 -113q-27 13 -61 13q-48 0 -73 -39.5t-25 -117.5v-223h-123v481zM12 -206l35 148h139l-72 -148h-102z" />
    <glyph glyph-name="Rcaron" unicode="&#x158;" horiz-adv-x="662" 
d="M63 715h294q117 0 179.5 -54t62.5 -152q0 -95 -52 -145.5t-123 -68.5l191 -292v-3h-152l-173 274h-99v-274h-128v715zM323 377q62 0 101.5 27.5t39.5 91.5t-36 86.5t-85 22.5h-152v-228h132zM256 748l-102 147h118l53 -75l53 75h117l-96 -147h-143z" />
    <glyph glyph-name="rcaron" unicode="&#x159;" horiz-adv-x="374" 
d="M54 481h123v-70q20 39 48 62t68 23q37 0 64 -16l-21 -113q-27 13 -61 13q-48 0 -73 -39.5t-25 -117.5v-223h-123v481zM141 540l-102 147h118l53 -75l53 75h117l-96 -147h-143z" />
    <glyph glyph-name="Sacute" unicode="&#x15a;" horiz-adv-x="622" 
d="M176.5 10.5q-59.5 27.5 -93 69t-46.5 87.5l124 57q11 -53 51.5 -91t110.5 -38q56 0 90 24t34 67q0 34 -21 55.5t-50.5 33.5t-86.5 30q-73 23 -121.5 47.5t-79.5 66.5t-31 105q0 62 30.5 109.5t86 73t128.5 25.5q74 0 128.5 -25t86.5 -63.5t44 -79.5l-116 -52
q-11 45 -46 77.5t-93 32.5q-49 0 -80 -23t-31 -64q0 -33 20.5 -54t50 -32.5t94.5 -32.5q71 -23 118.5 -48.5t77 -67.5t29.5 -104q0 -99 -72 -156t-193 -57q-84 0 -143.5 27.5zM246 754l78 146h156l-121 -146h-113z" />
    <glyph glyph-name="sacute" unicode="&#x15b;" horiz-adv-x="473" 
d="M86.5 26q-52.5 42 -64.5 100l107 33q8 -34 35.5 -58.5t76.5 -24.5q37 0 56 15t19 40q0 21 -14 33.5t-35 19.5t-62 16q-77 18 -122 48.5t-45 98.5q0 69 52 110t142 41q88 0 140 -37.5t70 -86.5l-102 -38q-13 29 -41 50t-68 21q-32 0 -49.5 -14t-17.5 -36q0 -21 15 -33
t32.5 -17t64.5 -16q74 -17 120 -49t46 -101q0 -68 -51 -112.5t-152 -44.5q-100 0 -152.5 42zM187 541l78 146h156l-121 -146h-113z" />
    <glyph glyph-name="Scircumflex" unicode="&#x15c;" horiz-adv-x="622" 
d="M176.5 10.5q-59.5 27.5 -93 69t-46.5 87.5l124 57q11 -53 51.5 -91t110.5 -38q56 0 90 24t34 67q0 34 -21 55.5t-50.5 33.5t-86.5 30q-73 23 -121.5 47.5t-79.5 66.5t-31 105q0 62 30.5 109.5t86 73t128.5 25.5q74 0 128.5 -25t86.5 -63.5t44 -79.5l-116 -52
q-11 45 -46 77.5t-93 32.5q-49 0 -80 -23t-31 -64q0 -33 20.5 -54t50 -32.5t94.5 -32.5q71 -23 118.5 -48.5t77 -67.5t29.5 -104q0 -99 -72 -156t-193 -57q-84 0 -143.5 27.5zM137 753l101 147h144l94 -147h-117l-51 74l-53 -74h-118z" />
    <glyph glyph-name="scircumflex" unicode="&#x15d;" horiz-adv-x="473" 
d="M86.5 26q-52.5 42 -64.5 100l107 33q8 -34 35.5 -58.5t76.5 -24.5q37 0 56 15t19 40q0 21 -14 33.5t-35 19.5t-62 16q-77 18 -122 48.5t-45 98.5q0 69 52 110t142 41q88 0 140 -37.5t70 -86.5l-102 -38q-13 29 -41 50t-68 21q-32 0 -49.5 -14t-17.5 -36q0 -21 15 -33
t32.5 -17t64.5 -16q74 -17 120 -49t46 -101q0 -68 -51 -112.5t-152 -44.5q-100 0 -152.5 42zM78 540l101 147h144l94 -147h-117l-51 74l-53 -74h-118z" />
    <glyph glyph-name="Scedilla" unicode="&#x15e;" horiz-adv-x="622" 
d="M238 -191q-30 25 -39 61l85 9q2 -10 9.5 -17.5t21.5 -7.5q13 0 20.5 7.5t7.5 21.5t-8 21.5t-20 7.5q-17 0 -29 -12l-55 34l43 51q-103 11 -160.5 64.5t-76.5 117.5l124 57q11 -53 51.5 -91t110.5 -38q56 0 90 24t34 67q0 34 -21 55.5t-50.5 33.5t-86.5 30
q-73 23 -121.5 47.5t-79.5 66.5t-31 105q0 62 30.5 109.5t86 73t128.5 25.5q74 0 128.5 -25t86.5 -63.5t44 -79.5l-116 -52q-11 45 -46 77.5t-93 32.5q-49 0 -80 -23t-31 -64q0 -33 20.5 -54t50 -32.5t94.5 -32.5q71 -23 118.5 -48.5t77 -67.5t29.5 -105q0 -91 -62 -147
t-169 -64l-24 -26q8 5 28 5q33 0 56 -22t23 -59q0 -45 -31.5 -71.5t-84.5 -26.5t-83 25z" />
    <glyph glyph-name="scedilla" unicode="&#x15f;" horiz-adv-x="473" 
d="M165 -195q-30 25 -39 61l85 9q2 -10 9.5 -17.5t21.5 -7.5q13 0 20.5 7.5t7.5 21.5t-8 21.5t-20 7.5q-17 0 -29 -12l-55 34l46 56q-84 8 -128 48.5t-54 91.5l107 33q8 -34 35.5 -58.5t76.5 -24.5q37 0 56 15t19 40q0 21 -14 33.5t-35 19.5t-62 16q-77 18 -122 48.5
t-45 98.5q0 69 52 110t142 41q88 0 140 -37.5t70 -86.5l-102 -38q-13 29 -41 50t-68 21q-32 0 -49.5 -14t-17.5 -36q0 -21 15 -33t32.5 -17t64.5 -16q74 -17 120 -49t46 -101q0 -59 -38.5 -101t-116.5 -53l-30 -33q8 5 28 5q33 0 56 -22t23 -59q0 -45 -31.5 -71.5
t-84.5 -26.5t-83 25z" />
    <glyph glyph-name="Scaron" unicode="&#x160;" horiz-adv-x="622" 
d="M176.5 10.5q-59.5 27.5 -93 69t-46.5 87.5l124 57q11 -53 51.5 -91t110.5 -38q56 0 90 24t34 67q0 34 -21 55.5t-50.5 33.5t-86.5 30q-73 23 -121.5 47.5t-79.5 66.5t-31 105q0 62 30.5 109.5t86 73t128.5 25.5q74 0 128.5 -25t86.5 -63.5t44 -79.5l-116 -52
q-11 45 -46 77.5t-93 32.5q-49 0 -80 -23t-31 -64q0 -33 20.5 -54t50 -32.5t94.5 -32.5q71 -23 118.5 -48.5t77 -67.5t29.5 -104q0 -99 -72 -156t-193 -57q-84 0 -143.5 27.5zM240 753l-102 147h118l53 -75l53 75h117l-96 -147h-143z" />
    <glyph glyph-name="scaron" unicode="&#x161;" horiz-adv-x="473" 
d="M86.5 26q-52.5 42 -64.5 100l107 33q8 -34 35.5 -58.5t76.5 -24.5q37 0 56 15t19 40q0 21 -14 33.5t-35 19.5t-62 16q-77 18 -122 48.5t-45 98.5q0 69 52 110t142 41q88 0 140 -37.5t70 -86.5l-102 -38q-13 29 -41 50t-68 21q-32 0 -49.5 -14t-17.5 -36q0 -21 15 -33
t32.5 -17t64.5 -16q74 -17 120 -49t46 -101q0 -68 -51 -112.5t-152 -44.5q-100 0 -152.5 42zM181 540l-102 147h118l53 -75l53 75h117l-96 -147h-143z" />
    <glyph glyph-name="uni0162" unicode="&#x162;" horiz-adv-x="623" 
d="M229 -195q-30 25 -39 61l85 9q2 -10 9.5 -17.5t21.5 -7.5q13 0 20.5 7.5t7.5 21.5t-8 21.5t-20 7.5q-17 0 -29 -12l-55 34l58 70h-33v599h-223v116h575v-116h-224v-599h-12l-42 -46q8 5 28 5q33 0 56 -22t23 -59q0 -45 -31.5 -71.5t-84.5 -26.5t-83 25z" />
    <glyph glyph-name="uni0163" unicode="&#x163;" horiz-adv-x="384" 
d="M138 -194q-30 25 -39 61l85 9q2 -10 9.5 -17.5t21.5 -7.5q13 0 20.5 7.5t7.5 21.5t-8 21.5t-20 7.5q-17 0 -29 -12l-55 34l56 67q-34 15 -52.5 42.5t-18.5 62.5v280h-92v98h58q18 0 26 8.5t8 26.5v96l122 26v-157h115v-98h-115v-254q0 -41 44 -41q26 0 48 11l25 -91
q-44 -22 -97 -22l-28 -31q8 5 28 5q33 0 56 -22t23 -59q0 -45 -31.5 -71.5t-84.5 -26.5t-83 25z" />
    <glyph glyph-name="Tcaron" unicode="&#x164;" horiz-adv-x="623" 
d="M247 0v599h-223v116h575v-116h-224v-599h-128zM243 748l-102 147h118l53 -75l53 75h117l-96 -147h-143z" />
    <glyph glyph-name="tcaron" unicode="&#x165;" horiz-adv-x="384" 
d="M152.5 19q-36.5 33 -36.5 84v280h-92v98h58q18 0 26 8.5t8 26.5v96l122 26v-157h115v-98h-115v-254q0 -41 44 -41q26 0 48 11l25 -91q-46 -22 -99 -22q-67 0 -103.5 33zM280 567l34 173h132l-67 -173h-99z" />
    <glyph glyph-name="Tbar" unicode="&#x166;" horiz-adv-x="623" 
d="M247 0v368h-113v93h113v138h-223v116h575v-116h-224v-138h110v-93h-110v-368h-128z" />
    <glyph glyph-name="tbar" unicode="&#x167;" horiz-adv-x="384" 
d="M152.5 19q-36.5 33 -36.5 84v165h-71v83h71v32h-92v98h58q18 0 26 8.5t8 26.5v96l122 26v-157h115v-98h-115v-32h81v-83h-81v-139q0 -41 44 -41q26 0 48 11l25 -91q-46 -22 -99 -22q-67 0 -103.5 33z" />
    <glyph glyph-name="Utilde" unicode="&#x168;" horiz-adv-x="696" 
d="M200 13q-64 30 -100.5 85t-36.5 127v490h128v-459q0 -80 42.5 -119t114.5 -39q74 0 115.5 40.5t41.5 117.5v459h128v-489q0 -70 -37 -125.5t-103 -86.5t-148 -31q-81 0 -145 30zM155 785q20 54 50 80t73 26q25 0 40.5 -6.5t35.5 -19.5q33 -22 54 -22q18 0 33.5 11.5
t24.5 34.5l75 -26q-38 -112 -120 -112q-22 0 -39 7t-28 13.5t-14 8.5q-33 20 -54 20q-35 0 -58 -49z" />
    <glyph glyph-name="utilde" unicode="&#x169;" horiz-adv-x="535" 
d="M97 26q-48 40 -48 121v334h122v-308q0 -39 20.5 -62t58.5 -23q47 0 77.5 34.5t30.5 101.5v257h123v-481h-123v66h-1q-21 -39 -58 -59.5t-84 -20.5q-70 0 -118 40zM69 576q20 54 50 80t73 26q25 0 40.5 -6.5t35.5 -19.5q33 -22 54 -22q18 0 33.5 11.5t24.5 34.5l75 -26
q-38 -112 -120 -112q-22 0 -39 7t-28 13.5t-14 8.5q-33 20 -54 20q-35 0 -58 -49z" />
    <glyph glyph-name="Umacron" unicode="&#x16a;" horiz-adv-x="696" 
d="M200 13q-64 30 -100.5 85t-36.5 127v490h128v-459q0 -80 42.5 -119t114.5 -39q74 0 115.5 40.5t41.5 117.5v459h128v-489q0 -70 -37 -125.5t-103 -86.5t-148 -31q-81 0 -145 30zM186 767v98h330v-98h-330z" />
    <glyph glyph-name="umacron" unicode="&#x16b;" horiz-adv-x="535" 
d="M97 26q-48 40 -48 121v334h122v-308q0 -39 20.5 -62t58.5 -23q47 0 77.5 34.5t30.5 101.5v257h123v-481h-123v66h-1q-21 -39 -58 -59.5t-84 -20.5q-70 0 -118 40zM100 558v98h330v-98h-330z" />
    <glyph glyph-name="Ubreve" unicode="&#x16c;" horiz-adv-x="696" 
d="M200 13q-64 30 -100.5 85t-36.5 127v490h128v-459q0 -80 42.5 -119t114.5 -39q74 0 115.5 40.5t41.5 117.5v459h128v-489q0 -70 -37 -125.5t-103 -86.5t-148 -31q-81 0 -145 30zM269.5 764.5q-36.5 19.5 -57 53.5t-20.5 77h104q0 -28 16 -46t41 -18q24 0 39.5 18.5
t15.5 45.5h103q0 -41 -19.5 -75.5t-56 -54.5t-83.5 -20q-46 0 -82.5 19.5z" />
    <glyph glyph-name="ubreve" unicode="&#x16d;" horiz-adv-x="535" 
d="M97 26q-48 40 -48 121v334h122v-308q0 -39 20.5 -62t58.5 -23q47 0 77.5 34.5t30.5 101.5v257h123v-481h-123v66h-1q-21 -39 -58 -59.5t-84 -20.5q-70 0 -118 40zM183.5 555.5q-36.5 19.5 -57 53.5t-20.5 77h104q0 -28 16 -46t41 -18q24 0 39.5 18.5t15.5 45.5h103
q0 -41 -19.5 -75.5t-56 -54.5t-83.5 -20q-46 0 -82.5 19.5z" />
    <glyph glyph-name="Uring" unicode="&#x16e;" horiz-adv-x="696" 
d="M200 13q-64 30 -100.5 85t-36.5 127v490h128v-459q0 -80 42.5 -119t114.5 -39q74 0 115.5 40.5t41.5 117.5v459h128v-489q0 -70 -37 -125.5t-103 -86.5t-148 -31q-81 0 -145 30zM265.5 767.5q-34.5 33.5 -34.5 84.5q0 50 35 83.5t87 33.5q51 0 85.5 -33t34.5 -84
q0 -52 -33.5 -85t-86.5 -33t-87.5 33.5zM388.5 813q15.5 15 15.5 39q0 23 -15.5 37.5t-35.5 14.5q-22 0 -37.5 -14.5t-15.5 -37.5q0 -24 16 -39t37 -15q20 0 35.5 15z" />
    <glyph glyph-name="uring" unicode="&#x16f;" horiz-adv-x="535" 
d="M97 26q-48 40 -48 121v334h122v-308q0 -39 20.5 -62t58.5 -23q47 0 77.5 34.5t30.5 101.5v257h123v-481h-123v66h-1q-21 -39 -58 -59.5t-84 -20.5q-70 0 -118 40zM178.5 558.5q-34.5 33.5 -34.5 84.5q0 50 35 83.5t87 33.5q51 0 85.5 -33t34.5 -84q0 -52 -33.5 -85
t-86.5 -33t-87.5 33.5zM301.5 604q15.5 15 15.5 39q0 23 -15.5 37.5t-35.5 14.5q-22 0 -37.5 -14.5t-15.5 -37.5q0 -24 16 -39t37 -15q20 0 35.5 15z" />
    <glyph glyph-name="Uhungarumlaut" unicode="&#x170;" horiz-adv-x="696" 
d="M200 13q-64 30 -100.5 85t-36.5 127v490h128v-459q0 -80 42.5 -119t114.5 -39q74 0 115.5 40.5t41.5 117.5v459h128v-489q0 -70 -37 -125.5t-103 -86.5t-148 -31q-81 0 -145 30zM195 749l74 146h142l-114 -146h-102zM383 749l75 146h143l-117 -146h-101z" />
    <glyph glyph-name="uhungarumlaut" unicode="&#x171;" horiz-adv-x="535" 
d="M97 26q-48 40 -48 121v334h122v-308q0 -39 20.5 -62t58.5 -23q47 0 77.5 34.5t30.5 101.5v257h123v-481h-123v66h-1q-21 -39 -58 -59.5t-84 -20.5q-70 0 -118 40zM108 540l74 146h142l-114 -146h-102zM296 540l75 146h143l-117 -146h-101z" />
    <glyph glyph-name="Uogonek" unicode="&#x172;" horiz-adv-x="696" 
d="M315 -191q-30 27 -30 66q0 54 63 108h-2q-82 0 -146.5 30.5t-100.5 85.5t-36 126v490h128v-459q0 -80 42.5 -119t114.5 -39q74 0 115.5 40.5t41.5 117.5v459h128v-489q0 -86 -53.5 -148t-142.5 -84q-29 -27 -41.5 -50.5t-12.5 -40.5q0 -14 10 -25t29 -11q16 0 28 7t28 22
l10 -77q-11 -15 -36.5 -26t-56.5 -11q-50 0 -80 27z" />
    <glyph glyph-name="uogonek" unicode="&#x173;" horiz-adv-x="535" 
d="M326.5 -196.5q-28.5 25.5 -28.5 65.5q0 38 25 72t60 59h-25v66h-1q-21 -39 -58 -59.5t-84 -20.5q-70 0 -118 40t-48 121v334h122v-308q0 -39 20.5 -62t58.5 -23q47 0 77.5 34.5t30.5 101.5v257h123v-481q-81 -58 -81 -104q0 -15 9 -24t26 -9q15 0 27.5 5.5t29.5 17.5
l12 -77q-16 -13 -43.5 -22t-56.5 -9q-49 0 -77.5 25.5z" />
    <glyph glyph-name="Wcircumflex" unicode="&#x174;" horiz-adv-x="1022" 
d="M234 0l-215 715h131l151 -512h2l152 512h114l150 -510h2l151 510h131l-215 -715h-125l-151 516h-2l-151 -516h-125zM342 748l101 147h144l94 -147h-117l-51 74l-53 -74h-118z" />
    <glyph glyph-name="wcircumflex" unicode="&#x175;" horiz-adv-x="749" 
d="M173 0l-155 481h127l90 -311l92 311h95l91 -311l91 311h127l-155 -481h-108l-94 311l-92 -311h-109zM206 539l101 147h144l94 -147h-117l-51 74l-53 -74h-118z" />
    <glyph glyph-name="Ycircumflex" unicode="&#x176;" horiz-adv-x="667" 
d="M270 0v265l-261 450h146l182 -323l181 323h140l-261 -450v-265h-127zM166 748l101 147h144l94 -147h-117l-51 74l-53 -74h-118z" />
    <glyph glyph-name="ycircumflex" unicode="&#x177;" horiz-adv-x="515" 
d="M32 -193l7 101h76q39 0 57.5 28t21.5 66l-176 479h126l113 -351l116 351h124l-178 -480q-21 -58 -44 -98t-69.5 -70t-119.5 -30q-26 0 -54 4zM96 539l101 147h144l94 -147h-117l-51 74l-53 -74h-118z" />
    <glyph glyph-name="Ydieresis" unicode="&#x178;" horiz-adv-x="667" 
d="M270 0v265l-261 450h146l182 -323l181 323h140l-261 -450v-265h-127zM178 779.5q-24 20.5 -24 50.5t24 51.5t55 21.5q33 0 56.5 -22t23.5 -51t-23.5 -50t-55.5 -21t-56 20.5zM381 780q-23 21 -23 50q0 30 23 51.5t55 21.5q33 0 57 -21.5t24 -51.5q0 -29 -24 -50t-57 -21
q-32 0 -55 21z" />
    <glyph glyph-name="Zacute" unicode="&#x179;" horiz-adv-x="622" 
d="M44 0v102l365 497h-353v116h508v-102l-369 -498h382v-115h-533zM249 749l78 146h156l-121 -146h-113z" />
    <glyph glyph-name="zacute" unicode="&#x17a;" horiz-adv-x="491" 
d="M46 0v95l251 283h-242v103h388v-95l-248 -282h260v-104h-409zM190 540l78 146h156l-121 -146h-113z" />
    <glyph glyph-name="Zdotaccent" unicode="&#x17b;" horiz-adv-x="622" 
d="M44 0v102l365 497h-353v116h508v-102l-369 -498h382v-115h-533zM252.5 779.5q-23.5 20.5 -23.5 51.5t23.5 53.5t56.5 22.5q32 0 56 -22t24 -52q0 -31 -23 -52.5t-57 -21.5q-33 0 -56.5 20.5z" />
    <glyph glyph-name="zdotaccent" unicode="&#x17c;" horiz-adv-x="491" 
d="M46 0v95l251 283h-242v103h388v-95l-248 -282h260v-104h-409zM192 568.5q-23 21.5 -23 53.5t23 54t59 22q35 0 58 -22t23 -54t-23 -53.5t-58 -21.5q-36 0 -59 21.5z" />
    <glyph glyph-name="Zcaron" unicode="&#x17d;" horiz-adv-x="622" 
d="M44 0v102l365 497h-353v116h508v-102l-369 -498h382v-115h-533zM243 748l-102 147h118l53 -75l53 75h117l-96 -147h-143z" />
    <glyph glyph-name="zcaron" unicode="&#x17e;" horiz-adv-x="491" 
d="M46 0v95l251 283h-242v103h388v-95l-248 -282h260v-104h-409zM184 539l-102 147h118l53 -75l53 75h117l-96 -147h-143z" />
    <glyph glyph-name="florin" unicode="&#x192;" horiz-adv-x="486" 
d="M-68 -195l40 98q10 -4 26 -7t28 -3q52 0 63 56l93 434h-96l20 98h96l19 88q16 75 63.5 117.5t124.5 42.5q54 0 91 -18l-41 -98q-10 4 -26 7t-28 3q-53 0 -64 -56l-18 -86h116l-21 -98h-114l-92 -436q-16 -74 -63.5 -117t-124.5 -43q-54 0 -92 18z" />
    <glyph glyph-name="Aringacute" unicode="&#x1fa;" horiz-adv-x="714" 
d="M19 0l256 715h163l257 -715h-136l-60 172h-288l-60 -172h-132zM251 287h207l-103 293h-1zM272.5 767.5q-34.5 33.5 -34.5 84.5q0 50 35 83.5t87 33.5q51 0 85.5 -33t34.5 -84q0 -52 -33.5 -85t-86.5 -33t-87.5 33.5zM395.5 813q15.5 15 15.5 39q0 23 -15.5 37.5
t-35.5 14.5q-22 0 -37.5 -14.5t-15.5 -37.5q0 -24 16 -39t37 -15q20 0 35.5 15zM299 985l78 146h156l-121 -146h-113z" />
    <glyph glyph-name="aringacute" unicode="&#x1fb;" horiz-adv-x="550" 
d="M88.5 23.5q-44.5 37.5 -44.5 101.5q0 61 38.5 96t91.5 50.5t128 27.5q43 6 55.5 12t12.5 23q0 28 -23 47t-66 19q-50 0 -79.5 -23t-39.5 -53l-94 53q19 49 74 85t144 36q90 0 147.5 -44t54.5 -137l-6 -194q-2 -43 40 -40v-92q-24 -3 -28 -3q-47 0 -72.5 11t-36 34.5
t-13.5 65.5h-2q-16 -52 -58 -82.5t-107 -30.5q-72 0 -116.5 37.5zM302.5 99.5q30.5 18.5 47.5 47.5t18 60l1 42q-9 -12 -22 -17.5t-37 -10.5q-58 -12 -85 -20t-43.5 -23t-16.5 -41q0 -28 17.5 -42t50.5 -14q39 0 69.5 18.5zM190.5 562.5q-34.5 33.5 -34.5 84.5q0 50 35 83.5
t87 33.5q51 0 85.5 -33t34.5 -84q0 -52 -33.5 -85t-86.5 -33t-87.5 33.5zM313.5 608q15.5 15 15.5 39q0 23 -15.5 37.5t-35.5 14.5q-22 0 -37.5 -14.5t-15.5 -37.5q0 -24 16 -39t37 -15q20 0 35.5 15zM217 780l78 146h156l-121 -146h-113z" />
    <glyph glyph-name="AEacute" unicode="&#x1fc;" horiz-adv-x="979" 
d="M18 0l331 715h584v-115h-343v-180h301v-109h-301v-196h340v-115h-468v188h-221l-86 -188h-137zM293 302h169v293h-35zM561 749l78 146h156l-121 -146h-113z" />
    <glyph glyph-name="aeacute" unicode="&#x1fd;" horiz-adv-x="858" 
d="M480 16.5q-52 31.5 -79 92.5q-31 -58 -79 -90.5t-120 -32.5q-73 0 -118.5 35.5t-45.5 102.5q0 55 30.5 88.5t77.5 50t113 28.5l72 13q17 4 25.5 10t8.5 22q0 25 -22.5 44t-67.5 19q-49 0 -78.5 -22.5t-40.5 -53.5l-94 54q20 48 74 84.5t145 36.5q58 0 96 -18.5t63 -53.5
q36 37 74.5 54.5t92.5 17.5q103 0 161.5 -61.5t58.5 -184.5v-41h-340q2 -56 35.5 -90.5t86.5 -34.5q44 0 72.5 23.5t39.5 56.5l96 -49q-20 -52 -73.5 -92t-140.5 -40q-71 0 -123 31.5zM295.5 99.5q31.5 18.5 49.5 48t18 61.5v40q-11 -12 -29.5 -18.5t-62.5 -15.5
q-62 -13 -86.5 -28.5t-24.5 -48.5q0 -28 17.5 -42.5t48.5 -14.5q38 0 69.5 18.5zM702 292q-4 57 -29 86.5t-71 29.5t-76 -30t-34 -86h210zM368 542l78 146h156l-121 -146h-113z" />
    <glyph glyph-name="Oslashacute" unicode="&#x1fe;" horiz-adv-x="752" 
d="M41 35l68 78q-74 99 -74 247q0 122 49 205.5t127 124.5t167 41q58 0 112.5 -17.5t98.5 -52.5l61 69l60 -54l-65 -74q71 -95 71 -243q0 -122 -47.5 -207t-124.5 -127t-165 -42q-58 0 -113 18t-100 53l-64 -73zM480 125.5q46 27.5 74 86t28 148.5q0 80 -26 140l-309 -353
q55 -49 132 -49q55 0 101 27.5zM508 568q-26 24 -60 36t-70 12q-56 0 -103 -26.5t-76 -84t-29 -145.5q0 -83 28 -146zM316 753l78 146h156l-121 -146h-113z" />
    <glyph glyph-name="oslashacute" unicode="&#x1ff;" horiz-adv-x="582" 
d="M48 23l45 53q-61 71 -61 179q0 86 37 146.5t96.5 91t126.5 30.5q82 0 146 -43l44 52l53 -45l-45 -53q60 -71 60 -180q0 -86 -36.5 -146t-95 -90t-125.5 -30q-82 0 -148 42l-44 -51zM384 138.5q35 39.5 35 115.5q0 47 -14 81l-183 -215q32 -21 73 -21q54 0 89 39.5z
M362 392q-29 20 -68 20q-55 0 -93.5 -40.5t-38.5 -116.5q0 -44 15 -81zM231 568l78 146h156l-121 -146h-113z" />
    <glyph glyph-name="uni0218" unicode="&#x218;" horiz-adv-x="622" 
d="M176.5 10.5q-59.5 27.5 -93 69t-46.5 87.5l124 57q11 -53 51.5 -91t110.5 -38q56 0 90 24t34 67q0 34 -21 55.5t-50.5 33.5t-86.5 30q-73 23 -121.5 47.5t-79.5 66.5t-31 105q0 62 30.5 109.5t86 73t128.5 25.5q74 0 128.5 -25t86.5 -63.5t44 -79.5l-116 -52
q-11 45 -46 77.5t-93 32.5q-49 0 -80 -23t-31 -64q0 -33 20.5 -54t50 -32.5t94.5 -32.5q71 -23 118.5 -48.5t77 -67.5t29.5 -104q0 -99 -72 -156t-193 -57q-84 0 -143.5 27.5zM220 -202l35 148h139l-72 -148h-102z" />
    <glyph glyph-name="uni0219" unicode="&#x219;" horiz-adv-x="473" 
d="M86.5 26q-52.5 42 -64.5 100l107 33q8 -34 35.5 -58.5t76.5 -24.5q37 0 56 15t19 40q0 21 -14 33.5t-35 19.5t-62 16q-77 18 -122 48.5t-45 98.5q0 69 52 110t142 41q88 0 140 -37.5t70 -86.5l-102 -38q-13 29 -41 50t-68 21q-32 0 -49.5 -14t-17.5 -36q0 -21 15 -33
t32.5 -17t64.5 -16q74 -17 120 -49t46 -101q0 -68 -51 -112.5t-152 -44.5q-100 0 -152.5 42zM146 -206l35 148h139l-72 -148h-102z" />
    <glyph glyph-name="uni021A" unicode="&#x21a;" horiz-adv-x="623" 
d="M247 0v599h-223v116h575v-116h-224v-599h-128zM210 -206l35 148h139l-72 -148h-102z" />
    <glyph glyph-name="uni021B" unicode="&#x21b;" horiz-adv-x="384" 
d="M152.5 19q-36.5 33 -36.5 84v280h-92v98h58q18 0 26 8.5t8 26.5v96l122 26v-157h115v-98h-115v-254q0 -41 44 -41q26 0 48 11l25 -91q-46 -22 -99 -22q-67 0 -103.5 33zM120 -205l35 148h139l-72 -148h-102z" />
    <glyph glyph-name="uni0237" unicode="&#x237;" horiz-adv-x="247" 
d="M-28 -201l11 102q18 -3 33 -3q38 0 48.5 19.5t10.5 47.5v516h123v-506q0 -85 -45 -133t-126 -48q-34 0 -55 5z" />
    <glyph glyph-name="circumflex" unicode="&#x2c6;" horiz-adv-x="490" 
d="M75 578l101 147h144l94 -147h-117l-51 74l-53 -74h-118z" />
    <glyph glyph-name="caron" unicode="&#x2c7;" horiz-adv-x="491" 
d="M177 578l-102 147h118l53 -75l53 75h117l-96 -147h-143z" />
    <glyph glyph-name="breve" unicode="&#x2d8;" horiz-adv-x="470" 
d="M152.5 594.5q-36.5 19.5 -57 53.5t-20.5 77h104q0 -28 16 -46t41 -18q24 0 39.5 18.5t15.5 45.5h103q0 -41 -19.5 -75.5t-56 -54.5t-83.5 -20q-46 0 -82.5 19.5z" />
    <glyph glyph-name="dotaccent" unicode="&#x2d9;" horiz-adv-x="313" 
d="M98 607.5q-23 21.5 -23 53.5t23 54t59 22q35 0 58 -22t23 -54t-23 -53.5t-58 -21.5q-36 0 -59 21.5z" />
    <glyph glyph-name="ring" unicode="&#x2da;" horiz-adv-x="393" 
d="M109.5 597.5q-34.5 33.5 -34.5 84.5q0 50 35 83.5t87 33.5q51 0 85.5 -33t34.5 -84q0 -52 -33.5 -85t-86.5 -33t-87.5 33.5zM232.5 643q15.5 15 15.5 39q0 23 -15.5 37.5t-35.5 14.5q-22 0 -37.5 -14.5t-15.5 -37.5q0 -24 16 -39t37 -15q20 0 35.5 15z" />
    <glyph glyph-name="ogonek" unicode="&#x2db;" horiz-adv-x="354" 
d="M105.5 -195.5q-30.5 26.5 -30.5 66.5q0 33 22 64.5t68 64.5h73q-35 -31 -50 -57t-15 -44q0 -14 10 -25t29 -11q16 0 28 7t28 22l10 -77q-11 -15 -36.5 -26t-57.5 -11q-48 0 -78.5 26.5z" />
    <glyph glyph-name="tilde" unicode="&#x2dc;" horiz-adv-x="536" 
d="M75 615q20 54 50 80t73 26q25 0 40.5 -6.5t35.5 -19.5q33 -22 54 -22q18 0 33.5 11.5t24.5 34.5l75 -26q-38 -112 -120 -112q-22 0 -39 7t-28 13.5t-14 8.5q-33 20 -54 20q-35 0 -58 -49z" />
    <glyph glyph-name="hungarumlaut" unicode="&#x2dd;" horiz-adv-x="556" 
d="M263 579l75 146h143l-117 -146h-101zM75 579l74 146h142l-114 -146h-102z" />
    <glyph glyph-name="uni03A9" unicode="&#x3a9;" horiz-adv-x="807" 
d="M67 102h138v3q-50 34 -96 104.5t-46 173.5q0 94 43.5 172t121.5 124t177 46q98 0 175 -45t120.5 -123t43.5 -172q0 -106 -46.5 -175t-99.5 -105v-3h142v-102h-296v100q71 41 120 106t49 171q0 73 -26.5 127.5t-74.5 84t-109 29.5t-108 -29t-74 -82.5t-27 -125.5
q0 -105 51.5 -175.5t117.5 -103.5v-102h-296v102z" />
    <glyph glyph-name="pi" unicode="&#x3c0;" horiz-adv-x="693" 
d="M162 0v372h-99v109h566v-109h-103v-372h-107v372h-148v-372h-109z" />
    <glyph glyph-name="Wgrave" unicode="&#x1e80;" horiz-adv-x="1022" 
d="M234 0l-215 715h131l151 -512h2l152 512h114l150 -510h2l151 510h131l-215 -715h-125l-151 516h-2l-151 -516h-125zM470 749l-121 146h156l78 -146h-113z" />
    <glyph glyph-name="wgrave" unicode="&#x1e81;" horiz-adv-x="749" 
d="M173 0l-155 481h127l90 -311l92 311h95l91 -311l91 311h127l-155 -481h-108l-94 311l-92 -311h-109zM334 540l-121 146h156l78 -146h-113z" />
    <glyph glyph-name="Wacute" unicode="&#x1e82;" horiz-adv-x="1022" 
d="M234 0l-215 715h131l151 -512h2l152 512h114l150 -510h2l151 510h131l-215 -715h-125l-151 516h-2l-151 -516h-125zM451 749l78 146h156l-121 -146h-113z" />
    <glyph glyph-name="wacute" unicode="&#x1e83;" horiz-adv-x="749" 
d="M173 0l-155 481h127l90 -311l92 311h95l91 -311l91 311h127l-155 -481h-108l-94 311l-92 -311h-109zM315 540l78 146h156l-121 -146h-113z" />
    <glyph glyph-name="Wdieresis" unicode="&#x1e84;" horiz-adv-x="1022" 
d="M234 0l-215 715h131l151 -512h2l152 512h114l150 -510h2l151 510h131l-215 -715h-125l-151 516h-2l-151 -516h-125zM354 779.5q-24 20.5 -24 50.5t24 51.5t55 21.5q33 0 56.5 -22t23.5 -51t-23.5 -50t-55.5 -21t-56 20.5zM557 780q-23 21 -23 50q0 30 23 51.5t55 21.5
q33 0 57 -21.5t24 -51.5q0 -29 -24 -50t-57 -21q-32 0 -55 21z" />
    <glyph glyph-name="wdieresis" unicode="&#x1e85;" horiz-adv-x="749" 
d="M173 0l-155 481h127l90 -311l92 311h95l91 -311l91 311h127l-155 -481h-108l-94 311l-92 -311h-109zM218 570.5q-24 20.5 -24 50.5t24 51.5t55 21.5q33 0 56.5 -22t23.5 -51t-23.5 -50t-55.5 -21t-56 20.5zM421 571q-23 21 -23 50q0 30 23 51.5t55 21.5q33 0 57 -21.5
t24 -51.5q0 -29 -24 -50t-57 -21q-32 0 -55 21z" />
    <glyph glyph-name="uni1E8A" unicode="&#x1e8a;" horiz-adv-x="715" 
d="M25 0l249 359l-244 356h152l181 -268l172 268h152l-247 -355l250 -360h-154l-182 266l-178 -266h-151zM306.5 779.5q-23.5 20.5 -23.5 51.5t23.5 53.5t56.5 22.5q32 0 56 -22t24 -52q0 -31 -23 -52.5t-57 -21.5q-33 0 -56.5 20.5z" />
    <glyph glyph-name="uni1E8B" unicode="&#x1e8b;" horiz-adv-x="542" 
d="M19 0l178 245l-169 236h145l99 -149h2l98 149h140l-165 -232l176 -249h-142l-109 162h-2l-110 -162h-141zM214 568.5q-23 21.5 -23 53.5t23 54t59 22q35 0 58 -22t23 -54t-23 -53.5t-58 -21.5q-36 0 -59 21.5z" />
    <glyph glyph-name="Ygrave" unicode="&#x1ef2;" horiz-adv-x="667" 
d="M270 0v265l-261 450h146l182 -323l181 323h140l-261 -450v-265h-127zM294 749l-121 146h156l78 -146h-113z" />
    <glyph glyph-name="ygrave" unicode="&#x1ef3;" horiz-adv-x="515" 
d="M32 -193l7 101h76q39 0 57.5 28t21.5 66l-176 479h126l113 -351l116 351h124l-178 -480q-21 -58 -44 -98t-69.5 -70t-119.5 -30q-26 0 -54 4zM224 540l-121 146h156l78 -146h-113z" />
    <glyph glyph-name="endash" unicode="&#x2013;" horiz-adv-x="680" 
d="M63 206v117h554v-117h-554z" />
    <glyph glyph-name="emdash" unicode="&#x2014;" horiz-adv-x="979" 
d="M63 205v119h853v-119h-853z" />
    <glyph glyph-name="quoteleft" unicode="&#x2018;" horiz-adv-x="250" 
d="M67.5 488q-18.5 28 -18.5 76q0 46 15.5 82.5t43 56.5t60.5 20q14 0 23 -2l-2 -66q-29 0 -42.5 -10.5t-17.5 -35.5q32 -3 52 -24t20 -50q0 -31 -21.5 -53t-56.5 -22q-37 0 -55.5 28z" />
    <glyph glyph-name="quoteright" unicode="&#x2019;" horiz-adv-x="250" 
d="M58 461l2 67q30 0 43.5 10.5t17.5 35.5q-33 3 -52.5 23.5t-19.5 47.5q0 33 21.5 55.5t55.5 22.5q38 0 56.5 -28.5t18.5 -77.5q0 -71 -35.5 -114t-90.5 -43q-1 0 -17 1z" />
    <glyph glyph-name="quotesinglbase" unicode="&#x201a;" horiz-adv-x="270" 
d="M65 -116l3 73q32 0 46 10.5t19 36.5q-36 4 -57.5 27t-21.5 55q0 34 23.5 58t61.5 24q43 0 63 -31t20 -85q0 -80 -39.5 -125t-97.5 -45q-11 0 -20 2z" />
    <glyph glyph-name="quotedblleft" unicode="&#x201c;" horiz-adv-x="435" 
d="M252 488q-18 28 -18 77q0 68 33.5 113t94.5 45l15 -2l-3 -66q-29 0 -42.5 -10.5t-17.5 -35.5q32 -3 52 -24t20 -50q0 -31 -21.5 -53t-56.5 -22q-38 0 -56 28zM67.5 488q-18.5 28 -18.5 76q0 46 15.5 82.5t43 56.5t60.5 20q14 0 23 -2l-2 -66q-29 0 -42.5 -10.5
t-17.5 -35.5q32 -3 52 -24t20 -50q0 -31 -21.5 -53t-56.5 -22q-37 0 -55.5 28z" />
    <glyph glyph-name="quotedblright" unicode="&#x201d;" horiz-adv-x="435" 
d="M58 461l2 67q30 0 43.5 10.5t17.5 35.5q-33 3 -52.5 23.5t-19.5 47.5q0 33 21.5 55.5t55.5 22.5q38 0 56.5 -28.5t18.5 -77.5q0 -71 -35.5 -114t-90.5 -43q-1 0 -17 1zM243 461l2 67q30 0 43.5 10.5t17.5 35.5q-33 3 -52.5 23.5t-19.5 47.5q0 33 21.5 55.5t55.5 22.5
q38 0 56.5 -28.5t18.5 -77.5q0 -71 -35.5 -114t-90.5 -43q-1 0 -17 1z" />
    <glyph glyph-name="quotedblbase" unicode="&#x201e;" horiz-adv-x="470" 
d="M265 -116l3 73q32 0 46 10.5t19 36.5q-36 4 -57.5 27t-21.5 55q0 34 23.5 58t61.5 24q43 0 63 -31t20 -85q0 -80 -39.5 -125t-97.5 -45q-11 0 -20 2zM65 -116l3 73q32 0 46 10.5t19 36.5q-36 4 -57.5 27t-21.5 55q0 34 23.5 58t61.5 24q43 0 63 -31t20 -85
q0 -80 -39.5 -125t-97.5 -45q-11 0 -20 2z" />
    <glyph glyph-name="dagger" unicode="&#x2020;" horiz-adv-x="528" 
d="M221 146v341h-158v97h158v141h87v-141h157v-97h-157v-341h-87z" />
    <glyph glyph-name="daggerdbl" unicode="&#x2021;" horiz-adv-x="528" 
d="M221 146v155h-158v97h158v89h-158v97h158v141h87v-141h157v-97h-157v-89h157v-97h-157v-155h-87z" />
    <glyph glyph-name="bullet" unicode="&#x2022;" horiz-adv-x="405" 
d="M130.5 184.5q-31.5 18.5 -49 49t-17.5 65.5q0 36 18.5 66t50.5 48t72 18t71 -18t48.5 -48.5t17.5 -66.5t-18 -66.5t-50 -48t-71 -17.5q-41 0 -72.5 18.5z" />
    <glyph glyph-name="ellipsis" unicode="&#x2026;" horiz-adv-x="880" 
d="M377.5 13q-24.5 26 -24.5 64q0 39 24 65t65 26q40 0 65 -26t25 -65q0 -38 -25 -64t-65 -26t-64.5 26zM672.5 13q-24.5 26 -24.5 64q0 39 24 65t65 26q40 0 65 -26t25 -65q0 -38 -25 -64t-65 -26t-64.5 26zM83.5 13q-24.5 26 -24.5 64q0 39 24 65t65 26q40 0 65 -26
t25 -65q0 -38 -25 -64t-65 -26t-64.5 26z" />
    <glyph glyph-name="perthousand" unicode="&#x2030;" horiz-adv-x="1242" 
d="M318 -19l-91 54l426 702l91 -53zM158.5 368.5q-44.5 25.5 -70 69.5t-25.5 97q0 51 25 94.5t69.5 69t101.5 25.5q56 0 99.5 -25.5t67.5 -68.5t24 -95t-24 -96t-67.5 -70t-99.5 -26t-100.5 25.5zM317 471q23 26 23 63t-23 62.5t-58 25.5q-37 0 -60.5 -25t-23.5 -63
q0 -39 23.5 -64t59.5 -25t59 26zM773 114q23 26 23 63t-23 63t-59 26t-59.5 -25.5t-23.5 -63.5t23.5 -63.5t59.5 -25.5t59 26zM611.5 12q-43.5 26 -68 70t-24.5 96q0 51 24.5 94.5t68 69.5t98.5 26q46 0 81.5 -19t58.5 -52q52 71 141 71q55 0 97.5 -25.5t66.5 -69.5t24 -95
t-24 -95.5t-66.5 -70.5t-96.5 -26q-47 0 -83 19.5t-59 52.5q-51 -72 -140 -72q-55 0 -98.5 26zM1046 114q23 26 23 63t-23 63t-59 26q-35 0 -59 -25t-24 -64q0 -38 24 -63.5t60 -25.5q35 0 58 26z" />
    <glyph glyph-name="guilsinglleft" unicode="&#x2039;" horiz-adv-x="348" 
d="M172 53l-118 200v11l118 191h123l-116 -196l116 -206h-123z" />
    <glyph glyph-name="guilsinglright" unicode="&#x203a;" horiz-adv-x="348" 
d="M53 53l116 206l-116 196h124l117 -191v-11l-117 -200h-124z" />
    <glyph glyph-name="fraction" unicode="&#x2044;" horiz-adv-x="207" 
d="M-81 -20l-64 39l434 719l63 -38z" />
    <glyph glyph-name="Euro" unicode="&#x20ac;" horiz-adv-x="788" 
d="M288.5 49q-80.5 63 -107.5 186h-137v87h125q-1 11 -1 33q0 20 1 29h-99v88h110q27 122 107 185.5t183 63.5q116 0 184 -71.5t89 -169.5l-117 -35q-12 70 -51.5 120.5t-107.5 50.5q-56 0 -100 -36.5t-64 -107.5h269l-26 -88h-256q-1 -9 -1 -29q0 -22 1 -33h250l-26 -87
h-209q21 -70 65.5 -107t102.5 -37q68 0 105 45.5t46 108.5l116 -23q-10 -58 -40.5 -111.5t-87 -89t-138.5 -35.5q-105 0 -185.5 63z" />
    <glyph glyph-name="uni2113" unicode="&#x2113;" horiz-adv-x="559" 
d="M214.5 22q-46.5 39 -46.5 105v34q-35 -15 -76 -26l-29 90q24 6 55 17.5t49 20.5v260q0 88 37.5 140t122.5 52t126.5 -50.5t41.5 -127.5q0 -64 -28.5 -128.5t-79.5 -119t-116 -88.5v-36q0 -40 20 -61.5t59 -21.5q31 0 54.5 12t35.5 25l27 -88q-50 -48 -132 -48
q-74 0 -120.5 39zM335 370.5q28 37.5 43 79.5t15 75q0 35 -15 61.5t-48 26.5q-59 0 -59 -91v-211q36 22 64 59.5z" />
    <glyph glyph-name="uni2116" unicode="&#x2116;" horiz-adv-x="1131" 
d="M63 0v715h141l322 -521h2v521h126v-715h-139l-325 523h-1v-523h-126zM751 180v116h302v-116h-302zM790 435.5q-46 43.5 -46 123.5q0 55 22.5 93.5t59 58t79.5 19.5t80 -19t60 -57t23 -92q0 -53 -22.5 -91.5t-60 -58.5t-81.5 -20q-68 0 -114 43.5zM948.5 505
q17.5 20 17.5 56q0 37 -18 56.5t-43 19.5q-24 0 -42 -20t-18 -57q0 -35 17.5 -55t43.5 -20q25 0 42.5 20z" />
    <glyph glyph-name="trademark" unicode="&#x2122;" horiz-adv-x="962" 
d="M452 280v434h92l133 -199l130 199h91v-434h-83v303h-2l-129 -189h-20l-127 189h-1v-303h-84zM196 280v358h-133v76h351v-76h-133v-358h-85z" />
    <glyph glyph-name="estimated" unicode="&#x212e;" horiz-adv-x="842" 
d="M233.5 39q-84.5 50 -127.5 134t-43 184q0 106 46 190t128.5 131t188.5 47q102 0 182 -44.5t125 -124t45 -180.5v-16h-579v-235q89 -95 236 -95q97 0 161 38t101 102l48 -6q-51 -88 -126 -131.5t-182 -43.5q-119 0 -203.5 50zM648 402v194q-44 43 -102 65.5t-123 22.5
q-68 0 -124.5 -24.5t-99.5 -68.5v-189h449z" />
    <glyph glyph-name="oneeighth" unicode="&#x215b;" horiz-adv-x="924" 
d="M140 619q-11 -18 -32 -28t-42 -10h-23v82h15q34 0 57.5 20t28.5 51h84v-426h-88v311zM224 -20l-64 39l434 719l63 -38zM594 29.5q-44 37.5 -44 95.5q0 76 76 111v1q-26 14 -42 36.5t-16 53.5q0 47 39 77t110 30t110 -29.5t39 -76.5q0 -31 -16.5 -54t-42.5 -35
q76 -40 76 -114q0 -60 -46 -96.5t-122 -36.5q-77 0 -121 37.5zM774 89.5q19 19.5 19 46.5q0 29 -20 48t-56 19t-56 -19t-20 -48q0 -28 19.5 -47t55.5 -19q39 0 58 19.5zM761 282.5q16 14.5 16 38.5q0 22 -15.5 35t-44.5 13q-30 0 -45.5 -13.5t-15.5 -35.5q0 -24 16.5 -38
t44.5 -14t44 14.5z" />
    <glyph glyph-name="threeeighths" unicode="&#x215c;" horiz-adv-x="1000" 
d="M80 339q-40 38 -45 91l93 11q1 -28 18.5 -48.5t56.5 -20.5q31 0 49.5 15.5t18.5 42.5q0 34 -29.5 51.5t-76.5 15.5v64q43 1 67 16.5t24 42.5q0 21 -15 35.5t-41 14.5q-36 0 -53 -21t-19 -51l-82 11q2 55 38.5 94t113.5 39q69 0 109 -31.5t40 -77.5q0 -37 -25 -64t-53 -33
v-1q93 -22 93 -107q0 -58 -44.5 -92.5t-118.5 -34.5q-79 0 -119 38zM300 -20l-64 39l434 719l63 -38zM670 29.5q-44 37.5 -44 95.5q0 76 76 111v1q-26 14 -42 36.5t-16 53.5q0 47 39 77t110 30t110 -29.5t39 -76.5q0 -31 -16.5 -54t-42.5 -35q76 -40 76 -114
q0 -60 -46 -96.5t-122 -36.5q-77 0 -121 37.5zM850 89.5q19 19.5 19 46.5q0 29 -20 48t-56 19t-56 -19t-20 -48q0 -28 19.5 -47t55.5 -19q39 0 58 19.5zM837 282.5q16 14.5 16 38.5q0 22 -15.5 35t-44.5 13q-30 0 -45.5 -13.5t-15.5 -35.5q0 -24 16.5 -38t44.5 -14t44 14.5z
" />
    <glyph glyph-name="fiveeighths" unicode="&#x215d;" horiz-adv-x="1002" 
d="M89 337q-40 36 -50 87l90 11q4 -24 22.5 -41t50.5 -17q34 0 53 19.5t19 55.5q0 37 -19 55.5t-52 18.5q-26 0 -43.5 -13t-25.5 -33l-85 19l27 235h265v-76h-188l-12 -87q17 13 36 20t46 7q60 0 100.5 -36t40.5 -106q0 -73 -46 -114t-118 -41q-71 0 -111 36zM302 -20
l-64 39l434 719l63 -38zM672 29.5q-44 37.5 -44 95.5q0 76 76 111v1q-26 14 -42 36.5t-16 53.5q0 47 39 77t110 30t110 -29.5t39 -76.5q0 -31 -16.5 -54t-42.5 -35q76 -40 76 -114q0 -60 -46 -96.5t-122 -36.5q-77 0 -121 37.5zM852 89.5q19 19.5 19 46.5q0 29 -20 48
t-56 19t-56 -19t-20 -48q0 -28 19.5 -47t55.5 -19q39 0 58 19.5zM839 282.5q16 14.5 16 38.5q0 22 -15.5 35t-44.5 13q-30 0 -45.5 -13.5t-15.5 -35.5q0 -24 16.5 -38t44.5 -14t44 14.5z" />
    <glyph glyph-name="seveneighths" unicode="&#x215e;" horiz-adv-x="913" 
d="M133.5 494.5q36.5 83.5 117.5 159.5h-216v80h298v-75q-71 -76 -108 -162.5t-46 -188.5h-92q10 103 46.5 186.5zM213 -20l-64 39l434 719l63 -38zM583 29.5q-44 37.5 -44 95.5q0 76 76 111v1q-26 14 -42 36.5t-16 53.5q0 47 39 77t110 30t110 -29.5t39 -76.5
q0 -31 -16.5 -54t-42.5 -35q76 -40 76 -114q0 -60 -46 -96.5t-122 -36.5q-77 0 -121 37.5zM763 89.5q19 19.5 19 46.5q0 29 -20 48t-56 19t-56 -19t-20 -48q0 -28 19.5 -47t55.5 -19q39 0 58 19.5zM750 282.5q16 14.5 16 38.5q0 22 -15.5 35t-44.5 13q-30 0 -45.5 -13.5
t-15.5 -35.5q0 -24 16.5 -38t44.5 -14t44 14.5z" />
    <glyph glyph-name="arrowleft" unicode="&#x2190;" horiz-adv-x="750" 
d="M316 30l-242 247v48l242 246l62 -59l-163 -162h472v-97h-474l165 -163z" />
    <glyph glyph-name="arrowup" unicode="&#x2191;" horiz-adv-x="675" 
d="M290 6v473l-163 -165l-60 62l247 242h47l247 -242l-60 -62l-162 164v-472h-96z" />
    <glyph glyph-name="arrowright" unicode="&#x2192;" horiz-adv-x="750" 
d="M434 30l-62 60l164 162h-473v97h474l-165 163l62 60l242 -247v-48z" />
    <glyph glyph-name="arrowdown" unicode="&#x2193;" horiz-adv-x="675" 
d="M314 18l-247 242l60 62l162 -164v472h96v-473l163 165l60 -62l-247 -242h-47z" />
    <glyph glyph-name="uni2196" unicode="&#x2196;" horiz-adv-x="627" 
d="M494 66l-335 334l1 -232l-86 2l3 346l17 17h1l16 16l346 3l2 -86l-231 2l334 -334z" />
    <glyph glyph-name="uni2197" unicode="&#x2197;" horiz-adv-x="626" 
d="M133 66l-68 68l335 335l-233 -2l2 86l346 -3l17 -16l17 -17l3 -346l-86 -2l1 231z" />
    <glyph glyph-name="uni2198" unicode="&#x2198;" horiz-adv-x="627" 
d="M170 60l-2 86l231 -1l-334 334l68 68l335 -335l-2 233l87 -2l-4 -346l-16 -16v-1l-17 -17z" />
    <glyph glyph-name="uni2199" unicode="&#x2199;" horiz-adv-x="626" 
d="M457 59l-346 3l-34 34l-3 346l86 1l-1 -230l334 334l68 -68l-336 -336l234 2z" />
    <glyph glyph-name="partialdiff" unicode="&#x2202;" horiz-adv-x="640" 
d="M175 7.5q-54 30.5 -86 88.5t-32 139q0 87 36.5 149t93.5 93.5t118 31.5q46 0 80.5 -17.5t56.5 -44.5q-6 54 -32 98.5t-65 70t-83 25.5q-34 0 -67.5 -16t-60.5 -50l-38 91q39 43 83 65t99 22q87 0 156.5 -52.5t108.5 -144t39 -202.5t-39 -197t-105 -133t-145 -47
q-64 0 -118 30.5zM371.5 122.5q32.5 24.5 51 64.5t18.5 84q0 57 -31.5 91t-80.5 34q-37 0 -69.5 -19t-52.5 -55.5t-20 -85.5q0 -64 32.5 -101t80.5 -37q39 0 71.5 24.5z" />
    <glyph glyph-name="emptyset" unicode="&#x2205;" horiz-adv-x="716" 
d="M114 44l34 40q-39 38 -60.5 87.5t-21.5 105.5q0 77 39 140.5t106.5 100t147.5 36.5q84 0 155 -41l34 40l53 -45l-32 -38q38 -38 59.5 -87.5t21.5 -105.5q0 -75 -39 -138t-106 -100t-147 -37q-84 0 -155 41l-36 -43zM458 448q-45 24 -99 24q-58 0 -104 -26t-72 -70.5
t-26 -98.5q0 -74 47 -127zM462.5 110.5q45.5 25.5 71 69.5t25.5 97q0 36 -12 69t-34 59l-254 -297q44 -23 100 -23q58 0 103.5 25.5z" />
    <glyph glyph-name="uni2206" unicode="&#x2206;" horiz-adv-x="827" 
d="M37 0l297 715h165l291 -715h-753zM234 128h361l-183 449z" />
    <glyph glyph-name="product" unicode="&#x220f;" horiz-adv-x="766" 
d="M168 -87v669h-142v116h714v-116h-143v-669h-113v669h-203v-669h-113z" />
    <glyph glyph-name="summation" unicode="&#x2211;" horiz-adv-x="661" 
d="M57 -86v110l243 288l-231 279v107h535v-117h-376l230 -269l-246 -282h392v-116h-547z" />
    <glyph glyph-name="minus" unicode="&#x2212;" horiz-adv-x="564" 
d="M53 265v99h457v-99h-457z" />
    <glyph glyph-name="radical" unicode="&#x221a;" horiz-adv-x="763" 
d="M347 -127l-202 512h-119v98h207l177 -478l232 826h114l-275 -958h-134z" />
    <glyph glyph-name="infinity" unicode="&#x221e;" horiz-adv-x="813" 
d="M142 184.5q-41 22.5 -65 62.5t-24 89q0 47 22.5 87t63.5 63t92 23q54 0 92.5 -27t83.5 -82q36 50 78.5 79.5t97.5 29.5q48 0 88.5 -24t64 -64.5t23.5 -89.5q0 -46 -22 -85t-62 -61.5t-93 -22.5q-56 0 -96 27t-80 82q-41 -55 -81 -82t-93 -27q-49 0 -90 22.5zM292 276.5
q25 20.5 54 57.5q-33 41 -58.5 61t-55.5 20q-32 0 -53.5 -22.5t-21.5 -57.5t21.5 -57t55.5 -22q33 0 58 20.5zM633.5 278q22.5 22 22.5 57t-22.5 57.5t-54.5 22.5q-31 0 -57 -20.5t-57 -58.5q31 -40 55.5 -60t55.5 -20q35 0 57.5 22z" />
    <glyph glyph-name="integral" unicode="&#x222b;" horiz-adv-x="381" 
d="M-33 -197l21 107q21 -6 42 -6q52 0 77.5 39t25.5 111v548q0 131 57.5 193.5t155.5 62.5q40 0 68 -10l-18 -109q-24 6 -45 6q-103 0 -103 -145v-552q0 -135 -58 -196t-154 -61q-45 0 -69 12z" />
    <glyph glyph-name="approxequal" unicode="&#x2248;" horiz-adv-x="621" 
d="M362 331q-28 12 -63 33q-33 19 -52 28t-40 9q-45 0 -85 -47l-69 62q26 48 65.5 75t88.5 27q35 0 63.5 -12t67.5 -35q30 -17 47 -25t35 -8q41 0 78 43l69 -61q-22 -46 -61 -73.5t-85 -27.5q-31 0 -59 12zM362 123q-28 12 -63 33q-33 19 -52 28t-40 9q-45 0 -85 -47l-69 62
q26 48 65.5 75t88.5 27q35 0 63.5 -12t67.5 -35q30 -17 47 -25t35 -8q41 0 78 43l69 -61q-22 -46 -61 -73.5t-85 -27.5q-31 0 -59 12z" />
    <glyph glyph-name="notequal" unicode="&#x2260;" horiz-adv-x="571" 
d="M77 69l62 94h-82v100h148l61 92h-209v101h276l55 83h105l-55 -83h75v-101h-143l-61 -92h204v-100h-270l-63 -94h-103z" />
    <glyph glyph-name="lessequal" unicode="&#x2264;" horiz-adv-x="577" 
d="M523 185l-470 146v109l470 150v-118l-329 -85l329 -84v-118zM53 42v103h470v-103h-470z" />
    <glyph glyph-name="greaterequal" unicode="&#x2265;" horiz-adv-x="579" 
d="M53 185v119l338 83l-337 85v118l472 -150v-110zM53 40v102h473v-102h-473z" />
    <glyph glyph-name="filledbox" unicode="&#x25a0;" horiz-adv-x="834" 
d="M63 0v713h708v-713h-708z" />
    <glyph glyph-name="uni25A1" unicode="&#x25a1;" horiz-adv-x="834" 
d="M63 0v713h708v-713h-708zM138 72h557v570h-557v-570z" />
    <glyph glyph-name="triagup" unicode="&#x25b2;" horiz-adv-x="903" 
d="M33 0l420 728l417 -728h-837z" />
    <glyph glyph-name="uni25B3" unicode="&#x25b3;" horiz-adv-x="891" 
d="M33 0l412 720l412 -720h-824zM170 84h547l-273 485z" />
    <glyph glyph-name="lozenge" unicode="&#x25ca;" horiz-adv-x="756" 
d="M346 0l-289 359l289 356h65l287 -356l-287 -359h-65zM378 88l225 271l-224 269l-224 -269z" />
    <glyph glyph-name="circle" unicode="&#x25cb;" horiz-adv-x="826" 
d="M222 32q-87 49 -137 134.5t-50 189.5t49.5 190t135.5 136t192 50t192.5 -50t136.5 -136.5t50 -190.5t-49.5 -189t-136 -134t-191.5 -49t-192 49zM564 100q67 39 105 106.5t38 147.5q0 82 -38.5 150.5t-106 109t-149.5 40.5t-149.5 -40t-106 -108.5t-38.5 -149.5
t38 -148.5t105 -107t151 -39.5t151 39z" />
    <glyph glyph-name="uni25CF" unicode="&#x25cf;" horiz-adv-x="826" 
d="M222.5 33q-86.5 50 -137 136t-50.5 189t50.5 189t137 135.5t189.5 49.5q104 0 191 -49.5t137.5 -135.5t50.5 -189q0 -104 -50.5 -190t-137 -135.5t-190.5 -49.5t-190.5 50z" />
    <glyph glyph-name="uni2605" unicode="&#x2605;" horiz-adv-x="835" 
d="M661 -21l-244 177l-244 -175l94 285l-244 177h301l93 285l93 -285h302l-244 -177z" />
    <glyph glyph-name="uni2611" unicode="&#x2611;" horiz-adv-x="764" 
d="M63 0v713h708v-713h-708zM138 72h557v570h-557v-570zM399 199l-213 220l62 66l149 -155l198 237l66 -57z" />
    <glyph glyph-name="uni2612" unicode="&#x2612;" horiz-adv-x="834" 
d="M63 0v713h708v-713h-708zM138 72h557v570h-557v-570zM561 166l-140 141l-141 -140l-56 56l140 143l-140 139l57 56l140 -139l142 139l57 -56l-142 -141l142 -142z" />
    <glyph glyph-name="uni2713" unicode="&#x2713;" horiz-adv-x="926" 
d="M349 -16l-286 319l67 66l221 -250h1l449 541l62 -67l-513 -609h-1z" />
    <glyph glyph-name="uni2715" unicode="&#x2715;" horiz-adv-x="822" 
d="M703 7l-293 293l-291 -292l-56 55l290 295l-289 288l55 54l291 -288l286 288l55 -54l-286 -289l293 -295z" />
    <glyph glyph-name="uni2780" unicode="&#x2780;" horiz-adv-x="808" 
d="M212.5 32q-87.5 49 -137.5 134.5t-50 189.5t49.5 190t136 136t192.5 50t192.5 -50t136.5 -136.5t50 -190.5t-49.5 -189t-136 -134t-191.5 -49t-192.5 49zM378 459q-9 -17 -28 -26t-39 -9h-21v71h14q31 0 52.5 18.5t25.5 47.5h73v-391h-77v289zM555 100q67 39 105 106.5
t38 147.5q0 82 -38.5 150.5t-106 109t-149.5 40.5t-149.5 -40t-106 -108.5t-38.5 -149.5t38 -148.5t105 -107t151 -39.5t151 39z" />
    <glyph glyph-name="uni2781" unicode="&#x2781;" horiz-adv-x="808" 
d="M212.5 32q-87.5 49 -137.5 134.5t-50 189.5t49.5 190t136 136t192.5 50t192.5 -50t136.5 -136.5t50 -190.5t-49.5 -189t-136 -134t-191.5 -49t-192.5 49zM555 100q67 39 105 106.5t38 147.5q0 82 -38.5 150.5t-106 109t-149.5 40.5t-149.5 -40t-106 -108.5t-38.5 -149.5
t38 -148.5t105 -107t151 -39.5t151 39zM274 223q102 83 143.5 133.5t41.5 90.5q0 25 -13.5 40.5t-39.5 15.5q-36 0 -52.5 -27.5t-16.5 -64.5l-70 20q5 55 39.5 95.5t102.5 40.5q61 0 94.5 -32.5t33.5 -81.5q0 -52 -39.5 -105t-111.5 -109h152v-70h-264v54z" />
    <glyph glyph-name="uni2782" unicode="&#x2782;" horiz-adv-x="808" 
d="M212.5 32q-87.5 49 -137.5 134.5t-50 189.5t49.5 190t136 136t192.5 50t192.5 -50t136.5 -136.5t50 -190.5t-49.5 -189t-136 -134t-191.5 -49t-192.5 49zM555 100q67 39 105 106.5t38 147.5q0 82 -38.5 150.5t-106 109t-149.5 40.5t-149.5 -40t-106 -108.5t-38.5 -149.5
t38 -148.5t105 -107t151 -39.5t151 39zM296 197q-36 35 -40 83l81 9q1 -26 17.5 -45.5t53.5 -19.5q30 0 47.5 15.5t17.5 41.5q0 32 -28 48.5t-71 14.5v56q40 2 63 16t23 40q0 20 -14.5 34t-40.5 14q-34 0 -50 -20.5t-17 -46.5l-71 9q1 50 34.5 85.5t103.5 35.5q60 0 96 -29
t36 -71q0 -34 -22.5 -58.5t-48.5 -30.5v-1q36 -7 61 -30t25 -67q0 -54 -40.5 -86t-107.5 -32q-72 0 -108 35z" />
    <glyph glyph-name="uni2783" unicode="&#x2783;" horiz-adv-x="808" 
d="M212.5 32q-87.5 49 -137.5 134.5t-50 189.5t49.5 190t136 136t192.5 50t192.5 -50t136.5 -136.5t50 -190.5t-49.5 -189t-136 -134t-191.5 -49t-192.5 49zM309 314h113v162zM420 170v84h-184v56l175 251h86v-247h58v-60h-58v-84h-77zM555 100q67 39 105 106.5t38 147.5
q0 82 -38.5 150.5t-106 109t-149.5 40.5t-149.5 -40t-106 -108.5t-38.5 -149.5t38 -148.5t105 -107t151 -39.5t151 39z" />
    <glyph glyph-name="uni2784" unicode="&#x2784;" horiz-adv-x="808" 
d="M212.5 32q-87.5 49 -137.5 134.5t-50 189.5t49.5 190t136 136t192.5 50t192.5 -50t136.5 -136.5t50 -190.5t-49.5 -189t-136 -134t-191.5 -49t-192.5 49zM555 100q67 39 105 106.5t38 147.5q0 82 -38.5 150.5t-106 109t-149.5 40.5t-149.5 -40t-106 -108.5t-38.5 -149.5
t38 -148.5t105 -107t151 -39.5t151 39zM302.5 194q-35.5 33 -45.5 79l79 10q3 -23 20.5 -39.5t47.5 -16.5q33 0 51 19.5t18 54.5t-17.5 53t-49.5 18q-26 0 -42 -12.5t-23 -30.5l-73 16l23 215h240v-68h-174l-11 -84q31 26 77 26q55 0 92 -34t37 -97q0 -66 -42.5 -104
t-108.5 -38q-63 0 -98.5 33z" />
    <glyph glyph-name="uni2785" unicode="&#x2785;" horiz-adv-x="808" 
d="M212.5 32q-87.5 49 -137.5 134.5t-50 189.5t49.5 190t136 136t192.5 50t192.5 -50t136.5 -136.5t50 -190.5t-49.5 -189t-136 -134t-191.5 -49t-192.5 49zM447 243q18 18 18 46q0 30 -17 48t-50 18q-29 0 -47.5 -15.5t-22.5 -34.5q0 -35 19.5 -57.5t51.5 -22.5q30 0 48 18
zM286 211q-41 50 -41 150q0 103 43 154t115 51q59 0 93 -30t42 -66l-79 -20q-4 22 -19.5 37t-41.5 15q-36 0 -55 -33.5t-17 -91.5q14 18 37.5 29.5t54.5 11.5q56 0 92 -36t36 -90q0 -58 -42 -94.5t-105 -36.5q-72 0 -113 50zM555 100q67 39 105 106.5t38 147.5
q0 82 -38.5 150.5t-106 109t-149.5 40.5t-149.5 -40t-106 -108.5t-38.5 -149.5t38 -148.5t105 -107t151 -39.5t151 39z" />
    <glyph glyph-name="uni2786" unicode="&#x2786;" horiz-adv-x="808" 
d="M212.5 32q-87.5 49 -137.5 134.5t-50 189.5t49.5 190t136 136t192.5 50t192.5 -50t136.5 -136.5t50 -190.5t-49.5 -189t-136 -134t-191.5 -49t-192.5 49zM555 100q67 39 105 106.5t38 147.5q0 82 -38.5 150.5t-106 109t-149.5 40.5t-149.5 -40t-106 -108.5t-38.5 -149.5
t38 -148.5t105 -107t151 -39.5t151 39zM365.5 336q33.5 78 106.5 147h-197v71h269v-66q-66 -72 -100 -151.5t-42 -173.5h-80q10 95 43.5 173z" />
    <glyph glyph-name="uni2787" unicode="&#x2787;" horiz-adv-x="808" 
d="M212.5 32q-87.5 49 -137.5 134.5t-50 189.5t49.5 190t136 136t192.5 50t192.5 -50t136.5 -136.5t50 -190.5t-49.5 -189t-136 -134t-191.5 -49t-192.5 49zM457.5 247q18.5 18 18.5 44q0 28 -19 46.5t-53 18.5q-33 0 -52.5 -18.5t-19.5 -46.5q0 -26 18.5 -44t53.5 -18
t53.5 18zM555 100q67 39 105 106.5t38 147.5q0 82 -38.5 150.5t-106 109t-149.5 40.5t-149.5 -40t-106 -108.5t-38.5 -149.5t38 -148.5t105 -107t151 -39.5t151 39zM293.5 195q-39.5 33 -39.5 87q0 37 19.5 63t50.5 40v1q-23 13 -38 34t-15 49q0 44 35 71t97 27
q64 0 99.5 -27.5t35.5 -70.5q0 -27 -15.5 -48.5t-38.5 -32.5q70 -36 70 -104q0 -53 -41.5 -87.5t-111.5 -34.5q-68 0 -107.5 33zM447 428q16 14 16 36t-15.5 35t-43.5 13t-43 -13.5t-15 -34.5q0 -23 16 -36.5t42 -13.5q27 0 43 14z" />
    <glyph glyph-name="uni2788" unicode="&#x2788;" horiz-adv-x="808" 
d="M212.5 32q-87.5 49 -137.5 134.5t-50 189.5t49.5 190t136 136t192.5 50t192.5 -50t136.5 -136.5t50 -190.5t-49.5 -189t-136 -134t-191.5 -49t-192.5 49zM555 100q67 39 105 106.5t38 147.5q0 82 -38.5 150.5t-106 109t-149.5 40.5t-149.5 -40t-106 -108.5t-38.5 -149.5
t38 -148.5t105 -107t151 -39.5t151 39zM316 190.5q-34 29.5 -43 66.5l79 21q4 -22 19.5 -37t41.5 -15q36 0 55 33t18 92q-32 -41 -93 -41q-56 0 -92 36t-36 89q0 57 41.5 94t107.5 37q72 0 112 -49t40 -149q0 -105 -43 -156t-115 -51q-58 0 -92 29.5zM460.5 388.5
q17.5 15.5 22.5 33.5q0 34 -19.5 57t-52.5 23q-30 0 -47.5 -18t-17.5 -46t17.5 -46.5t49.5 -18.5q30 0 47.5 15.5z" />
    <glyph glyph-name="uni278A" unicode="&#x278a;" horiz-adv-x="808" 
d="M212.5 33q-86.5 50 -137 136t-50.5 189t50.5 189t137 135.5t190.5 49.5t191 -49.5t137.5 -135.5t50.5 -189t-50.5 -189t-137.5 -136t-191 -50t-190.5 50zM454 170v391h-72q-5 -29 -26 -47.5t-52 -18.5h-15v-71h22q20 0 38.5 9t28.5 26v-289h76z" />
    <glyph glyph-name="uni278B" unicode="&#x278b;" horiz-adv-x="808" 
d="M212.5 33q-86.5 50 -137 136t-50.5 189t50.5 189t137 135.5t190.5 49.5t191 -49.5t137.5 -135.5t50.5 -189t-50.5 -189t-137.5 -136t-191 -50t-190.5 50zM537 169v70h-151q150 118 150 214q0 49 -33.5 81.5t-94.5 32.5q-68 0 -102 -40.5t-39 -95.5l69 -20q1 38 17.5 65
t52.5 27q26 0 39.5 -15.5t13.5 -40.5q0 -40 -41.5 -90.5t-144.5 -133.5v-54h264z" />
    <glyph glyph-name="uni278C" unicode="&#x278c;" horiz-adv-x="808" 
d="M212.5 33q-86.5 50 -137 136t-50.5 189t50.5 189t137 135.5t190.5 49.5t191 -49.5t137.5 -135.5t50.5 -189t-50.5 -189t-137.5 -136t-191 -50t-190.5 50zM511 194q40 32 40 86q0 44 -24.5 67t-60.5 30v1q26 6 48.5 30.5t22.5 58.5q0 42 -36 71t-98 29q-71 0 -103 -36.5
t-34 -84.5l72 -9q1 27 16.5 47t50.5 20q26 0 40.5 -14t14.5 -34q0 -26 -23 -40t-63 -16v-56q43 2 71 -14.5t28 -48.5q0 -26 -17.5 -41.5t-48.5 -15.5q-35 0 -52 19t-18 46l-81 -9q4 -46 39 -82t109 -36q67 0 107 32z" />
    <glyph glyph-name="uni278D" unicode="&#x278d;" horiz-adv-x="808" 
d="M212.5 33q-86.5 50 -137 136t-50.5 189t50.5 189t137 135.5t190.5 49.5t191 -49.5t137.5 -135.5t50.5 -189t-50.5 -189t-137.5 -136t-191 -50t-190.5 50zM309 314l112 162h1v-162h-113zM419 170h78v84h58v60h-58v247h-86l-175 -251v-56h183v-84z" />
    <glyph glyph-name="uni278E" unicode="&#x278e;" horiz-adv-x="808" 
d="M212.5 33q-86.5 50 -137 136t-50.5 189t50.5 189t137 135.5t190.5 49.5t191 -49.5t137.5 -135.5t50.5 -189t-50.5 -189t-137.5 -136t-191 -50t-190.5 50zM509 199q42 38 42 104q0 61 -36 96t-92 35q-46 0 -77 -26l11 84h173v68h-239l-24 -215l73 -16q19 43 66 43
q32 0 49.5 -18t17.5 -53t-18.5 -54.5t-51.5 -19.5q-31 0 -47.5 17t-20.5 39l-78 -10q10 -46 45.5 -79t98.5 -33q66 0 108 38z" />
    <glyph glyph-name="uni278F" unicode="&#x278f;" horiz-adv-x="808" 
d="M212.5 33q-86.5 50 -137 136t-50.5 189t50.5 189t137 135.5t190.5 49.5t191 -49.5t137.5 -135.5t50.5 -189t-50.5 -189t-137.5 -136t-191 -50t-190.5 50zM347.5 247.5q-19.5 22.5 -19.5 57.5q4 19 22.5 34.5t48.5 15.5q31 0 48.5 -18t17.5 -47t-18 -47t-48 -18
q-32 0 -51.5 22.5zM504 197.5q42 36.5 42 94.5q0 53 -35.5 89.5t-93.5 36.5q-31 0 -54 -11t-37 -30q-2 58 17 91.5t55 33.5q26 0 41.5 -15t19.5 -37l78 20q-9 38 -42.5 67t-91.5 29q-72 0 -115 -51t-43 -155q0 -100 40.5 -149.5t113.5 -49.5q63 0 105 36.5z" />
    <glyph glyph-name="uni2790" unicode="&#x2790;" horiz-adv-x="808" 
d="M212.5 33q-86.5 50 -137 136t-50.5 189t50.5 189t137 135.5t190.5 49.5t191 -49.5t137.5 -135.5t50.5 -189t-50.5 -189t-137.5 -136t-191 -50t-190.5 50zM402 163q7 94 41.5 173.5t100.5 151.5v66h-269v-71h197q-73 -69 -107 -147t-43 -173h80z" />
    <glyph glyph-name="uni2791" unicode="&#x2791;" horiz-adv-x="808" 
d="M212.5 33q-86.5 50 -137 136t-50.5 189t50.5 189t137 135.5t190.5 49.5t191 -49.5t137.5 -135.5t50.5 -189t-50.5 -189t-137.5 -136t-191 -50t-190.5 50zM350.5 247q-18.5 18 -18.5 44q0 28 19 46.5t52 18.5q34 0 53 -18.5t19 -46.5q0 -27 -18 -44.5t-54 -17.5
q-34 0 -52.5 18zM512 196.5q42 34.5 42 87.5q0 69 -71 104q24 11 39 32.5t15 48.5q0 43 -35.5 70.5t-98.5 27.5q-62 0 -97.5 -27t-35.5 -71q0 -28 15 -49t39 -34v-1q-31 -14 -51 -40t-20 -63q0 -53 39 -86.5t108 -33.5q70 0 112 34.5zM361.5 427.5q-15.5 13.5 -15.5 36.5
q0 21 15 34.5t43 13.5t43 -13t15 -34q0 -23 -15.5 -37t-43.5 -14q-26 0 -41.5 13.5z" />
    <glyph glyph-name="uni2792" unicode="&#x2792;" horiz-adv-x="808" 
d="M212.5 33q-86.5 50 -137 136t-50.5 189t50.5 189t137 135.5t190.5 49.5t191 -49.5t137.5 -135.5t50.5 -189t-50.5 -189t-137.5 -136t-191 -50t-190.5 50zM523 212.5q43 51.5 43 155.5q0 100 -40.5 149t-112.5 49q-66 0 -107 -37t-41 -94q0 -53 36 -89t92 -36q61 0 92 41
q2 -59 -17.5 -92t-55.5 -33q-27 0 -41.5 16t-18.5 36l-79 -21q7 -36 41.5 -66t93.5 -30q72 0 115 51.5zM363.5 391.5q-17.5 18.5 -17.5 47.5q0 28 18 45.5t48 17.5q32 0 51.5 -22.5t19.5 -57.5q-5 -18 -22.5 -33.5t-47.5 -15.5q-32 0 -49.5 18.5z" />
    <glyph glyph-name="u1F10B" unicode="&#x1f10b;" horiz-adv-x="828" 
d="M222.5 33q-87.5 49 -137.5 134.5t-50 189.5q0 103 49.5 189.5t136.5 136.5t193 50q105 0 191.5 -50t136.5 -136.5t50 -191.5q0 -104 -49.5 -189t-136 -133.5t-191.5 -48.5t-192.5 49zM565 100q67 39 105 106.5t38 148.5q0 82 -38.5 150.5t-106 109t-149.5 40.5
t-149.5 -40t-106 -108.5t-38.5 -150.5q0 -79 37.5 -147t105 -108t152.5 -40q83 0 150 39zM299.5 206.5q-38.5 51.5 -38.5 147.5t39 151t114 55t114 -55t39 -151t-38.5 -147.5t-114.5 -51.5t-114.5 51.5zM470.5 251.5q18.5 32.5 18.5 102.5q0 141 -75 141t-75 -140
q0 -71 18 -103.5t57 -32.5q38 0 56.5 32.5z" />
    <glyph glyph-name="u1F10C" unicode="&#x1f10c;" horiz-adv-x="828" 
d="M222.5 34q-86.5 50 -137 136t-50.5 189t50.5 189t137 135.5t190.5 49.5t191 -49.5t137.5 -135.5t50.5 -189t-50.5 -189t-137.5 -136t-191 -50t-190.5 50zM527.5 206.5q38.5 51.5 38.5 147.5t-39 151t-114 55t-114 -55t-39 -151t38.5 -147.5t114.5 -51.5t114.5 51.5z
M357 251.5q-18 32.5 -18 103.5q0 140 74 140q75 0 75 -141q0 -70 -18.5 -102.5t-56.5 -32.5t-56 32.5z" />
    <glyph glyph-name="uni004A0301" horiz-adv-x="597" 
d="M154 17.5q-56 34.5 -82.5 88t-30.5 113.5l129 17q2 -56 32.5 -97t98.5 -41q109 0 109 119v498h127v-492q0 -114 -61 -177t-178 -63q-88 0 -144 34.5zM403 754l78 146h156l-121 -146h-113z" />
    <glyph glyph-name="R.ss04" horiz-adv-x="676" 
d="M63 715h294q117 0 179.5 -54t62.5 -152q0 -97 -54.5 -149t-134.5 -71q19 -79 64 -127t122 -48h33v-114h-47q-124 0 -193.5 77.5t-92.5 196.5h-105v-274h-128v715zM323 377q62 0 101.5 27.5t39.5 91.5t-36 86.5t-85 22.5h-152v-228h132z" />
    <glyph glyph-name="Racute.ss04" horiz-adv-x="676" 
d="M63 715h294q117 0 179.5 -54t62.5 -152q0 -97 -54.5 -149t-134.5 -71q19 -79 64 -127t122 -48h33v-114h-47q-124 0 -193.5 77.5t-92.5 196.5h-105v-274h-128v715zM323 377q62 0 101.5 27.5t39.5 91.5t-36 86.5t-85 22.5h-152v-228h132zM262 749l78 146h156l-121 -146
h-113z" />
    <glyph glyph-name="Rcaron.ss04" horiz-adv-x="676" 
d="M63 715h294q117 0 179.5 -54t62.5 -152q0 -97 -54.5 -149t-134.5 -71q19 -79 64 -127t122 -48h33v-114h-47q-124 0 -193.5 77.5t-92.5 196.5h-105v-274h-128v715zM323 377q62 0 101.5 27.5t39.5 91.5t-36 86.5t-85 22.5h-152v-228h132zM256 748l-102 147h118l53 -75
l53 75h117l-96 -147h-143z" />
    <glyph glyph-name="uni0156.ss04" horiz-adv-x="676" 
d="M63 715h294q117 0 179.5 -54t62.5 -152q0 -97 -54.5 -149t-134.5 -71q19 -79 64 -127t122 -48h33v-114h-47q-124 0 -193.5 77.5t-92.5 196.5h-105v-274h-128v715zM240 -206l35 148h139l-72 -148h-102zM323 377q62 0 101.5 27.5t39.5 91.5t-36 86.5t-85 22.5h-152v-228
h132z" />
    <glyph glyph-name="i.loclTRK" horiz-adv-x="225" 
d="M54 0v481h123v-481h-123zM57 568.5q-23 21.5 -23 53.5t23 54t59 22q35 0 58 -22t23 -54t-23 -53.5t-58 -21.5q-36 0 -59 21.5z" />
    <glyph glyph-name="uni006A0301" horiz-adv-x="247" 
d="M-28 -201l11 102q18 -3 33 -3q38 0 48.5 19.5t10.5 47.5v516h123v-506q0 -85 -45 -133t-126 -48q-34 0 -55 5zM78 540l78 146h156l-121 -146h-113z" />
    <glyph glyph-name="germandbls.calt" horiz-adv-x="697" 
d="M290.5 30q-55.5 47 -73.5 113l112 47q10 -42 35.5 -69.5t73.5 -27.5q47 0 73.5 29.5t26.5 84.5q0 63 -32 95t-81 32q-42 0 -80 -28l-73 73l179 221h-121q-64 0 -102 -37t-38 -142v-421h-127v422q0 136 71 214.5t227 78.5h222v-105l-165 -187q25 9 56 9q49 0 94 -25.5
t73.5 -75.5t28.5 -119q0 -67 -27.5 -119t-79.5 -81t-123 -29q-94 0 -149.5 47z" />
    <glyph glyph-name="a.ss01" horiz-adv-x="560" 
d="M143 13q-49 27 -81.5 84.5t-32.5 145.5q0 85 30.5 142t78.5 84t99 27q50 0 86.5 -23t59.5 -57h1v65h122v-481h-121v65h-1q-20 -32 -56.5 -55.5t-85.5 -23.5q-50 0 -99 27zM354 129.5q32 43.5 32 116.5q0 72 -31.5 110.5t-85.5 38.5q-53 0 -84.5 -37t-31.5 -112
q0 -77 32 -118.5t84 -41.5q53 0 85 43.5z" />
    <glyph glyph-name="aacute.ss01" horiz-adv-x="560" 
d="M143 13q-49 27 -81.5 84.5t-32.5 145.5q0 85 30.5 142t78.5 84t99 27q50 0 86.5 -23t59.5 -57h1v65h122v-481h-121v65h-1q-20 -32 -56.5 -55.5t-85.5 -23.5q-50 0 -99 27zM354 129.5q32 43.5 32 116.5q0 72 -31.5 110.5t-85.5 38.5q-53 0 -84.5 -37t-31.5 -112
q0 -77 32 -118.5t84 -41.5q53 0 85 43.5zM219 579l78 146h156l-121 -146h-113z" />
    <glyph glyph-name="abreve.ss01" horiz-adv-x="560" 
d="M143 13q-49 27 -81.5 84.5t-32.5 145.5q0 85 30.5 142t78.5 84t99 27q50 0 86.5 -23t59.5 -57h1v65h122v-481h-121v65h-1q-20 -32 -56.5 -55.5t-85.5 -23.5q-50 0 -99 27zM354 129.5q32 43.5 32 116.5q0 72 -31.5 110.5t-85.5 38.5q-53 0 -84.5 -37t-31.5 -112
q0 -77 32 -118.5t84 -41.5q53 0 85 43.5zM197.5 594.5q-36.5 19.5 -57 53.5t-20.5 77h104q0 -28 16 -46t41 -18q24 0 39.5 18.5t15.5 45.5h103q0 -41 -19.5 -75.5t-56 -54.5t-83.5 -20q-46 0 -82.5 19.5z" />
    <glyph glyph-name="acircumflex.ss01" horiz-adv-x="560" 
d="M143 13q-49 27 -81.5 84.5t-32.5 145.5q0 85 30.5 142t78.5 84t99 27q50 0 86.5 -23t59.5 -57h1v65h122v-481h-121v65h-1q-20 -32 -56.5 -55.5t-85.5 -23.5q-50 0 -99 27zM354 129.5q32 43.5 32 116.5q0 72 -31.5 110.5t-85.5 38.5q-53 0 -84.5 -37t-31.5 -112
q0 -77 32 -118.5t84 -41.5q53 0 85 43.5zM110 578l101 147h144l94 -147h-117l-51 74l-53 -74h-118z" />
    <glyph glyph-name="adieresis.ss01" horiz-adv-x="560" 
d="M143 13q-49 27 -81.5 84.5t-32.5 145.5q0 85 30.5 142t78.5 84t99 27q50 0 86.5 -23t59.5 -57h1v65h122v-481h-121v65h-1q-20 -32 -56.5 -55.5t-85.5 -23.5q-50 0 -99 27zM354 129.5q32 43.5 32 116.5q0 72 -31.5 110.5t-85.5 38.5q-53 0 -84.5 -37t-31.5 -112
q0 -77 32 -118.5t84 -41.5q53 0 85 43.5zM122 609.5q-24 20.5 -24 50.5t24 51.5t55 21.5q33 0 56.5 -22t23.5 -51t-23.5 -50t-55.5 -21t-56 20.5zM325 610q-23 21 -23 50q0 30 23 51.5t55 21.5q33 0 57 -21.5t24 -51.5q0 -29 -24 -50t-57 -21q-32 0 -55 21z" />
    <glyph glyph-name="agrave.ss01" horiz-adv-x="560" 
d="M143 13q-49 27 -81.5 84.5t-32.5 145.5q0 85 30.5 142t78.5 84t99 27q50 0 86.5 -23t59.5 -57h1v65h122v-481h-121v65h-1q-20 -32 -56.5 -55.5t-85.5 -23.5q-50 0 -99 27zM354 129.5q32 43.5 32 116.5q0 72 -31.5 110.5t-85.5 38.5q-53 0 -84.5 -37t-31.5 -112
q0 -77 32 -118.5t84 -41.5q53 0 85 43.5zM238 579l-121 146h156l78 -146h-113z" />
    <glyph glyph-name="amacron.ss01" horiz-adv-x="560" 
d="M143 13q-49 27 -81.5 84.5t-32.5 145.5q0 85 30.5 142t78.5 84t99 27q50 0 86.5 -23t59.5 -57h1v65h122v-481h-121v65h-1q-20 -32 -56.5 -55.5t-85.5 -23.5q-50 0 -99 27zM354 129.5q32 43.5 32 116.5q0 72 -31.5 110.5t-85.5 38.5q-53 0 -84.5 -37t-31.5 -112
q0 -77 32 -118.5t84 -41.5q53 0 85 43.5zM114 597v98h330v-98h-330z" />
    <glyph glyph-name="aogonek.ss01" horiz-adv-x="560" 
d="M373.5 -195.5q-30.5 26.5 -30.5 66.5q0 33 22 64.5t68 64.5h-48v65h-1q-20 -32 -56.5 -55.5t-85.5 -23.5q-50 0 -99 27t-81.5 84.5t-32.5 145.5q0 85 30.5 142t78.5 84t99 27q50 0 86.5 -23t59.5 -57h1v65h122v-481q-35 -31 -50 -57t-15 -44q0 -14 10 -25t29 -11
q16 0 28 7t28 22l10 -77q-11 -15 -36.5 -26t-57.5 -11q-48 0 -78.5 26.5zM354 129.5q32 43.5 32 116.5q0 72 -31.5 110.5t-85.5 38.5q-53 0 -84.5 -37t-31.5 -112q0 -77 32 -118.5t84 -41.5q53 0 85 43.5z" />
    <glyph glyph-name="aring.ss01" horiz-adv-x="560" 
d="M143 13q-49 27 -81.5 84.5t-32.5 145.5q0 85 30.5 142t78.5 84t99 27q50 0 86.5 -23t59.5 -57h1v65h122v-481h-121v65h-1q-20 -32 -56.5 -55.5t-85.5 -23.5q-50 0 -99 27zM354 129.5q32 43.5 32 116.5q0 72 -31.5 110.5t-85.5 38.5q-53 0 -84.5 -37t-31.5 -112
q0 -77 32 -118.5t84 -41.5q53 0 85 43.5zM193.5 597.5q-34.5 33.5 -34.5 84.5q0 50 35 83.5t87 33.5q51 0 85.5 -33t34.5 -84q0 -52 -33.5 -85t-86.5 -33t-87.5 33.5zM316.5 643q15.5 15 15.5 39q0 23 -15.5 37.5t-35.5 14.5q-22 0 -37.5 -14.5t-15.5 -37.5q0 -24 16 -39
t37 -15q20 0 35.5 15z" />
    <glyph glyph-name="aringacute.ss01" horiz-adv-x="560" 
d="M143 13q-49 27 -81.5 84.5t-32.5 145.5q0 85 30.5 142t78.5 84t99 27q50 0 86.5 -23t59.5 -57h1v65h122v-481h-121v65h-1q-20 -32 -56.5 -55.5t-85.5 -23.5q-50 0 -99 27zM354 129.5q32 43.5 32 116.5q0 72 -31.5 110.5t-85.5 38.5q-53 0 -84.5 -37t-31.5 -112
q0 -77 32 -118.5t84 -41.5q53 0 85 43.5zM193.5 597.5q-34.5 33.5 -34.5 84.5q0 50 35 83.5t87 33.5q51 0 85.5 -33t34.5 -84q0 -52 -33.5 -85t-86.5 -33t-87.5 33.5zM316.5 643q15.5 15 15.5 39q0 23 -15.5 37.5t-35.5 14.5q-22 0 -37.5 -14.5t-15.5 -37.5q0 -24 16 -39
t37 -15q20 0 35.5 15zM220 815l78 146h156l-121 -146h-113z" />
    <glyph glyph-name="atilde.ss01" horiz-adv-x="560" 
d="M143 13q-49 27 -81.5 84.5t-32.5 145.5q0 85 30.5 142t78.5 84t99 27q50 0 86.5 -23t59.5 -57h1v65h122v-481h-121v65h-1q-20 -32 -56.5 -55.5t-85.5 -23.5q-50 0 -99 27zM354 129.5q32 43.5 32 116.5q0 72 -31.5 110.5t-85.5 38.5q-53 0 -84.5 -37t-31.5 -112
q0 -77 32 -118.5t84 -41.5q53 0 85 43.5zM84 615q20 54 50 80t73 26q25 0 40.5 -6.5t35.5 -19.5q33 -22 54 -22q18 0 33.5 11.5t24.5 34.5l75 -26q-38 -112 -120 -112q-22 0 -39 7t-28 13.5t-14 8.5q-33 20 -54 20q-35 0 -58 -49z" />
    <glyph glyph-name="zero.zero" horiz-adv-x="628" 
d="M111 81.5q-68 95.5 -68 266.5q0 175 70 274.5t201 99.5q130 0 200.5 -98.5t70.5 -275.5q0 -172 -68 -267t-203 -95t-203 95.5zM374 604q-26 14 -60 14q-74 0 -110.5 -68.5t-36.5 -200.5q0 -117 28 -179zM424.5 153.5q36.5 63.5 36.5 196.5q0 120 -30 187l-178 -433
q26 -14 61 -14q74 0 110.5 63.5z" />
    <glyph glyph-name="zero.numrsuperior" horiz-adv-x="425" 
d="M85.5 474.5q-42.5 55.5 -42.5 160.5t43 165.5t127 60.5t127 -60.5t43 -165.5q0 -108 -44 -162t-126 -54q-85 0 -127.5 55.5zM273.5 525.5q18.5 32.5 18.5 110.5t-19 114.5t-61 36.5t-60.5 -37.5t-18.5 -113.5q0 -77 19 -110t61 -33t60.5 32.5z" />
    <glyph glyph-name="one.numrsuperior" horiz-adv-x="305" 
d="M140 738q-11 -18 -32 -28.5t-42 -10.5h-23v83h15q34 0 57.5 20t28.5 51h84v-426h-88v311z" />
    <glyph glyph-name="two.numrsuperior" horiz-adv-x="385" 
d="M49 488q113 91 157.5 145t44.5 96q0 26 -14 42t-42 16q-38 0 -55.5 -29.5t-18.5 -69.5l-80 23q6 62 44.5 106t113.5 44q67 0 104.5 -36t37.5 -89q0 -102 -163 -230h163v-79h-292v61z" />
    <glyph glyph-name="three.numrsuperior" horiz-adv-x="403" 
d="M79 458q-39 39 -44 91l93 10q1 -27 18 -47.5t57 -20.5q31 0 49.5 15.5t18.5 42.5q0 34 -29.5 51.5t-76.5 15.5v64q43 1 67 16.5t24 42.5q0 21 -15 35t-41 14q-35 0 -52.5 -20.5t-19.5 -50.5l-82 10q2 54 38 94t114 40q68 0 108.5 -32t40.5 -79q0 -36 -25.5 -63t-52.5 -32
v-1q41 -10 67 -34t26 -73q0 -58 -44.5 -93t-118.5 -35q-81 0 -120 39z" />
    <glyph glyph-name="four.numrsuperior" horiz-adv-x="425" 
d="M233 427v91h-199v64l191 271h99v-267h64v-68h-64v-91h-91zM118 586h120v171h-1z" />
    <glyph glyph-name="five.numrsuperior" horiz-adv-x="407" 
d="M89 455q-40 36 -50 87l90 12q4 -24 22.5 -41t50.5 -17q34 0 53 19.5t19 55.5q0 37 -19 55.5t-52 18.5q-26 0 -43.5 -13t-25.5 -33l-85 18l27 236h265v-77h-188l-12 -86q17 12 36 19t46 7q63 0 102 -37.5t39 -103.5q0 -73 -46 -114.5t-119 -41.5q-70 0 -110 36z" />
    <glyph glyph-name="six.numrsuperior" horiz-adv-x="415" 
d="M87.5 472.5q-44.5 53.5 -44.5 163.5q0 114 47 169.5t127 55.5q66 0 103.5 -32.5t45.5 -72.5l-88 -22q-4 22 -20.5 38t-45.5 16q-40 0 -60.5 -35t-18.5 -98q33 44 99 44q64 0 103.5 -39t39.5 -98q0 -63 -45.5 -103t-118.5 -40q-79 0 -123.5 53.5zM265 510q19 19 19 50
q0 30 -18.5 49.5t-52.5 19.5q-33 0 -53 -16.5t-24 -36.5q0 -37 20 -61t57 -24q33 0 52 19z" />
    <glyph glyph-name="seven.numrsuperior" horiz-adv-x="368" 
d="M134 613.5q37 83.5 117 158.5h-216v81h298v-76q-71 -75 -108 -161.5t-46 -188.5h-92q10 103 47 186.5z" />
    <glyph glyph-name="eight.numrsuperior" horiz-adv-x="415" 
d="M85 456.5q-44 37.5 -44 94.5q0 40 20.5 68t55.5 44v1q-26 14 -42 36.5t-16 53.5q0 47 38.5 77t109.5 30q72 0 111 -30t39 -77q0 -30 -16.5 -53t-42.5 -35q76 -40 76 -114q0 -60 -46 -96.5t-122 -36.5q-77 0 -121 37.5zM263.5 515q20.5 18 20.5 48q0 29 -20 48t-56 19
t-56 -19t-20 -49q0 -28 19.5 -46.5t55.5 -18.5t56.5 18zM252 709q16 15 16 39q0 22 -15.5 35t-44.5 13q-30 0 -45.5 -13.5t-15.5 -35.5q0 -24 16.5 -38.5t44.5 -14.5t44 15z" />
    <glyph glyph-name="nine.numrsuperior" horiz-adv-x="416" 
d="M96 451.5q-38 32.5 -47 73.5l90 22q4 -21 20 -37.5t45 -16.5q39 0 59 34t18 97q-33 -44 -98 -44q-64 0 -103.5 39t-39.5 98q0 63 45.5 103.5t118.5 40.5q80 0 125 -54t45 -164q0 -113 -47.5 -168.5t-127.5 -55.5q-65 0 -103 32.5zM254.5 668q19.5 16 24.5 36q0 36 -20 59
t-56 23q-33 0 -51.5 -18t-18.5 -48q0 -31 19 -49.5t52 -18.5q31 0 50.5 16z" />
    <glyph glyph-name="zero.osf" horiz-adv-x="593" 
d="M163 16.5q-61 32.5 -96.5 91t-35.5 132.5q0 75 35.5 134t96.5 92t135 33q73 0 133.5 -33t95.5 -92t35 -134t-35 -133t-95.5 -90.5t-134.5 -32.5q-73 0 -134 32.5zM398.5 131.5q38.5 44.5 38.5 110.5q0 67 -38 111t-100 44q-42 0 -75 -21.5t-51 -57.5t-18 -78
q0 -65 40.5 -109t102.5 -44t100.5 44.5z" />
    <glyph glyph-name="one.osf" horiz-adv-x="372" 
d="M189 315q-17 -28 -51.5 -44t-72.5 -16h-31l-3 107h19q59 0 98.5 33.5t46.5 85.5h115v-481h-121v315z" />
    <glyph glyph-name="two.osf" horiz-adv-x="499" 
d="M40 80q120 74 181.5 116.5t90.5 75.5t29 65q0 28 -21.5 45t-62.5 17q-59 0 -86 -32t-29 -76l-113 31q5 42 29.5 81.5t75 66.5t127.5 27q64 0 110 -19.5t70 -53t24 -75.5q0 -44 -27 -82t-75 -75t-132 -90h234v-102h-425v80z" />
    <glyph glyph-name="three.osf" horiz-adv-x="545" 
d="M133.5 -149q-53.5 30 -78.5 74.5t-30 92.5l128 14q2 -45 31.5 -78t92.5 -33q53 0 84.5 26.5t31.5 71.5q0 56 -46.5 85t-123.5 27v88q67 2 106.5 28.5t39.5 70.5q0 34 -25.5 57.5t-71.5 23.5q-59 0 -87 -35t-28 -78l-113 13q1 50 23.5 95.5t73.5 75t130 29.5
q69 0 119 -22.5t76 -61t26 -83.5q0 -38 -18 -70t-45.5 -51.5t-55.5 -24.5v-2q60 -13 103 -51.5t43 -113.5q0 -60 -31 -104.5t-87 -69t-130 -24.5q-84 0 -137.5 30z" />
    <glyph glyph-name="four.osf" horiz-adv-x="575" 
d="M336 -166v166h-308v89l297 398h134v-391h98v-96h-98v-166h-123zM145 96h196v254h-1z" />
    <glyph glyph-name="five.osf" horiz-adv-x="549" 
d="M146.5 -151q-51.5 28 -79 70.5t-36.5 87.5l123 16q8 -40 38.5 -68t84.5 -28q57 0 89.5 33t32.5 94q0 60 -31.5 91.5t-87.5 31.5q-80 0 -117 -70l-114 26l41 354h396v-105h-293l-20 -152q27 23 58 35t73 12q63 0 112.5 -26t77.5 -76t28 -117q0 -72 -32 -126t-89 -82.5
t-130 -28.5t-124.5 28z" />
    <glyph glyph-name="six.osf" horiz-adv-x="560" 
d="M98.5 66q-67.5 82 -67.5 248q0 160 65.5 254t195.5 94q66 0 113 -23.5t73.5 -59t35.5 -73.5l-120 -32q-8 35 -35 60t-73 25q-64 0 -98 -55.5t-32 -162.5q53 70 155 70q64 0 114 -27t77.5 -74.5t27.5 -106.5q0 -62 -31 -112t-87 -78.5t-127 -28.5q-119 0 -186.5 82z
M373.5 118q30.5 31 30.5 81q0 52 -32.5 83t-86.5 31q-52 0 -84 -26.5t-41 -59.5q0 -65 34 -102.5t94 -37.5q55 0 85.5 31z" />
    <glyph glyph-name="seven.osf" horiz-adv-x="497" 
d="M179 123.5q60 133.5 183 253.5h-335v110h445v-104q-110 -122 -168.5 -257.5t-74.5 -291.5h-126q16 156 76 289.5z" />
    <glyph glyph-name="eight.osf" horiz-adv-x="558" 
d="M147 13.5q-56 26.5 -86 73t-30 103.5q0 61 33 103.5t85 67.5v1q-39 21 -64 55.5t-25 80.5t26 83.5t75.5 60t117.5 22.5q69 0 119 -23t76 -60.5t26 -81.5q0 -47 -26 -80.5t-65 -52.5v-1q52 -26 85.5 -69t33.5 -106q0 -57 -31 -103.5t-88 -73t-132 -26.5q-74 0 -130 26.5z
M375 123.5q32 32.5 32 78.5q0 49 -34 80.5t-93 31.5q-60 0 -94 -32t-34 -80q0 -47 33.5 -79t94.5 -32q63 0 95 32.5zM355 429.5q28 24.5 28 65.5q0 38 -27 60t-77 22q-49 0 -76 -22.5t-27 -60.5q0 -41 28 -65t75 -24q48 0 76 24.5z" />
    <glyph glyph-name="nine.osf" horiz-adv-x="560" 
d="M117.5 -132q-55.5 47 -71.5 110l120 32q8 -35 35 -60.5t74 -25.5q64 0 97.5 55.5t31.5 163.5q-24 -33 -62.5 -51.5t-91.5 -18.5q-64 0 -114 27t-77.5 74.5t-27.5 106.5q0 63 31 112.5t86.5 77.5t127.5 28q119 0 186.5 -82t67.5 -248q0 -163 -67.5 -255.5t-194.5 -92.5
q-95 0 -150.5 47zM360 197q32 26 40 60q0 65 -33.5 102t-93.5 37q-54 0 -85 -30.5t-31 -81.5t31.5 -82t86.5 -31q53 0 85 26z" />
    <glyph glyph-name="zero.tf" 
d="M98.5 80q-69.5 94 -69.5 269t69.5 274.5t200.5 99.5t200.5 -100t69.5 -275q0 -172 -68.5 -267t-201.5 -95q-131 0 -200.5 94zM408.5 154q36.5 64 36.5 196q0 133 -36.5 201t-109.5 68t-109.5 -69t-36.5 -202q0 -131 36.5 -194.5t109.5 -63.5t109.5 64z" />
    <glyph glyph-name="one.tf" 
d="M289 544q-20 -33 -56.5 -49t-79.5 -16h-40v112h24q65 0 107.5 33.5t49.5 86.5h119v-711h-124v544z" />
    <glyph glyph-name="two.tf" 
d="M67 88q127 102 201.5 175t110 132t35.5 114q0 52 -29 82t-81 30q-71 0 -103.5 -51t-33.5 -119l-113 31q6 60 33 114.5t82 90.5t139 36q73 0 125 -27t78.5 -74t26.5 -105q0 -99 -76 -196t-215 -208h293v-113h-473v88z" />
    <glyph glyph-name="three.tf" 
d="M146.5 18q-57.5 32 -85 80t-32.5 100l131 14q2 -49 35 -87t106 -38q61 0 97.5 30.5t36.5 82.5q0 63 -52.5 96.5t-139.5 31.5v91q77 2 120.5 31.5t43.5 77.5q0 40 -29 67t-84 27q-66 0 -97 -39t-31 -87l-116 13q1 51 24.5 99.5t77.5 81.5t140 33q73 0 127 -24.5t82.5 -66
t28.5 -90.5q0 -41 -18.5 -75t-48.5 -55.5t-61 -27.5v-2q67 -15 112.5 -58.5t45.5 -122.5q0 -65 -33.5 -113.5t-94 -75t-139.5 -26.5q-89 0 -146.5 32z" />
    <glyph glyph-name="four.tf" 
d="M349 0v156h-336v91l322 464h137v-456h106v-99h-106v-156h-123zM131 255h222v317h-1z" />
    <glyph glyph-name="five.tf" 
d="M158 15.5q-55 29.5 -85.5 75t-40.5 95.5l127 16q8 -45 41.5 -78t94.5 -33q66 0 104 39.5t38 108.5q0 67 -35.5 105t-99.5 38q-89 0 -133 -79l-116 27l44 381h425v-109h-321l-23 -174q61 54 148 54q64 0 117.5 -28t85.5 -82t32 -129q0 -78 -34.5 -136t-95.5 -89.5
t-140 -31.5q-78 0 -133 29.5z" />
    <glyph glyph-name="six.tf" 
d="M108 74q-73 88 -73 269q0 179 72.5 279.5t207.5 100.5q70 0 119.5 -26t78 -64.5t38.5 -77.5l-124 -36q-8 40 -37 70.5t-80 30.5q-71 0 -110.5 -66.5t-36.5 -184.5q26 37 68.5 58t101.5 21q69 0 122.5 -29.5t83 -81.5t29.5 -116q0 -70 -34.5 -123.5t-94 -82.5t-133.5 -29
q-125 0 -198 88zM403.5 124.5q35.5 35.5 35.5 93.5q0 57 -35 93.5t-98 36.5q-58 0 -94 -30.5t-45 -69.5q0 -69 38.5 -114t104.5 -45q58 0 93.5 35.5z" />
    <glyph glyph-name="seven.tf" 
d="M227.5 320.5q66.5 146.5 202.5 277.5h-373v113h485v-108q-126 -136 -192.5 -284t-80.5 -319h-127q19 174 85.5 320.5z" />
    <glyph glyph-name="eight.tf" 
d="M153.5 14q-59.5 28 -91 77t-31.5 111q0 69 36.5 116t94.5 75v1q-43 22 -71.5 60.5t-28.5 91.5q0 52 28.5 92t82 62.5t126.5 22.5q74 0 127.5 -23t81.5 -63t28 -90q0 -52 -29 -90.5t-73 -57.5v-1q56 -28 93.5 -75.5t37.5 -116.5q0 -62 -32.5 -112t-94 -79t-144.5 -29
q-81 0 -140.5 28zM403.5 128q37.5 35 37.5 89q0 56 -38.5 92t-104.5 36t-104.5 -36.5t-38.5 -90.5q0 -53 37.5 -89t105.5 -36t105.5 35zM384 467.5q31 27.5 31 70.5t-30.5 69t-85.5 26q-56 0 -86 -26t-30 -67q0 -46 31.5 -73t84.5 -27q54 0 85 27.5z" />
    <glyph glyph-name="nine.tf" 
d="M165.5 11.5q-49.5 25.5 -78 64t-38.5 78.5l123 36q8 -41 37.5 -71t81.5 -30q70 0 109.5 66.5t36.5 184.5q-60 -79 -171 -79q-69 0 -122.5 29.5t-83 81.5t-29.5 116q0 70 34.5 123.5t94.5 82.5t134 29q125 0 197.5 -88t72.5 -270q0 -177 -71.5 -278t-207.5 -101
q-70 0 -119.5 25.5zM388 392.5q35 30.5 44 68.5q0 69 -38.5 114t-104.5 45q-58 0 -93.5 -35.5t-35.5 -93.5q0 -57 35.5 -93t98.5 -36q59 0 94 30.5z" />
    <glyph glyph-name="zero.tosf" 
d="M165.5 16.5q-61.5 32.5 -97 91t-35.5 133.5q0 74 35.5 133.5t97 92.5t135.5 33q73 0 133 -33t95 -92.5t35 -134.5t-35 -133t-95.5 -90.5t-133.5 -32.5t-134.5 32.5zM400.5 131.5q38.5 44.5 38.5 111.5q0 66 -38 110.5t-100 44.5q-41 0 -74 -21.5t-51.5 -57.5t-18.5 -79
q0 -42 18.5 -77t51 -55.5t73.5 -20.5q62 0 100.5 44.5z" />
    <glyph glyph-name="one.tosf" 
d="M306 316q-20 -28 -58 -44t-81 -16h-34l-4 107h21q67 0 111 33.5t51 85.5h119v-482h-125v316z" />
    <glyph glyph-name="two.tosf" 
d="M84 80q122 73 186 116t94 76.5t30 65.5q0 28 -22.5 45t-65.5 17q-60 0 -88 -31.5t-31 -76.5l-114 31q11 71 69 123t168 52q65 0 112.5 -19.5t72 -53t24.5 -75.5q0 -44 -28 -82.5t-78 -76t-136 -89.5h242v-102h-435v80z" />
    <glyph glyph-name="three.tosf" 
d="M161 -150q-54 29 -80.5 73.5t-31.5 94.5l128 14q2 -44 31.5 -77.5t95.5 -33.5q54 0 86 26.5t32 71.5q0 56 -47 85t-126 27v88q68 2 108 29t40 71q0 34 -26 57.5t-73 23.5q-58 0 -87 -34t-29 -79l-114 13q1 49 23.5 94.5t73.5 75.5t132 30q69 0 120 -22.5t77.5 -61
t26.5 -83.5q0 -39 -18.5 -71t-46.5 -51.5t-56 -24.5v-2q63 -14 105.5 -52.5t42.5 -111.5q0 -60 -31 -105t-88 -69.5t-131 -24.5q-83 0 -137 29z" />
    <glyph glyph-name="four.tosf" 
d="M348 -166v166h-310v89l299 399h134v-392h99v-96h-99v-166h-123zM155 96h198v255h-1z" />
    <glyph glyph-name="five.tosf" 
d="M170 -151q-52 28 -80 70.5t-37 87.5l123 16q7 -38 37 -67t86 -29q59 0 92.5 33.5t33.5 93.5t-32 91.5t-89 31.5q-81 0 -118 -70l-116 26l42 355h401v-105h-298l-19 -153q28 24 59 36t73 12q63 0 113 -26.5t79 -76.5t29 -118q0 -72 -32.5 -125.5t-90 -82t-130.5 -28.5
q-74 0 -126 28z" />
    <glyph glyph-name="six.tosf" 
d="M116 66q-68 82 -68 248q0 161 66.5 255t196.5 94q68 0 115.5 -24.5t73.5 -60t35 -71.5l-120 -32q-9 35 -36.5 60t-74.5 25q-64 0 -98.5 -55.5t-32.5 -163.5q54 71 156 71q65 0 115 -27.5t78 -75t28 -106.5q0 -63 -31 -112.5t-87.5 -78t-128.5 -28.5q-119 0 -187 82z
M393 118q31 31 31 81q0 52 -32.5 83.5t-88.5 31.5q-53 0 -85 -26.5t-41 -60.5q0 -65 35 -102.5t95 -37.5q55 0 86 31z" />
    <glyph glyph-name="seven.tosf" 
d="M228.5 123q61.5 134 188.5 255h-344v110h455v-104q-113 -124 -174 -260.5t-76 -289.5h-127q16 155 77.5 289z" />
    <glyph glyph-name="eight.tosf" 
d="M165 14q-56 27 -86 73t-30 101q0 63 33 106t86 68v1q-39 20 -64.5 55t-25.5 81t26.5 83.5t76.5 60t118 22.5q69 0 119.5 -23t77 -60.5t26.5 -81.5q0 -47 -27 -81.5t-65 -51.5v-1q51 -26 85 -68.5t34 -105.5q0 -59 -32 -106t-89.5 -73t-130.5 -26q-76 0 -132 27zM394 122
q34 31 34 80t-34 81t-94 32t-95 -32.5t-35 -80.5q0 -47 33.5 -79t95.5 -32q61 0 95 31zM376.5 430.5q28.5 24.5 28.5 65.5q0 37 -28 59.5t-78 22.5t-77 -23t-27 -60q0 -41 28 -65t76 -24q49 0 77.5 24.5z" />
    <glyph glyph-name="nine.tosf" 
d="M173 -154.5q-48 24.5 -74.5 60t-35.5 72.5l120 32q9 -34 35.5 -60t74.5 -26q65 0 99.5 55.5t32.5 163.5q-24 -33 -63.5 -51.5t-92.5 -18.5q-65 0 -115.5 27t-78 75t-27.5 107q0 64 32 113.5t88.5 77t126.5 27.5q119 0 187 -82t68 -249q0 -163 -67 -255.5t-195 -92.5
q-67 0 -115 24.5zM379.5 197.5q32.5 26.5 40.5 60.5q0 66 -34 102.5t-94 36.5q-56 0 -87 -30.5t-31 -80.5q0 -52 32 -83.5t88 -31.5q53 0 85.5 26.5z" />
    <glyph glyph-name="zero.subs" horiz-adv-x="425" 
d="M85.5 -92.5q-42.5 55.5 -42.5 160.5t43 165.5t127 60.5t127 -60.5t43 -165.5q0 -108 -44 -162t-126 -54q-85 0 -127.5 55.5zM273.5 -41.5q18.5 32.5 18.5 110.5t-19 114.5t-60 36.5q-42 0 -61 -37.5t-19 -113.5q0 -78 19 -110.5t61 -32.5t60.5 32.5z" />
    <glyph glyph-name="one.subs" horiz-adv-x="305" 
d="M140 171q-11 -18 -32 -28t-42 -10h-23v82h15q34 0 57.5 20t28.5 51h84v-426h-88v311z" />
    <glyph glyph-name="two.subs" horiz-adv-x="385" 
d="M49 -79q113 93 157.5 146t44.5 96q0 26 -14 42t-42 16q-38 0 -55.5 -29.5t-18.5 -69.5l-80 22q6 62 44.5 106t113.5 44q67 0 104.5 -36t37.5 -89q0 -102 -163 -229h163v-80h-292v61z" />
    <glyph glyph-name="three.subs" horiz-adv-x="403" 
d="M79 -109q-39 39 -44 91l93 10q1 -27 18 -47.5t57 -20.5q31 0 49.5 15.5t18.5 42.5q0 34 -29.5 51.5t-76.5 15.5v64q43 1 67 16.5t24 42.5q0 21 -15 35t-41 14q-35 0 -52.5 -20.5t-19.5 -50.5l-82 10q2 54 38 94t114 40q68 0 108.5 -32t40.5 -79q0 -36 -25.5 -63
t-52.5 -32v-1q93 -22 93 -107q0 -58 -44.5 -93t-118.5 -35q-81 0 -120 39z" />
    <glyph glyph-name="four.subs" horiz-adv-x="425" 
d="M233 -140v91h-199v64l191 271h99v-267h64v-68h-64v-91h-91zM118 19h120v171h-1z" />
    <glyph glyph-name="five.subs" horiz-adv-x="407" 
d="M89 -112q-40 36 -50 87l90 12q4 -24 22.5 -41t50.5 -17q34 0 53 19.5t19 55.5q0 37 -19 55.5t-52 18.5q-26 0 -43.5 -13t-25.5 -33l-85 18l27 236h265v-76h-188l-12 -87q17 13 36 20t46 7q60 0 100.5 -36t40.5 -106q0 -74 -46 -115t-119 -41q-70 0 -110 36z" />
    <glyph glyph-name="six.subs" horiz-adv-x="415" 
d="M87.5 -34q-44.5 54 -44.5 163q0 114 47 169.5t127 55.5q66 0 103.5 -32.5t45.5 -72.5l-88 -22q-4 22 -20.5 38t-45.5 16q-40 0 -60.5 -34.5t-18.5 -98.5q33 44 99 44q64 0 103.5 -39t39.5 -98q0 -63 -45.5 -103t-117.5 -40q-80 0 -124.5 54zM265 3.5q19 18.5 19 49.5
t-19 50t-53 19q-32 0 -52 -16t-24 -36q0 -38 19.5 -61.5t57.5 -23.5q33 0 52 18.5z" />
    <glyph glyph-name="seven.subs" horiz-adv-x="368" 
d="M133.5 46.5q36.5 83.5 117.5 159.5h-216v80h298v-75q-71 -76 -108 -162.5t-46 -188.5h-92q10 103 46.5 186.5z" />
    <glyph glyph-name="eight.subs" horiz-adv-x="415" 
d="M85 -110.5q-44 37.5 -44 95.5q0 76 76 111v1q-26 14 -42 36.5t-16 53.5q0 47 39 77t110 30t110 -29.5t39 -76.5q0 -31 -16.5 -54t-42.5 -35q76 -40 76 -114q0 -60 -46 -96.5t-122 -36.5q-77 0 -121 37.5zM265 -51q19 19 19 47q0 29 -20 48t-56 19t-56 -19t-20 -48
t19 -47.5t56 -18.5q39 0 58 19zM252 142.5q16 14.5 16 38.5q0 22 -15.5 35t-44.5 13q-30 0 -45.5 -13.5t-15.5 -35.5q0 -24 16.5 -38t44.5 -14t44 14.5z" />
    <glyph glyph-name="nine.subs" horiz-adv-x="416" 
d="M96 -115.5q-38 32.5 -47 73.5l90 22q4 -21 20 -37.5t45 -16.5q39 0 59 34t18 97q-33 -44 -98 -44q-64 0 -103.5 39t-39.5 98q0 63 45.5 103.5t118.5 40.5q80 0 125 -54t45 -164q0 -113 -47.5 -168.5t-127.5 -55.5q-65 0 -103 32.5zM254.5 101q19.5 16 24.5 36
q0 36 -20 59.5t-56 23.5q-33 0 -51.5 -18.5t-18.5 -48.5q0 -31 19 -49.5t51 -18.5t51.5 16z" />
    <glyph glyph-name="zero.dnom" horiz-adv-x="425" 
d="M85.5 47.5q-42.5 55.5 -42.5 160.5t43 165.5t127 60.5t127 -60.5t43 -165.5q0 -108 -44 -162t-126 -54q-85 0 -127.5 55.5zM273.5 98.5q18.5 32.5 18.5 110.5t-19 114.5t-60 36.5q-42 0 -61 -37.5t-19 -113.5q0 -78 19 -110.5t61 -32.5t60.5 32.5z" />
    <glyph glyph-name="one.dnom" horiz-adv-x="305" 
d="M140 311q-11 -18 -32 -28t-42 -10h-23v82h15q34 0 57.5 20t28.5 51h84v-426h-88v311z" />
    <glyph glyph-name="two.dnom" horiz-adv-x="385" 
d="M49 61q113 93 157.5 146t44.5 96q0 26 -14 42t-42 16q-38 0 -55.5 -29.5t-18.5 -69.5l-80 22q6 62 44.5 106t113.5 44q67 0 104.5 -36t37.5 -89q0 -102 -163 -229h163v-80h-292v61z" />
    <glyph glyph-name="three.dnom" horiz-adv-x="403" 
d="M79 31q-39 39 -44 91l93 10q1 -27 18 -47.5t57 -20.5q31 0 49.5 15.5t18.5 42.5q0 34 -29.5 51.5t-76.5 15.5v64q43 1 67 16.5t24 42.5q0 21 -15 35t-41 14q-35 0 -52.5 -20.5t-19.5 -50.5l-82 10q2 54 38 94t114 40q68 0 108.5 -32t40.5 -79q0 -36 -25.5 -63t-52.5 -32
v-1q93 -22 93 -107q0 -58 -44.5 -93t-118.5 -35q-81 0 -120 39z" />
    <glyph glyph-name="four.dnom" horiz-adv-x="425" 
d="M233 0v91h-199v64l191 271h99v-267h64v-68h-64v-91h-91zM118 159h120v171h-1z" />
    <glyph glyph-name="five.dnom" horiz-adv-x="407" 
d="M89 28.5q-39 36.5 -50 87.5l90 11q4 -24 22.5 -41t50.5 -17q34 0 53 19.5t19 55.5q0 37 -19 55.5t-52 18.5q-26 0 -43.5 -13t-25.5 -33l-85 18l27 236h265v-76h-188l-12 -87q17 13 36 20t46 7q60 0 100.5 -36t40.5 -106q0 -74 -46 -115t-119 -41q-71 0 -110 36.5z" />
    <glyph glyph-name="six.dnom" horiz-adv-x="416" 
d="M87.5 46q-44.5 54 -44.5 163q0 114 47 169.5t128 55.5q65 0 103 -32.5t47 -73.5l-90 -21q-4 21 -20.5 36.5t-44.5 15.5q-39 0 -59 -33.5t-19 -96.5q33 44 99 44q64 0 103 -39t39 -98q0 -65 -46.5 -104.5t-118.5 -39.5q-79 0 -123.5 54zM265 84.5q19 18.5 19 48.5
q0 31 -19 49.5t-52 18.5q-31 0 -50.5 -15.5t-24.5 -35.5q0 -36 19.5 -60t56.5 -24q32 0 51 18.5z" />
    <glyph glyph-name="seven.dnom" horiz-adv-x="368" 
d="M133.5 186.5q36.5 83.5 117.5 159.5h-216v80h298v-75q-71 -76 -108 -162.5t-46 -188.5h-92q10 103 46.5 186.5z" />
    <glyph glyph-name="eight.dnom" horiz-adv-x="415" 
d="M85 29.5q-44 37.5 -44 95.5q0 76 76 111v1q-26 14 -42 36.5t-16 53.5q0 47 39 77t110 30t110 -29.5t39 -76.5q0 -31 -16.5 -54t-42.5 -35q76 -40 76 -114q0 -60 -46 -96.5t-122 -36.5q-77 0 -121 37.5zM265 89.5q19 19.5 19 46.5q0 29 -20 48t-56 19t-56 -19t-20 -48
q0 -28 19.5 -47t55.5 -19q39 0 58 19.5zM252 282.5q16 14.5 16 38.5q0 22 -15.5 35t-44.5 13q-30 0 -45.5 -13.5t-15.5 -35.5q0 -24 16.5 -38t44.5 -14t44 14.5z" />
    <glyph glyph-name="nine.dnom" horiz-adv-x="416" 
d="M96 24.5q-38 32.5 -47 73.5l90 22q4 -21 20 -37.5t45 -16.5q39 0 59 34t18 97q-33 -44 -98 -44q-64 0 -103.5 39t-39.5 98q0 63 45.5 103.5t118.5 40.5q80 0 125 -54t45 -164q0 -113 -47.5 -168.5t-127.5 -55.5q-65 0 -103 32.5zM254.5 241q19.5 16 24.5 36
q0 36 -20 59.5t-56 23.5q-33 0 -51.5 -18.5t-18.5 -48.5q0 -31 19 -49.5t51 -18.5t51.5 16z" />
    <glyph glyph-name="zero.numr" horiz-adv-x="425" 
d="M85.5 356q-42.5 55 -42.5 160t43 165.5t127 60.5t127 -60.5t43 -165.5t-43 -160t-128 -55q-84 0 -126.5 55zM273.5 406.5q18.5 32.5 18.5 110.5t-19 114.5t-61 36.5t-60.5 -37t-18.5 -113q0 -77 19 -110.5t61 -33.5t60.5 32.5z" />
    <glyph glyph-name="one.numr" horiz-adv-x="305" 
d="M140 619q-11 -18 -32 -28t-42 -10h-23v82h15q34 0 57.5 20t28.5 51h84v-426h-88v311z" />
    <glyph glyph-name="two.numr" horiz-adv-x="385" 
d="M49 369q113 93 157.5 146t44.5 96q0 26 -14 42t-42 16q-38 0 -55.5 -29.5t-18.5 -69.5l-80 23q6 61 44 105t114 44q67 0 104.5 -36t37.5 -89q0 -102 -163 -229h163v-80h-292v61z" />
    <glyph glyph-name="three.numr" horiz-adv-x="403" 
d="M80 339q-40 38 -45 91l93 11q1 -28 18.5 -48.5t56.5 -20.5q31 0 49.5 15.5t18.5 42.5q0 34 -29.5 51.5t-76.5 15.5v64q43 1 67 16.5t24 42.5q0 21 -15 35.5t-41 14.5q-36 0 -53 -21t-19 -51l-82 11q2 55 38.5 94t113.5 39q69 0 109 -31.5t40 -77.5q0 -37 -25 -64t-53 -33
v-1q93 -22 93 -107q0 -58 -44.5 -92.5t-118.5 -34.5q-79 0 -119 38z" />
    <glyph glyph-name="four.numr" horiz-adv-x="425" 
d="M233 308v92h-199v63l191 271h99v-267h64v-67h-64v-92h-91zM118 467h120v171h-1z" />
    <glyph glyph-name="five.numr" horiz-adv-x="407" 
d="M89 337q-40 36 -50 87l90 11q4 -24 22.5 -41t50.5 -17q34 0 53 19.5t19 55.5q0 37 -19 55.5t-52 18.5q-26 0 -43.5 -13t-25.5 -33l-85 19l27 235h265v-76h-188l-12 -87q17 13 36 20t46 7q60 0 100.5 -36t40.5 -106q0 -73 -46 -114t-118 -41q-71 0 -111 36z" />
    <glyph glyph-name="six.numr" horiz-adv-x="415" 
d="M87.5 354.5q-44.5 54.5 -44.5 163.5q0 113 47 168.5t127 55.5q66 0 103.5 -32.5t45.5 -72.5l-88 -22q-4 22 -20.5 38t-45.5 16q-40 0 -60.5 -34.5t-18.5 -97.5q35 44 100 44q62 0 102 -39t40 -98q0 -63 -45.5 -103.5t-117.5 -40.5q-80 0 -124.5 54.5zM265 391.5
q19 18.5 19 49.5t-19 50t-53 19q-32 0 -52 -16t-24 -36q0 -38 19.5 -61.5t57.5 -23.5q33 0 52 18.5z" />
    <glyph glyph-name="seven.numr" horiz-adv-x="368" 
d="M133.5 494.5q36.5 83.5 117.5 159.5h-216v80h298v-75q-71 -76 -108 -162.5t-46 -188.5h-92q10 103 46.5 186.5z" />
    <glyph glyph-name="eight.numr" horiz-adv-x="415" 
d="M85 338.5q-44 37.5 -44 94.5q0 76 76 111v1q-26 14 -42 37t-16 54q0 47 39 76.5t110 29.5t110 -29.5t39 -76.5q0 -31 -16.5 -54t-42.5 -35q76 -40 76 -114q0 -59 -46 -95.5t-122 -36.5q-77 0 -121 37.5zM265 397.5q19 19.5 19 46.5q0 29 -20 48t-56 19t-56 -19t-20 -48
q0 -28 19.5 -47t55.5 -19q39 0 58 19.5zM252 590.5q16 14.5 16 38.5q0 22 -15.5 35.5t-44.5 13.5q-30 0 -45.5 -13.5t-15.5 -36.5q0 -24 16.5 -38t44.5 -14t44 14.5z" />
    <glyph glyph-name="nine.numr" horiz-adv-x="416" 
d="M95 334q-37 33 -46 72l90 22q4 -21 20 -37.5t45 -16.5q39 0 59 34t18 97q-33 -44 -98 -44q-64 0 -103.5 39t-39.5 98q0 63 45.5 103.5t119.5 40.5q80 0 124.5 -54t44.5 -163q0 -113 -47.5 -168.5t-127.5 -55.5q-67 0 -104 33zM254.5 549q19.5 16 24.5 36q0 36 -20 59.5
t-56 23.5q-33 0 -51.5 -18.5t-18.5 -48.5q0 -31 19 -49.5t51 -18.5t51.5 16z" />
    <glyph glyph-name="colon.case" horiz-adv-x="305" 
d="M87.5 436.5q-24.5 25.5 -24.5 64.5q0 38 24.5 64t65.5 26q40 0 64.5 -25.5t24.5 -64.5t-24.5 -64.5t-64.5 -25.5q-41 0 -65.5 25.5zM87.5 102.5q-24.5 25.5 -24.5 64.5q0 38 24.5 64t65.5 26q40 0 64.5 -25.5t24.5 -64.5t-24.5 -64.5t-64.5 -25.5q-41 0 -65.5 25.5z" />
    <glyph glyph-name="exclamdown.case" horiz-adv-x="305" 
d="M100 520h105q4 -239 17 -513h-140q14 257 18 513zM89 591.5q-26 26.5 -26 63.5t26 63t62 26q37 0 63.5 -26t26.5 -63t-26 -63.5t-63 -26.5t-63 26.5z" />
    <glyph glyph-name="questiondown.case" horiz-adv-x="617" 
d="M128.5 40q-64.5 54 -64.5 142q0 62 30 100.5t82 72.5q54 36 71 51t17 33q0 13 -9 29t-13 23l115 28q38 -47 38 -94q0 -29 -13 -50.5t-35.5 -40t-70.5 -50.5q-41 -27 -59.5 -47.5t-18.5 -51.5q0 -37 29.5 -61t79.5 -24q62 0 90.5 33.5t29.5 81.5l127 -18q-1 -52 -25 -100
t-78.5 -79.5t-142.5 -31.5q-115 0 -179.5 54zM248.5 589.5q-27.5 26.5 -27.5 63.5t27 64t66 27q38 0 65.5 -26.5t27.5 -64.5q0 -37 -27.5 -63.5t-66.5 -26.5q-37 0 -64.5 26.5z" />
    <glyph glyph-name="slash.case" horiz-adv-x="476" 
d="M43 -84l280 868h110l-280 -868h-110z" />
    <glyph glyph-name="backslash.case" horiz-adv-x="486" 
d="M323 -84l-280 868h120l281 -868h-121z" />
    <glyph glyph-name="parenleft.case" horiz-adv-x="441" 
d="M128.5 70q-65.5 135 -65.5 281q0 102 32.5 197t90.5 171.5t134 123.5l55 -75q-90 -71 -145 -181t-55 -234q0 -87 26.5 -169t72.5 -148t103 -105l-56 -76q-127 80 -192.5 215z" />
    <glyph glyph-name="parenright.case" horiz-adv-x="440" 
d="M65 -64q90 70 145 180t55 234q0 87 -26.5 169t-72.5 147.5t-103 105.5l56 75q127 -80 192.5 -215t65.5 -280q0 -98 -31 -192t-88.5 -172t-136.5 -127z" />
    <glyph glyph-name="braceleft.case" horiz-adv-x="510" 
d="M336.5 -108q-42.5 10 -71.5 54t-36 141q-5 82 -14.5 120.5t-41 65.5t-100.5 42v93q67 15 99 42.5t42 67.5t16 120q8 96 37.5 140t72 54t118.5 10h11v-115h-11q-37 0 -59 -6.5t-39 -35t-20 -89.5q-5 -88 -12.5 -129.5t-30.5 -67.5t-72 -36q49 -11 72.5 -40t31 -72
t11.5 -122q3 -62 19 -90.5t38 -35t60 -6.5h12v-115h-12q-78 0 -120.5 10z" />
    <glyph glyph-name="braceright.case" horiz-adv-x="509" 
d="M41 -2h11q36 0 58 6.5t39 34.5t20 89q5 87 12 127.5t30 67.5t73 38q-49 11 -73 40t-31 71.5t-11 122.5q-3 62 -19 90.5t-37.5 35t-59.5 6.5h-12v114h12q77 0 119 -9.5t71 -51t36 -132.5q6 -87 15.5 -128t41 -69t100.5 -42v-93q-69 -15 -100.5 -43t-40.5 -67t-15 -120
q-6 -95 -37.5 -139.5t-74.5 -54.5t-116 -10h-11v116z" />
    <glyph glyph-name="bracketleft.case" horiz-adv-x="352" 
d="M63 -112v931h226v-104h-118v-722h118v-105h-226z" />
    <glyph glyph-name="bracketright.case" horiz-adv-x="352" 
d="M63 -109v104h118v721h-118v104h225v-929h-225z" />
    <glyph glyph-name="hyphen.case" horiz-adv-x="496" 
d="M63 285v116h370v-116h-370z" />
    <glyph glyph-name="endash.case" horiz-adv-x="680" 
d="M63 284v117h554v-117h-554z" />
    <glyph glyph-name="emdash.case" horiz-adv-x="979" 
d="M63 283v119h853v-119h-853z" />
    <glyph glyph-name="guillemotleft.case" horiz-adv-x="561" 
d="M171 131l-117 199v11l117 192h123l-115 -196l115 -206h-123zM385 131l-117 199v11l117 192h122l-115 -196l115 -206h-122z" />
    <glyph glyph-name="guillemotright.case" horiz-adv-x="561" 
d="M53 131l116 206l-116 196h123l117 -192v-11l-117 -199h-123zM267 131l115 206l-115 196h122l117 -192v-11l-117 -199h-122z" />
    <glyph glyph-name="guilsinglleft.case" horiz-adv-x="348" 
d="M171 131l-117 199v11l117 192h123l-115 -196l115 -206h-123z" />
    <glyph glyph-name="guilsinglright.case" horiz-adv-x="348" 
d="M53 131l116 206l-116 196h123l117 -192v-11l-117 -199h-123z" />
    <glyph glyph-name="space.tf" 
 />
    <glyph glyph-name="space.tosf" 
 />
    <glyph glyph-name="cent.osf" horiz-adv-x="531" 
d="M220 -10q-77 17 -124.5 79t-47.5 166q0 83 31.5 140t83.5 84.5t113 27.5h12l9 64h64l-11 -76q54 -18 89.5 -62.5t45.5 -111.5l-109 -16q-8 55 -41 81l-38 -276q31 6 53 29t26 64l110 -5q-10 -91 -64.5 -141.5t-139.5 -52.5l-11 -82h-63zM274 385q-47 0 -80.5 -37.5
t-33.5 -111.5q0 -57 21 -92t54 -48z" />
    <glyph glyph-name="dollar.osf" horiz-adv-x="565" 
d="M242 -13q-82 12 -128 58.5t-61 102.5l102 50q10 -47 43.5 -82.5t93.5 -35.5q47 0 76.5 23t29.5 64q0 31 -17 50.5t-43.5 32t-72.5 27.5q-60 20 -101 42t-68 59.5t-27 95.5q0 77 47.5 125.5t125.5 56.5v76h92v-80q65 -14 104.5 -54.5t53.5 -87.5l-96 -44q-9 39 -38.5 69
t-79.5 30q-41 0 -68 -21.5t-27 -61.5q0 -29 15.5 -47.5t38.5 -29t64 -24.5q6 -3 12 -4.5t11 -3.5q89 -31 139 -75t50 -125q0 -77 -48.5 -126t-130.5 -60v-80h-92v80z" />
    <glyph glyph-name="Euro.osf" horiz-adv-x="717" 
d="M265 45q-71 58 -96 171h-118v80h108q-1 10 -1 31q0 18 1 27h-86v80h96q24 112 94.5 170.5t162.5 58.5q103 0 162.5 -65.5t78.5 -155.5l-107 -33q-10 63 -43.5 110t-94.5 47q-48 0 -86 -33.5t-55 -98.5h233l-23 -80h-222q-1 -9 -1 -27q0 -21 1 -31h217l-23 -80h-181
q18 -65 56.5 -98.5t89.5 -33.5q59 0 91 42.5t40 99.5l106 -22q-16 -89 -74.5 -153t-162.5 -64q-92 0 -163 58z" />
    <glyph glyph-name="sterling.osf" horiz-adv-x="634" 
d="M125.5 0.5q-28.5 13.5 -47 41t-18.5 66.5q0 53 32.5 86.5t77.5 33.5q39 0 64 -23.5t39 -52.5q6 18 6 45q0 47 -25 93h-145v87h97q-33 52 -33 107q0 54 27.5 95t73.5 63t98 22q78 0 127.5 -46.5t61.5 -130.5l-98 -27q-9 51 -30.5 79.5t-64.5 28.5q-42 0 -66.5 -25
t-24.5 -66q0 -46 41 -100h187v-87h-140q17 -39 17 -76q0 -64 -41 -117q24 -8 55 -8q46 0 67 22t22 73l102 -7q-6 -84 -48.5 -137t-127.5 -53q-76 0 -125 45q-45 -45 -102 -45q-30 0 -58.5 13.5zM241 92q-25 56 -61 56q-15 0 -25 -10.5t-10 -26.5q0 -17 13.5 -28t33.5 -11
q27 0 49 20z" />
    <glyph glyph-name="yen.osf" horiz-adv-x="555" 
d="M226 0v93h-138v87h138v51h-143v87h104l-167 327h119l141 -296l141 296h115l-167 -327h107v-87h-146v-51h139v-87h-139v-93h-104z" />
    <glyph glyph-name="cent.tf" 
d="M249 -11q-85 18 -137 85.5t-52 181.5q0 90 35 152t92 92.5t124 30.5h14l10 69h68l-11 -82q59 -20 98 -69t50 -121l-119 -17q-10 62 -46 88l-42 -302q35 7 59.5 32t28.5 70l120 -6q-11 -98 -70.5 -153t-153.5 -57l-12 -89h-69zM310 420h-1q-52 0 -89.5 -41t-37.5 -122
q0 -63 23 -101t60 -53z" />
    <glyph glyph-name="dollar.tf" 
d="M255 -14q-89 12 -141 62.5t-70 113.5l111 53q11 -51 49 -89.5t106 -38.5q54 0 87 25t33 70q0 34 -19 55.5t-47.5 34t-82.5 29.5q-67 22 -112.5 45.5t-76 64.5t-30.5 104q0 84 53.5 137.5t139.5 61.5v82h100v-87q74 -15 117 -58.5t58 -94.5l-103 -49q-11 44 -44.5 76
t-88.5 32q-47 0 -77.5 -23.5t-30.5 -66.5q0 -31 17.5 -51.5t43.5 -32.5t73 -28q9 -2 25 -8q65 -22 109.5 -47.5t72 -66.5t27.5 -101q0 -85 -53.5 -139t-145.5 -65v-87h-100v87z" />
    <glyph glyph-name="Euro.tf" 
d="M208.5 49q-66.5 63 -90.5 186h-107v87h98q-1 11 -1 33q0 20 1 30h-78v88h87q23 122 89.5 185.5t151.5 63.5q100 0 157 -72.5t73 -168.5l-110 -35q-9 69 -38.5 120t-81.5 51q-44 0 -77.5 -36.5t-48.5 -107.5h205l-25 -88h-190q-1 -10 -1 -30q0 -22 1 -33h192l-24 -87h-157
q16 -71 50 -107.5t78 -36.5q52 0 80 45.5t35 108.5l110 -23q-15 -95 -70 -165.5t-156 -70.5q-86 0 -152.5 63z" />
    <glyph glyph-name="sterling.tf" 
d="M103.5 1q-29.5 15 -48.5 45t-19 72q0 57 32.5 93.5t79.5 36.5q39 0 65.5 -25t40.5 -56q5 20 5 47q0 51 -26 101h-147v96h98q-33 58 -33 116t28 102.5t75 69t102 24.5q78 0 128.5 -50.5t63.5 -142.5l-102 -29q-9 55 -31 86.5t-64 31.5t-67 -27.5t-25 -72.5q0 -50 42 -108
h190v-96h-142q18 -43 18 -83q0 -66 -44 -127q27 -9 54 -9q47 0 68.5 24.5t22.5 79.5l107 -8q-6 -91 -49.5 -148.5t-131.5 -57.5q-78 0 -128 48q-44 -48 -103 -48q-30 0 -59.5 15zM220 99q-8 22 -24 42t-38 20q-15 0 -25 -11.5t-10 -28.5q0 -19 13.5 -31t34.5 -12q28 0 49 21
z" />
    <glyph glyph-name="yen.tf" 
d="M243 0v102h-157v94h157v55h-164v95h120l-190 356h130l163 -323l163 323h126l-190 -356h121v-95h-165v-55h158v-94h-158v-102h-114z" />
    <glyph glyph-name="cent.tosf" 
d="M252 -10q-78 17 -126 79t-48 166q0 84 32 141t84.5 84.5t114.5 27.5h13l9 64h64l-11 -76q55 -18 91 -63t46 -111l-110 -16q-10 57 -42 81l-39 -277q32 6 55 29t26 64l111 -5q-10 -91 -65.5 -141.5t-141.5 -52.5l-11 -82h-64zM308 386q-48 0 -83 -38t-35 -112
q0 -57 21.5 -91.5t55.5 -48.5z" />
    <glyph glyph-name="dollar.tosf" 
d="M258 -13q-82 12 -129 58.5t-62 102.5l103 50q10 -47 44 -82.5t95 -35.5q47 0 77 23t30 63q0 32 -17.5 52.5t-44.5 32.5t-72 26q-59 19 -101 41t-70 60.5t-28 96.5q0 77 49 125t126 57v76h93v-80q66 -14 106 -55t53 -87l-97 -44q-9 39 -38.5 69t-80.5 30
q-41 0 -68.5 -21.5t-27.5 -61.5q0 -29 16 -48t39.5 -30t64.5 -25q17 -5 22 -7q90 -31 140 -75t50 -125q0 -77 -48.5 -126t-130.5 -60v-80h-93v80z" />
    <glyph glyph-name="Euro.tosf" 
d="M210 50q-61 63 -81 166h-101v80h92q-1 10 -1 32q0 18 1 27h-74v80h82q21 112 84 170.5t144 58.5q94 0 148 -66t70 -155l-104 -33q-8 62 -36 109.5t-78 47.5q-42 0 -73.5 -33.5t-46.5 -98.5h196l-23 -80h-183q-1 -9 -1 -28q0 -21 1 -31h183l-22 -80h-151
q15 -65 47.5 -98.5t74.5 -33.5q49 0 76.5 42t34.5 100l102 -22q-14 -86 -65.5 -151.5t-145.5 -65.5q-89 0 -150 63z" />
    <glyph glyph-name="sterling.tosf" 
d="M114.5 0.5q-27.5 13.5 -45.5 41t-18 66.5q0 53 31 86.5t74 33.5q38 0 63 -23.5t37 -52.5q6 18 6 45q0 47 -25 93h-139v88h93q-32 51 -32 107q0 54 27 95t71.5 63t93.5 22q75 0 123 -46.5t60 -130.5l-96 -27q-9 51 -29.5 79.5t-60.5 28.5q-39 0 -62.5 -25t-23.5 -65
q0 -47 39 -101h179v-88h-134q17 -39 17 -76q0 -60 -40 -117q22 -8 50 -8q44 0 64.5 22t21.5 73l100 -7q-5 -84 -45.5 -137t-124.5 -53q-74 0 -121 45q-43 -45 -98 -45q-28 0 -55.5 13.5zM224 91q-7 19 -22 38t-36 19q-14 0 -23.5 -10t-9.5 -26q0 -17 13 -28.5t32 -11.5
q27 0 46 19z" />
    <glyph glyph-name="yen.tosf" 
d="M247 0v93h-145v87h145v51h-151v87h110l-176 328h121l150 -297l151 297h115l-174 -328h112v-87h-152v-51h146v-87h-146v-93h-106z" />
    <glyph glyph-name="arrowup.case" horiz-adv-x="675" 
d="M290 59v474l-164 -166l-59 62l247 243h47l247 -243l-60 -62l-162 164v-472h-96z" />
    <glyph glyph-name="uni2197.case" horiz-adv-x="626" 
d="M133 95l-68 68l335 335l-233 -2l2 86l346 -3l16 -16h1l17 -17l3 -346l-86 -2l1 230z" />
    <glyph glyph-name="arrowright.case" horiz-adv-x="750" 
d="M434 89l-62 60l164 162h-473v96h475l-166 164l62 60l242 -247v-48z" />
    <glyph glyph-name="uni2198.case" horiz-adv-x="627" 
d="M170 136l-2 86l231 -1l-334 334l68 68l335 -335l-1 233l86 -2l-3 -346l-34 -34z" />
    <glyph glyph-name="arrowdown.case" horiz-adv-x="675" 
d="M314 52l-247 242l60 63l162 -164v472h96v-473l163 165l60 -63l-247 -242h-47z" />
    <glyph glyph-name="uni2199.case" horiz-adv-x="626" 
d="M457 139l-346 3l-34 34l-3 346l86 1l-1 -230l334 334l68 -68l-336 -336l234 2z" />
    <glyph glyph-name="arrowleft.case" horiz-adv-x="750" 
d="M316 91l-242 247v48l242 247l62 -60l-164 -162h473v-96h-475l166 -164z" />
    <glyph glyph-name="uni2196.case" horiz-adv-x="627" 
d="M494 95l-335 335l1 -232l-86 2l3 345l17 18h1l16 16l346 3l2 -86l-231 2l334 -335z" />
    <glyph glyph-name="at.case" horiz-adv-x="821" 
d="M234.5 22q-87.5 43 -138.5 128t-51 205t51 207t137.5 132t189.5 45q101 0 181 -43t125.5 -119.5t45.5 -174.5q0 -70 -23.5 -125t-66 -85.5t-96.5 -30.5q-39 0 -61 17.5t-30 55.5h-2q-15 -33 -48 -51.5t-68 -18.5q-37 0 -75 21.5t-63 66.5t-25 111q0 65 24.5 110
t62.5 66.5t78 21.5q36 0 65 -17.5t45 -43.5h2v51h92v-301h19q31 0 50 38.5t19 106.5q0 117 -63 186.5t-181 69.5q-82 0 -146 -34t-100.5 -100t-36.5 -158q0 -93 36.5 -158.5t101 -99.5t147.5 -34q29 0 73 6l12 -84q-44 -10 -89 -10q-106 0 -193.5 43zM473 284.5
q24 31.5 24 80.5q0 48 -24 80t-69 32q-43 0 -65.5 -29t-22.5 -83q0 -55 23 -83.5t65 -28.5q45 0 69 31.5z" />
    <glyph glyph-name="bar.case" horiz-adv-x="238" 
d="M63 -102v937h111v-937h-111z" />
    <glyph glyph-name="nobreakspace" horiz-adv-x="278" 
 />
    </font>
</defs>
</svg>
