<?xml version="1.0" standalone="no"?>
<!DOCTYPE svg PUBLIC "-//W3C//DTD SVG 1.1//EN" "http://www.w3.org/Graphics/SVG/1.1/DTD/svg11.dtd" >
<svg xmlns="http://www.w3.org/2000/svg" xmlns:xlink="http://www.w3.org/1999/xlink" version="1.1">
<metadata>
Created by FontForge 20170731 at Sun Aug 23 11:09:35 2020
 By Aleksey,,,
Copyright (c) 2020 by BumBumType. All rights reserved.
</metadata>
<defs>
<font id="AlbraGrotesk-Bold" horiz-adv-x="608" >
  <font-face 
    font-family="Albra Grotesk Bold"
    font-weight="700"
    font-stretch="normal"
    units-per-em="1000"
    panose-1="0 0 8 0 0 0 0 0 0 0"
    ascent="760"
    descent="-240"
    x-height="484"
    cap-height="715"
    bbox="-150 -225 1181 1140"
    underline-thickness="159"
    underline-position="-294"
    unicode-range="U+000D-1F10C"
  />
<missing-glyph horiz-adv-x="571" 
d="M57 0v715h457v-715h-457zM140 85h293v545h-293v-545z" />
    <glyph glyph-name="f_i" unicode="fi" horiz-adv-x="634" 
d="M111 365h-96v119h96v69q0 40 9 76.5t46 67.5t114 31q53 0 99 -16l-25 -121q-28 9 -49 9q-48 0 -48 -48v-68h334v-484h-149v365h-182v-365h-149v365zM448.5 561q-27.5 25 -27.5 63t27.5 62.5t68.5 24.5t68.5 -25.5t27.5 -61.5q0 -37 -27 -62.5t-69 -25.5q-41 0 -68.5 25z
" />
    <glyph glyph-name="f_l" unicode="fl" horiz-adv-x="633" 
d="M110 365h-95v119h95v80q0 80 43.5 122t126.5 42q60 0 105 -20l-25 -118q-11 5 -27 8t-28 3q-31 0 -39.5 -16t-8.5 -36v-65h113v-119h-110v-365h-150v365zM441 0v715h149v-715h-149z" />
    <glyph glyph-name=".notdef" horiz-adv-x="571" 
d="M57 0v715h457v-715h-457zM140 85h293v545h-293v-545z" />
    <glyph glyph-name=".null" horiz-adv-x="0" 
 />
    <glyph glyph-name="nonmarkingreturn" unicode="&#xd;" horiz-adv-x="277" 
 />
    <glyph glyph-name="space" unicode=" " horiz-adv-x="277" 
 />
    <glyph glyph-name="exclam" unicode="!" horiz-adv-x="325" 
d="M74 725h177q-17 -256 -23 -489h-131q-8 272 -23 489zM88.5 18q-31.5 31 -31.5 75t31 75t75 31q43 0 74 -31t31 -75q0 -45 -30.5 -75.5t-73.5 -30.5q-44 0 -75.5 31z" />
    <glyph glyph-name="quotedbl" unicode="&#x22;" horiz-adv-x="470" 
d="M79 445l-20 280h158l-18 -280h-120zM273 445l-20 280h158l-18 -280h-120z" />
    <glyph glyph-name="numbersign" unicode="#" horiz-adv-x="779" 
d="M127 0l38 163h-108v126h138l23 102h-109v129h139l46 195h124l-46 -195h122l46 195h125l-47 -195h104v-129h-134l-25 -102h102v-126h-132l-39 -163h-121l38 163h-124l-39 -163h-121zM317 289h124l23 102h-123z" />
    <glyph glyph-name="dollar" unicode="$" horiz-adv-x="622" 
d="M260 -14q-92 14 -147 65.5t-72 114.5l134 63q11 -51 47.5 -88.5t100.5 -37.5q48 0 77 21t29 59q0 31 -19.5 51t-46 30.5t-78.5 26.5q-67 21 -115 46t-78.5 67t-30.5 105q0 84 54 139t145 66v79h122v-86q73 -18 118 -64.5t60 -98.5l-126 -54q-10 43 -41 75.5t-84 32.5
q-42 0 -68.5 -20t-26.5 -57q0 -30 19.5 -49t45.5 -29.5t88 -30.5q65 -22 110.5 -47t74.5 -67t29 -105q0 -85 -53 -139t-146 -68v-84h-122v84z" />
    <glyph glyph-name="percent" unicode="%" horiz-adv-x="994" 
d="M291 16l-97 71l512 616l97 -72zM150.5 367q-45.5 26 -70.5 70.5t-25 97.5q0 52 25 95.5t70 69t104 25.5t103 -25t67.5 -68.5t23.5 -96.5t-23.5 -97.5t-67.5 -70.5t-102 -26q-59 0 -104.5 26zM302.5 482q18.5 21 18.5 51t-18.5 51t-47.5 21q-30 0 -49.5 -20.5t-19.5 -51.5
q0 -32 19 -52t49 -20t48.5 21zM641.5 14q-45.5 26 -70.5 70t-25 97q0 52 25 95.5t70 69t104 25.5t103 -25t67.5 -68.5t23.5 -96.5t-23.5 -97t-67.5 -70t-102 -26q-59 0 -104.5 26zM793.5 128q18.5 21 18.5 51t-18.5 51t-47.5 21q-31 0 -50.5 -20t-19.5 -52q0 -31 19.5 -51.5
t50.5 -20.5q29 0 47.5 21z" />
    <glyph glyph-name="ampersand" unicode="&#x26;" horiz-adv-x="821" 
d="M175 10.5q-57 25.5 -88.5 70.5t-31.5 102q0 75 47.5 125t107.5 80q-35 44 -56 82t-21 83q0 50 29 91t81 65t119 24q61 0 110.5 -20.5t78 -57.5t28.5 -86q0 -110 -154 -209l116 -120q48 80 47 190l133 -16q-4 -157 -89 -268l141 -146h-192l-49 52q-51 -33 -108.5 -50
t-117.5 -17q-74 0 -131 25.5zM444 144l-148 156q-40 -25 -60 -47.5t-20 -56.5q0 -39 29 -62t78 -23q64 0 121 33zM399 477q16 13 28 31.5t12 42.5q0 33 -21.5 53t-55.5 20t-56 -20.5t-22 -52.5q0 -22 10 -41t26.5 -36.5t31.5 -31.5q31 22 47 35z" />
    <glyph glyph-name="quotesingle" unicode="'" horiz-adv-x="277" 
d="M79 445l-20 280h158l-18 -280h-120z" />
    <glyph glyph-name="parenleft" unicode="(" horiz-adv-x="418" 
d="M125.5 26.5q-68.5 138.5 -68.5 291.5q0 100 31.5 196t93.5 175.5t148 129.5l65 -93q-93 -66 -148 -174.5t-55 -235.5q0 -87 26.5 -169t73.5 -146.5t105 -100.5l-65 -93q-138 81 -206.5 219.5z" />
    <glyph glyph-name="parenright" unicode=")" horiz-adv-x="426" 
d="M31 -93q93 66 148 174.5t55 235.5q0 87 -26.5 169t-73.5 146.5t-105 100.5l66 93q137 -81 205.5 -219.5t68.5 -291.5q0 -100 -31.5 -196t-93.5 -175t-148 -129z" />
    <glyph glyph-name="asterisk" unicode="*" horiz-adv-x="564" 
d="M202 296l-95 69l90 116l-140 38l36 112l135 -51l-6 145h117l-6 -146l138 51l36 -112l-137 -40l88 -111l-96 -69l-80 121z" />
    <glyph glyph-name="plus" unicode="+" horiz-adv-x="597" 
d="M236 54v201h-189v118h189v195h123v-195h191v-118h-191v-201h-123z" />
    <glyph glyph-name="comma" unicode="," horiz-adv-x="289" 
d="M62 -131l3 89q38 0 54 10.5t21 37.5q-43 4 -67.5 31t-24.5 65q0 41 27.5 69.5t73.5 28.5q97 0 97 -138q0 -98 -46.5 -146.5t-120.5 -48.5q-1 0 -17 2z" />
    <glyph glyph-name="hyphen" unicode="-" horiz-adv-x="492" 
d="M57 195v140h378v-140h-378z" />
    <glyph glyph-name="period" unicode="." horiz-adv-x="304" 
d="M77 16.5q-29 30.5 -29 76.5q0 45 28.5 76t77.5 31q48 0 77 -30.5t29 -76.5t-29 -76.5t-77 -30.5t-77 30.5z" />
    <glyph glyph-name="slash" unicode="/" horiz-adv-x="473" 
d="M36 -97l268 860h133l-269 -860h-132z" />
    <glyph glyph-name="zero" unicode="0" horiz-adv-x="642" 
d="M108 80q-71 93 -71 268q0 177 72 276t212 99q141 0 212.5 -99.5t71.5 -275.5q0 -175 -71 -268t-213 -93t-213 93zM421 167.5q32 55.5 32 181.5q0 127 -32.5 188t-99.5 61q-68 0 -100 -63t-32 -187t31.5 -180t100.5 -56q68 0 100 55.5z" />
    <glyph glyph-name="one" unicode="1" horiz-adv-x="442" 
d="M198 516q-17 -29 -52 -46t-69 -17h-40v139h26q57 0 96.5 33t47.5 85h139v-710h-148v516z" />
    <glyph glyph-name="two" unicode="2" horiz-adv-x="574" 
d="M47 102q128 104 200.5 176t104 125t31.5 101q0 43 -23 69.5t-69 26.5q-63 0 -91.5 -48.5t-29.5 -116.5l-135 38q6 63 33.5 119.5t84.5 93.5t145 37q76 0 129.5 -28t80.5 -75.5t27 -104.5q0 -90 -69.5 -184.5t-199.5 -195.5h270v-135h-489v102z" />
    <glyph glyph-name="three" unicode="3" horiz-adv-x="605" 
d="M144.5 19.5q-59.5 32.5 -87.5 81t-33 102.5l157 19q2 -46 31 -80.5t92 -34.5q53 0 83.5 26t30.5 71q0 57 -48.5 84.5t-128.5 25.5v107q73 2 113.5 28t40.5 71q0 35 -25 58.5t-70 23.5q-61 0 -89 -36t-30 -84l-139 18q1 53 25 103.5t80.5 85t148.5 34.5q77 0 133 -24.5
t86 -66.5t30 -93q0 -42 -20.5 -76.5t-51 -56t-58.5 -27.5v-2q65 -14 110 -54t45 -121q0 -65 -33.5 -113.5t-95 -75t-143.5 -26.5q-94 0 -153.5 32.5z" />
    <glyph glyph-name="four" unicode="4" horiz-adv-x="644" 
d="M358 0v152h-335v106l319 452h167v-444h106v-114h-106v-152h-151zM164 266h199v284h-1z" />
    <glyph glyph-name="five" unicode="5" horiz-adv-x="611" 
d="M160.5 17q-56.5 30 -88 76.5t-41.5 99.5l152 19q6 -38 35 -68t85 -30q57 0 88.5 33t31.5 94q0 62 -31 93t-86 31q-81 0 -115 -79l-143 30l45 394h443v-129h-315l-19 -142q26 20 58.5 32t77.5 12q69 0 123 -28t84 -82t30 -128q0 -81 -36 -139.5t-99 -88.5t-142 -30
q-81 0 -137.5 30z" />
    <glyph glyph-name="six" unicode="6" horiz-adv-x="629" 
d="M111.5 76.5q-74.5 89.5 -74.5 272.5q0 189 78.5 281.5t213.5 92.5q76 0 130 -26.5t83.5 -67t38.5 -83.5l-154 -38q-6 37 -32 64t-74 27q-64 0 -96.5 -57.5t-30.5 -158.5q56 73 165 73q71 0 125 -31t82.5 -83.5t28.5 -115.5q0 -71 -35.5 -125.5t-98 -84t-141.5 -29.5
q-134 0 -208.5 89.5zM407.5 142q30.5 31 30.5 81q0 49 -30 80.5t-85 31.5q-53 0 -85 -27t-40 -60q0 -59 34 -98t93 -39q52 0 82.5 31z" />
    <glyph glyph-name="seven" unicode="7" horiz-adv-x="548" 
d="M189.5 312q60.5 139 194.5 262h-358v136h497v-127q-119 -125 -180.5 -268t-75.5 -315h-154q16 173 76.5 312z" />
    <glyph glyph-name="eight" unicode="8" horiz-adv-x="625" 
d="M160.5 14.5q-61.5 27.5 -94 77t-32.5 115.5q0 68 34.5 114.5t92.5 72.5v1q-43 24 -69.5 62t-26.5 88q0 81 65.5 129.5t182.5 48.5q79 0 135 -23t84.5 -62.5t28.5 -90.5q0 -50 -27.5 -89t-70.5 -59v-1q128 -65 128 -187q0 -65 -34.5 -116t-99 -79.5t-150.5 -28.5
q-85 0 -146.5 27.5zM405.5 146q33.5 29 33.5 78q0 51 -33.5 82t-92.5 31t-93 -32t-34 -80q0 -47 32 -77.5t95 -30.5q59 0 92.5 29zM388 472.5q27 24.5 27 62.5q0 37 -26.5 60t-75.5 23q-50 0 -76 -23t-26 -60q0 -40 27.5 -63.5t74.5 -23.5q48 0 75 24.5z" />
    <glyph glyph-name="nine" unicode="9" horiz-adv-x="629" 
d="M171.5 13q-53.5 26 -84 66t-39.5 85l153 38q6 -37 32 -64t74 -27q64 0 96.5 57.5t30.5 158.5q-55 -73 -164 -73q-71 0 -125 31t-83 83.5t-29 115.5q0 71 35.5 125.5t98 84t139.5 29.5q135 0 210 -90t75 -272q0 -189 -78.5 -281.5t-213.5 -92.5q-74 0 -127.5 26z
M390.5 402q31.5 26 40.5 60q0 59 -34 98.5t-93 39.5q-52 0 -83 -31.5t-31 -81.5q0 -49 30.5 -80t86.5 -31q52 0 83.5 26z" />
    <glyph glyph-name="colon" unicode=":" horiz-adv-x="304" 
d="M77 16.5q-29 30.5 -29 76.5q0 45 28.5 76t77.5 31q48 0 77 -30.5t29 -76.5t-29 -76.5t-77 -30.5t-77 30.5zM77 331.5q-29 30.5 -29 76.5q0 45 28.5 76t77.5 31q48 0 77 -30.5t29 -76.5t-29 -76.5t-77 -30.5t-77 30.5z" />
    <glyph glyph-name="semicolon" unicode=";" horiz-adv-x="305" 
d="M63 -131l3 89q38 0 54 10.5t21 37.5q-43 4 -67.5 31t-24.5 65q0 41 27.5 69.5t73.5 28.5q97 0 97 -138q0 -98 -46.5 -146.5t-120.5 -48.5q-1 0 -17 2zM78 338.5q-29 30.5 -29 76.5q0 45 28.5 76t77.5 31q48 0 77 -30.5t29 -76.5t-29 -76.5t-77 -30.5t-77 30.5z" />
    <glyph glyph-name="less" unicode="&#x3c;" horiz-adv-x="526" 
d="M479 27l-432 224v146l432 220v-137l-315 -152l315 -170v-131z" />
    <glyph glyph-name="equal" unicode="=" horiz-adv-x="560" 
d="M47 345v122h466v-122h-466zM47 152v122h466v-122h-466z" />
    <glyph glyph-name="greater" unicode="&#x3e;" horiz-adv-x="526" 
d="M47 11v133l313 176l-313 160v137l432 -225v-149z" />
    <glyph glyph-name="question" unicode="?" horiz-adv-x="616" 
d="M204 319q0 32 15.5 55t39.5 40t69 43q36 21 54 38.5t18 41.5q0 30 -24.5 48t-67.5 18q-56 0 -80.5 -29.5t-24.5 -67.5l-154 19q1 55 26 105t82.5 83t151.5 33q80 0 138 -25.5t88 -71.5t30 -106q0 -62 -30 -100t-81 -68t-69.5 -44.5t-18.5 -31.5q0 -9 7 -22t10 -21
l-143 -26q-36 42 -36 89zM221 18q-33 32 -33 76q0 45 33 76.5t79 31.5q45 0 77.5 -31.5t32.5 -76.5t-32.5 -76.5t-77.5 -31.5q-46 0 -79 32z" />
    <glyph glyph-name="at" unicode="@" horiz-adv-x="814" 
d="M230 -80.5q-89 43.5 -141 128.5t-52 205t52 206.5t139 131.5t191 45q103 0 184.5 -43t127.5 -119.5t46 -172.5q0 -73 -26.5 -127.5t-72.5 -83.5t-103 -29q-39 0 -63 15.5t-34 52.5h-2q-14 -31 -43.5 -48.5t-61.5 -17.5q-36 0 -72.5 21.5t-61 66.5t-24.5 110q0 64 24 108
t60.5 65.5t73.5 21.5q32 0 57.5 -15.5t42.5 -39.5h2v45h110v-280h14q26 0 43 31.5t17 94.5q0 109 -57 175t-172 66q-79 0 -140.5 -32.5t-96 -95t-34.5 -148.5q0 -87 34.5 -149.5t96.5 -95.5t142 -33q22 0 43.5 2t28.5 3l13 -98q-35 -10 -85 -10q-111 0 -200 43.5zM458 194.5
q18 25.5 18 68.5q0 42 -18.5 68t-54.5 26q-34 0 -52.5 -24t-18.5 -69q0 -46 18.5 -70.5t53.5 -24.5q36 0 54 25.5z" />
    <glyph glyph-name="A" unicode="A" horiz-adv-x="733" 
d="M13 0l253 715h199l254 -715h-166l-54 157h-271l-53 -157h-162zM275 294h177l-89 257h-1z" />
    <glyph glyph-name="B" unicode="B" horiz-adv-x="659" 
d="M57 715h321q108 0 168 -47t60 -128q0 -54 -27 -94t-77 -62v-3q67 -25 98.5 -72.5t31.5 -109.5q0 -93 -68 -146t-187 -53h-320v715zM383 130q38 0 61.5 24t23.5 65q0 42 -24.5 67.5t-63.5 25.5h-166v-182h169zM361 429q36 0 58.5 21t22.5 59q0 39 -22 59.5t-58 20.5h-148
v-160h147z" />
    <glyph glyph-name="C" unicode="C" horiz-adv-x="727" 
d="M204 21.5q-79 39.5 -127 124t-48 212.5t48 212t126 123.5t170 39.5q97 0 164 -40.5t103.5 -101t50.5 -126.5l-159 -39q-12 70 -50.5 119.5t-112.5 49.5q-77 0 -126 -59t-49 -176q0 -119 50.5 -179.5t129.5 -60.5q74 0 111 46.5t45 108.5l157 -32q-12 -65 -47.5 -124
t-101 -98t-161.5 -39q-94 0 -173 39.5z" />
    <glyph glyph-name="D" unicode="D" horiz-adv-x="702" 
d="M57 715h254q123 0 204.5 -47t119.5 -127.5t38 -181.5q0 -106 -41 -187t-122.5 -126.5t-198.5 -45.5h-254v715zM334 140q90 0 133.5 58.5t43.5 158.5q0 103 -45 160.5t-133 57.5h-119v-435h120z" />
    <glyph glyph-name="E" unicode="E" horiz-adv-x="613" 
d="M57 0v715h513v-140h-356v-144h312v-130h-312v-161h352v-140h-509z" />
    <glyph glyph-name="F" unicode="F" horiz-adv-x="600" 
d="M57 0v715h516v-141h-358v-143h309v-131h-309v-300h-158z" />
    <glyph glyph-name="G" unicode="G" horiz-adv-x="777" 
d="M208.5 20q-76.5 38 -128 122t-51.5 214q0 124 48 208.5t128 126.5t177 42q93 0 160 -36.5t106 -91t56 -113.5l-159 -41q-14 57 -54.5 100.5t-109.5 43.5q-50 0 -92.5 -24.5t-68.5 -78.5t-26 -136q0 -120 56 -177.5t142 -57.5q51 0 91 19.5t62.5 51.5t22.5 70v10h-181v118
h333v-390h-118l-8 142h-3q-5 -35 -34 -72t-79.5 -62.5t-115.5 -25.5q-77 0 -153.5 38z" />
    <glyph glyph-name="H" unicode="H" horiz-adv-x="721" 
d="M57 0v715h157v-275h293v275h157v-715h-157v296h-293v-296h-157z" />
    <glyph glyph-name="I" unicode="I" horiz-adv-x="271" 
d="M57 0v715h157v-715h-157z" />
    <glyph glyph-name="J" unicode="J" horiz-adv-x="615" 
d="M151 19.5q-60 37.5 -88 94.5t-31 120l158 17q0 -52 27.5 -90.5t88.5 -38.5q55 0 77 30.5t22 86.5v476h156v-476q0 -127 -67.5 -192t-188.5 -65q-94 0 -154 37.5z" />
    <glyph glyph-name="K" unicode="K" horiz-adv-x="684" 
d="M57 0v715h157v-305l260 305h191l-288 -329l301 -386h-194l-214 278l-56 -58v-220h-157z" />
    <glyph glyph-name="L" unicode="L" horiz-adv-x="577" 
d="M57 0v715h157v-572h327v-143h-484z" />
    <glyph glyph-name="M" unicode="M" horiz-adv-x="862" 
d="M57 0v715h167l209 -312l206 312h166v-715h-154v474h-3l-201 -289h-37l-196 290h-3v-475h-154z" />
    <glyph glyph-name="N" unicode="N" horiz-adv-x="731" 
d="M57 0v715h172l289 -480h2v480h154v-715h-170l-292 482h-1v-482h-154z" />
    <glyph glyph-name="O" unicode="O" horiz-adv-x="765" 
d="M208.5 26q-81.5 44 -130.5 130t-49 204t49 202.5t130.5 127.5t177.5 43t175.5 -43.5t127 -128t47.5 -202.5t-47.5 -203t-127.5 -129.5t-175 -44.5q-96 0 -177.5 44zM518.5 181q52.5 59 52.5 177q0 119 -53 177t-134 58q-52 0 -95 -24.5t-69 -77t-26 -131.5
q0 -81 26.5 -134.5t69.5 -78.5t95 -25q81 0 133.5 59z" />
    <glyph glyph-name="P" unicode="P" horiz-adv-x="620" 
d="M57 715h299q79 0 135.5 -30t85.5 -83t29 -120q0 -65 -28 -118.5t-87.5 -86.5t-148.5 -33h-128v-244h-157v715zM341 379q50 0 77.5 26.5t27.5 74.5q0 47 -28 72t-75 25h-129v-198h127z" />
    <glyph glyph-name="Q" unicode="Q" horiz-adv-x="765" 
d="M418 -17q-11 -1 -32 -1q-96 0 -177.5 44t-130.5 130t-49 204t49 202.5t130.5 127.5t177.5 43t175.5 -43.5t127 -128t47.5 -202.5q0 -124 -52 -211.5t-139 -129.5v-2l24 1q63 3 71 3h69l-8 -125h-93q-127 0 -190 88zM518.5 181q52.5 59 52.5 177q0 119 -53 177t-134 58
q-52 0 -95 -24.5t-69 -77t-26 -131.5q0 -81 26.5 -134.5t69.5 -78.5t95 -25q81 0 133.5 59z" />
    <glyph glyph-name="R" unicode="R" horiz-adv-x="678" 
d="M57 715h311q122 0 186.5 -55t64.5 -157q0 -94 -49.5 -143.5t-114.5 -70.5l182 -285v-4h-186l-158 259h-79v-259h-157v715zM332 381q53 0 87 24.5t34 79.5q0 54 -31 76.5t-75 22.5h-133v-203h118z" />
    <glyph glyph-name="S" unicode="S" horiz-adv-x="635" 
d="M126 39.5q-73 57.5 -95 133.5l150 68q11 -50 48 -88t102 -38q46 0 74 19t28 54q0 28 -18.5 46.5t-47 30.5t-81.5 28q-70 21 -119 46.5t-81 69t-32 109.5q0 64 31 112.5t88.5 75.5t134.5 27q115 0 183.5 -54.5t91.5 -128.5l-140 -58q-10 44 -41.5 77.5t-85.5 33.5
q-40 0 -66 -19t-26 -53q0 -39 32.5 -59t97.5 -39q7 -2 13.5 -4t12.5 -4q104 -33 164 -83t60 -144q0 -101 -74 -158.5t-200 -57.5q-131 0 -204 57.5z" />
    <glyph glyph-name="T" unicode="T" horiz-adv-x="618" 
d="M230 0v574h-212v141h581v-141h-213v-574h-156z" />
    <glyph glyph-name="U" unicode="U" horiz-adv-x="710" 
d="M198 13.5q-67 31.5 -104 86.5t-37 123v492h157v-454q0 -70 37 -105.5t105 -35.5q67 0 103.5 35.5t36.5 105.5v454h157v-491q0 -69 -38 -124t-106.5 -86.5t-155.5 -31.5q-88 0 -155 31.5z" />
    <glyph glyph-name="V" unicode="V" horiz-adv-x="716" 
d="M257 0l-248 715h171l181 -543h1l181 543h164l-248 -715h-202z" />
    <glyph glyph-name="W" unicode="W" horiz-adv-x="1032" 
d="M227 0l-214 715h159l136 -464h2l137 464h140l135 -463h2l136 463h159l-215 -715h-149l-138 469h-2l-138 -469h-150z" />
    <glyph glyph-name="X" unicode="X" horiz-adv-x="737" 
d="M20 0l243 358l-242 357h188l166 -253l155 253h187l-244 -354l244 -361h-190l-162 246l-159 -246h-186z" />
    <glyph glyph-name="Y" unicode="Y" horiz-adv-x="680" 
d="M262 0v252l-259 463h179l161 -303l161 303h173l-259 -463v-252h-156z" />
    <glyph glyph-name="Z" unicode="Z" horiz-adv-x="625" 
d="M38 0v122l344 453h-333v140h524v-122l-349 -454h363v-139h-549z" />
    <glyph glyph-name="bracketleft" unicode="[" horiz-adv-x="338" 
d="M57 -166v960h247v-124h-118v-711h118v-125h-247z" />
    <glyph glyph-name="backslash" unicode="\" horiz-adv-x="488" 
d="M304 -97l-268 860h147l269 -860h-148z" />
    <glyph glyph-name="bracketright" unicode="]" horiz-adv-x="338" 
d="M34 -166v124h118v712h-118v124h247v-960h-247z" />
    <glyph glyph-name="asciicircum" unicode="^" horiz-adv-x="627" 
d="M56 362l185 353h145l185 -353h-154l-103 226l-104 -226h-154z" />
    <glyph glyph-name="underscore" unicode="_" horiz-adv-x="459" 
d="M0 -175v141h459v-141h-459z" />
    <glyph glyph-name="grave" unicode="`" horiz-adv-x="399" 
d="M192 577l-123 148h191l69 -148h-137z" />
    <glyph glyph-name="a" unicode="a" horiz-adv-x="557" 
d="M82.5 23q-45.5 37 -45.5 103q0 62 40.5 98t95.5 52t131 28q34 5 45 10t11 20q0 20 -17.5 35t-58.5 15q-48 0 -76 -20t-37 -47l-109 63q20 50 77.5 86t152.5 36q93 0 154 -43t58 -139l-5 -183q-1 -17 8.5 -26t28.5 -8v-111q-28 -4 -52 -4q-60 0 -87.5 27.5t-32.5 83.5h-3
q-14 -53 -56.5 -83t-106.5 -30q-70 0 -115.5 37zM323.5 131q31.5 32 33.5 73l2 38q-9 -12 -21.5 -18t-37.5 -11q-43 -10 -65.5 -16.5t-36 -19.5t-13.5 -34q0 -44 56 -44q51 0 82.5 32z" />
    <glyph glyph-name="b" unicode="b" horiz-adv-x="568" 
d="M251.5 7q-35.5 21 -54.5 54h-1v-61h-148v715h149v-290h1q23 33 60 53.5t81 20.5q50 0 97 -26.5t78 -84.5t31 -145q0 -92 -33.5 -149.5t-82 -82.5t-96.5 -25q-46 0 -81.5 21zM366.5 143q27.5 35 27.5 101q0 64 -27 98.5t-74 34.5q-46 0 -72 -34t-26 -100q0 -65 27.5 -100
t72.5 -35q44 0 71.5 35z" />
    <glyph glyph-name="c" unicode="c" horiz-adv-x="539" 
d="M146.5 13q-57.5 30 -90.5 88t-33 141q0 86 35.5 144.5t94.5 87t129 28.5q108 0 156.5 -53.5t67.5 -111.5l-136 -44q-10 34 -28 59.5t-61 25.5t-74 -33t-31 -105t30.5 -102t73.5 -30q42 0 63.5 26t26.5 56l143 -16q-5 -34 -25.5 -76.5t-72 -78.5t-137.5 -36
q-74 0 -131.5 30z" />
    <glyph glyph-name="d" unicode="d" horiz-adv-x="568" 
d="M136 12q-48 26 -80.5 84t-32.5 148q0 87 31 144t78 83.5t97 26.5q48 0 83.5 -20.5t57.5 -52.5h1v290h150v-715h-148v59h-1q-19 -31 -55 -52t-84 -21q-49 0 -97 26zM347 143.5q27 36.5 27 101.5t-26.5 98.5t-73.5 33.5q-45 0 -72 -33.5t-27 -99.5q0 -64 26.5 -100.5
t72.5 -36.5t73 36.5z" />
    <glyph glyph-name="e" unicode="e" horiz-adv-x="539" 
d="M151.5 11.5q-57.5 28.5 -92 86.5t-34.5 142q0 82 33 141.5t91 90t133 30.5q110 0 170 -65.5t60 -185.5v-51h-333q3 -42 33 -68.5t74 -26.5q39 0 62.5 19.5t33.5 48.5l118 -60q-22 -53 -78 -91.5t-142 -38.5q-71 0 -128.5 28.5zM357 298q-3 97 -84 97q-41 0 -64 -26
t-25 -71h173z" />
    <glyph glyph-name="f" unicode="f" horiz-adv-x="391" 
d="M110 365h-95v119h95v80q0 80 43.5 122t126.5 42q60 0 105 -20l-25 -118q-11 5 -27 8t-28 3q-31 0 -39.5 -16t-8.5 -36v-65h113v-119h-110v-365h-150v365z" />
    <glyph glyph-name="g" unicode="g" horiz-adv-x="561" 
d="M78 -183q-58 34 -58 92q0 30 20 59.5t67 50.5v3q-36 14 -52 35.5t-16 45.5q0 31 26.5 55.5t66.5 29.5v2q-92 45 -92 132q0 50 26.5 90.5t78.5 64t125 23.5h48q43 0 56.5 22.5t13.5 79.5h144v-34q0 -50 -37 -72t-95 -22v-3q43 -23 68 -59.5t25 -86.5q0 -77 -61.5 -123.5
t-176.5 -46.5h-22q-7 0 -16 0.5t-17 -0.5q-9 -1 -16 -8t-7 -16q0 -12 10 -18.5t29 -6.5h154q89 0 134 -36.5t45 -101.5q0 -88 -79 -136.5t-217 -48.5q-117 0 -175 34zM364 -104.5q36 16.5 36 51.5q0 46 -68 46l-114 -1q-22 0 -38 -16.5t-16 -38.5q0 -30 31 -44t79 -14
q54 0 90 16.5zM325 261.5q20 22.5 20 63.5q0 43 -21 67.5t-56 24.5q-34 0 -55.5 -24.5t-21.5 -66.5t21.5 -64.5t56.5 -22.5q36 0 56 22.5z" />
    <glyph glyph-name="h" unicode="h" horiz-adv-x="547" 
d="M48 715h149v-303h1q48 86 141 86q68 0 116.5 -41t48.5 -122v-335h-149v297q0 37 -17.5 57.5t-50.5 20.5q-40 0 -65 -29t-25 -97v-249h-149v715z" />
    <glyph glyph-name="i" unicode="i" horiz-adv-x="240" 
d="M48 0v484h149v-484h-149zM54.5 561q-27.5 25 -27.5 63t27.5 62.5t68.5 24.5t68.5 -25.5t27.5 -61.5q0 -37 -27 -62.5t-69 -25.5q-41 0 -68.5 25z" />
    <glyph glyph-name="j" unicode="j" horiz-adv-x="256" 
d="M-30 -205l12 125q15 -3 30 -3q34 0 43 17.5t9 40.5v509h149v-494q0 -93 -49 -146.5t-137 -53.5q-36 0 -57 5zM70.5 561q-27.5 25 -27.5 63t27.5 62.5t68.5 24.5t68.5 -25.5t27.5 -61.5q0 -37 -27 -62.5t-69 -25.5q-41 0 -68.5 25z" />
    <glyph glyph-name="k" unicode="k" horiz-adv-x="556" 
d="M48 0v715h149v-394l153 163h186l-191 -199l198 -285h-177l-126 195l-43 -41v-154h-149z" />
    <glyph glyph-name="l" unicode="l" horiz-adv-x="240" 
d="M48 0v715h149v-715h-149z" />
    <glyph glyph-name="m" unicode="m" horiz-adv-x="822" 
d="M48 484h149v-61h1q19 33 52 54.5t81 21.5q40 0 74.5 -19t54.5 -60q26 38 60.5 58.5t87.5 20.5q66 0 118.5 -39.5t52.5 -146.5v-313h-150v302q0 73 -59 73q-44 0 -63 -32.5t-19 -78.5v-264h-150v302q0 73 -61 73q-44 0 -62 -32t-18 -79v-264h-149v484z" />
    <glyph glyph-name="n" unicode="n" horiz-adv-x="547" 
d="M48 484h149v-61h1q20 33 58 54t86 21q69 0 115.5 -40t46.5 -121v-337h-149v300q0 34 -17.5 55t-50.5 21q-40 0 -65 -29.5t-25 -89.5v-257h-149v484z" />
    <glyph glyph-name="o" unicode="o" horiz-adv-x="554" 
d="M149.5 12.5q-57.5 29.5 -92 87.5t-34.5 141t34.5 142t92 89t124.5 30q68 0 126.5 -30t94 -89t35.5 -141q0 -81 -34.5 -139.5t-93 -89t-127.5 -30.5q-68 0 -125.5 29.5zM349.5 140.5q28.5 32.5 28.5 101.5q0 71 -29 103.5t-73 32.5q-43 0 -72 -33.5t-29 -102.5
q0 -68 28.5 -101t72.5 -33q45 0 73.5 32.5z" />
    <glyph glyph-name="p" unicode="p" horiz-adv-x="568" 
d="M48 484h149v-60h1q21 33 56 54t80 21q50 0 98.5 -25.5t80.5 -83t32 -146.5q0 -88 -32 -146t-80 -85t-98 -27q-86 0 -137 71h-1v-257h-149v684zM367 143q27 35 27 101q0 67 -26.5 100t-72.5 33t-73 -33.5t-27 -100.5q0 -64 27 -99.5t73 -35.5q45 0 72 35z" />
    <glyph glyph-name="q" unicode="q" horiz-adv-x="568" 
d="M371 57h-1q-19 -31 -55.5 -51t-79.5 -20q-49 0 -98 27t-81.5 85.5t-32.5 146.5q0 87 32 144.5t80.5 83.5t97.5 26q46 0 82 -21.5t56 -52.5h1v59h149v-684h-150v257zM345.5 143q26.5 35 26.5 100q0 66 -26.5 100t-72.5 34t-73 -33.5t-27 -99.5q0 -65 26.5 -100.5
t73.5 -35.5q46 0 72.5 35z" />
    <glyph glyph-name="r" unicode="r" horiz-adv-x="390" 
d="M48 484h149v-66h1q45 81 117 81q17 0 35 -4.5t31 -12.5l-25 -137q-30 12 -64 12q-50 0 -72.5 -38.5t-22.5 -112.5v-206h-149v484z" />
    <glyph glyph-name="s" unicode="s" horiz-adv-x="480" 
d="M85 25q-56 42 -69 101l128 40q8 -31 33 -53.5t67 -22.5q27 0 43 11t16 31q0 19 -13.5 30t-33.5 17t-62 16q-50 12 -84 27t-56 44t-22 76q0 75 55 117.5t150 42.5q94 0 148 -39t71 -91l-122 -42q-13 27 -37.5 47t-58.5 20q-24 0 -38 -11.5t-14 -30.5q0 -23 20 -32.5
t48 -16t37 -8.5q76 -18 120.5 -50.5t44.5 -100.5q0 -72 -52.5 -118t-159.5 -46q-103 0 -159 42z" />
    <glyph glyph-name="t" unicode="t" horiz-adv-x="398" 
d="M150 20.5q-40 34.5 -40 87.5v257h-91v119h54q37 0 37 37v95l149 32v-164h115v-119h-115v-222q0 -35 40 -35q23 0 44 11l30 -109q-45 -24 -106 -24q-77 0 -117 34.5z" />
    <glyph glyph-name="u" unicode="u" horiz-adv-x="547" 
d="M91.5 26q-48.5 40 -48.5 121v337h149v-302q0 -34 18 -54t50 -20q40 0 65 28.5t25 87.5v260h150v-484h-150v59h-1q-49 -73 -141 -73q-68 0 -116.5 40z" />
    <glyph glyph-name="v" unicode="v" horiz-adv-x="534" 
d="M187 0l-178 484h163l97 -309l94 309h162l-182 -484h-156z" />
    <glyph glyph-name="w" unicode="w" horiz-adv-x="777" 
d="M172 0l-161 484h159l81 -277l82 277h112l81 -277l82 277h158l-161 -484h-131l-85 281l-85 -281h-132z" />
    <glyph glyph-name="x" unicode="x" horiz-adv-x="558" 
d="M12 0l177 245l-167 239h175l82 -133h2l84 133h168l-161 -233l174 -251h-171l-96 147h-2l-95 -147h-170z" />
    <glyph glyph-name="y" unicode="y" horiz-adv-x="529" 
d="M28 -194l7 121h90q34 0 48.5 23t12.5 55l-175 479h154l98 -328l103 328h151l-168 -459q-24 -67 -50 -112t-77 -78.5t-133 -33.5q-31 0 -61 5z" />
    <glyph glyph-name="z" unicode="z" horiz-adv-x="497" 
d="M40 0v114l237 246h-229v124h407v-114l-232 -246h243v-124h-426z" />
    <glyph glyph-name="braceleft" unicode="{" horiz-adv-x="509" 
d="M330.5 -165.5q-45.5 9.5 -74 51.5t-34.5 137q-5 74 -15 113.5t-44 69.5t-106 47v119q72 17 106.5 48.5t44.5 72t14 112.5q6 92 39 135t79.5 52.5t129.5 9.5h10v-140h-10q-39 0 -60.5 -5t-35.5 -28.5t-17 -74.5q-4 -84 -11.5 -126.5t-31.5 -73t-76 -40.5q51 -10 76 -44.5
t32.5 -79.5t10.5 -115q2 -52 15.5 -75.5t34.5 -29t62 -5.5h11v-140h-11q-93 0 -138.5 9.5z" />
    <glyph glyph-name="bar" unicode="|" horiz-adv-x="249" 
d="M57 -170v933h135v-933h-135z" />
    <glyph glyph-name="braceright" unicode="}" horiz-adv-x="509" 
d="M29 -35h10q39 0 60.5 5.5t35.5 28.5t17 75q4 84 11.5 126.5t32 72.5t75.5 40q-51 11 -76.5 45t-32.5 78.5t-10 116.5q-2 52 -15.5 75.5t-34.5 29t-62 5.5h-11v139h11q91 0 136.5 -9.5t75 -51.5t35.5 -136q4 -73 14 -112.5t44 -70.5t107 -48v-119q-72 -17 -106.5 -48.5
t-44.5 -72t-14 -112.5q-6 -92 -39 -135t-79.5 -52.5t-129.5 -9.5h-10v140z" />
    <glyph glyph-name="asciitilde" unicode="~" horiz-adv-x="717" 
d="M435.5 237.5q-30.5 12.5 -70.5 36.5q-33 19 -53.5 28t-40.5 9q-54 0 -123 -67l-101 111q46 52 104 86t120 34q40 0 72 -13t72 -38q33 -19 50.5 -27t37.5 -8q21 0 37.5 10.5t34.5 30.5l95 -107q-23 -36 -69 -67t-100 -31q-35 0 -65.5 12.5z" />
    <glyph glyph-name="exclamdown" unicode="&#xa1;" horiz-adv-x="317" 
d="M94 289h131q6 -256 22 -489h-177q17 244 24 489zM84 357.5q-31 31.5 -31 75.5t30.5 74.5t74.5 30.5t75 -31t31 -75t-31 -75t-75 -31q-43 0 -74 31.5z" />
    <glyph glyph-name="cent" unicode="&#xa2;" horiz-adv-x="556" 
d="M222 -11q-85 19 -137 86.5t-52 182.5q0 92 36 154.5t94.5 92t126.5 29.5h5l9 63h77l-10 -75q64 -21 106.5 -72.5t51.5 -127.5l-143 -19q-7 49 -35 74l-34 -255q28 7 47.5 30t21.5 59l143 -7q-10 -104 -71.5 -161.5t-159.5 -60.5l-12 -87h-77zM277 398q-41 -4 -69 -38.5
t-28 -101.5q0 -52 17 -83.5t44 -45.5z" />
    <glyph glyph-name="sterling" unicode="&#xa3;" horiz-adv-x="696" 
d="M127.5 1q-33.5 15 -55.5 46.5t-22 76.5q0 59 37 96t90 37q74 0 119 -78q4 20 4 39q0 27 -7 48.5t-20 44.5h-166v110h102q-31 51 -31 106q0 62 33.5 106t87 67t113.5 23q91 0 148 -52t71 -146l-128 -31q-9 51 -31 79t-66 28q-42 0 -67.5 -24.5t-25.5 -64.5t40 -91h215
v-110h-151q17 -39 17 -76q0 -64 -42 -117q24 -2 39 -2q54 0 76.5 20t23.5 71l132 -9q-7 -97 -56.5 -154.5t-150.5 -57.5q-91 0 -145 48q-50 -48 -116 -48q-34 0 -67.5 15zM254 106q-8 21 -24 39t-41 18q-17 0 -27.5 -9.5t-10.5 -25.5q0 -17 15 -28t38 -11q29 0 50 17z" />
    <glyph glyph-name="currency" unicode="&#xa4;" horiz-adv-x="624" 
d="M454 97q-68 -43 -144 -43q-77 0 -143 43l-42 -42l-63 63l42 42q-43 65 -43 145t43 142l-43 43l66 66l42 -42q64 43 142 43t146 -44l42 43l64 -64l-43 -42q44 -67 44 -146q0 -78 -43 -142l42 -42l-66 -66zM307 143q33 0 64 12.5t55 36.5t36 54.5t12 62.5q0 66 -46 112
t-112 46q-32 0 -62.5 -12t-54.5 -36t-36.5 -55t-12.5 -64q0 -67 45 -112t112 -45z" />
    <glyph glyph-name="yen" unicode="&#xa5;" horiz-adv-x="611" 
d="M237 0v94h-155v110h155v47h-161v111h104l-176 339h157l147 -306l147 306h152l-176 -339h105v-111h-161v-47h153v-110h-153v-94h-138z" />
    <glyph glyph-name="brokenbar" unicode="&#xa6;" horiz-adv-x="251" 
d="M57 407v356h137v-356h-137zM57 -170v349h137v-349h-137z" />
    <glyph glyph-name="section" unicode="&#xa7;" horiz-adv-x="666" 
d="M98 -13l151 35q3 -31 22 -56.5t55 -25.5q22 0 40.5 12.5t18.5 37.5q0 21 -11.5 33t-28.5 22l-166 95q-114 65 -114 168q0 102 105 153q-48 51 -48 112q0 45 24.5 84t74 63t119.5 24q90 0 143.5 -40.5t65.5 -110.5l-145 -43q-3 29 -18.5 49.5t-46.5 20.5
q-26 0 -41.5 -13.5t-15.5 -34.5t16 -34.5t44 -26.5l138 -65q55 -26 92 -65.5t37 -107.5q0 -59 -30.5 -101t-80.5 -64q51 -51 51 -115q0 -51 -27.5 -91t-79.5 -63t-121 -23q-183 0 -223 171zM463 242q0 39 -48 65l-165 88q-19 -9 -31.5 -25t-12.5 -37q0 -22 13 -37t34 -27
l162 -88q48 21 48 61z" />
    <glyph glyph-name="dieresis" unicode="&#xa8;" horiz-adv-x="529" 
d="M305.5 604q-26.5 24 -26.5 57t26 56.5t63 23.5t64.5 -24t27.5 -57t-27 -56.5t-64 -23.5t-63.5 24zM96.5 603.5q-27.5 23.5 -27.5 56.5t27 57t63 24q37 0 64 -24.5t27 -57.5q0 -32 -26.5 -55.5t-63.5 -23.5q-36 0 -63.5 23.5z" />
    <glyph glyph-name="copyright" unicode="&#xa9;" horiz-adv-x="819" 
d="M217 31.5q-87 48.5 -137.5 134t-50.5 190.5q0 104 49.5 190t136.5 136t194 50t194 -50t137 -136.5t50 -192.5q0 -105 -49.5 -189.5t-136.5 -132.5t-193 -48q-107 0 -194 48.5zM273.5 202q-56.5 53 -56.5 160q0 73 27.5 120.5t71.5 69.5t97 22q78 0 122.5 -46t57.5 -107
l-92 -22q-6 39 -28.5 67t-62.5 28q-42 0 -69.5 -33t-27.5 -99t28 -99t72 -33q40 0 61 25.5t26 60.5l91 -18q-10 -58 -53 -103.5t-124 -45.5q-84 0 -140.5 53zM553.5 113q63.5 37 98.5 100.5t35 139.5q0 77 -36.5 143t-100 104.5t-141.5 38.5t-141.5 -38.5t-99.5 -103.5
t-36 -142q0 -74 34.5 -138t98 -102.5t145.5 -38.5q80 0 143.5 37z" />
    <glyph glyph-name="ordfeminine" unicode="&#xaa;" horiz-adv-x="422" 
d="M127.5 437.5q-29.5 15.5 -50 50t-20.5 89.5q0 53 19.5 87t49 49.5t58.5 15.5q25 0 45 -11t34 -30v33h102v-291h-100v33h-1q-10 -18 -31.5 -29.5t-47.5 -11.5q-28 0 -57.5 15.5zM251 521.5q14 19.5 14 55.5t-14 54.5t-39 18.5q-24 0 -38.5 -18.5t-14.5 -54.5q0 -37 14 -56
t38 -19q26 0 40 19.5z" />
    <glyph glyph-name="guillemotleft" unicode="&#xab;" horiz-adv-x="573" 
d="M154 50l-106 204v13l106 193h150l-104 -198l104 -212h-150zM377 50l-106 204v13l106 193h149l-103 -198l103 -212h-149z" />
    <glyph glyph-name="logicalnot" unicode="&#xac;" horiz-adv-x="680" 
d="M496 194v187h-449v137h586v-324h-137z" />
    <glyph glyph-name="uni00AD" unicode="&#xad;" horiz-adv-x="492" 
d="M57 195v140h378v-140h-378z" />
    <glyph glyph-name="registered" unicode="&#xae;" horiz-adv-x="843" 
d="M229 31.5q-87 48.5 -137.5 134t-50.5 190.5q0 104 49.5 190t136.5 136t194 50t194 -50t137 -136.5t50 -192.5q0 -105 -49.5 -189.5t-136.5 -132.5t-193 -48q-107 0 -194 48.5zM565.5 113q63.5 37 98.5 100.5t35 139.5q0 77 -36.5 143t-100 104.5t-141.5 38.5
t-141.5 -38.5t-99.5 -103.5t-36 -142q0 -74 34.5 -138t98 -102.5t145.5 -38.5q80 0 143.5 37zM273 567h177q69 0 105.5 -31t36.5 -88q0 -53 -28 -82t-63 -40l102 -160v-3h-108l-88 146h-44v-146h-90v404zM429 379q29 0 48.5 14t19.5 43q0 31 -18 43.5t-42 12.5h-74v-113h66z
" />
    <glyph glyph-name="macron" unicode="&#xaf;" horiz-adv-x="482" 
d="M69 588v114h343v-114h-343z" />
    <glyph glyph-name="degree" unicode="&#xb0;" horiz-adv-x="566" 
d="M173 347q-49 27 -77.5 75.5t-28.5 109.5t28 109t77.5 74.5t110.5 26.5t110 -26.5t77.5 -74.5t28.5 -109t-28 -109t-77.5 -75.5t-110.5 -27.5t-110 27zM343 472q23 25 23 60q0 34 -24 58t-59 24t-58.5 -23.5t-23.5 -58.5q0 -36 23.5 -60.5t59.5 -24.5t59 25z" />
    <glyph glyph-name="plusminus" unicode="&#xb1;" horiz-adv-x="571" 
d="M220 186v117h-117v118h117v112h131v-112h117v-118h-117v-117h-131zM47 34v124h477v-124h-477z" />
    <glyph glyph-name="uni00B2" unicode="&#xb2;" horiz-adv-x="387" 
d="M45 377q114 92 156 143t42 89q0 23 -12 37t-36 14q-34 0 -50 -28.5t-17 -68.5l-90 26q5 62 44.5 108t118.5 46q70 0 108 -36t38 -90q0 -50 -39.5 -105.5t-114.5 -112.5h153v-90h-301v68z" />
    <glyph glyph-name="uni00B3" unicode="&#xb3;" horiz-adv-x="403" 
d="M76 340.5q-41 38.5 -45 92.5l106 13q1 -25 16 -44t49 -19q27 0 43 13t16 37q0 31 -28 46t-71 13v71q42 2 64.5 15.5t22.5 39.5q0 19 -13 31.5t-36 12.5q-33 0 -48.5 -21t-17.5 -48l-93 12q2 56 39.5 97t118.5 41q70 0 112 -32t42 -79q0 -26 -13 -47t-31.5 -34t-34.5 -16
v-1q39 -10 65 -32.5t26 -70.5q0 -61 -45 -95t-120 -34q-83 0 -124 38.5z" />
    <glyph glyph-name="acute" unicode="&#xb4;" horiz-adv-x="399" 
d="M69 577l69 148h191l-123 -148h-137z" />
    <glyph glyph-name="uni00B5" unicode="&#xb5;" horiz-adv-x="612" 
d="M54 520h169v-286q0 -55 18.5 -81.5t58.5 -26.5q41 0 64.5 31t23.5 89v274h170v-520h-155v37h-1q-45 -51 -107 -51q-24 0 -43.5 6t-28.5 14v-172h-169v686z" />
    <glyph glyph-name="paragraph" unicode="&#xb6;" horiz-adv-x="678" 
d="M335 252q-125 0 -201.5 59.5t-76.5 174.5q0 111 73.5 170t204.5 59h286v-873h-110v757h-67v-757h-109v410z" />
    <glyph glyph-name="periodcentered" unicode="&#xb7;" horiz-adv-x="319" 
d="M85.5 230.5q-28.5 28.5 -28.5 68.5q0 41 30 69t74 28t72.5 -28.5t28.5 -68.5q0 -42 -30 -69.5t-73 -27.5q-45 0 -73.5 28.5z" />
    <glyph glyph-name="cedilla" unicode="&#xb8;" horiz-adv-x="388" 
d="M109.5 -196q-32.5 26 -40.5 64l96 11q4 -21 24 -21q21 0 21 23q0 12 -6.5 18t-15.5 6q-7 0 -13 -4t-9 -8l-64 40l56 67h95l-40 -42q8 4 26 4q36 0 58 -21.5t22 -60.5q0 -47 -33 -74.5t-89 -27.5q-55 0 -87.5 26z" />
    <glyph glyph-name="uni00B9" unicode="&#xb9;" horiz-adv-x="309" 
d="M136 607q-10 -17 -31.5 -27t-40.5 -10h-25v95h18q33 0 56.5 20t28.5 50h95v-426h-101v298z" />
    <glyph glyph-name="ordmasculine" unicode="&#xba;" horiz-adv-x="426" 
d="M102 460.5q-45 40.5 -45 114.5q0 48 21 84t56 54.5t77 18.5q41 0 77.5 -18t58.5 -53.5t22 -84.5t-21.5 -84t-57.5 -53.5t-78 -18.5q-65 0 -110 40.5zM251.5 520q15.5 18 15.5 56q0 39 -16 56.5t-39 17.5q-22 0 -37.5 -18.5t-15.5 -56.5q0 -36 15 -54.5t38 -18.5
q24 0 39.5 18z" />
    <glyph glyph-name="guillemotright" unicode="&#xbb;" horiz-adv-x="573" 
d="M47 50l104 212l-104 198h150l106 -193v-13l-106 -204h-150zM270 50l103 212l-103 198h149l106 -193v-13l-106 -204h-149z" />
    <glyph glyph-name="onequarter" unicode="&#xbc;" horiz-adv-x="902" 
d="M136 607q-10 -17 -31.5 -27t-40.5 -10h-25v95h18q33 0 56.5 20t28.5 50h95v-426h-101v298zM232 -19l-73 44l431 712l73 -43zM700 0v89h-199v72l190 265h113v-261h63v-76h-63v-89h-104zM596 165h109v155h-1z" />
    <glyph glyph-name="onehalf" unicode="&#xbd;" horiz-adv-x="899" 
d="M136 607q-10 -17 -31.5 -27t-40.5 -10h-25v95h18q33 0 56.5 20t28.5 50h95v-426h-101v298zM232 -19l-73 44l431 712l73 -43zM558 68q114 92 156 143t42 89q0 23 -12 37t-36 14q-34 0 -50 -28.5t-17 -68.5l-90 26q5 62 44.5 108t118.5 46q70 0 108 -36t38 -90
q0 -50 -39.5 -105.5t-114.5 -112.5h153v-90h-301v68z" />
    <glyph glyph-name="threequarters" unicode="&#xbe;" horiz-adv-x="972" 
d="M76 340.5q-41 38.5 -45 92.5l106 13q1 -25 16 -44t49 -19q27 0 43 13t16 37q0 31 -28 46t-71 13v71q42 2 64.5 15.5t22.5 39.5q0 19 -13 31.5t-36 12.5q-33 0 -48.5 -21t-17.5 -48l-93 12q2 56 39.5 97t118.5 41q70 0 112 -32t42 -79q0 -26 -13 -47t-31.5 -34t-34.5 -16
v-1q39 -10 65 -32.5t26 -70.5q0 -61 -45 -95t-120 -34q-83 0 -124 38.5zM301 -19l-73 44l431 712l73 -43zM769 0v89h-199v72l190 265h113v-261h63v-76h-63v-89h-104zM665 165h109v155h-1z" />
    <glyph glyph-name="questiondown" unicode="&#xbf;" horiz-adv-x="616" 
d="M169.5 -196.5q-57.5 25.5 -87.5 72t-30 106.5q0 62 29 99t81 68q53 32 70.5 45.5t17.5 29.5q0 11 -7.5 25.5t-9.5 18.5l143 27q14 -15 25 -38t11 -50q0 -32 -14.5 -55t-39 -41t-70.5 -44q-37 -22 -54.5 -38t-17.5 -42q0 -30 24.5 -48t67.5 -18q55 0 80 29.5t25 68.5
l154 -20q-1 -54 -25.5 -104t-82 -83.5t-151.5 -33.5q-81 0 -138.5 25.5zM239.5 354.5q-32.5 31.5 -32.5 75.5q0 45 32 76.5t77 31.5q46 0 79 -31.5t33 -76.5q0 -44 -33 -75.5t-79 -31.5q-44 0 -76.5 31.5z" />
    <glyph glyph-name="Agrave" unicode="&#xc0;" horiz-adv-x="733" 
d="M13 0l253 715h199l254 -715h-166l-54 157h-271l-53 -157h-162zM275 294h177l-89 257h-1zM311 747l-123 148h191l69 -148h-137z" />
    <glyph glyph-name="Aacute" unicode="&#xc1;" horiz-adv-x="733" 
d="M13 0l253 715h199l254 -715h-166l-54 157h-271l-53 -157h-162zM275 294h177l-89 257h-1zM296 747l69 148h191l-123 -148h-137z" />
    <glyph glyph-name="Acircumflex" unicode="&#xc2;" horiz-adv-x="733" 
d="M13 0l253 715h199l254 -715h-166l-54 157h-271l-53 -157h-162zM275 294h177l-89 257h-1zM186 746l94 149h188l82 -149h-140l-40 67l-42 -67h-142z" />
    <glyph glyph-name="Atilde" unicode="&#xc3;" horiz-adv-x="733" 
d="M13 0l253 715h199l254 -715h-166l-54 157h-271l-53 -157h-162zM275 294h177l-89 257h-1zM165 781q22 61 53.5 88t76.5 27q24 0 40 -6t35 -18q14 -8 24 -12.5t24 -4.5q38 0 57 40l88 -29q-23 -69 -56.5 -95t-73.5 -26q-22 0 -37.5 6t-38.5 19q-28 16 -48 16q-37 0 -60 -44
z" />
    <glyph glyph-name="Adieresis" unicode="&#xc4;" horiz-adv-x="733" 
d="M13 0l253 715h199l254 -715h-166l-54 157h-271l-53 -157h-162zM275 294h177l-89 257h-1zM199.5 773.5q-27.5 23.5 -27.5 56.5t27 57t63 24q37 0 64 -24.5t27 -57.5q0 -32 -26.5 -55.5t-63.5 -23.5q-36 0 -63.5 23.5zM408.5 774q-26.5 24 -26.5 57t26 56.5t63 23.5
t64.5 -24t27.5 -57t-27 -56.5t-64 -23.5t-63.5 24z" />
    <glyph glyph-name="Aring" unicode="&#xc5;" horiz-adv-x="733" 
d="M13 0l253 715h199l254 -715h-166l-54 157h-271l-53 -157h-162zM275 294h177l-89 257h-1zM277 767.5q-36 35.5 -36 88.5t36.5 87.5t91.5 34.5q54 0 90.5 -35t36.5 -88t-35.5 -88t-90.5 -35q-57 0 -93 35.5zM401 821.5q13 13.5 13 33.5q0 21 -13.5 34t-32.5 13
q-18 0 -32 -13.5t-14 -33.5q0 -21 13.5 -34t32.5 -13q20 0 33 13.5z" />
    <glyph glyph-name="AE" unicode="&#xc6;" horiz-adv-x="992" 
d="M12 0l312 715h628v-140h-335v-144h293v-130h-293v-162h330v-139h-486v171h-206l-73 -171h-170zM313 308h148v259h-38z" />
    <glyph glyph-name="Ccedilla" unicode="&#xc7;" horiz-adv-x="727" 
d="M256.5 -195q-32.5 26 -40.5 64l96 11q4 -21 24 -21q21 0 21 23q0 12 -6.5 18t-15.5 6q-7 0 -13 -4t-9 -8l-64 40l47 56q-119 24 -193 115.5t-74 252.5q0 128 47.5 212t125.5 123.5t170 39.5q97 0 164.5 -40.5t104 -101t50.5 -126.5l-159 -39q-12 70 -50.5 119.5
t-112.5 49.5q-77 0 -126 -59t-49 -176q0 -119 50.5 -179.5t129.5 -60.5q74 0 111 46.5t45 108.5l157 -32q-12 -66 -47.5 -124.5t-100 -97t-157.5 -39.5l-22 -23q8 4 26 4q36 0 58 -21.5t22 -60.5q0 -47 -33 -74.5t-89 -27.5q-55 0 -87.5 26z" />
    <glyph glyph-name="Egrave" unicode="&#xc8;" horiz-adv-x="613" 
d="M57 0v715h513v-140h-356v-144h312v-130h-312v-161h352v-140h-509zM263 747l-123 148h191l69 -148h-137z" />
    <glyph glyph-name="Eacute" unicode="&#xc9;" horiz-adv-x="613" 
d="M57 0v715h513v-140h-356v-144h312v-130h-312v-161h352v-140h-509zM249 747l69 148h191l-123 -148h-137z" />
    <glyph glyph-name="Ecircumflex" unicode="&#xca;" horiz-adv-x="613" 
d="M57 0v715h513v-140h-356v-144h312v-130h-312v-161h352v-140h-509zM139 746l94 149h188l82 -149h-140l-40 67l-42 -67h-142z" />
    <glyph glyph-name="Edieresis" unicode="&#xcb;" horiz-adv-x="613" 
d="M57 0v715h513v-140h-356v-144h312v-130h-312v-161h352v-140h-509zM151.5 773.5q-27.5 23.5 -27.5 56.5t27 57t63 24q37 0 64 -24.5t27 -57.5q0 -32 -26.5 -55.5t-63.5 -23.5q-36 0 -63.5 23.5zM360.5 774q-26.5 24 -26.5 57t26 56.5t63 23.5t64.5 -24t27.5 -57t-27 -56.5
t-64 -23.5t-63.5 24z" />
    <glyph glyph-name="Igrave" unicode="&#xcc;" horiz-adv-x="271" 
d="M57 0v715h157v-715h-157zM78 747l-123 148h191l69 -148h-137z" />
    <glyph glyph-name="Iacute" unicode="&#xcd;" horiz-adv-x="271" 
d="M57 0v715h157v-715h-157zM63 747l69 148h191l-123 -148h-137z" />
    <glyph glyph-name="Icircumflex" unicode="&#xce;" horiz-adv-x="271" 
d="M57 0v715h157v-715h-157zM-29 747l85 148h169l74 -148h-126l-36 66l-38 -66h-128z" />
    <glyph glyph-name="Idieresis" unicode="&#xcf;" horiz-adv-x="271" 
d="M57 0v715h157v-715h-157zM-9.5 761.5q-23.5 20.5 -23.5 48.5t23 48.5t54 20.5q32 0 55 -20.5t23 -49.5q0 -27 -23 -47.5t-54 -20.5t-54.5 20.5zM169.5 761.5q-22.5 20.5 -22.5 48.5q0 29 22.5 49t53.5 20q32 0 55.5 -20.5t23.5 -49.5q0 -28 -23.5 -48t-55.5 -20
q-31 0 -53.5 20.5z" />
    <glyph glyph-name="Eth" unicode="&#xd0;" horiz-adv-x="702" 
d="M57 311h-64v111h64v293h254q123 0 204.5 -47t119.5 -127.5t38 -181.5q0 -106 -41 -187t-122.5 -126.5t-198.5 -45.5h-254v311zM334 140q90 0 133.5 58.5t43.5 158.5q0 103 -45 160.5t-133 57.5h-119v-153h143v-111h-143v-171h120z" />
    <glyph glyph-name="Ntilde" unicode="&#xd1;" horiz-adv-x="731" 
d="M57 0v715h172l289 -480h2v480h154v-715h-170l-292 482h-1v-482h-154zM168 781q22 61 53.5 88t76.5 27q24 0 40 -6t35 -18q14 -8 24 -12.5t24 -4.5q38 0 57 40l88 -29q-23 -69 -56.5 -95t-73.5 -26q-22 0 -37.5 6t-38.5 19q-28 16 -48 16q-37 0 -60 -44z" />
    <glyph glyph-name="Ograve" unicode="&#xd2;" horiz-adv-x="765" 
d="M208.5 26q-81.5 44 -130.5 130t-49 204t49 202.5t130.5 127.5t177.5 43t175.5 -43.5t127 -128t47.5 -202.5t-47.5 -203t-127.5 -129.5t-175 -44.5q-96 0 -177.5 44zM518.5 181q52.5 59 52.5 177q0 119 -53 177t-134 58q-52 0 -95 -24.5t-69 -77t-26 -131.5
q0 -81 26.5 -134.5t69.5 -78.5t95 -25q81 0 133.5 59zM325 751l-123 148h191l69 -148h-137z" />
    <glyph glyph-name="Oacute" unicode="&#xd3;" horiz-adv-x="765" 
d="M208.5 26q-81.5 44 -130.5 130t-49 204t49 202.5t130.5 127.5t177.5 43t175.5 -43.5t127 -128t47.5 -202.5t-47.5 -203t-127.5 -129.5t-175 -44.5q-96 0 -177.5 44zM518.5 181q52.5 59 52.5 177q0 119 -53 177t-134 58q-52 0 -95 -24.5t-69 -77t-26 -131.5
q0 -81 26.5 -134.5t69.5 -78.5t95 -25q81 0 133.5 59zM311 751l69 148h191l-123 -148h-137z" />
    <glyph glyph-name="Ocircumflex" unicode="&#xd4;" horiz-adv-x="765" 
d="M208.5 26q-81.5 44 -130.5 130t-49 204t49 202.5t130.5 127.5t177.5 43t175.5 -43.5t127 -128t47.5 -202.5t-47.5 -203t-127.5 -129.5t-175 -44.5q-96 0 -177.5 44zM518.5 181q52.5 59 52.5 177q0 119 -53 177t-134 58q-52 0 -95 -24.5t-69 -77t-26 -131.5
q0 -81 26.5 -134.5t69.5 -78.5t95 -25q81 0 133.5 59zM201 751l94 148h188l82 -148h-140l-40 66l-42 -66h-142z" />
    <glyph glyph-name="Otilde" unicode="&#xd5;" horiz-adv-x="765" 
d="M208.5 26q-81.5 44 -130.5 130t-49 204t49 202.5t130.5 127.5t177.5 43t175.5 -43.5t127 -128t47.5 -202.5t-47.5 -203t-127.5 -129.5t-175 -44.5q-96 0 -177.5 44zM518.5 181q52.5 59 52.5 177q0 119 -53 177t-134 58q-52 0 -95 -24.5t-69 -77t-26 -131.5
q0 -81 26.5 -134.5t69.5 -78.5t95 -25q81 0 133.5 59zM180 785q22 61 53.5 88t76.5 27q24 0 40 -6t35 -18q14 -8 24 -12.5t24 -4.5q38 0 57 40l88 -29q-23 -69 -56.5 -95t-73.5 -26q-22 0 -37.5 6t-38.5 19q-28 16 -48 16q-37 0 -60 -44z" />
    <glyph glyph-name="Odieresis" unicode="&#xd6;" horiz-adv-x="765" 
d="M208.5 26q-81.5 44 -130.5 130t-49 204t49 202.5t130.5 127.5t177.5 43t175.5 -43.5t127 -128t47.5 -202.5t-47.5 -203t-127.5 -129.5t-175 -44.5q-96 0 -177.5 44zM518.5 181q52.5 59 52.5 177q0 119 -53 177t-134 58q-52 0 -95 -24.5t-69 -77t-26 -131.5
q0 -81 26.5 -134.5t69.5 -78.5t95 -25q81 0 133.5 59zM213.5 777.5q-27.5 23.5 -27.5 56.5t27 57t63 24q37 0 64 -24.5t27 -57.5q0 -32 -26.5 -55.5t-63.5 -23.5q-36 0 -63.5 23.5zM422.5 778q-26.5 24 -26.5 57t26 56.5t63 23.5t64.5 -24t27.5 -57t-27 -56.5t-64 -23.5
t-63.5 24z" />
    <glyph glyph-name="multiply" unicode="&#xd7;" horiz-adv-x="650" 
d="M138 46l-84 83l184 190l-184 183l85 86l186 -185l186 185l85 -88l-184 -184l184 -185l-87 -85l-184 185z" />
    <glyph glyph-name="Oslash" unicode="&#xd8;" horiz-adv-x="765" 
d="M41 39l65 74q-77 99 -77 247q0 118 49 202.5t130 127.5t176 43q121 0 212 -65l59 67l69 -63l-62 -70q74 -98 74 -244q0 -117 -47.5 -202.5t-127.5 -129.5t-175 -44q-59 0 -113 16.5t-99 49.5l-63 -71zM518.5 181q52.5 59 52.5 179q0 66 -19 117l-280 -318q49 -37 113 -37
q81 0 133.5 59zM497 556q-47 37 -113 37q-52 0 -95 -24.5t-69 -77t-26 -131.5q0 -70 21 -123z" />
    <glyph glyph-name="Ugrave" unicode="&#xd9;" horiz-adv-x="710" 
d="M198 13.5q-67 31.5 -104 86.5t-37 123v492h157v-454q0 -70 37 -105.5t105 -35.5q67 0 103.5 35.5t36.5 105.5v454h157v-491q0 -69 -38 -124t-106.5 -86.5t-155.5 -31.5q-88 0 -155 31.5zM301 747l-123 148h191l69 -148h-137z" />
    <glyph glyph-name="Uacute" unicode="&#xda;" horiz-adv-x="710" 
d="M198 13.5q-67 31.5 -104 86.5t-37 123v492h157v-454q0 -70 37 -105.5t105 -35.5q67 0 103.5 35.5t36.5 105.5v454h157v-491q0 -69 -38 -124t-106.5 -86.5t-155.5 -31.5q-88 0 -155 31.5zM286 747l69 148h191l-123 -148h-137z" />
    <glyph glyph-name="Ucircumflex" unicode="&#xdb;" horiz-adv-x="710" 
d="M198 13.5q-67 31.5 -104 86.5t-37 123v492h157v-454q0 -70 37 -105.5t105 -35.5q67 0 103.5 35.5t36.5 105.5v454h157v-491q0 -69 -38 -124t-106.5 -86.5t-155.5 -31.5q-88 0 -155 31.5zM176 747l94 148h188l82 -148h-140l-40 66l-42 -66h-142z" />
    <glyph glyph-name="Udieresis" unicode="&#xdc;" horiz-adv-x="710" 
d="M198 13.5q-67 31.5 -104 86.5t-37 123v492h157v-454q0 -70 37 -105.5t105 -35.5q67 0 103.5 35.5t36.5 105.5v454h157v-491q0 -69 -38 -124t-106.5 -86.5t-155.5 -31.5q-88 0 -155 31.5zM188.5 773.5q-27.5 23.5 -27.5 56.5t27 57t63 24q37 0 64 -24.5t27 -57.5
q0 -32 -26.5 -55.5t-63.5 -23.5q-36 0 -63.5 23.5zM397.5 774q-26.5 24 -26.5 57t26 56.5t63 23.5t64.5 -24t27.5 -57t-27 -56.5t-64 -23.5t-63.5 24z" />
    <glyph glyph-name="Yacute" unicode="&#xdd;" horiz-adv-x="680" 
d="M262 0v252l-259 463h179l161 -303l161 303h173l-259 -463v-252h-156zM270 747l69 148h191l-123 -148h-137z" />
    <glyph glyph-name="Thorn" unicode="&#xde;" horiz-adv-x="620" 
d="M57 715h157v-117h129q119 0 191 -57t72 -173q0 -122 -76 -179.5t-191 -57.5h-125v-131h-157v715zM339 268q51 0 79.5 23.5t28.5 72.5q0 95 -108 95h-125v-191h125z" />
    <glyph glyph-name="germandbls" unicode="&#xdf;" horiz-adv-x="631" 
d="M277.5 26q-47.5 43 -61.5 102l119 34q4 -21 20 -37t45 -16q24 0 41.5 12t17.5 39q0 23 -13.5 37.5t-29 21t-46.5 16.5q-56 18 -94 48.5t-38 93.5q0 38 15.5 63t35 38.5t49.5 27.5t47.5 27.5t17.5 33.5q0 21 -21.5 33t-58.5 12q-61 0 -93.5 -34.5t-32.5 -94.5v-483h-149
v469q0 127 74.5 195.5t198.5 68.5q69 0 119.5 -21t77.5 -59t27 -87q0 -56 -30.5 -86t-77.5 -48q-5 -2 -25.5 -10t-30.5 -16.5t-10 -17.5q0 -13 15 -20t49 -16q73 -19 123 -59.5t50 -126.5t-55 -134.5t-143 -48.5q-85 0 -132.5 43z" />
    <glyph glyph-name="agrave" unicode="&#xe0;" horiz-adv-x="557" 
d="M82.5 23q-45.5 37 -45.5 103q0 62 40.5 98t95.5 52t131 28q34 5 45 10t11 20q0 20 -17.5 35t-58.5 15q-48 0 -76 -20t-37 -47l-109 63q20 50 77.5 86t152.5 36q93 0 154 -43t58 -139l-5 -183q-1 -17 8.5 -26t28.5 -8v-111q-28 -4 -52 -4q-60 0 -87.5 27.5t-32.5 83.5h-3
q-14 -53 -56.5 -83t-106.5 -30q-70 0 -115.5 37zM323.5 131q31.5 32 33.5 73l2 38q-9 -12 -21.5 -18t-37.5 -11q-43 -10 -65.5 -16.5t-36 -19.5t-13.5 -34q0 -44 56 -44q51 0 82.5 32zM225 545l-123 148h191l69 -148h-137z" />
    <glyph glyph-name="aacute" unicode="&#xe1;" horiz-adv-x="557" 
d="M82.5 23q-45.5 37 -45.5 103q0 62 40.5 98t95.5 52t131 28q34 5 45 10t11 20q0 20 -17.5 35t-58.5 15q-48 0 -76 -20t-37 -47l-109 63q20 50 77.5 86t152.5 36q93 0 154 -43t58 -139l-5 -183q-1 -17 8.5 -26t28.5 -8v-111q-28 -4 -52 -4q-60 0 -87.5 27.5t-32.5 83.5h-3
q-14 -53 -56.5 -83t-106.5 -30q-70 0 -115.5 37zM323.5 131q31.5 32 33.5 73l2 38q-9 -12 -21.5 -18t-37.5 -11q-43 -10 -65.5 -16.5t-36 -19.5t-13.5 -34q0 -44 56 -44q51 0 82.5 32zM211 545l69 148h191l-123 -148h-137z" />
    <glyph glyph-name="acircumflex" unicode="&#xe2;" horiz-adv-x="557" 
d="M82.5 23q-45.5 37 -45.5 103q0 62 40.5 98t95.5 52t131 28q34 5 45 10t11 20q0 20 -17.5 35t-58.5 15q-48 0 -76 -20t-37 -47l-109 63q20 50 77.5 86t152.5 36q93 0 154 -43t58 -139l-5 -183q-1 -17 8.5 -26t28.5 -8v-111q-28 -4 -52 -4q-60 0 -87.5 27.5t-32.5 83.5h-3
q-14 -53 -56.5 -83t-106.5 -30q-70 0 -115.5 37zM323.5 131q31.5 32 33.5 73l2 38q-9 -12 -21.5 -18t-37.5 -11q-43 -10 -65.5 -16.5t-36 -19.5t-13.5 -34q0 -44 56 -44q51 0 82.5 32zM101 545l94 148h188l82 -148h-140l-40 66l-42 -66h-142z" />
    <glyph glyph-name="atilde" unicode="&#xe3;" horiz-adv-x="557" 
d="M82.5 23q-45.5 37 -45.5 103q0 62 40.5 98t95.5 52t131 28q34 5 45 10t11 20q0 20 -17.5 35t-58.5 15q-48 0 -76 -20t-37 -47l-109 63q20 50 77.5 86t152.5 36q93 0 154 -43t58 -139l-5 -183q-1 -17 8.5 -26t28.5 -8v-111q-28 -4 -52 -4q-60 0 -87.5 27.5t-32.5 83.5h-3
q-14 -53 -56.5 -83t-106.5 -30q-70 0 -115.5 37zM323.5 131q31.5 32 33.5 73l2 38q-9 -12 -21.5 -18t-37.5 -11q-43 -10 -65.5 -16.5t-36 -19.5t-13.5 -34q0 -44 56 -44q51 0 82.5 32zM79 579q22 61 53.5 88t76.5 27q24 0 40 -6t35 -18q14 -8 24 -12.5t24 -4.5q38 0 57 40
l88 -29q-23 -69 -56.5 -95t-73.5 -26q-22 0 -37.5 6t-38.5 19q-28 16 -48 16q-37 0 -60 -44z" />
    <glyph glyph-name="adieresis" unicode="&#xe4;" horiz-adv-x="557" 
d="M82.5 23q-45.5 37 -45.5 103q0 62 40.5 98t95.5 52t131 28q34 5 45 10t11 20q0 20 -17.5 35t-58.5 15q-48 0 -76 -20t-37 -47l-109 63q20 50 77.5 86t152.5 36q93 0 154 -43t58 -139l-5 -183q-1 -17 8.5 -26t28.5 -8v-111q-28 -4 -52 -4q-60 0 -87.5 27.5t-32.5 83.5h-3
q-14 -53 -56.5 -83t-106.5 -30q-70 0 -115.5 37zM323.5 131q31.5 32 33.5 73l2 38q-9 -12 -21.5 -18t-37.5 -11q-43 -10 -65.5 -16.5t-36 -19.5t-13.5 -34q0 -44 56 -44q51 0 82.5 32zM113.5 571.5q-27.5 23.5 -27.5 56.5t27 57t63 24q37 0 64 -24.5t27 -57.5
q0 -32 -26.5 -55.5t-63.5 -23.5q-36 0 -63.5 23.5zM322.5 572q-26.5 24 -26.5 57t26 56.5t63 23.5t64.5 -24t27.5 -57t-27 -56.5t-64 -23.5t-63.5 24z" />
    <glyph glyph-name="aring" unicode="&#xe5;" horiz-adv-x="557" 
d="M82.5 23q-45.5 37 -45.5 103q0 62 40.5 98t95.5 52t131 28q34 5 45 10t11 20q0 20 -17.5 35t-58.5 15q-48 0 -76 -20t-37 -47l-109 63q20 50 77.5 86t152.5 36q93 0 154 -43t58 -139l-5 -183q-1 -17 8.5 -26t28.5 -8v-111q-28 -4 -52 -4q-60 0 -87.5 27.5t-32.5 83.5h-3
q-14 -53 -56.5 -83t-106.5 -30q-70 0 -115.5 37zM323.5 131q31.5 32 33.5 73l2 38q-9 -12 -21.5 -18t-37.5 -11q-43 -10 -65.5 -16.5t-36 -19.5t-13.5 -34q0 -44 56 -44q51 0 82.5 32zM191 565.5q-36 35.5 -36 88.5t36.5 87.5t91.5 34.5q54 0 90.5 -35t36.5 -88t-35.5 -88
t-90.5 -35q-57 0 -93 35.5zM315 619.5q13 13.5 13 33.5q0 21 -13.5 34t-32.5 13q-18 0 -32 -13.5t-14 -33.5q0 -21 13.5 -34t32.5 -13q20 0 33 13.5z" />
    <glyph glyph-name="ae" unicode="&#xe6;" horiz-adv-x="862" 
d="M478 13.5q-52 29.5 -80 88.5q-69 -116 -203 -116q-75 0 -120.5 36t-45.5 103q0 57 32 90.5t78 49.5t111 29q39 7 52 9t20 3q30 5 30 28q0 19 -18 33.5t-59 14.5q-47 0 -74 -19.5t-38 -47.5l-109 64q21 50 78.5 86.5t147.5 36.5q58 0 96 -16.5t67 -48.5q36 33 73.5 49
t91.5 16q115 0 172 -68t57 -186v-45h-333q2 -41 30 -69t75 -28q40 0 64.5 20t33.5 47l117 -60q-22 -53 -78 -91t-145 -38q-71 0 -123 29.5zM315 131.5q36 32.5 36 80.5v31q-12 -13 -29 -19t-58 -15q-49 -11 -68 -24t-19 -39q0 -24 14.5 -35.5t38.5 -11.5q49 0 85 32.5z
M683 295q-6 102 -84 102q-39 0 -64 -27.5t-26 -74.5h174z" />
    <glyph glyph-name="ccedilla" unicode="&#xe7;" horiz-adv-x="539" 
d="M204.5 -190q-32.5 26 -40.5 64l96 11q4 -21 24 -21q21 0 21 23q0 12 -6.5 18t-15.5 6q-7 0 -13 -4t-9 -8l-64 40l39 47q-96 12 -154.5 78.5t-58.5 177.5q0 86 35.5 144.5t94.5 87t129 28.5q108 0 156.5 -53.5t67.5 -111.5l-136 -44q-10 34 -28 59.5t-61 25.5t-74 -33
t-31 -105t30.5 -102t73.5 -30q42 0 63.5 26t26.5 56l143 -16q-4 -28 -20.5 -66t-56.5 -74t-106 -47l-22 -23q8 4 26 4q36 0 58 -21.5t22 -60.5q0 -47 -33 -74.5t-89 -27.5q-55 0 -87.5 26z" />
    <glyph glyph-name="egrave" unicode="&#xe8;" horiz-adv-x="539" 
d="M151.5 11.5q-57.5 28.5 -92 86.5t-34.5 142q0 82 33 141.5t91 90t133 30.5q110 0 170 -65.5t60 -185.5v-51h-333q3 -42 33 -68.5t74 -26.5q39 0 62.5 19.5t33.5 48.5l118 -60q-22 -53 -78 -91.5t-142 -38.5q-71 0 -128.5 28.5zM357 298q-3 97 -84 97q-41 0 -64 -26
t-25 -71h173zM213 542l-123 148h191l69 -148h-137z" />
    <glyph glyph-name="eacute" unicode="&#xe9;" horiz-adv-x="539" 
d="M151.5 11.5q-57.5 28.5 -92 86.5t-34.5 142q0 82 33 141.5t91 90t133 30.5q110 0 170 -65.5t60 -185.5v-51h-333q3 -42 33 -68.5t74 -26.5q39 0 62.5 19.5t33.5 48.5l118 -60q-22 -53 -78 -91.5t-142 -38.5q-71 0 -128.5 28.5zM357 298q-3 97 -84 97q-41 0 -64 -26
t-25 -71h173zM198 542l69 148h191l-123 -148h-137z" />
    <glyph glyph-name="ecircumflex" unicode="&#xea;" horiz-adv-x="539" 
d="M151.5 11.5q-57.5 28.5 -92 86.5t-34.5 142q0 82 33 141.5t91 90t133 30.5q110 0 170 -65.5t60 -185.5v-51h-333q3 -42 33 -68.5t74 -26.5q39 0 62.5 19.5t33.5 48.5l118 -60q-22 -53 -78 -91.5t-142 -38.5q-71 0 -128.5 28.5zM357 298q-3 97 -84 97q-41 0 -64 -26
t-25 -71h173zM88 542l94 148h188l82 -148h-140l-40 66l-42 -66h-142z" />
    <glyph glyph-name="edieresis" unicode="&#xeb;" horiz-adv-x="539" 
d="M151.5 11.5q-57.5 28.5 -92 86.5t-34.5 142q0 82 33 141.5t91 90t133 30.5q110 0 170 -65.5t60 -185.5v-51h-333q3 -42 33 -68.5t74 -26.5q39 0 62.5 19.5t33.5 48.5l118 -60q-22 -53 -78 -91.5t-142 -38.5q-71 0 -128.5 28.5zM357 298q-3 97 -84 97q-41 0 -64 -26
t-25 -71h173zM101.5 568.5q-27.5 23.5 -27.5 56.5t27 57t63 24q37 0 64 -24.5t27 -57.5q0 -32 -26.5 -55.5t-63.5 -23.5q-36 0 -63.5 23.5zM310.5 569q-26.5 24 -26.5 57t26 56.5t63 23.5t64.5 -24t27.5 -57t-27 -56.5t-64 -23.5t-63.5 24z" />
    <glyph glyph-name="igrave" unicode="&#xec;" horiz-adv-x="240" 
d="M48 0v484h149v-484h-149zM66 541l-123 148h191l69 -148h-137z" />
    <glyph glyph-name="iacute" unicode="&#xed;" horiz-adv-x="240" 
d="M48 0v484h149v-484h-149zM52 541l69 148h191l-123 -148h-137z" />
    <glyph glyph-name="icircumflex" unicode="&#xee;" horiz-adv-x="240" 
d="M48 0v484h149v-484h-149zM-30 540l79 149h159l69 -149h-118l-34 67l-35 -67h-120z" />
    <glyph glyph-name="idieresis" unicode="&#xef;" horiz-adv-x="240" 
d="M48 0v484h149v-484h-149zM-15.5 555.5q-22.5 20.5 -22.5 48.5t22 48.5t52 20.5q31 0 53 -20.5t22 -49.5q0 -27 -22 -47.5t-53 -20.5q-29 0 -51.5 20.5zM155.5 555.5q-21.5 20.5 -21.5 48.5t21.5 48.5t51.5 20.5q31 0 53.5 -20.5t22.5 -49.5q0 -28 -22.5 -48t-53.5 -20
q-30 0 -51.5 20.5z" />
    <glyph glyph-name="eth" unicode="&#xf0;" horiz-adv-x="575" 
d="M150 13.5q-59 30.5 -93 88.5t-34 139q0 76 30 133t83 88t120 31q72 0 123 -36q-25 56 -78 106l-126 -54l-37 80l76 32q-44 23 -95 37l27 89q101 -22 187 -75l139 59l39 -79l-98 -42q67 -63 102.5 -145.5t35.5 -181.5q0 -98 -34.5 -165.5t-95 -101t-138.5 -33.5
q-74 0 -133 30.5zM366.5 145q27.5 37 27.5 100q0 64 -28.5 99t-80.5 35q-48 0 -79 -31.5t-31 -103.5q0 -64 27.5 -100t81.5 -36q55 0 82.5 37z" />
    <glyph glyph-name="ntilde" unicode="&#xf1;" horiz-adv-x="547" 
d="M48 484h149v-61h1q20 33 58 54t86 21q69 0 115.5 -40t46.5 -121v-337h-149v300q0 34 -17.5 55t-50.5 21q-40 0 -65 -29.5t-25 -89.5v-257h-149v484zM83 575q22 61 53.5 88t76.5 27q24 0 40 -6t35 -18q14 -8 24 -12.5t24 -4.5q38 0 57 40l88 -29q-23 -69 -56.5 -95
t-73.5 -26q-22 0 -37.5 6t-38.5 19q-28 16 -48 16q-37 0 -60 -44z" />
    <glyph glyph-name="ograve" unicode="&#xf2;" horiz-adv-x="554" 
d="M149.5 12.5q-57.5 29.5 -92 87.5t-34.5 141t34.5 142t92 89t124.5 30q68 0 126.5 -30t94 -89t35.5 -141q0 -81 -34.5 -139.5t-93 -89t-127.5 -30.5q-68 0 -125.5 29.5zM349.5 140.5q28.5 32.5 28.5 101.5q0 71 -29 103.5t-73 32.5q-43 0 -72 -33.5t-29 -102.5
q0 -68 28.5 -101t72.5 -33q45 0 73.5 32.5zM220 542l-123 148h191l69 -148h-137z" />
    <glyph glyph-name="oacute" unicode="&#xf3;" horiz-adv-x="554" 
d="M149.5 12.5q-57.5 29.5 -92 87.5t-34.5 141t34.5 142t92 89t124.5 30q68 0 126.5 -30t94 -89t35.5 -141q0 -81 -34.5 -139.5t-93 -89t-127.5 -30.5q-68 0 -125.5 29.5zM349.5 140.5q28.5 32.5 28.5 101.5q0 71 -29 103.5t-73 32.5q-43 0 -72 -33.5t-29 -102.5
q0 -68 28.5 -101t72.5 -33q45 0 73.5 32.5zM205 542l69 148h191l-123 -148h-137z" />
    <glyph glyph-name="ocircumflex" unicode="&#xf4;" horiz-adv-x="554" 
d="M149.5 12.5q-57.5 29.5 -92 87.5t-34.5 141t34.5 142t92 89t124.5 30q68 0 126.5 -30t94 -89t35.5 -141q0 -81 -34.5 -139.5t-93 -89t-127.5 -30.5q-68 0 -125.5 29.5zM349.5 140.5q28.5 32.5 28.5 101.5q0 71 -29 103.5t-73 32.5q-43 0 -72 -33.5t-29 -102.5
q0 -68 28.5 -101t72.5 -33q45 0 73.5 32.5zM96 542l94 148h188l82 -148h-140l-40 66l-42 -66h-142z" />
    <glyph glyph-name="otilde" unicode="&#xf5;" horiz-adv-x="554" 
d="M149.5 12.5q-57.5 29.5 -92 87.5t-34.5 141t34.5 142t92 89t124.5 30q68 0 126.5 -30t94 -89t35.5 -141q0 -81 -34.5 -139.5t-93 -89t-127.5 -30.5q-68 0 -125.5 29.5zM349.5 140.5q28.5 32.5 28.5 101.5q0 71 -29 103.5t-73 32.5q-43 0 -72 -33.5t-29 -102.5
q0 -68 28.5 -101t72.5 -33q45 0 73.5 32.5zM74 576q22 61 53.5 88t76.5 27q24 0 40 -6t35 -18q14 -8 24 -12.5t24 -4.5q38 0 57 40l88 -29q-23 -69 -56.5 -95t-73.5 -26q-22 0 -37.5 6t-38.5 19q-28 16 -48 16q-37 0 -60 -44z" />
    <glyph glyph-name="odieresis" unicode="&#xf6;" horiz-adv-x="554" 
d="M149.5 12.5q-57.5 29.5 -92 87.5t-34.5 141t34.5 142t92 89t124.5 30q68 0 126.5 -30t94 -89t35.5 -141q0 -81 -34.5 -139.5t-93 -89t-127.5 -30.5q-68 0 -125.5 29.5zM349.5 140.5q28.5 32.5 28.5 101.5q0 71 -29 103.5t-73 32.5q-43 0 -72 -33.5t-29 -102.5
q0 -68 28.5 -101t72.5 -33q45 0 73.5 32.5zM108.5 568.5q-27.5 23.5 -27.5 56.5t27 57t63 24q37 0 64 -24.5t27 -57.5q0 -32 -26.5 -55.5t-63.5 -23.5q-36 0 -63.5 23.5zM317.5 569q-26.5 24 -26.5 57t26 56.5t63 23.5t64.5 -24t27.5 -57t-27 -56.5t-64 -23.5t-63.5 24z" />
    <glyph glyph-name="divide" unicode="&#xf7;" horiz-adv-x="612" 
d="M54 256v121h504v-121h-504zM232.5 54q-26.5 26 -26.5 64t27.5 65t67.5 27q41 0 68 -26t27 -65t-27.5 -65t-69.5 -26q-40 0 -66.5 26zM233 446q-27 26 -27 64t27.5 64t67.5 26q41 0 68 -25.5t27 -64.5t-27.5 -64.5t-69.5 -25.5q-39 0 -66 26z" />
    <glyph glyph-name="oslash" unicode="&#xf8;" horiz-adv-x="587" 
d="M48 25l42 50q-64 72 -64 182q0 87 38.5 147.5t100 91t129.5 30.5q81 0 146 -40l42 50l59 -49l-43 -51q61 -73 61 -181q0 -86 -37.5 -146.5t-97.5 -90.5t-128 -30q-81 0 -147 39l-42 -50zM371.5 156q28.5 33 28.5 98q0 31 -7 59l-150 -177q23 -13 53 -13q47 0 75.5 33z
M347 377q-22 13 -50 13q-47 0 -79 -34t-32 -100q0 -32 8 -59z" />
    <glyph glyph-name="ugrave" unicode="&#xf9;" horiz-adv-x="547" 
d="M91.5 26q-48.5 40 -48.5 121v337h149v-302q0 -34 18 -54t50 -20q40 0 65 28.5t25 87.5v260h150v-484h-150v59h-1q-49 -73 -141 -73q-68 0 -116.5 40zM216 541l-123 148h191l69 -148h-137z" />
    <glyph glyph-name="uacute" unicode="&#xfa;" horiz-adv-x="547" 
d="M91.5 26q-48.5 40 -48.5 121v337h149v-302q0 -34 18 -54t50 -20q40 0 65 28.5t25 87.5v260h150v-484h-150v59h-1q-49 -73 -141 -73q-68 0 -116.5 40zM202 541l69 148h191l-123 -148h-137z" />
    <glyph glyph-name="ucircumflex" unicode="&#xfb;" horiz-adv-x="547" 
d="M91.5 26q-48.5 40 -48.5 121v337h149v-302q0 -34 18 -54t50 -20q40 0 65 28.5t25 87.5v260h150v-484h-150v59h-1q-49 -73 -141 -73q-68 0 -116.5 40zM92 541l94 148h188l82 -148h-140l-40 66l-42 -66h-142z" />
    <glyph glyph-name="udieresis" unicode="&#xfc;" horiz-adv-x="547" 
d="M91.5 26q-48.5 40 -48.5 121v337h149v-302q0 -34 18 -54t50 -20q40 0 65 28.5t25 87.5v260h150v-484h-150v59h-1q-49 -73 -141 -73q-68 0 -116.5 40zM104.5 567.5q-27.5 23.5 -27.5 56.5t27 57t63 24q37 0 64 -24.5t27 -57.5q0 -32 -26.5 -55.5t-63.5 -23.5
q-36 0 -63.5 23.5zM313.5 568q-26.5 24 -26.5 57t26 56.5t63 23.5t64.5 -24t27.5 -57t-27 -56.5t-64 -23.5t-63.5 24z" />
    <glyph glyph-name="yacute" unicode="&#xfd;" horiz-adv-x="529" 
d="M28 -194l7 121h90q34 0 48.5 23t12.5 55l-175 479h154l98 -328l103 328h151l-168 -459q-24 -67 -50 -112t-77 -78.5t-133 -33.5q-31 0 -61 5zM201 541l69 148h191l-123 -148h-137z" />
    <glyph glyph-name="thorn" unicode="&#xfe;" horiz-adv-x="570" 
d="M48 715h149v-291h1q21 32 55.5 53.5t78.5 21.5q48 0 97.5 -25.5t83.5 -83t34 -146.5q0 -88 -33 -146t-82.5 -85t-100.5 -27q-43 0 -76.5 19.5t-56.5 51.5h-1v-257h-149v915zM368.5 145.5q26.5 34.5 26.5 98.5q0 65 -27 97.5t-72 32.5q-46 0 -73 -33.5t-27 -96.5t26.5 -98
t72.5 -35q47 0 73.5 34.5z" />
    <glyph glyph-name="ydieresis" unicode="&#xff;" horiz-adv-x="529" 
d="M28 -194l7 121h90q34 0 48.5 23t12.5 55l-175 479h154l98 -328l103 328h151l-168 -459q-24 -67 -50 -112t-77 -78.5t-133 -33.5q-31 0 -61 5zM103.5 567.5q-27.5 23.5 -27.5 56.5t27 57t63 24q37 0 64 -24.5t27 -57.5q0 -32 -26.5 -55.5t-63.5 -23.5q-36 0 -63.5 23.5z
M312.5 568q-26.5 24 -26.5 57t26 56.5t63 23.5t64.5 -24t27.5 -57t-27 -56.5t-64 -23.5t-63.5 24z" />
    <glyph glyph-name="Amacron" unicode="&#x100;" horiz-adv-x="733" 
d="M13 0l253 715h199l254 -715h-166l-54 157h-271l-53 -157h-162zM275 294h177l-89 257h-1zM196 758v114h343v-114h-343z" />
    <glyph glyph-name="amacron" unicode="&#x101;" horiz-adv-x="557" 
d="M82.5 23q-45.5 37 -45.5 103q0 62 40.5 98t95.5 52t131 28q34 5 45 10t11 20q0 20 -17.5 35t-58.5 15q-48 0 -76 -20t-37 -47l-109 63q20 50 77.5 86t152.5 36q93 0 154 -43t58 -139l-5 -183q-1 -17 8.5 -26t28.5 -8v-111q-28 -4 -52 -4q-60 0 -87.5 27.5t-32.5 83.5h-3
q-14 -53 -56.5 -83t-106.5 -30q-70 0 -115.5 37zM323.5 131q31.5 32 33.5 73l2 38q-9 -12 -21.5 -18t-37.5 -11q-43 -10 -65.5 -16.5t-36 -19.5t-13.5 -34q0 -44 56 -44q51 0 82.5 32zM110 556v114h343v-114h-343z" />
    <glyph glyph-name="Abreve" unicode="&#x102;" horiz-adv-x="733" 
d="M13 0l253 715h199l254 -715h-166l-54 157h-271l-53 -157h-162zM275 294h177l-89 257h-1zM281.5 763q-37.5 20 -58.5 54.5t-21 77.5h124q0 -22 12 -35.5t31 -13.5q18 0 29.5 14t11.5 35h124q0 -42 -20.5 -76.5t-58 -55t-87.5 -20.5q-49 0 -86.5 20z" />
    <glyph glyph-name="abreve" unicode="&#x103;" horiz-adv-x="557" 
d="M82.5 23q-45.5 37 -45.5 103q0 62 40.5 98t95.5 52t131 28q34 5 45 10t11 20q0 20 -17.5 35t-58.5 15q-48 0 -76 -20t-37 -47l-109 63q20 50 77.5 86t152.5 36q93 0 154 -43t58 -139l-5 -183q-1 -17 8.5 -26t28.5 -8v-111q-28 -4 -52 -4q-60 0 -87.5 27.5t-32.5 83.5h-3
q-14 -53 -56.5 -83t-106.5 -30q-70 0 -115.5 37zM323.5 131q31.5 32 33.5 73l2 38q-9 -12 -21.5 -18t-37.5 -11q-43 -10 -65.5 -16.5t-36 -19.5t-13.5 -34q0 -44 56 -44q51 0 82.5 32zM196.5 561q-37.5 20 -58.5 54.5t-21 77.5h124q0 -22 12 -35.5t31 -13.5q18 0 29.5 14
t11.5 35h124q0 -42 -20.5 -76.5t-58 -55t-87.5 -20.5q-49 0 -86.5 20z" />
    <glyph glyph-name="Aogonek" unicode="&#x104;" horiz-adv-x="733" 
d="M520 -199q-32 26 -32 70q0 41 24.5 74.5t56.5 54.5h-16l-54 157h-271l-53 -157h-162l253 715h199l254 -715h-34q-73 -54 -73 -94q0 -12 7.5 -19t22.5 -7q25 0 52 21l15 -94q-15 -13 -43.5 -22.5t-61.5 -9.5q-52 0 -84 26zM275 294h177l-89 257h-1z" />
    <glyph glyph-name="aogonek" unicode="&#x105;" horiz-adv-x="557" 
d="M367 -199q-32 26 -32 70q0 41 24.5 74.5t56.5 54.5h3q-26 12 -39 36.5t-16 62.5h-3q-14 -53 -56.5 -83t-106.5 -30q-70 0 -115.5 37t-45.5 103q0 62 40.5 98t95.5 52t131 28q34 5 45 10t11 20q0 20 -17.5 35t-58.5 15q-48 0 -76 -20t-37 -47l-109 63q20 50 77.5 86
t152.5 36q93 0 154 -43t58 -139l-5 -183q-1 -17 8.5 -26t28.5 -8v-111q-12 -2 -17 -2q-60 -47 -60 -84q0 -12 7.5 -19t22.5 -7q25 0 52 21l15 -94q-15 -13 -43.5 -22.5t-61.5 -9.5q-52 0 -84 26zM323.5 131q31.5 32 33.5 73l2 38q-9 -12 -21.5 -18t-37.5 -11
q-43 -10 -65.5 -16.5t-36 -19.5t-13.5 -34q0 -44 56 -44q51 0 82.5 32z" />
    <glyph glyph-name="Cacute" unicode="&#x106;" horiz-adv-x="727" 
d="M204 21.5q-79 39.5 -127 124t-48 212.5t48 212t126 123.5t170 39.5q97 0 164 -40.5t103.5 -101t50.5 -126.5l-159 -39q-12 70 -50.5 119.5t-112.5 49.5q-77 0 -126 -59t-49 -176q0 -119 50.5 -179.5t129.5 -60.5q74 0 111 46.5t45 108.5l157 -32q-12 -65 -47.5 -124
t-101 -98t-161.5 -39q-94 0 -173 39.5zM297 752l69 148h191l-123 -148h-137z" />
    <glyph glyph-name="cacute" unicode="&#x107;" horiz-adv-x="539" 
d="M146.5 13q-57.5 30 -90.5 88t-33 141q0 86 35.5 144.5t94.5 87t129 28.5q108 0 156.5 -53.5t67.5 -111.5l-136 -44q-10 34 -28 59.5t-61 25.5t-74 -33t-31 -105t30.5 -102t73.5 -30q42 0 63.5 26t26.5 56l143 -16q-5 -34 -25.5 -76.5t-72 -78.5t-137.5 -36
q-74 0 -131.5 30zM202 542l69 148h191l-123 -148h-137z" />
    <glyph glyph-name="Ccircumflex" unicode="&#x108;" horiz-adv-x="727" 
d="M204 21.5q-79 39.5 -127 124t-48 212.5t48 212t126 123.5t170 39.5q97 0 164 -40.5t103.5 -101t50.5 -126.5l-159 -39q-12 70 -50.5 119.5t-112.5 49.5q-77 0 -126 -59t-49 -176q0 -119 50.5 -179.5t129.5 -60.5q74 0 111 46.5t45 108.5l157 -32q-12 -65 -47.5 -124
t-101 -98t-161.5 -39q-94 0 -173 39.5zM187 751l94 149h188l82 -149h-140l-40 67l-42 -67h-142z" />
    <glyph glyph-name="ccircumflex" unicode="&#x109;" horiz-adv-x="539" 
d="M146.5 13q-57.5 30 -90.5 88t-33 141q0 86 35.5 144.5t94.5 87t129 28.5q108 0 156.5 -53.5t67.5 -111.5l-136 -44q-10 34 -28 59.5t-61 25.5t-74 -33t-31 -105t30.5 -102t73.5 -30q42 0 63.5 26t26.5 56l143 -16q-5 -34 -25.5 -76.5t-72 -78.5t-137.5 -36
q-74 0 -131.5 30zM92 542l94 148h188l82 -148h-140l-40 66l-42 -66h-142z" />
    <glyph glyph-name="Cdotaccent" unicode="&#x10a;" horiz-adv-x="727" 
d="M204 21.5q-79 39.5 -127 124t-48 212.5t48 212t126 123.5t170 39.5q97 0 164 -40.5t103.5 -101t50.5 -126.5l-159 -39q-12 70 -50.5 119.5t-112.5 49.5q-77 0 -126 -59t-49 -176q0 -119 50.5 -179.5t129.5 -60.5q74 0 111 46.5t45 108.5l157 -32q-12 -65 -47.5 -124
t-101 -98t-161.5 -39q-94 0 -173 39.5zM303 779q-27 24 -27 59q0 36 27 61.5t65 25.5t65 -25t27 -60q0 -36 -26 -60.5t-65 -24.5t-66 24z" />
    <glyph glyph-name="cdotaccent" unicode="&#x10b;" horiz-adv-x="539" 
d="M146.5 13q-57.5 30 -90.5 88t-33 141q0 86 35.5 144.5t94.5 87t129 28.5q108 0 156.5 -53.5t67.5 -111.5l-136 -44q-10 34 -28 59.5t-61 25.5t-74 -33t-31 -105t30.5 -102t73.5 -30q42 0 63.5 26t26.5 56l143 -16q-5 -34 -25.5 -76.5t-72 -78.5t-137.5 -36
q-74 0 -131.5 30zM209 569q-27 24 -27 59q0 36 27 61.5t65 25.5t65 -25t27 -60q0 -36 -26 -60.5t-65 -24.5t-66 24z" />
    <glyph glyph-name="Ccaron" unicode="&#x10c;" horiz-adv-x="727" 
d="M204 21.5q-79 39.5 -127 124t-48 212.5t48 212t126 123.5t170 39.5q97 0 164 -40.5t103.5 -101t50.5 -126.5l-159 -39q-12 70 -50.5 119.5t-112.5 49.5q-77 0 -126 -59t-49 -176q0 -119 50.5 -179.5t129.5 -60.5q74 0 111 46.5t45 108.5l157 -32q-12 -65 -47.5 -124
t-101 -98t-161.5 -39q-94 0 -173 39.5zM282 751l-94 149h142l42 -67l41 67h140l-83 -149h-188z" />
    <glyph glyph-name="ccaron" unicode="&#x10d;" horiz-adv-x="539" 
d="M146.5 13q-57.5 30 -90.5 88t-33 141q0 86 35.5 144.5t94.5 87t129 28.5q108 0 156.5 -53.5t67.5 -111.5l-136 -44q-10 34 -28 59.5t-61 25.5t-74 -33t-31 -105t30.5 -102t73.5 -30q42 0 63.5 26t26.5 56l143 -16q-5 -34 -25.5 -76.5t-72 -78.5t-137.5 -36
q-74 0 -131.5 30zM187 541l-94 149h142l42 -67l41 67h140l-83 -149h-188z" />
    <glyph glyph-name="Dcaron" unicode="&#x10e;" horiz-adv-x="702" 
d="M57 715h254q123 0 204.5 -47t119.5 -127.5t38 -181.5q0 -106 -41 -187t-122.5 -126.5t-198.5 -45.5h-254v715zM334 140q90 0 133.5 58.5t43.5 158.5q0 103 -45 160.5t-133 57.5h-119v-435h120zM252 746l-94 149h142l42 -67l41 67h140l-83 -149h-188z" />
    <glyph glyph-name="dcaron" unicode="&#x10f;" horiz-adv-x="568" 
d="M136 12q-48 26 -80.5 84t-32.5 148q0 87 31 144t78 83.5t97 26.5q48 0 83.5 -20.5t57.5 -52.5h1v290h150v-715h-148v59h-1q-19 -31 -55 -52t-84 -21q-49 0 -97 26zM347 143.5q27 36.5 27 101.5t-26.5 98.5t-73.5 33.5q-45 0 -72 -33.5t-27 -99.5q0 -64 26.5 -100.5
t72.5 -36.5t73 36.5zM551 544l29 171h164l-70 -171h-123z" />
    <glyph glyph-name="Dcroat" unicode="&#x110;" horiz-adv-x="702" 
d="M57 311h-64v111h64v293h254q123 0 204.5 -47t119.5 -127.5t38 -181.5q0 -106 -41 -187t-122.5 -126.5t-198.5 -45.5h-254v311zM334 140q90 0 133.5 58.5t43.5 158.5q0 103 -45 160.5t-133 57.5h-119v-153h143v-111h-143v-171h120z" />
    <glyph glyph-name="dcroat" unicode="&#x111;" horiz-adv-x="568" 
d="M136 12q-48 26 -80.5 84t-32.5 148q0 87 31 144t78 83.5t97 26.5q48 0 83.5 -20.5t57.5 -52.5h1v107h-120v101h120v82h150v-82h58v-101h-58v-532h-148v59h-1q-19 -31 -55 -52t-84 -21q-49 0 -97 26zM347 143.5q27 36.5 27 101.5t-26.5 98.5t-73.5 33.5q-45 0 -72 -33.5
t-27 -99.5q0 -64 26.5 -100.5t72.5 -36.5t73 36.5z" />
    <glyph glyph-name="Emacron" unicode="&#x112;" horiz-adv-x="613" 
d="M57 0v715h513v-140h-356v-144h312v-130h-312v-161h352v-140h-509zM148 758v114h343v-114h-343z" />
    <glyph glyph-name="emacron" unicode="&#x113;" horiz-adv-x="539" 
d="M151.5 11.5q-57.5 28.5 -92 86.5t-34.5 142q0 82 33 141.5t91 90t133 30.5q110 0 170 -65.5t60 -185.5v-51h-333q3 -42 33 -68.5t74 -26.5q39 0 62.5 19.5t33.5 48.5l118 -60q-22 -53 -78 -91.5t-142 -38.5q-71 0 -128.5 28.5zM357 298q-3 97 -84 97q-41 0 -64 -26
t-25 -71h173zM98 553v114h343v-114h-343z" />
    <glyph glyph-name="Ebreve" unicode="&#x114;" horiz-adv-x="613" 
d="M57 0v715h513v-140h-356v-144h312v-130h-312v-161h352v-140h-509zM234.5 763q-37.5 20 -58.5 54.5t-21 77.5h124q0 -22 12 -35.5t31 -13.5q18 0 29.5 14t11.5 35h124q0 -42 -20.5 -76.5t-58 -55t-87.5 -20.5q-49 0 -86.5 20z" />
    <glyph glyph-name="ebreve" unicode="&#x115;" horiz-adv-x="539" 
d="M151.5 11.5q-57.5 28.5 -92 86.5t-34.5 142q0 82 33 141.5t91 90t133 30.5q110 0 170 -65.5t60 -185.5v-51h-333q3 -42 33 -68.5t74 -26.5q39 0 62.5 19.5t33.5 48.5l118 -60q-22 -53 -78 -91.5t-142 -38.5q-71 0 -128.5 28.5zM357 298q-3 97 -84 97q-41 0 -64 -26
t-25 -71h173zM183.5 558q-37.5 20 -58.5 54.5t-21 77.5h124q0 -22 12 -35.5t31 -13.5q18 0 29.5 14t11.5 35h124q0 -42 -20.5 -76.5t-58 -55t-87.5 -20.5q-49 0 -86.5 20z" />
    <glyph glyph-name="Edotaccent" unicode="&#x116;" horiz-adv-x="613" 
d="M57 0v715h513v-140h-356v-144h312v-130h-312v-161h352v-140h-509zM255 774q-27 24 -27 59q0 36 27 61.5t65 25.5t65 -25t27 -60q0 -36 -26 -60.5t-65 -24.5t-66 24z" />
    <glyph glyph-name="edotaccent" unicode="&#x117;" horiz-adv-x="539" 
d="M151.5 11.5q-57.5 28.5 -92 86.5t-34.5 142q0 82 33 141.5t91 90t133 30.5q110 0 170 -65.5t60 -185.5v-51h-333q3 -42 33 -68.5t74 -26.5q39 0 62.5 19.5t33.5 48.5l118 -60q-22 -53 -78 -91.5t-142 -38.5q-71 0 -128.5 28.5zM357 298q-3 97 -84 97q-41 0 -64 -26
t-25 -71h173zM205 569q-27 24 -27 59q0 36 27 61.5t65 25.5t65 -25t27 -60q0 -36 -26 -60.5t-65 -24.5t-66 24z" />
    <glyph glyph-name="Eogonek" unicode="&#x118;" horiz-adv-x="613" 
d="M418 -198.5q-32 26.5 -32 69.5q0 33 22 64.5t71 64.5h-422v715h513v-140h-356v-144h312v-130h-312v-161h352v-140q-25 -26 -39.5 -42t-17.5 -21.5t-3 -12.5q0 -23 6.5 -33.5t25.5 -10.5q15 0 25 6.5t28 24.5l12 -94q-9 -15 -37 -28.5t-65 -13.5q-51 0 -83 26.5z" />
    <glyph glyph-name="eogonek" unicode="&#x119;" horiz-adv-x="539" 
d="M260 -179.5q-32 26.5 -32 69.5q0 49 48 93q-65 1 -122.5 28t-93 85t-35.5 144q0 82 33 141.5t91.5 90t132.5 30.5q110 0 170 -65.5t60 -185.5v-51h-333q3 -42 33 -68.5t74 -26.5q39 0 62.5 19.5t33.5 48.5l118 -60q-12 -31 -39.5 -60t-67.5 -47q-34 -40 -39.5 -48.5
t-5.5 -16.5q0 -21 6.5 -31.5t25.5 -10.5q15 0 25 6.5t28 24.5l12 -94q-9 -15 -37 -28.5t-65 -13.5q-51 0 -83 26.5zM357 298q-3 97 -84 97q-41 0 -64 -26t-25 -71h173z" />
    <glyph glyph-name="Ecaron" unicode="&#x11a;" horiz-adv-x="613" 
d="M57 0v715h513v-140h-356v-144h312v-130h-312v-161h352v-140h-509zM234 746l-94 149h142l42 -67l41 67h140l-83 -149h-188z" />
    <glyph glyph-name="ecaron" unicode="&#x11b;" horiz-adv-x="539" 
d="M151.5 11.5q-57.5 28.5 -92 86.5t-34.5 142q0 82 33 141.5t91 90t133 30.5q110 0 170 -65.5t60 -185.5v-51h-333q3 -42 33 -68.5t74 -26.5q39 0 62.5 19.5t33.5 48.5l118 -60q-22 -53 -78 -91.5t-142 -38.5q-71 0 -128.5 28.5zM357 298q-3 97 -84 97q-41 0 -64 -26
t-25 -71h173zM183 542l-94 148h142l42 -67l41 67h140l-83 -148h-188z" />
    <glyph glyph-name="Gcircumflex" unicode="&#x11c;" horiz-adv-x="777" 
d="M208.5 20q-76.5 38 -128 122t-51.5 214q0 124 48 208.5t128 126.5t177 42q93 0 160 -36.5t106 -91t56 -113.5l-159 -41q-14 57 -54.5 100.5t-109.5 43.5q-50 0 -92.5 -24.5t-68.5 -78.5t-26 -136q0 -120 56 -177.5t142 -57.5q51 0 91 19.5t62.5 51.5t22.5 70v10h-181v118
h333v-390h-118l-8 142h-3q-5 -35 -34 -72t-79.5 -62.5t-115.5 -25.5q-77 0 -153.5 38zM194 752l94 148h188l82 -148h-140l-40 66l-42 -66h-142z" />
    <glyph glyph-name="gcircumflex" unicode="&#x11d;" horiz-adv-x="561" 
d="M78 -183q-58 34 -58 92q0 30 20 59.5t67 50.5v3q-36 14 -52 35.5t-16 45.5q0 31 26.5 55.5t66.5 29.5v2q-92 45 -92 132q0 50 26.5 90.5t78.5 64t125 23.5h48q29 0 44 10t21 32h-66l-40 66l-42 -66h-142l94 148h188l49 -88h108v-34q0 -50 -37 -72t-95 -22v-3
q43 -23 68 -59.5t25 -86.5q0 -77 -61.5 -123.5t-176.5 -46.5h-22q-7 0 -16 0.5t-17 -0.5q-9 -1 -16 -8t-7 -16q0 -12 10 -18.5t29 -6.5h154q89 0 134 -36.5t45 -101.5q0 -88 -79 -136.5t-217 -48.5q-117 0 -175 34zM364 -104.5q36 16.5 36 51.5q0 46 -68 46l-114 -1
q-22 0 -38 -16.5t-16 -38.5q0 -30 31 -44t79 -14q54 0 90 16.5zM325 261.5q20 22.5 20 63.5q0 43 -21 67.5t-56 24.5q-34 0 -55.5 -24.5t-21.5 -66.5t21.5 -64.5t56.5 -22.5q36 0 56 22.5z" />
    <glyph glyph-name="Gbreve" unicode="&#x11e;" horiz-adv-x="777" 
d="M208.5 20q-76.5 38 -128 122t-51.5 214q0 124 48 208.5t128 126.5t177 42q93 0 160 -36.5t106 -91t56 -113.5l-159 -41q-14 57 -54.5 100.5t-109.5 43.5q-50 0 -92.5 -24.5t-68.5 -78.5t-26 -136q0 -120 56 -177.5t142 -57.5q51 0 91 19.5t62.5 51.5t22.5 70v10h-181v118
h333v-390h-118l-8 142h-3q-5 -35 -34 -72t-79.5 -62.5t-115.5 -25.5q-77 0 -153.5 38zM288.5 768q-37.5 20 -58.5 54.5t-21 77.5h124q0 -22 12 -35.5t31 -13.5q18 0 29.5 14t11.5 35h124q0 -42 -20.5 -76.5t-58 -55t-87.5 -20.5q-49 0 -86.5 20z" />
    <glyph glyph-name="gbreve" unicode="&#x11f;" horiz-adv-x="561" 
d="M78 -183q-58 34 -58 92q0 30 20 59.5t67 50.5v3q-36 14 -52 35.5t-16 45.5q0 31 26.5 55.5t66.5 29.5v2q-92 45 -92 132q0 50 26.5 90.5t78.5 64t125 23.5h48q38 0 52.5 17t16.5 58q-45 -37 -112 -37q-49 0 -86.5 20t-58.5 54.5t-21 77.5h124q0 -22 12 -35.5t31 -13.5
q18 0 29.5 14t11.5 35h124q0 -49 -28 -88h119v-34q0 -50 -37 -72t-95 -22v-3q43 -23 68 -59.5t25 -86.5q0 -77 -61.5 -123.5t-176.5 -46.5h-22q-7 0 -16 0.5t-17 -0.5q-9 -1 -16 -8t-7 -16q0 -12 10 -18.5t29 -6.5h154q89 0 134 -36.5t45 -101.5q0 -88 -79 -136.5
t-217 -48.5q-117 0 -175 34zM364 -104.5q36 16.5 36 51.5q0 46 -68 46l-114 -1q-22 0 -38 -16.5t-16 -38.5q0 -30 31 -44t79 -14q54 0 90 16.5zM325 261.5q20 22.5 20 63.5q0 43 -21 67.5t-56 24.5q-34 0 -55.5 -24.5t-21.5 -66.5t21.5 -64.5t56.5 -22.5q36 0 56 22.5z" />
    <glyph glyph-name="Gdotaccent" unicode="&#x120;" horiz-adv-x="777" 
d="M208.5 20q-76.5 38 -128 122t-51.5 214q0 124 48 208.5t128 126.5t177 42q93 0 160 -36.5t106 -91t56 -113.5l-159 -41q-14 57 -54.5 100.5t-109.5 43.5q-50 0 -92.5 -24.5t-68.5 -78.5t-26 -136q0 -120 56 -177.5t142 -57.5q51 0 91 19.5t62.5 51.5t22.5 70v10h-181v118
h333v-390h-118l-8 142h-3q-5 -35 -34 -72t-79.5 -62.5t-115.5 -25.5q-77 0 -153.5 38zM310 779q-27 24 -27 59q0 36 27 61.5t65 25.5t65 -25t27 -60q0 -36 -26 -60.5t-65 -24.5t-66 24z" />
    <glyph glyph-name="gdotaccent" unicode="&#x121;" horiz-adv-x="561" 
d="M78 -183q-58 34 -58 92q0 30 20 59.5t67 50.5v3q-36 14 -52 35.5t-16 45.5q0 31 26.5 55.5t66.5 29.5v2q-92 45 -92 132q0 50 26.5 90.5t78.5 64t125 23.5h48q43 0 56.5 22.5t13.5 79.5h144v-34q0 -50 -37 -72t-95 -22v-3q43 -23 68 -59.5t25 -86.5q0 -77 -61.5 -123.5
t-176.5 -46.5h-22q-7 0 -16 0.5t-17 -0.5q-9 -1 -16 -8t-7 -16q0 -12 10 -18.5t29 -6.5h154q89 0 134 -36.5t45 -101.5q0 -88 -79 -136.5t-217 -48.5q-117 0 -175 34zM364 -104.5q36 16.5 36 51.5q0 46 -68 46l-114 -1q-22 0 -38 -16.5t-16 -38.5q0 -30 31 -44t79 -14
q54 0 90 16.5zM325 261.5q20 22.5 20 63.5q0 43 -21 67.5t-56 24.5q-34 0 -55.5 -24.5t-21.5 -66.5t21.5 -64.5t56.5 -22.5q36 0 56 22.5zM210 569q-27 24 -27 59q0 36 27 61.5t65 25.5t65 -25t27 -60q0 -36 -26 -60.5t-65 -24.5t-66 24z" />
    <glyph glyph-name="uni0122" unicode="&#x122;" horiz-adv-x="777" 
d="M208.5 20q-76.5 38 -128 122t-51.5 214q0 124 48 208.5t128 126.5t177 42q93 0 160 -36.5t106 -91t56 -113.5l-159 -41q-14 57 -54.5 100.5t-109.5 43.5q-50 0 -92.5 -24.5t-68.5 -78.5t-26 -136q0 -120 56 -177.5t142 -57.5q51 0 91 19.5t62.5 51.5t22.5 70v10h-181v118
h333v-390h-118l-8 142h-3q-5 -35 -34 -72t-79.5 -62.5t-115.5 -25.5q-77 0 -153.5 38zM274 -206l39 152h169l-82 -152h-126z" />
    <glyph glyph-name="uni0123" unicode="&#x123;" horiz-adv-x="561" 
d="M78 -183q-58 34 -58 92q0 30 20 59.5t67 50.5v3q-36 14 -52 35.5t-16 45.5q0 31 26.5 55.5t66.5 29.5v2q-92 45 -92 132q0 50 26.5 90.5t78.5 64t125 23.5h48q43 0 56.5 22.5t13.5 79.5h144v-34q0 -50 -37 -72t-95 -22v-3q43 -23 68 -59.5t25 -86.5q0 -77 -61.5 -123.5
t-176.5 -46.5h-22q-7 0 -16 0.5t-17 -0.5q-9 -1 -16 -8t-7 -16q0 -12 10 -18.5t29 -6.5h154q89 0 134 -36.5t45 -101.5q0 -88 -79 -136.5t-217 -48.5q-117 0 -175 34zM364 -104.5q36 16.5 36 51.5q0 46 -68 46l-114 -1q-22 0 -38 -16.5t-16 -38.5q0 -30 31 -44t79 -14
q54 0 90 16.5zM325 261.5q20 22.5 20 63.5q0 43 -21 67.5t-56 24.5q-34 0 -55.5 -24.5t-21.5 -66.5t21.5 -64.5t56.5 -22.5q36 0 56 22.5zM187 539l82 152h126l-39 -152h-169z" />
    <glyph glyph-name="Hcircumflex" unicode="&#x124;" horiz-adv-x="721" 
d="M57 0v715h157v-275h293v275h157v-715h-157v296h-293v-296h-157zM178 747l94 148h188l82 -148h-140l-40 66l-42 -66h-142z" />
    <glyph glyph-name="hcircumflex" unicode="&#x125;" horiz-adv-x="547" 
d="M48 715h149v-303h1q48 86 141 86q68 0 116.5 -41t48.5 -122v-335h-149v297q0 37 -17.5 57.5t-50.5 20.5q-40 0 -65 -29t-25 -97v-249h-149v715zM99 750l94 148h188l82 -148h-140l-40 66l-42 -66h-142z" />
    <glyph glyph-name="Hbar" unicode="&#x126;" horiz-adv-x="721" 
d="M57 0v512h-67v112h67v91h157v-91h293v91h157v-91h67v-112h-67v-512h-157v296h-293v-296h-157zM214 440h293v72h-293v-72z" />
    <glyph glyph-name="hbar" unicode="&#x127;" horiz-adv-x="547" 
d="M48 562h-58v99h58v54h149v-54h102v-99h-102v-150h1q48 86 141 86q68 0 116.5 -41t48.5 -122v-335h-149v297q0 37 -17.5 57.5t-50.5 20.5q-40 0 -65 -29t-25 -97v-249h-149v562z" />
    <glyph glyph-name="Itilde" unicode="&#x128;" horiz-adv-x="271" 
d="M57 0v715h157v-715h-157zM-48 781q20 61 48.5 88t69.5 27q23 0 35.5 -6t30.5 -18q24 -17 43 -17q34 0 52 40l79 -29q-36 -121 -115 -121q-21 0 -35 6t-34 18q-17 10 -25.5 13.5t-17.5 3.5q-34 0 -55 -44z" />
    <glyph glyph-name="itilde" unicode="&#x129;" horiz-adv-x="240" 
d="M48 0v484h149v-484h-149zM-59 575q20 61 48.5 88t69.5 27q23 0 35.5 -6t30.5 -18q24 -17 43 -17q34 0 52 40l79 -29q-36 -121 -115 -121q-21 0 -35 6t-34 18q-17 10 -25.5 13.5t-17.5 3.5q-34 0 -55 -44z" />
    <glyph glyph-name="Imacron" unicode="&#x12a;" horiz-adv-x="271" 
d="M57 0v715h157v-715h-157zM-20 758v114h309v-114h-309z" />
    <glyph glyph-name="imacron" unicode="&#x12b;" horiz-adv-x="240" 
d="M48 0v484h149v-484h-149zM-32 552v114h309v-114h-309z" />
    <glyph glyph-name="Ibreve" unicode="&#x12c;" horiz-adv-x="271" 
d="M57 0v715h157v-715h-157zM27.5 786.5q-41.5 43.5 -41.5 108.5h112q0 -22 10.5 -35.5t27.5 -13.5q16 0 26.5 14t10.5 35h112q0 -42 -18.5 -76.5t-52 -55t-78.5 -20.5q-67 0 -108.5 43.5z" />
    <glyph glyph-name="ibreve" unicode="&#x12d;" horiz-adv-x="240" 
d="M48 0v484h149v-484h-149zM17 580.5q-41 43.5 -41 108.5h110q0 -22 10.5 -35.5t27.5 -13.5q16 0 26.5 14t10.5 35h110q0 -42 -18 -76.5t-51.5 -55t-77.5 -20.5q-66 0 -107 43.5z" />
    <glyph glyph-name="Iogonek" unicode="&#x12e;" horiz-adv-x="271" 
d="M66 -198.5q-32 26.5 -32 69.5q0 33 22 64.5t71 64.5h-70v715h157v-715q-25 -26 -39.5 -42t-17.5 -21.5t-3 -12.5q0 -23 6.5 -33.5t25.5 -10.5q15 0 25 6.5t28 24.5l12 -94q-9 -15 -37 -28.5t-65 -13.5q-51 0 -83 26.5z" />
    <glyph glyph-name="iogonek" unicode="&#x12f;" horiz-adv-x="240" 
d="M39 -198.5q-32 26.5 -32 69.5q0 33 22 64.5t71 64.5h-52v484h149v-484h-10q-25 -26 -39.5 -42t-17.5 -21.5t-3 -12.5q0 -23 6.5 -33.5t25.5 -10.5q15 0 25 6.5t28 24.5l12 -94q-9 -15 -37 -28.5t-65 -13.5q-51 0 -83 26.5zM54.5 561q-27.5 25 -27.5 63t27.5 62.5
t68.5 24.5t68.5 -25.5t27.5 -61.5q0 -37 -27 -62.5t-69 -25.5q-41 0 -68.5 25z" />
    <glyph glyph-name="Idotaccent" unicode="&#x130;" horiz-adv-x="271" 
d="M57 0v715h157v-715h-157zM69 774q-27 24 -27 59q0 36 27 61.5t65 25.5t65 -25t27 -60q0 -36 -26 -60.5t-65 -24.5t-66 24z" />
    <glyph glyph-name="dotlessi" unicode="&#x131;" horiz-adv-x="240" 
d="M48 0v484h149v-484h-149z" />
    <glyph glyph-name="Jcircumflex" unicode="&#x134;" horiz-adv-x="615" 
d="M151 19.5q-60 37.5 -88 94.5t-31 120l158 17q0 -52 27.5 -90.5t88.5 -38.5q55 0 77 30.5t22 86.5v476h156v-476q0 -127 -67.5 -192t-188.5 -65q-94 0 -154 37.5zM290 755l94 148h188l82 -148h-140l-40 66l-42 -66h-142z" />
    <glyph glyph-name="jcircumflex" unicode="&#x135;" horiz-adv-x="256" 
d="M-30 -205l12 125q15 -3 30 -3q34 0 43 17.5t9 40.5v509h149v-494q0 -93 -49 -146.5t-137 -53.5q-36 0 -57 5zM-24 541l85 148h169l74 -148h-126l-36 66l-38 -66h-128z" />
    <glyph glyph-name="uni0136" unicode="&#x136;" horiz-adv-x="684" 
d="M57 0v715h157v-305l260 305h191l-288 -329l301 -386h-194l-214 278l-56 -58v-220h-157zM248 -206l39 152h169l-82 -152h-126z" />
    <glyph glyph-name="uni0137" unicode="&#x137;" horiz-adv-x="556" 
d="M48 0v715h149v-394l153 163h186l-191 -199l198 -285h-177l-126 195l-43 -41v-154h-149zM177 -206l39 152h169l-82 -152h-126z" />
    <glyph glyph-name="kgreenlandic" unicode="&#x138;" horiz-adv-x="554" 
d="M48 0v484h149v-163l152 163h185l-190 -199l197 -285h-177l-124 195l-43 -41v-154h-149z" />
    <glyph glyph-name="Lacute" unicode="&#x139;" horiz-adv-x="577" 
d="M57 0v715h157v-572h327v-143h-484zM61 747l69 148h191l-123 -148h-137z" />
    <glyph glyph-name="lacute" unicode="&#x13a;" horiz-adv-x="240" 
d="M48 0v715h149v-715h-149zM49 757l69 148h191l-123 -148h-137z" />
    <glyph glyph-name="uni013B" unicode="&#x13b;" horiz-adv-x="577" 
d="M57 0v715h157v-572h327v-143h-484zM181 -206l39 152h169l-82 -152h-126z" />
    <glyph glyph-name="uni013C" unicode="&#x13c;" horiz-adv-x="240" 
d="M48 0v715h149v-715h-149zM2 -206l39 152h169l-82 -152h-126z" />
    <glyph glyph-name="Lcaron" unicode="&#x13d;" horiz-adv-x="577" 
d="M57 0v715h157v-572h327v-143h-484zM276 544l29 171h164l-70 -171h-123z" />
    <glyph glyph-name="lcaron" unicode="&#x13e;" horiz-adv-x="240" 
d="M48 0v715h149v-715h-149zM228 544l29 171h164l-70 -171h-123z" />
    <glyph glyph-name="Ldot" unicode="&#x13f;" horiz-adv-x="577" 
d="M57 0v715h157v-572h327v-143h-484zM306.5 314.5q-28.5 28.5 -28.5 68.5q0 41 30 69t74 28t72.5 -28.5t28.5 -68.5q0 -42 -30 -69.5t-73 -27.5q-45 0 -73.5 28.5z" />
    <glyph glyph-name="ldot" unicode="&#x140;" horiz-adv-x="510" 
d="M48 0v715h149v-715h-149zM294.5 230.5q-28.5 28.5 -28.5 68.5q0 41 30 69t74 28t72.5 -28.5t28.5 -68.5q0 -42 -30 -69.5t-73 -27.5q-45 0 -73.5 28.5z" />
    <glyph glyph-name="Lslash" unicode="&#x141;" horiz-adv-x="577" 
d="M57 0v207l-48 -27l-50 120l98 56v359h157v-270l147 83l58 -121l-205 -113v-151h327v-143h-484z" />
    <glyph glyph-name="lslash" unicode="&#x142;" horiz-adv-x="364" 
d="M107 0v233l-90 -59v162l90 59v320h149v-223l91 59v-162l-91 -59v-330h-149z" />
    <glyph glyph-name="Nacute" unicode="&#x143;" horiz-adv-x="731" 
d="M57 0v715h172l289 -480h2v480h154v-715h-170l-292 482h-1v-482h-154zM299 747l69 148h191l-123 -148h-137z" />
    <glyph glyph-name="nacute" unicode="&#x144;" horiz-adv-x="547" 
d="M48 484h149v-61h1q20 33 58 54t86 21q69 0 115.5 -40t46.5 -121v-337h-149v300q0 34 -17.5 55t-50.5 21q-40 0 -65 -29.5t-25 -89.5v-257h-149v484zM215 541l69 148h191l-123 -148h-137z" />
    <glyph glyph-name="uni0145" unicode="&#x145;" horiz-adv-x="731" 
d="M57 0v715h172l289 -480h2v480h154v-715h-170l-292 482h-1v-482h-154zM265 -206l39 152h169l-82 -152h-126z" />
    <glyph glyph-name="uni0146" unicode="&#x146;" horiz-adv-x="547" 
d="M48 484h149v-61h1q20 33 58 54t86 21q69 0 115.5 -40t46.5 -121v-337h-149v300q0 34 -17.5 55t-50.5 21q-40 0 -65 -29.5t-25 -89.5v-257h-149v484zM165 -206l39 152h169l-82 -152h-126z" />
    <glyph glyph-name="Ncaron" unicode="&#x147;" horiz-adv-x="731" 
d="M57 0v715h172l289 -480h2v480h154v-715h-170l-292 482h-1v-482h-154zM285 747l-94 148h142l42 -67l41 67h140l-83 -148h-188z" />
    <glyph glyph-name="ncaron" unicode="&#x148;" horiz-adv-x="547" 
d="M48 484h149v-61h1q20 33 58 54t86 21q69 0 115.5 -40t46.5 -121v-337h-149v300q0 34 -17.5 55t-50.5 21q-40 0 -65 -29.5t-25 -89.5v-257h-149v484zM200 541l-94 148h142l42 -67l41 67h140l-83 -148h-188z" />
    <glyph glyph-name="Eng" unicode="&#x14a;" horiz-adv-x="731" 
d="M400.5 -179.5q-40.5 20.5 -61.5 46.5l89 83q9 -13 23.5 -24t31.5 -11q19 0 30 11.5t11 31.5v42h-20l-292 482h-1v-482h-154v715h172l289 -480h2v480h154v-741q0 -82 -44.5 -128t-128.5 -46q-60 0 -100.5 20.5z" />
    <glyph glyph-name="eng" unicode="&#x14b;" horiz-adv-x="547" 
d="M230.5 -179.5q-40.5 20.5 -61.5 46.5l89 83q9 -13 23.5 -24t31.5 -11q19 0 30 11.5t11 31.5v42h1v300q0 34 -17.5 55t-50.5 21q-40 0 -65 -29.5t-25 -89.5v-257h-149v484h149v-61h1q20 33 58 54t86 21q69 0 115.5 -40t46.5 -121v-363q0 -82 -44.5 -128t-128.5 -46
q-60 0 -100.5 20.5z" />
    <glyph glyph-name="Omacron" unicode="&#x14c;" horiz-adv-x="765" 
d="M208.5 26q-81.5 44 -130.5 130t-49 204t49 202.5t130.5 127.5t177.5 43t175.5 -43.5t127 -128t47.5 -202.5t-47.5 -203t-127.5 -129.5t-175 -44.5q-96 0 -177.5 44zM518.5 181q52.5 59 52.5 177q0 119 -53 177t-134 58q-52 0 -95 -24.5t-69 -77t-26 -131.5
q0 -81 26.5 -134.5t69.5 -78.5t95 -25q81 0 133.5 59zM210 762v114h343v-114h-343z" />
    <glyph glyph-name="omacron" unicode="&#x14d;" horiz-adv-x="554" 
d="M149.5 12.5q-57.5 29.5 -92 87.5t-34.5 141t34.5 142t92 89t124.5 30q68 0 126.5 -30t94 -89t35.5 -141q0 -81 -34.5 -139.5t-93 -89t-127.5 -30.5q-68 0 -125.5 29.5zM349.5 140.5q28.5 32.5 28.5 101.5q0 71 -29 103.5t-73 32.5q-43 0 -72 -33.5t-29 -102.5
q0 -68 28.5 -101t72.5 -33q45 0 73.5 32.5zM105 553v114h343v-114h-343z" />
    <glyph glyph-name="Obreve" unicode="&#x14e;" horiz-adv-x="765" 
d="M208.5 26q-81.5 44 -130.5 130t-49 204t49 202.5t130.5 127.5t177.5 43t175.5 -43.5t127 -128t47.5 -202.5t-47.5 -203t-127.5 -129.5t-175 -44.5q-96 0 -177.5 44zM518.5 181q52.5 59 52.5 177q0 119 -53 177t-134 58q-52 0 -95 -24.5t-69 -77t-26 -131.5
q0 -81 26.5 -134.5t69.5 -78.5t95 -25q81 0 133.5 59zM296.5 767q-37.5 20 -58.5 54.5t-21 77.5h124q0 -22 12 -35.5t31 -13.5q18 0 29.5 14t11.5 35h124q0 -42 -20.5 -76.5t-58 -55t-87.5 -20.5q-49 0 -86.5 20z" />
    <glyph glyph-name="obreve" unicode="&#x14f;" horiz-adv-x="554" 
d="M149.5 12.5q-57.5 29.5 -92 87.5t-34.5 141t34.5 142t92 89t124.5 30q68 0 126.5 -30t94 -89t35.5 -141q0 -81 -34.5 -139.5t-93 -89t-127.5 -30.5q-68 0 -125.5 29.5zM349.5 140.5q28.5 32.5 28.5 101.5q0 71 -29 103.5t-73 32.5q-43 0 -72 -33.5t-29 -102.5
q0 -68 28.5 -101t72.5 -33q45 0 73.5 32.5zM190.5 558q-37.5 20 -58.5 54.5t-21 77.5h124q0 -22 12 -35.5t31 -13.5q18 0 29.5 14t11.5 35h124q0 -42 -20.5 -76.5t-58 -55t-87.5 -20.5q-49 0 -86.5 20z" />
    <glyph glyph-name="Ohungarumlaut" unicode="&#x150;" horiz-adv-x="765" 
d="M208.5 26q-81.5 44 -130.5 130t-49 204t49 202.5t130.5 127.5t177.5 43t175.5 -43.5t127 -128t47.5 -202.5t-47.5 -203t-127.5 -129.5t-175 -44.5q-96 0 -177.5 44zM518.5 181q52.5 59 52.5 177q0 119 -53 177t-134 58q-52 0 -95 -24.5t-69 -77t-26 -131.5
q0 -81 26.5 -134.5t69.5 -78.5t95 -25q81 0 133.5 59zM215 752l63 147h166l-110 -147h-119zM413 752l64 147h168l-113 -147h-119z" />
    <glyph glyph-name="ohungarumlaut" unicode="&#x151;" horiz-adv-x="554" 
d="M149.5 12.5q-57.5 29.5 -92 87.5t-34.5 141t34.5 142t92 89t124.5 30q68 0 126.5 -30t94 -89t35.5 -141q0 -81 -34.5 -139.5t-93 -89t-127.5 -30.5q-68 0 -125.5 29.5zM349.5 140.5q28.5 32.5 28.5 101.5q0 71 -29 103.5t-73 32.5q-43 0 -72 -33.5t-29 -102.5
q0 -68 28.5 -101t72.5 -33q45 0 73.5 32.5zM109 543l63 147h166l-110 -147h-119zM307 543l64 147h168l-113 -147h-119z" />
    <glyph glyph-name="OE" unicode="&#x152;" horiz-adv-x="1127" 
d="M194 26.5q-75 44.5 -120 130.5t-45 203q0 118 45.5 202.5t120.5 127.5t163 43q71 0 126 -28.5t89 -84.5v95h511v-140h-356v-144h312v-130h-312v-161h352v-140h-507v97q-35 -57 -89 -86t-126 -29q-89 0 -164 44.5zM518.5 181q52.5 59 52.5 177q0 119 -53 177t-134 58
q-52 0 -95 -24.5t-69 -77t-26 -131.5q0 -81 26.5 -134.5t69.5 -78.5t95 -25q81 0 133.5 59z" />
    <glyph glyph-name="oe" unicode="&#x153;" horiz-adv-x="886" 
d="M149.5 12.5q-57.5 29.5 -92 87.5t-34.5 141t34.5 142t92 89t124.5 30q52 0 97 -18t78 -54q64 72 178 72q113 0 172.5 -65.5t59.5 -185.5v-48h-333q3 -43 33 -70t73 -27q39 0 63.5 19.5t33.5 47.5l117 -60q-21 -51 -76 -90.5t-143 -39.5q-113 0 -178 71q-32 -35 -76.5 -53
t-97.5 -18q-68 0 -125.5 29.5zM349.5 140.5q28.5 32.5 28.5 101.5q0 71 -29 103.5t-73 32.5q-43 0 -72 -33.5t-29 -102.5q0 -68 28.5 -101t72.5 -33q45 0 73.5 32.5zM704 295q-3 102 -84 102q-40 0 -63.5 -28t-26.5 -74h174z" />
    <glyph glyph-name="Racute" unicode="&#x154;" horiz-adv-x="678" 
d="M57 715h311q122 0 186.5 -55t64.5 -157q0 -94 -49.5 -143.5t-114.5 -70.5l182 -285v-4h-186l-158 259h-79v-259h-157v715zM332 381q53 0 87 24.5t34 79.5q0 54 -31 76.5t-75 22.5h-133v-203h118zM259 747l69 148h191l-123 -148h-137z" />
    <glyph glyph-name="racute" unicode="&#x155;" horiz-adv-x="390" 
d="M48 484h149v-66h1q45 81 117 81q17 0 35 -4.5t31 -12.5l-25 -137q-30 12 -64 12q-50 0 -72.5 -38.5t-22.5 -112.5v-206h-149v484zM144 542l69 148h191l-123 -148h-137z" />
    <glyph glyph-name="uni0156" unicode="&#x156;" horiz-adv-x="678" 
d="M57 715h311q122 0 186.5 -55t64.5 -157q0 -94 -49.5 -143.5t-114.5 -70.5l182 -285v-4h-186l-158 259h-79v-259h-157v715zM232 -206l39 152h169l-82 -152h-126zM332 381q53 0 87 24.5t34 79.5q0 54 -31 76.5t-75 22.5h-133v-203h118z" />
    <glyph glyph-name="uni0157" unicode="&#x157;" horiz-adv-x="390" 
d="M48 484h149v-66h1q45 81 117 81q17 0 35 -4.5t31 -12.5l-25 -137q-30 12 -64 12q-50 0 -72.5 -38.5t-22.5 -112.5v-206h-149v484zM1 -206l39 152h169l-82 -152h-126z" />
    <glyph glyph-name="Rcaron" unicode="&#x158;" horiz-adv-x="678" 
d="M57 715h311q122 0 186.5 -55t64.5 -157q0 -94 -49.5 -143.5t-114.5 -70.5l182 -285v-4h-186l-158 259h-79v-259h-157v715zM332 381q53 0 87 24.5t34 79.5q0 54 -31 76.5t-75 22.5h-133v-203h118zM244 747l-94 148h142l42 -67l41 67h140l-83 -148h-188z" />
    <glyph glyph-name="rcaron" unicode="&#x159;" horiz-adv-x="390" 
d="M48 484h149v-66h1q45 81 117 81q17 0 35 -4.5t31 -12.5l-25 -137q-30 12 -64 12q-50 0 -72.5 -38.5t-22.5 -112.5v-206h-149v484zM129 542l-94 148h142l42 -67l41 67h140l-83 -148h-188z" />
    <glyph glyph-name="Sacute" unicode="&#x15a;" horiz-adv-x="635" 
d="M126 39.5q-73 57.5 -95 133.5l150 68q11 -50 48 -88t102 -38q46 0 74 19t28 54q0 28 -18.5 46.5t-47 30.5t-81.5 28q-70 21 -119 46.5t-81 69t-32 109.5q0 64 31 112.5t88.5 75.5t134.5 27q115 0 183.5 -54.5t91.5 -128.5l-140 -58q-10 44 -41.5 77.5t-85.5 33.5
q-40 0 -66 -19t-26 -53q0 -39 32.5 -59t97.5 -39q7 -2 13.5 -4t12.5 -4q104 -33 164 -83t60 -144q0 -101 -74 -158.5t-200 -57.5q-131 0 -204 57.5zM243 751l69 148h191l-123 -148h-137z" />
    <glyph glyph-name="sacute" unicode="&#x15b;" horiz-adv-x="480" 
d="M85 25q-56 42 -69 101l128 40q8 -31 33 -53.5t67 -22.5q27 0 43 11t16 31q0 19 -13.5 30t-33.5 17t-62 16q-50 12 -84 27t-56 44t-22 76q0 75 55 117.5t150 42.5q94 0 148 -39t71 -91l-122 -42q-13 27 -37.5 47t-58.5 20q-24 0 -38 -11.5t-14 -30.5q0 -23 20 -32.5
t48 -16t37 -8.5q76 -18 120.5 -50.5t44.5 -100.5q0 -72 -52.5 -118t-159.5 -46q-103 0 -159 42zM184 542l69 148h191l-123 -148h-137z" />
    <glyph glyph-name="Scircumflex" unicode="&#x15c;" horiz-adv-x="635" 
d="M126 39.5q-73 57.5 -95 133.5l150 68q11 -50 48 -88t102 -38q46 0 74 19t28 54q0 28 -18.5 46.5t-47 30.5t-81.5 28q-70 21 -119 46.5t-81 69t-32 109.5q0 64 31 112.5t88.5 75.5t134.5 27q115 0 183.5 -54.5t91.5 -128.5l-140 -58q-10 44 -41.5 77.5t-85.5 33.5
q-40 0 -66 -19t-26 -53q0 -39 32.5 -59t97.5 -39q7 -2 13.5 -4t12.5 -4q104 -33 164 -83t60 -144q0 -101 -74 -158.5t-200 -57.5q-131 0 -204 57.5zM133 751l94 148h188l82 -148h-140l-40 66l-42 -66h-142z" />
    <glyph glyph-name="scircumflex" unicode="&#x15d;" horiz-adv-x="480" 
d="M85 25q-56 42 -69 101l128 40q8 -31 33 -53.5t67 -22.5q27 0 43 11t16 31q0 19 -13.5 30t-33.5 17t-62 16q-50 12 -84 27t-56 44t-22 76q0 75 55 117.5t150 42.5q94 0 148 -39t71 -91l-122 -42q-13 27 -37.5 47t-58.5 20q-24 0 -38 -11.5t-14 -30.5q0 -23 20 -32.5
t48 -16t37 -8.5q76 -18 120.5 -50.5t44.5 -100.5q0 -72 -52.5 -118t-159.5 -46q-103 0 -159 42zM74 541l94 149h188l82 -149h-140l-40 67l-42 -67h-142z" />
    <glyph glyph-name="Scedilla" unicode="&#x15e;" horiz-adv-x="635" 
d="M248.5 -193q-32.5 26 -40.5 64l96 11q4 -21 24 -21q21 0 21 23q0 12 -6.5 18t-15.5 6q-7 0 -13 -4t-9 -8l-64 40l40 48q-107 12 -168.5 66.5t-81.5 122.5l150 68q11 -50 48 -88t102 -38q46 0 74 19t28 54q0 28 -18.5 46.5t-47 30.5t-81.5 28q-70 21 -119 46.5t-81 69
t-32 109.5q0 64 31 112.5t88.5 75.5t134.5 27q115 0 183.5 -54.5t91.5 -128.5l-140 -58q-10 44 -41.5 77.5t-85.5 33.5q-40 0 -66 -19t-26 -53q0 -39 32.5 -59t97.5 -39q7 -2 13.5 -4t12.5 -4q104 -33 164 -83t60 -144q0 -92 -61.5 -148t-168.5 -66l-22 -23q8 4 26 4
q36 0 58 -21.5t22 -60.5q0 -47 -33 -74.5t-89 -27.5q-55 0 -87.5 26z" />
    <glyph glyph-name="scedilla" unicode="&#x15f;" horiz-adv-x="480" 
d="M175.5 -196q-32.5 26 -40.5 64l96 11q4 -21 24 -21q21 0 21 23q0 12 -6.5 18t-15.5 6q-7 0 -13 -4t-9 -8l-64 40l43 51q-87 8 -135.5 49t-59.5 93l128 40q8 -31 33 -53.5t67 -22.5q27 0 43 11t16 31q0 19 -13.5 30t-33.5 17t-62 16q-50 12 -84 27t-56 44t-22 76
q0 75 55 117.5t150 42.5q94 0 148 -39t71 -91l-122 -42q-13 27 -37.5 47t-58.5 20q-24 0 -38 -11.5t-14 -30.5q0 -23 20 -32.5t48 -16t37 -8.5q76 -18 120.5 -50.5t44.5 -100.5q0 -59 -36.5 -102t-111.5 -57l-29 -30q8 4 26 4q36 0 58 -21.5t22 -60.5q0 -47 -33 -74.5
t-89 -27.5q-55 0 -87.5 26z" />
    <glyph glyph-name="Scaron" unicode="&#x160;" horiz-adv-x="635" 
d="M126 39.5q-73 57.5 -95 133.5l150 68q11 -50 48 -88t102 -38q46 0 74 19t28 54q0 28 -18.5 46.5t-47 30.5t-81.5 28q-70 21 -119 46.5t-81 69t-32 109.5q0 64 31 112.5t88.5 75.5t134.5 27q115 0 183.5 -54.5t91.5 -128.5l-140 -58q-10 44 -41.5 77.5t-85.5 33.5
q-40 0 -66 -19t-26 -53q0 -39 32.5 -59t97.5 -39q7 -2 13.5 -4t12.5 -4q104 -33 164 -83t60 -144q0 -101 -74 -158.5t-200 -57.5q-131 0 -204 57.5zM228 751l-94 148h142l42 -67l41 67h140l-83 -148h-188z" />
    <glyph glyph-name="scaron" unicode="&#x161;" horiz-adv-x="480" 
d="M85 25q-56 42 -69 101l128 40q8 -31 33 -53.5t67 -22.5q27 0 43 11t16 31q0 19 -13.5 30t-33.5 17t-62 16q-50 12 -84 27t-56 44t-22 76q0 75 55 117.5t150 42.5q94 0 148 -39t71 -91l-122 -42q-13 27 -37.5 47t-58.5 20q-24 0 -38 -11.5t-14 -30.5q0 -23 20 -32.5
t48 -16t37 -8.5q76 -18 120.5 -50.5t44.5 -100.5q0 -72 -52.5 -118t-159.5 -46q-103 0 -159 42zM169 542l-94 148h142l42 -67l41 67h140l-83 -148h-188z" />
    <glyph glyph-name="uni0162" unicode="&#x162;" horiz-adv-x="618" 
d="M226.5 -196q-32.5 26 -40.5 64l96 11q4 -21 24 -21q21 0 21 23q0 12 -6.5 18t-15.5 6q-7 0 -13 -4t-9 -8l-64 40l56 67h-45v574h-212v141h581v-141h-213v-574h-16l-40 -42q8 4 26 4q36 0 58 -21.5t22 -60.5q0 -47 -33 -74.5t-89 -27.5q-55 0 -87.5 26z" />
    <glyph glyph-name="uni0163" unicode="&#x163;" horiz-adv-x="398" 
d="M141.5 -194q-32.5 26 -40.5 64l96 11q4 -21 24 -21q21 0 21 23q0 12 -6.5 18t-15.5 6q-7 0 -13 -4t-9 -8l-64 40l53 64q-38 15 -57.5 43.5t-19.5 65.5v257h-91v119h54q37 0 37 37v95l149 32v-164h115v-119h-115v-222q0 -35 40 -35q23 0 44 11l30 -109q-42 -22 -103 -24
l-25 -26q8 4 26 4q36 0 58 -21.5t22 -60.5q0 -47 -33 -74.5t-89 -27.5q-55 0 -87.5 26z" />
    <glyph glyph-name="Tcaron" unicode="&#x164;" horiz-adv-x="618" 
d="M230 0v574h-212v141h581v-141h-213v-574h-156zM220 747l-94 148h142l42 -67l41 67h140l-83 -148h-188z" />
    <glyph glyph-name="tcaron" unicode="&#x165;" horiz-adv-x="398" 
d="M150 20.5q-40 34.5 -40 87.5v257h-91v119h54q37 0 37 37v95l149 32v-164h115v-119h-115v-222q0 -35 40 -35q23 0 44 11l30 -109q-45 -24 -106 -24q-77 0 -117 34.5zM291 570l29 171h164l-70 -171h-123z" />
    <glyph glyph-name="Tbar" unicode="&#x166;" horiz-adv-x="618" 
d="M230 0v356h-104v111h104v107h-212v141h581v-141h-213v-107h104v-111h-104v-356h-156z" />
    <glyph glyph-name="tbar" unicode="&#x167;" horiz-adv-x="398" 
d="M150 20.5q-40 34.5 -40 87.5v139h-66v93h66v25h-91v119h54q37 0 37 37v95l149 32v-164h115v-119h-115v-25h73v-93h-73v-104q0 -35 40 -35q23 0 44 11l30 -109q-45 -24 -106 -24q-77 0 -117 34.5z" />
    <glyph glyph-name="Utilde" unicode="&#x168;" horiz-adv-x="710" 
d="M198 13.5q-67 31.5 -104 86.5t-37 123v492h157v-454q0 -70 37 -105.5t105 -35.5q67 0 103.5 35.5t36.5 105.5v454h157v-491q0 -69 -38 -124t-106.5 -86.5t-155.5 -31.5q-88 0 -155 31.5zM155 781q22 61 53.5 88t76.5 27q24 0 40 -6t35 -18q14 -8 24 -12.5t24 -4.5
q38 0 57 40l88 -29q-23 -69 -56.5 -95t-73.5 -26q-22 0 -37.5 6t-38.5 19q-28 16 -48 16q-37 0 -60 -44z" />
    <glyph glyph-name="utilde" unicode="&#x169;" horiz-adv-x="547" 
d="M91.5 26q-48.5 40 -48.5 121v337h149v-302q0 -34 18 -54t50 -20q40 0 65 28.5t25 87.5v260h150v-484h-150v59h-1q-49 -73 -141 -73q-68 0 -116.5 40zM70 575q22 61 53.5 88t76.5 27q24 0 40 -6t35 -18q14 -8 24 -12.5t24 -4.5q38 0 57 40l88 -29q-23 -69 -56.5 -95
t-73.5 -26q-22 0 -37.5 6t-38.5 19q-28 16 -48 16q-37 0 -60 -44z" />
    <glyph glyph-name="Umacron" unicode="&#x16a;" horiz-adv-x="710" 
d="M198 13.5q-67 31.5 -104 86.5t-37 123v492h157v-454q0 -70 37 -105.5t105 -35.5q67 0 103.5 35.5t36.5 105.5v454h157v-491q0 -69 -38 -124t-106.5 -86.5t-155.5 -31.5q-88 0 -155 31.5zM186 758v114h343v-114h-343z" />
    <glyph glyph-name="umacron" unicode="&#x16b;" horiz-adv-x="547" 
d="M91.5 26q-48.5 40 -48.5 121v337h149v-302q0 -34 18 -54t50 -20q40 0 65 28.5t25 87.5v260h150v-484h-150v59h-1q-49 -73 -141 -73q-68 0 -116.5 40zM101 552v114h343v-114h-343z" />
    <glyph glyph-name="Ubreve" unicode="&#x16c;" horiz-adv-x="710" 
d="M198 13.5q-67 31.5 -104 86.5t-37 123v492h157v-454q0 -70 37 -105.5t105 -35.5q67 0 103.5 35.5t36.5 105.5v454h157v-491q0 -69 -38 -124t-106.5 -86.5t-155.5 -31.5q-88 0 -155 31.5zM271.5 763q-37.5 20 -58.5 54.5t-21 77.5h124q0 -22 12 -35.5t31 -13.5
q18 0 29.5 14t11.5 35h124q0 -42 -20.5 -76.5t-58 -55t-87.5 -20.5q-49 0 -86.5 20z" />
    <glyph glyph-name="ubreve" unicode="&#x16d;" horiz-adv-x="547" 
d="M91.5 26q-48.5 40 -48.5 121v337h149v-302q0 -34 18 -54t50 -20q40 0 65 28.5t25 87.5v260h150v-484h-150v59h-1q-49 -73 -141 -73q-68 0 -116.5 40zM187.5 557q-37.5 20 -58.5 54.5t-21 77.5h124q0 -22 12 -35.5t31 -13.5q18 0 29.5 14t11.5 35h124q0 -42 -20.5 -76.5
t-58 -55t-87.5 -20.5q-49 0 -86.5 20z" />
    <glyph glyph-name="Uring" unicode="&#x16e;" horiz-adv-x="710" 
d="M198 13.5q-67 31.5 -104 86.5t-37 123v492h157v-454q0 -70 37 -105.5t105 -35.5q67 0 103.5 35.5t36.5 105.5v454h157v-491q0 -69 -38 -124t-106.5 -86.5t-155.5 -31.5q-88 0 -155 31.5zM267 767.5q-36 35.5 -36 88.5t36.5 87.5t91.5 34.5q54 0 90.5 -35t36.5 -88
t-35.5 -88t-90.5 -35q-57 0 -93 35.5zM391 821.5q13 13.5 13 33.5q0 21 -13.5 34t-32.5 13q-18 0 -32 -13.5t-14 -33.5q0 -21 13.5 -34t32.5 -13q20 0 33 13.5z" />
    <glyph glyph-name="uring" unicode="&#x16f;" horiz-adv-x="547" 
d="M91.5 26q-48.5 40 -48.5 121v337h149v-302q0 -34 18 -54t50 -20q40 0 65 28.5t25 87.5v260h150v-484h-150v59h-1q-49 -73 -141 -73q-68 0 -116.5 40zM182 561.5q-36 35.5 -36 88.5t36.5 87.5t91.5 34.5q54 0 90.5 -35t36.5 -88t-35.5 -88t-90.5 -35q-57 0 -93 35.5z
M306 615.5q13 13.5 13 33.5q0 21 -13.5 34t-32.5 13q-18 0 -32 -13.5t-14 -33.5q0 -21 13.5 -34t32.5 -13q20 0 33 13.5z" />
    <glyph glyph-name="Uhungarumlaut" unicode="&#x170;" horiz-adv-x="710" 
d="M198 13.5q-67 31.5 -104 86.5t-37 123v492h157v-454q0 -70 37 -105.5t105 -35.5q67 0 103.5 35.5t36.5 105.5v454h157v-491q0 -69 -38 -124t-106.5 -86.5t-155.5 -31.5q-88 0 -155 31.5zM190 748l63 147h166l-110 -147h-119zM388 748l64 147h168l-113 -147h-119z" />
    <glyph glyph-name="uhungarumlaut" unicode="&#x171;" horiz-adv-x="547" 
d="M91.5 26q-48.5 40 -48.5 121v337h149v-302q0 -34 18 -54t50 -20q40 0 65 28.5t25 87.5v260h150v-484h-150v59h-1q-49 -73 -141 -73q-68 0 -116.5 40zM106 542l63 147h166l-110 -147h-119zM304 542l64 147h168l-113 -147h-119z" />
    <glyph glyph-name="Uogonek" unicode="&#x172;" horiz-adv-x="710" 
d="M312 -195.5q-32 26.5 -32 69.5q0 56 65 108q-86 1 -151.5 33t-101 86.5t-35.5 121.5v492h157v-454q0 -70 37 -105.5t105 -35.5q67 0 103.5 35.5t36.5 105.5v454h157v-491q0 -84 -55.5 -146t-149.5 -85l-18 -21q-23 -27 -26.5 -33t-3.5 -13q0 -22 6.5 -32.5t25.5 -10.5
q15 0 25 6.5t28 24.5l12 -94q-9 -15 -37 -28.5t-65 -13.5q-51 0 -83 26.5z" />
    <glyph glyph-name="uogonek" unicode="&#x173;" horiz-adv-x="547" 
d="M335 -199q-32 26 -32 70q0 41 24.5 74.5t56.5 54.5h-34v59h-1q-49 -73 -141 -73q-68 0 -116.5 40t-48.5 121v337h149v-302q0 -34 18 -54t50 -20q40 0 65 28.5t25 87.5v260h150v-484q-73 -54 -73 -94q0 -12 7.5 -19t22.5 -7q25 0 52 21l15 -94q-15 -13 -43.5 -22.5
t-61.5 -9.5q-52 0 -84 26z" />
    <glyph glyph-name="Wcircumflex" unicode="&#x174;" horiz-adv-x="1032" 
d="M227 0l-214 715h159l136 -464h2l137 464h140l135 -463h2l136 463h159l-215 -715h-149l-138 469h-2l-138 -469h-150zM336 747l94 148h188l82 -148h-140l-40 66l-42 -66h-142z" />
    <glyph glyph-name="wcircumflex" unicode="&#x175;" horiz-adv-x="777" 
d="M172 0l-161 484h159l81 -277l82 277h112l81 -277l82 277h158l-161 -484h-131l-85 281l-85 -281h-132zM209 539l94 148h188l82 -148h-140l-40 66l-42 -66h-142z" />
    <glyph glyph-name="Ycircumflex" unicode="&#x176;" horiz-adv-x="680" 
d="M262 0v252l-259 463h179l161 -303l161 303h173l-259 -463v-252h-156zM160 747l94 148h188l82 -148h-140l-40 66l-42 -66h-142z" />
    <glyph glyph-name="ycircumflex" unicode="&#x177;" horiz-adv-x="529" 
d="M28 -194l7 121h90q34 0 48.5 23t12.5 55l-175 479h154l98 -328l103 328h151l-168 -459q-24 -67 -50 -112t-77 -78.5t-133 -33.5q-31 0 -61 5zM91 541l94 148h188l82 -148h-140l-40 66l-42 -66h-142z" />
    <glyph glyph-name="Ydieresis" unicode="&#x178;" horiz-adv-x="680" 
d="M262 0v252l-259 463h179l161 -303l161 303h173l-259 -463v-252h-156zM172.5 773.5q-27.5 23.5 -27.5 56.5t27 57t63 24q37 0 64 -24.5t27 -57.5q0 -32 -26.5 -55.5t-63.5 -23.5q-36 0 -63.5 23.5zM381.5 774q-26.5 24 -26.5 57t26 56.5t63 23.5t64.5 -24t27.5 -57
t-27 -56.5t-64 -23.5t-63.5 24z" />
    <glyph glyph-name="Zacute" unicode="&#x179;" horiz-adv-x="625" 
d="M38 0v122l344 453h-333v140h524v-122l-349 -454h363v-139h-549zM240 747l69 148h191l-123 -148h-137z" />
    <glyph glyph-name="zacute" unicode="&#x17a;" horiz-adv-x="497" 
d="M40 0v114l237 246h-229v124h407v-114l-232 -246h243v-124h-426zM182 541l69 148h191l-123 -148h-137z" />
    <glyph glyph-name="Zdotaccent" unicode="&#x17b;" horiz-adv-x="625" 
d="M38 0v122l344 453h-333v140h524v-122l-349 -454h363v-139h-549zM246 774q-27 24 -27 59q0 36 27 61.5t65 25.5t65 -25t27 -60q0 -36 -26 -60.5t-65 -24.5t-66 24z" />
    <glyph glyph-name="zdotaccent" unicode="&#x17c;" horiz-adv-x="497" 
d="M40 0v114l237 246h-229v124h407v-114l-232 -246h243v-124h-426zM184.5 561q-27.5 25 -27.5 63t27.5 62.5t68.5 24.5t68.5 -25.5t27.5 -61.5q0 -37 -27 -62.5t-69 -25.5q-41 0 -68.5 25z" />
    <glyph glyph-name="Zcaron" unicode="&#x17d;" horiz-adv-x="625" 
d="M38 0v122l344 453h-333v140h524v-122l-349 -454h363v-139h-549zM225 747l-94 148h142l42 -67l41 67h140l-83 -148h-188z" />
    <glyph glyph-name="zcaron" unicode="&#x17e;" horiz-adv-x="497" 
d="M40 0v114l237 246h-229v124h407v-114l-232 -246h243v-124h-426zM167 541l-94 148h142l42 -67l41 67h140l-83 -148h-188z" />
    <glyph glyph-name="florin" unicode="&#x192;" horiz-adv-x="491" 
d="M-82 -194l47 118q10 -5 25 -8t28 -3q49 0 59 52l85 400h-95l25 119h95l17 80q17 80 69 122t134 42q61 0 103 -20l-50 -118q-11 5 -26.5 8t-26.5 3q-49 0 -60 -52l-14 -65h114l-25 -119h-111l-88 -415q-17 -80 -69.5 -122.5t-134.5 -42.5q-57 0 -101 21z" />
    <glyph glyph-name="Aringacute" unicode="&#x1fa;" horiz-adv-x="733" 
d="M13 0l253 715h199l254 -715h-166l-54 157h-271l-53 -157h-162zM275 294h177l-89 257h-1zM277 767.5q-36 35.5 -36 88.5t36.5 87.5t91.5 34.5q54 0 90.5 -35t36.5 -88t-35.5 -88t-90.5 -35q-57 0 -93 35.5zM401 821.5q13 13.5 13 33.5q0 21 -13.5 34t-32.5 13
q-18 0 -32 -13.5t-14 -33.5q0 -21 13.5 -34t32.5 -13q20 0 33 13.5zM297 992l69 148h191l-123 -148h-137z" />
    <glyph glyph-name="aringacute" unicode="&#x1fb;" horiz-adv-x="557" 
d="M82.5 23q-45.5 37 -45.5 103q0 62 40.5 98t95.5 52t131 28q34 5 45 10t11 20q0 20 -17.5 35t-58.5 15q-48 0 -76 -20t-37 -47l-109 63q20 50 77.5 86t152.5 36q93 0 154 -43t58 -139l-5 -183q-1 -17 8.5 -26t28.5 -8v-111q-28 -4 -52 -4q-60 0 -87.5 27.5t-32.5 83.5h-3
q-14 -53 -56.5 -83t-106.5 -30q-70 0 -115.5 37zM323.5 131q31.5 32 33.5 73l2 38q-9 -12 -21.5 -18t-37.5 -11q-43 -10 -65.5 -16.5t-36 -19.5t-13.5 -34q0 -44 56 -44q51 0 82.5 32zM191 565.5q-36 35.5 -36 88.5t36.5 87.5t91.5 34.5q54 0 90.5 -35t36.5 -88t-35.5 -88
t-90.5 -35q-57 0 -93 35.5zM315 619.5q13 13.5 13 33.5q0 21 -13.5 34t-32.5 13q-18 0 -32 -13.5t-14 -33.5q0 -21 13.5 -34t32.5 -13q20 0 33 13.5zM211 791l69 148h191l-123 -148h-137z" />
    <glyph glyph-name="AEacute" unicode="&#x1fc;" horiz-adv-x="992" 
d="M12 0l312 715h628v-140h-335v-144h293v-130h-293v-162h330v-139h-486v171h-206l-73 -171h-170zM313 308h148v259h-38zM554 747l69 148h191l-123 -148h-137z" />
    <glyph glyph-name="aeacute" unicode="&#x1fd;" horiz-adv-x="862" 
d="M478 13.5q-52 29.5 -80 88.5q-69 -116 -203 -116q-75 0 -120.5 36t-45.5 103q0 57 32 90.5t78 49.5t111 29q39 7 52 9t20 3q30 5 30 28q0 19 -18 33.5t-59 14.5q-47 0 -74 -19.5t-38 -47.5l-109 64q21 50 78.5 86.5t147.5 36.5q58 0 96 -16.5t67 -48.5q36 33 73.5 49
t91.5 16q115 0 172 -68t57 -186v-45h-333q2 -41 30 -69t75 -28q40 0 64.5 20t33.5 47l117 -60q-22 -53 -78 -91t-145 -38q-71 0 -123 29.5zM315 131.5q36 32.5 36 80.5v31q-12 -13 -29 -19t-58 -15q-49 -11 -68 -24t-19 -39q0 -24 14.5 -35.5t38.5 -11.5q49 0 85 32.5z
M683 295q-6 102 -84 102q-39 0 -64 -27.5t-26 -74.5h174zM351 542l69 148h191l-123 -148h-137z" />
    <glyph glyph-name="Oslashacute" unicode="&#x1fe;" horiz-adv-x="764" 
d="M41 39l65 74q-77 98 -77 246q0 117 49 201.5t130 128t175 43.5q121 0 212 -65l59 67l68 -63l-61 -69q74 -98 74 -244q0 -117 -47.5 -202.5t-127.5 -129.5t-175 -44q-58 0 -112.5 16.5t-99.5 49.5l-62 -71zM517.5 180q52.5 59 52.5 180q0 66 -19 117l-280 -318
q48 -38 113 -38q81 0 133.5 59zM496 555q-47 37 -113 37q-52 0 -94.5 -24.5t-68.5 -77t-26 -131.5q0 -70 21 -123zM310 750l69 148h191l-123 -148h-137z" />
    <glyph glyph-name="oslashacute" unicode="&#x1ff;" horiz-adv-x="586" 
d="M48 25l42 50q-64 71 -64 181q0 87 38 147.5t99.5 91t130.5 30.5q80 0 145 -40l42 50l59 -49l-43 -51q61 -73 61 -181q0 -86 -37.5 -146t-97.5 -90t-128 -30q-79 0 -146 38l-42 -49zM371 156q28 33 28 101q0 33 -7 55l-150 -176q25 -13 54 -13q47 0 75 33zM347 377
q-22 13 -50 13q-46 0 -78.5 -34.5t-32.5 -100.5q0 -31 8 -58zM222 567l69 148h191l-123 -148h-137z" />
    <glyph glyph-name="uni0218" unicode="&#x218;" horiz-adv-x="635" 
d="M126 39.5q-73 57.5 -95 133.5l150 68q11 -50 48 -88t102 -38q46 0 74 19t28 54q0 28 -18.5 46.5t-47 30.5t-81.5 28q-70 21 -119 46.5t-81 69t-32 109.5q0 64 31 112.5t88.5 75.5t134.5 27q115 0 183.5 -54.5t91.5 -128.5l-140 -58q-10 44 -41.5 77.5t-85.5 33.5
q-40 0 -66 -19t-26 -53q0 -39 32.5 -59t97.5 -39q7 -2 13.5 -4t12.5 -4q104 -33 164 -83t60 -144q0 -101 -74 -158.5t-200 -57.5q-131 0 -204 57.5zM210 -203l39 152h169l-82 -152h-126z" />
    <glyph glyph-name="uni0219" unicode="&#x219;" horiz-adv-x="480" 
d="M85 25q-56 42 -69 101l128 40q8 -31 33 -53.5t67 -22.5q27 0 43 11t16 31q0 19 -13.5 30t-33.5 17t-62 16q-50 12 -84 27t-56 44t-22 76q0 75 55 117.5t150 42.5q94 0 148 -39t71 -91l-122 -42q-13 27 -37.5 47t-58.5 20q-24 0 -38 -11.5t-14 -30.5q0 -23 20 -32.5
t48 -16t37 -8.5q76 -18 120.5 -50.5t44.5 -100.5q0 -72 -52.5 -118t-159.5 -46q-103 0 -159 42zM137 -206l39 152h169l-82 -152h-126z" />
    <glyph glyph-name="uni021A" unicode="&#x21a;" horiz-adv-x="618" 
d="M230 0v574h-212v141h581v-141h-213v-574h-156zM189 -206l39 152h169l-82 -152h-126z" />
    <glyph glyph-name="uni021B" unicode="&#x21b;" horiz-adv-x="398" 
d="M150 20.5q-40 34.5 -40 87.5v257h-91v119h54q37 0 37 37v95l149 32v-164h115v-119h-115v-222q0 -35 40 -35q23 0 44 11l30 -109q-45 -24 -106 -24q-77 0 -117 34.5zM103 -204l39 152h169l-82 -152h-126z" />
    <glyph glyph-name="uni0237" unicode="&#x237;" horiz-adv-x="256" 
d="M-30 -205l12 125q15 -3 30 -3q34 0 43 17.5t9 40.5v509h149v-494q0 -93 -49 -146.5t-137 -53.5q-36 0 -57 5z" />
    <glyph glyph-name="circumflex" unicode="&#x2c6;" horiz-adv-x="502" 
d="M69 576l94 149h188l82 -149h-140l-40 67l-42 -67h-142z" />
    <glyph glyph-name="caron" unicode="&#x2c7;" horiz-adv-x="503" 
d="M163 576l-94 149h142l42 -67l41 67h140l-83 -149h-188z" />
    <glyph glyph-name="breve" unicode="&#x2d8;" horiz-adv-x="471" 
d="M148.5 593q-37.5 20 -58.5 54.5t-21 77.5h124q0 -22 12 -35.5t31 -13.5q18 0 29.5 14t11.5 35h124q0 -42 -20.5 -76.5t-58 -55t-87.5 -20.5q-49 0 -86.5 20z" />
    <glyph glyph-name="dotaccent" unicode="&#x2d9;" horiz-adv-x="330" 
d="M96.5 596.5q-27.5 24.5 -27.5 62.5t27.5 63t68.5 25q42 0 69 -25.5t27 -62.5q0 -36 -27.5 -61.5t-68.5 -25.5t-68.5 24.5z" />
    <glyph glyph-name="ring" unicode="&#x2da;" horiz-adv-x="393" 
d="M105 597.5q-36 35.5 -36 88.5t36.5 87.5t91.5 34.5q54 0 90.5 -35t36.5 -88t-35.5 -88t-90.5 -35q-57 0 -93 35.5zM229 651.5q13 13.5 13 33.5q0 21 -13.5 34t-32.5 13q-18 0 -32 -13.5t-14 -33.5q0 -21 13.5 -34t32.5 -13q20 0 33 13.5z" />
    <glyph glyph-name="ogonek" unicode="&#x2db;" horiz-adv-x="356" 
d="M101 -198.5q-32 26.5 -32 69.5q0 33 22 64.5t71 64.5h87q-25 -26 -39.5 -42t-17.5 -21.5t-3 -12.5q0 -23 6.5 -33.5t25.5 -10.5q15 0 25 6.5t28 24.5l12 -94q-9 -15 -37 -28.5t-65 -13.5q-51 0 -83 26.5z" />
    <glyph glyph-name="tilde" unicode="&#x2dc;" horiz-adv-x="536" 
d="M69 611q22 61 53.5 88t76.5 27q24 0 40 -6t35 -18q14 -8 24 -12.5t24 -4.5q38 0 57 40l88 -29q-23 -69 -56.5 -95t-73.5 -26q-22 0 -37.5 6t-38.5 19q-28 16 -48 16q-37 0 -60 -44z" />
    <glyph glyph-name="hungarumlaut" unicode="&#x2dd;" horiz-adv-x="568" 
d="M267 577l64 148h168l-113 -148h-119zM69 577l63 148h166l-110 -148h-119z" />
    <glyph glyph-name="uni03A9" unicode="&#x3a9;" horiz-adv-x="801" 
d="M61 123h129v3q-27 16 -57 50t-53 87.5t-23 122.5q0 91 43 168.5t121 124t179 46.5q97 0 175.5 -43t123.5 -119.5t45 -172.5q0 -99 -42.5 -164t-96.5 -100v-3h134v-123h-308v123q64 37 109 95t45 158q0 99 -50 157.5t-134 58.5q-82 0 -133 -56.5t-51 -155.5
q0 -98 46.5 -160.5t106.5 -94.5v-125h-309v123z" />
    <glyph glyph-name="pi" unicode="&#x3c0;" horiz-adv-x="687" 
d="M151 0v351h-94v133h573v-133h-101v-351h-130v351h-115v-351h-133z" />
    <glyph glyph-name="Wgrave" unicode="&#x1e80;" horiz-adv-x="1032" 
d="M227 0l-214 715h159l136 -464h2l137 464h140l135 -463h2l136 463h159l-215 -715h-149l-138 469h-2l-138 -469h-150zM460 747l-123 148h191l69 -148h-137z" />
    <glyph glyph-name="wgrave" unicode="&#x1e81;" horiz-adv-x="777" 
d="M172 0l-161 484h159l81 -277l82 277h112l81 -277l82 277h158l-161 -484h-131l-85 281l-85 -281h-132zM333 539l-123 148h191l69 -148h-137z" />
    <glyph glyph-name="Wacute" unicode="&#x1e82;" horiz-adv-x="1032" 
d="M227 0l-214 715h159l136 -464h2l137 464h140l135 -463h2l136 463h159l-215 -715h-149l-138 469h-2l-138 -469h-150zM446 747l69 148h191l-123 -148h-137z" />
    <glyph glyph-name="wacute" unicode="&#x1e83;" horiz-adv-x="777" 
d="M172 0l-161 484h159l81 -277l82 277h112l81 -277l82 277h158l-161 -484h-131l-85 281l-85 -281h-132zM319 539l69 148h191l-123 -148h-137z" />
    <glyph glyph-name="Wdieresis" unicode="&#x1e84;" horiz-adv-x="1032" 
d="M227 0l-214 715h159l136 -464h2l137 464h140l135 -463h2l136 463h159l-215 -715h-149l-138 469h-2l-138 -469h-150zM348.5 773.5q-27.5 23.5 -27.5 56.5t27 57t63 24q37 0 64 -24.5t27 -57.5q0 -32 -26.5 -55.5t-63.5 -23.5q-36 0 -63.5 23.5zM557.5 774
q-26.5 24 -26.5 57t26 56.5t63 23.5t64.5 -24t27.5 -57t-27 -56.5t-64 -23.5t-63.5 24z" />
    <glyph glyph-name="wdieresis" unicode="&#x1e85;" horiz-adv-x="777" 
d="M172 0l-161 484h159l81 -277l82 277h112l81 -277l82 277h158l-161 -484h-131l-85 281l-85 -281h-132zM221.5 565.5q-27.5 23.5 -27.5 56.5t27 57t63 24q37 0 64 -24.5t27 -57.5q0 -32 -26.5 -55.5t-63.5 -23.5q-36 0 -63.5 23.5zM430.5 566q-26.5 24 -26.5 57t26 56.5
t63 23.5t64.5 -24t27.5 -57t-27 -56.5t-64 -23.5t-63.5 24z" />
    <glyph glyph-name="uni1E8A" unicode="&#x1e8a;" horiz-adv-x="737" 
d="M20 0l243 358l-242 357h188l166 -253l155 253h187l-244 -354l244 -361h-190l-162 246l-159 -246h-186zM311 774q-27 24 -27 59q0 36 27 61.5t65 25.5t65 -25t27 -60q0 -36 -26 -60.5t-65 -24.5t-66 24z" />
    <glyph glyph-name="uni1E8B" unicode="&#x1e8b;" horiz-adv-x="558" 
d="M12 0l177 245l-167 239h175l82 -133h2l84 133h168l-161 -233l174 -251h-171l-96 147h-2l-95 -147h-170zM212.5 561q-27.5 25 -27.5 63t27.5 62.5t68.5 24.5t68.5 -25.5t27.5 -61.5q0 -37 -27 -62.5t-69 -25.5q-41 0 -68.5 25z" />
    <glyph glyph-name="Ygrave" unicode="&#x1ef2;" horiz-adv-x="680" 
d="M262 0v252l-259 463h179l161 -303l161 303h173l-259 -463v-252h-156zM284 747l-123 148h191l69 -148h-137z" />
    <glyph glyph-name="ygrave" unicode="&#x1ef3;" horiz-adv-x="529" 
d="M28 -194l7 121h90q34 0 48.5 23t12.5 55l-175 479h154l98 -328l103 328h151l-168 -459q-24 -67 -50 -112t-77 -78.5t-133 -33.5q-31 0 -61 5zM216 541l-123 148h191l69 -148h-137z" />
    <glyph glyph-name="endash" unicode="&#x2013;" horiz-adv-x="667" 
d="M57 193v142h553v-142h-553z" />
    <glyph glyph-name="emdash" unicode="&#x2014;" horiz-adv-x="966" 
d="M57 192v144h852v-144h-852z" />
    <glyph glyph-name="quoteleft" unicode="&#x2018;" horiz-adv-x="266" 
d="M63.5 449q-21.5 33 -21.5 92q0 87 42 134.5t109 47.5l18 -1l-3 -81q-35 0 -49.5 -10t-19.5 -37q39 -4 62 -28.5t23 -57.5q0 -38 -25.5 -65t-66.5 -27q-47 0 -68.5 33z" />
    <glyph glyph-name="quoteright" unicode="&#x2019;" horiz-adv-x="266" 
d="M55 418l3 81q34 0 49 10.5t20 36.5q-39 4 -62 28.5t-23 57.5q0 38 25.5 65t66.5 27q47 0 68.5 -33t21.5 -92t-20.5 -100t-53 -61.5t-69.5 -20.5q-16 0 -26 1z" />
    <glyph glyph-name="quotesinglbase" unicode="&#x201a;" horiz-adv-x="289" 
d="M62 -131l3 89q38 0 54 10.5t21 37.5q-43 4 -67.5 31t-24.5 65q0 41 27.5 69.5t73.5 28.5q97 0 97 -138q0 -98 -46.5 -146.5t-120.5 -48.5q-1 0 -17 2z" />
    <glyph glyph-name="quotedblleft" unicode="&#x201c;" horiz-adv-x="478" 
d="M275.5 449q-21.5 33 -21.5 92q0 86 41.5 134t112.5 48l15 -1l-3 -81q-35 0 -49.5 -10t-19.5 -37q39 -4 62 -28.5t23 -57.5q0 -38 -25.5 -65t-66.5 -27q-47 0 -68.5 33zM63.5 449q-21.5 33 -21.5 92q0 87 42 134.5t109 47.5l18 -1l-3 -81q-35 0 -49.5 -10t-19.5 -37
q39 -4 62 -28.5t23 -57.5q0 -38 -25.5 -65t-66.5 -27q-47 0 -68.5 33z" />
    <glyph glyph-name="quotedblright" unicode="&#x201d;" horiz-adv-x="478" 
d="M55 418l3 81q34 0 49 10.5t20 36.5q-39 4 -62 28.5t-23 57.5q0 38 25.5 65t66.5 27q47 0 68.5 -33t21.5 -92t-20.5 -100t-53 -61.5t-69.5 -20.5q-16 0 -26 1zM267 418l3 81q34 0 49 10.5t20 36.5q-39 4 -62 28.5t-23 57.5q0 38 25.5 65t66.5 27q47 0 68.5 -33t21.5 -92
t-20.5 -100t-53 -61.5t-69.5 -20.5q-16 0 -26 1z" />
    <glyph glyph-name="quotedblbase" unicode="&#x201e;" horiz-adv-x="513" 
d="M286 -131l3 89q38 0 54 10.5t21 37.5q-43 4 -67.5 31t-24.5 65q0 41 27.5 69.5t73.5 28.5q97 0 97 -138q0 -98 -46.5 -146.5t-120.5 -48.5q-1 0 -17 2zM62 -131l3 89q38 0 54 10.5t21 37.5q-43 4 -67.5 31t-24.5 65q0 41 27.5 69.5t73.5 28.5q97 0 97 -138
q0 -98 -46.5 -146.5t-120.5 -48.5q-1 0 -17 2z" />
    <glyph glyph-name="dagger" unicode="&#x2020;" horiz-adv-x="528" 
d="M213 146v330h-156v116h156v133h101v-133h157v-116h-157v-330h-101z" />
    <glyph glyph-name="daggerdbl" unicode="&#x2021;" horiz-adv-x="528" 
d="M213 146v144h-156v116h156v70h-156v116h156v133h101v-133h157v-116h-157v-70h157v-116h-157v-144h-101z" />
    <glyph glyph-name="bullet" unicode="&#x2022;" horiz-adv-x="442" 
d="M136 160.5q-37 21.5 -57.5 57.5t-20.5 77q0 43 21.5 78.5t59.5 56t85 20.5t83.5 -21t57 -57t20.5 -78q0 -44 -22 -79.5t-59.5 -55.5t-82.5 -20q-48 0 -85 21.5z" />
    <glyph glyph-name="ellipsis" unicode="&#x2026;" horiz-adv-x="926" 
d="M388 16.5q-29 30.5 -29 76.5q0 45 28.5 76t77.5 31q48 0 77 -30.5t29 -76.5t-29 -76.5t-77 -30.5t-77 30.5zM699 16.5q-29 30.5 -29 76.5q0 45 28.5 76t77.5 31q48 0 77 -30.5t29 -76.5t-29 -76.5t-77 -30.5t-77 30.5zM77 16.5q-29 30.5 -29 76.5q0 45 28.5 76t77.5 31
q48 0 77 -30.5t29 -76.5t-29 -76.5t-77 -30.5t-77 30.5z" />
    <glyph glyph-name="perthousand" unicode="&#x2030;" horiz-adv-x="1238" 
d="M336 -17l-110 64l419 689l110 -65zM152.5 367q-45.5 26 -70.5 70.5t-25 97.5q0 52 25 95.5t70 69t104 25.5t103 -25t67.5 -68.5t23.5 -96.5t-23.5 -97.5t-67.5 -70.5t-102 -26q-59 0 -104.5 26zM304.5 482q18.5 21 18.5 51t-18.5 51t-47.5 21q-30 0 -49.5 -20.5
t-19.5 -51.5t19.5 -51.5t48.5 -20.5q30 0 48.5 21zM775.5 128q18.5 21 18.5 51t-18.5 51t-47.5 21q-31 0 -50 -20t-19 -52q0 -31 19 -51.5t50 -20.5q29 0 47.5 21zM621 14q-44 26 -68.5 70t-24.5 97q0 52 24.5 95.5t68 69t98.5 25.5q89 0 137 -64q52 64 137 64q55 0 98 -25
t66.5 -68t23.5 -97q0 -53 -23.5 -97t-66 -70t-98.5 -26q-84 0 -137 63q-49 -63 -135 -63q-56 0 -100 26zM1035.5 128q18.5 21 18.5 51t-19 51t-48 21q-31 0 -50 -20t-19 -52q0 -31 19.5 -51.5t49.5 -20.5t48.5 21z" />
    <glyph glyph-name="guilsinglleft" unicode="&#x2039;" horiz-adv-x="351" 
d="M154 50l-106 204v13l106 193h150l-104 -198l104 -212h-150z" />
    <glyph glyph-name="guilsinglright" unicode="&#x203a;" horiz-adv-x="351" 
d="M47 50l104 212l-104 198h150l106 -193v-13l-106 -204h-150z" />
    <glyph glyph-name="fraction" unicode="&#x2044;" horiz-adv-x="204" 
d="M-77 -19l-73 44l431 712l73 -43z" />
    <glyph glyph-name="Euro" unicode="&#x20ac;" horiz-adv-x="784" 
d="M278.5 44.5q-81.5 60.5 -110.5 181.5h-130v96h117q-1 10 -1 32v22h-92v95h104q27 125 109 188t188 63q86 0 146 -38.5t93 -96.5t45 -121l-140 -36q-10 67 -46 117t-102 50q-49 0 -87.5 -31.5t-56.5 -94.5h244l-32 -95h-227v-21q0 -22 1 -33h231l-32 -96h-181
q20 -58 59 -87.5t88 -29.5q63 0 97 45t42 108l139 -29q-11 -63 -43 -119.5t-91 -93t-144 -36.5q-106 0 -187.5 60.5z" />
    <glyph glyph-name="uni2113" unicode="&#x2113;" horiz-adv-x="566" 
d="M214 21q-48 38 -48 102v22q-24 -12 -75 -26l-34 109q26 7 59.5 20t48.5 21v243q0 203 171 203q87 0 130 -51.5t43 -130.5q0 -63 -26.5 -129t-76.5 -122t-115 -89v-24q0 -65 69 -65q54 0 89 35l32 -108q-53 -48 -140 -48q-79 0 -127 38zM360 416q24 59 24 105q0 28 -11 49
t-37 21q-45 0 -45 -71v-193q45 30 69 89z" />
    <glyph glyph-name="uni2116" unicode="&#x2116;" horiz-adv-x="1133" 
d="M57 0v715h172l289 -480h2v480h154v-715h-170l-292 482h-1v-482h-154zM743 167v140h318v-140h-318zM824 409q-38 19 -60.5 57t-22.5 93q0 56 23 95t61 58.5t82 19.5q45 0 83.5 -19t62 -57.5t23.5 -93.5q0 -54 -23 -93t-62 -59t-85 -20q-44 0 -82 19zM943 515.5
q14 16.5 14 46.5q0 31 -14.5 46.5t-34.5 15.5q-19 0 -33.5 -16.5t-14.5 -46.5q0 -29 14 -45.5t34 -16.5q21 0 35 16.5z" />
    <glyph glyph-name="trademark" unicode="&#x2122;" horiz-adv-x="943" 
d="M437 291v423h106l119 -174l117 174h107v-423h-99v265h-3l-113 -157h-23l-110 157h-2v-265h-99zM179 291v332h-122v91h345v-91h-123v-332h-100z" />
    <glyph glyph-name="estimated" unicode="&#x212e;" horiz-adv-x="832" 
d="M225.5 39q-84.5 50 -126.5 133.5t-42 183.5q0 107 46.5 191t129.5 131t188 47q103 0 183.5 -45t125.5 -124t45 -179v-18h-569v-240q83 -82 222 -82q179 0 261 141l54 -7q-53 -92 -128 -137t-185 -45q-120 0 -204.5 50zM631 408v192q-44 37 -98 57.5t-114 20.5
q-62 0 -116.5 -22.5t-96.5 -61.5v-186h425z" />
    <glyph glyph-name="oneeighth" unicode="&#x215b;" horiz-adv-x="926" 
d="M136 607q-10 -17 -31.5 -27t-40.5 -10h-25v95h18q33 0 56.5 20t28.5 50h95v-426h-101v298zM232 -19l-73 44l431 712l73 -43zM589.5 30q-44.5 37 -44.5 97q0 76 74 110v1q-25 14 -40 37t-15 53q0 48 39 77t114 29t114.5 -29t39.5 -77q0 -30 -15.5 -53t-41.5 -36
q35 -18 54.5 -44t19.5 -68q0 -62 -47 -98t-126 -36q-81 0 -125.5 37zM768.5 98.5q16.5 16.5 16.5 41.5q0 26 -17.5 43t-50.5 17q-32 0 -50 -17t-18 -43q0 -25 17 -41.5t50 -16.5q36 0 52.5 16.5zM756 285q14 13 14 35q0 19 -13.5 31t-39.5 12q-25 0 -39 -12t-14 -33
t14 -33.5t39 -12.5t39 13z" />
    <glyph glyph-name="threeeighths" unicode="&#x215c;" horiz-adv-x="995" 
d="M76 340.5q-41 38.5 -45 92.5l106 13q1 -25 16 -44t49 -19q27 0 43 13t16 37q0 31 -28 46t-71 13v71q42 2 64.5 15.5t22.5 39.5q0 19 -13 31.5t-36 12.5q-33 0 -48.5 -21t-17.5 -48l-93 12q2 56 39.5 97t118.5 41q70 0 112 -32t42 -79q0 -26 -13 -47t-31.5 -34t-34.5 -16
v-1q39 -10 65 -32.5t26 -70.5q0 -61 -45 -95t-120 -34q-83 0 -124 38.5zM301 -19l-73 44l431 712l73 -43zM658.5 30q-44.5 37 -44.5 97q0 76 74 110v1q-25 14 -40 37t-15 53q0 48 39 77t114 29t114.5 -29t39.5 -77q0 -30 -15.5 -53t-41.5 -36q35 -18 54.5 -44t19.5 -68
q0 -62 -47 -98t-126 -36q-81 0 -125.5 37zM837.5 98.5q16.5 16.5 16.5 41.5q0 26 -17.5 43t-50.5 17q-32 0 -50 -17t-18 -43q0 -25 17 -41.5t50 -16.5q36 0 52.5 16.5zM825 285q14 13 14 35q0 19 -13.5 31t-39.5 12q-25 0 -39 -12t-14 -33t14 -33.5t39 -12.5t39 13z" />
    <glyph glyph-name="fiveeighths" unicode="&#x215d;" horiz-adv-x="998" 
d="M87 339.5q-40 37.5 -51 88.5l103 13q3 -20 18 -36.5t46 -16.5q30 0 45.5 17t15.5 49q0 66 -60 66q-46 0 -62 -47l-98 20l28 242h273v-86h-185l-10 -71q17 10 33.5 16t43.5 6q66 0 103.5 -38.5t37.5 -103.5q0 -75 -48 -115.5t-120 -40.5q-73 0 -113 37.5zM304 -19l-73 44
l431 712l73 -43zM661.5 30q-44.5 37 -44.5 97q0 76 74 110v1q-25 14 -40 37t-15 53q0 48 39 77t114 29t114.5 -29t39.5 -77q0 -30 -15.5 -53t-41.5 -36q35 -18 54.5 -44t19.5 -68q0 -62 -47 -98t-126 -36q-81 0 -125.5 37zM840.5 98.5q16.5 16.5 16.5 41.5q0 26 -17.5 43
t-50.5 17q-32 0 -50 -17t-18 -43q0 -25 17 -41.5t50 -16.5q36 0 52.5 16.5zM828 285q14 13 14 35q0 19 -13.5 31t-39.5 12q-25 0 -39 -12t-14 -33t14 -33.5t39 -12.5t39 13z" />
    <glyph glyph-name="seveneighths" unicode="&#x215e;" horiz-adv-x="921" 
d="M130 491.5q35 80.5 115 151.5h-212v92h307v-84q-69 -71 -104 -155t-44 -187h-105q8 102 43 182.5zM227 -19l-73 44l431 712l73 -43zM584.5 30q-44.5 37 -44.5 97q0 76 74 110v1q-25 14 -40 37t-15 53q0 48 39 77t114 29t114.5 -29t39.5 -77q0 -30 -15.5 -53t-41.5 -36
q35 -18 54.5 -44t19.5 -68q0 -62 -47 -98t-126 -36q-81 0 -125.5 37zM763.5 98.5q16.5 16.5 16.5 41.5q0 26 -17.5 43t-50.5 17q-32 0 -50 -17t-18 -43q0 -25 17 -41.5t50 -16.5q36 0 52.5 16.5zM751 285q14 13 14 35q0 19 -13.5 31t-39.5 12q-25 0 -39 -12t-14 -33
t14 -33.5t39 -12.5t39 13z" />
    <glyph glyph-name="arrowleft" unicode="&#x2190;" horiz-adv-x="747" 
d="M314 33l-243 254v45l243 254l75 -70l-149 -148h449v-115h-451l151 -150z" />
    <glyph glyph-name="arrowup" unicode="&#x2191;" horiz-adv-x="676" 
d="M281 4v451l-149 -151l-70 76l254 243h45l254 -243l-71 -76l-147 149v-449h-116z" />
    <glyph glyph-name="arrowright" unicode="&#x2192;" horiz-adv-x="747" 
d="M433 34l-76 70l150 148h-450v115h451l-151 149l76 71l243 -254v-45z" />
    <glyph glyph-name="arrowdown" unicode="&#x2193;" horiz-adv-x="676" 
d="M316 21l-254 242l70 76l148 -150v450h115v-451l149 151l71 -76l-254 -242h-45z" />
    <glyph glyph-name="uni2196" unicode="&#x2196;" horiz-adv-x="633" 
d="M492 61l-319 319l1 -213l-103 4l8 351l16 16h-1l16 16l351 8l5 -103l-211 1l318 -318z" />
    <glyph glyph-name="uni2197" unicode="&#x2197;" horiz-adv-x="632" 
d="M141 61l-82 81l320 319l-213 -1l4 103l351 -8l32 -32l8 -351l-103 -4l1 211z" />
    <glyph glyph-name="uni2198" unicode="&#x2198;" horiz-adv-x="633" 
d="M171 68l-4 104l209 -1l-317 317l82 82l319 -319l-1 212l103 -4l-8 -351l-32 -32z" />
    <glyph glyph-name="uni2199" unicode="&#x2199;" horiz-adv-x="632" 
d="M462 66l-351 8l-17 16h1l-16 16l-8 351l103 4l-1 -211l318 318l81 -81l-319 -319l213 1z" />
    <glyph glyph-name="partialdiff" unicode="&#x2202;" horiz-adv-x="645" 
d="M174.5 -0.5q-54.5 28.5 -87.5 87t-33 142.5q0 88 36.5 151t94 95t117.5 32q38 0 69 -13t51 -36q-6 45 -30.5 80.5t-60 55.5t-73.5 20q-34 0 -67.5 -15.5t-57.5 -46.5l-50 107q44 47 90 70.5t106 23.5q88 0 159 -48.5t112 -136.5t41 -201q0 -108 -38 -199t-106 -144
t-155 -53q-63 0 -117.5 28.5zM359 140q27 22 42.5 57.5t15.5 71.5q0 46 -24.5 73.5t-62.5 27.5q-31 0 -58 -18t-43.5 -50t-16.5 -74q0 -51 24 -80.5t63 -29.5q33 0 60 22z" />
    <glyph glyph-name="emptyset" unicode="&#x2205;" horiz-adv-x="705" 
d="M107 45l34 40q-40 37 -61.5 86.5t-21.5 105.5q0 76 39.5 139t107 99.5t148.5 36.5q82 0 152 -39l35 42l59 -49l-33 -39q38 -37 59 -86t21 -104q0 -76 -39.5 -139t-107 -99.5t-147.5 -36.5q-79 0 -150 37l-36 -42zM438 435q-41 18 -86 18q-52 0 -93.5 -23t-65 -63
t-23.5 -90q0 -65 39 -112zM448.5 125q41.5 23 64 63t22.5 89q0 64 -37 110l-228 -268q37 -17 83 -17q54 0 95.5 23z" />
    <glyph glyph-name="uni2206" unicode="&#x2206;" horiz-adv-x="827" 
d="M34 0l282 715h202l275 -715h-759zM274 157h280l-142 389z" />
    <glyph glyph-name="product" unicode="&#x220f;" horiz-adv-x="790" 
d="M166 -88v645h-130v141h719v-141h-132v-645h-138v645h-180v-645h-139z" />
    <glyph glyph-name="summation" unicode="&#x2211;" horiz-adv-x="659" 
d="M54 -86v134l229 264l-217 255v131h540v-142h-347l218 -244l-233 -258h362v-140h-552z" />
    <glyph glyph-name="minus" unicode="&#x2212;" horiz-adv-x="560" 
d="M47 255v121h466v-121h-466z" />
    <glyph glyph-name="radical" unicode="&#x221a;" horiz-adv-x="773" 
d="M342 -127l-199 499h-107v118h214l169 -457l212 798h138l-263 -958h-164z" />
    <glyph glyph-name="infinity" unicode="&#x221e;" horiz-adv-x="803" 
d="M141 182q-43 23 -68.5 64.5t-25.5 94.5q0 51 23.5 92t66 64.5t97.5 23.5q53 0 88.5 -23.5t79.5 -77.5q35 48 74 74.5t94 26.5q52 0 94.5 -24.5t67 -67t24.5 -93.5q0 -50 -23.5 -90.5t-66.5 -63.5t-98 -23q-54 0 -91.5 24t-76.5 79q-39 -54 -76.5 -78.5t-88.5 -24.5
t-94 23zM284.5 290q20.5 17 44.5 49q-29 36 -49.5 53t-44.5 17q-28 0 -46 -19.5t-18 -50.5q0 -30 18.5 -48t46.5 -18t48.5 17zM612.5 291.5q18.5 18.5 18.5 48.5t-18.5 49.5t-45.5 19.5t-48.5 -17.5t-46.5 -50.5q26 -35 46 -51.5t46 -16.5q30 0 48.5 18.5z" />
    <glyph glyph-name="integral" unicode="&#x222b;" horiz-adv-x="397" 
d="M-36 -200l26 131q19 -4 40 -4q49 0 73 34.5t24 99.5v534q0 139 64 202.5t170 63.5q45 0 72 -10l-22 -133q-24 4 -42 4q-64 0 -82 -40.5t-18 -89.5v-539q0 -142 -64.5 -203.5t-170.5 -61.5q-44 0 -70 12z" />
    <glyph glyph-name="approxequal" unicode="&#x2248;" horiz-adv-x="632" 
d="M374.5 323q-28.5 12 -65.5 34q-34 19 -53 27.5t-39 8.5q-23 0 -46.5 -13.5t-42.5 -35.5l-81 74q30 55 73.5 86.5t98.5 31.5q37 0 67.5 -12.5t69.5 -35.5q27 -16 44 -24t34 -8q33 0 68 35l83 -71q-23 -50 -63 -79.5t-88 -29.5q-31 0 -59.5 12zM376.5 103
q-26.5 11 -66.5 34q-32 19 -52 28t-41 9q-24 0 -47 -13.5t-42 -35.5l-81 74q30 55 73.5 86.5t98.5 31.5q37 0 67.5 -12.5t69.5 -35.5q27 -16 44 -24t34 -8q33 0 68 35l83 -71q-23 -49 -63 -79t-88 -30q-31 0 -57.5 11z" />
    <glyph glyph-name="notequal" unicode="&#x2260;" horiz-adv-x="573" 
d="M67 57l59 94h-72v122h149l46 72h-195v122h272l51 81h131l-51 -81h62v-122h-140l-46 -72h186v-122h-263l-60 -94h-129z" />
    <glyph glyph-name="lessequal" unicode="&#x2264;" horiz-adv-x="569" 
d="M521 188l-474 135v131l474 140v-141l-307 -63l307 -61v-141zM47 34v123h474v-123h-474z" />
    <glyph glyph-name="greaterequal" unicode="&#x2265;" horiz-adv-x="571" 
d="M47 188v142l318 60l-317 63v141l476 -140v-132zM47 34v122h477v-122h-477z" />
    <glyph glyph-name="filledbox" unicode="&#x25a0;" horiz-adv-x="821" 
d="M57 0v713h707v-713h-707z" />
    <glyph glyph-name="uni25A1" unicode="&#x25a1;" horiz-adv-x="821" 
d="M57 0v713h707v-713h-707zM147 87h525v539h-525v-539z" />
    <glyph glyph-name="triagup" unicode="&#x25b2;" horiz-adv-x="890" 
d="M27 0l419 728l417 -728h-836z" />
    <glyph glyph-name="uni25B3" unicode="&#x25b3;" horiz-adv-x="878" 
d="M27 0l412 720l412 -720h-824zM193 102h488l-244 436z" />
    <glyph glyph-name="lozenge" unicode="&#x25ca;" horiz-adv-x="754" 
d="M339 0l-285 359l285 356h78l284 -356l-284 -359h-78zM377 107l208 252l-207 250l-206 -250z" />
    <glyph glyph-name="circle" unicode="&#x25cb;" horiz-adv-x="819" 
d="M216.5 31.5q-87.5 48.5 -137.5 133.5t-50 190t49.5 191.5t136.5 136t194 49.5q106 0 193 -50t137 -136.5t50 -192.5q0 -105 -49.5 -189.5t-136 -132.5t-192.5 -48q-107 0 -194.5 48.5zM553.5 113q63.5 37 98.5 100.5t35 139.5q0 77 -36.5 143t-100 104.5t-141.5 38.5
t-141.5 -38.5t-99.5 -103.5t-36 -142q0 -74 34.5 -138t98 -102.5t145.5 -38.5q80 0 143.5 37z" />
    <glyph glyph-name="uni25CF" unicode="&#x25cf;" horiz-adv-x="819" 
d="M217 33q-87 50 -137.5 136t-50.5 189t50.5 189t137.5 135.5t191 49.5q105 0 192.5 -49.5t138 -135.5t50.5 -189q0 -104 -50.5 -190t-138 -135.5t-191.5 -49.5q-105 0 -192 50z" />
    <glyph glyph-name="uni2605" unicode="&#x2605;" horiz-adv-x="822" 
d="M654 -21l-244 177l-243 -175l94 285l-244 177h300l93 285l93 -285h302l-244 -177z" />
    <glyph glyph-name="uni2611" unicode="&#x2611;" horiz-adv-x="751" 
d="M57 0v713h707v-713h-707zM147 87h525v539h-525v-539zM396 197l-217 211l75 83l137 -134l178 210l82 -72z" />
    <glyph glyph-name="uni2612" unicode="&#x2612;" horiz-adv-x="821" 
d="M57 0v713h707v-713h-707zM147 87h525v539h-525v-539zM547 160l-134 134l-135 -133l-68 67l135 137l-135 134l69 67l134 -132l136 132l69 -67l-135 -135l135 -137z" />
    <glyph glyph-name="uni2713" unicode="&#x2713;" horiz-adv-x="913" 
d="M345 -17l-288 319l81 81l210 -236h1l433 515l74 -82l-510 -597h-1z" />
    <glyph glyph-name="uni2715" unicode="&#x2715;" horiz-adv-x="821" 
d="M697 1l-287 288l-285 -286l-68 67l284 289l-283 281l67 66l285 -282l278 282l67 -66l-278 -282l287 -290z" />
    <glyph glyph-name="uni2780" unicode="&#x2780;" horiz-adv-x="799" 
d="M207 31.5q-87 48.5 -137.5 134t-50.5 190.5q0 104 49.5 190t136.5 136t194 50t194 -50t137 -136.5t50 -192.5q0 -105 -49.5 -189.5t-136.5 -132.5t-193 -48q-107 0 -194 48.5zM368 446q-8 -16 -27.5 -25t-37.5 -9h-22v83h16q29 0 50.5 18.5t26.5 46.5h84v-391h-90v277z
M543.5 113q63.5 37 98.5 100.5t35 139.5q0 77 -36.5 143t-100 104.5t-141.5 38.5t-141.5 -38.5t-99.5 -103.5t-36 -142q0 -74 34.5 -138t98 -102.5t145.5 -38.5q80 0 143.5 37z" />
    <glyph glyph-name="uni2781" unicode="&#x2781;" horiz-adv-x="799" 
d="M207 31.5q-87 48.5 -137.5 134t-50.5 190.5q0 104 49.5 190t136.5 136t194 50t194 -50t137 -136.5t50 -192.5q0 -105 -49.5 -189.5t-136.5 -132.5t-193 -48q-107 0 -194 48.5zM543.5 113q63.5 37 98.5 100.5t35 139.5q0 77 -36.5 143t-100 104.5t-141.5 38.5
t-141.5 -38.5t-99.5 -103.5t-36 -142q0 -74 34.5 -138t98 -102.5t145.5 -38.5q80 0 143.5 37zM265 229q103 85 142 132.5t39 83.5q0 21 -11.5 34.5t-33.5 13.5q-32 0 -47 -26.5t-15 -63.5l-81 24q5 56 40.5 98t106.5 42q63 0 97 -33.5t34 -82.5q0 -47 -36 -98.5t-104 -103.5
h140v-80h-271v60z" />
    <glyph glyph-name="uni2782" unicode="&#x2782;" horiz-adv-x="799" 
d="M207 31.5q-87 48.5 -137.5 134t-50.5 190.5q0 104 49.5 190t136.5 136t194 50t194 -50t137 -136.5t50 -192.5q0 -105 -49.5 -189.5t-136.5 -132.5t-193 -48q-107 0 -194 48.5zM543.5 113q63.5 37 98.5 100.5t35 139.5q0 77 -36.5 143t-100 104.5t-141.5 38.5
t-141.5 -38.5t-99.5 -103.5t-36 -142q0 -74 34.5 -138t98 -102.5t145.5 -38.5q80 0 143.5 37zM289 198q-36 36 -40 84l93 11q1 -25 15.5 -42.5t45.5 -17.5q26 0 40.5 13t14.5 36q0 30 -25 44t-65 12v63q38 2 59 14.5t21 36.5q0 18 -12.5 30.5t-34.5 12.5q-29 0 -44 -19
t-17 -45l-82 10q1 50 35 87.5t108 37.5q63 0 100 -29t37 -72q0 -34 -23.5 -58.5t-47.5 -30.5v-1q83 -20 83 -96q0 -53 -40.5 -85t-109.5 -32q-75 0 -111 36z" />
    <glyph glyph-name="uni2783" unicode="&#x2783;" horiz-adv-x="799" 
d="M207 31.5q-87 48.5 -137.5 134t-50.5 190.5q0 104 49.5 190t136.5 136t194 50t194 -50t137 -136.5t50 -192.5q0 -105 -49.5 -189.5t-136.5 -132.5t-193 -48q-107 0 -194 48.5zM311 319h101v147h-1zM409 169v83h-182v63l172 245h100v-241h57v-67h-57v-83h-90zM543.5 113
q63.5 37 98.5 100.5t35 139.5q0 77 -36.5 143t-100 104.5t-141.5 38.5t-141.5 -38.5t-99.5 -103.5t-36 -142q0 -74 34.5 -138t98 -102.5t145.5 -38.5q80 0 143.5 37z" />
    <glyph glyph-name="uni2784" unicode="&#x2784;" horiz-adv-x="799" 
d="M207 31.5q-87 48.5 -137.5 134t-50.5 190.5q0 104 49.5 190t136.5 136t194 50t194 -50t137 -136.5t50 -192.5q0 -105 -49.5 -189.5t-136.5 -132.5t-193 -48q-107 0 -194 48.5zM543.5 113q63.5 37 98.5 100.5t35 139.5q0 77 -36.5 143t-100 104.5t-141.5 38.5
t-141.5 -38.5t-99.5 -103.5t-36 -142q0 -74 34.5 -138t98 -102.5t145.5 -38.5q80 0 143.5 37zM296.5 195.5q-36.5 33.5 -46.5 80.5l91 12q3 -20 17 -35.5t42 -15.5t43 16.5t15 47.5q0 32 -15 47.5t-41 15.5q-42 0 -58 -43l-85 18l24 220h246v-77h-169l-9 -69q14 10 30 16
t41 6q59 0 93.5 -35t34.5 -96q0 -68 -43 -105t-109 -37q-65 0 -101.5 33.5z" />
    <glyph glyph-name="uni2785" unicode="&#x2785;" horiz-adv-x="799" 
d="M207 31.5q-87 48.5 -137.5 134t-50.5 190.5q0 104 49.5 190t136.5 136t194 50t194 -50t137 -136.5t50 -192.5q0 -105 -49.5 -189.5t-136.5 -132.5t-193 -48q-107 0 -194 48.5zM435.5 251q15.5 16 15.5 41q0 26 -15.5 41.5t-41.5 15.5t-42 -14t-21 -31q0 -28 16.5 -48.5
t45.5 -20.5q27 0 42.5 16zM276.5 212q-41.5 50 -41.5 149q0 104 43 155t119 51q64 0 99.5 -31.5t41.5 -69.5l-92 -21q-3 20 -16.5 33.5t-37.5 13.5q-33 0 -48.5 -29t-14.5 -80q30 39 88 39q57 0 93 -36.5t36 -91.5q0 -59 -43 -95.5t-110 -36.5q-75 0 -116.5 50zM543.5 113
q63.5 37 98.5 100.5t35 139.5q0 77 -36.5 143t-100 104.5t-141.5 38.5t-141.5 -38.5t-99.5 -103.5t-36 -142q0 -74 34.5 -138t98 -102.5t145.5 -38.5q80 0 143.5 37z" />
    <glyph glyph-name="uni2786" unicode="&#x2786;" horiz-adv-x="799" 
d="M207 31.5q-87 48.5 -137.5 134t-50.5 190.5q0 104 49.5 190t136.5 136t194 50t194 -50t137 -136.5t50 -192.5q0 -105 -49.5 -189.5t-136.5 -132.5t-193 -48q-107 0 -194 48.5zM543.5 113q63.5 37 98.5 100.5t35 139.5q0 77 -36.5 143t-100 104.5t-141.5 38.5
t-141.5 -38.5t-99.5 -103.5t-36 -142q0 -74 34.5 -138t98 -102.5t145.5 -38.5q80 0 143.5 37zM355 331.5q32 74.5 104 139.5h-192v82h276v-75q-64 -67 -96 -144.5t-39 -171.5h-93q8 95 40 169.5z" />
    <glyph glyph-name="uni2787" unicode="&#x2787;" horiz-adv-x="799" 
d="M207 31.5q-87 48.5 -137.5 134t-50.5 190.5q0 104 49.5 190t136.5 136t194 50t194 -50t137 -136.5t50 -192.5q0 -105 -49.5 -189.5t-136.5 -132.5t-193 -48q-107 0 -194 48.5zM446.5 254.5q15.5 15.5 15.5 39.5q0 25 -16 41.5t-47 16.5q-30 0 -46.5 -16.5t-16.5 -40.5
t16 -40t47 -16q32 0 47.5 15.5zM543.5 113q63.5 37 98.5 100.5t35 139.5q0 77 -36.5 143t-100 104.5t-141.5 38.5t-141.5 -38.5t-99.5 -103.5t-36 -142q0 -74 34.5 -138t98 -102.5t145.5 -38.5q80 0 143.5 37zM285.5 194.5q-40.5 32.5 -40.5 88.5q0 37 18.5 63t49.5 40v1
q-23 14 -37 34.5t-14 46.5q0 45 36 72t100 27q67 0 103 -27t36 -71q0 -26 -14 -47.5t-37 -33.5q32 -17 50 -41t18 -60q0 -56 -43 -90.5t-115 -34.5q-70 0 -110.5 32.5zM436.5 430.5q13.5 12.5 13.5 32.5q0 18 -13 30t-37 12q-23 0 -37 -12t-14 -32t13.5 -31.5t36.5 -11.5
q24 0 37.5 12.5z" />
    <glyph glyph-name="uni2788" unicode="&#x2788;" horiz-adv-x="799" 
d="M207 31.5q-87 48.5 -137.5 134t-50.5 190.5q0 104 49.5 190t136.5 136t194 50t194 -50t137 -136.5t50 -192.5q0 -105 -49.5 -189.5t-136.5 -132.5t-193 -48q-107 0 -194 48.5zM543.5 113q63.5 37 98.5 100.5t35 139.5q0 77 -36.5 143t-100 104.5t-141.5 38.5
t-141.5 -38.5t-99.5 -103.5t-36 -142q0 -74 34.5 -138t98 -102.5t145.5 -38.5q80 0 143.5 37zM305 193q-35 31 -42 68l93 22q3 -18 15.5 -32.5t37.5 -14.5q33 0 49 29.5t14 79.5q-29 -39 -88 -39q-57 0 -92.5 36.5t-35.5 90.5q0 59 43 96.5t111 37.5q75 0 116 -50.5
t41 -150.5q0 -103 -43 -153.5t-119 -50.5q-65 0 -100 31zM450.5 393q15.5 14 19.5 30q0 29 -16.5 49t-46.5 20q-27 0 -42 -15.5t-15 -40.5t15 -41t44 -16q26 0 41.5 14z" />
    <glyph glyph-name="uni278A" unicode="&#x278a;" horiz-adv-x="799" 
d="M207 33q-87 50 -137.5 136t-50.5 189t50.5 189t137.5 135.5t191 49.5q105 0 192.5 -49.5t138.5 -135.5t51 -189q0 -104 -51 -190t-138 -135.5t-192 -49.5t-192 50zM457 169v391h-83q-5 -28 -26.5 -46.5t-51.5 -18.5h-16v-83h23q17 0 36.5 9t28.5 25v-277h89z" />
    <glyph glyph-name="uni278B" unicode="&#x278b;" horiz-adv-x="799" 
d="M207 33q-87 50 -137.5 136t-50.5 189t50.5 189t137.5 135.5t191 49.5q105 0 192.5 -49.5t138.5 -135.5t51 -189q0 -104 -51 -190t-138 -135.5t-192 -49.5t-192 50zM536 169v80h-141q68 52 104.5 103.5t36.5 98.5q0 49 -34.5 82.5t-97.5 33.5q-72 0 -106.5 -42.5
t-39.5 -97.5l80 -24q0 37 15 63.5t47 26.5q22 0 33.5 -13.5t11.5 -34.5q0 -37 -39 -84.5t-142 -131.5v-60h272z" />
    <glyph glyph-name="uni278C" unicode="&#x278c;" horiz-adv-x="799" 
d="M207 33q-87 50 -137.5 136t-50.5 189t50.5 189t137.5 135.5t191 49.5q105 0 192.5 -49.5t138.5 -135.5t51 -189q0 -104 -51 -190t-138 -135.5t-192 -49.5t-192 50zM508.5 194q40.5 32 40.5 85q0 76 -83 96v1q24 5 47.5 30t23.5 59q0 43 -37 72t-100 29
q-74 0 -107.5 -37.5t-35.5 -87.5l83 -10q2 27 16.5 45.5t43.5 18.5q22 0 34.5 -12.5t12.5 -30.5q0 -48 -80 -51v-63q40 2 65.5 -12t25.5 -44q0 -23 -15 -36t-41 -13q-31 0 -45.5 18t-14.5 42l-94 -11q4 -48 40 -84t112 -36q68 0 108.5 32z" />
    <glyph glyph-name="uni278D" unicode="&#x278d;" horiz-adv-x="799" 
d="M207 33q-87 50 -137.5 136t-50.5 189t50.5 189t137.5 135.5t191 49.5q105 0 192.5 -49.5t138.5 -135.5t51 -189q0 -104 -51 -190t-138 -135.5t-192 -49.5t-192 50zM311 319l100 147v-147h-100zM408 169h91v83h57v67h-57v241h-100l-172 -245v-63h181v-83z" />
    <glyph glyph-name="uni278E" unicode="&#x278e;" horiz-adv-x="799" 
d="M207 33q-87 50 -137.5 136t-50.5 189t50.5 189t137.5 135.5t191 49.5q105 0 192.5 -49.5t138.5 -135.5t51 -189q0 -104 -51 -190t-138 -135.5t-192 -49.5t-192 50zM506 199q43 37 43 105q0 61 -35 96t-93 35q-41 0 -71 -22l9 69h169v77h-246l-24 -220l85 -18q16 43 58 43
q26 0 41.5 -15.5t15.5 -47.5q0 -31 -15.5 -47.5t-43.5 -16.5t-42 15.5t-17 35.5l-90 -12q9 -46 44.5 -80t102.5 -34q66 0 109 37z" />
    <glyph glyph-name="uni278F" unicode="&#x278f;" horiz-adv-x="799" 
d="M207 33q-87 50 -137.5 136t-50.5 189t50.5 189t137.5 135.5t191 49.5q105 0 192.5 -49.5t138.5 -135.5t51 -189q0 -104 -51 -190t-138 -135.5t-192 -49.5t-192 50zM347 255.5q-17 20.5 -17 48.5q5 17 21 31t43 14t41.5 -16t14.5 -40q0 -26 -15.5 -42t-41.5 -16
q-29 0 -46 20.5zM502 198.5q43 36.5 43 95.5q0 55 -36 91.5t-93 36.5q-30 0 -52 -10.5t-35 -28.5q-2 51 14 80t49 29q25 0 37.5 -14.5t15.5 -32.5l93 21q-8 40 -43.5 70.5t-97.5 30.5q-76 0 -119.5 -51t-43.5 -154q0 -100 41.5 -150t117.5 -50q66 0 109 36.5z" />
    <glyph glyph-name="uni2790" unicode="&#x2790;" horiz-adv-x="799" 
d="M207 33q-87 50 -137.5 136t-50.5 189t50.5 189t137.5 135.5t191 49.5q105 0 192.5 -49.5t138.5 -135.5t51 -189q0 -104 -51 -190t-138 -135.5t-192 -49.5t-192 50zM407 162q7 94 39 171.5t96 144.5v75h-276v-82h192q-72 -65 -104 -140t-39 -169h92z" />
    <glyph glyph-name="uni2791" unicode="&#x2791;" horiz-adv-x="799" 
d="M207 33q-87 50 -137.5 136t-50.5 189t50.5 189t137.5 135.5t191 49.5q105 0 192.5 -49.5t138.5 -135.5t51 -189q0 -104 -51 -190t-138 -135.5t-192 -49.5t-192 50zM352 255q-16 16 -16 39q0 25 16 41.5t46 16.5q31 0 47.5 -16.5t16.5 -41.5q0 -24 -16 -39.5t-48 -15.5
q-30 0 -46 16zM510 196.5q43 34.5 43 90.5q0 36 -18 60t-50 41q24 11 38 32.5t14 48.5q0 44 -36.5 71t-102.5 27q-65 0 -101 -27t-36 -72q0 -26 14 -46.5t37 -34.5v-1q-31 -15 -49.5 -40.5t-18.5 -62.5q0 -56 40.5 -88.5t110.5 -32.5q72 0 115 34.5zM362 430q-13 12 -13 32
q0 18 13 30.5t37 12.5t37.5 -12t13.5 -30q0 -20 -14 -32.5t-38 -12.5q-23 0 -36 12z" />
    <glyph glyph-name="uni2792" unicode="&#x2792;" horiz-adv-x="799" 
d="M207 33q-87 50 -137.5 136t-50.5 189t50.5 189t137.5 135.5t191 49.5q105 0 192.5 -49.5t138.5 -135.5t51 -189q0 -104 -51 -190t-138 -135.5t-192 -49.5t-192 50zM523 212.5q43 50.5 43 153.5q0 100 -41 150.5t-116 50.5q-68 0 -111 -37.5t-43 -96.5q0 -54 36 -90.5
t93 -36.5t88 39q1 -51 -15 -80t-49 -29q-25 0 -37.5 14.5t-15.5 32.5l-93 -22q7 -37 42 -68t100 -31q76 0 119 50.5zM364 395q-15 16 -15 41t15.5 40.5t41.5 15.5q31 0 47 -20t16 -49q-4 -16 -19.5 -30t-41.5 -14q-29 0 -44 16z" />
    <glyph glyph-name="u1F10B" unicode="&#x1f10b;" horiz-adv-x="819" 
d="M217 31.5q-87 48.5 -137.5 133.5t-50.5 190t49.5 191.5t136.5 136t194 49.5t194 -49.5t137 -136t50 -192.5q0 -105 -50 -189.5t-136.5 -133t-192.5 -48.5q-107 0 -194 48.5zM553.5 114q63.5 37 98.5 100t35 139q0 77 -36.5 143t-100 104.5t-141.5 38.5t-141.5 -38.5
t-99.5 -103.5t-36 -141q0 -75 34.5 -139t98 -102t145.5 -38q80 0 143.5 37zM289.5 204.5q-39.5 50.5 -39.5 147.5t40 152t119 55t119 -55t40 -152t-39.5 -147.5t-119.5 -50.5t-119.5 50.5zM459.5 257q16.5 29 16.5 95q0 69 -16.5 100.5t-50.5 31.5q-35 0 -51 -33t-16 -99
q0 -67 16 -95.5t51 -28.5q34 0 50.5 29z" />
    <glyph glyph-name="u1F10C" unicode="&#x1f10c;" horiz-adv-x="819" 
d="M217 33q-87 50 -137.5 136t-50.5 189t50.5 189t137.5 135.5t191 49.5q105 0 192.5 -49.5t138.5 -135.5t51 -189q0 -104 -51 -190t-138 -135.5t-192 -49.5t-192 50zM527.5 204.5q39.5 50.5 39.5 147.5t-40 152t-119 55t-118.5 -55t-39.5 -152t39.5 -147.5t118.5 -50.5
q80 0 119.5 50.5zM357 257.5q-16 29.5 -16 96.5q0 130 67 130q34 0 51 -31.5t17 -100.5q0 -66 -16.5 -95t-51.5 -29t-51 29.5z" />
    <glyph glyph-name="uni004A0301" horiz-adv-x="615" 
d="M151 19.5q-60 37.5 -88 94.5t-31 120l158 17q0 -52 27.5 -90.5t88.5 -38.5q55 0 77 30.5t22 86.5v476h156v-476q0 -127 -67.5 -192t-188.5 -65q-94 0 -154 37.5zM400 755l69 148h191l-123 -148h-137z" />
    <glyph glyph-name="R.ss04" horiz-adv-x="689" 
d="M57 715h311q122 0 186.5 -55t64.5 -157q0 -96 -52 -148.5t-124 -74.5q18 -66 61 -104t112 -38h32v-138h-51q-129 0 -199.5 71.5t-94.5 187.5h-89v-259h-157v715zM332 381q53 0 87 24.5t34 79.5q0 54 -31 76.5t-75 22.5h-133v-203h118z" />
    <glyph glyph-name="Racute.ss04" horiz-adv-x="689" 
d="M57 715h311q122 0 186.5 -55t64.5 -157q0 -96 -52 -148.5t-124 -74.5q18 -66 61 -104t112 -38h32v-138h-51q-129 0 -199.5 71.5t-94.5 187.5h-89v-259h-157v715zM332 381q53 0 87 24.5t34 79.5q0 54 -31 76.5t-75 22.5h-133v-203h118zM259 747l69 148h191l-123 -148h-137
z" />
    <glyph glyph-name="Rcaron.ss04" horiz-adv-x="689" 
d="M57 715h311q122 0 186.5 -55t64.5 -157q0 -96 -52 -148.5t-124 -74.5q18 -66 61 -104t112 -38h32v-138h-51q-129 0 -199.5 71.5t-94.5 187.5h-89v-259h-157v715zM332 381q53 0 87 24.5t34 79.5q0 54 -31 76.5t-75 22.5h-133v-203h118zM244 746l-94 149h142l42 -67l41 67
h140l-83 -149h-188z" />
    <glyph glyph-name="uni0156.ss04" horiz-adv-x="689" 
d="M57 715h311q122 0 186.5 -55t64.5 -157q0 -96 -52 -148.5t-124 -74.5q18 -66 61 -104t112 -38h32v-138h-51q-129 0 -199.5 71.5t-94.5 187.5h-89v-259h-157v715zM232 -206l39 152h169l-82 -152h-126zM332 381q53 0 87 24.5t34 79.5q0 54 -31 76.5t-75 22.5h-133v-203h118
z" />
    <glyph glyph-name="i.loclTRK" horiz-adv-x="240" 
d="M48 0v484h149v-484h-149zM54.5 561q-27.5 25 -27.5 63t27.5 62.5t68.5 24.5t68.5 -25.5t27.5 -61.5q0 -37 -27 -62.5t-69 -25.5q-41 0 -68.5 25z" />
    <glyph glyph-name="uni006A0301" horiz-adv-x="256" 
d="M-30 -205l12 125q15 -3 30 -3q34 0 43 17.5t9 40.5v509h149v-494q0 -93 -49 -146.5t-137 -53.5q-36 0 -57 5zM67 541l69 148h191l-123 -148h-137z" />
    <glyph glyph-name="germandbls.calt" horiz-adv-x="716" 
d="M306 32.5q-56 50.5 -72 119.5l136 50q6 -39 26.5 -64.5t60.5 -25.5q38 0 58 25t20 71q0 54 -25 79t-65 25t-75 -30l-91 93l169 200h-104q-41 0 -68.5 -10.5t-45.5 -45t-18 -100.5v-419h-155v412q0 140 73.5 221.5t266.5 81.5h211v-127l-158 -165q24 9 53 9
q45 0 89.5 -24.5t73.5 -74t29 -121.5q0 -104 -61 -167t-170 -63q-102 0 -158 50.5z" />
    <glyph glyph-name="a.ss01" horiz-adv-x="569" 
d="M139.5 12q-49.5 26 -83 84.5t-33.5 147.5q0 87 31.5 144t80 83.5t98.5 26.5q45 0 80 -20.5t57 -52.5h1v59h151v-484h-149v59h-1q-19 -31 -54.5 -52t-80.5 -21q-48 0 -97.5 26zM347 143.5q27 36.5 27 102.5q0 63 -26 97t-74 34q-46 0 -72.5 -33t-26.5 -100
q0 -66 27 -101.5t71 -35.5q47 0 74 36.5z" />
    <glyph glyph-name="aacute.ss01" horiz-adv-x="569" 
d="M139.5 12q-49.5 26 -83 84.5t-33.5 147.5q0 87 31.5 144t80 83.5t98.5 26.5q45 0 80 -20.5t57 -52.5h1v59h151v-484h-149v59h-1q-19 -31 -54.5 -52t-80.5 -21q-48 0 -97.5 26zM347 143.5q27 36.5 27 102.5q0 63 -26 97t-74 34q-46 0 -72.5 -33t-26.5 -100
q0 -66 27 -101.5t71 -35.5q47 0 74 36.5zM217 577l69 148h191l-123 -148h-137z" />
    <glyph glyph-name="abreve.ss01" horiz-adv-x="569" 
d="M139.5 12q-49.5 26 -83 84.5t-33.5 147.5q0 87 31.5 144t80 83.5t98.5 26.5q45 0 80 -20.5t57 -52.5h1v59h151v-484h-149v59h-1q-19 -31 -54.5 -52t-80.5 -21q-48 0 -97.5 26zM347 143.5q27 36.5 27 102.5q0 63 -26 97t-74 34q-46 0 -72.5 -33t-26.5 -100
q0 -66 27 -101.5t71 -35.5q47 0 74 36.5zM202.5 593q-37.5 20 -58.5 54.5t-21 77.5h124q0 -22 12 -35.5t31 -13.5q18 0 29.5 14t11.5 35h124q0 -42 -20.5 -76.5t-58 -55t-87.5 -20.5q-49 0 -86.5 20z" />
    <glyph glyph-name="acircumflex.ss01" horiz-adv-x="569" 
d="M139.5 12q-49.5 26 -83 84.5t-33.5 147.5q0 87 31.5 144t80 83.5t98.5 26.5q45 0 80 -20.5t57 -52.5h1v59h151v-484h-149v59h-1q-19 -31 -54.5 -52t-80.5 -21q-48 0 -97.5 26zM347 143.5q27 36.5 27 102.5q0 63 -26 97t-74 34q-46 0 -72.5 -33t-26.5 -100
q0 -66 27 -101.5t71 -35.5q47 0 74 36.5zM107 576l94 149h188l82 -149h-140l-40 67l-42 -67h-142z" />
    <glyph glyph-name="adieresis.ss01" horiz-adv-x="569" 
d="M139.5 12q-49.5 26 -83 84.5t-33.5 147.5q0 87 31.5 144t80 83.5t98.5 26.5q45 0 80 -20.5t57 -52.5h1v59h151v-484h-149v59h-1q-19 -31 -54.5 -52t-80.5 -21q-48 0 -97.5 26zM347 143.5q27 36.5 27 102.5q0 63 -26 97t-74 34q-46 0 -72.5 -33t-26.5 -100
q0 -66 27 -101.5t71 -35.5q47 0 74 36.5zM120.5 603.5q-27.5 23.5 -27.5 56.5t27 57t63 24q37 0 64 -24.5t27 -57.5q0 -32 -26.5 -55.5t-63.5 -23.5q-36 0 -63.5 23.5zM329.5 604q-26.5 24 -26.5 57t26 56.5t63 23.5t64.5 -24t27.5 -57t-27 -56.5t-64 -23.5t-63.5 24z" />
    <glyph glyph-name="agrave.ss01" horiz-adv-x="569" 
d="M139.5 12q-49.5 26 -83 84.5t-33.5 147.5q0 87 31.5 144t80 83.5t98.5 26.5q45 0 80 -20.5t57 -52.5h1v59h151v-484h-149v59h-1q-19 -31 -54.5 -52t-80.5 -21q-48 0 -97.5 26zM347 143.5q27 36.5 27 102.5q0 63 -26 97t-74 34q-46 0 -72.5 -33t-26.5 -100
q0 -66 27 -101.5t71 -35.5q47 0 74 36.5zM232 577l-123 148h191l69 -148h-137z" />
    <glyph glyph-name="amacron.ss01" horiz-adv-x="569" 
d="M139.5 12q-49.5 26 -83 84.5t-33.5 147.5q0 87 31.5 144t80 83.5t98.5 26.5q45 0 80 -20.5t57 -52.5h1v59h151v-484h-149v59h-1q-19 -31 -54.5 -52t-80.5 -21q-48 0 -97.5 26zM347 143.5q27 36.5 27 102.5q0 63 -26 97t-74 34q-46 0 -72.5 -33t-26.5 -100
q0 -66 27 -101.5t71 -35.5q47 0 74 36.5zM117 588v114h343v-114h-343z" />
    <glyph glyph-name="aogonek.ss01" horiz-adv-x="569" 
d="M374 -198.5q-32 26.5 -32 69.5q0 33 22 64.5t71 64.5h-62v59h-1q-19 -31 -54.5 -52t-80.5 -21q-48 0 -97.5 26t-83 84.5t-33.5 147.5q0 87 31.5 144t80 83.5t98.5 26.5q45 0 80 -20.5t57 -52.5h1v59h151v-484q-25 -26 -39.5 -42t-17.5 -21.5t-3 -12.5q0 -23 6.5 -33.5
t25.5 -10.5q15 0 25 6.5t28 24.5l12 -94q-9 -15 -37 -28.5t-65 -13.5q-51 0 -83 26.5zM347 143.5q27 36.5 27 102.5q0 63 -26 97t-74 34q-46 0 -72.5 -33t-26.5 -100q0 -66 27 -101.5t71 -35.5q47 0 74 36.5z" />
    <glyph glyph-name="aring.ss01" horiz-adv-x="569" 
d="M139.5 12q-49.5 26 -83 84.5t-33.5 147.5q0 87 31.5 144t80 83.5t98.5 26.5q45 0 80 -20.5t57 -52.5h1v59h151v-484h-149v59h-1q-19 -31 -54.5 -52t-80.5 -21q-48 0 -97.5 26zM347 143.5q27 36.5 27 102.5q0 63 -26 97t-74 34q-46 0 -72.5 -33t-26.5 -100
q0 -66 27 -101.5t71 -35.5q47 0 74 36.5zM198 597.5q-36 35.5 -36 88.5t36.5 87.5t91.5 34.5q54 0 90.5 -35t36.5 -88t-35.5 -88t-90.5 -35q-57 0 -93 35.5zM322 651.5q13 13.5 13 33.5q0 21 -13.5 34t-32.5 13q-18 0 -32 -13.5t-14 -33.5q0 -21 13.5 -34t32.5 -13
q20 0 33 13.5z" />
    <glyph glyph-name="aringacute.ss01" horiz-adv-x="569" 
d="M139.5 12q-49.5 26 -83 84.5t-33.5 147.5q0 87 31.5 144t80 83.5t98.5 26.5q45 0 80 -20.5t57 -52.5h1v59h151v-484h-149v59h-1q-19 -31 -54.5 -52t-80.5 -21q-48 0 -97.5 26zM347 143.5q27 36.5 27 102.5q0 63 -26 97t-74 34q-46 0 -72.5 -33t-26.5 -100
q0 -66 27 -101.5t71 -35.5q47 0 74 36.5zM198 597.5q-36 35.5 -36 88.5t36.5 87.5t91.5 34.5q54 0 90.5 -35t36.5 -88t-35.5 -88t-90.5 -35q-57 0 -93 35.5zM322 651.5q13 13.5 13 33.5q0 21 -13.5 34t-32.5 13q-18 0 -32 -13.5t-14 -33.5q0 -21 13.5 -34t32.5 -13
q20 0 33 13.5zM218 822l69 148h191l-123 -148h-137z" />
    <glyph glyph-name="atilde.ss01" horiz-adv-x="569" 
d="M139.5 12q-49.5 26 -83 84.5t-33.5 147.5q0 87 31.5 144t80 83.5t98.5 26.5q45 0 80 -20.5t57 -52.5h1v59h151v-484h-149v59h-1q-19 -31 -54.5 -52t-80.5 -21q-48 0 -97.5 26zM347 143.5q27 36.5 27 102.5q0 63 -26 97t-74 34q-46 0 -72.5 -33t-26.5 -100
q0 -66 27 -101.5t71 -35.5q47 0 74 36.5zM86 611q22 61 53.5 88t76.5 27q24 0 40 -6t35 -18q14 -8 24 -12.5t24 -4.5q38 0 57 40l88 -29q-23 -69 -56.5 -95t-73.5 -26q-22 0 -37.5 6t-38.5 19q-28 16 -48 16q-37 0 -60 -44z" />
    <glyph glyph-name="zero.zero" horiz-adv-x="642" 
d="M108 80q-71 93 -71 268q0 177 72 276t212 99q141 0 212.5 -99.5t71.5 -275.5q0 -175 -71 -268t-213 -93t-213 93zM421 167.5q32 55.5 32 181.5q0 106 -22 163l-160 -391q21 -9 50 -9q68 0 100 55.5zM369 588q-20 10 -48 10q-132 0 -132 -247q0 -98 19 -154z" />
    <glyph glyph-name="zero.numrsuperior" horiz-adv-x="432" 
d="M83 475q-44 55 -44 160q0 106 44.5 166.5t132.5 60.5t132 -60.5t44 -166.5q0 -215 -177 -215q-88 0 -132 55zM271.5 533q16.5 29 16.5 102q0 75 -17 108.5t-56 33.5t-55.5 -34t-16.5 -106q0 -74 16.5 -103.5t56.5 -29.5q39 0 55.5 29z" />
    <glyph glyph-name="one.numrsuperior" horiz-adv-x="309" 
d="M136 725q-10 -16 -31.5 -26.5t-40.5 -10.5h-25v95h18q33 0 56.5 20t28.5 50h95v-426h-101v298z" />
    <glyph glyph-name="two.numrsuperior" horiz-adv-x="387" 
d="M45 495q114 93 156 144t42 88q0 23 -12 37t-36 14q-34 0 -50 -28.5t-17 -68.5l-90 27q5 62 44.5 108t118.5 46q70 0 108 -36.5t38 -90.5q0 -50 -39.5 -105.5t-114.5 -112.5h153v-90h-301v68z" />
    <glyph glyph-name="three.numrsuperior" horiz-adv-x="403" 
d="M76 459q-41 39 -45 93l106 12q1 -25 16 -44t49 -19q27 0 43 13.5t16 36.5q0 31 -28 46t-71 13v72q42 1 64.5 14.5t22.5 39.5q0 19 -13 31.5t-36 12.5q-33 0 -48.5 -21t-17.5 -48l-93 13q2 56 39 97t118 41q71 0 113 -32t42 -79q0 -38 -26 -64.5t-53 -33.5v-1
q91 -21 91 -103q0 -59 -44.5 -94t-120.5 -35q-83 0 -124 39z" />
    <glyph glyph-name="four.numrsuperior" horiz-adv-x="434" 
d="M231 427v90h-199v71l190 265h113v-260h63v-76h-63v-90h-104zM127 593h109v155h-1z" />
    <glyph glyph-name="five.numrsuperior" horiz-adv-x="407" 
d="M87 457.5q-40 37.5 -51 88.5l103 14q3 -20 18 -36.5t46 -16.5q61 0 61 65q0 35 -16.5 51t-43.5 16q-45 0 -62 -47l-98 19l28 242h273v-86h-185l-10 -71q17 10 33.5 16t43.5 6q65 0 103 -37.5t38 -103.5q0 -75 -47.5 -116t-120.5 -41t-113 37.5z" />
    <glyph glyph-name="six.numrsuperior" horiz-adv-x="420" 
d="M85 474.5q-46 54.5 -46 164.5q0 112 47.5 167.5t132.5 55.5q72 0 110.5 -34.5t45.5 -75.5l-103 -23q-3 19 -16.5 34.5t-41.5 15.5q-37 0 -54 -31.5t-15 -85.5q32 42 95 42q64 0 103.5 -39.5t39.5 -99.5q0 -65 -47.5 -105t-120.5 -40q-84 0 -130 54.5zM261.5 519
q16.5 17 16.5 44t-16.5 43.5t-46.5 16.5q-29 0 -46.5 -14t-21.5 -32q0 -31 17.5 -53t49.5 -22q31 0 47.5 17z" />
    <glyph glyph-name="seven.numrsuperior" horiz-adv-x="373" 
d="M130 609.5q35 80.5 115 152.5h-212v91h307v-84q-69 -70 -104 -154.5t-44 -187.5h-105q8 102 43 182.5z" />
    <glyph glyph-name="eight.numrsuperior" horiz-adv-x="419" 
d="M82.5 457.5q-44.5 37.5 -44.5 96.5q0 76 74 110v1q-25 15 -40 37.5t-15 53.5q0 48 39 77t113 29q75 0 115 -30t40 -77q0 -29 -15.5 -52.5t-41.5 -35.5q35 -19 54.5 -45t19.5 -68q0 -62 -47 -98t-126 -36q-81 0 -125.5 37.5zM261.5 525.5q16.5 16.5 16.5 41.5
q0 26 -17.5 43t-50.5 17q-32 0 -50 -17t-18 -43q0 -25 17 -41.5t50 -16.5q36 0 52.5 16.5zM249 712q14 13 14 35q0 19 -13.5 31t-39.5 12q-25 0 -39 -12t-14 -33t14 -33.5t39 -12.5t39 13z" />
    <glyph glyph-name="nine.numrsuperior" horiz-adv-x="421" 
d="M90.5 454q-39.5 34 -46.5 76l106 24q3 -21 17 -35.5t39 -14.5q36 0 53 30.5t16 84.5q-33 -42 -95 -42q-64 0 -103.5 39.5t-39.5 99.5q0 65 47 105.5t123 40.5q84 0 129.5 -55t45.5 -164q0 -112 -47.5 -167.5t-132.5 -55.5q-72 0 -111.5 34zM251 673.5q17 14.5 22 32.5
q0 30 -17.5 51t-50.5 21q-29 0 -45 -16.5t-16 -42.5t16 -43t47 -17q27 0 44 14.5z" />
    <glyph glyph-name="zero.osf" horiz-adv-x="594" 
d="M160 15.5q-62 32.5 -98 91t-36 133.5q0 76 36 135t98.5 92t137.5 33t137 -33t97.5 -92.5t35.5 -134.5t-35.5 -133.5t-97 -91t-137.5 -32.5t-138 32.5zM385 148.5q30 40.5 30 95.5t-30.5 93.5t-85.5 38.5q-56 0 -88.5 -40.5t-32.5 -95.5t32.5 -93.5t87.5 -38.5
q57 0 87 40.5z" />
    <glyph glyph-name="one.osf" horiz-adv-x="386" 
d="M185 296q-17 -27 -51.5 -43.5t-69.5 -16.5h-30l-4 130h20q57 0 96.5 33t47.5 85h140v-484h-149v296z" />
    <glyph glyph-name="two.osf" horiz-adv-x="508" 
d="M34 96q122 75 182.5 116t86 68t25.5 51q0 22 -17 35.5t-52 13.5q-54 0 -76 -30t-24 -73l-135 39q5 47 32 89t80 69t132 27q67 0 115 -20t72.5 -54t24.5 -76q0 -39 -23 -74t-67 -70t-120 -85h208v-122h-444v96z" />
    <glyph glyph-name="three.osf" horiz-adv-x="550" 
d="M132 -148.5q-56 29.5 -82 75t-30 96.5l154 19q2 -42 27 -72t79 -30q44 0 70 22.5t26 60.5q0 51 -43 74t-112 21v104q64 2 100 25t36 63q0 31 -21.5 51t-60.5 20q-50 0 -75 -32t-28 -76l-136 18q1 53 24.5 100t76.5 78t137 31q71 0 123.5 -23t80.5 -62t28 -86
q0 -39 -19.5 -71t-47.5 -51.5t-53 -24.5v-2q60 -15 101 -50.5t41 -109.5q0 -60 -31 -105t-88 -69t-134 -24q-87 0 -143 29.5z" />
    <glyph glyph-name="four.osf" horiz-adv-x="588" 
d="M329 -166v166h-306v104l292 383h164v-376h97v-111h-97v-166h-150zM162 111h173v220h-1z" />
    <glyph glyph-name="five.osf" horiz-adv-x="553" 
d="M103 -121.5q-61 56.5 -77 135.5l148 19q5 -34 30.5 -59.5t73.5 -25.5q50 0 76 27.5t26 80.5q0 55 -26.5 81t-71.5 26q-74 0 -102 -72l-140 29l42 367h413v-125h-286l-16 -120q25 18 52 27.5t68 9.5q101 0 159.5 -58.5t58.5 -159.5q0 -77 -33.5 -130.5t-92 -81
t-130.5 -27.5q-111 0 -172 56.5z" />
    <glyph glyph-name="six.osf" horiz-adv-x="574" 
d="M95.5 67q-69.5 84 -69.5 252q0 172 73 257.5t201 85.5q75 0 125.5 -26.5t77 -64.5t32.5 -75l-151 -36q-5 32 -28 55t-65 23q-57 0 -84.5 -48.5t-25.5 -137.5q22 30 59.5 48t88.5 18q65 0 114.5 -27.5t77 -76t27.5 -108.5q0 -65 -32.5 -116t-91 -79t-133.5 -28
q-126 0 -195.5 84zM367.5 132.5q26.5 26.5 26.5 69.5q0 44 -27.5 70.5t-74.5 26.5q-45 0 -72.5 -23t-35.5 -52q0 -50 28.5 -84t81.5 -34q47 0 73.5 26.5z" />
    <glyph glyph-name="seven.osf" horiz-adv-x="505" 
d="M170 116.5q55 126.5 178 237.5h-326v133h464v-123q-107 -112 -162.5 -242.5t-69.5 -287.5h-152q13 156 68 282.5z" />
    <glyph glyph-name="eight.osf" horiz-adv-x="569" 
d="M145 15q-58 27 -88.5 73.5t-30.5 105.5q0 61 31.5 102.5t83.5 66.5v1q-39 22 -62.5 56.5t-23.5 77.5q0 46 26.5 84t78 60.5t124.5 22.5q74 0 126.5 -23.5t79 -61.5t26.5 -82q0 -43 -24.5 -77.5t-63.5 -53.5v-1q116 -59 116 -170q0 -61 -32.5 -108t-92 -73.5t-137.5 -26.5
q-79 0 -137 27zM366.5 140q29.5 26 29.5 69t-29 71t-83 28q-52 0 -81 -27.5t-29 -70.5q0 -42 28.5 -69t82.5 -27q52 0 81.5 26zM350.5 435.5q23.5 21.5 23.5 55.5q0 33 -23 53t-66 20t-66 -20.5t-23 -53.5q0 -34 24 -55t65 -21q42 0 65.5 21.5z" />
    <glyph glyph-name="nine.osf" horiz-adv-x="574" 
d="M151.5 -153q-50.5 25 -78 63t-35.5 78l152 35q5 -32 28 -55t65 -23q57 0 84.5 48.5t25.5 137.5q-51 -65 -148 -65q-65 0 -114.5 27.5t-77 76t-27.5 108.5q0 66 33 116.5t92 78t133 27.5q126 0 195 -83.5t69 -251.5q0 -172 -73 -257.5t-201 -85.5q-72 0 -122.5 25z
M354 208q28 23 35 51q0 50 -28 84t-80 34q-48 0 -74.5 -26t-26.5 -70t27 -70t74 -26q45 0 73 23z" />
    <glyph glyph-name="zero.tf" 
d="M92 80q-71 93 -71 268q0 177 71.5 276.5t211.5 99.5t211 -99.5t71 -276.5q0 -175 -71 -268t-212 -93q-140 0 -211 93zM402 168q32 56 32 181q0 127 -32 188.5t-98 61.5q-67 0 -99 -63.5t-32 -187.5t31.5 -180t98.5 -56t99 56z" />
    <glyph glyph-name="one.tf" 
d="M283 517q-19 -30 -56.5 -46.5t-75.5 -16.5h-44v139h28q62 0 105.5 33t51.5 85h142v-711h-151v517z" />
    <glyph glyph-name="two.tf" 
d="M62 102q129 104 202.5 176t105 125.5t31.5 101.5q0 43 -23 69.5t-70 26.5q-64 0 -93.5 -49t-30.5 -116l-135 38q6 63 34 119.5t85.5 93.5t146.5 37q76 0 130 -28t81 -75.5t27 -104.5q0 -91 -70.5 -185.5t-201.5 -195.5h273v-135h-492v102z" />
    <glyph glyph-name="three.tf" 
d="M146.5 18.5q-59.5 31.5 -88 80.5t-33.5 104l157 19q2 -46 31 -80.5t92 -34.5q53 0 83.5 26t30.5 71q0 58 -49 85.5t-128 25.5v107q73 2 113.5 27.5t40.5 70.5q0 36 -25 59.5t-72 23.5q-59 0 -86.5 -36t-30.5 -84l-138 18q1 54 25.5 104.5t81 84.5t147.5 34
q76 0 132.5 -24.5t86 -66.5t29.5 -93q0 -42 -20.5 -76.5t-50.5 -56t-58 -27.5v-2q64 -14 109 -55t45 -121q0 -65 -33.5 -113.5t-95.5 -75t-144 -26.5q-92 0 -151.5 31.5z" />
    <glyph glyph-name="four.tf" 
d="M339 0v152h-332v106l317 453h166v-445h105v-114h-105v-152h-151zM148 266h197v285h-1z" />
    <glyph glyph-name="five.tf" 
d="M156.5 18q-56.5 31 -86.5 77.5t-40 97.5l151 19q6 -39 35 -68.5t85 -29.5q57 0 88.5 33t31.5 94q0 62 -31 93.5t-83 31.5q-84 0 -118 -79l-142 30l45 394h442v-129h-314l-19 -142q57 44 136 44q68 0 121.5 -28t84 -82t30.5 -129q0 -82 -36 -140t-99 -88t-142 -30
q-83 0 -139.5 31z" />
    <glyph glyph-name="six.tf" 
d="M102.5 77q-74.5 90 -74.5 273q0 189 78.5 281.5t213.5 92.5q78 0 131.5 -28t82 -68.5t36.5 -80.5l-154 -38q-6 36 -31 63.5t-74 27.5q-63 0 -95.5 -57.5t-30.5 -159.5q56 74 164 74q71 0 124 -31t82 -83.5t29 -116.5q0 -71 -35.5 -125.5t-97.5 -84t-140 -29.5
q-134 0 -208.5 90zM396.5 142q30.5 31 30.5 81q0 49 -29.5 81t-84.5 32q-52 0 -84 -27t-40 -61q0 -59 33.5 -98t92.5 -39q51 0 81.5 31z" />
    <glyph glyph-name="seven.tf" 
d="M219 312q62 140 198 263h-364v136h503v-127q-122 -125 -184 -268t-77 -316h-154q16 172 78 312z" />
    <glyph glyph-name="eight.tf" 
d="M152.5 14.5q-61.5 27.5 -94.5 77t-33 114.5q0 68 34.5 114.5t92.5 74.5v1q-42 24 -68.5 61.5t-26.5 88.5q0 81 65.5 129.5t180.5 48.5q78 0 134 -23t85 -62.5t29 -90.5q0 -50 -27 -89.5t-70 -58.5v-1q126 -64 126 -188q0 -65 -34.5 -116t-98.5 -79.5t-149 -28.5
q-84 0 -145.5 27.5zM395.5 146q32.5 29 32.5 78q0 50 -33 82t-91 32q-59 0 -92.5 -32t-33.5 -80q0 -47 32.5 -78t94.5 -31q58 0 90.5 29zM378 473.5q27 24.5 27 62.5q0 37 -26.5 60t-74.5 23t-74.5 -22.5t-26.5 -61.5t27.5 -62.5t73.5 -23.5q47 0 74 24.5z" />
    <glyph glyph-name="nine.tf" 
d="M157.5 15q-53.5 28 -82 68.5t-36.5 80.5l153 38q6 -36 31.5 -63.5t73.5 -27.5q64 0 96 57.5t30 159.5q-56 -74 -165 -74q-68 0 -121.5 30.5t-83 83t-29.5 117.5q0 69 34.5 123.5t97 85t142.5 30.5q133 0 207.5 -90t74.5 -273q0 -189 -78 -281.5t-213 -92.5
q-78 0 -131.5 28zM380.5 403q31.5 27 39.5 60q0 59 -34 98.5t-92 39.5q-51 0 -82 -31.5t-31 -81.5q0 -48 30 -80t86 -32q52 0 83.5 27z" />
    <glyph glyph-name="zero.tosf" 
d="M166 15.5q-62 32.5 -98 91t-36 133.5t36 134.5t98.5 93t138.5 33.5q75 0 137 -33t97.5 -92.5t35.5 -135.5q0 -75 -35.5 -133.5t-97.5 -91t-138 -32.5t-138 32.5zM392.5 148.5q29.5 40.5 29.5 93.5q0 57 -30.5 96t-85.5 39q-56 0 -89 -41t-33 -97q0 -54 33 -92.5t88 -38.5
q58 0 87.5 40.5z" />
    <glyph glyph-name="one.tosf" 
d="M300 297q-19 -28 -57.5 -44t-77.5 -16h-35l-3 130h21q64 0 108.5 33t52.5 85h143v-485h-152v297z" />
    <glyph glyph-name="two.tosf" 
d="M79 96q128 77 188.5 117.5t87.5 67.5t27 51q0 22 -18.5 35.5t-54.5 13.5q-56 0 -79.5 -30.5t-25.5 -72.5l-136 39q6 46 33 88t81.5 69.5t135.5 27.5q68 0 117 -20t74 -53.5t25 -75.5q0 -40 -24 -75t-70 -70.5t-125 -85.5h218v-122h-454v96z" />
    <glyph glyph-name="three.tosf" 
d="M161 -149q-56 29 -83.5 74.5t-31.5 97.5l155 19q2 -43 28 -72.5t80 -29.5q46 0 72 22.5t26 60.5q0 50 -43 73.5t-114 21.5v104q64 2 100.5 25t36.5 64q0 31 -21.5 51t-61.5 20q-51 0 -76.5 -32.5t-28.5 -75.5l-137 18q1 52 24.5 99.5t77 78.5t138.5 31q73 0 126.5 -23
t81.5 -62t28 -86q0 -40 -20 -72t-48.5 -51.5t-53.5 -24.5v-2q61 -15 102.5 -50.5t41.5 -108.5q0 -60 -31.5 -105t-89.5 -69.5t-135 -24.5q-87 0 -143 29z" />
    <glyph glyph-name="four.tosf" 
d="M339 -166v166h-308v104l294 384h164v-377h97v-111h-97v-166h-150zM170 111h175v221h-1z" />
    <glyph glyph-name="five.tosf" 
d="M128 -121q-62 57 -78 135l150 19q5 -33 30 -59t75 -26q51 0 78 27.5t27 80.5q0 55 -27 81t-74 26q-75 0 -103 -72l-142 29l43 368h418v-125h-291l-16 -121q27 18 54 28t69 10q100 0 160 -59t60 -160q0 -76 -34 -130t-93 -81.5t-132 -27.5q-112 0 -174 57z" />
    <glyph glyph-name="six.tosf" 
d="M111 67.5q-70 84.5 -70 251.5q0 172 73.5 258t202.5 86q75 0 126 -26.5t77.5 -64.5t33.5 -75l-151 -36q-6 32 -29.5 55t-65.5 23q-57 0 -85.5 -49t-26.5 -138q24 31 61.5 49t88.5 18q64 0 114 -27.5t78 -76t28 -109.5q0 -65 -32.5 -116t-91.5 -79t-134 -28
q-127 0 -197 84.5zM384.5 132q27.5 26 27.5 70q0 45 -28 71.5t-75 26.5q-45 0 -73 -23t-36 -53q0 -50 29 -84t82 -34q46 0 73.5 26z" />
    <glyph glyph-name="seven.tosf" 
d="M221 116q57 127 183 239h-336v133h474v-123q-111 -113 -167.5 -244t-71.5 -287h-153q14 155 71 282z" />
    <glyph glyph-name="eight.tosf" 
d="M161.5 15.5q-58.5 27.5 -88.5 74t-30 102.5q0 117 116 172v1q-39 22 -63 57t-24 77q0 45 27 83t79 61t125 23q74 0 127 -23.5t79.5 -61.5t26.5 -82t-25 -79t-63 -52v-1q53 -28 85 -69t32 -103q0 -63 -34 -110t-94.5 -72t-136.5 -25q-80 0 -138.5 27.5zM386.5 140
q29.5 26 29.5 69t-29.5 71.5t-82.5 28.5t-83 -28t-30 -70t29 -69.5t84 -27.5q53 0 82.5 26zM369.5 436.5q24.5 21.5 24.5 57.5q0 32 -23.5 51.5t-66.5 19.5t-66.5 -20.5t-23.5 -52.5q0 -35 24 -56t65 -21q42 0 66.5 21.5z" />
    <glyph glyph-name="nine.tosf" 
d="M167 -153q-51 25 -78.5 63t-35.5 78l152 35q6 -31 28.5 -54.5t65.5 -23.5q57 0 85.5 48.5t26.5 137.5q-23 -30 -60.5 -47.5t-88.5 -17.5q-65 0 -115.5 28t-78 76.5t-27.5 108.5q0 66 33.5 116.5t92 78t131.5 27.5q128 0 198 -84t70 -252q0 -172 -73 -257.5t-202 -85.5
q-73 0 -124 25zM372 208q28 23 36 52q0 50 -29 84t-81 34q-48 0 -75.5 -26.5t-27.5 -69.5q0 -42 26.5 -69.5t76.5 -27.5q46 0 74 23z" />
    <glyph glyph-name="zero.subs" horiz-adv-x="432" 
d="M83 -92q-44 55 -44 160q0 106 44.5 166t132.5 60t132 -60t44 -166q0 -215 -177 -215q-88 0 -132 55zM271.5 -34.5q16.5 28.5 16.5 102.5q0 75 -17 108.5t-56 33.5t-55.5 -34.5t-16.5 -106.5q0 -73 16.5 -102.5t56.5 -29.5q39 0 55.5 28.5z" />
    <glyph glyph-name="one.subs" horiz-adv-x="309" 
d="M136 158q-10 -17 -31.5 -27t-40.5 -10h-25v95h18q33 0 56.5 20t28.5 50h95v-426h-101v298z" />
    <glyph glyph-name="two.subs" horiz-adv-x="387" 
d="M45 -72q114 92 156 143t42 89q0 23 -12 37t-36 14q-34 0 -50 -28.5t-17 -68.5l-90 26q5 62 44.5 108t118.5 46q70 0 108 -36t38 -90q0 -50 -39.5 -105.5t-114.5 -112.5h153v-90h-301v68z" />
    <glyph glyph-name="three.subs" horiz-adv-x="403" 
d="M76 -108.5q-41 38.5 -45 92.5l106 13q1 -25 16 -44t49 -19q27 0 43 13t16 37q0 31 -28 46t-71 13v71q42 2 64.5 15.5t22.5 39.5q0 19 -13 31.5t-36 12.5q-33 0 -48.5 -21t-17.5 -48l-93 12q2 56 39.5 97t118.5 41q70 0 112 -32t42 -79q0 -26 -13 -47t-31.5 -34t-34.5 -16
v-1q39 -10 65 -32.5t26 -70.5q0 -61 -45 -95t-120 -34q-83 0 -124 38.5z" />
    <glyph glyph-name="four.subs" horiz-adv-x="434" 
d="M231 -140v89h-199v72l190 265h113v-261h63v-76h-63v-89h-104zM127 25h109v155h-1z" />
    <glyph glyph-name="five.subs" horiz-adv-x="407" 
d="M87 -109.5q-40 37.5 -51 88.5l103 13q3 -21 18.5 -36.5t45.5 -15.5q61 0 61 65q0 66 -60 66q-46 0 -62 -47l-98 20l28 242h273v-86h-185l-10 -71q17 10 33.5 16t43.5 6q66 0 103.5 -38.5t37.5 -103.5q0 -75 -48 -115.5t-120 -40.5q-73 0 -113 37.5z" />
    <glyph glyph-name="six.subs" horiz-adv-x="420" 
d="M84.5 -33q-45.5 55 -45.5 164q0 112 48 167.5t132 55.5q71 0 110 -33.5t46 -75.5l-103 -24q-3 20 -17 35t-41 15q-37 0 -54 -31t-15 -85q33 42 96 42t102.5 -39.5t39.5 -99.5q0 -65 -48 -105.5t-122 -40.5q-83 0 -128.5 55zM261.5 11.5q16.5 16.5 16.5 43.5t-16.5 44
t-46.5 17q-29 0 -46 -14.5t-22 -32.5q0 -30 17.5 -52t51.5 -22q29 0 45.5 16.5z" />
    <glyph glyph-name="seven.subs" horiz-adv-x="373" 
d="M130 42.5q35 80.5 115 152.5h-212v91h307v-84q-69 -70 -104 -154.5t-44 -187.5h-105q8 102 43 182.5z" />
    <glyph glyph-name="eight.subs" horiz-adv-x="419" 
d="M82.5 -110q-44.5 37 -44.5 97q0 76 74 110v1q-25 14 -40 37t-15 53q0 48 39 77t114 29t114.5 -29t39.5 -77q0 -30 -15.5 -53t-41.5 -36q35 -18 54.5 -44t19.5 -68q0 -62 -47 -98t-126 -36q-81 0 -125.5 37zM261.5 -41.5q16.5 16.5 16.5 41.5q0 26 -17.5 43t-50.5 17
q-32 0 -50 -17t-18 -43q0 -25 17 -41.5t50 -16.5q36 0 52.5 16.5zM249 145q14 13 14 35q0 19 -13.5 31t-39.5 12q-25 0 -39 -12t-14 -33t14 -33.5t39 -12.5t39 13z" />
    <glyph glyph-name="nine.subs" horiz-adv-x="421" 
d="M90.5 -113q-39.5 34 -46.5 76l106 23q3 -19 16.5 -34t39.5 -15q36 0 53 30t16 84q-34 -41 -95 -41q-64 0 -103.5 39.5t-39.5 99.5q0 65 47 105t123 40q84 0 129.5 -55t45.5 -164q0 -112 -47.5 -167t-132.5 -55q-72 0 -111.5 34zM250 106q17 14 23 32q0 30 -17.5 51.5
t-50.5 21.5q-29 0 -45 -16.5t-16 -42.5q0 -27 15.5 -43.5t45.5 -16.5q28 0 45 14z" />
    <glyph glyph-name="zero.dnom" horiz-adv-x="432" 
d="M83 48q-44 55 -44 160q0 106 44.5 166t132.5 60t132 -60t44 -166q0 -215 -177 -215q-88 0 -132 55zM271.5 105.5q16.5 28.5 16.5 102.5q0 75 -17 108.5t-56 33.5t-55.5 -34.5t-16.5 -106.5q0 -73 16.5 -102.5t56.5 -29.5q39 0 55.5 28.5z" />
    <glyph glyph-name="one.dnom" horiz-adv-x="309" 
d="M136 298q-10 -17 -31.5 -27t-40.5 -10h-25v95h18q33 0 56.5 20t28.5 50h95v-426h-101v298z" />
    <glyph glyph-name="two.dnom" horiz-adv-x="387" 
d="M45 68q114 92 156 143t42 89q0 23 -12 37t-36 14q-34 0 -50 -28.5t-17 -68.5l-90 26q5 62 44.5 108t118.5 46q70 0 108 -36t38 -90q0 -50 -39.5 -105.5t-114.5 -112.5h153v-90h-301v68z" />
    <glyph glyph-name="three.dnom" horiz-adv-x="403" 
d="M76 31.5q-41 38.5 -45 92.5l106 13q1 -25 16 -44t49 -19q27 0 43 13.5t16 36.5q0 31 -28 46t-71 13v71q42 2 64.5 15.5t22.5 39.5q0 19 -13 31.5t-36 12.5q-33 0 -48.5 -21t-17.5 -48l-93 12q2 56 39.5 97t118.5 41q70 0 112 -32t42 -79q0 -26 -13 -47t-31.5 -34
t-34.5 -16v-1q39 -10 65 -32.5t26 -70.5q0 -61 -45 -95t-120 -34q-83 0 -124 38.5z" />
    <glyph glyph-name="four.dnom" horiz-adv-x="434" 
d="M231 0v89h-199v72l190 265h113v-261h63v-76h-63v-89h-104zM127 165h109v155h-1z" />
    <glyph glyph-name="five.dnom" horiz-adv-x="407" 
d="M87 30.5q-40 37.5 -51 88.5l103 13q3 -21 18.5 -36.5t45.5 -15.5q61 0 61 65q0 66 -60 66q-46 0 -62 -47l-98 20l28 242h273v-86h-185l-10 -71q17 10 33.5 16t43.5 6q66 0 103.5 -38.5t37.5 -103.5q0 -75 -48 -115.5t-120 -40.5q-73 0 -113 37.5z" />
    <glyph glyph-name="six.dnom" horiz-adv-x="421" 
d="M85 47.5q-46 54.5 -46 164.5q0 112 48 167t133 55q73 0 111.5 -34.5t45.5 -75.5l-105 -23q-3 21 -17 35t-40 14q-69 0 -69 -114q33 42 96 42t102.5 -40t39.5 -100q0 -65 -47.5 -105t-121.5 -40q-84 0 -130 54.5zM261.5 93q16.5 16 16.5 43q0 26 -16 42.5t-48 16.5
q-26 0 -43.5 -14t-21.5 -32q0 -29 17 -50.5t49 -21.5q30 0 46.5 16z" />
    <glyph glyph-name="seven.dnom" horiz-adv-x="373" 
d="M130 182.5q35 80.5 115 152.5h-212v91h307v-84q-69 -70 -104 -154.5t-44 -187.5h-105q8 102 43 182.5z" />
    <glyph glyph-name="eight.dnom" horiz-adv-x="419" 
d="M82.5 30q-44.5 37 -44.5 97q0 76 74 110v1q-25 14 -40 37t-15 53q0 48 39 77t114 29t114.5 -29t39.5 -77q0 -30 -15.5 -53t-41.5 -36q35 -18 54.5 -44t19.5 -68q0 -62 -47 -98t-126 -36q-81 0 -125.5 37zM261.5 98.5q16.5 16.5 16.5 41.5q0 26 -17.5 43t-50.5 17
q-32 0 -50 -17t-18 -43q0 -25 17 -41.5t50 -16.5q36 0 52.5 16.5zM249 285q14 13 14 35q0 19 -13.5 31t-39.5 12q-25 0 -39 -12t-14 -33t14 -33.5t39 -12.5t39 13z" />
    <glyph glyph-name="nine.dnom" horiz-adv-x="421" 
d="M90.5 27q-39.5 34 -46.5 76l106 24q4 -21 17.5 -35.5t38.5 -14.5q36 0 53 30t16 84q-34 -41 -95 -41q-64 0 -103.5 39.5t-39.5 99.5q0 65 47 105t123 40q84 0 129.5 -55t45.5 -164q0 -112 -47.5 -167t-132.5 -55q-72 0 -111.5 34zM250 246q17 14 23 32q0 30 -17.5 51.5
t-50.5 21.5q-29 0 -45 -16.5t-16 -42.5q0 -27 15.5 -43.5t45.5 -16.5q28 0 45 14z" />
    <glyph glyph-name="zero.numr" horiz-adv-x="432" 
d="M83 357q-44 55 -44 160q0 106 44.5 166t132.5 60t132 -60t44 -166q0 -215 -177 -215q-88 0 -132 55zM271.5 414.5q16.5 28.5 16.5 102.5q0 75 -17 108.5t-56 33.5t-55.5 -34.5t-16.5 -106.5q0 -73 16.5 -102.5t56.5 -29.5q39 0 55.5 28.5z" />
    <glyph glyph-name="one.numr" horiz-adv-x="309" 
d="M136 607q-10 -17 -31.5 -27t-40.5 -10h-25v95h18q33 0 56.5 20t28.5 50h95v-426h-101v298z" />
    <glyph glyph-name="two.numr" horiz-adv-x="387" 
d="M45 377q114 92 156 143t42 89q0 23 -12 37t-36 14q-34 0 -50 -28.5t-17 -68.5l-90 26q5 62 44.5 108t118.5 46q70 0 108 -36t38 -90q0 -50 -39.5 -105.5t-114.5 -112.5h153v-90h-301v68z" />
    <glyph glyph-name="three.numr" horiz-adv-x="403" 
d="M76 340.5q-41 38.5 -45 92.5l106 13q1 -25 16 -44t49 -19q27 0 43 13t16 37q0 31 -28 46t-71 13v71q42 2 64.5 15.5t22.5 39.5q0 19 -13 31.5t-36 12.5q-33 0 -48.5 -21t-17.5 -48l-93 12q2 56 39.5 97t118.5 41q70 0 112 -32t42 -79q0 -26 -13 -47t-31.5 -34t-34.5 -16
v-1q39 -10 65 -32.5t26 -70.5q0 -61 -45 -95t-120 -34q-83 0 -124 38.5z" />
    <glyph glyph-name="four.numr" horiz-adv-x="434" 
d="M231 309v89h-199v72l190 265h113v-261h63v-76h-63v-89h-104zM127 474h109v155h-1z" />
    <glyph glyph-name="five.numr" horiz-adv-x="407" 
d="M87 339.5q-40 37.5 -51 88.5l103 13q3 -20 18 -36.5t46 -16.5q30 0 45.5 17t15.5 49q0 66 -60 66q-46 0 -62 -47l-98 20l28 242h273v-86h-185l-10 -71q17 10 33.5 16t43.5 6q66 0 103.5 -38.5t37.5 -103.5q0 -75 -48 -115.5t-120 -40.5q-73 0 -113 37.5z" />
    <glyph glyph-name="six.numr" horiz-adv-x="420" 
d="M84.5 356q-45.5 55 -45.5 164q0 112 48 167.5t132 55.5q71 0 110 -33.5t46 -75.5l-103 -24q-3 20 -17 35t-41 15q-37 0 -54 -31t-15 -85q33 42 96 42t102.5 -39.5t39.5 -99.5q0 -65 -48 -105.5t-122 -40.5q-83 0 -128.5 55zM261.5 400.5q16.5 16.5 16.5 43.5t-16.5 44
t-46.5 17q-29 0 -46 -14.5t-22 -32.5q0 -30 17.5 -52t51.5 -22q29 0 45.5 16.5z" />
    <glyph glyph-name="seven.numr" horiz-adv-x="373" 
d="M130 491.5q35 80.5 115 151.5h-212v92h307v-84q-69 -71 -104 -155t-44 -187h-105q8 102 43 182.5z" />
    <glyph glyph-name="eight.numr" horiz-adv-x="419" 
d="M82.5 339q-44.5 37 -44.5 96q0 77 74 111v1q-25 14 -40 37t-15 53q0 48 39 77t114 29t114.5 -29t39.5 -77q0 -30 -15.5 -53t-41.5 -36q35 -18 54.5 -44t19.5 -68q0 -62 -47 -98t-126 -36q-81 0 -125.5 37zM261.5 407.5q16.5 16.5 16.5 41.5q0 26 -17.5 43t-50.5 17
q-32 0 -50 -17t-18 -43q0 -25 17 -41.5t50 -16.5q36 0 52.5 16.5zM249 594q14 13 14 35q0 19 -13.5 31t-38.5 12q-27 0 -40.5 -12.5t-13.5 -32.5q0 -21 14 -33.5t39 -12.5t39 13z" />
    <glyph glyph-name="nine.numr" horiz-adv-x="421" 
d="M90.5 336q-39.5 34 -46.5 76l106 23q3 -21 17 -35.5t39 -14.5q36 0 53 30.5t16 84.5q-34 -41 -95 -41q-64 0 -103.5 39.5t-39.5 99.5q0 65 47 105t123 40q84 0 129.5 -55t45.5 -164q0 -112 -47.5 -167t-132.5 -55q-72 0 -111.5 34zM250 555q17 14 23 32q0 30 -17.5 51.5
t-50.5 21.5q-29 0 -45 -16.5t-16 -42.5q0 -27 15.5 -43.5t45.5 -16.5q28 0 45 14z" />
    <glyph glyph-name="colon.case" horiz-adv-x="325" 
d="M86 423.5q-29 30.5 -29 76.5q0 45 28.5 75.5t76.5 30.5t77 -30.5t29 -76.5q0 -45 -29 -75.5t-76 -30.5q-48 0 -77 30.5zM86 109q-29 30 -29 76q0 45 28.5 76t77.5 31q48 0 76.5 -30.5t28.5 -76.5q0 -45 -28.5 -75.5t-76.5 -30.5t-77 30z" />
    <glyph glyph-name="exclamdown.case" horiz-adv-x="325" 
d="M98 497h131q6 -256 22 -489h-177q17 244 24 489zM88 565.5q-31 31.5 -31 75.5t30.5 74.5t74.5 30.5t75 -31t31 -75t-31 -75t-75 -31q-43 0 -74 31.5z" />
    <glyph glyph-name="questiondown.case" horiz-adv-x="630" 
d="M174.5 11.5q-57.5 25.5 -87.5 72t-30 106.5q0 62 29 99t81 68q53 32 70.5 45.5t17.5 29.5q0 11 -7.5 25.5t-9.5 18.5l143 27q14 -15 25 -38t11 -50q0 -32 -14.5 -55t-39 -41t-70.5 -44q-37 -22 -54.5 -38t-17.5 -42q0 -30 24.5 -48t67.5 -18q55 0 80 29.5t25 68.5
l154 -20q-1 -54 -25.5 -104t-82 -83.5t-151.5 -33.5q-81 0 -138.5 25.5zM244.5 562.5q-32.5 31.5 -32.5 75.5q0 45 32 76.5t77 31.5q46 0 79 -31.5t33 -76.5q0 -44 -33 -75.5t-79 -31.5q-44 0 -76.5 31.5z" />
    <glyph glyph-name="slash.case" horiz-adv-x="473" 
d="M36 -76l268 860h133l-269 -860h-132z" />
    <glyph glyph-name="backslash.case" horiz-adv-x="488" 
d="M304 -76l-268 860h147l269 -860h-148z" />
    <glyph glyph-name="parenleft.case" horiz-adv-x="456" 
d="M125.5 64.5q-68.5 138.5 -68.5 291.5q0 100 31.5 196t93.5 175.5t148 129.5l65 -93q-93 -66 -148 -174.5t-55 -235.5q0 -87 26.5 -169t73.5 -146.5t105 -100.5l-65 -93q-138 81 -206.5 219.5z" />
    <glyph glyph-name="parenright.case" horiz-adv-x="455" 
d="M60 -55q92 66 147.5 174t55.5 235q0 87 -26.5 169t-73.5 146.5t-105 100.5l66 93q137 -82 205.5 -220t68.5 -290q0 -100 -31.5 -196t-93 -175t-148.5 -129z" />
    <glyph glyph-name="braceleft.case" horiz-adv-x="529" 
d="M340.5 -115.5q-45.5 9.5 -74 51.5t-34.5 137q-5 74 -15 113.5t-44 69.5t-106 47v119q72 17 106.5 48.5t44.5 72t14 112.5q6 92 39 135t79.5 52.5t129.5 9.5h10v-140h-10q-39 0 -60.5 -5t-35.5 -28.5t-17 -74.5q-4 -84 -11.5 -126.5t-31.5 -73t-76 -40.5q51 -10 76 -44.5
t32.5 -79.5t10.5 -115q2 -52 15.5 -75.5t34.5 -29t62 -5.5h11v-140h-11q-93 0 -138.5 9.5z" />
    <glyph glyph-name="braceright.case" horiz-adv-x="528" 
d="M39 16h10q39 0 60.5 5t35.5 28.5t17 74.5q4 84 11.5 126.5t31.5 72.5t75 40q-51 11 -76 45t-32 78t-10 116q-2 52 -15.5 75.5t-34.5 29t-62 5.5h-11v139h11q93 0 138 -9.5t73 -51t35 -136.5q5 -73 15 -112.5t44 -70.5t106 -47v-119q-72 -17 -106.5 -49t-44.5 -72.5
t-14 -112.5q-6 -92 -38.5 -134.5t-79 -52t-129.5 -9.5h-10v141z" />
    <glyph glyph-name="bracketleft.case" horiz-adv-x="362" 
d="M57 -131v960h247v-124h-118v-711h118v-125h-247z" />
    <glyph glyph-name="bracketright.case" horiz-adv-x="361" 
d="M57 -128v124h118v710h-118v124h247v-958h-247z" />
    <glyph glyph-name="hyphen.case" horiz-adv-x="492" 
d="M57 273v140h378v-140h-378z" />
    <glyph glyph-name="endash.case" horiz-adv-x="667" 
d="M57 271v142h553v-142h-553z" />
    <glyph glyph-name="emdash.case" horiz-adv-x="966" 
d="M57 270v144h852v-144h-852z" />
    <glyph glyph-name="guillemotleft.case" horiz-adv-x="573" 
d="M154 128l-106 203v13l106 193h149l-104 -198l104 -211h-149zM376 128l-105 203v13l105 193h149l-102 -198l102 -211h-149z" />
    <glyph glyph-name="guillemotright.case" horiz-adv-x="573" 
d="M47 128l103 211l-103 198h150l105 -193v-13l-105 -203h-150zM270 128l102 211l-102 198h149l105 -193v-13l-105 -203h-149z" />
    <glyph glyph-name="guilsinglleft.case" horiz-adv-x="350" 
d="M154 128l-106 203v13l106 193h149l-104 -198l104 -211h-149z" />
    <glyph glyph-name="guilsinglright.case" horiz-adv-x="350" 
d="M47 128l103 211l-103 198h150l105 -193v-13l-105 -203h-150z" />
    <glyph glyph-name="space.tf" 
 />
    <glyph glyph-name="space.tosf" 
 />
    <glyph glyph-name="cent.osf" horiz-adv-x="525" 
d="M211 -10q-78 18 -126 80t-48 167q0 85 33 142.5t87 84.5t117 27h4l8 58h71l-9 -69q59 -19 98 -67t47 -117l-132 -18q-6 44 -31 68l-32 -233q26 7 44 27.5t19 53.5l133 -6q-8 -96 -65.5 -149.5t-147.5 -55.5l-11 -79h-71zM261 365q-37 -4 -62.5 -36t-25.5 -92
q0 -46 15 -75t40 -42z" />
    <glyph glyph-name="dollar.osf" horiz-adv-x="561" 
d="M234 -13q-83 14 -130.5 61.5t-62.5 104.5l122 58q10 -48 42.5 -81.5t86.5 -33.5q39 0 63.5 19t24.5 53q0 29 -17 47t-39.5 27.5t-68.5 24.5q-90 29 -143 74t-53 129q0 76 47.5 126.5t127.5 60.5v72h112v-79q65 -18 104.5 -60.5t52.5 -89.5l-117 -50q-8 39 -34.5 69.5
t-72.5 30.5q-34 0 -57 -19t-23 -52q0 -28 16.5 -45t38 -26t78.5 -28q87 -30 138 -74.5t51 -128.5q0 -76 -47 -126t-128 -64v-77h-112v77z" />
    <glyph glyph-name="Euro.osf" horiz-adv-x="700" 
d="M250 41q-72 56 -98 167h-112v88h100q-1 10 -1 30v20h-79v87h89q25 115 97.5 173t166.5 58q110 0 172 -69.5t81 -166.5l-130 -34q-8 62 -38.5 108t-85.5 46q-44 0 -77 -29t-49 -86h210l-29 -87h-194v-19q0 -21 1 -31h199l-29 -88h-154q17 -53 50 -80t75 -27
q54 0 83.5 41.5t36.5 99.5l128 -27q-15 -92 -76 -161t-172 -69q-93 0 -165 56z" />
    <glyph glyph-name="sterling.osf" horiz-adv-x="628" 
d="M119 1q-30 14 -49.5 42.5t-19.5 70.5q0 56 33.5 89.5t78.5 33.5q38 0 63.5 -21t41.5 -49q3 14 3 33q0 44 -24 86h-145v102h88q-27 45 -27 97q0 57 30 97.5t78 61.5t100 21q81 0 131.5 -48t63.5 -134l-117 -29q-9 47 -27.5 72.5t-55.5 25.5q-36 0 -57.5 -22.5t-21.5 -58.5
q0 -39 35 -83h189v-102h-132q15 -39 15 -69q0 -59 -38 -108q9 -1 31 -1q47 0 66 18t20 65l121 -8q-7 -90 -50.5 -143t-133.5 -53q-79 0 -128 43q-45 -43 -101 -43q-31 0 -61 14zM229 98q-7 19 -20.5 35.5t-35.5 16.5q-15 0 -24 -8.5t-9 -23.5t13 -25t33 -10q26 0 43 15z" />
    <glyph glyph-name="yen.osf" horiz-adv-x="555" 
d="M215 0v86h-136v102h136v42h-141v104h90l-155 311h145l126 -281l126 281h139l-154 -311h91v-104h-141v-42h134v-102h-134v-86h-126z" />
    <glyph glyph-name="cent.tf" 
d="M247 -11q-86 19 -138.5 86.5t-52.5 182.5q0 92 36.5 154.5t95.5 92.5t128 30h6l9 63h77l-10 -75q65 -21 107 -72.5t52 -127.5l-143 -19q-7 48 -36 74l-35 -256q30 7 49.5 30t21.5 59l143 -7q-9 -103 -71.5 -161t-161.5 -61l-12 -87h-78zM304 399q-42 -4 -71.5 -39
t-29.5 -102q0 -52 17.5 -84t45.5 -45z" />
    <glyph glyph-name="dollar.tf" 
d="M253 -13q-93 14 -145.5 66.5t-69.5 113.5l133 62q10 -49 46 -87t99 -38q46 0 74.5 20.5t28.5 58.5q0 31 -19 50.5t-46 30.5t-76 27q-65 21 -111.5 46t-77.5 67.5t-31 105.5q0 83 53 138.5t142 66.5v79h122v-87q73 -18 116 -64.5t58 -97.5l-124 -54q-10 43 -40.5 75.5
t-82.5 32.5q-41 0 -67 -20.5t-26 -57.5q0 -28 16 -46t41.5 -29t73.5 -27l20 -7q65 -22 109 -47t72.5 -67t28.5 -104q0 -85 -52 -139.5t-143 -68.5v-84h-122v85z" />
    <glyph glyph-name="Euro.tf" 
d="M205.5 45q-68.5 61 -93.5 181h-100v96h89q-1 10 -1 32v23h-71v95h81q23 125 92 188t158 63q106 0 166 -75.5t77 -180.5l-134 -36q-6 67 -33 117t-76 50q-38 0 -66.5 -31.5t-42.5 -94.5h183l-31 -95h-163v-22q0 -22 1 -33h175l-31 -96h-131q15 -58 43 -87.5t66 -29.5
q48 0 73.5 46t31.5 107l132 -29q-15 -99 -72.5 -174t-165.5 -75q-88 0 -156.5 61z" />
    <glyph glyph-name="sterling.tf" 
d="M103 1q-31 15 -51 46.5t-20 76.5q0 59 33.5 96t81.5 37q38 0 64.5 -22.5t43.5 -52.5q3 15 3 35q0 46 -25 94h-149v111h92q-29 51 -29 106q0 61 31 105.5t80.5 67.5t102.5 23q83 0 135 -52t66 -146l-123 -31q-9 50 -28 78.5t-56 28.5q-35 0 -56.5 -24.5t-21.5 -62.5
q0 -25 9.5 -47t26.5 -46h193v-111h-135q15 -41 15 -76q0 -66 -40 -117q18 -2 30 -2q49 0 68.5 20t20.5 71l126 -9q-7 -97 -52 -154.5t-137 -57.5q-81 0 -133 46q-46 -46 -104 -46q-31 0 -62 15zM216 105q-20 58 -58 58q-14 0 -23.5 -9.5t-9.5 -25.5q0 -17 13.5 -28t34.5 -11
q25 0 43 16z" />
    <glyph glyph-name="yen.tf" 
d="M236 0v95h-154v109h154v47h-161v112h104l-176 339h158l146 -307l146 307h153l-175 -339h102v-112h-159v-47h152v-109h-152v-95h-138z" />
    <glyph glyph-name="cent.tosf" 
d="M251 -10q-79 17 -128 79t-49 168q0 86 33.5 143t88 84.5t118.5 27.5h7l8 58h71l-10 -70q61 -19 100 -67t48 -116l-133 -18q-6 46 -33 68l-32 -234q27 7 45.5 27.5t19.5 53.5l133 -6q-8 -96 -66.5 -149.5t-149.5 -55.5l-11 -79h-72zM303 366q-39 -3 -66 -35.5t-27 -93.5
q0 -48 16.5 -77t42.5 -41z" />
    <glyph glyph-name="dollar.tosf" 
d="M257 -13q-83 14 -131.5 61.5t-64.5 104.5l124 58q9 -45 41 -80t89 -35q40 0 65 19t25 53q0 29 -17 47t-40.5 27.5t-69.5 24.5q-91 30 -144.5 74.5t-53.5 129.5q0 75 48.5 126t128.5 61v72h112v-79q66 -17 105.5 -59.5t53.5 -90.5l-117 -50q-9 40 -36 70t-73 30
q-35 0 -58 -19t-23 -52q0 -26 14.5 -43t36.5 -27t61 -23q7 -2 12 -4t10 -3q89 -31 140 -75t51 -127q0 -77 -47 -127t-130 -64v-77h-112v77z" />
    <glyph glyph-name="Euro.tosf" 
d="M211.5 41q-65.5 56 -89.5 167h-98v88h87q-1 10 -1 31v20h-69v87h78q23 115 89 173t151 58q101 0 158 -69.5t74 -166.5l-127 -34q-7 63 -33 108.5t-73 45.5q-37 0 -64.5 -29t-41.5 -86h178l-29 -87h-160v-20q0 -21 1 -31h170l-29 -88h-128q15 -53 42.5 -80t63.5 -27
q46 0 71 42t31 99l125 -27q-15 -93 -71 -161.5t-157 -68.5q-83 0 -148.5 56z" />
    <glyph glyph-name="sterling.tosf" 
d="M112.5 1q-29.5 14 -48.5 43t-19 71q0 56 32.5 89t76.5 33q64 0 103 -69q3 14 3 32q0 42 -23 86h-142v103h87q-27 45 -27 97q0 57 29.5 97.5t76 61.5t97.5 21q79 0 129 -47.5t62 -134.5l-116 -29q-8 47 -26.5 72.5t-53.5 25.5q-34 0 -54.5 -22.5t-20.5 -58.5q0 -37 33 -83
h185v-103h-129q15 -35 15 -69q0 -59 -38 -108q9 -1 29 -1q46 0 65 18t19 65l120 -8q-6 -88 -48 -142t-132 -54q-77 0 -126 43q-43 -43 -98 -43q-31 0 -60.5 14zM220 98q-21 52 -55 52q-14 0 -23 -8.5t-9 -23.5t13 -25t33 -10q22 0 41 15z" />
    <glyph glyph-name="yen.tosf" 
d="M241 0v86h-145v102h145v42h-151v104h97l-165 312h147l137 -282l137 282h141l-162 -312h96v-104h-149v-42h142v-102h-142v-86h-128z" />
    <glyph glyph-name="arrowup.case" horiz-adv-x="676" 
d="M281 51v451l-149 -151l-70 76l254 242h45l254 -242l-71 -76l-147 149v-449h-116z" />
    <glyph glyph-name="uni2197.case" horiz-adv-x="632" 
d="M141 80l-82 81l320 319l-213 -1l4 103l351 -8l16 -15l16 -16l8 -352l-103 -4l1 211z" />
    <glyph glyph-name="arrowright.case" horiz-adv-x="747" 
d="M433 83l-76 70l149 148h-449v115h451l-151 150l76 70l243 -254v-45z" />
    <glyph glyph-name="uni2198.case" horiz-adv-x="633" 
d="M171 137l-4 103l210 -1l-318 318l82 81l319 -319l-1 213l103 -4l-8 -351l-16 -17v1l-16 -16z" />
    <glyph glyph-name="arrowdown.case" horiz-adv-x="676" 
d="M316 55l-254 243l70 76l148 -150v450h115v-451l149 151l71 -76l-254 -243h-45z" />
    <glyph glyph-name="uni2199.case" horiz-adv-x="632" 
d="M462 139l-351 8l-17 16l1 1l-16 15l-8 351l103 4l-1 -210l318 318l81 -82l-318 -318l212 1z" />
    <glyph glyph-name="arrowleft.case" horiz-adv-x="747" 
d="M314 86l-243 254v45l243 254l75 -70l-149 -148h449v-115h-451l151 -150z" />
    <glyph glyph-name="uni2196.case" horiz-adv-x="633" 
d="M492 80l-319 319l1 -212l-103 4l7 351l32 32l351 8l5 -104l-210 1l317 -317z" />
    <glyph glyph-name="at.case" horiz-adv-x="818" 
d="M232 21.5q-89 43.5 -141 128.5t-52 205t52 206.5t139 131.5t191 45q103 0 184.5 -43t127.5 -119.5t46 -172.5q0 -73 -26.5 -127.5t-72.5 -83.5t-103 -29q-39 0 -63 15.5t-34 52.5h-2q-14 -31 -43.5 -48.5t-61.5 -17.5q-36 0 -72.5 21.5t-61 66.5t-24.5 110q0 64 24 108
t60.5 65.5t73.5 21.5q32 0 57.5 -15.5t42.5 -39.5h2v45h110v-280h14q26 0 43 31.5t17 94.5q0 109 -57 175t-172 66q-79 0 -140.5 -32.5t-96 -95t-34.5 -148.5q0 -87 34.5 -149.5t96.5 -95.5t142 -33q22 0 43.5 2t28.5 3l13 -98q-35 -10 -85 -10q-111 0 -200 43.5zM460 296.5
q18 25.5 18 68.5q0 42 -18.5 68t-54.5 26q-34 0 -52.5 -24t-18.5 -69q0 -46 18.5 -70.5t53.5 -24.5q36 0 54 25.5z" />
    <glyph glyph-name="bar.case" horiz-adv-x="249" 
d="M57 -102v933h135v-933h-135z" />
    <glyph glyph-name="nobreakspace" horiz-adv-x="277" 
 />
    </font>
</defs>
</svg>
