<?xml version="1.0" standalone="no"?>
<!DOCTYPE svg PUBLIC "-//W3C//DTD SVG 1.1//EN" "http://www.w3.org/Graphics/SVG/1.1/DTD/svg11.dtd" >
<svg xmlns="http://www.w3.org/2000/svg" xmlns:xlink="http://www.w3.org/1999/xlink" version="1.1">
<metadata>
Created by FontForge 20170731 at Sun Aug 23 11:09:35 2020
 By Aleksey,,,
Copyright (c) 2020 by BumBumType. All rights reserved.
</metadata>
<defs>
<font id="AlbraGrotesk-Regular" horiz-adv-x="585" >
  <font-face 
    font-family="Albra Grotesk"
    font-weight="400"
    font-stretch="normal"
    units-per-em="1000"
    panose-1="0 0 5 0 0 0 0 0 0 0"
    ascent="760"
    descent="-240"
    x-height="478"
    cap-height="715"
    bbox="-138 -220 1176 1117"
    underline-thickness="82"
    underline-position="-192"
    unicode-range="U+000D-1F10C"
  />
<missing-glyph horiz-adv-x="601" 
d="M72 0v715h457v-715h-457zM135 60h332v595h-332v-595z" />
    <glyph glyph-name="f_i" unicode="fi" horiz-adv-x="568" 
d="M127 408h-97v70h97v104q0 49 22.5 98t101.5 49q39 0 76 -11l-14 -73q-34 9 -54 9q-28 0 -37.5 -17t-9.5 -54v-105h299v-478h-85v408h-214v-408h-85v408zM425 580q-17 17 -17 42t17 42t44 17q26 0 43 -17t17 -42t-17 -42t-43 -17q-27 0 -44 17z" />
    <glyph glyph-name="f_l" unicode="fl" horiz-adv-x="578" 
d="M127 408h-97v70h97v98q0 153 135 153q43 0 78 -13l-15 -71q-31 9 -57 9q-32 0 -44 -17t-12 -45v-114h119v-70h-119v-408h-85v408zM436 0v715h85v-715h-85z" />
    <glyph glyph-name=".notdef" horiz-adv-x="601" 
d="M72 0v715h457v-715h-457zM135 60h332v595h-332v-595z" />
    <glyph glyph-name=".null" horiz-adv-x="0" 
 />
    <glyph glyph-name="nonmarkingreturn" unicode="&#xd;" horiz-adv-x="280" 
 />
    <glyph glyph-name="space" unicode=" " horiz-adv-x="280" 
 />
    <glyph glyph-name="exclam" unicode="!" horiz-adv-x="276" 
d="M93 725h89q-9 -319 -10 -545h-69q-1 226 -10 545zM91.5 8.5q-19.5 19.5 -19.5 47.5q0 27 19.5 46.5t47.5 19.5q27 0 46 -19.5t19 -46.5q0 -28 -19 -47.5t-46 -19.5q-28 0 -47.5 19.5z" />
    <glyph glyph-name="quotedbl" unicode="&#x22;" horiz-adv-x="372" 
d="M84 477l-10 248h84l-11 -248h-63zM224 477l-10 248h84l-11 -248h-63z" />
    <glyph glyph-name="numbersign" unicode="#" horiz-adv-x="778" 
d="M150 0l46 198h-124v73h141l34 146h-124v75h142l52 223h72l-52 -223h174l52 223h73l-53 -223h123v-75h-140l-35 -146h120v-73h-137l-47 -198h-71l46 198h-174l-47 -198h-71zM285 271h174l34 146h-174z" />
    <glyph glyph-name="dollar" unicode="$" horiz-adv-x="602" 
d="M264 -13q-89 11 -140.5 60.5t-67.5 107.5l83 41q11 -52 52.5 -92.5t118.5 -40.5q66 0 107.5 31t41.5 86q0 39 -22 64t-54 39t-89 32q-69 22 -114.5 43.5t-77 61.5t-31.5 102q0 81 53.5 132t139.5 59v86h74v-88q79 -11 123 -52t58 -89l-76 -42q-12 44 -50 76t-102 32
q-58 0 -95 -28t-37 -79q0 -36 19 -59t48.5 -36.5t80.5 -30.5q11 -3 25 -8q70 -24 115 -49t72 -64t27 -97q0 -86 -56.5 -138.5t-151.5 -60.5v-91h-74v92z" />
    <glyph glyph-name="percent" unicode="%" horiz-adv-x="964" 
d="M256 20l-63 37l515 641l63 -37zM159.5 371.5q-43.5 25.5 -68.5 69.5t-25 95t25 94t68.5 68.5t95.5 25.5q53 0 96 -26t67.5 -69t24.5 -93t-24.5 -93.5t-67.5 -70t-96 -26.5q-52 0 -95.5 25.5zM328.5 455.5q29.5 32.5 29.5 79.5t-29.5 79t-73.5 32t-74 -31.5t-30 -79.5
t30 -80t74 -32t73.5 32.5zM614.5 10.5q-43.5 25.5 -68.5 69.5t-25 95t25 94t68.5 68.5t95.5 25.5q53 0 96 -26t67.5 -69t24.5 -93t-24.5 -93.5t-67.5 -70t-96 -26.5q-52 0 -95.5 25.5zM783.5 94.5q29.5 32.5 29.5 79.5t-29.5 79t-73.5 32t-74 -31.5t-30 -79.5t30 -80t74 -32
t73.5 32.5z" />
    <glyph glyph-name="ampersand" unicode="&#x26;" horiz-adv-x="787" 
d="M185 8.5q-53 23.5 -83 65.5t-30 95q0 74 53 126.5t126 85.5q-6 7 -34.5 40t-43.5 67.5t-15 69.5q0 47 25 86.5t69 62.5t99 23q51 0 93.5 -20.5t67.5 -57.5t25 -83t-24.5 -83.5t-57.5 -63t-79 -53.5l158 -163q46 87 43 210l81 -9q-6 -154 -69 -258l143 -149h-109l-83 86
q-47 -50 -108 -75.5t-129 -25.5q-65 0 -118 23.5zM407.5 82.5q44.5 19.5 80.5 57.5l-187 194q-66 -34 -100.5 -69.5t-34.5 -82.5q0 -55 42 -87t106 -32q49 0 93.5 19.5zM357 431q49 34 74.5 61.5t25.5 67.5q0 42 -30 70.5t-77 28.5t-77.5 -27.5t-30.5 -70.5q0 -34 18 -61.5
t55 -66.5l18 -19z" />
    <glyph glyph-name="quotesingle" unicode="'" horiz-adv-x="232" 
d="M84 477l-10 248h84l-11 -248h-63z" />
    <glyph glyph-name="parenleft" unicode="(" horiz-adv-x="384" 
d="M133.5 38q-61.5 131 -61.5 269q0 92 29.5 183.5t82.5 168t121 124.5l43 -51q-87 -75 -141.5 -188.5t-54.5 -233.5q0 -129 56 -245.5t141 -184.5l-42 -51q-112 78 -173.5 209z" />
    <glyph glyph-name="parenright" unicode=")" horiz-adv-x="387" 
d="M39 -117q87 75 141.5 188.5t54.5 233.5q0 129 -56 245.5t-141 184.5l42 51q112 -78 173.5 -209t61.5 -269q0 -92 -29.5 -183.5t-82.5 -168t-121 -124.5z" />
    <glyph glyph-name="asterisk" unicode="*" horiz-adv-x="570" 
d="M186 317l-53 39l107 140l-168 49l20 63l165 -58l-5 175h66l-4 -176l164 58l20 -63l-165 -49l104 -136l-53 -39l-98 142z" />
    <glyph glyph-name="plus" unicode="+" horiz-adv-x="623" 
d="M276 54v224h-214v69h214v216h72v-216h213v-69h-213v-224h-72z" />
    <glyph glyph-name="comma" unicode="," horiz-adv-x="244" 
d="M69 -96l2 52q25 0 37 11t15 34q-27 3 -43.5 20t-16.5 39q0 26 18 44.5t46 18.5q30 0 45 -22.5t15 -61.5q0 -55 -26.5 -95.5t-75.5 -40.5q-9 0 -16 1z" />
    <glyph glyph-name="hyphen" unicode="-" horiz-adv-x="502" 
d="M72 224v82h358v-82h-358z" />
    <glyph glyph-name="period" unicode="." horiz-adv-x="273" 
d="M91.5 8.5q-18.5 19.5 -18.5 47.5t18.5 47.5t48.5 19.5q29 0 47.5 -19.5t18.5 -47.5t-18.5 -47.5t-47.5 -19.5q-30 0 -48.5 19.5z" />
    <glyph glyph-name="slash" unicode="/" horiz-adv-x="479" 
d="M52 -105l296 878h79l-296 -878h-79z" />
    <glyph glyph-name="zero" unicode="0" horiz-adv-x="610" 
d="M117.5 81.5q-65.5 96.5 -65.5 267.5q0 115 30 198.5t87 128t136 44.5t135.5 -44t87 -127.5t30.5 -199.5q0 -171 -65.5 -267.5t-187.5 -96.5t-187.5 96.5zM430.5 134q42.5 75 42.5 217q0 141 -43 218t-125 77q-80 0 -124 -75t-44 -221q0 -142 42.5 -216.5t125.5 -74.5
t125.5 75z" />
    <glyph glyph-name="one" unicode="1" horiz-adv-x="423" 
d="M214 580q-35 -68 -128 -68h-34v76h18q62 0 101.5 34t44.5 88h82v-710h-84v580z" />
    <glyph glyph-name="two" unicode="2" horiz-adv-x="564" 
d="M65 68q123 99 199 173t116 141.5t40 132.5q0 60 -33.5 96.5t-98.5 36.5q-79 0 -115.5 -52t-38.5 -124l-82 21q6 57 31 108.5t76.5 85t128.5 33.5q67 0 116.5 -26t75 -72t25.5 -104q0 -77 -42.5 -149.5t-106 -136t-165.5 -149.5h319v-83h-445v68z" />
    <glyph glyph-name="three" unicode="3" horiz-adv-x="603" 
d="M157.5 16q-54.5 31 -82 77.5t-33.5 97.5l94 8q3 -55 42.5 -97.5t125.5 -42.5q75 0 119.5 36.5t44.5 98.5q0 71 -57.5 111t-158.5 39v70q83 1 131.5 36t48.5 88q0 45 -35 76.5t-101 31.5q-53 0 -86 -20.5t-46.5 -51t-12.5 -62.5l-84 8q1 50 24 95.5t74 75t129 29.5
q70 0 120.5 -24t76.5 -64t26 -88q0 -59 -36.5 -103t-90.5 -54v-2q68 -13 115.5 -59.5t47.5 -126.5q0 -64 -33 -112.5t-91.5 -75t-133.5 -26.5q-83 0 -137.5 31z" />
    <glyph glyph-name="four" unicode="4" horiz-adv-x="601" 
d="M370 0v161h-342v69l330 480h97v-472h108v-77h-108v-161h-85zM115 238h256v362h-1z" />
    <glyph glyph-name="five" unicode="5" horiz-adv-x="608" 
d="M166.5 15q-53.5 30 -82.5 73.5t-38 88.5l91 10q11 -52 51 -90t110 -38q79 0 126 48t47 128q0 75 -42.5 121.5t-120.5 46.5q-58 0 -93.5 -23t-62.5 -56l-80 22l42 364h403v-82h-333l-27 -217q69 67 164 67q65 0 119 -30t85 -85t31 -125q0 -71 -31.5 -128.5t-90.5 -91
t-138 -33.5q-76 0 -129.5 30z" />
    <glyph glyph-name="six" unicode="6" horiz-adv-x="606" 
d="M124 70.5q-70 85.5 -70 266.5q0 124 33.5 210t93 129.5t137.5 43.5q85 0 140 -46t77 -109l-82 -33q-11 46 -45.5 80t-92.5 34t-98.5 -38.5t-60 -105.5t-16.5 -152q26 38 72.5 61.5t110.5 23.5q69 0 122 -28.5t82 -79t29 -114.5q0 -67 -32.5 -119t-89 -80.5t-125.5 -28.5
q-115 0 -185 85.5zM424 100q42 41 42 110q0 68 -43 110.5t-116 42.5q-69 0 -110 -34.5t-52 -80.5q0 -89 47.5 -139t121.5 -50q68 0 110 41z" />
    <glyph glyph-name="seven" unicode="7" horiz-adv-x="525" 
d="M208.5 332.5q70.5 155.5 206.5 296.5h-379v81h453v-82q-130 -150 -200 -303.5t-85 -324.5h-88q22 177 92.5 332.5z" />
    <glyph glyph-name="eight" unicode="8" horiz-adv-x="604" 
d="M164 13.5q-57 28.5 -86.5 77t-29.5 106.5q0 70 39.5 118t98.5 75v1q-44 19 -76 57.5t-32 95.5q0 51 27.5 91t78.5 62.5t118 22.5q69 0 119.5 -23t77.5 -62.5t27 -88.5q0 -57 -32.5 -94.5t-76.5 -55.5v-1q55 -24 96 -74.5t41 -120.5q0 -58 -30 -107t-87.5 -78.5
t-137.5 -29.5q-78 0 -135 28.5zM423.5 102q45.5 41 45.5 104q0 41 -20.5 74.5t-58 53.5t-88.5 20t-89.5 -20t-59 -53.5t-20.5 -73.5q0 -39 19.5 -72.5t57.5 -53.5t91 -20q77 0 122.5 41zM404 459q37 32 37 83q0 52 -38 80.5t-102 28.5q-65 0 -101.5 -29.5t-36.5 -77.5
q0 -54 38.5 -85.5t101.5 -31.5q64 0 101 32z" />
    <glyph glyph-name="nine" unicode="9" horiz-adv-x="606" 
d="M148 31q-55 46 -77 109l82 33q11 -46 45.5 -80t92.5 -34t98.5 38.5t60 105.5t16.5 152q-26 -38 -72.5 -61.5t-110.5 -23.5q-69 0 -122 28.5t-82 79t-29 114.5q0 67 32.5 119t89 80.5t125.5 28.5q115 0 185 -85.5t70 -266.5q0 -124 -33.5 -210t-93 -129.5t-137.5 -43.5
q-85 0 -140 46zM409 376.5q41 34.5 52 80.5q0 89 -47.5 139t-121.5 50q-68 0 -110 -41t-42 -110q0 -68 43 -110.5t116 -42.5q69 0 110 34.5z" />
    <glyph glyph-name="colon" unicode=":" horiz-adv-x="273" 
d="M91.5 8.5q-18.5 19.5 -18.5 47.5t18.5 47.5t48.5 19.5q29 0 47.5 -19.5t18.5 -47.5t-18.5 -47.5t-47.5 -19.5q-30 0 -48.5 19.5zM91.5 370.5q-18.5 19.5 -18.5 47.5t18.5 47.5t48.5 19.5q29 0 47.5 -19.5t18.5 -47.5t-18.5 -47.5t-47.5 -19.5q-30 0 -48.5 19.5z" />
    <glyph glyph-name="semicolon" unicode=";" horiz-adv-x="273" 
d="M79 -96l2 52q25 0 37 11t15 34q-27 3 -43.5 20t-16.5 39q0 26 18 44.5t46 18.5q30 0 45 -22.5t15 -61.5q0 -55 -26.5 -95.5t-75.5 -40.5q-9 0 -16 1zM91.5 370.5q-18.5 19.5 -18.5 47.5t18.5 47.5t48.5 19.5q29 0 47.5 -19.5t18.5 -47.5t-18.5 -47.5t-47.5 -19.5
q-30 0 -48.5 19.5z" />
    <glyph glyph-name="less" unicode="&#x3c;" horiz-adv-x="548" 
d="M486 49l-424 227v81l424 228v-77l-354 -190l354 -194v-75z" />
    <glyph glyph-name="equal" unicode="=" horiz-adv-x="568" 
d="M62 371v70h444v-70h-444zM62 180v70h444v-70h-444z" />
    <glyph glyph-name="greater" unicode="&#x3e;" horiz-adv-x="548" 
d="M62 40v76l352 198l-352 194v77l424 -232v-82z" />
    <glyph glyph-name="question" unicode="?" horiz-adv-x="584" 
d="M240.5 234.5q-11.5 22.5 -11.5 53.5q0 37 24 67.5t87 79.5q29 23 45.5 38t29 37t12.5 50q0 47 -35 78.5t-97 31.5q-74 0 -107 -41t-34 -97l-90 16q4 80 58 138.5t171 58.5q71 0 122.5 -24t78 -66t26.5 -95q0 -43 -16.5 -76t-38.5 -54.5t-58 -49.5q-55 -43 -72.5 -61
t-17.5 -36q0 -11 5 -22t12.5 -22.5t11.5 -18.5l-76 -31q-18 23 -29.5 45.5zM242 8.5q-20 19.5 -20 47.5t20 47.5t49 19.5q28 0 48.5 -19.5t20.5 -47.5t-20.5 -47.5t-48.5 -19.5q-29 0 -49 19.5z" />
    <glyph glyph-name="at" unicode="@" horiz-adv-x="820" 
d="M237 -81.5q-85 42.5 -135 126.5t-50 205q0 120 50 207.5t134.5 133t186.5 45.5q99 0 177.5 -42.5t123 -119.5t44.5 -176q0 -67 -20 -122.5t-58 -88.5t-90 -33q-38 0 -56.5 20t-22.5 60h-2q-17 -35 -53.5 -55.5t-75.5 -20.5q-41 0 -80.5 22t-65 67.5t-25.5 111.5t25.5 112
t65.5 68.5t82 22.5q40 0 73.5 -20.5t50.5 -50.5h2v60h68v-330h26q36 0 57.5 48.5t21.5 121.5q0 129 -70 203.5t-194 74.5q-85 0 -152.5 -36t-106.5 -107t-39 -171t39 -170.5t107 -106t154 -35.5q39 0 76 8l9 -64q-42 -11 -88 -11q-104 0 -189 42.5zM490.5 163.5
q31.5 40.5 31.5 96.5t-31.5 96.5t-90.5 40.5q-54 0 -83 -36t-29 -102q0 -67 29.5 -101.5t82.5 -34.5q59 0 90.5 40.5z" />
    <glyph glyph-name="A" unicode="A" horiz-adv-x="688" 
d="M28 0l259 715h113l260 -715h-93l-70 194h-308l-70 -194h-91zM219 278h248l-124 342h-1z" />
    <glyph glyph-name="B" unicode="B" horiz-adv-x="614" 
d="M72 715h278q59 0 103.5 -23.5t68.5 -64.5t24 -91q0 -56 -28 -96.5t-71 -57.5v-2q57 -17 91.5 -64.5t34.5 -116.5q0 -90 -58 -144.5t-157 -54.5h-286v715zM366 82q53 0 84.5 34t31.5 91t-31.5 92.5t-88.5 35.5h-202v-253h206zM347 410q48 0 78 29.5t30 80.5t-28.5 82.5
t-75.5 31.5h-191v-224h187z" />
    <glyph glyph-name="C" unicode="C" horiz-adv-x="707" 
d="M206 28.5q-75 43.5 -118.5 128t-43.5 202.5q0 119 44 203t117.5 126t161.5 42q119 0 189 -68t95 -158l-91 -32q-19 74 -67 125.5t-131 51.5q-63 0 -114.5 -33t-81.5 -98.5t-30 -157.5q0 -94 31 -160t84 -100t120 -34q86 0 131 48t55 110l91 -17q-12 -57 -44 -107
t-90 -82.5t-140 -32.5q-93 0 -168 43.5z" />
    <glyph glyph-name="D" unicode="D" horiz-adv-x="658" 
d="M72 715h220q106 0 178.5 -45t108 -125.5t35.5 -185.5q0 -109 -37.5 -190t-110 -125t-174.5 -44h-220v715zM293 82q113 0 172.5 72.5t59.5 202.5q0 131 -59.5 203.5t-172.5 72.5h-133v-551h133z" />
    <glyph glyph-name="E" unicode="E" horiz-adv-x="592" 
d="M72 0v715h462v-82h-374v-227h332v-81h-332v-243h374v-82h-462z" />
    <glyph glyph-name="F" unicode="F" 
d="M72 0v715h473v-85h-382v-223h336v-85h-336v-322h-91z" />
    <glyph glyph-name="G" unicode="G" horiz-adv-x="745" 
d="M220.5 20.5q-73.5 35.5 -125 119t-51.5 217.5q0 130 49.5 213.5t125 121.5t157.5 38q108 0 176.5 -60t97.5 -142l-90 -34q-21 63 -69 109t-124 46q-56 0 -108.5 -28.5t-87.5 -93.5t-35 -168q0 -102 35 -168t89.5 -95.5t115.5 -29.5q62 0 110 29t74.5 78t26.5 106v16h-224
v76h310v-371h-68l-6 160h-2q-4 -36 -35 -77t-83 -69.5t-116 -28.5q-69 0 -142.5 35.5z" />
    <glyph glyph-name="H" unicode="H" horiz-adv-x="692" 
d="M72 0v715h88v-307h372v307h88v-715h-88v326h-372v-326h-88z" />
    <glyph glyph-name="I" unicode="I" horiz-adv-x="232" 
d="M72 0v715h88v-715h-88z" />
    <glyph glyph-name="J" unicode="J" horiz-adv-x="572" 
d="M157.5 17q-51.5 32 -76 80.5t-28.5 100.5l90 16q5 -62 39.5 -105t111.5 -43q62 0 92 31.5t30 89.5v528h88v-513q0 -104 -56 -160.5t-159 -56.5q-80 0 -131.5 32z" />
    <glyph glyph-name="K" unicode="K" horiz-adv-x="637" 
d="M72 0v715h88v-379l324 379h111l-291 -331l312 -384h-113l-258 317l-85 -96v-221h-88z" />
    <glyph glyph-name="L" unicode="L" horiz-adv-x="561" 
d="M72 0v715h88v-629h351v-86h-439z" />
    <glyph glyph-name="M" unicode="M" horiz-adv-x="835" 
d="M72 0v715h105l246 -391l238 391h102v-715h-87v589h-2l-243 -394h-27l-243 394h-2v-589h-87z" />
    <glyph glyph-name="N" unicode="N" horiz-adv-x="698" 
d="M72 0v715h96l370 -578h1v578h87v-715h-96l-370 580h-1v-580h-87z" />
    <glyph glyph-name="O" unicode="O" horiz-adv-x="736" 
d="M214 23.5q-74 38.5 -122 123t-48 212.5q0 129 48.5 212.5t123 121t155.5 37.5t154 -38t120 -121t47 -210q0 -128 -48 -212.5t-122 -124t-154 -39.5t-154 38.5zM484.5 97q51.5 31 83.5 97t32 167q0 100 -32 164.5t-84 94t-113 29.5q-62 0 -115.5 -29.5t-86.5 -94
t-33 -164.5q0 -101 33.5 -167t87.5 -97t115 -31t112.5 31z" />
    <glyph glyph-name="P" unicode="P" horiz-adv-x="601" 
d="M72 715h258q77 0 131.5 -28.5t82.5 -78t28 -112.5q0 -62 -28 -113.5t-85 -82t-139 -30.5h-160v-270h-88v715zM334 351q69 0 108.5 37.5t39.5 106.5q0 66 -39.5 102t-109.5 36h-173v-282h174z" />
    <glyph glyph-name="Q" unicode="Q" horiz-adv-x="736" 
d="M491 -69q-39 18 -66 59q-30 -5 -57 -5q-80 0 -154 39t-122 123t-48 212q0 129 48.5 212.5t123 121t155.5 37.5t154 -38t120 -121t47 -210q0 -141 -57.5 -229.5t-147.5 -124.5v-1q38 -15 126 -15h63l-5 -78h-82q-59 0 -98 18zM484.5 97q51.5 31 83.5 97t32 167
q0 100 -32 164.5t-84 94t-113 29.5q-62 0 -115.5 -29.5t-86.5 -94t-33 -164.5q0 -101 33.5 -167t87.5 -97t115 -31t112.5 31z" />
    <glyph glyph-name="R" unicode="R" horiz-adv-x="640" 
d="M72 715h270q110 0 170 -52t60 -146q0 -96 -55.5 -147t-135.5 -66l203 -302v-2h-105l-194 295h-125v-295h-88v715zM311 372q73 0 120 31t47 107q0 80 -44 102t-97 22h-177v-262h151z" />
    <glyph glyph-name="S" unicode="S" horiz-adv-x="604" 
d="M131 36.5q-65 51.5 -85 122.5l87 42q12 -56 56 -95.5t122 -39.5q69 0 112 31t43 87q0 40 -22.5 65t-56 39t-94.5 33q-71 22 -118.5 44.5t-80 63.5t-32.5 104q0 60 29.5 104.5t82.5 68.5t121 24q69 0 118.5 -23t78 -57t37.5 -68l-80 -43q-12 44 -51 77t-107 33
q-61 0 -99 -28t-38 -80q0 -38 21 -61.5t52.5 -37.5t85.5 -31q6 -3 20 -7q72 -24 119.5 -49.5t76.5 -65.5t29 -100q0 -63 -31.5 -109t-88 -70.5t-130.5 -24.5q-112 0 -177 51.5z" />
    <glyph glyph-name="T" unicode="T" horiz-adv-x="630" 
d="M271 0v633h-239v82h566v-82h-239v-633h-88z" />
    <glyph glyph-name="U" unicode="U" horiz-adv-x="677" 
d="M201.5 14q-59.5 29 -94.5 84t-35 130v487h88v-466q0 -94 50.5 -138.5t129.5 -44.5q77 0 127 44.5t50 138.5v466h88v-487q0 -74 -37 -129.5t-98.5 -84.5t-134.5 -29q-74 0 -133.5 29z" />
    <glyph glyph-name="V" unicode="V" horiz-adv-x="668" 
d="M278 0l-254 715h92l218 -611h1l218 611h91l-254 -715h-112z" />
    <glyph glyph-name="W" unicode="W" horiz-adv-x="1009" 
d="M244 0l-216 715h92l171 -578h2l172 578h78l173 -576h2l171 576h92l-216 -715h-91l-168 581h-3l-169 -581h-90z" />
    <glyph glyph-name="X" unicode="X" horiz-adv-x="685" 
d="M32 0l258 359l-247 356h102l201 -290l196 290h103l-251 -357l259 -358h-105l-208 294l-206 -294h-102z" />
    <glyph glyph-name="Y" unicode="Y" horiz-adv-x="649" 
d="M280 0v284l-262 431h100l210 -350l208 350h95l-263 -431v-284h-88z" />
    <glyph glyph-name="Z" unicode="Z" horiz-adv-x="617" 
d="M53 0v74l393 559h-381v82h485v-74l-396 -559h410v-82h-511z" />
    <glyph glyph-name="bracketleft" unicode="[" horiz-adv-x="310" 
d="M72 -130v892h195v-77h-118v-738h118v-77h-195z" />
    <glyph glyph-name="backslash" unicode="\" horiz-adv-x="484" 
d="M348 -105l-296 878h84l296 -878h-84z" />
    <glyph glyph-name="bracketright" unicode="]" horiz-adv-x="310" 
d="M43 -130v77h118v738h-118v77h195v-892h-195z" />
    <glyph glyph-name="asciicircum" unicode="^" horiz-adv-x="633" 
d="M62 370l213 345h83l213 -345h-89l-165 270l-166 -270h-89z" />
    <glyph glyph-name="underscore" unicode="_" horiz-adv-x="444" 
d="M0 -132v79h444v-79h-444z" />
    <glyph glyph-name="grave" unicode="`" horiz-adv-x="365" 
d="M202 582l-118 143h108l89 -143h-79z" />
    <glyph glyph-name="a" unicode="a" horiz-adv-x="540" 
d="M98 23q-45 37 -45 102q0 59 37.5 93t87.5 48.5t120 25.5q39 6 55.5 10t23.5 12t7 24q0 38 -30 61.5t-77 23.5q-53 0 -84.5 -27t-43.5 -62l-73 39q18 49 68 84.5t133 35.5q87 0 139 -45t49 -135l-6 -209q-2 -52 43 -47v-68l-19 -2q-59 0 -80 26.5t-21 86.5h-1
q-16 -51 -57.5 -82.5t-108.5 -31.5q-72 0 -117 37zM305.5 79q36.5 23 56.5 58.5t21 73.5l1 47q-16 -19 -61 -27q-76 -15 -110.5 -24.5t-54.5 -27.5t-20 -51q0 -35 21 -53.5t62 -18.5q48 0 84.5 23z" />
    <glyph glyph-name="b" unicode="b" horiz-adv-x="549" 
d="M208.5 11.5q-39.5 25.5 -59.5 63.5h-1v-75h-85v715h85v-313h1q20 37 62.5 64t95.5 27q51 0 98 -27.5t76.5 -84.5t29.5 -140q0 -85 -31 -142.5t-79 -85t-100 -27.5q-53 0 -92.5 25.5zM387.5 107q38.5 49 38.5 138q0 87 -37.5 131t-100.5 44q-65 0 -104 -45.5t-39 -128.5
q0 -85 40 -136.5t103 -51.5q61 0 99.5 49z" />
    <glyph glyph-name="c" unicode="c" horiz-adv-x="528" 
d="M151 15q-53 29 -83 86t-30 137q0 83 32 140.5t85 86t117 28.5q71 0 124 -37t76 -107l-83 -28q-29 100 -119 100q-65 0 -104.5 -48.5t-39.5 -133.5q0 -62 21 -102.5t54 -59.5t71 -19q44 0 77.5 25.5t43.5 81.5l88 -3q-14 -83 -69.5 -129.5t-140.5 -46.5q-67 0 -120 29z
" />
    <glyph glyph-name="d" unicode="d" horiz-adv-x="549" 
d="M148.5 13.5q-48.5 27.5 -79.5 85t-31 143.5q0 82 29 138.5t76 84.5t101 28q56 0 94.5 -26.5t61.5 -62.5h1v311h85v-715h-85v73h-1q-21 -35 -59 -61t-92 -26q-52 0 -100.5 27.5zM335.5 81q32.5 24 50.5 67t18 99q0 82 -39 127.5t-104 45.5q-62 0 -100 -44t-38 -131
q0 -89 39 -138.5t99 -49.5q42 0 74.5 24z" />
    <glyph glyph-name="e" unicode="e" horiz-adv-x="515" 
d="M150 14.5q-51 28.5 -80.5 85t-29.5 136.5q0 79 29 137t81 89t120 31q95 0 149 -60t54 -171v-40h-348q2 -70 40.5 -117t102.5 -47q53 0 86.5 29t46.5 68l68 -33q-22 -56 -72.5 -96t-130.5 -40q-65 0 -116 28.5zM388 287q-10 136 -126 136q-59 0 -92 -37t-42 -99h260z" />
    <glyph glyph-name="f" unicode="f" horiz-adv-x="360" 
d="M127 408h-97v70h97v98q0 153 135 153q43 0 78 -13l-15 -71q-31 9 -57 9q-32 0 -44 -17t-12 -45v-114h119v-70h-119v-408h-85v408z" />
    <glyph glyph-name="g" unicode="g" horiz-adv-x="527" 
d="M96.5 -180.5q-62.5 33.5 -62.5 91.5q0 36 24.5 67t58.5 45v2q-32 10 -48 29t-16 43q0 29 24 51t60 30v2q-82 53 -82 135q0 50 27.5 90.5t74 64t101.5 23.5h55q36 0 53 10.5t21.5 27.5t4.5 48h88v-34q0 -39 -33 -59.5t-79 -20.5v-3q37 -22 58.5 -58.5t21.5 -81.5
q0 -52 -27.5 -91t-73.5 -59.5t-99 -20.5l-37 1q-9 1 -21 1q-20 0 -32.5 -10.5t-12.5 -27.5q0 -18 16.5 -27.5t40.5 -9.5h154q73 0 112.5 -33t39.5 -91q0 -77 -68.5 -122.5t-182.5 -45.5q-98 0 -160.5 33.5zM377.5 -127.5q50.5 19.5 50.5 69.5q0 30 -23.5 46t-76.5 16
q-24 0 -146 -4q-26 -1 -44.5 -22t-18.5 -49q0 -42 41 -59t102 -17q65 0 115.5 19.5zM336 247q30 27 30 71q0 46 -32 75.5t-83 29.5q-52 0 -83 -28.5t-31 -74.5t32 -73t84 -27q53 0 83 27z" />
    <glyph glyph-name="h" unicode="h" horiz-adv-x="518" 
d="M63 715h85v-324h1q43 102 150 102q69 0 115.5 -40.5t46.5 -125.5v-327h-85v309q0 53 -24 81t-70 28q-58 0 -96 -44t-38 -129v-245h-85v715z" />
    <glyph glyph-name="i" unicode="i" horiz-adv-x="205" 
d="M63 0v478h85v-478h-85zM62 580q-17 17 -17 42t17 42t44 17q26 0 43 -17t17 -42t-17 -42t-43 -17q-27 0 -44 17z" />
    <glyph glyph-name="j" unicode="j" horiz-adv-x="233" 
d="M-25 -196l10 70q18 -2 35 -2q46 0 58.5 22t12.5 56v528h85v-525q0 -73 -39 -113t-109 -40q-29 0 -53 4zM95 580q-17 17 -17 42t17 42t44 17q26 0 43 -17t17 -42t-17 -42t-43 -17q-27 0 -44 17z" />
    <glyph glyph-name="k" unicode="k" horiz-adv-x="497" 
d="M63 0v715h85v-459l204 222h104l-192 -203l206 -275h-105l-158 212l-59 -60v-152h-85z" />
    <glyph glyph-name="l" unicode="l" horiz-adv-x="205" 
d="M63 0v715h85v-715h-85z" />
    <glyph glyph-name="m" unicode="m" horiz-adv-x="783" 
d="M63 478h85v-76h1q11 36 44.5 63.5t92.5 27.5q46 0 82.5 -24.5t52.5 -76.5q18 47 54 74t98 27q63 0 108 -37t45 -131v-325h-85v310q0 105 -88 105q-56 0 -86 -41.5t-30 -121.5v-252h-85v310q0 52 -21 78.5t-66 26.5q-56 0 -86.5 -41.5t-30.5 -121.5v-252h-85v478z" />
    <glyph glyph-name="n" unicode="n" horiz-adv-x="518" 
d="M63 478h85v-77h1q20 47 60.5 69.5t91.5 22.5q68 0 114 -40.5t46 -120.5v-332h-85v316q0 47 -24.5 75t-70.5 28q-57 0 -95 -44t-38 -121v-254h-85v478z" />
    <glyph glyph-name="o" unicode="o" horiz-adv-x="538" 
d="M153.5 14.5q-52.5 28.5 -84 85t-31.5 138.5t31.5 139.5t83.5 86.5t114 29t115 -29t85.5 -86.5t32.5 -138.5q0 -80 -31.5 -137t-84 -86.5t-116.5 -29.5q-62 0 -114.5 28.5zM374 103q41 45 41 136q0 93 -42 137.5t-105 44.5q-62 0 -103.5 -44.5t-41.5 -135.5
q0 -92 41.5 -137.5t105.5 -45.5q63 0 104 45z" />
    <glyph glyph-name="p" unicode="p" horiz-adv-x="549" 
d="M63 478h85v-75h1q21 37 59.5 63.5t91.5 26.5q54 0 102 -27t78.5 -84t30.5 -141q0 -83 -30.5 -141t-78.5 -86t-101 -28q-51 0 -90.5 24t-61.5 56h-1v-266h-85v678zM387.5 107q38.5 48 38.5 135q0 89 -38.5 133.5t-100.5 44.5q-66 0 -104 -48.5t-38 -129.5
q0 -84 39.5 -133.5t102.5 -49.5q62 0 100.5 48z" />
    <glyph glyph-name="q" unicode="q" horiz-adv-x="549" 
d="M401 66h-1q-22 -32 -61 -56t-90 -24q-53 0 -101.5 28t-79 85.5t-30.5 140.5q0 84 31 141t80 84.5t101 27.5q53 0 92 -27t59 -64h1v76h84v-678h-85v266zM365 108.5q39 49.5 39 131.5t-39 131t-103 49q-61 0 -100 -46t-39 -132t39 -134.5t101 -48.5q63 0 102 49.5z" />
    <glyph glyph-name="r" unicode="r" horiz-adv-x="351" 
d="M63 478h85v-76q16 39 44 65t70 26q34 0 62 -17l-16 -79q-25 14 -57 14q-44 0 -73.5 -39.5t-29.5 -124.5v-247h-85v478z" />
    <glyph glyph-name="s" unicode="s" horiz-adv-x="464" 
d="M88 27.5q-49 41.5 -58 98.5l78 22q7 -36 39 -63.5t91 -27.5q48 0 72.5 19.5t24.5 51.5q0 26 -15 40.5t-36 21.5t-64 17q-77 18 -125 49.5t-48 96.5q0 62 47.5 101t129.5 39q80 0 129 -35t69 -82l-74 -32q-14 32 -46 55t-82 23q-42 0 -64 -17.5t-22 -44.5q0 -26 19 -41.5
t41.5 -22.5t60.5 -15q69 -15 118 -46.5t49 -101.5q0 -64 -48 -105.5t-141 -41.5q-96 0 -145 41.5z" />
    <glyph glyph-name="t" unicode="t" horiz-adv-x="364" 
d="M155.5 17.5q-31.5 30.5 -31.5 77.5v313h-93v70h63q17 0 23.5 7t6.5 23v98l84 18v-146h115v-70h-115v-298q0 -50 51 -50q29 0 53 12l18 -66q-46 -19 -85 -19q-58 0 -89.5 30.5z" />
    <glyph glyph-name="u" unicode="u" horiz-adv-x="518" 
d="M103 26q-46 40 -46 120v332h85v-317q0 -47 25 -74t70 -27q56 0 94.5 43t38.5 120v255h85v-478h-85v76h-1q-21 -46 -60 -68t-91 -22q-69 0 -115 40z" />
    <glyph glyph-name="v" unicode="v" horiz-adv-x="503" 
d="M206 0l-183 478h93l137 -381l135 381h92l-184 -478h-90z" />
    <glyph glyph-name="w" unicode="w" horiz-adv-x="709" 
d="M173 0l-146 478h84l103 -359l105 359h71l104 -359l104 359h84l-146 -478h-77l-105 353l-103 -353h-78z" />
    <glyph glyph-name="x" unicode="x" horiz-adv-x="521" 
d="M29 0l179 244l-171 234h103l121 -172h2l119 172h101l-170 -232l179 -246h-103l-127 184h-2l-132 -184h-99z" />
    <glyph glyph-name="y" unicode="y" horiz-adv-x="497" 
d="M37 -191l7 73h56q48 0 70.5 33t34.5 83l-178 480h88l134 -383l134 383h87l-193 -510q-17 -45 -37.5 -79t-60 -58.5t-99.5 -24.5q-19 0 -43 3z" />
    <glyph glyph-name="z" unicode="z" horiz-adv-x="483" 
d="M55 0v69l270 333h-261v76h362v-69l-269 -333h281v-76h-383z" />
    <glyph glyph-name="braceleft" unicode="{" horiz-adv-x="463" 
d="M316.5 -140.5q-36.5 10.5 -64.5 57t-36 146.5l-2 33q-3 59 -11.5 93.5t-38.5 61t-92 36.5v59q62 10 92 37t38.5 61.5t11.5 93.5l2 33q8 100 35.5 146.5t64.5 57t101 10.5h13v-81h-13q-38 0 -61 -8t-40 -43t-22 -111l-2 -33q-2 -56 -8.5 -92t-29.5 -64t-71 -36
q48 -9 71 -37t29.5 -63.5t8.5 -92.5l2 -33q5 -76 22.5 -111t39.5 -43t60 -8h14v-80h-14q-63 0 -99.5 10.5z" />
    <glyph glyph-name="bar" unicode="|" horiz-adv-x="221" 
d="M72 -170v943h77v-943h-77z" />
    <glyph glyph-name="braceright" unicode="}" horiz-adv-x="463" 
d="M33 -70h13q38 0 61 8t40 43t22 111l2 33q2 56 8.5 92t29.5 64t71 36q-48 9 -71 37t-29.5 63.5t-8.5 92.5l-2 33q-5 76 -22.5 111t-39.5 43t-60 8h-14v80h14q63 0 99.5 -10.5t64.5 -57t36 -146.5l2 -33q3 -59 11.5 -93.5t38.5 -61t92 -36.5v-59q-62 -10 -92 -37
t-38.5 -61.5t-11.5 -93.5l-2 -33q-8 -100 -35.5 -146.5t-64.5 -57t-101 -10.5h-13v81z" />
    <glyph glyph-name="asciitilde" unicode="~" horiz-adv-x="701" 
d="M402 237.5q-30 12.5 -73 36.5q-37 20 -56 28.5t-38 8.5q-28 0 -58.5 -22t-47.5 -49l-67 66q32 45 80 72t97 27q36 0 66.5 -13t67.5 -36q34 -19 53.5 -28t40.5 -9q29 0 52 17.5t54 52.5l66 -66q-30 -39 -79 -68.5t-96 -29.5q-32 0 -62 12.5z" />
    <glyph glyph-name="exclamdown" unicode="&#xa1;" horiz-adv-x="268" 
d="M100 345h69q1 -226 10 -545h-89q9 319 10 545zM87 422.5q-19 19.5 -19 46.5q0 28 19 47.5t46 19.5q28 0 47.5 -19.5t19.5 -47.5q0 -27 -19.5 -46.5t-47.5 -19.5q-27 0 -46 19.5z" />
    <glyph glyph-name="cent" unicode="&#xa2;" horiz-adv-x="544" 
d="M232 -10q-82 16 -133 83.5t-51 180.5q0 88 32 148.5t87 91t126 30.5l14 -1l11 80h58l-13 -93q50 -19 84.5 -63t47.5 -113l-86 -14q-16 78 -58 106l-51 -361q41 3 71 31t38 87l87 -4q-13 -91 -67.5 -141.5t-139.5 -52.5l-13 -93h-58zM296 445l-9 1q-66 0 -109.5 -48.5
t-43.5 -141.5q0 -77 30.5 -124t78.5 -62z" />
    <glyph glyph-name="sterling" unicode="&#xa3;" horiz-adv-x="686" 
d="M132.5 -0.5q-30.5 14.5 -50 42.5t-19.5 67q0 53 34.5 89.5t84.5 36.5q48 0 75.5 -29.5t40.5 -62.5q10 25 10 65q0 59 -30 112h-164v75h121q-45 65 -45 131q0 56 28 100t77 69t109 25q82 0 136.5 -48t67.5 -137l-79 -26q-12 62 -40.5 97.5t-87.5 35.5q-56 0 -90.5 -32
t-34.5 -83q0 -59 53 -132h213v-75h-171q23 -50 23 -93q0 -65 -42 -134q44 -25 90 -25q52 0 78 30t28 92l86 -6q-5 -85 -51 -142t-138 -57q-84 0 -135 53q-49 -53 -114 -53q-33 0 -63.5 14.5zM269 92q-11 24 -31 44.5t-46 20.5q-18 0 -30.5 -13.5t-12.5 -32.5
q0 -21 15.5 -34.5t40.5 -13.5q37 0 64 29z" />
    <glyph glyph-name="currency" unicode="&#xa4;" horiz-adv-x="604" 
d="M83 121l39 39q-25 31 -37.5 68t-12.5 76t13 76t37 67l-39 39l37 38l38 -38q31 24 67.5 36.5t75.5 12.5q80 0 145 -50l38 38l36 -36l-38 -38q25 -31 37.5 -68.5t12.5 -76.5t-12.5 -76t-36.5 -67l38 -38l-37 -38l-39 39q-62 -49 -144 -49q-39 0 -76 12.5t-67 36.5l-39 -39z
M298 126q37 0 71 14t59 39q24 24 38 58t14 70q0 34 -13 66.5t-38 57.5t-58 38.5t-67 13.5q-35 0 -68 -13.5t-59 -39.5t-40 -59.5t-14 -68.5t13 -67t39 -58q51 -51 123 -51z" />
    <glyph glyph-name="yen" unicode="&#xa5;" horiz-adv-x="586" 
d="M252 0v112h-160v72h160v67h-167v71h143l-212 379h93l187 -344l185 344h89l-212 -379h149v-71h-173v-67h166v-72h-166v-112h-82z" />
    <glyph glyph-name="brokenbar" unicode="&#xa6;" horiz-adv-x="222" 
d="M72 404v369h78v-369h-78zM72 -170v369h78v-369h-78z" />
    <glyph glyph-name="section" unicode="&#xa7;" horiz-adv-x="655" 
d="M198 -129.5q-53 38.5 -67 116.5l87 21q8 -38 35.5 -71.5t79.5 -33.5q38 0 71 19t33 62q0 29 -15.5 46.5t-45.5 35.5l-212 128q-84 51 -84 135q0 52 27.5 85t78.5 59q-47 47 -47 106q0 36 19 73.5t62 63.5t112 26q70 0 125.5 -32.5t67.5 -109.5l-89 -26q-6 40 -28.5 68.5
t-76.5 28.5q-45 0 -73.5 -23t-28.5 -57q0 -32 22 -52t57 -39l159 -84q48 -25 82 -61t34 -97q0 -56 -30 -91.5t-81 -64.5q28 -27 42.5 -53t14.5 -60q0 -47 -26.5 -83t-72.5 -55t-102 -19q-77 0 -130 38.5zM475.5 184.5q19.5 21.5 19.5 55.5q0 29 -20 55t-55 44l-178 93
q-75 -32 -75 -89q0 -29 17.5 -51t40.5 -35l196 -113q35 19 54.5 40.5z" />
    <glyph glyph-name="dieresis" unicode="&#xa8;" horiz-adv-x="491" 
d="M103 618.5q-19 17.5 -19 41.5q0 25 19 43t45 18t45 -18t19 -43q0 -24 -19 -41.5t-46 -17.5q-25 0 -44 17.5zM298.5 618.5q-18.5 17.5 -18.5 41.5q0 25 18.5 43t44.5 18t45 -17.5t19 -42.5t-19 -42.5t-46 -17.5q-25 0 -43.5 17.5z" />
    <glyph glyph-name="copyright" unicode="&#xa9;" horiz-adv-x="840" 
d="M230.5 33q-86.5 50 -136.5 136t-50 188t50 188t136 136.5t190 50.5t190 -50.5t136 -136.5t50 -189t-49.5 -188.5t-135.5 -135t-190 -49.5t-190.5 50zM318.5 154q-47.5 27 -75 80.5t-27.5 128.5q0 76 28 128.5t75 79t102 26.5q77 0 121.5 -44t60.5 -102l-63 -20
q-11 45 -40.5 77.5t-81.5 32.5q-59 0 -98.5 -46.5t-39.5 -131.5q0 -86 40.5 -133t103.5 -47q52 0 80 30t34 69l63 -12q-12 -59 -56 -101t-120 -42q-59 0 -106.5 27zM581 81.5q72 42.5 113.5 115t41.5 159.5t-41.5 160.5t-114 116.5t-160.5 43t-160 -42.5t-114 -115.5
t-42 -161q0 -87 41 -160t113.5 -115.5t162.5 -42.5q88 0 160 42.5z" />
    <glyph glyph-name="ordfeminine" unicode="&#xaa;" horiz-adv-x="426" 
d="M140 434q-29 16 -48.5 50.5t-19.5 86.5q0 75 37.5 113.5t88.5 38.5q30 0 52 -14.5t35 -34.5h1v40h68v-288h-68v40q-13 -20 -35 -34t-52 -14t-59 16zM267.5 501q20.5 28 20.5 73t-20.5 69t-54.5 24q-33 0 -53 -23.5t-20 -69.5q0 -48 20.5 -74.5t52.5 -26.5q34 0 54.5 28z
" />
    <glyph glyph-name="guillemotleft" unicode="&#xab;" horiz-adv-x="545" 
d="M397 56l-133 195v8l133 190h86l-132 -193l132 -200h-86zM196 56l-133 195v8l133 190h86l-132 -193l132 -200h-86z" />
    <glyph glyph-name="logicalnot" unicode="&#xac;" horiz-adv-x="695" 
d="M556 155v243h-494v77h571v-320h-77z" />
    <glyph glyph-name="uni00AD" unicode="&#xad;" horiz-adv-x="502" 
d="M72 224v82h358v-82h-358z" />
    <glyph glyph-name="registered" unicode="&#xae;" horiz-adv-x="864" 
d="M242.5 33q-86.5 50 -136.5 136t-50 188t50 188t136 136.5t190 50.5t190 -50.5t136 -136.5t50 -189t-49.5 -188.5t-135.5 -135t-190 -49.5t-190.5 50zM593 81.5q72 42.5 113.5 115t41.5 159.5t-41.5 160.5t-114 116.5t-160.5 43t-160 -42.5t-114 -115.5t-42 -161
q0 -87 41 -160t113.5 -115.5t162.5 -42.5q88 0 160 42.5zM285 592h173q71 0 109 -33t38 -92q0 -60 -34.5 -92.5t-83.5 -42.5l126 -189v-1h-73l-119 183h-75v-183h-61v450zM439 377q44 0 72.5 19t28.5 65q0 76 -86 76h-108v-160h93z" />
    <glyph glyph-name="macron" unicode="&#xaf;" horiz-adv-x="479" 
d="M84 609v76h311v-76h-311z" />
    <glyph glyph-name="degree" unicode="&#xb0;" horiz-adv-x="535" 
d="M175 390.5q-43 24.5 -68 67t-25 94.5t25 94t67.5 66t93.5 24t93 -23.5t67 -65.5t25 -95q0 -52 -24.5 -94.5t-67 -67t-93.5 -24.5q-50 0 -93 24.5zM343.5 472q30.5 33 30.5 79q0 47 -31.5 79t-74.5 32q-44 0 -75 -32.5t-31 -78.5t30.5 -79t75.5 -33t75.5 33z" />
    <glyph glyph-name="plusminus" unicode="&#xb1;" horiz-adv-x="602" 
d="M270 176v137h-151v68h151v141h70v-141h149v-68h-149v-137h-70zM62 57v70h478v-70h-478z" />
    <glyph glyph-name="uni00B2" unicode="&#xb2;" horiz-adv-x="382" 
d="M54 358q112 91 159.5 148t47.5 107q0 30 -17 49t-50 19q-42 0 -62 -30t-21 -72l-65 18q6 57 41.5 100t108.5 43q64 0 100 -35t36 -88q0 -60 -46 -118.5t-130 -126.5h178v-65h-280v51z" />
    <glyph glyph-name="uni00B3" unicode="&#xb3;" horiz-adv-x="402" 
d="M83.5 336.5q-38.5 37.5 -43.5 88.5l75 8q2 -31 23 -53t65 -22q36 0 58.5 18.5t22.5 49.5q0 38 -32 59t-84 19v54q45 1 71.5 19t26.5 47q0 24 -18 40t-51 16q-39 0 -57.5 -22t-19.5 -53l-67 8q1 49 35.5 88t108.5 39q65 0 103.5 -31.5t38.5 -77.5q0 -35 -23.5 -61.5
t-53.5 -32.5v-1q41 -9 68 -35t27 -73q0 -59 -44 -94t-115 -35q-76 0 -114.5 37.5z" />
    <glyph glyph-name="acute" unicode="&#xb4;" horiz-adv-x="365" 
d="M84 582l89 143h108l-119 -143h-78z" />
    <glyph glyph-name="uni00B5" unicode="&#xb5;" horiz-adv-x="567" 
d="M62 520h95v-313q0 -140 118 -140q86 0 110.5 54t24.5 104v295h95v-520h-88v66h-1q4 0 -15.5 -22t-53 -40t-81.5 -18q-38 0 -67 11.5t-42 25.5v-189h-95v686z" />
    <glyph glyph-name="paragraph" unicode="&#xb6;" horiz-adv-x="663" 
d="M355 263q-126 0 -204.5 58t-78.5 170q0 103 72 163.5t211 60.5h236v-873h-64v806h-109v-806h-63v421z" />
    <glyph glyph-name="periodcentered" unicode="&#xb7;" horiz-adv-x="275" 
d="M90.5 261.5q-18.5 18.5 -18.5 44.5q0 25 19 43.5t47 18.5t46.5 -18.5t18.5 -43.5q0 -27 -19 -45t-47 -18t-46.5 18.5z" />
    <glyph glyph-name="cedilla" unicode="&#xb8;" horiz-adv-x="389" 
d="M119.5 -194q-27.5 24 -35.5 57l69 7q3 -12 13 -21t28 -9t27.5 9t9.5 26q0 18 -11 28t-27 10q-20 0 -36 -14l-43 28l61 73h65l-45 -51q13 5 28 5q35 0 58.5 -21.5t23.5 -57.5q0 -42 -30.5 -67.5t-78.5 -25.5q-49 0 -76.5 24z" />
    <glyph glyph-name="uni00B9" unicode="&#xb9;" horiz-adv-x="300" 
d="M144 636q-11 -20 -31 -30t-44 -10h-22v65h13q36 0 59.5 20.5t27.5 51.5h67v-426h-70v329z" />
    <glyph glyph-name="ordmasculine" unicode="&#xba;" horiz-adv-x="433" 
d="M114 456.5q-42 39.5 -42 112.5q0 74 41.5 114.5t101.5 40.5q39 0 72 -17.5t53.5 -52.5t20.5 -83q0 -72 -42 -113t-103 -41q-60 0 -102 39.5zM271.5 498q21.5 24 21.5 72q0 50 -22.5 73.5t-54.5 23.5t-54 -24t-22 -72q0 -49 22 -73t55 -24t54.5 24z" />
    <glyph glyph-name="guillemotright" unicode="&#xbb;" horiz-adv-x="545" 
d="M263 56l132 200l-132 193h86l133 -190v-8l-133 -195h-86zM62 56l132 200l-132 193h86l133 -190v-8l-133 -195h-86z" />
    <glyph glyph-name="onequarter" unicode="&#xbc;" horiz-adv-x="885" 
d="M144 636q-11 -20 -31 -30t-44 -10h-22v65h13q36 0 59.5 20.5t27.5 51.5h67v-426h-70v329zM213 -20l-51 31l438 727l50 -30zM708 0v94h-201v53l195 279h79v-275h64v-57h-64v-94h-73zM576 151h136v192h-1z" />
    <glyph glyph-name="onehalf" unicode="&#xbd;" horiz-adv-x="894" 
d="M144 636q-11 -20 -31 -30t-44 -10h-22v65h13q36 0 59.5 20.5t27.5 51.5h67v-426h-70v329zM213 -20l-51 31l438 727l50 -30zM566 51q112 91 159.5 148t47.5 107q0 30 -17 49t-50 19q-42 0 -62 -30t-21 -72l-65 18q6 57 41.5 100t108.5 43q64 0 100 -35t36 -88
q0 -60 -46 -118.5t-130 -126.5h178v-65h-280v51z" />
    <glyph glyph-name="threequarters" unicode="&#xbe;" horiz-adv-x="970" 
d="M83.5 336.5q-38.5 37.5 -43.5 88.5l75 8q2 -31 23 -53t65 -22q36 0 58.5 18.5t22.5 49.5q0 38 -32 59t-84 19v54q45 1 71.5 19t26.5 47q0 24 -18 40t-51 16q-39 0 -57.5 -22t-19.5 -53l-67 8q1 49 35.5 88t108.5 39q65 0 103.5 -31.5t38.5 -77.5q0 -35 -23.5 -61.5
t-53.5 -32.5v-1q41 -9 68 -35t27 -73q0 -59 -44 -94t-115 -35q-76 0 -114.5 37.5zM298 -20l-51 31l438 727l50 -30zM793 0v94h-201v53l195 279h79v-275h64v-57h-64v-94h-73zM661 151h136v192h-1z" />
    <glyph glyph-name="questiondown" unicode="&#xbf;" horiz-adv-x="584" 
d="M168.5 -196q-51.5 24 -78 66t-26.5 95q0 43 16.5 76t38.5 54.5t58 49.5q55 43 72.5 61t17.5 36q0 11 -5 22t-12.5 22.5t-11.5 18.5l76 31q18 -23 29.5 -45.5t11.5 -53.5q0 -37 -24 -67.5t-87 -79.5q-29 -23 -45.5 -38t-29 -37t-12.5 -50q0 -47 35 -78.5t97 -31.5
q74 0 107 41t34 97l90 -16q-4 -80 -58 -138.5t-171 -58.5q-71 0 -122.5 24zM244.5 421.5q-20.5 19.5 -20.5 47.5t20.5 47.5t48.5 19.5q29 0 49 -19.5t20 -47.5t-20 -47.5t-49 -19.5q-28 0 -48.5 19.5z" />
    <glyph glyph-name="Agrave" unicode="&#xc0;" horiz-adv-x="688" 
d="M28 0l259 715h113l260 -715h-93l-70 194h-308l-70 -194h-91zM219 278h248l-124 342h-1zM326 752l-118 143h108l89 -143h-79z" />
    <glyph glyph-name="Aacute" unicode="&#xc1;" horiz-adv-x="688" 
d="M28 0l259 715h113l260 -715h-93l-70 194h-308l-70 -194h-91zM219 278h248l-124 342h-1zM301 752l89 143h108l-119 -143h-78z" />
    <glyph glyph-name="Acircumflex" unicode="&#xc2;" horiz-adv-x="688" 
d="M28 0l259 715h113l260 -715h-93l-70 194h-308l-70 -194h-91zM219 278h248l-124 342h-1zM193 751l110 144h83l111 -144h-85l-67 84l-67 -84h-85z" />
    <glyph glyph-name="Atilde" unicode="&#xc3;" horiz-adv-x="688" 
d="M28 0l259 715h113l260 -715h-93l-70 194h-308l-70 -194h-91zM219 278h248l-124 342h-1zM380.5 767.5q-18.5 8.5 -46.5 26.5q-20 12 -33 18t-26 6q-18 0 -33 -14.5t-25 -40.5l-57 27q19 45 45.5 70t64.5 25q23 0 41.5 -8t39.5 -22q24 -16 36 -22.5t26 -6.5q18 0 33.5 14
t24.5 41l57 -22q-18 -47 -45.5 -73.5t-62.5 -26.5q-21 0 -39.5 8.5z" />
    <glyph glyph-name="Adieresis" unicode="&#xc4;" horiz-adv-x="688" 
d="M28 0l259 715h113l260 -715h-93l-70 194h-308l-70 -194h-91zM219 278h248l-124 342h-1zM203 788.5q-19 17.5 -19 41.5q0 25 19 43t45 18t45 -18t19 -43q0 -24 -19 -41.5t-46 -17.5q-25 0 -44 17.5zM398.5 788.5q-18.5 17.5 -18.5 41.5q0 25 18.5 43t44.5 18t45 -17.5
t19 -42.5t-19 -42.5t-46 -17.5q-25 0 -43.5 17.5z" />
    <glyph glyph-name="Aring" unicode="&#xc5;" horiz-adv-x="688" 
d="M28 0l259 715h113l260 -715h-93l-70 194h-308l-70 -194h-91zM219 278h248l-124 342h-1zM266 766.5q-32 31.5 -32 79.5t32 79t80 31q47 0 79.5 -31t32.5 -79t-32 -79.5t-80 -31.5t-80 31.5zM388.5 802q17.5 17 17.5 45q0 27 -17.5 43.5t-41.5 16.5t-42.5 -17t-18.5 -43
q0 -28 18 -45t43 -17q24 0 41.5 17z" />
    <glyph glyph-name="AE" unicode="&#xc6;" horiz-adv-x="962" 
d="M25 0l358 715h524v-81h-355v-228h313v-81h-313v-243h355v-82h-443v210h-241l-105 -210h-93zM265 294h199v338h-31z" />
    <glyph glyph-name="Ccedilla" unicode="&#xc7;" horiz-adv-x="707" 
d="M271.5 -194q-27.5 24 -35.5 57l69 7q3 -12 13 -21t28 -9t27.5 9t9.5 26q0 18 -11 28t-27 10q-20 0 -36 -14l-43 28l52 62q-78 12 -140 57.5t-98 125t-36 187.5q0 119 44 203t117.5 126t161.5 42q119 0 189 -68t95 -158l-91 -32q-19 74 -67 125.5t-131 51.5
q-63 0 -114.5 -33t-81.5 -98.5t-30 -157.5q0 -94 31 -160t84 -100t120 -34q86 0 131 48t55 110l91 -17q-18 -88 -83.5 -154t-185.5 -68l-32 -36q13 5 28 5q35 0 58.5 -21.5t23.5 -57.5q0 -42 -30.5 -67.5t-78.5 -25.5q-49 0 -76.5 24z" />
    <glyph glyph-name="Egrave" unicode="&#xc8;" horiz-adv-x="592" 
d="M72 0v715h462v-82h-374v-227h332v-81h-332v-243h374v-82h-462zM295 752l-118 143h108l89 -143h-79z" />
    <glyph glyph-name="Eacute" unicode="&#xc9;" horiz-adv-x="592" 
d="M72 0v715h462v-82h-374v-227h332v-81h-332v-243h374v-82h-462zM270 752l89 143h108l-119 -143h-78z" />
    <glyph glyph-name="Ecircumflex" unicode="&#xca;" horiz-adv-x="592" 
d="M72 0v715h462v-82h-374v-227h332v-81h-332v-243h374v-82h-462zM162 751l110 144h83l111 -144h-85l-67 84l-67 -84h-85z" />
    <glyph glyph-name="Edieresis" unicode="&#xcb;" horiz-adv-x="592" 
d="M72 0v715h462v-82h-374v-227h332v-81h-332v-243h374v-82h-462zM172 788.5q-19 17.5 -19 41.5q0 25 19 43t45 18t45 -18t19 -43q0 -24 -19 -41.5t-46 -17.5q-25 0 -44 17.5zM367.5 788.5q-18.5 17.5 -18.5 41.5q0 25 18.5 43t44.5 18t45 -17.5t19 -42.5t-19 -42.5
t-46 -17.5q-25 0 -43.5 17.5z" />
    <glyph glyph-name="Igrave" unicode="&#xcc;" horiz-adv-x="232" 
d="M72 0v715h88v-715h-88zM96 752l-118 143h108l89 -143h-79z" />
    <glyph glyph-name="Iacute" unicode="&#xcd;" horiz-adv-x="232" 
d="M72 0v715h88v-715h-88zM71 752l89 143h108l-119 -143h-78z" />
    <glyph glyph-name="Icircumflex" unicode="&#xce;" horiz-adv-x="232" 
d="M72 0v715h88v-715h-88zM-21 751l99 144h74l100 -144h-76l-61 84l-60 -84h-76z" />
    <glyph glyph-name="Idieresis" unicode="&#xcf;" horiz-adv-x="232" 
d="M72 0v715h88v-715h-88zM-14.5 779q-17.5 16 -17.5 38q0 23 17.5 39t40.5 16q24 0 41.5 -16.5t17.5 -38.5t-17.5 -38t-41.5 -16q-23 0 -40.5 16zM163.5 779q-16.5 16 -16.5 38q0 23 16.5 39t40.5 16t41 -16t17 -38q0 -23 -17 -39t-42 -16q-23 0 -39.5 16z" />
    <glyph glyph-name="Eth" unicode="&#xd0;" horiz-adv-x="658" 
d="M72 330h-73v69h73v316h220q106 0 178.5 -45t108 -125.5t35.5 -185.5q0 -109 -37.5 -190t-110 -125t-174.5 -44h-220v330zM293 82q113 0 172.5 72.5t59.5 202.5q0 131 -59.5 203.5t-172.5 72.5h-133v-234h172v-69h-172v-248h133z" />
    <glyph glyph-name="Ntilde" unicode="&#xd1;" horiz-adv-x="698" 
d="M72 0v715h96l370 -578h1v578h87v-715h-96l-370 580h-1v-580h-87zM398.5 767.5q-18.5 8.5 -46.5 26.5q-20 12 -33 18t-26 6q-18 0 -33 -14.5t-25 -40.5l-57 27q19 45 45.5 70t64.5 25q23 0 41.5 -8t39.5 -22q24 -16 36 -22.5t26 -6.5q18 0 33.5 14t24.5 41l57 -22
q-18 -47 -45.5 -73.5t-62.5 -26.5q-21 0 -39.5 8.5z" />
    <glyph glyph-name="Ograve" unicode="&#xd2;" horiz-adv-x="736" 
d="M214 23.5q-74 38.5 -122 123t-48 212.5q0 129 48.5 212.5t123 121t155.5 37.5t154 -38t120 -121t47 -210q0 -128 -48 -212.5t-122 -124t-154 -39.5t-154 38.5zM484.5 97q51.5 31 83.5 97t32 167q0 100 -32 164.5t-84 94t-113 29.5q-62 0 -115.5 -29.5t-86.5 -94
t-33 -164.5q0 -101 33.5 -167t87.5 -97t115 -31t112.5 31zM349 757l-118 143h108l89 -143h-79z" />
    <glyph glyph-name="Oacute" unicode="&#xd3;" horiz-adv-x="736" 
d="M214 23.5q-74 38.5 -122 123t-48 212.5q0 129 48.5 212.5t123 121t155.5 37.5t154 -38t120 -121t47 -210q0 -128 -48 -212.5t-122 -124t-154 -39.5t-154 38.5zM484.5 97q51.5 31 83.5 97t32 167q0 100 -32 164.5t-84 94t-113 29.5q-62 0 -115.5 -29.5t-86.5 -94
t-33 -164.5q0 -101 33.5 -167t87.5 -97t115 -31t112.5 31zM324 757l89 143h108l-119 -143h-78z" />
    <glyph glyph-name="Ocircumflex" unicode="&#xd4;" horiz-adv-x="736" 
d="M214 23.5q-74 38.5 -122 123t-48 212.5q0 129 48.5 212.5t123 121t155.5 37.5t154 -38t120 -121t47 -210q0 -128 -48 -212.5t-122 -124t-154 -39.5t-154 38.5zM484.5 97q51.5 31 83.5 97t32 167q0 100 -32 164.5t-84 94t-113 29.5q-62 0 -115.5 -29.5t-86.5 -94
t-33 -164.5q0 -101 33.5 -167t87.5 -97t115 -31t112.5 31zM216 756l110 144h83l111 -144h-85l-67 84l-67 -84h-85z" />
    <glyph glyph-name="Otilde" unicode="&#xd5;" horiz-adv-x="736" 
d="M214 23.5q-74 38.5 -122 123t-48 212.5q0 129 48.5 212.5t123 121t155.5 37.5t154 -38t120 -121t47 -210q0 -128 -48 -212.5t-122 -124t-154 -39.5t-154 38.5zM484.5 97q51.5 31 83.5 97t32 167q0 100 -32 164.5t-84 94t-113 29.5q-62 0 -115.5 -29.5t-86.5 -94
t-33 -164.5q0 -101 33.5 -167t87.5 -97t115 -31t112.5 31zM403.5 772.5q-18.5 8.5 -46.5 26.5q-20 12 -33 18t-26 6q-18 0 -33 -14.5t-25 -40.5l-57 27q19 45 45.5 70t64.5 25q23 0 41.5 -8t39.5 -22q24 -16 36 -22.5t26 -6.5q18 0 33.5 14t24.5 41l57 -22
q-18 -47 -45.5 -73.5t-62.5 -26.5q-21 0 -39.5 8.5z" />
    <glyph glyph-name="Odieresis" unicode="&#xd6;" horiz-adv-x="736" 
d="M214 23.5q-74 38.5 -122 123t-48 212.5q0 129 48.5 212.5t123 121t155.5 37.5t154 -38t120 -121t47 -210q0 -128 -48 -212.5t-122 -124t-154 -39.5t-154 38.5zM484.5 97q51.5 31 83.5 97t32 167q0 100 -32 164.5t-84 94t-113 29.5q-62 0 -115.5 -29.5t-86.5 -94
t-33 -164.5q0 -101 33.5 -167t87.5 -97t115 -31t112.5 31zM226 793.5q-19 17.5 -19 41.5q0 25 19 43t45 18t45 -18t19 -43q0 -24 -19 -41.5t-46 -17.5q-25 0 -44 17.5zM421.5 793.5q-18.5 17.5 -18.5 41.5q0 25 18.5 43t44.5 18t45 -17.5t19 -42.5t-19 -42.5t-46 -17.5
q-25 0 -43.5 17.5z" />
    <glyph glyph-name="multiply" unicode="&#xd7;" horiz-adv-x="661" 
d="M110 44l-48 48l219 222l-219 217l49 50l219 -218l220 219l49 -50l-219 -219l219 -221l-49 -48l-220 221z" />
    <glyph glyph-name="Oslash" unicode="&#xd8;" horiz-adv-x="736" 
d="M258 4.5q-56 19.5 -101 59.5l-66 -76l-49 42l72 83q-70 94 -70 248q0 128 48.5 211t123 120.5t155.5 37.5q57 0 112 -19.5t98 -58.5l65 75l48 -42l-70 -81q68 -95 68 -243q0 -128 -47.5 -212.5t-121 -124t-152.5 -39.5q-57 0 -113 19.5zM484.5 97q51.5 31 83.5 97t32 167
q0 104 -37 173l-348 -403q32 -33 73 -49t85 -16q60 0 111.5 31zM525 587q-31 31 -71 46.5t-83 15.5q-62 0 -115.5 -29.5t-86.5 -94t-33 -164.5q0 -105 39 -177z" />
    <glyph glyph-name="Ugrave" unicode="&#xd9;" horiz-adv-x="677" 
d="M201.5 14q-59.5 29 -94.5 84t-35 130v487h88v-466q0 -94 50.5 -138.5t129.5 -44.5q77 0 127 44.5t50 138.5v466h88v-487q0 -74 -37 -129.5t-98.5 -84.5t-134.5 -29q-74 0 -133.5 29zM323 752l-118 143h108l89 -143h-79z" />
    <glyph glyph-name="Uacute" unicode="&#xda;" horiz-adv-x="677" 
d="M201.5 14q-59.5 29 -94.5 84t-35 130v487h88v-466q0 -94 50.5 -138.5t129.5 -44.5q77 0 127 44.5t50 138.5v466h88v-487q0 -74 -37 -129.5t-98.5 -84.5t-134.5 -29q-74 0 -133.5 29zM298 752l89 143h108l-119 -143h-78z" />
    <glyph glyph-name="Ucircumflex" unicode="&#xdb;" horiz-adv-x="677" 
d="M201.5 14q-59.5 29 -94.5 84t-35 130v487h88v-466q0 -94 50.5 -138.5t129.5 -44.5q77 0 127 44.5t50 138.5v466h88v-487q0 -74 -37 -129.5t-98.5 -84.5t-134.5 -29q-74 0 -133.5 29zM190 751l110 144h83l111 -144h-85l-67 84l-67 -84h-85z" />
    <glyph glyph-name="Udieresis" unicode="&#xdc;" horiz-adv-x="677" 
d="M201.5 14q-59.5 29 -94.5 84t-35 130v487h88v-466q0 -94 50.5 -138.5t129.5 -44.5q77 0 127 44.5t50 138.5v466h88v-487q0 -74 -37 -129.5t-98.5 -84.5t-134.5 -29q-74 0 -133.5 29zM200 788.5q-19 17.5 -19 41.5q0 25 19 43t45 18t45 -18t19 -43q0 -24 -19 -41.5
t-46 -17.5q-25 0 -44 17.5zM395.5 788.5q-18.5 17.5 -18.5 41.5q0 25 18.5 43t44.5 18t45 -17.5t19 -42.5t-19 -42.5t-46 -17.5q-25 0 -43.5 17.5z" />
    <glyph glyph-name="Yacute" unicode="&#xdd;" horiz-adv-x="649" 
d="M280 0v284l-262 431h100l210 -350l208 350h95l-263 -431v-284h-88zM284 752l89 143h108l-119 -143h-78z" />
    <glyph glyph-name="Thorn" unicode="&#xde;" horiz-adv-x="601" 
d="M72 715h88v-119h158q116 0 185 -56t69 -159q0 -70 -33 -122t-92.5 -79.5t-137.5 -27.5h-149v-152h-88v715zM329 236q73 0 113 37.5t40 106.5q0 131 -159 131h-163v-275h169z" />
    <glyph glyph-name="germandbls" unicode="&#xdf;" horiz-adv-x="600" 
d="M243.5 23.5q-45.5 35.5 -59.5 84.5l83 28q6 -31 32 -54.5t74 -23.5q42 0 73.5 22.5t31.5 75.5q0 40 -19.5 64t-49.5 37.5t-87 31.5q-94 29 -94 96q0 39 27 63t73 43q37 15 63 35t26 54q0 36 -35 58t-84 22q-68 0 -109 -46t-41 -144v-470h-85v482q0 117 63.5 182.5
t174.5 65.5q89 0 144 -41.5t55 -112.5q0 -39 -17 -64.5t-41 -39.5t-61 -28q-6 -2 -28.5 -10.5t-32.5 -18t-10 -22.5q0 -17 16 -25t63 -22q45 -14 81.5 -32.5t64.5 -56t28 -96.5q0 -80 -53 -126.5t-141 -46.5q-80 0 -125.5 35.5z" />
    <glyph glyph-name="agrave" unicode="&#xe0;" horiz-adv-x="540" 
d="M98 23q-45 37 -45 102q0 59 37.5 93t87.5 48.5t120 25.5q39 6 55.5 10t23.5 12t7 24q0 38 -30 61.5t-77 23.5q-53 0 -84.5 -27t-43.5 -62l-73 39q18 49 68 84.5t133 35.5q87 0 139 -45t49 -135l-6 -209q-2 -52 43 -47v-68l-19 -2q-59 0 -80 26.5t-21 86.5h-1
q-16 -51 -57.5 -82.5t-108.5 -31.5q-72 0 -117 37zM305.5 79q36.5 23 56.5 58.5t21 73.5l1 47q-16 -19 -61 -27q-76 -15 -110.5 -24.5t-54.5 -27.5t-20 -51q0 -35 21 -53.5t62 -18.5q48 0 84.5 23zM249 543l-118 143h108l89 -143h-79z" />
    <glyph glyph-name="aacute" unicode="&#xe1;" horiz-adv-x="540" 
d="M98 23q-45 37 -45 102q0 59 37.5 93t87.5 48.5t120 25.5q39 6 55.5 10t23.5 12t7 24q0 38 -30 61.5t-77 23.5q-53 0 -84.5 -27t-43.5 -62l-73 39q18 49 68 84.5t133 35.5q87 0 139 -45t49 -135l-6 -209q-2 -52 43 -47v-68l-19 -2q-59 0 -80 26.5t-21 86.5h-1
q-16 -51 -57.5 -82.5t-108.5 -31.5q-72 0 -117 37zM305.5 79q36.5 23 56.5 58.5t21 73.5l1 47q-16 -19 -61 -27q-76 -15 -110.5 -24.5t-54.5 -27.5t-20 -51q0 -35 21 -53.5t62 -18.5q48 0 84.5 23zM224 543l89 143h108l-119 -143h-78z" />
    <glyph glyph-name="acircumflex" unicode="&#xe2;" horiz-adv-x="540" 
d="M98 23q-45 37 -45 102q0 59 37.5 93t87.5 48.5t120 25.5q39 6 55.5 10t23.5 12t7 24q0 38 -30 61.5t-77 23.5q-53 0 -84.5 -27t-43.5 -62l-73 39q18 49 68 84.5t133 35.5q87 0 139 -45t49 -135l-6 -209q-2 -52 43 -47v-68l-19 -2q-59 0 -80 26.5t-21 86.5h-1
q-16 -51 -57.5 -82.5t-108.5 -31.5q-72 0 -117 37zM305.5 79q36.5 23 56.5 58.5t21 73.5l1 47q-16 -19 -61 -27q-76 -15 -110.5 -24.5t-54.5 -27.5t-20 -51q0 -35 21 -53.5t62 -18.5q48 0 84.5 23zM116 542l110 144h83l111 -144h-85l-67 84l-67 -84h-85z" />
    <glyph glyph-name="atilde" unicode="&#xe3;" horiz-adv-x="540" 
d="M98 23q-45 37 -45 102q0 59 37.5 93t87.5 48.5t120 25.5q39 6 55.5 10t23.5 12t7 24q0 38 -30 61.5t-77 23.5q-53 0 -84.5 -27t-43.5 -62l-73 39q18 49 68 84.5t133 35.5q87 0 139 -45t49 -135l-6 -209q-2 -52 43 -47v-68l-19 -2q-59 0 -80 26.5t-21 86.5h-1
q-16 -51 -57.5 -82.5t-108.5 -31.5q-72 0 -117 37zM305.5 79q36.5 23 56.5 58.5t21 73.5l1 47q-16 -19 -61 -27q-76 -15 -110.5 -24.5t-54.5 -27.5t-20 -51q0 -35 21 -53.5t62 -18.5q48 0 84.5 23zM303.5 558.5q-18.5 8.5 -46.5 26.5q-20 12 -33 18t-26 6q-18 0 -33 -14.5
t-25 -40.5l-57 27q19 45 45.5 70t64.5 25q23 0 41.5 -8t39.5 -22q24 -16 36 -22.5t26 -6.5q18 0 33.5 14t24.5 41l57 -22q-18 -47 -45.5 -73.5t-62.5 -26.5q-21 0 -39.5 8.5z" />
    <glyph glyph-name="adieresis" unicode="&#xe4;" horiz-adv-x="540" 
d="M98 23q-45 37 -45 102q0 59 37.5 93t87.5 48.5t120 25.5q39 6 55.5 10t23.5 12t7 24q0 38 -30 61.5t-77 23.5q-53 0 -84.5 -27t-43.5 -62l-73 39q18 49 68 84.5t133 35.5q87 0 139 -45t49 -135l-6 -209q-2 -52 43 -47v-68l-19 -2q-59 0 -80 26.5t-21 86.5h-1
q-16 -51 -57.5 -82.5t-108.5 -31.5q-72 0 -117 37zM305.5 79q36.5 23 56.5 58.5t21 73.5l1 47q-16 -19 -61 -27q-76 -15 -110.5 -24.5t-54.5 -27.5t-20 -51q0 -35 21 -53.5t62 -18.5q48 0 84.5 23zM126 579.5q-19 17.5 -19 41.5q0 25 19 43t45 18t45 -18t19 -43
q0 -24 -19 -41.5t-46 -17.5q-25 0 -44 17.5zM321.5 579.5q-18.5 17.5 -18.5 41.5q0 25 18.5 43t44.5 18t45 -17.5t19 -42.5t-19 -42.5t-46 -17.5q-25 0 -43.5 17.5z" />
    <glyph glyph-name="aring" unicode="&#xe5;" horiz-adv-x="540" 
d="M98 23q-45 37 -45 102q0 59 37.5 93t87.5 48.5t120 25.5q39 6 55.5 10t23.5 12t7 24q0 38 -30 61.5t-77 23.5q-53 0 -84.5 -27t-43.5 -62l-73 39q18 49 68 84.5t133 35.5q87 0 139 -45t49 -135l-6 -209q-2 -52 43 -47v-68l-19 -2q-59 0 -80 26.5t-21 86.5h-1
q-16 -51 -57.5 -82.5t-108.5 -31.5q-72 0 -117 37zM305.5 79q36.5 23 56.5 58.5t21 73.5l1 47q-16 -19 -61 -27q-76 -15 -110.5 -24.5t-54.5 -27.5t-20 -51q0 -35 21 -53.5t62 -18.5q48 0 84.5 23zM189 557.5q-32 31.5 -32 79.5t32 79t80 31q47 0 79.5 -31t32.5 -79
t-32 -79.5t-80 -31.5t-80 31.5zM311.5 593q17.5 17 17.5 45q0 27 -17.5 43.5t-41.5 16.5t-42.5 -17t-18.5 -43q0 -28 18 -45t43 -17q24 0 41.5 17z" />
    <glyph glyph-name="ae" unicode="&#xe6;" horiz-adv-x="852" 
d="M94.5 22.5q-43.5 36.5 -43.5 101.5q0 77 58.5 112t164.5 52l21 4l49 8q18 3 28 12t10 28q0 32 -27.5 57.5t-77.5 25.5q-54 0 -86.5 -26t-43.5 -63l-73 39q18 49 68.5 84.5t135.5 35.5q63 0 100.5 -21t58.5 -61q35 42 74.5 62t95.5 20q93 0 149 -58t56 -177v-36h-348
q2 -77 43.5 -120.5t101.5 -43.5q50 0 83.5 28.5t47.5 68.5l68 -33q-21 -56 -71.5 -95.5t-129.5 -39.5q-72 0 -124 34t-77 98q-33 -66 -77 -99.5t-116 -33.5q-75 0 -118.5 36.5zM303 79.5q36 23.5 56 58.5t21 67l1 52q-12 -13 -32 -19t-66 -14q-55 -10 -85.5 -21t-45.5 -28.5
t-15 -46.5q0 -72 83 -72q47 0 83 23.5zM727 287q-4 67 -35 101.5t-87 34.5t-93.5 -34t-43.5 -102h259z" />
    <glyph glyph-name="ccedilla" unicode="&#xe7;" horiz-adv-x="528" 
d="M198.5 -193q-27.5 24 -35.5 57l69 7q3 -12 13 -21t28 -9t27.5 9t9.5 26q0 18 -11 28t-27 10q-20 0 -36 -14l-43 28l50 59q-90 9 -147.5 73t-57.5 178q0 83 32 140.5t85 86t117 28.5q71 0 124 -37t76 -107l-83 -28q-29 100 -119 100q-65 0 -104.5 -48.5t-39.5 -133.5
q0 -62 21 -102.5t54 -59.5t71 -19q44 0 77.5 25.5t43.5 81.5l88 -3q-13 -73 -57.5 -118t-115.5 -55l-34 -39q13 5 28 5q35 0 58.5 -21.5t23.5 -57.5q0 -42 -30.5 -67.5t-78.5 -25.5q-49 0 -76.5 24z" />
    <glyph glyph-name="egrave" unicode="&#xe8;" horiz-adv-x="515" 
d="M150 14.5q-51 28.5 -80.5 85t-29.5 136.5q0 79 29 137t81 89t120 31q95 0 149 -60t54 -171v-40h-348q2 -70 40.5 -117t102.5 -47q53 0 86.5 29t46.5 68l68 -33q-22 -56 -72.5 -96t-130.5 -40q-65 0 -116 28.5zM388 287q-10 136 -126 136q-59 0 -92 -37t-42 -99h260z
M245 541l-118 143h108l89 -143h-79z" />
    <glyph glyph-name="eacute" unicode="&#xe9;" horiz-adv-x="515" 
d="M150 14.5q-51 28.5 -80.5 85t-29.5 136.5q0 79 29 137t81 89t120 31q95 0 149 -60t54 -171v-40h-348q2 -70 40.5 -117t102.5 -47q53 0 86.5 29t46.5 68l68 -33q-22 -56 -72.5 -96t-130.5 -40q-65 0 -116 28.5zM388 287q-10 136 -126 136q-59 0 -92 -37t-42 -99h260z
M220 541l89 143h108l-119 -143h-78z" />
    <glyph glyph-name="ecircumflex" unicode="&#xea;" horiz-adv-x="515" 
d="M150 14.5q-51 28.5 -80.5 85t-29.5 136.5q0 79 29 137t81 89t120 31q95 0 149 -60t54 -171v-40h-348q2 -70 40.5 -117t102.5 -47q53 0 86.5 29t46.5 68l68 -33q-22 -56 -72.5 -96t-130.5 -40q-65 0 -116 28.5zM388 287q-10 136 -126 136q-59 0 -92 -37t-42 -99h260z
M112 540l110 144h83l111 -144h-85l-67 84l-67 -84h-85z" />
    <glyph glyph-name="edieresis" unicode="&#xeb;" horiz-adv-x="515" 
d="M150 14.5q-51 28.5 -80.5 85t-29.5 136.5q0 79 29 137t81 89t120 31q95 0 149 -60t54 -171v-40h-348q2 -70 40.5 -117t102.5 -47q53 0 86.5 29t46.5 68l68 -33q-22 -56 -72.5 -96t-130.5 -40q-65 0 -116 28.5zM388 287q-10 136 -126 136q-59 0 -92 -37t-42 -99h260z
M122 577.5q-19 17.5 -19 41.5q0 25 19 43t45 18t45 -18t19 -43q0 -24 -19 -41.5t-46 -17.5q-25 0 -44 17.5zM317.5 577.5q-18.5 17.5 -18.5 41.5q0 25 18.5 43t44.5 18t45 -17.5t19 -42.5t-19 -42.5t-46 -17.5q-25 0 -43.5 17.5z" />
    <glyph glyph-name="igrave" unicode="&#xec;" horiz-adv-x="205" 
d="M63 0v478h85v-478h-85zM86 540l-118 143h108l89 -143h-79z" />
    <glyph glyph-name="iacute" unicode="&#xed;" horiz-adv-x="205" 
d="M63 0v478h85v-478h-85zM61 540l89 143h108l-119 -143h-78z" />
    <glyph glyph-name="icircumflex" unicode="&#xee;" horiz-adv-x="205" 
d="M63 0v478h85v-478h-85zM-33 539l100 144h76l101 -144h-78l-60 84l-61 -84h-78z" />
    <glyph glyph-name="idieresis" unicode="&#xef;" horiz-adv-x="205" 
d="M63 0v478h85v-478h-85zM-18.5 567q-16.5 16 -16.5 38t16.5 38.5t39.5 16.5q22 0 38.5 -16t16.5 -39q0 -22 -16.5 -38t-39.5 -16q-22 0 -38.5 16zM151.5 567q-16.5 16 -16.5 38q0 23 16.5 39t38.5 16q23 0 39.5 -16t16.5 -39q0 -22 -16.5 -38t-40.5 -16q-21 0 -37.5 16z
" />
    <glyph glyph-name="eth" unicode="&#xf0;" horiz-adv-x="572" 
d="M161.5 15q-56.5 29 -90 86t-33.5 136q0 75 30.5 133.5t83.5 90.5t116 32q47 0 81.5 -15.5t63.5 -39.5q-26 72 -103 136l-128 -54l-23 52l98 41q-59 37 -118 55l26 59q90 -26 165 -83l145 61l24 -51l-120 -51q73 -70 114 -160t41 -186q0 -86 -32 -147t-88.5 -92.5
t-127.5 -31.5q-68 0 -124.5 29zM404 108q44 50 44 130t-44 131t-122 51q-74 0 -116.5 -47t-42.5 -132t43 -134t118 -49q76 0 120 50z" />
    <glyph glyph-name="ntilde" unicode="&#xf1;" horiz-adv-x="518" 
d="M63 478h85v-77h1q20 47 60.5 69.5t91.5 22.5q68 0 114 -40.5t46 -120.5v-332h-85v316q0 47 -24.5 75t-70.5 28q-57 0 -95 -44t-38 -121v-254h-85v478zM308.5 555.5q-18.5 8.5 -46.5 26.5q-20 12 -33 18t-26 6q-18 0 -33 -14.5t-25 -40.5l-57 27q19 45 45.5 70t64.5 25
q23 0 41.5 -8t39.5 -22q24 -16 36 -22.5t26 -6.5q18 0 33.5 14t24.5 41l57 -22q-18 -47 -45.5 -73.5t-62.5 -26.5q-21 0 -39.5 8.5z" />
    <glyph glyph-name="ograve" unicode="&#xf2;" horiz-adv-x="538" 
d="M153.5 14.5q-52.5 28.5 -84 85t-31.5 138.5t31.5 139.5t83.5 86.5t114 29t115 -29t85.5 -86.5t32.5 -138.5q0 -80 -31.5 -137t-84 -86.5t-116.5 -29.5q-62 0 -114.5 28.5zM374 103q41 45 41 136q0 93 -42 137.5t-105 44.5q-62 0 -103.5 -44.5t-41.5 -135.5
q0 -92 41.5 -137.5t105.5 -45.5q63 0 104 45zM250 541l-118 143h108l89 -143h-79z" />
    <glyph glyph-name="oacute" unicode="&#xf3;" horiz-adv-x="538" 
d="M153.5 14.5q-52.5 28.5 -84 85t-31.5 138.5t31.5 139.5t83.5 86.5t114 29t115 -29t85.5 -86.5t32.5 -138.5q0 -80 -31.5 -137t-84 -86.5t-116.5 -29.5q-62 0 -114.5 28.5zM374 103q41 45 41 136q0 93 -42 137.5t-105 44.5q-62 0 -103.5 -44.5t-41.5 -135.5
q0 -92 41.5 -137.5t105.5 -45.5q63 0 104 45zM225 541l89 143h108l-119 -143h-78z" />
    <glyph glyph-name="ocircumflex" unicode="&#xf4;" horiz-adv-x="538" 
d="M153.5 14.5q-52.5 28.5 -84 85t-31.5 138.5t31.5 139.5t83.5 86.5t114 29t115 -29t85.5 -86.5t32.5 -138.5q0 -80 -31.5 -137t-84 -86.5t-116.5 -29.5q-62 0 -114.5 28.5zM374 103q41 45 41 136q0 93 -42 137.5t-105 44.5q-62 0 -103.5 -44.5t-41.5 -135.5
q0 -92 41.5 -137.5t105.5 -45.5q63 0 104 45zM117 540l110 144h83l111 -144h-85l-67 84l-67 -84h-85z" />
    <glyph glyph-name="otilde" unicode="&#xf5;" horiz-adv-x="538" 
d="M153.5 14.5q-52.5 28.5 -84 85t-31.5 138.5t31.5 139.5t83.5 86.5t114 29t115 -29t85.5 -86.5t32.5 -138.5q0 -80 -31.5 -137t-84 -86.5t-116.5 -29.5q-62 0 -114.5 28.5zM374 103q41 45 41 136q0 93 -42 137.5t-105 44.5q-62 0 -103.5 -44.5t-41.5 -135.5
q0 -92 41.5 -137.5t105.5 -45.5q63 0 104 45zM304.5 556.5q-18.5 8.5 -46.5 26.5q-20 12 -33 18t-26 6q-18 0 -33 -14.5t-25 -40.5l-57 27q19 45 45.5 70t64.5 25q23 0 41.5 -8t39.5 -22q24 -16 36 -22.5t26 -6.5q18 0 33.5 14t24.5 41l57 -22q-18 -47 -45.5 -73.5
t-62.5 -26.5q-21 0 -39.5 8.5z" />
    <glyph glyph-name="odieresis" unicode="&#xf6;" horiz-adv-x="538" 
d="M153.5 14.5q-52.5 28.5 -84 85t-31.5 138.5t31.5 139.5t83.5 86.5t114 29t115 -29t85.5 -86.5t32.5 -138.5q0 -80 -31.5 -137t-84 -86.5t-116.5 -29.5q-62 0 -114.5 28.5zM374 103q41 45 41 136q0 93 -42 137.5t-105 44.5q-62 0 -103.5 -44.5t-41.5 -135.5
q0 -92 41.5 -137.5t105.5 -45.5q63 0 104 45zM127 577.5q-19 17.5 -19 41.5q0 25 19 43t45 18t45 -18t19 -43q0 -24 -19 -41.5t-46 -17.5q-25 0 -44 17.5zM322.5 577.5q-18.5 17.5 -18.5 41.5q0 25 18.5 43t44.5 18t45 -17.5t19 -42.5t-19 -42.5t-46 -17.5q-25 0 -43.5 17.5
z" />
    <glyph glyph-name="divide" unicode="&#xf7;" horiz-adv-x="623" 
d="M62 279v70h499v-70h-499zM266.5 81.5q-17.5 16.5 -17.5 41.5q0 24 17.5 41t43.5 17t43 -16.5t17 -41.5t-17.5 -41.5t-43.5 -16.5q-25 0 -42.5 16.5zM266.5 458q-17.5 17 -17.5 41t17.5 41t42.5 17q26 0 43.5 -16.5t17.5 -41.5q0 -24 -17 -41t-44 -17q-25 0 -42.5 17z" />
    <glyph glyph-name="oslash" unicode="&#xf8;" horiz-adv-x="578" 
d="M48 18l50 58q-58 71 -58 178q0 86 35 146t92.5 90.5t123.5 30.5q81 0 146 -47l46 54l46 -40l-48 -56q57 -72 57 -179q0 -85 -35 -145t-92 -90t-121 -30q-84 0 -150 48l-47 -55zM369.5 86.5q35.5 21.5 57 64t21.5 103.5q0 66 -25 111l-229 -267q42 -33 98 -33
q42 0 77.5 21.5zM384 412q-38 32 -93 32q-43 0 -79.5 -21t-59 -64t-22.5 -104q0 -66 25 -111z" />
    <glyph glyph-name="ugrave" unicode="&#xf9;" horiz-adv-x="518" 
d="M103 26q-46 40 -46 120v332h85v-317q0 -47 25 -74t70 -27q56 0 94.5 43t38.5 120v255h85v-478h-85v76h-1q-21 -46 -60 -68t-91 -22q-69 0 -115 40zM234 540l-118 143h108l89 -143h-79z" />
    <glyph glyph-name="uacute" unicode="&#xfa;" horiz-adv-x="518" 
d="M103 26q-46 40 -46 120v332h85v-317q0 -47 25 -74t70 -27q56 0 94.5 43t38.5 120v255h85v-478h-85v76h-1q-21 -46 -60 -68t-91 -22q-69 0 -115 40zM209 540l89 143h108l-119 -143h-78z" />
    <glyph glyph-name="ucircumflex" unicode="&#xfb;" horiz-adv-x="518" 
d="M103 26q-46 40 -46 120v332h85v-317q0 -47 25 -74t70 -27q56 0 94.5 43t38.5 120v255h85v-478h-85v76h-1q-21 -46 -60 -68t-91 -22q-69 0 -115 40zM101 539l110 144h83l111 -144h-85l-67 84l-67 -84h-85z" />
    <glyph glyph-name="udieresis" unicode="&#xfc;" horiz-adv-x="518" 
d="M103 26q-46 40 -46 120v332h85v-317q0 -47 25 -74t70 -27q56 0 94.5 43t38.5 120v255h85v-478h-85v76h-1q-21 -46 -60 -68t-91 -22q-69 0 -115 40zM111 576.5q-19 17.5 -19 41.5q0 25 19 43t45 18t45 -18t19 -43q0 -24 -19 -41.5t-46 -17.5q-25 0 -44 17.5zM306.5 576.5
q-18.5 17.5 -18.5 41.5q0 25 18.5 43t44.5 18t45 -17.5t19 -42.5t-19 -42.5t-46 -17.5q-25 0 -43.5 17.5z" />
    <glyph glyph-name="yacute" unicode="&#xfd;" horiz-adv-x="497" 
d="M37 -191l7 73h56q48 0 70.5 33t34.5 83l-178 480h88l134 -383l134 383h87l-193 -510q-17 -45 -37.5 -79t-60 -58.5t-99.5 -24.5q-19 0 -43 3zM211 540l89 143h108l-119 -143h-78z" />
    <glyph glyph-name="thorn" unicode="&#xfe;" horiz-adv-x="549" 
d="M63 715h85v-312h1q21 37 59.5 63.5t92.5 26.5q52 0 100 -27t79 -84t31 -141q0 -83 -30.5 -141t-78.5 -86t-101 -28q-51 0 -90.5 24t-61.5 56h-1v-266h-85v915zM387.5 114q38.5 47 38.5 128t-39 125.5t-99 44.5q-63 0 -103 -47.5t-40 -124.5t39.5 -125t102.5 -48
q62 0 100.5 47z" />
    <glyph glyph-name="ydieresis" unicode="&#xff;" horiz-adv-x="497" 
d="M37 -191l7 73h56q48 0 70.5 33t34.5 83l-178 480h88l134 -383l134 383h87l-193 -510q-17 -45 -37.5 -79t-60 -58.5t-99.5 -24.5q-19 0 -43 3zM113 576.5q-19 17.5 -19 41.5q0 25 19 43t45 18t45 -18t19 -43q0 -24 -19 -41.5t-46 -17.5q-25 0 -44 17.5zM308.5 576.5
q-18.5 17.5 -18.5 41.5q0 25 18.5 43t44.5 18t45 -17.5t19 -42.5t-19 -42.5t-46 -17.5q-25 0 -43.5 17.5z" />
    <glyph glyph-name="Amacron" unicode="&#x100;" horiz-adv-x="688" 
d="M28 0l259 715h113l260 -715h-93l-70 194h-308l-70 -194h-91zM219 278h248l-124 342h-1zM190 779v76h311v-76h-311z" />
    <glyph glyph-name="amacron" unicode="&#x101;" horiz-adv-x="540" 
d="M98 23q-45 37 -45 102q0 59 37.5 93t87.5 48.5t120 25.5q39 6 55.5 10t23.5 12t7 24q0 38 -30 61.5t-77 23.5q-53 0 -84.5 -27t-43.5 -62l-73 39q18 49 68 84.5t133 35.5q87 0 139 -45t49 -135l-6 -209q-2 -52 43 -47v-68l-19 -2q-59 0 -80 26.5t-21 86.5h-1
q-16 -51 -57.5 -82.5t-108.5 -31.5q-72 0 -117 37zM305.5 79q36.5 23 56.5 58.5t21 73.5l1 47q-16 -19 -61 -27q-76 -15 -110.5 -24.5t-54.5 -27.5t-20 -51q0 -35 21 -53.5t62 -18.5q48 0 84.5 23zM113 570v76h311v-76h-311z" />
    <glyph glyph-name="Abreve" unicode="&#x102;" horiz-adv-x="688" 
d="M28 0l259 715h113l260 -715h-93l-70 194h-308l-70 -194h-91zM219 278h248l-124 342h-1zM238.5 789q-42.5 42 -42.5 106h75q0 -38 21.5 -62t54.5 -24q34 0 54.5 24.5t20.5 61.5h74q0 -40 -18.5 -74t-52 -54t-78.5 -20q-66 0 -108.5 42z" />
    <glyph glyph-name="abreve" unicode="&#x103;" horiz-adv-x="540" 
d="M98 23q-45 37 -45 102q0 59 37.5 93t87.5 48.5t120 25.5q39 6 55.5 10t23.5 12t7 24q0 38 -30 61.5t-77 23.5q-53 0 -84.5 -27t-43.5 -62l-73 39q18 49 68 84.5t133 35.5q87 0 139 -45t49 -135l-6 -209q-2 -52 43 -47v-68l-19 -2q-59 0 -80 26.5t-21 86.5h-1
q-16 -51 -57.5 -82.5t-108.5 -31.5q-72 0 -117 37zM305.5 79q36.5 23 56.5 58.5t21 73.5l1 47q-16 -19 -61 -27q-76 -15 -110.5 -24.5t-54.5 -27.5t-20 -51q0 -35 21 -53.5t62 -18.5q48 0 84.5 23zM161.5 580q-42.5 42 -42.5 106h75q0 -38 21.5 -62t54.5 -24q34 0 54.5 24.5
t20.5 61.5h74q0 -40 -18.5 -74t-52 -54t-78.5 -20q-66 0 -108.5 42z" />
    <glyph glyph-name="Aogonek" unicode="&#x104;" horiz-adv-x="688" 
d="M508 -194.5q-24 24.5 -24 60.5q0 35 24 69.5t65 64.5h-6l-70 194h-308l-70 -194h-91l259 715h113l260 -715h-14q-92 -65 -92 -119q0 -18 11 -29t32 -11q17 0 31.5 7t31.5 19l7 -55q-16 -14 -42 -22.5t-51 -8.5q-42 0 -66 24.5zM219 278h248l-124 342h-1z" />
    <glyph glyph-name="aogonek" unicode="&#x105;" horiz-adv-x="540" 
d="M353 -194.5q-24 24.5 -24 60.5q0 35 24 69.5t65 64.5h1q-37 24 -37 100h-1q-16 -51 -57.5 -82.5t-108.5 -31.5q-72 0 -117 37t-45 102q0 59 37.5 93t87.5 48.5t120 25.5q39 6 55.5 10t23.5 12t7 24q0 38 -30 61.5t-77 23.5q-53 0 -84.5 -27t-43.5 -62l-73 39
q18 49 68 84.5t133 35.5q87 0 139 -45t49 -135l-6 -209q-2 -52 43 -47v-68q-10 -2 -29 -2q-74 -58 -74 -106q0 -18 11 -29t32 -11q17 0 31.5 7t31.5 19l7 -55q-16 -13 -42 -22t-51 -9q-42 0 -66 24.5zM305.5 79q36.5 23 56.5 58.5t21 73.5l1 47q-16 -19 -61 -27
q-76 -15 -110.5 -24.5t-54.5 -27.5t-20 -51q0 -35 21 -53.5t62 -18.5q48 0 84.5 23z" />
    <glyph glyph-name="Cacute" unicode="&#x106;" horiz-adv-x="707" 
d="M206 28.5q-75 43.5 -118.5 128t-43.5 202.5q0 119 44 203t117.5 126t161.5 42q119 0 189 -68t95 -158l-91 -32q-19 74 -67 125.5t-131 51.5q-63 0 -114.5 -33t-81.5 -98.5t-30 -157.5q0 -94 31 -160t84 -100t120 -34q86 0 131 48t55 110l91 -17q-12 -57 -44 -107
t-90 -82.5t-140 -32.5q-93 0 -168 43.5zM317 757l89 143h108l-119 -143h-78z" />
    <glyph glyph-name="cacute" unicode="&#x107;" horiz-adv-x="528" 
d="M151 15q-53 29 -83 86t-30 137q0 83 32 140.5t85 86t117 28.5q71 0 124 -37t76 -107l-83 -28q-29 100 -119 100q-65 0 -104.5 -48.5t-39.5 -133.5q0 -62 21 -102.5t54 -59.5t71 -19q44 0 77.5 25.5t43.5 81.5l88 -3q-14 -83 -69.5 -129.5t-140.5 -46.5q-67 0 -120 29z
M229 541l89 143h108l-119 -143h-78z" />
    <glyph glyph-name="Ccircumflex" unicode="&#x108;" horiz-adv-x="707" 
d="M206 28.5q-75 43.5 -118.5 128t-43.5 202.5q0 119 44 203t117.5 126t161.5 42q119 0 189 -68t95 -158l-91 -32q-19 74 -67 125.5t-131 51.5q-63 0 -114.5 -33t-81.5 -98.5t-30 -157.5q0 -94 31 -160t84 -100t120 -34q86 0 131 48t55 110l91 -17q-12 -57 -44 -107
t-90 -82.5t-140 -32.5q-93 0 -168 43.5zM209 756l110 144h83l111 -144h-85l-67 84l-67 -84h-85z" />
    <glyph glyph-name="ccircumflex" unicode="&#x109;" horiz-adv-x="528" 
d="M151 15q-53 29 -83 86t-30 137q0 83 32 140.5t85 86t117 28.5q71 0 124 -37t76 -107l-83 -28q-29 100 -119 100q-65 0 -104.5 -48.5t-39.5 -133.5q0 -62 21 -102.5t54 -59.5t71 -19q44 0 77.5 25.5t43.5 81.5l88 -3q-14 -83 -69.5 -129.5t-140.5 -46.5q-67 0 -120 29z
M121 540l110 144h83l111 -144h-85l-67 84l-67 -84h-85z" />
    <glyph glyph-name="Cdotaccent" unicode="&#x10a;" horiz-adv-x="707" 
d="M206 28.5q-75 43.5 -118.5 128t-43.5 202.5q0 119 44 203t117.5 126t161.5 42q119 0 189 -68t95 -158l-91 -32q-19 74 -67 125.5t-131 51.5q-63 0 -114.5 -33t-81.5 -98.5t-30 -157.5q0 -94 31 -160t84 -100t120 -34q86 0 131 48t55 110l91 -17q-12 -57 -44 -107
t-90 -82.5t-140 -32.5q-93 0 -168 43.5zM315 792.5q-18 16.5 -18 40.5q0 25 18 42.5t44 17.5t44.5 -16.5t18.5 -40.5q0 -25 -18 -42.5t-45 -17.5q-26 0 -44 16.5z" />
    <glyph glyph-name="cdotaccent" unicode="&#x10b;" horiz-adv-x="528" 
d="M151 15q-53 29 -83 86t-30 137q0 83 32 140.5t85 86t117 28.5q71 0 124 -37t76 -107l-83 -28q-29 100 -119 100q-65 0 -104.5 -48.5t-39.5 -133.5q0 -62 21 -102.5t54 -59.5t71 -19q44 0 77.5 25.5t43.5 81.5l88 -3q-14 -83 -69.5 -129.5t-140.5 -46.5q-67 0 -120 29z
M227 576.5q-18 16.5 -18 40.5q0 25 18 42.5t44 17.5t44.5 -16.5t18.5 -40.5q0 -25 -18 -42.5t-45 -17.5q-26 0 -44 16.5z" />
    <glyph glyph-name="Ccaron" unicode="&#x10c;" horiz-adv-x="707" 
d="M206 28.5q-75 43.5 -118.5 128t-43.5 202.5q0 119 44 203t117.5 126t161.5 42q119 0 189 -68t95 -158l-91 -32q-19 74 -67 125.5t-131 51.5q-63 0 -114.5 -33t-81.5 -98.5t-30 -157.5q0 -94 31 -160t84 -100t120 -34q86 0 131 48t55 110l91 -17q-12 -57 -44 -107
t-90 -82.5t-140 -32.5q-93 0 -168 43.5zM321 756l-111 144h85l68 -86l68 86h85l-113 -144h-82z" />
    <glyph glyph-name="ccaron" unicode="&#x10d;" horiz-adv-x="528" 
d="M151 15q-53 29 -83 86t-30 137q0 83 32 140.5t85 86t117 28.5q71 0 124 -37t76 -107l-83 -28q-29 100 -119 100q-65 0 -104.5 -48.5t-39.5 -133.5q0 -62 21 -102.5t54 -59.5t71 -19q44 0 77.5 25.5t43.5 81.5l88 -3q-14 -83 -69.5 -129.5t-140.5 -46.5q-67 0 -120 29z
M233 540l-111 144h85l68 -86l68 86h85l-113 -144h-82z" />
    <glyph glyph-name="Dcaron" unicode="&#x10e;" horiz-adv-x="658" 
d="M72 715h220q106 0 178.5 -45t108 -125.5t35.5 -185.5q0 -109 -37.5 -190t-110 -125t-174.5 -44h-220v715zM293 82q113 0 172.5 72.5t59.5 202.5q0 131 -59.5 203.5t-172.5 72.5h-133v-551h133zM281 751l-111 144h85l68 -86l68 86h85l-113 -144h-82z" />
    <glyph glyph-name="dcaron" unicode="&#x10f;" horiz-adv-x="549" 
d="M148.5 13.5q-48.5 27.5 -79.5 85t-31 143.5q0 82 29 138.5t76 84.5t101 28q56 0 94.5 -26.5t61.5 -62.5h1v311h85v-715h-85v73h-1q-21 -35 -59 -61t-92 -26q-52 0 -100.5 27.5zM335.5 81q32.5 24 50.5 67t18 99q0 82 -39 127.5t-104 45.5q-62 0 -100 -44t-38 -131
q0 -89 39 -138.5t99 -49.5q42 0 74.5 24zM545 539l39 176h88l-63 -176h-64z" />
    <glyph glyph-name="Dcroat" unicode="&#x110;" horiz-adv-x="658" 
d="M72 330h-73v69h73v316h220q106 0 178.5 -45t108 -125.5t35.5 -185.5q0 -109 -37.5 -190t-110 -125t-174.5 -44h-220v330zM293 82q113 0 172.5 72.5t59.5 202.5q0 131 -59.5 203.5t-172.5 72.5h-133v-234h172v-69h-172v-248h133z" />
    <glyph glyph-name="dcroat" unicode="&#x111;" horiz-adv-x="549" 
d="M148.5 13.5q-48.5 27.5 -79.5 85t-31 143.5q0 82 29 138.5t76 84.5t101 28q56 0 94.5 -26.5t61.5 -62.5h1v123h-138v69h138v119h85v-119h61v-69h-61v-527h-85v73h-1q-21 -35 -59 -61t-92 -26q-52 0 -100.5 27.5zM335.5 81q32.5 24 50.5 67t18 99q0 82 -39 127.5
t-104 45.5q-62 0 -100 -44t-38 -131q0 -89 39 -138.5t99 -49.5q42 0 74.5 24z" />
    <glyph glyph-name="Emacron" unicode="&#x112;" horiz-adv-x="592" 
d="M72 0v715h462v-82h-374v-227h332v-81h-332v-243h374v-82h-462zM159 779v76h311v-76h-311z" />
    <glyph glyph-name="emacron" unicode="&#x113;" horiz-adv-x="515" 
d="M150 14.5q-51 28.5 -80.5 85t-29.5 136.5q0 79 29 137t81 89t120 31q95 0 149 -60t54 -171v-40h-348q2 -70 40.5 -117t102.5 -47q53 0 86.5 29t46.5 68l68 -33q-22 -56 -72.5 -96t-130.5 -40q-65 0 -116 28.5zM388 287q-10 136 -126 136q-59 0 -92 -37t-42 -99h260z
M109 568v76h311v-76h-311z" />
    <glyph glyph-name="Ebreve" unicode="&#x114;" horiz-adv-x="592" 
d="M72 0v715h462v-82h-374v-227h332v-81h-332v-243h374v-82h-462zM207.5 789q-42.5 42 -42.5 106h75q0 -38 21.5 -62t54.5 -24q34 0 54.5 24.5t20.5 61.5h74q0 -40 -18.5 -74t-52 -54t-78.5 -20q-66 0 -108.5 42z" />
    <glyph glyph-name="ebreve" unicode="&#x115;" horiz-adv-x="515" 
d="M150 14.5q-51 28.5 -80.5 85t-29.5 136.5q0 79 29 137t81 89t120 31q95 0 149 -60t54 -171v-40h-348q2 -70 40.5 -117t102.5 -47q53 0 86.5 29t46.5 68l68 -33q-22 -56 -72.5 -96t-130.5 -40q-65 0 -116 28.5zM388 287q-10 136 -126 136q-59 0 -92 -37t-42 -99h260z
M157.5 578q-42.5 42 -42.5 106h75q0 -38 21.5 -62t54.5 -24q34 0 54.5 24.5t20.5 61.5h74q0 -40 -18.5 -74t-52 -54t-78.5 -20q-66 0 -108.5 42z" />
    <glyph glyph-name="Edotaccent" unicode="&#x116;" horiz-adv-x="592" 
d="M72 0v715h462v-82h-374v-227h332v-81h-332v-243h374v-82h-462zM268 787.5q-18 16.5 -18 40.5q0 25 18 42.5t44 17.5t44.5 -16.5t18.5 -40.5q0 -25 -18 -42.5t-45 -17.5q-26 0 -44 16.5z" />
    <glyph glyph-name="edotaccent" unicode="&#x117;" horiz-adv-x="515" 
d="M150 14.5q-51 28.5 -80.5 85t-29.5 136.5q0 79 29 137t81 89t120 31q95 0 149 -60t54 -171v-40h-348q2 -70 40.5 -117t102.5 -47q53 0 86.5 29t46.5 68l68 -33q-22 -56 -72.5 -96t-130.5 -40q-65 0 -116 28.5zM388 287q-10 136 -126 136q-59 0 -92 -37t-42 -99h260z
M218 576.5q-18 16.5 -18 40.5q0 25 18 42.5t44 17.5t44.5 -16.5t18.5 -40.5q0 -25 -18 -42.5t-45 -17.5q-26 0 -44 16.5z" />
    <glyph glyph-name="Eogonek" unicode="&#x118;" horiz-adv-x="592" 
d="M422 -193q-28 26 -28 64q0 33 21.5 63t63.5 66h-407v715h462v-82h-374v-227h332v-81h-332v-243h374v-82q-72 -65 -72 -113q0 -19 12.5 -32.5t33.5 -13.5q18 0 32.5 6.5t29.5 18.5l7 -54q-15 -14 -38 -22.5t-47 -8.5q-42 0 -70 26z" />
    <glyph glyph-name="eogonek" unicode="&#x119;" horiz-adv-x="515" 
d="M252 -183q-28 26 -28 65q0 50 59 104h-15q-68 0 -119.5 29.5t-80 85.5t-28.5 135t29 137t81 89t120 31q95 0 149 -60t54 -171v-40h-348q2 -70 40.5 -117t102.5 -47q53 0 86.5 29t46.5 68l68 -33q-13 -34 -40.5 -66.5t-71.5 -52.5q-65 -60 -65 -106q0 -19 12.5 -32.5
t33.5 -13.5q18 0 32.5 6.5t29.5 18.5l7 -54q-15 -14 -38 -22.5t-47 -8.5q-42 0 -70 26zM388 287q-10 136 -126 136q-59 0 -92 -37t-42 -99h260z" />
    <glyph glyph-name="Ecaron" unicode="&#x11a;" horiz-adv-x="592" 
d="M72 0v715h462v-82h-374v-227h332v-81h-332v-243h374v-82h-462zM274 751l-111 144h85l68 -86l68 86h85l-113 -144h-82z" />
    <glyph glyph-name="ecaron" unicode="&#x11b;" horiz-adv-x="515" 
d="M150 14.5q-51 28.5 -80.5 85t-29.5 136.5q0 79 29 137t81 89t120 31q95 0 149 -60t54 -171v-40h-348q2 -70 40.5 -117t102.5 -47q53 0 86.5 29t46.5 68l68 -33q-22 -56 -72.5 -96t-130.5 -40q-65 0 -116 28.5zM388 287q-10 136 -126 136q-59 0 -92 -37t-42 -99h260z
M224 540l-111 144h85l68 -86l68 86h85l-113 -144h-82z" />
    <glyph glyph-name="Gcircumflex" unicode="&#x11c;" horiz-adv-x="745" 
d="M220.5 20.5q-73.5 35.5 -125 119t-51.5 217.5q0 130 49.5 213.5t125 121.5t157.5 38q108 0 176.5 -60t97.5 -142l-90 -34q-21 63 -69 109t-124 46q-56 0 -108.5 -28.5t-87.5 -93.5t-35 -168q0 -102 35 -168t89.5 -95.5t115.5 -29.5q62 0 110 29t74.5 78t26.5 106v16h-224
v76h310v-371h-68l-6 160h-2q-4 -36 -35 -77t-83 -69.5t-116 -28.5q-69 0 -142.5 35.5zM215 755l110 144h83l111 -144h-85l-67 84l-67 -84h-85z" />
    <glyph glyph-name="gcircumflex" unicode="&#x11d;" horiz-adv-x="527" 
d="M96.5 -180.5q-62.5 33.5 -62.5 91.5q0 36 24.5 67t58.5 45v2q-32 10 -48 29t-16 43q0 29 24 51t60 30v2q-82 53 -82 135q0 50 27.5 90.5t74 64t101.5 23.5h55q39 0 55.5 11.5t21.5 35.5h-53l-67 84l-67 -84h-85l110 144h83l81 -105h88v-34q0 -39 -33 -59.5t-79 -20.5v-3
q37 -22 58.5 -58.5t21.5 -81.5q0 -52 -27.5 -91t-73.5 -59.5t-99 -20.5l-37 1q-9 1 -21 1q-20 0 -32.5 -10.5t-12.5 -27.5q0 -18 16.5 -27.5t40.5 -9.5h154q73 0 112.5 -33t39.5 -91q0 -77 -68.5 -122.5t-182.5 -45.5q-98 0 -160.5 33.5zM377.5 -127.5q50.5 19.5 50.5 69.5
q0 30 -23.5 46t-76.5 16q-24 0 -146 -4q-26 -1 -44.5 -22t-18.5 -49q0 -42 41 -59t102 -17q65 0 115.5 19.5zM336 247q30 27 30 71q0 46 -32 75.5t-83 29.5q-52 0 -83 -28.5t-31 -74.5t32 -73t84 -27q53 0 83 27z" />
    <glyph glyph-name="Gbreve" unicode="&#x11e;" horiz-adv-x="745" 
d="M220.5 20.5q-73.5 35.5 -125 119t-51.5 217.5q0 130 49.5 213.5t125 121.5t157.5 38q108 0 176.5 -60t97.5 -142l-90 -34q-21 63 -69 109t-124 46q-56 0 -108.5 -28.5t-87.5 -93.5t-35 -168q0 -102 35 -168t89.5 -95.5t115.5 -29.5q62 0 110 29t74.5 78t26.5 106v16h-224
v76h310v-371h-68l-6 160h-2q-4 -36 -35 -77t-83 -69.5t-116 -28.5q-69 0 -142.5 35.5zM260.5 793q-42.5 42 -42.5 106h75q0 -38 21.5 -62t54.5 -24q34 0 54.5 24.5t20.5 61.5h74q0 -40 -18.5 -74t-52 -54t-78.5 -20q-66 0 -108.5 42z" />
    <glyph glyph-name="gbreve" unicode="&#x11f;" horiz-adv-x="527" 
d="M96.5 -180.5q-62.5 33.5 -62.5 91.5q0 36 24.5 67t58.5 45v2q-32 10 -48 29t-16 43q0 29 24 51t60 30v2q-82 53 -82 135q0 50 27.5 90.5t74 64t101.5 23.5h55q36 0 53 10.5t21.5 27.5t4.5 48h88v-34q0 -39 -33 -59.5t-79 -20.5v-3q37 -22 58.5 -58.5t21.5 -81.5
q0 -52 -27.5 -91t-73.5 -59.5t-99 -20.5l-37 1q-9 1 -21 1q-20 0 -32.5 -10.5t-12.5 -27.5q0 -18 16.5 -27.5t40.5 -9.5h154q73 0 112.5 -33t39.5 -91q0 -77 -68.5 -122.5t-182.5 -45.5q-98 0 -160.5 33.5zM377.5 -127.5q50.5 19.5 50.5 69.5q0 30 -23.5 46t-76.5 16
q-24 0 -146 -4q-26 -1 -44.5 -22t-18.5 -49q0 -42 41 -59t102 -17q65 0 115.5 19.5zM336 247q30 27 30 71q0 46 -32 75.5t-83 29.5q-52 0 -83 -28.5t-31 -74.5t32 -73t84 -27q53 0 83 27zM163.5 578q-42.5 42 -42.5 106h75q0 -38 21.5 -62t54.5 -24q34 0 54.5 24.5
t20.5 61.5h74q0 -40 -18.5 -74t-52 -54t-78.5 -20q-66 0 -108.5 42z" />
    <glyph glyph-name="Gdotaccent" unicode="&#x120;" horiz-adv-x="745" 
d="M220.5 20.5q-73.5 35.5 -125 119t-51.5 217.5q0 130 49.5 213.5t125 121.5t157.5 38q108 0 176.5 -60t97.5 -142l-90 -34q-21 63 -69 109t-124 46q-56 0 -108.5 -28.5t-87.5 -93.5t-35 -168q0 -102 35 -168t89.5 -95.5t115.5 -29.5q62 0 110 29t74.5 78t26.5 106v16h-224
v76h310v-371h-68l-6 160h-2q-4 -36 -35 -77t-83 -69.5t-116 -28.5q-69 0 -142.5 35.5zM321 791.5q-18 16.5 -18 40.5q0 25 18 42.5t44 17.5t44.5 -16.5t18.5 -40.5q0 -25 -18 -42.5t-45 -17.5q-26 0 -44 16.5z" />
    <glyph glyph-name="gdotaccent" unicode="&#x121;" horiz-adv-x="527" 
d="M96.5 -180.5q-62.5 33.5 -62.5 91.5q0 36 24.5 67t58.5 45v2q-32 10 -48 29t-16 43q0 29 24 51t60 30v2q-82 53 -82 135q0 50 27.5 90.5t74 64t101.5 23.5h55q36 0 53 10.5t21.5 27.5t4.5 48h88v-34q0 -39 -33 -59.5t-79 -20.5v-3q37 -22 58.5 -58.5t21.5 -81.5
q0 -52 -27.5 -91t-73.5 -59.5t-99 -20.5l-37 1q-9 1 -21 1q-20 0 -32.5 -10.5t-12.5 -27.5q0 -18 16.5 -27.5t40.5 -9.5h154q73 0 112.5 -33t39.5 -91q0 -77 -68.5 -122.5t-182.5 -45.5q-98 0 -160.5 33.5zM377.5 -127.5q50.5 19.5 50.5 69.5q0 30 -23.5 46t-76.5 16
q-24 0 -146 -4q-26 -1 -44.5 -22t-18.5 -49q0 -42 41 -59t102 -17q65 0 115.5 19.5zM336 247q30 27 30 71q0 46 -32 75.5t-83 29.5q-52 0 -83 -28.5t-31 -74.5t32 -73t84 -27q53 0 83 27zM224 576.5q-18 16.5 -18 40.5q0 25 18 42.5t44 17.5t44.5 -16.5t18.5 -40.5
q0 -25 -18 -42.5t-45 -17.5q-26 0 -44 16.5z" />
    <glyph glyph-name="uni0122" unicode="&#x122;" horiz-adv-x="745" 
d="M220.5 20.5q-73.5 35.5 -125 119t-51.5 217.5q0 130 49.5 213.5t125 121.5t157.5 38q108 0 176.5 -60t97.5 -142l-90 -34q-21 63 -69 109t-124 46q-56 0 -108.5 -28.5t-87.5 -93.5t-35 -168q0 -102 35 -168t89.5 -95.5t115.5 -29.5q62 0 110 29t74.5 78t26.5 106v16h-224
v76h310v-371h-68l-6 160h-2q-4 -36 -35 -77t-83 -69.5t-116 -28.5q-69 0 -142.5 35.5zM305 -206l28 143h98l-59 -143h-67z" />
    <glyph glyph-name="uni0123" unicode="&#x123;" horiz-adv-x="527" 
d="M96.5 -180.5q-62.5 33.5 -62.5 91.5q0 36 24.5 67t58.5 45v2q-32 10 -48 29t-16 43q0 29 24 51t60 30v2q-82 53 -82 135q0 50 27.5 90.5t74 64t101.5 23.5h55q36 0 53 10.5t21.5 27.5t4.5 48h88v-34q0 -39 -33 -59.5t-79 -20.5v-3q37 -22 58.5 -58.5t21.5 -81.5
q0 -52 -27.5 -91t-73.5 -59.5t-99 -20.5l-37 1q-9 1 -21 1q-20 0 -32.5 -10.5t-12.5 -27.5q0 -18 16.5 -27.5t40.5 -9.5h154q73 0 112.5 -33t39.5 -91q0 -77 -68.5 -122.5t-182.5 -45.5q-98 0 -160.5 33.5zM377.5 -127.5q50.5 19.5 50.5 69.5q0 30 -23.5 46t-76.5 16
q-24 0 -146 -4q-26 -1 -44.5 -22t-18.5 -49q0 -42 41 -59t102 -17q65 0 115.5 19.5zM336 247q30 27 30 71q0 46 -32 75.5t-83 29.5q-52 0 -83 -28.5t-31 -74.5t32 -73t84 -27q53 0 83 27zM221 542l59 143h67l-28 -143h-98z" />
    <glyph glyph-name="Hcircumflex" unicode="&#x124;" horiz-adv-x="692" 
d="M72 0v715h88v-307h372v307h88v-715h-88v326h-372v-326h-88zM193 751l110 144h83l111 -144h-85l-67 84l-67 -84h-85z" />
    <glyph glyph-name="hcircumflex" unicode="&#x125;" horiz-adv-x="518" 
d="M63 715h85v-324h1q43 102 150 102q69 0 115.5 -40.5t46.5 -125.5v-327h-85v309q0 53 -24 81t-70 28q-58 0 -96 -44t-38 -129v-245h-85v715zM115 746l110 144h83l111 -144h-85l-67 84l-67 -84h-85z" />
    <glyph glyph-name="Hbar" unicode="&#x126;" horiz-adv-x="692" 
d="M72 0v518h-84v67h84v130h88v-130h372v130h88v-130h84v-67h-84v-518h-88v326h-372v-326h-88zM160 408h372v110h-372v-110z" />
    <glyph glyph-name="hbar" unicode="&#x127;" horiz-adv-x="518" 
d="M63 569h-63v69h63v77h85v-77h127v-69h-127v-178h1q43 102 150 102q69 0 115.5 -40.5t46.5 -125.5v-327h-85v309q0 53 -24 81t-70 28q-58 0 -96 -44t-38 -129v-245h-85v569z" />
    <glyph glyph-name="Itilde" unicode="&#x128;" horiz-adv-x="232" 
d="M72 0v715h88v-715h-88zM147 767.5q-16 8.5 -42 26.5q-18 13 -29.5 18.5t-23.5 5.5q-33 0 -52 -55l-51 27q34 95 97 95q22 0 39 -8t36 -22q19 -15 30.5 -22t24.5 -7q17 0 31 14t22 41l51 -22q-16 -47 -41 -73.5t-56 -26.5q-20 0 -36 8.5z" />
    <glyph glyph-name="itilde" unicode="&#x129;" horiz-adv-x="205" 
d="M137 555.5q-16 8.5 -42 26.5q-18 13 -29.5 18.5t-23.5 5.5q-33 0 -52 -55l-51 27q34 95 97 95q22 0 39 -8t36 -22q19 -15 30.5 -22t24.5 -7q17 0 31 14t22 41l51 -22q-16 -47 -41 -73.5t-56 -26.5q-20 0 -36 8.5zM63 0v478h85v-478h-85z" />
    <glyph glyph-name="Imacron" unicode="&#x12a;" horiz-adv-x="232" 
d="M72 0v715h88v-715h-88zM-24 779v76h280v-76h-280z" />
    <glyph glyph-name="imacron" unicode="&#x12b;" horiz-adv-x="205" 
d="M63 0v478h85v-478h-85zM-34 567v76h280v-76h-280z" />
    <glyph glyph-name="Ibreve" unicode="&#x12c;" horiz-adv-x="232" 
d="M72 0v715h88v-715h-88zM19 789.5q-38 42.5 -38 105.5h67q0 -38 19 -62t49 -24q31 0 49.5 24.5t18.5 61.5h67q0 -63 -37 -105.5t-97 -42.5t-98 42.5z" />
    <glyph glyph-name="ibreve" unicode="&#x12d;" horiz-adv-x="205" 
d="M63 0v478h85v-478h-85zM9 577.5q-38 42.5 -38 105.5h67q0 -38 19 -62t49 -24q31 0 49.5 24.5t18.5 61.5h67q0 -63 -37 -105.5t-97 -42.5t-98 42.5z" />
    <glyph glyph-name="Iogonek" unicode="&#x12e;" horiz-adv-x="232" 
d="M48 -193q-28 26 -28 64q0 33 21.5 63t63.5 66h-33v715h88v-715q-72 -65 -72 -113q0 -19 12.5 -32.5t33.5 -13.5q18 0 32.5 6.5t29.5 18.5l7 -54q-15 -14 -38 -22.5t-47 -8.5q-42 0 -70 26z" />
    <glyph glyph-name="iogonek" unicode="&#x12f;" horiz-adv-x="205" 
d="M30 -193q-28 26 -28 64q0 33 21.5 63t63.5 66h-24v478h85v-478h-6q-72 -65 -72 -113q0 -19 12.5 -32.5t33.5 -13.5q18 0 32.5 6.5t29.5 18.5l7 -54q-15 -14 -38 -22.5t-47 -8.5q-42 0 -70 26zM62 580q-17 17 -17 42t17 42t44 17q26 0 43 -17t17 -42t-17 -42t-43 -17
q-27 0 -44 17z" />
    <glyph glyph-name="Idotaccent" unicode="&#x130;" horiz-adv-x="232" 
d="M72 0v715h88v-715h-88zM69 787.5q-18 16.5 -18 40.5q0 25 18 42.5t44 17.5t44.5 -16.5t18.5 -40.5q0 -25 -18 -42.5t-45 -17.5q-26 0 -44 16.5z" />
    <glyph glyph-name="dotlessi" unicode="&#x131;" horiz-adv-x="205" 
d="M63 0v478h85v-478h-85z" />
    <glyph glyph-name="Jcircumflex" unicode="&#x134;" horiz-adv-x="572" 
d="M157.5 17q-51.5 32 -76 80.5t-28.5 100.5l90 16q5 -62 39.5 -105t111.5 -43q62 0 92 31.5t30 89.5v528h88v-513q0 -104 -56 -160.5t-159 -56.5q-80 0 -131.5 32zM301 751l110 144h83l111 -144h-85l-67 84l-67 -84h-85z" />
    <glyph glyph-name="jcircumflex" unicode="&#x135;" horiz-adv-x="233" 
d="M-25 -196l10 70q18 -2 35 -2q46 0 58.5 22t12.5 56v528h85v-525q0 -73 -39 -113t-109 -40q-29 0 -53 4zM2 539l99 144h74l100 -144h-76l-61 84l-60 -84h-76z" />
    <glyph glyph-name="uni0136" unicode="&#x136;" horiz-adv-x="637" 
d="M72 0v715h88v-379l324 379h111l-291 -331l312 -384h-113l-258 317l-85 -96v-221h-88zM266 -206l28 143h98l-59 -143h-67z" />
    <glyph glyph-name="uni0137" unicode="&#x137;" horiz-adv-x="497" 
d="M63 0v715h85v-459l204 222h104l-192 -203l206 -275h-105l-158 212l-59 -60v-152h-85zM188 -206l28 143h98l-59 -143h-67z" />
    <glyph glyph-name="kgreenlandic" unicode="&#x138;" horiz-adv-x="492" 
d="M63 0v478h85v-222l200 222h103l-188 -203l202 -275h-104l-155 212l-58 -60v-152h-85z" />
    <glyph glyph-name="Lacute" unicode="&#x139;" horiz-adv-x="561" 
d="M72 0v715h88v-629h351v-86h-439zM73 752l89 143h108l-119 -143h-78z" />
    <glyph glyph-name="lacute" unicode="&#x13a;" horiz-adv-x="205" 
d="M63 0v715h85v-715h-85zM61 762l89 143h108l-119 -143h-78z" />
    <glyph glyph-name="uni013B" unicode="&#x13b;" horiz-adv-x="561" 
d="M72 0v715h88v-629h351v-86h-439zM218 -206l28 143h98l-59 -143h-67z" />
    <glyph glyph-name="uni013C" unicode="&#x13c;" horiz-adv-x="205" 
d="M63 0v715h85v-715h-85zM30 -206l28 143h98l-59 -143h-67z" />
    <glyph glyph-name="Lcaron" unicode="&#x13d;" horiz-adv-x="561" 
d="M72 0v715h88v-629h351v-86h-439zM285 539l39 176h88l-63 -176h-64z" />
    <glyph glyph-name="lcaron" unicode="&#x13e;" horiz-adv-x="205" 
d="M63 0v715h85v-715h-85zM207 539l39 176h88l-63 -176h-64z" />
    <glyph glyph-name="Ldot" unicode="&#x13f;" horiz-adv-x="561" 
d="M72 0v715h88v-629h351v-86h-439zM317.5 327.5q-18.5 18.5 -18.5 44.5q0 25 19 43.5t47 18.5t46.5 -18.5t18.5 -43.5q0 -27 -19 -45t-47 -18t-46.5 18.5z" />
    <glyph glyph-name="ldot" unicode="&#x140;" horiz-adv-x="453" 
d="M63 0v715h85v-715h-85zM291.5 261.5q-18.5 18.5 -18.5 44.5q0 25 19 43.5t47 18.5t46.5 -18.5t18.5 -43.5q0 -27 -19 -45t-47 -18t-46.5 18.5z" />
    <glyph glyph-name="Lslash" unicode="&#x141;" horiz-adv-x="561" 
d="M72 0v226l-50 -28l-30 74l80 46v397h88v-347l189 108l34 -73l-223 -127v-190h351v-86h-439z" />
    <glyph glyph-name="lslash" unicode="&#x142;" horiz-adv-x="327" 
d="M121 0v288l-94 -60v93l94 60v334h85v-279l94 60v-93l-94 -60v-343h-85z" />
    <glyph glyph-name="Nacute" unicode="&#x143;" horiz-adv-x="698" 
d="M72 0v715h96l370 -578h1v578h87v-715h-96l-370 580h-1v-580h-87zM319 752l89 143h108l-119 -143h-78z" />
    <glyph glyph-name="nacute" unicode="&#x144;" horiz-adv-x="518" 
d="M63 478h85v-77h1q20 47 60.5 69.5t91.5 22.5q68 0 114 -40.5t46 -120.5v-332h-85v316q0 47 -24.5 75t-70.5 28q-57 0 -95 -44t-38 -121v-254h-85v478zM229 540l89 143h108l-119 -143h-78z" />
    <glyph glyph-name="uni0145" unicode="&#x145;" horiz-adv-x="698" 
d="M72 0v715h96l370 -578h1v578h87v-715h-96l-370 580h-1v-580h-87zM285 -206l28 143h98l-59 -143h-67z" />
    <glyph glyph-name="uni0146" unicode="&#x146;" horiz-adv-x="518" 
d="M63 478h85v-77h1q20 47 60.5 69.5t91.5 22.5q68 0 114 -40.5t46 -120.5v-332h-85v316q0 47 -24.5 75t-70.5 28q-57 0 -95 -44t-38 -121v-254h-85v478zM183 -206l28 143h98l-59 -143h-67z" />
    <glyph glyph-name="Ncaron" unicode="&#x147;" horiz-adv-x="698" 
d="M72 0v715h96l370 -578h1v578h87v-715h-96l-370 580h-1v-580h-87zM323 751l-111 144h85l68 -86l68 86h85l-113 -144h-82z" />
    <glyph glyph-name="ncaron" unicode="&#x148;" horiz-adv-x="518" 
d="M63 478h85v-77h1q20 47 60.5 69.5t91.5 22.5q68 0 114 -40.5t46 -120.5v-332h-85v316q0 47 -24.5 75t-70.5 28q-57 0 -95 -44t-38 -121v-254h-85v478zM233 539l-111 144h85l68 -86l68 86h85l-113 -144h-82z" />
    <glyph glyph-name="Eng" unicode="&#x14a;" horiz-adv-x="698" 
d="M427.5 -182.5q-31.5 17.5 -47.5 39.5l51 50q9 -14 26 -26t39 -12q45 0 45 59v72h-11l-370 580h-1v-580h-87v715h96l370 -578h1v578h87v-776q0 -63 -32.5 -101t-91.5 -38q-43 0 -74.5 17.5z" />
    <glyph glyph-name="eng" unicode="&#x14b;" horiz-adv-x="518" 
d="M262.5 -182.5q-31.5 17.5 -47.5 39.5l51 50q9 -14 26 -26t39 -12q45 0 45 59v388q0 47 -24.5 75t-70.5 28q-57 0 -95 -44t-38 -121v-254h-85v478h85v-77h1q20 47 60.5 69.5t91.5 22.5q68 0 114 -40.5t46 -120.5v-393q0 -63 -32.5 -101t-91.5 -38q-43 0 -74.5 17.5z" />
    <glyph glyph-name="Omacron" unicode="&#x14c;" horiz-adv-x="736" 
d="M214 23.5q-74 38.5 -122 123t-48 212.5q0 129 48.5 212.5t123 121t155.5 37.5t154 -38t120 -121t47 -210q0 -128 -48 -212.5t-122 -124t-154 -39.5t-154 38.5zM484.5 97q51.5 31 83.5 97t32 167q0 100 -32 164.5t-84 94t-113 29.5q-62 0 -115.5 -29.5t-86.5 -94
t-33 -164.5q0 -101 33.5 -167t87.5 -97t115 -31t112.5 31zM213 784v76h311v-76h-311z" />
    <glyph glyph-name="omacron" unicode="&#x14d;" horiz-adv-x="538" 
d="M153.5 14.5q-52.5 28.5 -84 85t-31.5 138.5t31.5 139.5t83.5 86.5t114 29t115 -29t85.5 -86.5t32.5 -138.5q0 -80 -31.5 -137t-84 -86.5t-116.5 -29.5q-62 0 -114.5 28.5zM374 103q41 45 41 136q0 93 -42 137.5t-105 44.5q-62 0 -103.5 -44.5t-41.5 -135.5
q0 -92 41.5 -137.5t105.5 -45.5q63 0 104 45zM114 568v76h311v-76h-311z" />
    <glyph glyph-name="Obreve" unicode="&#x14e;" horiz-adv-x="736" 
d="M214 23.5q-74 38.5 -122 123t-48 212.5q0 129 48.5 212.5t123 121t155.5 37.5t154 -38t120 -121t47 -210q0 -128 -48 -212.5t-122 -124t-154 -39.5t-154 38.5zM484.5 97q51.5 31 83.5 97t32 167q0 100 -32 164.5t-84 94t-113 29.5q-62 0 -115.5 -29.5t-86.5 -94
t-33 -164.5q0 -101 33.5 -167t87.5 -97t115 -31t112.5 31zM261.5 794q-42.5 42 -42.5 106h75q0 -38 21.5 -62t54.5 -24q34 0 54.5 24.5t20.5 61.5h74q0 -40 -18.5 -74t-52 -54t-78.5 -20q-66 0 -108.5 42z" />
    <glyph glyph-name="obreve" unicode="&#x14f;" horiz-adv-x="538" 
d="M153.5 14.5q-52.5 28.5 -84 85t-31.5 138.5t31.5 139.5t83.5 86.5t114 29t115 -29t85.5 -86.5t32.5 -138.5q0 -80 -31.5 -137t-84 -86.5t-116.5 -29.5q-62 0 -114.5 28.5zM374 103q41 45 41 136q0 93 -42 137.5t-105 44.5q-62 0 -103.5 -44.5t-41.5 -135.5
q0 -92 41.5 -137.5t105.5 -45.5q63 0 104 45zM162.5 578q-42.5 42 -42.5 106h75q0 -38 21.5 -62t54.5 -24q34 0 54.5 24.5t20.5 61.5h74q0 -40 -18.5 -74t-52 -54t-78.5 -20q-66 0 -108.5 42z" />
    <glyph glyph-name="Ohungarumlaut" unicode="&#x150;" horiz-adv-x="736" 
d="M214 23.5q-74 38.5 -122 123t-48 212.5q0 129 48.5 212.5t123 121t155.5 37.5t154 -38t120 -121t47 -210q0 -128 -48 -212.5t-122 -124t-154 -39.5t-154 38.5zM484.5 97q51.5 31 83.5 97t32 167q0 100 -32 164.5t-84 94t-113 29.5q-62 0 -115.5 -29.5t-86.5 -94
t-33 -164.5q0 -101 33.5 -167t87.5 -97t115 -31t112.5 31zM228 757l89 143h108l-120 -143h-77zM401 757l90 143h109l-122 -143h-77z" />
    <glyph glyph-name="ohungarumlaut" unicode="&#x151;" horiz-adv-x="538" 
d="M153.5 14.5q-52.5 28.5 -84 85t-31.5 138.5t31.5 139.5t83.5 86.5t114 29t115 -29t85.5 -86.5t32.5 -138.5q0 -80 -31.5 -137t-84 -86.5t-116.5 -29.5q-62 0 -114.5 28.5zM374 103q41 45 41 136q0 93 -42 137.5t-105 44.5q-62 0 -103.5 -44.5t-41.5 -135.5
q0 -92 41.5 -137.5t105.5 -45.5q63 0 104 45zM129 541l89 143h108l-120 -143h-77zM302 541l90 143h109l-122 -143h-77z" />
    <glyph glyph-name="OE" unicode="&#x152;" horiz-adv-x="1121" 
d="M212.5 23.5q-73.5 38.5 -121 123t-47.5 212.5q0 129 48 212.5t122 121t155 37.5q73 0 134 -32.5t98 -100.5v118h462v-82h-374v-227h332v-81h-332v-243h374v-82h-462v123q-38 -70 -99.5 -104t-136.5 -34q-79 0 -152.5 38.5zM484.5 97q51.5 31 83.5 97t32 167
q0 100 -32 164.5t-84 94t-113 29.5q-62 0 -115.5 -29.5t-86.5 -94t-33 -164.5q0 -101 33.5 -167t87.5 -97t115 -31t112.5 31z" />
    <glyph glyph-name="oe" unicode="&#x153;" horiz-adv-x="885" 
d="M153.5 14.5q-52.5 28.5 -84 85t-31.5 138.5t31.5 139.5t83.5 86.5t114 29q59 0 108.5 -26.5t78.5 -77.5q59 104 183 104q98 0 152 -59.5t54 -171.5v-40h-348q2 -70 40.5 -117t102.5 -47q53 0 86.5 29t46.5 68l68 -33q-22 -56 -72.5 -96t-128.5 -40q-62 0 -110 26t-75 76
q-29 -50 -77 -76t-108 -26q-62 0 -114.5 28.5zM374 103q41 45 41 136q0 93 -42 137.5t-105 44.5q-62 0 -103.5 -44.5t-41.5 -135.5q0 -92 41.5 -137.5t105.5 -45.5q63 0 104 45zM758 287q-10 136 -126 136q-59 0 -92 -37t-42 -99h260z" />
    <glyph glyph-name="Racute" unicode="&#x154;" horiz-adv-x="640" 
d="M72 715h270q110 0 170 -52t60 -146q0 -96 -55.5 -147t-135.5 -66l203 -302v-2h-105l-194 295h-125v-295h-88v715zM311 372q73 0 120 31t47 107q0 80 -44 102t-97 22h-177v-262h151zM268 752l89 143h108l-119 -143h-78z" />
    <glyph glyph-name="racute" unicode="&#x155;" horiz-adv-x="351" 
d="M63 478h85v-76q16 39 44 65t70 26q34 0 62 -17l-16 -79q-25 14 -57 14q-44 0 -73.5 -39.5t-29.5 -124.5v-247h-85v478zM153 541l89 143h108l-119 -143h-78z" />
    <glyph glyph-name="uni0156" unicode="&#x156;" horiz-adv-x="640" 
d="M72 715h270q110 0 170 -52t60 -146q0 -96 -55.5 -147t-135.5 -66l203 -302v-2h-105l-194 295h-125v-295h-88v715zM252 -206l28 143h98l-59 -143h-67zM311 372q73 0 120 31t47 107q0 80 -44 102t-97 22h-177v-262h151z" />
    <glyph glyph-name="uni0157" unicode="&#x157;" horiz-adv-x="351" 
d="M63 478h85v-76q16 39 44 65t70 26q34 0 62 -17l-16 -79q-25 14 -57 14q-44 0 -73.5 -39.5t-29.5 -124.5v-247h-85v478zM28 -206l28 143h98l-59 -143h-67z" />
    <glyph glyph-name="Rcaron" unicode="&#x158;" horiz-adv-x="640" 
d="M72 715h270q110 0 170 -52t60 -146q0 -96 -55.5 -147t-135.5 -66l203 -302v-2h-105l-194 295h-125v-295h-88v715zM311 372q73 0 120 31t47 107q0 80 -44 102t-97 22h-177v-262h151zM272 751l-111 144h85l68 -86l68 86h85l-113 -144h-82z" />
    <glyph glyph-name="rcaron" unicode="&#x159;" horiz-adv-x="351" 
d="M63 478h85v-76q16 39 44 65t70 26q34 0 62 -17l-16 -79q-25 14 -57 14q-44 0 -73.5 -39.5t-29.5 -124.5v-247h-85v478zM157 540l-111 144h85l68 -86l68 86h85l-113 -144h-82z" />
    <glyph glyph-name="Sacute" unicode="&#x15a;" horiz-adv-x="604" 
d="M131 36.5q-65 51.5 -85 122.5l87 42q12 -56 56 -95.5t122 -39.5q69 0 112 31t43 87q0 40 -22.5 65t-56 39t-94.5 33q-71 22 -118.5 44.5t-80 63.5t-32.5 104q0 60 29.5 104.5t82.5 68.5t121 24q69 0 118.5 -23t78 -57t37.5 -68l-80 -43q-12 44 -51 77t-107 33
q-61 0 -99 -28t-38 -80q0 -38 21 -61.5t52.5 -37.5t85.5 -31q6 -3 20 -7q72 -24 119.5 -49.5t76.5 -65.5t29 -100q0 -63 -31.5 -109t-88 -70.5t-130.5 -24.5q-112 0 -177 51.5zM250 757l89 143h108l-119 -143h-78z" />
    <glyph glyph-name="sacute" unicode="&#x15b;" horiz-adv-x="464" 
d="M88 27.5q-49 41.5 -58 98.5l78 22q7 -36 39 -63.5t91 -27.5q48 0 72.5 19.5t24.5 51.5q0 26 -15 40.5t-36 21.5t-64 17q-77 18 -125 49.5t-48 96.5q0 62 47.5 101t129.5 39q80 0 129 -35t69 -82l-74 -32q-14 32 -46 55t-82 23q-42 0 -64 -17.5t-22 -44.5q0 -26 19 -41.5
t41.5 -22.5t60.5 -15q69 -15 118 -46.5t49 -101.5q0 -64 -48 -105.5t-141 -41.5q-96 0 -145 41.5zM191 541l89 143h108l-119 -143h-78z" />
    <glyph glyph-name="Scircumflex" unicode="&#x15c;" horiz-adv-x="604" 
d="M131 36.5q-65 51.5 -85 122.5l87 42q12 -56 56 -95.5t122 -39.5q69 0 112 31t43 87q0 40 -22.5 65t-56 39t-94.5 33q-71 22 -118.5 44.5t-80 63.5t-32.5 104q0 60 29.5 104.5t82.5 68.5t121 24q69 0 118.5 -23t78 -57t37.5 -68l-80 -43q-12 44 -51 77t-107 33
q-61 0 -99 -28t-38 -80q0 -38 21 -61.5t52.5 -37.5t85.5 -31q6 -3 20 -7q72 -24 119.5 -49.5t76.5 -65.5t29 -100q0 -63 -31.5 -109t-88 -70.5t-130.5 -24.5q-112 0 -177 51.5zM142 756l110 144h83l111 -144h-85l-67 84l-67 -84h-85z" />
    <glyph glyph-name="scircumflex" unicode="&#x15d;" horiz-adv-x="464" 
d="M88 27.5q-49 41.5 -58 98.5l78 22q7 -36 39 -63.5t91 -27.5q48 0 72.5 19.5t24.5 51.5q0 26 -15 40.5t-36 21.5t-64 17q-77 18 -125 49.5t-48 96.5q0 62 47.5 101t129.5 39q80 0 129 -35t69 -82l-74 -32q-14 32 -46 55t-82 23q-42 0 -64 -17.5t-22 -44.5q0 -26 19 -41.5
t41.5 -22.5t60.5 -15q69 -15 118 -46.5t49 -101.5q0 -64 -48 -105.5t-141 -41.5q-96 0 -145 41.5zM83 540l110 144h83l111 -144h-85l-67 84l-67 -84h-85z" />
    <glyph glyph-name="Scedilla" unicode="&#x15e;" horiz-adv-x="604" 
d="M224.5 -189q-27.5 24 -35.5 57l69 7q3 -12 13 -21t28 -9t27.5 9t9.5 26q0 18 -11 28t-27 10q-20 0 -36 -14l-43 28l46 55q-95 10 -148.5 60.5t-70.5 111.5l87 42q12 -56 56 -95.5t122 -39.5q69 0 112 31t43 87q0 40 -22.5 65t-56 39t-94.5 33q-71 22 -118.5 44.5
t-80 63.5t-32.5 104q0 60 29.5 104.5t82.5 68.5t121 24q69 0 118.5 -23t78 -57t37.5 -68l-80 -43q-12 44 -51 77t-107 33q-61 0 -99 -28t-38 -80q0 -38 21 -61.5t52.5 -37.5t85.5 -31q6 -3 20 -7q73 -24 121 -50t76 -66t28 -99q0 -90 -63 -144t-167 -59l-28 -32q13 5 28 5
q35 0 58.5 -21.5t23.5 -57.5q0 -42 -30.5 -67.5t-78.5 -25.5q-49 0 -76.5 24z" />
    <glyph glyph-name="scedilla" unicode="&#x15f;" horiz-adv-x="464" 
d="M150.5 -194q-27.5 24 -35.5 57l69 7q3 -12 13 -21t28 -9t27.5 9t9.5 26q0 18 -11 28t-27 10q-20 0 -36 -14l-43 28l51 61q-80 9 -119 49.5t-47 88.5l78 22q7 -36 39 -63.5t91 -27.5q48 0 72.5 19.5t24.5 51.5q0 26 -15 40.5t-36 21.5t-64 17q-77 18 -125 49.5t-48 96.5
q0 62 47.5 101t129.5 39q80 0 129 -35t69 -82l-74 -32q-14 32 -46 55t-82 23q-42 0 -64 -17.5t-22 -44.5q0 -26 19 -41.5t41.5 -22.5t60.5 -15q69 -15 118 -46.5t49 -101.5q0 -59 -41 -99.5t-121 -46.5l-34 -38q13 5 28 5q35 0 58.5 -21.5t23.5 -57.5q0 -42 -30.5 -67.5
t-78.5 -25.5q-49 0 -76.5 24z" />
    <glyph glyph-name="Scaron" unicode="&#x160;" horiz-adv-x="604" 
d="M131 36.5q-65 51.5 -85 122.5l87 42q12 -56 56 -95.5t122 -39.5q69 0 112 31t43 87q0 40 -22.5 65t-56 39t-94.5 33q-71 22 -118.5 44.5t-80 63.5t-32.5 104q0 60 29.5 104.5t82.5 68.5t121 24q69 0 118.5 -23t78 -57t37.5 -68l-80 -43q-12 44 -51 77t-107 33
q-61 0 -99 -28t-38 -80q0 -38 21 -61.5t52.5 -37.5t85.5 -31q6 -3 20 -7q72 -24 119.5 -49.5t76.5 -65.5t29 -100q0 -63 -31.5 -109t-88 -70.5t-130.5 -24.5q-112 0 -177 51.5zM254 756l-111 144h85l68 -86l68 86h85l-113 -144h-82z" />
    <glyph glyph-name="scaron" unicode="&#x161;" horiz-adv-x="464" 
d="M88 27.5q-49 41.5 -58 98.5l78 22q7 -36 39 -63.5t91 -27.5q48 0 72.5 19.5t24.5 51.5q0 26 -15 40.5t-36 21.5t-64 17q-77 18 -125 49.5t-48 96.5q0 62 47.5 101t129.5 39q80 0 129 -35t69 -82l-74 -32q-14 32 -46 55t-82 23q-42 0 -64 -17.5t-22 -44.5q0 -26 19 -41.5
t41.5 -22.5t60.5 -15q69 -15 118 -46.5t49 -101.5q0 -64 -48 -105.5t-141 -41.5q-96 0 -145 41.5zM195 540l-111 144h85l68 -86l68 86h85l-113 -144h-82z" />
    <glyph glyph-name="uni0162" unicode="&#x162;" horiz-adv-x="630" 
d="M230.5 -194q-27.5 24 -35.5 57l69 7q3 -12 13 -21t28 -9t27.5 9t9.5 26q0 18 -11 28t-27 10q-20 0 -36 -14l-43 28l61 73h-15v633h-239v82h566v-82h-239v-633h-8l-45 -51q13 5 28 5q35 0 58.5 -21.5t23.5 -57.5q0 -42 -30.5 -67.5t-78.5 -25.5q-49 0 -76.5 24z" />
    <glyph glyph-name="uni0163" unicode="&#x163;" horiz-adv-x="364" 
d="M133.5 -194q-27.5 24 -35.5 57l69 7q3 -12 13 -21t28 -9t27.5 9t9.5 26q0 18 -11 28t-27 10q-20 0 -36 -14l-43 28l59 71q-31 12 -47 38t-16 59v313h-93v70h63q17 0 23.5 7t6.5 23v98l84 18v-146h115v-70h-115v-298q0 -50 51 -50q29 0 53 12l18 -66q-46 -19 -85 -19h-2
l-34 -38q13 5 28 5q35 0 58.5 -21.5t23.5 -57.5q0 -42 -30.5 -67.5t-78.5 -25.5q-49 0 -76.5 24z" />
    <glyph glyph-name="Tcaron" unicode="&#x164;" horiz-adv-x="630" 
d="M271 0v633h-239v82h566v-82h-239v-633h-88zM274 751l-111 144h85l68 -86l68 86h85l-113 -144h-82z" />
    <glyph glyph-name="tcaron" unicode="&#x165;" horiz-adv-x="364" 
d="M155.5 17.5q-31.5 30.5 -31.5 77.5v313h-93v70h63q17 0 23.5 7t6.5 23v98l84 18v-146h115v-70h-115v-298q0 -50 51 -50q29 0 53 12l18 -66q-46 -19 -85 -19q-58 0 -89.5 30.5zM267 563l39 176h88l-63 -176h-64z" />
    <glyph glyph-name="Tbar" unicode="&#x166;" horiz-adv-x="630" 
d="M271 0v384h-125v69h125v180h-239v82h566v-82h-239v-180h120v-69h-120v-384h-88z" />
    <glyph glyph-name="tbar" unicode="&#x167;" horiz-adv-x="364" 
d="M155.5 17.5q-31.5 30.5 -31.5 77.5v204h-79v66h79v43h-93v70h63q17 0 23.5 7t6.5 23v98l84 18v-146h115v-70h-115v-43h92v-66h-92v-189q0 -50 51 -50q29 0 53 12l18 -66q-46 -19 -85 -19q-58 0 -89.5 30.5z" />
    <glyph glyph-name="Utilde" unicode="&#x168;" horiz-adv-x="677" 
d="M201.5 14q-59.5 29 -94.5 84t-35 130v487h88v-466q0 -94 50.5 -138.5t129.5 -44.5q77 0 127 44.5t50 138.5v466h88v-487q0 -74 -37 -129.5t-98.5 -84.5t-134.5 -29q-74 0 -133.5 29zM377.5 767.5q-18.5 8.5 -46.5 26.5q-20 12 -33 18t-26 6q-18 0 -33 -14.5t-25 -40.5
l-57 27q19 45 45.5 70t64.5 25q23 0 41.5 -8t39.5 -22q24 -16 36 -22.5t26 -6.5q18 0 33.5 14t24.5 41l57 -22q-18 -47 -45.5 -73.5t-62.5 -26.5q-21 0 -39.5 8.5z" />
    <glyph glyph-name="utilde" unicode="&#x169;" horiz-adv-x="518" 
d="M103 26q-46 40 -46 120v332h85v-317q0 -47 25 -74t70 -27q56 0 94.5 43t38.5 120v255h85v-478h-85v76h-1q-21 -46 -60 -68t-91 -22q-69 0 -115 40zM288.5 555.5q-18.5 8.5 -46.5 26.5q-20 12 -33 18t-26 6q-18 0 -33 -14.5t-25 -40.5l-57 27q19 45 45.5 70t64.5 25
q23 0 41.5 -8t39.5 -22q24 -16 36 -22.5t26 -6.5q18 0 33.5 14t24.5 41l57 -22q-18 -47 -45.5 -73.5t-62.5 -26.5q-21 0 -39.5 8.5z" />
    <glyph glyph-name="Umacron" unicode="&#x16a;" horiz-adv-x="677" 
d="M201.5 14q-59.5 29 -94.5 84t-35 130v487h88v-466q0 -94 50.5 -138.5t129.5 -44.5q77 0 127 44.5t50 138.5v466h88v-487q0 -74 -37 -129.5t-98.5 -84.5t-134.5 -29q-74 0 -133.5 29zM187 779v76h311v-76h-311z" />
    <glyph glyph-name="umacron" unicode="&#x16b;" horiz-adv-x="518" 
d="M103 26q-46 40 -46 120v332h85v-317q0 -47 25 -74t70 -27q56 0 94.5 43t38.5 120v255h85v-478h-85v76h-1q-21 -46 -60 -68t-91 -22q-69 0 -115 40zM98 567v76h311v-76h-311z" />
    <glyph glyph-name="Ubreve" unicode="&#x16c;" horiz-adv-x="677" 
d="M201.5 14q-59.5 29 -94.5 84t-35 130v487h88v-466q0 -94 50.5 -138.5t129.5 -44.5q77 0 127 44.5t50 138.5v466h88v-487q0 -74 -37 -129.5t-98.5 -84.5t-134.5 -29q-74 0 -133.5 29zM235.5 789q-42.5 42 -42.5 106h75q0 -38 21.5 -62t54.5 -24q34 0 54.5 24.5t20.5 61.5
h74q0 -40 -18.5 -74t-52 -54t-78.5 -20q-66 0 -108.5 42z" />
    <glyph glyph-name="ubreve" unicode="&#x16d;" horiz-adv-x="518" 
d="M103 26q-46 40 -46 120v332h85v-317q0 -47 25 -74t70 -27q56 0 94.5 43t38.5 120v255h85v-478h-85v76h-1q-21 -46 -60 -68t-91 -22q-69 0 -115 40zM146.5 577q-42.5 42 -42.5 106h75q0 -38 21.5 -62t54.5 -24q34 0 54.5 24.5t20.5 61.5h74q0 -40 -18.5 -74t-52 -54
t-78.5 -20q-66 0 -108.5 42z" />
    <glyph glyph-name="Uring" unicode="&#x16e;" horiz-adv-x="677" 
d="M201.5 14q-59.5 29 -94.5 84t-35 130v487h88v-466q0 -94 50.5 -138.5t129.5 -44.5q77 0 127 44.5t50 138.5v466h88v-487q0 -74 -37 -129.5t-98.5 -84.5t-134.5 -29q-74 0 -133.5 29zM263 766.5q-32 31.5 -32 79.5t32 79t80 31q47 0 79.5 -31t32.5 -79t-32 -79.5
t-80 -31.5t-80 31.5zM385.5 802q17.5 17 17.5 45q0 27 -17.5 43.5t-41.5 16.5t-42.5 -17t-18.5 -43q0 -28 18 -45t43 -17q24 0 41.5 17z" />
    <glyph glyph-name="uring" unicode="&#x16f;" horiz-adv-x="518" 
d="M103 26q-46 40 -46 120v332h85v-317q0 -47 25 -74t70 -27q56 0 94.5 43t38.5 120v255h85v-478h-85v76h-1q-21 -46 -60 -68t-91 -22q-69 0 -115 40zM174 554.5q-32 31.5 -32 79.5t32 79t80 31q47 0 79.5 -31t32.5 -79t-32 -79.5t-80 -31.5t-80 31.5zM296.5 590
q17.5 17 17.5 45q0 27 -17.5 43.5t-41.5 16.5t-42.5 -17t-18.5 -43q0 -28 18 -45t43 -17q24 0 41.5 17z" />
    <glyph glyph-name="Uhungarumlaut" unicode="&#x170;" horiz-adv-x="677" 
d="M201.5 14q-59.5 29 -94.5 84t-35 130v487h88v-466q0 -94 50.5 -138.5t129.5 -44.5q77 0 127 44.5t50 138.5v466h88v-487q0 -74 -37 -129.5t-98.5 -84.5t-134.5 -29q-74 0 -133.5 29zM202 752l89 143h108l-120 -143h-77zM375 752l90 143h109l-122 -143h-77z" />
    <glyph glyph-name="uhungarumlaut" unicode="&#x171;" horiz-adv-x="518" 
d="M103 26q-46 40 -46 120v332h85v-317q0 -47 25 -74t70 -27q56 0 94.5 43t38.5 120v255h85v-478h-85v76h-1q-21 -46 -60 -68t-91 -22q-69 0 -115 40zM113 540l89 143h108l-120 -143h-77zM286 540l90 143h109l-122 -143h-77z" />
    <glyph glyph-name="Uogonek" unicode="&#x172;" horiz-adv-x="677" 
d="M321 -188q-28 26 -28 64q0 28 16 54t47 56l-12 -1q-80 0 -141.5 29t-96 84t-34.5 130v487h88v-466q0 -94 50.5 -138.5t129.5 -44.5q77 0 127 44.5t50 138.5v466h88v-487q0 -87 -50 -147.5t-130 -83.5q-64 -60 -64 -105q0 -19 12.5 -32.5t33.5 -13.5q18 0 32.5 6.5
t29.5 18.5l7 -54q-15 -14 -38 -22.5t-47 -8.5q-42 0 -70 26z" />
    <glyph glyph-name="uogonek" unicode="&#x173;" horiz-adv-x="518" 
d="M317 -194.5q-24 24.5 -24 60.5q0 35 24 69.5t65 64.5h-12v76h-1q-21 -46 -60 -68t-91 -22q-69 0 -115 40t-46 120v332h85v-317q0 -47 25 -74t70 -27q56 0 94.5 43t38.5 120v255h85v-478q-92 -65 -92 -119q0 -18 11 -29t32 -11q17 0 31.5 7t31.5 19l7 -55q-16 -13 -42 -22
t-51 -9q-42 0 -66 24.5z" />
    <glyph glyph-name="Wcircumflex" unicode="&#x174;" horiz-adv-x="1009" 
d="M244 0l-216 715h92l171 -578h2l172 578h78l173 -576h2l171 576h92l-216 -715h-91l-168 581h-3l-169 -581h-90zM351 751l110 144h83l111 -144h-85l-67 84l-67 -84h-85z" />
    <glyph glyph-name="wcircumflex" unicode="&#x175;" horiz-adv-x="709" 
d="M173 0l-146 478h84l103 -359l105 359h71l104 -359l104 359h84l-146 -478h-77l-105 353l-103 -353h-78zM203 539l110 144h83l111 -144h-85l-67 84l-67 -84h-85z" />
    <glyph glyph-name="Ycircumflex" unicode="&#x176;" horiz-adv-x="649" 
d="M280 0v284l-262 431h100l210 -350l208 350h95l-263 -431v-284h-88zM176 751l110 144h83l111 -144h-85l-67 84l-67 -84h-85z" />
    <glyph glyph-name="ycircumflex" unicode="&#x177;" horiz-adv-x="497" 
d="M37 -191l7 73h56q48 0 70.5 33t34.5 83l-178 480h88l134 -383l134 383h87l-193 -510q-17 -45 -37.5 -79t-60 -58.5t-99.5 -24.5q-19 0 -43 3zM103 539l110 144h83l111 -144h-85l-67 84l-67 -84h-85z" />
    <glyph glyph-name="Ydieresis" unicode="&#x178;" horiz-adv-x="649" 
d="M280 0v284l-262 431h100l210 -350l208 350h95l-263 -431v-284h-88zM186 788.5q-19 17.5 -19 41.5q0 25 19 43t45 18t45 -18t19 -43q0 -24 -19 -41.5t-46 -17.5q-25 0 -44 17.5zM381.5 788.5q-18.5 17.5 -18.5 41.5q0 25 18.5 43t44.5 18t45 -17.5t19 -42.5t-19 -42.5
t-46 -17.5q-25 0 -43.5 17.5z" />
    <glyph glyph-name="Zacute" unicode="&#x179;" horiz-adv-x="617" 
d="M53 0v74l393 559h-381v82h485v-74l-396 -559h410v-82h-511zM263 752l89 143h108l-119 -143h-78z" />
    <glyph glyph-name="zacute" unicode="&#x17a;" horiz-adv-x="483" 
d="M55 0v69l270 333h-261v76h362v-69l-269 -333h281v-76h-383zM202 540l89 143h108l-119 -143h-78z" />
    <glyph glyph-name="Zdotaccent" unicode="&#x17b;" horiz-adv-x="617" 
d="M53 0v74l393 559h-381v82h485v-74l-396 -559h410v-82h-511zM261 787.5q-18 16.5 -18 40.5q0 25 18 42.5t44 17.5t44.5 -16.5t18.5 -40.5q0 -25 -18 -42.5t-45 -17.5q-26 0 -44 16.5z" />
    <glyph glyph-name="zdotaccent" unicode="&#x17c;" horiz-adv-x="483" 
d="M55 0v69l270 333h-261v76h362v-69l-269 -333h281v-76h-383zM203 580q-17 17 -17 42t17 42t44 17q26 0 43 -17t17 -42t-17 -42t-43 -17q-27 0 -44 17z" />
    <glyph glyph-name="Zcaron" unicode="&#x17d;" horiz-adv-x="617" 
d="M53 0v74l393 559h-381v82h485v-74l-396 -559h410v-82h-511zM267 751l-111 144h85l68 -86l68 86h85l-113 -144h-82z" />
    <glyph glyph-name="zcaron" unicode="&#x17e;" horiz-adv-x="483" 
d="M55 0v69l270 333h-261v76h362v-69l-269 -333h281v-76h-383zM206 539l-111 144h85l68 -86l68 86h85l-113 -144h-82z" />
    <glyph glyph-name="florin" unicode="&#x192;" horiz-adv-x="479" 
d="M-48 -197l30 71q29 -9 55 -9q36 0 50 18.5t19 43.5l103 481h-97l14 70h97l21 98q33 153 168 153q42 0 75 -13l-30 -71q-29 9 -55 9q-34 0 -49 -18t-20 -44l-25 -114h119l-14 -70h-119l-99 -465q-14 -67 -54.5 -110t-114.5 -43q-41 0 -74 13z" />
    <glyph glyph-name="Aringacute" unicode="&#x1fa;" horiz-adv-x="688" 
d="M28 0l259 715h113l260 -715h-93l-70 194h-308l-70 -194h-91zM219 278h248l-124 342h-1zM266 766.5q-32 31.5 -32 79.5t32 79t80 31q47 0 79.5 -31t32.5 -79t-32 -79.5t-80 -31.5t-80 31.5zM388.5 802q17.5 17 17.5 45q0 27 -17.5 43.5t-41.5 16.5t-42.5 -17t-18.5 -43
q0 -28 18 -45t43 -17q24 0 41.5 17zM302 974l89 143h108l-119 -143h-78z" />
    <glyph glyph-name="aringacute" unicode="&#x1fb;" horiz-adv-x="540" 
d="M98 23q-45 37 -45 102q0 59 37.5 93t87.5 48.5t120 25.5q39 6 55.5 10t23.5 12t7 24q0 38 -30 61.5t-77 23.5q-53 0 -84.5 -27t-43.5 -62l-73 39q18 49 68 84.5t133 35.5q87 0 139 -45t49 -135l-6 -209q-2 -52 43 -47v-68l-19 -2q-59 0 -80 26.5t-21 86.5h-1
q-16 -51 -57.5 -82.5t-108.5 -31.5q-72 0 -117 37zM305.5 79q36.5 23 56.5 58.5t21 73.5l1 47q-16 -19 -61 -27q-76 -15 -110.5 -24.5t-54.5 -27.5t-20 -51q0 -35 21 -53.5t62 -18.5q48 0 84.5 23zM189 557.5q-32 31.5 -32 79.5t32 79t80 31q47 0 79.5 -31t32.5 -79
t-32 -79.5t-80 -31.5t-80 31.5zM311.5 593q17.5 17 17.5 45q0 27 -17.5 43.5t-41.5 16.5t-42.5 -17t-18.5 -43q0 -28 18 -45t43 -17q24 0 41.5 17zM225 765l89 143h108l-119 -143h-78z" />
    <glyph glyph-name="AEacute" unicode="&#x1fc;" horiz-adv-x="962" 
d="M25 0l358 715h524v-81h-355v-228h313v-81h-313v-243h355v-82h-443v210h-241l-105 -210h-93zM265 294h199v338h-31zM571 752l89 143h108l-119 -143h-78z" />
    <glyph glyph-name="aeacute" unicode="&#x1fd;" horiz-adv-x="852" 
d="M94.5 22.5q-43.5 36.5 -43.5 101.5q0 77 58.5 112t164.5 52l21 4l49 8q18 3 28 12t10 28q0 32 -27.5 57.5t-77.5 25.5q-54 0 -86.5 -26t-43.5 -63l-73 39q18 49 68.5 84.5t135.5 35.5q63 0 100.5 -21t58.5 -61q35 42 74.5 62t95.5 20q93 0 149 -58t56 -177v-36h-348
q2 -77 43.5 -120.5t101.5 -43.5q50 0 83.5 28.5t47.5 68.5l68 -33q-21 -56 -71.5 -95.5t-129.5 -39.5q-72 0 -124 34t-77 98q-33 -66 -77 -99.5t-116 -33.5q-75 0 -118.5 36.5zM303 79.5q36 23.5 56 58.5t21 67l1 52q-12 -13 -32 -19t-66 -14q-55 -10 -85.5 -21t-45.5 -28.5
t-15 -46.5q0 -72 83 -72q47 0 83 23.5zM727 287q-4 67 -35 101.5t-87 34.5t-93.5 -34t-43.5 -102h259zM391 541l89 143h108l-119 -143h-78z" />
    <glyph glyph-name="Oslashacute" unicode="&#x1fe;" horiz-adv-x="735" 
d="M258 4.5q-56 19.5 -101 59.5l-66 -76l-49 42l72 83q-70 94 -70 248q0 127 48.5 210t123 120.5t155.5 37.5q57 0 111.5 -19t97.5 -59l65 75l48 -42l-70 -81q68 -92 68 -242q0 -128 -47.5 -212.5t-120.5 -124t-152 -39.5q-57 0 -113 19.5zM484.5 97q51.5 31 83 97t31.5 167
q0 102 -36 172l-349 -402q33 -33 74 -49t85 -16q60 0 111.5 31zM524 587q-30 31 -70 46t-83 15q-62 0 -115.5 -29.5t-86.5 -94t-33 -163.5q0 -105 39 -177zM324 756l89 143h108l-119 -143h-78z" />
    <glyph glyph-name="oslashacute" unicode="&#x1ff;" horiz-adv-x="577" 
d="M48 18l50 58q-58 71 -58 178q0 86 35 146t92.5 90t123.5 30q83 0 145 -47l47 55l46 -40l-49 -57q57 -70 57 -178q0 -85 -35 -145t-91.5 -90t-120.5 -30q-84 0 -150 48l-47 -55zM369.5 86.5q35.5 21.5 57 64t21.5 103.5q0 66 -25 111l-229 -267q42 -33 98 -33
q42 0 77.5 21.5zM384 412q-38 32 -93 32q-43 0 -79.5 -21t-59 -64t-22.5 -104q0 -66 25 -111zM245 569l89 143h108l-119 -143h-78z" />
    <glyph glyph-name="uni0218" unicode="&#x218;" horiz-adv-x="604" 
d="M131 36.5q-65 51.5 -85 122.5l87 42q12 -56 56 -95.5t122 -39.5q69 0 112 31t43 87q0 40 -22.5 65t-56 39t-94.5 33q-71 22 -118.5 44.5t-80 63.5t-32.5 104q0 60 29.5 104.5t82.5 68.5t121 24q69 0 118.5 -23t78 -57t37.5 -68l-80 -43q-12 44 -51 77t-107 33
q-61 0 -99 -28t-38 -80q0 -38 21 -61.5t52.5 -37.5t85.5 -31q6 -3 20 -7q72 -24 119.5 -49.5t76.5 -65.5t29 -100q0 -63 -31.5 -109t-88 -70.5t-130.5 -24.5q-112 0 -177 51.5zM234 -201l28 143h98l-59 -143h-67z" />
    <glyph glyph-name="uni0219" unicode="&#x219;" horiz-adv-x="464" 
d="M88 27.5q-49 41.5 -58 98.5l78 22q7 -36 39 -63.5t91 -27.5q48 0 72.5 19.5t24.5 51.5q0 26 -15 40.5t-36 21.5t-64 17q-77 18 -125 49.5t-48 96.5q0 62 47.5 101t129.5 39q80 0 129 -35t69 -82l-74 -32q-14 32 -46 55t-82 23q-42 0 -64 -17.5t-22 -44.5q0 -26 19 -41.5
t41.5 -22.5t60.5 -15q69 -15 118 -46.5t49 -101.5q0 -64 -48 -105.5t-141 -41.5q-96 0 -145 41.5zM160 -206l28 143h98l-59 -143h-67z" />
    <glyph glyph-name="uni021A" unicode="&#x21a;" horiz-adv-x="630" 
d="M271 0v633h-239v82h566v-82h-239v-633h-88zM240 -206l28 143h98l-59 -143h-67z" />
    <glyph glyph-name="uni021B" unicode="&#x21b;" horiz-adv-x="364" 
d="M155.5 17.5q-31.5 30.5 -31.5 77.5v313h-93v70h63q17 0 23.5 7t6.5 23v98l84 18v-146h115v-70h-115v-298q0 -50 51 -50q29 0 53 12l18 -66q-46 -19 -85 -19q-58 0 -89.5 30.5zM143 -206l28 143h98l-59 -143h-67z" />
    <glyph glyph-name="uni0237" unicode="&#x237;" horiz-adv-x="233" 
d="M-25 -196l10 70q18 -2 35 -2q46 0 58.5 22t12.5 56v528h85v-525q0 -73 -39 -113t-109 -40q-29 0 -53 4z" />
    <glyph glyph-name="circumflex" unicode="&#x2c6;" horiz-adv-x="472" 
d="M84 581l110 144h83l111 -144h-85l-67 84l-67 -84h-85z" />
    <glyph glyph-name="caron" unicode="&#x2c7;" horiz-adv-x="474" 
d="M195 581l-111 144h85l68 -86l68 86h85l-113 -144h-82z" />
    <glyph glyph-name="breve" unicode="&#x2d8;" horiz-adv-x="468" 
d="M126.5 619q-42.5 42 -42.5 106h75q0 -38 21.5 -62t54.5 -24q34 0 54.5 24.5t20.5 61.5h74q0 -40 -18.5 -74t-52 -54t-78.5 -20q-66 0 -108.5 42z" />
    <glyph glyph-name="dotaccent" unicode="&#x2d9;" horiz-adv-x="289" 
d="M101 622q-17 17 -17 42t17 42t44 17q26 0 43 -17t17 -42t-17 -42t-43 -17q-27 0 -44 17z" />
    <glyph glyph-name="ring" unicode="&#x2da;" horiz-adv-x="392" 
d="M116 596.5q-32 31.5 -32 79.5t32 79t80 31q47 0 79.5 -31t32.5 -79t-32 -79.5t-80 -31.5t-80 31.5zM238.5 632q17.5 17 17.5 45q0 27 -17.5 43.5t-41.5 16.5t-42.5 -17t-18.5 -43q0 -28 18 -45t43 -17q24 0 41.5 17z" />
    <glyph glyph-name="ogonek" unicode="&#x2db;" horiz-adv-x="351" 
d="M112 -193q-28 26 -28 64q0 33 21.5 63t63.5 66h55q-72 -65 -72 -113q0 -19 12.5 -32.5t33.5 -13.5q18 0 32.5 6.5t29.5 18.5l7 -54q-15 -14 -38 -22.5t-47 -8.5q-42 0 -70 26z" />
    <glyph glyph-name="tilde" unicode="&#x2dc;" horiz-adv-x="536" 
d="M304.5 597.5q-18.5 8.5 -46.5 26.5q-20 12 -33 18t-26 6q-18 0 -33 -14.5t-25 -40.5l-57 27q19 45 45.5 70t64.5 25q23 0 41.5 -8t39.5 -22q24 -16 36 -22.5t26 -6.5q18 0 33.5 14t24.5 41l57 -22q-18 -47 -45.5 -73.5t-62.5 -26.5q-21 0 -39.5 8.5z" />
    <glyph glyph-name="hungarumlaut" unicode="&#x2dd;" horiz-adv-x="540" 
d="M257 582l90 143h109l-122 -143h-77zM84 582l89 143h108l-120 -143h-77z" />
    <glyph glyph-name="uni03A9" unicode="&#x3a9;" horiz-adv-x="815" 
d="M74 73h152v2q-56 41 -105 117t-49 187q0 100 46 179t123.5 123t167.5 44t166.5 -43.5t122 -122t45.5 -178.5q0 -112 -49 -187.5t-107 -118.5v-2h153v-73h-278v67q190 113 190 312q0 83 -31.5 145.5t-87 96t-125.5 33.5t-126 -34.5t-87.5 -96.5t-31.5 -142q0 -115 58 -194
t132 -118v-69h-279v73z" />
    <glyph glyph-name="pi" unicode="&#x3c0;" horiz-adv-x="701" 
d="M177 0v401h-105v77h557v-77h-107v-401h-75v401h-193v-401h-77z" />
    <glyph glyph-name="Wgrave" unicode="&#x1e80;" horiz-adv-x="1009" 
d="M244 0l-216 715h92l171 -578h2l172 578h78l173 -576h2l171 576h92l-216 -715h-91l-168 581h-3l-169 -581h-90zM484 752l-118 143h108l89 -143h-79z" />
    <glyph glyph-name="wgrave" unicode="&#x1e81;" horiz-adv-x="709" 
d="M173 0l-146 478h84l103 -359l105 359h71l104 -359l104 359h84l-146 -478h-77l-105 353l-103 -353h-78zM336 540l-118 143h108l89 -143h-79z" />
    <glyph glyph-name="Wacute" unicode="&#x1e82;" horiz-adv-x="1009" 
d="M244 0l-216 715h92l171 -578h2l172 578h78l173 -576h2l171 576h92l-216 -715h-91l-168 581h-3l-169 -581h-90zM459 752l89 143h108l-119 -143h-78z" />
    <glyph glyph-name="wacute" unicode="&#x1e83;" horiz-adv-x="709" 
d="M173 0l-146 478h84l103 -359l105 359h71l104 -359l104 359h84l-146 -478h-77l-105 353l-103 -353h-78zM311 540l89 143h108l-119 -143h-78z" />
    <glyph glyph-name="Wdieresis" unicode="&#x1e84;" horiz-adv-x="1009" 
d="M244 0l-216 715h92l171 -578h2l172 578h78l173 -576h2l171 576h92l-216 -715h-91l-168 581h-3l-169 -581h-90zM361 788.5q-19 17.5 -19 41.5q0 25 19 43t45 18t45 -18t19 -43q0 -24 -19 -41.5t-46 -17.5q-25 0 -44 17.5zM556.5 788.5q-18.5 17.5 -18.5 41.5q0 25 18.5 43
t44.5 18t45 -17.5t19 -42.5t-19 -42.5t-46 -17.5q-25 0 -43.5 17.5z" />
    <glyph glyph-name="wdieresis" unicode="&#x1e85;" horiz-adv-x="709" 
d="M173 0l-146 478h84l103 -359l105 359h71l104 -359l104 359h84l-146 -478h-77l-105 353l-103 -353h-78zM213 576.5q-19 17.5 -19 41.5q0 25 19 43t45 18t45 -18t19 -43q0 -24 -19 -41.5t-46 -17.5q-25 0 -44 17.5zM408.5 576.5q-18.5 17.5 -18.5 41.5q0 25 18.5 43
t44.5 18t45 -17.5t19 -42.5t-19 -42.5t-46 -17.5q-25 0 -43.5 17.5z" />
    <glyph glyph-name="uni1E8A" unicode="&#x1e8a;" horiz-adv-x="685" 
d="M32 0l258 359l-247 356h102l201 -290l196 290h103l-251 -357l259 -358h-105l-208 294l-206 -294h-102zM301 787.5q-18 16.5 -18 40.5q0 25 18 42.5t44 17.5t44.5 -16.5t18.5 -40.5q0 -25 -18 -42.5t-45 -17.5q-26 0 -44 16.5z" />
    <glyph glyph-name="uni1E8B" unicode="&#x1e8b;" horiz-adv-x="521" 
d="M29 0l179 244l-171 234h103l121 -172h2l119 172h101l-170 -232l179 -246h-103l-127 184h-2l-132 -184h-99zM218 580q-17 17 -17 42t17 42t44 17q26 0 43 -17t17 -42t-17 -42t-43 -17q-27 0 -44 17z" />
    <glyph glyph-name="Ygrave" unicode="&#x1ef2;" horiz-adv-x="649" 
d="M280 0v284l-262 431h100l210 -350l208 350h95l-263 -431v-284h-88zM309 752l-118 143h108l89 -143h-79z" />
    <glyph glyph-name="ygrave" unicode="&#x1ef3;" horiz-adv-x="497" 
d="M37 -191l7 73h56q48 0 70.5 33t34.5 83l-178 480h88l134 -383l134 383h87l-193 -510q-17 -45 -37.5 -79t-60 -58.5t-99.5 -24.5q-19 0 -43 3zM236 540l-118 143h108l89 -143h-79z" />
    <glyph glyph-name="endash" unicode="&#x2013;" horiz-adv-x="698" 
d="M72 224v81h554v-81h-554z" />
    <glyph glyph-name="emdash" unicode="&#x2014;" horiz-adv-x="997" 
d="M72 223v84h853v-84h-853z" />
    <glyph glyph-name="quoteleft" unicode="&#x2018;" horiz-adv-x="227" 
d="M71.5 541.5q-13.5 20.5 -13.5 56.5q0 52 25 88t69 36l12 -1l-1 -46q-22 0 -34 -10.5t-14 -33.5q24 -3 39 -18.5t15 -34.5q0 -23 -16 -40t-41 -17q-27 0 -40.5 20.5z" />
    <glyph glyph-name="quoteright" unicode="&#x2019;" horiz-adv-x="227" 
d="M63 521l1 46q22 0 34 10.5t14 33.5q-24 3 -39 18.5t-15 34.5q0 23 16 40t41 17q27 0 40.5 -20.5t13.5 -56.5q0 -52 -25 -88t-69 -36z" />
    <glyph glyph-name="quotesinglbase" unicode="&#x201a;" horiz-adv-x="244" 
d="M69 -96l2 52q25 0 37 11t15 34q-27 3 -43.5 20t-16.5 39q0 26 18 44.5t46 18.5q30 0 45 -22.5t15 -61.5q0 -55 -26.5 -95.5t-75.5 -40.5q-9 0 -16 1z" />
    <glyph glyph-name="quotedblleft" unicode="&#x201c;" horiz-adv-x="375" 
d="M219.5 541.5q-13.5 20.5 -13.5 55.5q0 50 24.5 87.5t62.5 37.5q11 0 19 -1l-1 -46q-22 0 -34 -10.5t-14 -33.5q24 -3 39 -18.5t15 -34.5q0 -23 -16 -40t-41 -17q-27 0 -40.5 20.5zM71.5 541.5q-13.5 20.5 -13.5 56.5q0 52 25 88t69 36l12 -1l-1 -46q-22 0 -34 -10.5
t-14 -33.5q24 -3 39 -18.5t15 -34.5q0 -23 -16 -40t-41 -17q-27 0 -40.5 20.5z" />
    <glyph glyph-name="quotedblright" unicode="&#x201d;" horiz-adv-x="375" 
d="M63 521l1 46q22 0 34 10.5t14 33.5q-24 3 -39 18.5t-15 34.5q0 23 16 40t41 17q27 0 40.5 -20.5t13.5 -56.5q0 -52 -25 -88t-69 -36zM211 521l1 46q22 0 34 10.5t14 33.5q-24 3 -39 18.5t-15 34.5q0 23 16 40t41 17q27 0 40.5 -20.5t13.5 -56.5q0 -52 -25 -88t-69 -36z
" />
    <glyph glyph-name="quotedblbase" unicode="&#x201e;" horiz-adv-x="411" 
d="M236 -96l2 52q25 0 37 11t15 34q-27 3 -43.5 20t-16.5 39q0 26 18 44.5t46 18.5q30 0 45 -22.5t15 -61.5q0 -55 -26.5 -95.5t-75.5 -40.5q-9 0 -16 1zM69 -96l2 52q25 0 37 11t15 34q-27 3 -43.5 20t-16.5 39q0 26 18 44.5t46 18.5q30 0 45 -22.5t15 -61.5
q0 -55 -26.5 -95.5t-75.5 -40.5q-9 0 -16 1z" />
    <glyph glyph-name="dagger" unicode="&#x2020;" horiz-adv-x="528" 
d="M231 146v356h-159v70h159v153h68v-153h157v-70h-157v-356h-68z" />
    <glyph glyph-name="daggerdbl" unicode="&#x2021;" horiz-adv-x="528" 
d="M231 146v169h-159v71h159v116h-159v70h159v153h68v-153h157v-70h-157v-116h157v-71h-157v-169h-68z" />
    <glyph glyph-name="bullet" unicode="&#x2022;" horiz-adv-x="354" 
d="M102 233.5q-30 29.5 -30 70.5t30.5 70.5t75.5 29.5q44 0 74 -29t30 -71t-30.5 -71t-74.5 -29q-45 0 -75 29.5z" />
    <glyph glyph-name="ellipsis" unicode="&#x2026;" horiz-adv-x="815" 
d="M362.5 8.5q-18.5 19.5 -18.5 47.5t18.5 47.5t48.5 19.5q29 0 47.5 -19.5t18.5 -47.5t-18.5 -47.5t-47.5 -19.5q-30 0 -48.5 19.5zM633.5 8.5q-18.5 19.5 -18.5 47.5t18.5 47.5t48.5 19.5q29 0 47.5 -19.5t18.5 -47.5t-18.5 -47.5t-47.5 -19.5q-30 0 -48.5 19.5zM91.5 8.5
q-18.5 19.5 -18.5 47.5t18.5 47.5t48.5 19.5q29 0 47.5 -19.5t18.5 -47.5t-18.5 -47.5t-47.5 -19.5q-30 0 -48.5 19.5z" />
    <glyph glyph-name="perthousand" unicode="&#x2030;" horiz-adv-x="1248" 
d="M292 -20l-63 37l435 721l63 -37zM165.5 371.5q-43.5 25.5 -68.5 69.5t-25 95t25 94t68.5 68.5t95.5 25.5q53 0 96 -26t67.5 -69t24.5 -93t-24.5 -93.5t-67.5 -70t-96 -26.5q-52 0 -95.5 25.5zM334.5 455.5q29.5 32.5 29.5 79.5t-29.5 79t-73.5 32t-74 -31.5t-30 -79.5
t30 -80t74 -32t73.5 32.5zM769.5 94.5q29.5 32.5 29.5 79.5t-29.5 79t-73.5 32t-74 -31.5t-30 -79.5t30 -80t74 -32t73.5 32.5zM599.5 11q-43.5 26 -68 69.5t-24.5 94.5t25 94t68.5 68.5t95.5 25.5q48 0 85 -22t60 -59q24 38 61.5 59.5t86.5 21.5q52 0 95 -26t67.5 -69
t24.5 -93t-24.5 -93.5t-67 -70t-94.5 -26.5q-50 0 -88 22t-61 60q-23 -38 -59.5 -60t-85.5 -22q-53 0 -96.5 26zM1061.5 94.5q29.5 32.5 29.5 79.5t-29.5 79t-73.5 32t-74 -31.5t-30 -79.5t30 -80t74 -32t73.5 32.5z" />
    <glyph glyph-name="guilsinglleft" unicode="&#x2039;" horiz-adv-x="344" 
d="M196 56l-133 195v8l133 190h86l-132 -193l132 -200h-86z" />
    <glyph glyph-name="guilsinglright" unicode="&#x203a;" horiz-adv-x="344" 
d="M62 56l132 200l-132 193h86l133 -190v-8l-133 -195h-86z" />
    <glyph glyph-name="fraction" unicode="&#x2044;" horiz-adv-x="212" 
d="M-87 -20l-51 31l438 727l50 -30z" />
    <glyph glyph-name="Euro" unicode="&#x20ac;" horiz-adv-x="794" 
d="M358 18q-59 29 -101 87.5t-59 141.5h-146v76h137q-1 11 -1 33q0 27 1 40h-107v76h118q18 80 59.5 135.5t99 83.5t121.5 28q107 0 171 -66t86 -154l-85 -32q-17 73 -60 123.5t-116 50.5q-67 0 -117.5 -45t-70.5 -124h302l-17 -76h-298q-1 -13 -1 -38q0 -24 1 -35h275
l-17 -76h-247q21 -87 74 -133.5t123 -46.5q75 0 115.5 46t50.5 109l85 -16q-16 -87 -77.5 -152t-172.5 -65q-67 0 -126 29z" />
    <glyph glyph-name="uni2113" unicode="&#x2113;" horiz-adv-x="549" 
d="M215.5 23.5q-45.5 40.5 -45.5 107.5v53q-30 -13 -78 -27l-20 63q52 12 98 35v283q0 80 34.5 128.5t113.5 48.5q80 0 119.5 -49.5t39.5 -122.5q0 -98 -67 -187.5t-168 -143.5v-53q0 -53 25 -80t66 -27q30 0 55.5 12.5t39.5 27.5l20 -62q-22 -23 -53.5 -35t-66.5 -12
q-67 0 -112.5 40.5zM358.5 395.5q47.5 70.5 47.5 137.5q0 43 -20.5 77t-64.5 34q-79 0 -79 -120v-235q69 36 116.5 106.5z" />
    <glyph glyph-name="uni2116" unicode="&#x2116;" horiz-adv-x="1128" 
d="M72 0v715h96l370 -578h1v578h87v-715h-96l-370 580h-1v-580h-87zM761 197v82h281v-82h-281zM791.5 436.5q-44.5 42.5 -44.5 121.5q0 54 21 92t56.5 57t76.5 19t76.5 -18.5t57 -56t21.5 -90.5t-21 -90.5t-56.5 -57t-78.5 -19.5q-64 0 -108.5 42.5zM956 490.5
q22 25.5 22 69.5q0 46 -22.5 70.5t-54.5 24.5t-54 -25t-22 -70t22.5 -70t54.5 -25t54 25.5z" />
    <glyph glyph-name="trademark" unicode="&#x2122;" horiz-adv-x="987" 
d="M474 264v450h72l152 -234l146 234h71v-450h-61v356h-2l-149 -234h-18l-148 234h-1v-356h-62zM220 264v393h-148v57h358v-57h-148v-393h-62z" />
    <glyph glyph-name="estimated" unicode="&#x212e;" horiz-adv-x="855" 
d="M244.5 39q-84.5 50 -128.5 134t-44 186q0 104 45.5 187.5t127.5 131t187 47.5q102 0 182 -44.5t124.5 -124.5t44.5 -182v-12h-593v-231q48 -55 113 -82.5t143 -27.5q90 0 156.5 35.5t105.5 102.5l38 -5q-95 -165 -300 -165q-117 0 -201.5 50zM672 394v196
q-46 52 -109 77.5t-135 25.5q-143 0 -238 -103v-196h482z" />
    <glyph glyph-name="oneeighth" unicode="&#x215b;" horiz-adv-x="921" 
d="M144 636q-11 -20 -31 -30t-44 -10h-22v65h13q36 0 59.5 20.5t27.5 51.5h67v-426h-70v329zM213 -20l-51 31l438 727l50 -30zM600 29.5q-43 37.5 -43 92.5q0 40 21.5 68t56.5 45v1q-26 13 -43 36t-17 55q0 46 38 76t104 30t104 -30.5t38 -77.5q0 -31 -17.5 -53t-43.5 -34
q33 -17 55.5 -45.5t22.5 -69.5q0 -56 -44 -93.5t-116 -37.5q-73 0 -116 37.5zM781.5 76.5q22.5 22.5 22.5 53.5q0 33 -23.5 55t-63.5 22t-64 -22t-24 -55q0 -32 23 -54t64 -22q43 0 65.5 22.5zM768 278.5q19 16.5 19 44.5q0 25 -18 40t-52 15t-52.5 -15t-18.5 -41
q0 -27 19.5 -43.5t51.5 -16.5t51 16.5z" />
    <glyph glyph-name="threeeighths" unicode="&#x215c;" horiz-adv-x="1006" 
d="M83.5 336.5q-38.5 37.5 -43.5 88.5l75 8q2 -31 23 -53t65 -22q36 0 58.5 18.5t22.5 49.5q0 38 -32 59t-84 19v54q45 1 71.5 19t26.5 47q0 24 -18 40t-51 16q-39 0 -57.5 -22t-19.5 -53l-67 8q1 49 35.5 88t108.5 39q65 0 103.5 -31.5t38.5 -77.5q0 -35 -23.5 -61.5
t-53.5 -32.5v-1q41 -9 68 -35t27 -73q0 -59 -44 -94t-115 -35q-76 0 -114.5 37.5zM298 -20l-51 31l438 727l50 -30zM685 29.5q-43 37.5 -43 92.5q0 40 21.5 68t56.5 45v1q-26 13 -43 36t-17 55q0 46 38 76t104 30t104 -30.5t38 -77.5q0 -31 -17.5 -53t-43.5 -34
q33 -17 55.5 -45.5t22.5 -69.5q0 -56 -44 -93.5t-116 -37.5q-73 0 -116 37.5zM866.5 76.5q22.5 22.5 22.5 53.5q0 33 -23.5 55t-63.5 22t-64 -22t-24 -55q0 -32 23 -54t64 -22q43 0 65.5 22.5zM853 278.5q19 16.5 19 44.5q0 25 -18 40t-52 15t-52.5 -15t-18.5 -41
q0 -27 19.5 -43.5t51.5 -16.5t51 16.5z" />
    <glyph glyph-name="fiveeighths" unicode="&#x215d;" horiz-adv-x="1007" 
d="M91.5 334.5q-38.5 35.5 -48.5 83.5l73 9q5 -25 25 -45t59 -20q40 0 63.5 23t23.5 65q0 40 -22 62.5t-62 22.5q-54 0 -80 -45l-67 16l26 227h254v-63h-194l-14 -108q38 33 89 33q61 0 101.5 -38t40.5 -105q0 -69 -44.5 -111t-116.5 -42q-68 0 -106.5 35.5zM299 -20l-51 31
l438 727l50 -30zM686 29.5q-43 37.5 -43 92.5q0 40 21.5 68t56.5 45v1q-26 13 -43 36t-17 55q0 46 38 76t104 30t104 -30.5t38 -77.5q0 -31 -17.5 -53t-43.5 -34q33 -17 55.5 -45.5t22.5 -69.5q0 -56 -44 -93.5t-116 -37.5q-73 0 -116 37.5zM867.5 76.5q22.5 22.5 22.5 53.5
q0 33 -23.5 55t-63.5 22t-64 -22t-24 -55q0 -32 23 -54t64 -22q43 0 65.5 22.5zM854 278.5q19 16.5 19 44.5q0 25 -18 40t-52 15t-52.5 -15t-18.5 -41q0 -27 19.5 -43.5t51.5 -16.5t51 16.5z" />
    <glyph glyph-name="seveneighths" unicode="&#x215e;" horiz-adv-x="902" 
d="M138.5 499q39.5 88 120.5 169h-221v65h285v-63q-140 -159 -162 -363h-74q12 104 51.5 192zM194 -20l-51 31l438 727l50 -30zM581 29.5q-43 37.5 -43 92.5q0 40 21.5 68t56.5 45v1q-26 13 -43 36t-17 55q0 46 38 76t104 30t104 -30.5t38 -77.5q0 -31 -17.5 -53t-43.5 -34
q33 -17 55.5 -45.5t22.5 -69.5q0 -56 -44 -93.5t-116 -37.5q-73 0 -116 37.5zM762.5 76.5q22.5 22.5 22.5 53.5q0 33 -23.5 55t-63.5 22t-64 -22t-24 -55q0 -32 23 -54t64 -22q43 0 65.5 22.5zM749 278.5q19 16.5 19 44.5q0 25 -18 40t-52 15t-52.5 -15t-18.5 -41
q0 -27 19.5 -43.5t51.5 -16.5t51 16.5z" />
    <glyph glyph-name="arrowleft" unicode="&#x2190;" horiz-adv-x="755" 
d="M320 26l-242 237v51l242 237l43 -45l-184 -182h504v-70h-505l185 -183z" />
    <glyph glyph-name="arrowup" unicode="&#x2191;" horiz-adv-x="673" 
d="M302 7v505l-183 -185l-45 43l237 242h51l237 -242l-45 -43l-182 184v-504h-70z" />
    <glyph glyph-name="arrowright" unicode="&#x2192;" horiz-adv-x="755" 
d="M435 26l-43 45l184 182h-504v70h505l-185 183l43 45l242 -237v-51z" />
    <glyph glyph-name="arrowdown" unicode="&#x2193;" horiz-adv-x="673" 
d="M311 13l-237 242l45 43l182 -184v504h70v-505l183 185l45 -43l-237 -242h-51z" />
    <glyph glyph-name="uni2196" unicode="&#x2196;" horiz-adv-x="619" 
d="M497 72l-357 357l2 -260l-63 -1l-3 338l18 19l18 18l339 -4l-2 -62l-258 1l356 -356z" />
    <glyph glyph-name="uni2197" unicode="&#x2197;" horiz-adv-x="618" 
d="M122 72l-50 50l357 357l-260 -2l-1 63l338 3l19 -18l18 -18l-4 -339l-62 2l1 258z" />
    <glyph glyph-name="uni2198" unicode="&#x2198;" horiz-adv-x="619" 
d="M507 45l-339 4l2 62l258 -1l-356 356l50 50l357 -357l-2 260l63 1l3 -338l-18 -19z" />
    <glyph glyph-name="uni2199" unicode="&#x2199;" horiz-adv-x="618" 
d="M112 46l-19 18l-18 18l4 339l62 -2l-1 -258l356 356l50 -50l-357 -357l260 2l1 -63z" />
    <glyph glyph-name="partialdiff" unicode="&#x2202;" horiz-adv-x="632" 
d="M178 17q-53 32 -84.5 91.5t-31.5 137.5q0 84 36 144.5t93 91.5t119 31q56 0 96.5 -24.5t62.5 -58.5q-5 66 -33 123t-72.5 90.5t-96.5 33.5q-74 0 -131 -69l-23 68q65 77 164 77q87 0 153.5 -58t103 -154t36.5 -206q0 -120 -41.5 -198.5t-104.5 -115t-130 -36.5
q-63 0 -116 32zM388.5 98q39.5 28 62 75t22.5 100q0 73 -41.5 116.5t-105.5 43.5q-44 0 -84 -21t-64.5 -63.5t-24.5 -103.5q0 -54 20 -93.5t53.5 -60.5t74.5 -21q48 0 87.5 28z" />
    <glyph glyph-name="emptyset" unicode="&#x2205;" horiz-adv-x="732" 
d="M207 48l-37 -43l-45 37l35 41q-40 38 -62 88.5t-22 107.5q0 77 39 140t105.5 99.5t146.5 36.5q87 0 158 -44l34 40l46 -39l-32 -38q39 -38 61 -88t22 -107q0 -76 -39 -139t-105 -100t-145 -37q-90 0 -160 45zM486 466q-54 32 -120 32q-63 0 -115 -29t-82 -79t-30 -111
q0 -43 16 -81.5t44 -68.5zM481.5 90q51.5 29 81 79t29.5 110q0 43 -15.5 81t-43.5 68l-287 -335q54 -32 121 -32q63 0 114.5 29z" />
    <glyph glyph-name="uni2206" unicode="&#x2206;" horiz-adv-x="828" 
d="M42 0l317 715h114l313 -715h-744zM178 88h474l-239 532z" />
    <glyph glyph-name="product" unicode="&#x220f;" horiz-adv-x="731" 
d="M169 -85v703h-157v80h707v-80h-157v-703h-78v703h-237v-703h-78z" />
    <glyph glyph-name="summation" unicode="&#x2211;" horiz-adv-x="663" 
d="M62 -85v76l260 321l-248 313v73h527v-81h-416l247 -305l-264 -317h433v-80h-539z" />
    <glyph glyph-name="minus" unicode="&#x2212;" horiz-adv-x="568" 
d="M62 278v70h444v-70h-444z" />
    <glyph glyph-name="radical" unicode="&#x221a;" horiz-adv-x="749" 
d="M354 -126l-206 530h-136v68h197l188 -505l261 865h79l-291 -958h-92z" />
    <glyph glyph-name="infinity" unicode="&#x221e;" horiz-adv-x="826" 
d="M142.5 187.5q-37.5 22.5 -59 60t-21.5 80.5t21.5 80.5t59 60t83.5 22.5q56 0 98.5 -30.5t88.5 -87.5q41 53 85.5 85.5t100.5 32.5q46 0 84 -23t59.5 -61.5t21.5 -80.5q0 -41 -20 -78t-57 -60t-86 -23q-59 0 -102 31t-86 87q-46 -57 -88 -87.5t-97 -30.5q-48 0 -85.5 22.5
zM302 256.5q31 24.5 68 70.5q-40 48 -71.5 72.5t-68.5 24.5q-39 0 -66 -27t-27 -69q0 -41 26.5 -68.5t67.5 -27.5q40 0 71 24.5zM662 259q28 27 28 68t-28 69t-67 28q-37 0 -70 -25.5t-69 -70.5q39 -48 69 -72t69 -24q40 0 68 27z" />
    <glyph glyph-name="integral" unicode="&#x222b;" horiz-adv-x="360" 
d="M-28 -194l15 75q19 -8 43 -8q110 0 110 172v567q0 121 48 182t137 61q36 0 63 -10l-14 -77q-19 8 -45 8q-54 0 -82 -41.5t-28 -123.5v-570q0 -126 -48.5 -186.5t-135.5 -60.5q-42 0 -63 12z" />
    <glyph glyph-name="approxequal" unicode="&#x2248;" horiz-adv-x="605" 
d="M346.5 341.5q-25.5 11.5 -62.5 33.5q-31 19 -51 28t-42 9q-44 0 -78 -45l-51 46q23 37 55.5 58.5t73.5 21.5q32 0 59 -11.5t62 -33.5q30 -18 49.5 -27t40.5 -9q28 0 51 15.5t39 38.5l51 -45q-23 -41 -60 -66t-80 -25q-31 0 -56.5 11.5zM346.5 148.5
q-25.5 11.5 -62.5 33.5q-31 19 -51 28t-42 9q-44 0 -78 -45l-51 46q23 37 55.5 58.5t73.5 21.5q32 0 59 -11.5t62 -33.5q30 -18 49.5 -27t40.5 -9q28 0 51 15.5t39 38.5l51 -45q-23 -41 -60 -66t-80 -25q-31 0 -56.5 11.5z" />
    <glyph glyph-name="notequal" unicode="&#x2260;" horiz-adv-x="568" 
d="M90 86l67 94h-95v70h145l86 121h-231v70h281l60 84h69l-60 -84h94v-70h-144l-87 -121h231v-70h-281l-67 -94h-68z" />
    <glyph glyph-name="lessequal" unicode="&#x2264;" horiz-adv-x="588" 
d="M526 181l-464 162v77l464 164v-86l-359 -116l359 -116v-85zM62 54v74h464v-74h-464z" />
    <glyph glyph-name="greaterequal" unicode="&#x2265;" horiz-adv-x="590" 
d="M62 181v86l365 115l-365 116v86l466 -164v-78zM62 49v74h466v-74h-466z" />
    <glyph glyph-name="filledbox" unicode="&#x25a0;" horiz-adv-x="852" 
d="M72 0v714h708v-714h-708z" />
    <glyph glyph-name="uni25A1" unicode="&#x25a1;" horiz-adv-x="852" 
d="M72 0v714h708v-714h-708zM125 51h601v612h-601v-612z" />
    <glyph glyph-name="triagup" unicode="&#x25b2;" horiz-adv-x="921" 
d="M42 0l420 729l417 -729h-837z" />
    <glyph glyph-name="uni25B3" unicode="&#x25b3;" horiz-adv-x="908" 
d="M42 0l412 720l412 -720h-824zM139 59h628l-314 553z" />
    <glyph glyph-name="lozenge" unicode="&#x25ca;" horiz-adv-x="757" 
d="M356 0l-294 359l294 356h47l292 -356l-293 -359h-46zM379 62l248 297l-247 295l-249 -295z" />
    <glyph glyph-name="circle" unicode="&#x25cb;" horiz-adv-x="836" 
d="M228.5 33q-86.5 50 -136.5 136t-50 188t50 188t136 136.5t190 50.5t190 -50.5t136 -136.5t50 -189t-49.5 -188.5t-135.5 -135t-190 -49.5t-190.5 50zM579 81.5q72 42.5 113.5 115t41.5 159.5t-41.5 160.5t-114 116.5t-160.5 43t-160 -42.5t-114 -115.5t-42 -161
q0 -87 41 -160t113.5 -115.5t162.5 -42.5q88 0 160 42.5z" />
    <glyph glyph-name="uni25CF" unicode="&#x25cf;" horiz-adv-x="836" 
d="M229 33q-86 50 -136.5 136t-50.5 189t50.5 189t136.5 135.5t189 49.5t189 -49.5t136.5 -135.5t50.5 -189t-50.5 -189t-136.5 -136t-189 -50t-189 50z" />
    <glyph glyph-name="uni2605" unicode="&#x2605;" horiz-adv-x="853" 
d="M670 -21l-244 177l-244 -175l94 285l-244 177h301l93 286l93 -286h302l-244 -177z" />
    <glyph glyph-name="uni2611" unicode="&#x2611;" horiz-adv-x="782" 
d="M72 0v714h708v-714h-708zM125 51h601v612h-601v-612zM404 202l-208 232l44 42l165 -184l226 275l43 -37z" />
    <glyph glyph-name="uni2612" unicode="&#x2612;" horiz-adv-x="852" 
d="M72 0v714h708v-714h-708zM125 51h601v612h-601v-612zM580 175l-149 150l-149 -149l-40 40l149 150l-149 148l41 40l148 -148l150 148l40 -40l-149 -149l150 -150z" />
    <glyph glyph-name="uni2713" unicode="&#x2713;" horiz-adv-x="944" 
d="M355 -15l-283 319l47 46l237 -270h1l471 577l44 -46l-516 -626h-1z" />
    <glyph glyph-name="uni2715" unicode="&#x2715;" horiz-adv-x="822" 
d="M111 15l-39 39l298 302l-298 298l39 38l299 -297l296 297l39 -38l-296 -298l301 -302l-39 -39l-301 300z" />
    <glyph glyph-name="uni2780" unicode="&#x2780;" horiz-adv-x="820" 
d="M220.5 33q-86.5 50 -136.5 136t-50 188t50 188t136 136.5t190 50.5t190 -50.5t136 -136.5t50 -189t-49.5 -188.5t-135.5 -135t-190 -49.5t-190.5 50zM391 477q-10 -19 -28.5 -28t-40.5 -9h-20v54h12q32 0 54 19t25 48h57v-391h-59v307zM571 81.5q72 42.5 113.5 115
t41.5 159.5t-41.5 160.5t-114 116.5t-160.5 43t-160 -42.5t-114 -115.5t-42 -161q0 -87 41 -160t113.5 -115.5t162.5 -42.5q88 0 160 42.5z" />
    <glyph glyph-name="uni2781" unicode="&#x2781;" horiz-adv-x="820" 
d="M220.5 33q-86.5 50 -136.5 136t-50 188t50 188t136 136.5t190 50.5t190 -50.5t136 -136.5t50 -189t-49.5 -188.5t-135.5 -135t-190 -49.5t-190.5 50zM571 81.5q72 42.5 113.5 115t41.5 159.5t-41.5 160.5t-114 116.5t-160.5 43t-160 -42.5t-114 -115.5t-42 -161
q0 -87 41 -160t113.5 -115.5t162.5 -42.5q88 0 160 42.5zM286 214q103 83 147.5 136t44.5 101q0 30 -16.5 48t-48.5 18q-40 0 -59 -28t-20 -67l-55 15q5 53 38 91.5t97 38.5q58 0 90.5 -32t32.5 -81q0 -57 -43 -111t-121 -117h166v-56h-253v44z" />
    <glyph glyph-name="uni2782" unicode="&#x2782;" horiz-adv-x="820" 
d="M220.5 33q-86.5 50 -136.5 136t-50 188t50 188t136 136.5t190 50.5t190 -50.5t136 -136.5t50 -189t-49.5 -188.5t-135.5 -135t-190 -49.5t-190.5 50zM571 81.5q72 42.5 113.5 115t41.5 159.5t-41.5 160.5t-114 116.5t-160.5 43t-160 -42.5t-114 -115.5t-42 -161
q0 -87 41 -160t113.5 -115.5t162.5 -42.5q88 0 160 42.5zM305.5 196.5q-33.5 34.5 -39.5 80.5l64 7q1 -28 21 -50t63 -22q37 0 58.5 18t21.5 49q0 37 -31 56.5t-80 17.5v46q42 1 68 18t26 45q0 23 -17.5 39t-50.5 16q-39 0 -56.5 -21.5t-17.5 -49.5l-56 6q0 44 31.5 79.5
t98.5 35.5q59 0 93 -29t34 -70q0 -32 -21 -56.5t-49 -30.5v-1q38 -8 63 -32t25 -67q0 -54 -40.5 -86.5t-105.5 -32.5q-69 0 -102.5 34.5z" />
    <glyph glyph-name="uni2783" unicode="&#x2783;" horiz-adv-x="820" 
d="M220.5 33q-86.5 50 -136.5 136t-50 188t50 188t136 136.5t190 50.5t190 -50.5t136 -136.5t50 -189t-49.5 -188.5t-135.5 -135t-190 -49.5t-190.5 50zM435 170v87h-187v45l179 259h67v-255h59v-49h-59v-87h-59zM571 81.5q72 42.5 113.5 115t41.5 159.5t-41.5 160.5
t-114 116.5t-160.5 43t-160 -42.5t-114 -115.5t-42 -161q0 -87 41 -160t113.5 -115.5t162.5 -42.5q88 0 160 42.5zM306 306h130v184z" />
    <glyph glyph-name="uni2784" unicode="&#x2784;" horiz-adv-x="820" 
d="M220.5 33q-86.5 50 -136.5 136t-50 188t50 188t136 136.5t190 50.5t190 -50.5t136 -136.5t50 -189t-49.5 -188.5t-135.5 -135t-190 -49.5t-190.5 50zM571 81.5q72 42.5 113.5 115t41.5 159.5t-41.5 160.5t-114 116.5t-160.5 43t-160 -42.5t-114 -115.5t-42 -161
q0 -87 41 -160t113.5 -115.5t162.5 -42.5q88 0 160 42.5zM310.5 194q-35.5 33 -43.5 75l62 8q5 -27 25 -46t55 -19q39 0 62 24t23 64q0 38 -21 60.5t-61 22.5q-49 0 -76 -43l-56 14l23 206h230v-55h-180l-13 -105q35 33 85 33q54 0 91.5 -35.5t37.5 -96.5q0 -62 -40 -101
t-106 -39q-62 0 -97.5 33z" />
    <glyph glyph-name="uni2785" unicode="&#x2785;" horiz-adv-x="820" 
d="M220.5 33q-86.5 50 -136.5 136t-50 188t50 188t136 136.5t190 50.5t190 -50.5t136 -136.5t50 -189t-49.5 -188.5t-135.5 -135t-190 -49.5t-190.5 50zM463 232q21 21 21 53q0 35 -21 56.5t-58 21.5q-34 0 -55 -17.5t-26 -40.5q0 -42 23.5 -68t60.5 -26q34 0 55 21z
M299 209q-39 48 -39 147t40 154.5t111 55.5q51 0 82.5 -27t43.5 -63l-59 -19q-5 22 -22 40t-49 18q-41 0 -64 -38.5t-22 -108.5q32 44 99 44q56 0 91.5 -35t35.5 -88q0 -57 -40.5 -92.5t-101.5 -35.5q-67 0 -106 48zM571 81.5q72 42.5 113.5 115t41.5 159.5t-41.5 160.5
t-114 116.5t-160.5 43t-160 -42.5t-114 -115.5t-42 -161q0 -87 41 -160t113.5 -115.5t162.5 -42.5q88 0 160 42.5z" />
    <glyph glyph-name="uni2786" unicode="&#x2786;" horiz-adv-x="820" 
d="M220.5 33q-86.5 50 -136.5 136t-50 188t50 188t136 136.5t190 50.5t190 -50.5t136 -136.5t50 -189t-49.5 -188.5t-135.5 -135t-190 -49.5t-190.5 50zM571 81.5q72 42.5 113.5 115t41.5 159.5t-41.5 160.5t-114 116.5t-160.5 43t-160 -42.5t-114 -115.5t-42 -161
q0 -87 41 -160t113.5 -115.5t162.5 -42.5q88 0 160 42.5zM380 342.5q37 82.5 111 156.5h-204v56h258v-54q-69 -78 -106.5 -161t-44.5 -176h-62q11 96 48 178.5z" />
    <glyph glyph-name="uni2787" unicode="&#x2787;" horiz-adv-x="820" 
d="M220.5 33q-86.5 50 -136.5 136t-50 188t50 188t136 136.5t190 50.5t190 -50.5t136 -136.5t50 -189t-49.5 -188.5t-135.5 -135t-190 -49.5t-190.5 50zM472 235q22 21 22 52t-22.5 52.5t-61.5 21.5q-38 0 -61 -21t-23 -53q0 -30 22.5 -51.5t61.5 -21.5q40 0 62 21z
M571 81.5q72 42.5 113.5 115t41.5 159.5t-41.5 160.5t-114 116.5t-160.5 43t-160 -42.5t-114 -115.5t-42 -161q0 -87 41 -160t113.5 -115.5t162.5 -42.5q88 0 160 42.5zM304 195.5q-38 33.5 -38 84.5q0 38 21 64.5t53 40.5v1q-24 11 -40.5 32t-16.5 51q0 43 34.5 70.5
t92.5 27.5q59 0 93.5 -27.5t34.5 -69.5q0 -30 -16.5 -51t-40.5 -31q32 -15 52.5 -42t20.5 -64q0 -51 -39 -85.5t-106 -34.5t-105 33.5zM461 425q19 16 19 42q0 25 -18.5 40t-51.5 15q-32 0 -50.5 -15t-18.5 -40q0 -26 19 -42t51 -16q31 0 50 16z" />
    <glyph glyph-name="uni2788" unicode="&#x2788;" horiz-adv-x="820" 
d="M220.5 33q-86.5 50 -136.5 136t-50 188t50 188t136 136.5t190 50.5t190 -50.5t136 -136.5t50 -189t-49.5 -188.5t-135.5 -135t-190 -49.5t-190.5 50zM571 81.5q72 42.5 113.5 115t41.5 159.5t-41.5 160.5t-114 116.5t-160.5 43t-160 -42.5t-114 -115.5t-42 -161
q0 -87 41 -160t113.5 -115.5t162.5 -42.5q88 0 160 42.5zM331.5 188q-31.5 27 -43.5 63l59 19q5 -22 22 -40t49 -18q41 0 64 38.5t22 108.5q-33 -45 -99 -45q-56 0 -91.5 35.5t-35.5 88.5q0 54 39 91t102 37q67 0 106.5 -48t39.5 -147q0 -101 -40.5 -155.5t-110.5 -54.5
q-51 0 -82.5 27zM475.5 382q20.5 18 25.5 39q0 43 -23.5 68.5t-60.5 25.5q-34 0 -55 -20.5t-21 -52.5q0 -36 21 -57t58 -21q35 0 55.5 18z" />
    <glyph glyph-name="uni278A" unicode="&#x278a;" horiz-adv-x="820" 
d="M221 33q-86 50 -136.5 136t-50.5 189t50.5 189t136.5 135.5t189 49.5t189 -49.5t136.5 -135.5t50.5 -189t-50.5 -189t-136.5 -136t-189 -50t-189 50zM450 170v391h-57q-3 -29 -25 -48t-54 -19h-12v-54h20q22 0 40.5 9t28.5 28v-307h59z" />
    <glyph glyph-name="uni278B" unicode="&#x278b;" horiz-adv-x="820" 
d="M221 33q-86 50 -136.5 136t-50.5 189t50.5 189t136.5 135.5t189 49.5t189 -49.5t136.5 -135.5t50.5 -189t-50.5 -189t-136.5 -136t-189 -50t-189 50zM539 170v56h-166q78 63 121 117t43 111q0 49 -32.5 81t-90.5 32q-64 0 -97 -38.5t-38 -91.5l55 -15q1 39 20 67t59 28
q32 0 48.5 -18t16.5 -48q0 -48 -44.5 -101t-147.5 -136v-44h253z" />
    <glyph glyph-name="uni278C" unicode="&#x278c;" horiz-adv-x="820" 
d="M221 33q-86 50 -136.5 136t-50.5 189t50.5 189t136.5 135.5t189 49.5t189 -49.5t136.5 -135.5t50.5 -189t-50.5 -189t-136.5 -136t-189 -50t-189 50zM513.5 194.5q40.5 32.5 40.5 86.5q0 43 -25 67t-63 32v1q28 6 49 30.5t21 56.5q0 41 -34 70t-93 29q-67 0 -98.5 -35.5
t-31.5 -79.5l56 -6q0 28 17.5 49.5t56.5 21.5q33 0 50.5 -16t17.5 -39q0 -28 -26 -45t-68 -18v-46q49 2 80 -17.5t31 -56.5q0 -31 -21.5 -49t-58.5 -18q-43 0 -63 22t-21 50l-64 -7q6 -46 39.5 -80.5t102.5 -34.5q65 0 105.5 32.5z" />
    <glyph glyph-name="uni278D" unicode="&#x278d;" horiz-adv-x="820" 
d="M221 33q-86 50 -136.5 136t-50.5 189t50.5 189t136.5 135.5t189 49.5t189 -49.5t136.5 -135.5t50.5 -189t-50.5 -189t-136.5 -136t-189 -50t-189 50zM435 170h59v87h59v49h-59v255h-67l-179 -259v-45h187v-87zM306 306l130 184v-184h-130z" />
    <glyph glyph-name="uni278E" unicode="&#x278e;" horiz-adv-x="820" 
d="M221 33q-86 50 -136.5 136t-50.5 189t50.5 189t136.5 135.5t189 49.5t189 -49.5t136.5 -135.5t50.5 -189t-50.5 -189t-136.5 -136t-189 -50t-189 50zM514 200q40 39 40 101q0 61 -37.5 96.5t-91.5 35.5q-50 0 -85 -33l13 105h180v55h-230l-23 -206l56 -14q27 43 76 43
q40 0 61 -22.5t21 -60.5q0 -40 -23 -64t-62 -24q-35 0 -55 19t-25 46l-62 -8q8 -42 43.5 -75t97.5 -33q66 0 106 39z" />
    <glyph glyph-name="uni278F" unicode="&#x278f;" horiz-adv-x="820" 
d="M221 33q-86 50 -136.5 136t-50.5 189t50.5 189t136.5 135.5t189 49.5t189 -49.5t136.5 -135.5t50.5 -189t-50.5 -189t-136.5 -136t-189 -50t-189 50zM347.5 237q-23.5 26 -23.5 68q5 23 26 40.5t55 17.5q37 0 58 -21.5t21 -56.5q0 -32 -21 -53t-55 -21q-37 0 -60.5 26z
M506.5 196.5q40.5 35.5 40.5 92.5q0 53 -35.5 88t-91.5 35q-67 0 -99 -44q-1 70 22 108.5t64 38.5q32 0 49 -18t22 -40l59 19q-12 36 -43.5 63t-82.5 27q-71 0 -111 -55.5t-40 -154.5t39 -147t106 -48q61 0 101.5 35.5z" />
    <glyph glyph-name="uni2790" unicode="&#x2790;" horiz-adv-x="820" 
d="M221 33q-86 50 -136.5 136t-50.5 189t50.5 189t136.5 135.5t189 49.5t189 -49.5t136.5 -135.5t50.5 -189t-50.5 -189t-136.5 -136t-189 -50t-189 50zM394 164q7 93 44.5 176t106.5 161v54h-258v-56h204q-74 -74 -111 -156.5t-48 -178.5h62z" />
    <glyph glyph-name="uni2791" unicode="&#x2791;" horiz-adv-x="820" 
d="M221 33q-86 50 -136.5 136t-50.5 189t50.5 189t136.5 135.5t189 49.5t189 -49.5t136.5 -135.5t50.5 -189t-50.5 -189t-136.5 -136t-189 -50t-189 50zM348.5 235.5q-22.5 21.5 -22.5 51.5q0 32 23 53t61 21q39 0 61.5 -21.5t22.5 -52.5t-22 -52t-62 -21q-39 0 -61.5 21.5z
M515 196.5q39 34.5 39 85.5q0 37 -20.5 64t-52.5 42q24 10 40.5 31t16.5 51q0 42 -34.5 69.5t-93.5 27.5q-58 0 -92.5 -27.5t-34.5 -70.5q0 -30 16.5 -51t40.5 -32v-1q-32 -14 -53 -40.5t-21 -64.5q0 -51 38 -84.5t105 -33.5t106 34.5zM360 425q-19 16 -19 42q0 25 18.5 40
t50.5 15q33 0 51.5 -15t18.5 -40q0 -26 -19 -42t-50 -16q-32 0 -51 16z" />
    <glyph glyph-name="uni2792" unicode="&#x2792;" horiz-adv-x="820" 
d="M221 33q-86 50 -136.5 136t-50.5 189t50.5 189t136.5 135.5t189 49.5t189 -49.5t136.5 -135.5t50.5 -189t-50.5 -189t-136.5 -136t-189 -50t-189 50zM524.5 215.5q40.5 54.5 40.5 155.5q0 99 -39 147t-106 48q-61 0 -101.5 -35.5t-40.5 -92.5q0 -53 35.5 -88.5
t91.5 -35.5q66 0 99 45q1 -70 -22 -108.5t-64 -38.5q-32 0 -49 18t-22 40l-59 -19q12 -36 43.5 -63t82.5 -27q70 0 110.5 54.5zM362 385q-21 21 -21 57q0 32 21 52.5t55 20.5q37 0 60.5 -25.5t23.5 -68.5q-5 -21 -25.5 -39t-55.5 -18q-37 0 -58 21z" />
    <glyph glyph-name="u1F10B" unicode="&#x1f10b;" horiz-adv-x="840" 
d="M230.5 34q-86.5 50 -136.5 136t-50 188t50 188t136 136.5t190 50.5t190 -50.5t136 -136.5t50 -189t-49.5 -188.5t-135.5 -135t-190 -49.5t-190.5 50zM581 82.5q72 42.5 113.5 115t41.5 159.5t-41.5 160.5t-114 116.5t-160.5 43t-160 -42.5t-114 -115.5t-42 -161
q0 -87 41 -160t113.5 -115.5t162.5 -42.5q88 0 160 42.5zM312.5 208.5q-37.5 52.5 -37.5 147.5t38 150t107 55q70 0 107.5 -55t37.5 -150q0 -96 -37.5 -148t-107.5 -52t-107.5 52.5zM506 357q0 74 -22 113.5t-64 39.5t-63.5 -39.5t-21.5 -113.5q0 -150 85 -150q86 0 86 150z
" />
    <glyph glyph-name="u1F10C" unicode="&#x1f10c;" horiz-adv-x="840" 
d="M231 34q-86 50 -136.5 136t-50.5 189t50.5 189t136.5 135.5t189 49.5t189 -49.5t136.5 -135.5t50.5 -189t-50.5 -189t-136.5 -136t-189 -50t-189 50zM527.5 208q37.5 52 37.5 148q0 95 -37.5 150t-107.5 55q-69 0 -107 -55t-38 -150t37.5 -147.5t107.5 -52.5t107.5 52z
M335 357q0 74 21.5 113.5t63.5 39.5t64 -39.5t22 -113.5q0 -150 -86 -150q-85 0 -85 150z" />
    <glyph glyph-name="uni004A0301" horiz-adv-x="572" 
d="M157.5 17q-51.5 32 -76 80.5t-28.5 100.5l90 16q5 -62 39.5 -105t111.5 -43q62 0 92 31.5t30 89.5v528h88v-513q0 -104 -56 -160.5t-159 -56.5q-80 0 -131.5 32zM409 752l89 143h108l-119 -143h-78z" />
    <glyph glyph-name="R.ss04" horiz-adv-x="658" 
d="M72 715h270q110 0 170 -52t60 -146q0 -97 -58.5 -148.5t-148.5 -66.5q19 -97 67.5 -158.5t136.5 -61.5h33v-82h-41q-118 0 -186.5 86t-87.5 209h-127v-295h-88v715zM311 372q73 0 120 31t47 107q0 80 -44 102t-97 22h-177v-262h151z" />
    <glyph glyph-name="Racute.ss04" horiz-adv-x="658" 
d="M72 715h270q110 0 170 -52t60 -146q0 -97 -58.5 -148.5t-148.5 -66.5q19 -97 67.5 -158.5t136.5 -61.5h33v-82h-41q-118 0 -186.5 86t-87.5 209h-127v-295h-88v715zM311 372q73 0 120 31t47 107q0 80 -44 102t-97 22h-177v-262h151zM268 752l89 143h108l-119 -143h-78z
" />
    <glyph glyph-name="Rcaron.ss04" horiz-adv-x="658" 
d="M72 715h270q110 0 170 -52t60 -146q0 -97 -58.5 -148.5t-148.5 -66.5q19 -97 67.5 -158.5t136.5 -61.5h33v-82h-41q-118 0 -186.5 86t-87.5 209h-127v-295h-88v715zM311 372q73 0 120 31t47 107q0 80 -44 102t-97 22h-177v-262h151zM272 751l-111 144h85l68 -86l68 86h85
l-113 -144h-82z" />
    <glyph glyph-name="uni0156.ss04" horiz-adv-x="658" 
d="M72 715h270q110 0 170 -52t60 -146q0 -97 -58.5 -148.5t-148.5 -66.5q19 -97 67.5 -158.5t136.5 -61.5h33v-82h-41q-118 0 -186.5 86t-87.5 209h-127v-295h-88v715zM252 -206l28 143h98l-59 -143h-67zM311 372q73 0 120 31t47 107q0 80 -44 102t-97 22h-177v-262h151z
" />
    <glyph glyph-name="i.loclTRK" horiz-adv-x="205" 
d="M63 0v478h85v-478h-85zM62 580q-17 17 -17 42t17 42t44 17q26 0 43 -17t17 -42t-17 -42t-43 -17q-27 0 -44 17z" />
    <glyph glyph-name="uni006A0301" horiz-adv-x="233" 
d="M-25 -196l10 70q18 -2 35 -2q46 0 58.5 22t12.5 56v528h85v-525q0 -73 -39 -113t-109 -40q-29 0 -53 4zM94 540l89 143h108l-119 -143h-78z" />
    <glyph glyph-name="germandbls.calt" horiz-adv-x="671" 
d="M266 29q-53 44 -72 102l79 42q33 -108 136 -108q62 0 98 37.5t36 104.5q0 51 -20.5 86.5t-53.5 53t-71 17.5q-48 0 -86 -25l-49 45l191 250h-143q-67 0 -109 -45.5t-42 -164.5v-424h-88v436q0 87 31 150t85 96t123 33h237v-74l-174 -219q25 10 60 10q54 0 100 -27
t73.5 -76.5t27.5 -115.5q0 -65 -27 -117t-78.5 -81.5t-121.5 -29.5q-89 0 -142 44z" />
    <glyph glyph-name="a.ss01" horiz-adv-x="548" 
d="M148.5 13.5q-48.5 27.5 -79.5 85t-31 143.5q0 82 29 138.5t76 84.5t101 28q56 0 94.5 -26.5t61.5 -62.5h1v74h84v-478h-84v73h-1q-21 -35 -59 -61t-92 -26q-52 0 -100.5 27.5zM335.5 81q32.5 24 50.5 67t18 99q0 82 -39 127.5t-104 45.5q-62 0 -100 -44t-38 -131
q0 -89 39 -138.5t99 -49.5q42 0 74.5 24z" />
    <glyph glyph-name="aacute.ss01" horiz-adv-x="548" 
d="M148.5 13.5q-48.5 27.5 -79.5 85t-31 143.5q0 82 29 138.5t76 84.5t101 28q56 0 94.5 -26.5t61.5 -62.5h1v74h84v-478h-84v73h-1q-21 -35 -59 -61t-92 -26q-52 0 -100.5 27.5zM335.5 81q32.5 24 50.5 67t18 99q0 82 -39 127.5t-104 45.5q-62 0 -100 -44t-38 -131
q0 -89 39 -138.5t99 -49.5q42 0 74.5 24zM222 582l89 143h108l-119 -143h-78z" />
    <glyph glyph-name="abreve.ss01" horiz-adv-x="548" 
d="M148.5 13.5q-48.5 27.5 -79.5 85t-31 143.5q0 82 29 138.5t76 84.5t101 28q56 0 94.5 -26.5t61.5 -62.5h1v74h84v-478h-84v73h-1q-21 -35 -59 -61t-92 -26q-52 0 -100.5 27.5zM335.5 81q32.5 24 50.5 67t18 99q0 82 -39 127.5t-104 45.5q-62 0 -100 -44t-38 -131
q0 -89 39 -138.5t99 -49.5q42 0 74.5 24zM159.5 619q-42.5 42 -42.5 106h75q0 -38 21.5 -62t54.5 -24q34 0 54.5 24.5t20.5 61.5h74q0 -40 -18.5 -74t-52 -54t-78.5 -20q-66 0 -108.5 42z" />
    <glyph glyph-name="acircumflex.ss01" horiz-adv-x="548" 
d="M148.5 13.5q-48.5 27.5 -79.5 85t-31 143.5q0 82 29 138.5t76 84.5t101 28q56 0 94.5 -26.5t61.5 -62.5h1v74h84v-478h-84v73h-1q-21 -35 -59 -61t-92 -26q-52 0 -100.5 27.5zM335.5 81q32.5 24 50.5 67t18 99q0 82 -39 127.5t-104 45.5q-62 0 -100 -44t-38 -131
q0 -89 39 -138.5t99 -49.5q42 0 74.5 24zM114 581l110 144h83l111 -144h-85l-67 84l-67 -84h-85z" />
    <glyph glyph-name="adieresis.ss01" horiz-adv-x="548" 
d="M148.5 13.5q-48.5 27.5 -79.5 85t-31 143.5q0 82 29 138.5t76 84.5t101 28q56 0 94.5 -26.5t61.5 -62.5h1v74h84v-478h-84v73h-1q-21 -35 -59 -61t-92 -26q-52 0 -100.5 27.5zM335.5 81q32.5 24 50.5 67t18 99q0 82 -39 127.5t-104 45.5q-62 0 -100 -44t-38 -131
q0 -89 39 -138.5t99 -49.5q42 0 74.5 24zM124 618.5q-19 17.5 -19 41.5q0 25 19 43t45 18t45 -18t19 -43q0 -24 -19 -41.5t-46 -17.5q-25 0 -44 17.5zM319.5 618.5q-18.5 17.5 -18.5 41.5q0 25 18.5 43t44.5 18t45 -17.5t19 -42.5t-19 -42.5t-46 -17.5q-25 0 -43.5 17.5z
" />
    <glyph glyph-name="agrave.ss01" horiz-adv-x="548" 
d="M148.5 13.5q-48.5 27.5 -79.5 85t-31 143.5q0 82 29 138.5t76 84.5t101 28q56 0 94.5 -26.5t61.5 -62.5h1v74h84v-478h-84v73h-1q-21 -35 -59 -61t-92 -26q-52 0 -100.5 27.5zM335.5 81q32.5 24 50.5 67t18 99q0 82 -39 127.5t-104 45.5q-62 0 -100 -44t-38 -131
q0 -89 39 -138.5t99 -49.5q42 0 74.5 24zM247 582l-118 143h108l89 -143h-79z" />
    <glyph glyph-name="amacron.ss01" horiz-adv-x="548" 
d="M148.5 13.5q-48.5 27.5 -79.5 85t-31 143.5q0 82 29 138.5t76 84.5t101 28q56 0 94.5 -26.5t61.5 -62.5h1v74h84v-478h-84v73h-1q-21 -35 -59 -61t-92 -26q-52 0 -100.5 27.5zM335.5 81q32.5 24 50.5 67t18 99q0 82 -39 127.5t-104 45.5q-62 0 -100 -44t-38 -131
q0 -89 39 -138.5t99 -49.5q42 0 74.5 24zM111 609v76h311v-76h-311z" />
    <glyph glyph-name="aogonek.ss01" horiz-adv-x="548" 
d="M373 -193q-28 26 -28 64q0 33 21.5 63t63.5 66h-29v73h-1q-21 -35 -59 -61t-92 -26q-52 0 -100.5 27.5t-79.5 85t-31 143.5q0 82 29 138.5t76 84.5t101 28q56 0 94.5 -26.5t61.5 -62.5h1v74h84v-478q-72 -65 -72 -113q0 -19 12.5 -32.5t33.5 -13.5q18 0 32.5 6.5
t29.5 18.5l7 -54q-15 -14 -38 -22.5t-47 -8.5q-42 0 -70 26zM335.5 81q32.5 24 50.5 67t18 99q0 82 -39 127.5t-104 45.5q-62 0 -100 -44t-38 -131q0 -89 39 -138.5t99 -49.5q42 0 74.5 24z" />
    <glyph glyph-name="aring.ss01" horiz-adv-x="548" 
d="M148.5 13.5q-48.5 27.5 -79.5 85t-31 143.5q0 82 29 138.5t76 84.5t101 28q56 0 94.5 -26.5t61.5 -62.5h1v74h84v-478h-84v73h-1q-21 -35 -59 -61t-92 -26q-52 0 -100.5 27.5zM335.5 81q32.5 24 50.5 67t18 99q0 82 -39 127.5t-104 45.5q-62 0 -100 -44t-38 -131
q0 -89 39 -138.5t99 -49.5q42 0 74.5 24zM187 596.5q-32 31.5 -32 79.5t32 79t80 31q47 0 79.5 -31t32.5 -79t-32 -79.5t-80 -31.5t-80 31.5zM309.5 632q17.5 17 17.5 45q0 27 -17.5 43.5t-41.5 16.5t-42.5 -17t-18.5 -43q0 -28 18 -45t43 -17q24 0 41.5 17z" />
    <glyph glyph-name="aringacute.ss01" horiz-adv-x="548" 
d="M148.5 13.5q-48.5 27.5 -79.5 85t-31 143.5q0 82 29 138.5t76 84.5t101 28q56 0 94.5 -26.5t61.5 -62.5h1v74h84v-478h-84v73h-1q-21 -35 -59 -61t-92 -26q-52 0 -100.5 27.5zM335.5 81q32.5 24 50.5 67t18 99q0 82 -39 127.5t-104 45.5q-62 0 -100 -44t-38 -131
q0 -89 39 -138.5t99 -49.5q42 0 74.5 24zM187 596.5q-32 31.5 -32 79.5t32 79t80 31q47 0 79.5 -31t32.5 -79t-32 -79.5t-80 -31.5t-80 31.5zM309.5 632q17.5 17 17.5 45q0 27 -17.5 43.5t-41.5 16.5t-42.5 -17t-18.5 -43q0 -28 18 -45t43 -17q24 0 41.5 17zM223 804l89 143
h108l-119 -143h-78z" />
    <glyph glyph-name="atilde.ss01" horiz-adv-x="548" 
d="M148.5 13.5q-48.5 27.5 -79.5 85t-31 143.5q0 82 29 138.5t76 84.5t101 28q56 0 94.5 -26.5t61.5 -62.5h1v74h84v-478h-84v73h-1q-21 -35 -59 -61t-92 -26q-52 0 -100.5 27.5zM335.5 81q32.5 24 50.5 67t18 99q0 82 -39 127.5t-104 45.5q-62 0 -100 -44t-38 -131
q0 -89 39 -138.5t99 -49.5q42 0 74.5 24zM301.5 597.5q-18.5 8.5 -46.5 26.5q-20 12 -33 18t-26 6q-18 0 -33 -14.5t-25 -40.5l-57 27q19 45 45.5 70t64.5 25q23 0 41.5 -8t39.5 -22q24 -16 36 -22.5t26 -6.5q18 0 33.5 14t24.5 41l57 -22q-18 -47 -45.5 -73.5t-62.5 -26.5
q-21 0 -39.5 8.5z" />
    <glyph glyph-name="zero.zero" horiz-adv-x="610" 
d="M117.5 81.5q-65.5 96.5 -65.5 267.5q0 115 30 198.5t87 128t136 44.5t135.5 -44t87 -127.5t30.5 -199.5q0 -171 -65.5 -267.5t-187.5 -96.5t-187.5 96.5zM382 624q-35 22 -77 22q-79 0 -123.5 -74.5t-44.5 -221.5q0 -141 42 -215zM430.5 134q42.5 75 42.5 217
q0 144 -43 218l-202 -489q33 -21 77 -21q83 0 125.5 75z" />
    <glyph glyph-name="zero.numrsuperior" horiz-adv-x="416" 
d="M88.5 474.5q-41.5 56.5 -41.5 160.5t41.5 164t119.5 60t119.5 -59.5t41.5 -164.5q0 -104 -41 -160.5t-120 -56.5q-78 0 -119.5 56.5zM276 514.5q22 37.5 22 120.5t-22 124t-68 41q-90 0 -90 -164q0 -83 22 -121t68 -38t68 37.5z" />
    <glyph glyph-name="one.numrsuperior" horiz-adv-x="300" 
d="M144 755q-11 -20 -31 -30t-44 -10h-22v65h13q36 0 59.5 20.5t27.5 51.5h67v-426h-70v329z" />
    <glyph glyph-name="two.numrsuperior" horiz-adv-x="382" 
d="M54 477q112 91 159.5 148t47.5 107q0 30 -17 49t-50 19q-42 0 -62 -30t-21 -72l-65 18q6 57 41.5 100t108.5 43q64 0 100 -35t36 -88q0 -60 -46 -118.5t-130 -126.5h178v-65h-280v51z" />
    <glyph glyph-name="three.numrsuperior" horiz-adv-x="402" 
d="M83.5 455.5q-38.5 37.5 -43.5 88.5l75 8q2 -31 23 -53t65 -22q36 0 58.5 18.5t22.5 49.5q0 38 -32 59t-84 19v54q45 1 71.5 19t26.5 47q0 24 -18 40t-50 16q-40 0 -59 -23t-19 -52l-67 8q1 49 35.5 88t108.5 39q65 0 103.5 -31.5t38.5 -77.5q0 -35 -23.5 -61.5
t-53.5 -32.5v-1q41 -9 68 -35t27 -73q0 -59 -44 -94t-115 -35q-76 0 -114.5 37.5z" />
    <glyph glyph-name="four.numrsuperior" horiz-adv-x="413" 
d="M236 426v94h-201v53l195 279h79v-275h64v-57h-64v-94h-73zM104 577h136v192h-1z" />
    <glyph glyph-name="five.numrsuperior" horiz-adv-x="406" 
d="M91.5 453.5q-38.5 35.5 -48.5 83.5l73 9q5 -26 25.5 -45.5t58.5 -19.5q40 0 63.5 23t23.5 65q0 40 -22 62.5t-62 22.5q-54 0 -80 -45l-67 16l26 227h254v-63h-194l-14 -108q38 33 89 33q61 0 101.5 -38t40.5 -105q0 -69 -44.5 -111t-116.5 -42q-68 0 -106.5 35.5z" />
    <glyph glyph-name="six.numrsuperior" horiz-adv-x="408" 
d="M90 470q-43 53 -43 161t43.5 168t122.5 60q59 0 93.5 -30.5t45.5 -68.5l-66 -19q-6 24 -25.5 41.5t-51.5 17.5q-44 0 -69 -39t-23 -116q16 22 42 34.5t61 12.5q64 0 103.5 -38t39.5 -96q0 -61 -43.5 -101t-111.5 -40q-75 0 -118 53zM269.5 498q21.5 22 21.5 57
q0 38 -22.5 59.5t-61.5 21.5q-37 0 -59.5 -18.5t-27.5 -41.5q0 -47 23.5 -73.5t67.5 -26.5q37 0 58.5 22z" />
    <glyph glyph-name="seven.numrsuperior" horiz-adv-x="361" 
d="M138.5 618q39.5 88 120.5 169h-221v65h285v-63q-140 -159 -162 -363h-74q12 104 51.5 192z" />
    <glyph glyph-name="eight.numrsuperior" horiz-adv-x="409" 
d="M88 455.5q-43 37.5 -43 92.5q0 40 21.5 68t56.5 45v1q-26 13 -43 36t-17 55q0 46 38 76t104 30t104 -30.5t38 -77.5q0 -31 -17.5 -53t-43.5 -34q33 -17 55.5 -45.5t22.5 -69.5q0 -56 -44 -93.5t-116 -37.5q-73 0 -116 37.5zM269.5 502.5q22.5 22.5 22.5 53.5
q0 33 -23.5 55t-63.5 22t-64 -22t-24 -55q0 -32 23 -54t64 -22q43 0 65.5 22.5zM256 704.5q19 16.5 19 44.5q0 25 -18 40t-52 15t-52.5 -15t-18.5 -41q0 -27 19.5 -43.5t51.5 -16.5t51 16.5z" />
    <glyph glyph-name="nine.numrsuperior" horiz-adv-x="410" 
d="M101.5 448q-34.5 30 -45.5 69l69 20q6 -25 25 -42t50 -17q44 0 68 38.5t22 114.5q-16 -22 -41.5 -34.5t-60.5 -12.5q-64 0 -103.5 38t-39.5 96q0 61 43.5 101t112.5 40q75 0 118.5 -52.5t43.5 -160.5t-43.5 -168t-123.5 -60q-60 0 -94.5 30zM260 659.5q22 18.5 28 41.5
q0 45 -23.5 71t-66.5 26q-37 0 -58 -21.5t-21 -55.5q0 -36 22 -58t61 -22q36 0 58 18.5z" />
    <glyph glyph-name="zero.osf" horiz-adv-x="591" 
d="M167.5 18q-59.5 32 -94.5 90.5t-35 132.5t35 132.5t94.5 91t130.5 32.5q70 0 128.5 -32.5t92.5 -91t34 -133.5t-34.5 -132.5t-93 -89.5t-128.5 -32t-129.5 32zM382.5 81q38.5 23 61.5 64t23 95q0 53 -22 95t-60.5 66t-86.5 24t-87.5 -24t-63 -66t-23.5 -95t23.5 -94.5
t63 -64.5t86.5 -23t85.5 23z" />
    <glyph glyph-name="one.osf" horiz-adv-x="352" 
d="M194 341q-18 -30 -51.5 -45t-76.5 -15h-31l-3 75h18q62 0 101.5 34t44.5 88h82v-478h-84v341z" />
    <glyph glyph-name="two.osf" horiz-adv-x="487" 
d="M47 57q115 70 179.5 116t98.5 87t34 82q0 39 -28 60.5t-79 21.5q-66 0 -98 -34t-36 -81l-82 21q10 64 62 113t154 49q89 0 140.5 -41t51.5 -105q0 -50 -32 -93.5t-86.5 -83t-147.5 -96.5h269v-73h-400v57z" />
    <glyph glyph-name="three.osf" horiz-adv-x="539" 
d="M99 -123.5q-57 56.5 -67 134.5l91 8q3 -49 38 -87t111 -38q67 0 106 32.5t39 87.5q0 64 -51.5 100t-139.5 34v67q72 1 115.5 33t43.5 80q0 40 -30.5 67.5t-88.5 27.5q-48 0 -77.5 -19t-41.5 -46.5t-11 -54.5l-81 8q1 43 21 85.5t67 71.5t122 29q65 0 112 -22.5t71 -59.5
t24 -81q0 -54 -34 -95t-83 -49v-2q65 -13 107.5 -55.5t42.5 -114.5q0 -59 -30.5 -104t-84.5 -69.5t-124 -24.5q-110 0 -167 56.5z" />
    <glyph glyph-name="four.osf" horiz-adv-x="556" 
d="M345 -166v166h-310v67l303 420h94v-413h99v-74h-99v-166h-87zM121 74h229v303h-1z" />
    <glyph glyph-name="five.osf" horiz-adv-x="544" 
d="M149.5 -153q-49.5 27 -76.5 67.5t-35 83.5l88 10q10 -45 45.5 -77.5t99.5 -32.5q70 0 111.5 41t41.5 112q0 69 -38 107.5t-107 38.5q-88 0 -140 -68l-78 21l39 337h374v-78h-304l-24 -195q62 60 146 60q60 0 109.5 -27t79 -77t29.5 -116t-29.5 -119t-84 -84t-127.5 -31
q-70 0 -119.5 27z" />
    <glyph glyph-name="six.osf" horiz-adv-x="542" 
d="M102.5 65.5q-64.5 79.5 -64.5 245.5q0 113 31 192t86.5 119.5t128.5 40.5q80 0 130.5 -43t70.5 -101l-77 -27q-11 40 -44 68t-86 28q-74 0 -116.5 -65t-39.5 -199q55 76 163 76q64 0 114 -26t77.5 -72t27.5 -105q0 -62 -30.5 -110t-82.5 -74.5t-116 -26.5
q-108 0 -172.5 79.5zM381 97q36 36 36 96q0 63 -38.5 101t-105.5 38q-62 0 -99 -31t-47 -71q0 -81 40 -125t112 -44q66 0 102 36z" />
    <glyph glyph-name="seven.osf" horiz-adv-x="486" 
d="M190.5 133.5q65.5 142.5 190.5 275.5h-347v78h420v-78q-115 -137 -178.5 -279.5t-81.5 -295.5h-89q20 157 85.5 299.5z" />
    <glyph glyph-name="eight.osf" horiz-adv-x="543" 
d="M150 12.5q-53 26.5 -82.5 72t-29.5 100.5q0 62 35.5 105t87.5 69v1q-38 17 -66.5 52t-28.5 85q0 46 25.5 84t72.5 59.5t108 21.5q62 0 109 -22t72.5 -59t25.5 -82q0 -51 -28.5 -84t-68.5 -51v-1q50 -23 86.5 -68.5t36.5 -109.5q0 -53 -29 -98.5t-82 -73t-123 -27.5
q-68 0 -121 26.5zM354 77q34 19 51 50t17 66q0 56 -41 93t-109 37t-109.5 -38t-41.5 -95q0 -35 17.5 -65t52 -48.5t81.5 -18.5q48 0 82 19zM362.5 422q33.5 29 33.5 75q0 45 -32.5 71t-92.5 26q-58 0 -90.5 -25.5t-32.5 -70.5q0 -48 34 -76.5t90 -28.5q57 0 90.5 29z" />
    <glyph glyph-name="nine.osf" horiz-adv-x="542" 
d="M128 -137.5q-51 42.5 -71 101.5l77 27q11 -40 44 -68t86 -28q74 0 116.5 65t39.5 199q-55 -76 -163 -76q-64 0 -114 26t-77.5 72t-27.5 105q0 62 30.5 110t82.5 74.5t116 26.5q108 0 172.5 -79.5t64.5 -245.5q0 -113 -30.5 -192t-86 -119.5t-129.5 -40.5q-79 0 -130 42.5
zM368 182q37 31 47 71q0 81 -40 125t-112 44q-66 0 -102 -36t-36 -96q0 -64 39 -101.5t105 -37.5q62 0 99 31z" />
    <glyph glyph-name="zero.tf" 
d="M107 81q-66 96 -66 268q0 115 30 199t86.5 128.5t135.5 44.5t136 -45t86.5 -128.5t29.5 -197.5q0 -173 -66 -269t-186 -96t-186 96zM417.5 134q42.5 75 42.5 217q0 141 -42.5 218.5t-124.5 77.5t-124.5 -77t-42.5 -219t42.5 -217t124.5 -75t124.5 75z" />
    <glyph glyph-name="one.tf" 
d="M297 581q-39 -68 -140 -68h-36v76h19q68 0 110.5 34t47.5 88h85v-711h-86v581z" />
    <glyph glyph-name="two.tf" 
d="M74 68q124 99 200 173t116.5 141.5t40.5 133.5q0 60 -34 96.5t-99 36.5q-80 0 -116.5 -52t-38.5 -124l-82 21q6 58 32 109.5t77 84.5t128 33q67 0 116.5 -26t75.5 -72t26 -104q0 -77 -42.5 -150t-107 -137t-166.5 -149h321v-83h-447v68z" />
    <glyph glyph-name="three.tf" 
d="M149.5 16q-54.5 31 -82 77.5t-33.5 97.5l94 8q3 -55 42 -97.5t125 -42.5q74 0 118.5 37t44.5 98q0 71 -57.5 111.5t-157.5 39.5v70q83 1 131 36t48 88q0 45 -34.5 76.5t-100.5 31.5q-53 0 -85.5 -20.5t-46 -51.5t-12.5 -62l-84 8q0 45 21.5 90.5t72 77.5t132.5 32
q69 0 119.5 -24t76.5 -64t26 -88q0 -59 -36 -103t-90 -54v-2q71 -14 116.5 -62t45.5 -125q0 -64 -33 -112.5t-91 -75t-133 -26.5q-82 0 -136.5 31z" />
    <glyph glyph-name="four.tf" 
d="M362 0v161h-341v69l329 481h97v-473h107v-77h-107v-161h-85zM108 238h255v363h-1z" />
    <glyph glyph-name="five.tf" 
d="M156 14.5q-53 29.5 -82.5 73.5t-37.5 89l91 10q11 -51 49.5 -89.5t110.5 -38.5q78 0 125 48.5t47 128.5q0 79 -44.5 123.5t-118.5 44.5q-59 0 -93 -23t-61 -56l-80 22l42 364h401v-82h-331l-27 -217q69 67 163 67q65 0 118.5 -30.5t84.5 -85.5t31 -125t-31 -128
t-90 -91.5t-138 -33.5q-76 0 -129 29.5z" />
    <glyph glyph-name="six.tf" 
d="M114.5 70q-69.5 85 -69.5 267q0 124 33.5 210.5t92.5 130t137 43.5q84 0 138.5 -45.5t77.5 -109.5l-82 -33q-10 44 -44 79t-92 35q-57 0 -97.5 -37t-60.5 -104.5t-17 -155.5q28 40 74.5 63t107.5 23q68 0 121 -29t82 -79.5t29 -114.5q0 -67 -32.5 -119t-89 -80.5
t-124.5 -28.5q-115 0 -184.5 85zM413 100.5q42 41.5 42 109.5q0 69 -43 111.5t-116 42.5q-68 0 -109 -35t-51 -81q0 -89 47.5 -139t120.5 -50q67 0 109 41.5z" />
    <glyph glyph-name="seven.tf" 
d="M238 333q72 156 210 297h-385v81h459v-82q-132 -152 -203 -305t-86 -324h-89q22 177 94 333z" />
    <glyph glyph-name="eight.tf" 
d="M155 13.5q-57 28.5 -86.5 77t-29.5 106.5q0 70 39 118t98 76v1q-44 19 -75.5 57.5t-31.5 95.5q0 51 27.5 91t78 62.5t117.5 22.5t117.5 -22.5t78 -62.5t27.5 -90q0 -56 -32 -93.5t-76 -55.5v-1q53 -24 94.5 -74t41.5 -122q0 -58 -30 -107t-87.5 -78.5t-136.5 -29.5
q-77 0 -134 28.5zM413 102q45 41 45 104q0 41 -20.5 75t-58 54t-87.5 20t-88.5 -20t-59 -54t-20.5 -75q0 -38 19.5 -71.5t57.5 -53.5t90 -20q77 0 122 41zM393 459.5q37 31.5 37 82.5q0 50 -36.5 80t-102.5 30q-65 0 -101 -29.5t-36 -77.5q0 -54 38 -85.5t101 -31.5
t100 31.5z" />
    <glyph glyph-name="nine.tf" 
d="M139.5 30.5q-54.5 45.5 -77.5 109.5l82 33q10 -44 44 -79t92 -35q53 0 93.5 34t62 101t19.5 162q-28 -40 -74 -63t-108 -23q-68 0 -121 29t-82 79.5t-29 114.5q0 67 32.5 119t89 80.5t124.5 28.5q115 0 184.5 -85.5t69.5 -267.5q0 -123 -33.5 -209.5t-92.5 -130
t-137 -43.5q-84 0 -138.5 45.5zM398.5 377q40.5 35 51.5 81q0 89 -47.5 139t-120.5 50q-67 0 -109 -41.5t-42 -109.5q0 -69 43 -111.5t116 -42.5q68 0 108.5 35z" />
    <glyph glyph-name="zero.tosf" 
d="M165 18q-59 32 -94.5 90.5t-35.5 132.5t35 132.5t94.5 91.5t130.5 33q70 0 128 -32.5t92 -91.5t34 -133q0 -76 -34.5 -134t-93 -89.5t-127.5 -31.5q-70 0 -129 32zM380 81.5q39 23.5 61 65.5t22 95q0 52 -22 94t-60.5 66t-85.5 24q-48 0 -87.5 -24t-63 -66.5t-23.5 -95.5
t23.5 -94.5t63 -64.5t85.5 -23q48 0 87 23.5z" />
    <glyph glyph-name="one.tosf" 
d="M315 342q-21 -30 -58 -45t-86 -15h-35l-3 75h20q70 0 114 34t49 88h86v-479h-87v342z" />
    <glyph glyph-name="two.tosf" 
d="M91 57q118 70 184.5 116.5t101.5 87.5t35 82q0 38 -28.5 60t-81.5 22q-71 0 -103 -34.5t-36 -80.5l-83 21q11 67 65 114.5t156 47.5q61 0 105.5 -19t68 -52t23.5 -75q0 -50 -33.5 -94t-89.5 -83.5t-152 -96.5h278v-73h-410v57z" />
    <glyph glyph-name="three.tosf" 
d="M160 -151q-51 29 -76 72t-31 90l91 8q3 -49 38.5 -87t112.5 -38q68 0 107.5 32.5t39.5 87.5q0 63 -51 99t-142 35v67q72 1 116.5 34t44.5 80q0 40 -31 67.5t-90 27.5q-49 0 -78.5 -19t-41.5 -46.5t-11 -54.5l-82 8q1 46 22.5 88.5t69 70t120.5 27.5q66 0 113 -22.5
t71.5 -59.5t24.5 -81q0 -55 -35 -95.5t-83 -49.5v-2q66 -13 109 -56t43 -114q0 -59 -31 -104t-86 -69.5t-125 -24.5q-78 0 -129 29z" />
    <glyph glyph-name="four.tosf" 
d="M360 -166v166h-312v67l305 421h94v-414h100v-74h-100v-166h-87zM134 74h231v304h-1z" />
    <glyph glyph-name="five.tosf" 
d="M167.5 -152q-49.5 28 -76.5 68.5t-35 81.5l88 10q10 -45 47 -77.5t100 -32.5q71 0 113 41t42 112q0 69 -38.5 107.5t-108.5 38.5q-89 0 -141 -68l-79 21l40 338h377v-78h-307l-24 -196q62 61 147 61q60 0 110.5 -27t80 -77.5t29.5 -116.5t-29.5 -119t-84.5 -84t-129 -31
q-72 0 -121.5 28z" />
    <glyph glyph-name="six.tosf" 
d="M122 65.5q-65 79.5 -65 245.5q0 113 31 192.5t87 120t130 40.5q80 0 131 -42.5t72 -101.5l-77 -27q-11 38 -43.5 67t-88.5 29q-74 0 -117.5 -65.5t-40.5 -199.5q56 77 165 77q65 0 115 -26t78 -72.5t28 -104.5q0 -59 -29 -107.5t-81.5 -76.5t-119.5 -28q-110 0 -175 79.5
zM403.5 97q36.5 36 36.5 96q0 63 -39.5 101.5t-106.5 38.5q-62 0 -100 -31.5t-48 -71.5q0 -81 41 -125t113 -44q67 0 103.5 36z" />
    <glyph glyph-name="seven.tosf" 
d="M239 132.5q67 143.5 196 277.5h-356v78h430v-78q-230 -269 -267 -576h-90q20 155 87 298.5z" />
    <glyph glyph-name="eight.tosf" 
d="M169.5 13q-53.5 27 -83 72t-29.5 98q0 63 35.5 106.5t88.5 70.5v1q-38 16 -67 51.5t-29 85.5q0 46 26 83.5t73 59.5t109 22q63 0 110.5 -22t73 -59t25.5 -82q0 -51 -29.5 -84t-68.5 -51v-1q49 -23 86.5 -68.5t37.5 -109.5q0 -55 -29.5 -100.5t-83.5 -72.5t-123 -27
t-122.5 27zM375.5 77q34.5 19 52 50t17.5 66q0 56 -41.5 93.5t-110.5 37.5q-46 0 -80.5 -18t-53.5 -48t-19 -67q0 -35 18 -65.5t52.5 -49t82.5 -18.5t82.5 19zM385 423q34 29 34 75q0 45 -33.5 71t-92.5 26t-92 -26t-33 -71q0 -47 34.5 -75.5t91.5 -28.5t91 29z" />
    <glyph glyph-name="nine.tosf" 
d="M147 -136.5q-51 43.5 -71 100.5l77 27q11 -38 43.5 -67t88.5 -29q75 0 118 65t40 199q-26 -36 -67.5 -56t-97.5 -20q-65 0 -115 26t-78 72.5t-28 104.5t28.5 106.5t80.5 77t120 28.5q110 0 175.5 -79.5t65.5 -246.5q0 -113 -31 -192t-87 -119.5t-130 -40.5
q-81 0 -132 43.5zM390 182q38 31 48 72q0 81 -40.5 125t-113.5 44q-67 0 -103.5 -36.5t-36.5 -96.5q0 -62 39.5 -100.5t106.5 -38.5q62 0 100 31z" />
    <glyph glyph-name="zero.subs" horiz-adv-x="416" 
d="M88.5 -91.5q-41.5 56.5 -41.5 160.5t41.5 164t119.5 60t119.5 -59.5t41.5 -164.5q0 -104 -41 -160.5t-120 -56.5q-78 0 -119.5 56.5zM276 -51.5q22 37.5 22 120.5t-22 124t-68 41q-90 0 -90 -164q0 -83 22 -121t68 -38t68 37.5z" />
    <glyph glyph-name="one.subs" horiz-adv-x="300" 
d="M144 189q-11 -20 -31 -30t-44 -10h-22v65h13q36 0 59.5 20.5t27.5 51.5h67v-426h-70v329z" />
    <glyph glyph-name="two.subs" horiz-adv-x="382" 
d="M54 -89q112 91 159.5 148t47.5 107q0 30 -17 49t-50 19q-42 0 -62 -30t-21 -72l-65 18q6 57 41.5 100t108.5 43q64 0 100 -35t36 -88q0 -60 -46 -118.5t-130 -126.5h178v-65h-280v51z" />
    <glyph glyph-name="three.subs" horiz-adv-x="402" 
d="M83.5 -110.5q-38.5 37.5 -43.5 88.5l75 8q2 -31 23 -53t65 -22q36 0 58.5 18.5t22.5 49.5q0 38 -32 59t-84 19v54q45 1 71.5 19t26.5 47q0 24 -18 40t-51 16q-39 0 -57.5 -22t-19.5 -53l-67 8q1 49 35.5 88t108.5 39q65 0 103.5 -31.5t38.5 -77.5q0 -35 -23.5 -61.5
t-53.5 -32.5v-1q41 -9 68 -35t27 -73q0 -59 -44 -94t-115 -35q-76 0 -114.5 37.5z" />
    <glyph glyph-name="four.subs" horiz-adv-x="413" 
d="M236 -140v94h-201v53l195 279h79v-275h64v-57h-64v-94h-73zM104 11h136v192h-1z" />
    <glyph glyph-name="five.subs" horiz-adv-x="406" 
d="M91.5 -112.5q-38.5 35.5 -48.5 83.5l73 9q5 -25 25 -45t59 -20q40 0 63.5 23t23.5 65q0 40 -22 62.5t-62 22.5q-54 0 -80 -45l-67 16l26 227h254v-63h-194l-14 -108q38 33 89 33q61 0 101.5 -38t40.5 -105q0 -69 -44.5 -111t-116.5 -42q-68 0 -106.5 35.5z" />
    <glyph glyph-name="six.subs" horiz-adv-x="408" 
d="M90 -36.5q-43 52.5 -43 160.5q0 109 43.5 169t122.5 60q59 0 93.5 -30.5t45.5 -68.5l-66 -19q-6 24 -25.5 41.5t-51.5 17.5q-44 0 -69 -39t-23 -116q16 22 42 34.5t61 12.5q64 0 103.5 -38t39.5 -96q0 -61 -43.5 -101t-112.5 -40q-74 0 -117 52.5zM269.5 -8
q21.5 22 21.5 57q0 38 -22.5 59.5t-61.5 21.5q-37 0 -59.5 -18.5t-27.5 -41.5q0 -47 23.5 -73.5t67.5 -26.5q37 0 58.5 22z" />
    <glyph glyph-name="seven.subs" horiz-adv-x="361" 
d="M138.5 52q39.5 88 120.5 169h-221v65h285v-63q-140 -159 -162 -363h-74q12 104 51.5 192z" />
    <glyph glyph-name="eight.subs" horiz-adv-x="409" 
d="M88 -110.5q-43 37.5 -43 92.5q0 40 21.5 68t56.5 45v1q-26 13 -43 36t-17 55q0 46 38 76t104 30t104 -30.5t38 -77.5q0 -31 -17.5 -53t-43.5 -34q33 -17 55.5 -45.5t22.5 -69.5q0 -56 -44 -93.5t-116 -37.5q-73 0 -116 37.5zM269.5 -63.5q22.5 22.5 22.5 53.5
q0 33 -23.5 55t-63.5 22t-64 -22t-24 -55q0 -32 23 -54t64 -22q43 0 65.5 22.5zM256 138.5q19 16.5 19 44.5q0 25 -18 40t-52 15t-52.5 -15t-18.5 -41q0 -27 19.5 -43.5t51.5 -16.5t51 16.5z" />
    <glyph glyph-name="nine.subs" horiz-adv-x="410" 
d="M101.5 -118q-34.5 30 -45.5 69l69 20q6 -25 25 -42t50 -17q44 0 68 38.5t22 114.5q-16 -22 -41.5 -34.5t-60.5 -12.5q-64 0 -103.5 38t-39.5 96q0 61 43.5 101t112.5 40q75 0 118.5 -52.5t43.5 -160.5t-43.5 -168t-123.5 -60q-60 0 -94.5 30zM260 93.5q22 18.5 28 41.5
q0 45 -23.5 71t-66.5 26q-37 0 -58 -21.5t-21 -55.5q0 -36 22 -58t61 -22q36 0 58 18.5z" />
    <glyph glyph-name="zero.dnom" horiz-adv-x="416" 
d="M88.5 48.5q-41.5 56.5 -41.5 160.5t41.5 164t119.5 60t119.5 -59.5t41.5 -164.5q0 -104 -41 -160.5t-120 -56.5q-78 0 -119.5 56.5zM276 88.5q22 37.5 22 120.5t-22 124t-68 41q-90 0 -90 -164q0 -83 22 -121t68 -38t68 37.5z" />
    <glyph glyph-name="one.dnom" horiz-adv-x="300" 
d="M144 329q-11 -20 -31 -30t-44 -10h-22v65h13q36 0 59.5 20.5t27.5 51.5h67v-426h-70v329z" />
    <glyph glyph-name="two.dnom" horiz-adv-x="382" 
d="M54 51q112 91 159.5 148t47.5 107q0 30 -17 49t-50 19q-42 0 -62 -30t-21 -72l-65 18q6 57 41.5 100t108.5 43q64 0 100 -35t36 -88q0 -60 -46 -118.5t-130 -126.5h178v-65h-280v51z" />
    <glyph glyph-name="three.dnom" horiz-adv-x="402" 
d="M83.5 29.5q-38.5 37.5 -43.5 88.5l75 8q2 -31 23 -53t65 -22q36 0 58.5 18.5t22.5 49.5q0 38 -32 59t-84 19v54q45 1 71.5 19t26.5 47q0 24 -18 40t-50 16q-40 0 -59 -23t-19 -52l-67 8q1 49 35.5 88t108.5 39q65 0 103.5 -31.5t38.5 -77.5q0 -35 -23.5 -61.5
t-53.5 -32.5v-1q41 -9 68 -35t27 -73q0 -59 -44 -94t-115 -35q-76 0 -114.5 37.5z" />
    <glyph glyph-name="four.dnom" horiz-adv-x="413" 
d="M236 0v94h-201v53l195 279h79v-275h64v-57h-64v-94h-73zM104 151h136v192h-1z" />
    <glyph glyph-name="five.dnom" horiz-adv-x="406" 
d="M91.5 27.5q-38.5 35.5 -48.5 83.5l73 9q5 -25 25 -45t59 -20q40 0 63.5 23t23.5 65q0 40 -22 62.5t-62 22.5q-54 0 -80 -45l-67 16l26 227h254v-63h-194l-14 -108q38 33 89 33q61 0 101.5 -38t40.5 -105q0 -69 -44.5 -111t-116.5 -42q-68 0 -106.5 35.5z" />
    <glyph glyph-name="six.dnom" horiz-adv-x="410" 
d="M90.5 44q-43.5 52 -43.5 161q0 108 43.5 168t123.5 60q59 0 94 -30t46 -70l-69 -19q-6 23 -24 40.5t-51 17.5q-44 0 -67.5 -38.5t-22.5 -113.5q34 47 103 47q63 0 102.5 -38t39.5 -97q0 -63 -44.5 -101.5t-112.5 -38.5q-74 0 -117.5 52zM270 73.5q21 21.5 21 56.5t-22 57
t-61 22q-36 0 -58 -18t-27 -41q0 -45 23 -71.5t66 -26.5q37 0 58 21.5z" />
    <glyph glyph-name="seven.dnom" horiz-adv-x="361" 
d="M138.5 192q39.5 88 120.5 169h-221v65h285v-63q-140 -159 -162 -363h-74q12 104 51.5 192z" />
    <glyph glyph-name="eight.dnom" horiz-adv-x="409" 
d="M88 29.5q-43 37.5 -43 92.5q0 40 21.5 68t56.5 45v1q-26 13 -43 36t-17 55q0 46 38 76t104 30t104 -30.5t38 -77.5q0 -31 -17.5 -53t-43.5 -34q33 -17 55.5 -45.5t22.5 -69.5q0 -56 -44 -93.5t-116 -37.5q-73 0 -116 37.5zM269.5 76.5q22.5 22.5 22.5 53.5q0 33 -23.5 55
t-63.5 22t-64 -22t-24 -55q0 -32 23 -54t64 -22q43 0 65.5 22.5zM256 278.5q19 16.5 19 44.5q0 25 -18 40t-52 15t-52.5 -15t-18.5 -41q0 -27 19.5 -43.5t51.5 -16.5t51 16.5z" />
    <glyph glyph-name="nine.dnom" horiz-adv-x="410" 
d="M103 21q-35 29 -47 70l69 20q6 -25 25 -42t50 -17q44 0 68 38.5t22 114.5q-16 -22 -41.5 -34.5t-60.5 -12.5q-64 0 -103.5 38t-39.5 96q0 61 43.5 101t112.5 40q75 0 118.5 -52.5t43.5 -160.5t-43.5 -168t-123.5 -60q-58 0 -93 29zM260 233.5q22 18.5 28 41.5
q0 45 -23.5 71t-66.5 26q-37 0 -58 -21.5t-21 -55.5q0 -36 22 -58t61 -22q36 0 58 18.5z" />
    <glyph glyph-name="zero.numr" horiz-adv-x="416" 
d="M88.5 355.5q-41.5 56.5 -41.5 160.5t41.5 164t119.5 60t119.5 -59.5t41.5 -164.5q0 -104 -41 -160.5t-120 -56.5q-78 0 -119.5 56.5zM276 395.5q22 37.5 22 120.5t-22 124t-68 41q-90 0 -90 -164q0 -83 22 -121t68 -38t68 37.5z" />
    <glyph glyph-name="one.numr" horiz-adv-x="300" 
d="M144 636q-11 -20 -31 -30t-44 -10h-22v65h13q36 0 59.5 20.5t27.5 51.5h67v-426h-70v329z" />
    <glyph glyph-name="two.numr" horiz-adv-x="382" 
d="M54 358q112 91 159.5 148t47.5 107q0 30 -17 49t-50 19q-42 0 -62 -30t-21 -72l-65 18q6 57 41.5 100t108.5 43q64 0 100 -35t36 -88q0 -60 -46 -118.5t-130 -126.5h178v-65h-280v51z" />
    <glyph glyph-name="three.numr" horiz-adv-x="402" 
d="M83.5 336.5q-38.5 37.5 -43.5 88.5l75 8q2 -31 23 -53t65 -22q36 0 58.5 18.5t22.5 49.5q0 38 -32 59t-84 19v54q45 1 71.5 19t26.5 47q0 24 -18 40t-51 16q-39 0 -57.5 -22t-19.5 -53l-67 8q1 49 35.5 88t108.5 39q65 0 103.5 -31.5t38.5 -77.5q0 -35 -23.5 -61.5
t-53.5 -32.5v-1q41 -9 68 -35t27 -73q0 -59 -44 -94t-115 -35q-76 0 -114.5 37.5z" />
    <glyph glyph-name="four.numr" horiz-adv-x="413" 
d="M236 307v94h-201v53l195 279h79v-275h64v-57h-64v-94h-73zM104 458h136v192h-1z" />
    <glyph glyph-name="five.numr" horiz-adv-x="406" 
d="M91.5 334.5q-38.5 35.5 -48.5 83.5l73 9q5 -25 25 -45t59 -20q40 0 63.5 23t23.5 65q0 40 -22 62.5t-62 22.5q-54 0 -80 -45l-67 16l26 227h254v-63h-194l-14 -108q38 33 89 33q61 0 101.5 -38t40.5 -105q0 -69 -44.5 -111t-116.5 -42q-68 0 -106.5 35.5z" />
    <glyph glyph-name="six.numr" horiz-adv-x="408" 
d="M90 351q-43 53 -43 161t43.5 168t122.5 60q59 0 93.5 -30.5t45.5 -68.5l-66 -19q-6 24 -25.5 41.5t-51.5 17.5q-44 0 -69 -39t-23 -116q16 22 42 34.5t61 12.5q64 0 103.5 -38t39.5 -96q0 -61 -43.5 -101t-111.5 -40q-75 0 -118 53zM269.5 379q21.5 22 21.5 57
q0 38 -22.5 59.5t-61.5 21.5q-37 0 -59.5 -18.5t-27.5 -41.5q0 -47 23.5 -73.5t67.5 -26.5q37 0 58.5 22z" />
    <glyph glyph-name="seven.numr" horiz-adv-x="361" 
d="M138.5 499q39.5 88 120.5 169h-221v65h285v-63q-140 -159 -162 -363h-74q12 104 51.5 192z" />
    <glyph glyph-name="eight.numr" horiz-adv-x="409" 
d="M88 336.5q-43 37.5 -43 92.5q0 40 21.5 68t56.5 45v1q-26 13 -43 36t-17 55q0 46 38 76t104 30t104 -30.5t38 -77.5q0 -31 -17.5 -53t-43.5 -34q33 -17 55.5 -45.5t22.5 -69.5q0 -56 -44 -93.5t-116 -37.5q-73 0 -116 37.5zM269.5 383.5q22.5 22.5 22.5 53.5
q0 33 -23.5 55t-63.5 22t-64 -22t-24 -55q0 -32 23 -54t64 -22q43 0 65.5 22.5zM256 585.5q19 16.5 19 44.5q0 25 -18 40t-52 15t-52.5 -15t-18.5 -41q0 -27 19.5 -43.5t51.5 -16.5t51 16.5z" />
    <glyph glyph-name="nine.numr" horiz-adv-x="410" 
d="M101.5 329q-34.5 30 -45.5 69l69 20q6 -25 25 -42t50 -17q44 0 68 38.5t22 114.5q-16 -22 -41.5 -34.5t-60.5 -12.5q-64 0 -103.5 38t-39.5 96q0 61 43.5 101t112.5 40q75 0 118.5 -52.5t43.5 -160.5t-43.5 -168t-123.5 -60q-60 0 -94.5 30zM260 540.5q22 18.5 28 41.5
q0 45 -23.5 71t-66.5 26q-37 0 -58 -21.5t-21 -55.5q0 -36 22 -58t61 -22q36 0 58 18.5z" />
    <glyph glyph-name="colon.case" horiz-adv-x="277" 
d="M90.5 94.5q-18.5 19.5 -18.5 47.5t18.5 47.5t48.5 19.5q29 0 47.5 -19.5t18.5 -47.5t-18.5 -47.5t-47.5 -19.5q-30 0 -48.5 19.5zM90.5 456.5q-18.5 19.5 -18.5 47.5t18.5 47.5t48.5 19.5q29 0 47.5 -19.5t18.5 -47.5t-18.5 -47.5t-47.5 -19.5q-30 0 -48.5 19.5z" />
    <glyph glyph-name="exclamdown.case" horiz-adv-x="276" 
d="M104 551h69q1 -226 10 -545h-89q9 319 10 545zM91 628.5q-19 19.5 -19 46.5q0 28 19 47.5t46 19.5q28 0 47.5 -19.5t19.5 -47.5q0 -27 -19.5 -46.5t-47.5 -19.5q-27 0 -46 19.5z" />
    <glyph glyph-name="questiondown.case" horiz-adv-x="600" 
d="M176.5 10q-51.5 24 -78 66t-26.5 95q0 43 16.5 76t38.5 54.5t58 49.5q55 43 72.5 61t17.5 36q0 11 -5 22t-12.5 22.5t-11.5 18.5l76 31q18 -23 29.5 -45.5t11.5 -53.5q0 -37 -24 -67.5t-87 -79.5q-29 -23 -45.5 -38t-29 -37t-12.5 -50q0 -47 35 -78.5t97 -31.5
q74 0 107 41t34 97l90 -16q-4 -80 -58 -138.5t-171 -58.5q-71 0 -122.5 24zM252.5 627.5q-20.5 19.5 -20.5 47.5t20.5 47.5t48.5 19.5q29 0 49 -19.5t20 -47.5t-20 -47.5t-49 -19.5q-28 0 -48.5 19.5z" />
    <glyph glyph-name="slash.case" horiz-adv-x="479" 
d="M52 -94l296 878h79l-296 -878h-79z" />
    <glyph glyph-name="backslash.case" horiz-adv-x="484" 
d="M348 -94l-296 878h84l296 -878h-84z" />
    <glyph glyph-name="parenleft.case" horiz-adv-x="420" 
d="M133.5 78q-61.5 131 -61.5 269q0 92 29.5 183.5t82.5 168t121 124.5l43 -51q-87 -75 -141.5 -188.5t-54.5 -233.5q0 -129 56 -245.5t141 -184.5l-42 -51q-112 78 -173.5 209z" />
    <glyph glyph-name="parenright.case" horiz-adv-x="420" 
d="M72 -77q87 75 141.5 188.5t54.5 233.5q0 129 -56 245.5t-141 184.5l42 51q112 -78 173.5 -209t61.5 -269q0 -92 -29.5 -183.5t-82.5 -168t-121 -124.5z" />
    <glyph glyph-name="braceleft.case" horiz-adv-x="483" 
d="M326.5 -97.5q-36.5 10.5 -64.5 57t-36 146.5l-2 33q-3 59 -11.5 93.5t-38.5 61t-92 36.5v59q62 10 92 37t38.5 61.5t11.5 93.5l2 33q8 100 35.5 146.5t64.5 57t101 10.5h13v-81h-13q-38 0 -61 -8t-40 -43t-22 -111l-2 -33q-2 -56 -8.5 -92t-29.5 -64t-71 -36
q48 -9 71 -37t29.5 -63.5t8.5 -92.5l2 -33q5 -76 22.5 -111t39.5 -43t60 -8h14v-80h-14q-63 0 -99.5 10.5z" />
    <glyph glyph-name="braceright.case" horiz-adv-x="483" 
d="M43 -27h13q38 0 61 8t40 43t22 111l2 33q2 56 8.5 92t29.5 64t71 36q-48 9 -71 37t-29.5 63.5t-8.5 92.5l-2 33q-5 76 -22.5 111t-39.5 43t-60 8h-14v80h14q63 0 99.5 -10.5t64.5 -57t36 -146.5l2 -33q3 -59 11.5 -93.5t38.5 -61t92 -36.5v-59q-62 -10 -92 -37
t-38.5 -61.5t-11.5 -93.5l-2 -33q-8 -100 -35.5 -146.5t-64.5 -57t-101 -10.5h-13v81z" />
    <glyph glyph-name="bracketleft.case" horiz-adv-x="339" 
d="M72 -85v892h195v-77h-118v-738h118v-77h-195z" />
    <glyph glyph-name="bracketright.case" horiz-adv-x="339" 
d="M72 -84v77h118v738h-118v77h195v-892h-195z" />
    <glyph glyph-name="hyphen.case" horiz-adv-x="502" 
d="M72 302v82h358v-82h-358z" />
    <glyph glyph-name="endash.case" horiz-adv-x="698" 
d="M72 302v81h554v-81h-554z" />
    <glyph glyph-name="emdash.case" horiz-adv-x="997" 
d="M72 301v84h853v-84h-853z" />
    <glyph glyph-name="guillemotleft.case" horiz-adv-x="545" 
d="M397 134l-133 195v8l133 190h86l-132 -193l132 -200h-86zM196 134l-133 195v8l133 190h86l-132 -193l132 -200h-86z" />
    <glyph glyph-name="guillemotright.case" horiz-adv-x="545" 
d="M263 134l132 200l-132 193h86l133 -190v-8l-133 -195h-86zM62 134l132 200l-132 193h86l133 -190v-8l-133 -195h-86z" />
    <glyph glyph-name="guilsinglleft.case" horiz-adv-x="344" 
d="M196 134l-133 195v8l133 190h86l-132 -193l132 -200h-86z" />
    <glyph glyph-name="guilsinglright.case" horiz-adv-x="344" 
d="M62 134l132 200l-132 193h86l133 -190v-8l-133 -195h-86z" />
    <glyph glyph-name="space.tf" 
 />
    <glyph glyph-name="space.tosf" 
 />
    <glyph glyph-name="cent.osf" horiz-adv-x="540" 
d="M233 -10q-75 15 -122 77.5t-47 166.5q0 80 29.5 136t80.5 84t115 28l13 -1l10 74h53l-12 -86q46 -17 77 -58t44 -104l-78 -12q-14 72 -54 98l-47 -334q38 3 66 29t35 80l79 -4q-12 -85 -62.5 -130.5t-127.5 -47.5l-12 -85h-53zM292 410q-4 1 -11 1q-62 0 -100.5 -47
t-38.5 -129q0 -71 28 -114t73 -57z" />
    <glyph glyph-name="dollar.osf" horiz-adv-x="571" 
d="M252 -12q-77 10 -122.5 54.5t-60.5 99.5l74 38q10 -50 47.5 -86.5t102.5 -36.5q57 0 93.5 29t36.5 79q0 36 -19 59t-47 36t-79 30q-59 20 -98.5 39t-68.5 56.5t-29 96.5q0 74 47 120t123 54v79h66v-81q68 -10 107 -47.5t52 -81.5l-68 -38q-11 41 -44 70t-89 29
q-50 0 -82.5 -25.5t-32.5 -73.5q0 -34 17 -55.5t42 -33.5t69 -27l23 -8q61 -22 101.5 -45t64.5 -59.5t24 -89.5q0 -78 -50 -126t-134 -56v-84h-66v85z" />
    <glyph glyph-name="Euro.osf" horiz-adv-x="740" 
d="M285.5 52q-69.5 62 -91.5 176h-128v69h120q-1 10 -1 31q0 25 1 37h-94v69h104q23 109 91.5 168t155.5 59q95 0 151 -60.5t75 -140.5l-76 -30q-14 65 -51.5 112.5t-102.5 47.5q-57 0 -102 -40.5t-63 -115.5h265l-15 -69h-261q-1 -12 -1 -37q0 -21 1 -31h241l-15 -69h-217
q19 -81 65.5 -124t107.5 -43q66 0 102 43t44 100l76 -15q-15 -80 -69 -139.5t-152 -59.5q-91 0 -160.5 62z" />
    <glyph glyph-name="sterling.osf" horiz-adv-x="643" 
d="M110.5 16.5q-35.5 30.5 -35.5 83.5q0 49 30.5 82.5t74.5 33.5q42 0 66.5 -27.5t35.5 -57.5q9 25 9 60q0 31 -7 55.5t-20 48.5h-144v68h107q-40 60 -40 121q0 51 24.5 91.5t67.5 63.5t96 23q74 0 121.5 -44.5t58.5 -125.5l-70 -23q-10 56 -35.5 89t-76.5 33
q-49 0 -79.5 -30t-30.5 -77q0 -30 13 -60t34 -61h187v-68h-150q20 -43 20 -86q0 -62 -37 -123q36 -24 79 -24q45 0 68 28t25 85l76 -6q-4 -77 -45 -130t-121 -53q-74 0 -119 49q-45 -49 -101 -49q-46 0 -81.5 30.5zM256 85q-10 21 -27.5 40t-39.5 19q-16 0 -27 -12.5
t-11 -29.5q0 -19 14 -31.5t35 -12.5q33 0 56 27z" />
    <glyph glyph-name="yen.osf" horiz-adv-x="556" 
d="M242 0v103h-141v66h141v62h-147v64h127l-188 350h83l164 -317l162 317h79l-187 -350h132v-64h-152v-62h146v-66h-146v-103h-73z" />
    <glyph glyph-name="cent.tf" 
d="M252 -10q-83 16 -134.5 84t-51.5 180q0 88 32 149t88.5 91.5t127.5 30.5l14 -1l11 80h58l-13 -93q50 -19 85 -63.5t48 -112.5l-86 -14q-17 78 -59 106l-52 -362q43 4 73 32.5t38 85.5l87 -4q-13 -91 -68.5 -141.5t-140.5 -52.5l-13 -93h-58zM317 446l-10 1
q-68 0 -111.5 -49t-43.5 -141q0 -78 31 -125t80 -62z" />
    <glyph glyph-name="dollar.tf" 
d="M256 -13q-87 11 -137 60.5t-66 107.5l81 41q11 -53 52 -93t115 -40q64 0 104 31t40 86q0 40 -21.5 64.5t-51.5 38t-87 32.5q-66 21 -111 43.5t-75.5 62.5t-30.5 102q0 81 52 132t136 59v86h72v-88q76 -11 119 -51.5t57 -89.5l-74 -42q-12 44 -49.5 76t-98.5 32
q-56 0 -92 -28t-36 -79q0 -37 19 -60t47.5 -36.5t78.5 -30.5q8 -2 24 -8q67 -23 112 -49t71 -65t26 -97q0 -85 -55.5 -137.5t-148.5 -60.5v-91h-72v92z" />
    <glyph glyph-name="Euro.tf" 
d="M212 55.5q-65 66.5 -85 191.5h-116v76h108q-1 11 -1 35q0 26 1 39h-85v76h94q15 80 49.5 135.5t81 83.5t98.5 28q88 0 141 -65t72 -155l-78 -32q-12 72 -46 123t-92 51q-51 0 -90 -43.5t-56 -125.5h236l-16 -76h-230q-1 -13 -1 -41q0 -22 1 -33h216l-16 -76h-192
q17 -87 58 -133.5t96 -46.5q59 0 91 46.5t39 108.5l78 -16q-14 -87 -64.5 -152t-140.5 -65q-86 0 -151 66.5z" />
    <glyph glyph-name="sterling.tf" 
d="M104.5 -0.5q-27.5 14.5 -45 42.5t-17.5 67q0 53 31 89.5t75 36.5q42 0 67 -29t36 -61q9 27 9 63q0 58 -27 112h-145v76h107q-40 66 -40 131q0 55 25.5 99.5t69 69.5t96.5 25q73 0 122 -48t61 -137l-74 -26q-10 62 -35.5 97.5t-75.5 35.5q-49 0 -79 -32t-30 -84
q0 -57 47 -131h188v-76h-151q21 -47 21 -93q0 -37 -11.5 -72t-27.5 -62q35 -25 78 -25q46 0 68.5 30t24.5 92l80 -6q-4 -84 -45.5 -141.5t-123.5 -57.5q-75 0 -121 52q-44 -52 -101 -52q-29 0 -56.5 14.5zM225 92q-29 65 -68 65q-15 0 -26 -14t-11 -32q0 -21 13.5 -34.5
t35.5 -13.5q33 0 56 29z" />
    <glyph glyph-name="yen.tf" 
d="M252 0v112h-160v72h160v67h-167v71h143l-212 380h93l187 -345l185 345h89l-212 -380h149v-71h-173v-67h166v-72h-166v-112h-82z" />
    <glyph glyph-name="cent.tosf" 
d="M255 -10q-76 15 -123.5 78t-47.5 165q0 80 29.5 136.5t79.5 85t109 28.5q15 0 22 -1l11 74h53l-12 -86q46 -17 78 -58t44 -104l-78 -12q-14 71 -55 98l-48 -335q39 3 67.5 29t35.5 80l79 -4q-12 -84 -63 -130t-129 -48l-12 -85h-53zM314 411l-10 1q-61 0 -101.5 -45.5
t-40.5 -130.5q0 -71 29 -114.5t74 -57.5z" />
    <glyph glyph-name="dollar.tosf" 
d="M259 -12q-78 10 -123.5 54.5t-60.5 99.5l74 38q10 -48 47 -85.5t104 -37.5q56 0 93 29t37 80q0 36 -19 59t-47 35.5t-78 29.5q-62 20 -103 41t-68 57.5t-27 93.5q0 75 47.5 121t123.5 54v79h66v-81q68 -10 107 -47.5t52 -81.5l-68 -38q-11 41 -44 70t-89 29
q-50 0 -83 -25.5t-33 -73.5q0 -34 17 -55.5t42.5 -33.5t70.5 -28l23 -8q94 -33 141.5 -75.5t47.5 -117.5q0 -78 -50 -126.5t-134 -56.5v-84h-66v85z" />
    <glyph glyph-name="Euro.tosf" 
d="M218 51.5q-60 61.5 -79 176.5h-107v69h100q-1 10 -1 33q0 24 1 36h-79v69h87q21 109 79.5 168t133.5 59q83 0 131.5 -60.5t65.5 -140.5l-72 -30q-12 66 -43 113t-85 47q-47 0 -84 -40.5t-52 -115.5h220l-15 -69h-214q-1 -12 -1 -38q0 -21 1 -31h200l-14 -69h-178
q15 -80 53.5 -123.5t88.5 -43.5q55 0 85 43t37 100l71 -15q-13 -79 -59.5 -139t-132.5 -60q-78 0 -138 61.5z" />
    <glyph glyph-name="sterling.tosf" 
d="M117.5 -0.5q-25.5 13.5 -41.5 39t-16 61.5q0 49 29 82.5t70 33.5q38 0 61.5 -27t34.5 -57q8 30 8 59q0 55 -26 104h-134v69h100q-38 60 -38 121q0 51 23.5 91.5t64 63.5t89.5 23q69 0 114.5 -44.5t55.5 -125.5l-68 -23q-9 56 -33 89t-71 33q-45 0 -73 -30t-28 -77
q0 -53 44 -121h175v-69h-140q19 -43 19 -86q0 -61 -36 -124q33 -23 72 -23q84 0 87 113l74 -6q-4 -78 -42.5 -130.5t-114.5 -52.5q-70 0 -112 48q-44 -48 -95 -48q-27 0 -52.5 13.5zM230 85q-28 59 -63 59q-14 0 -24.5 -12.5t-10.5 -29.5q0 -19 13 -31.5t33 -12.5
q31 0 52 27z" />
    <glyph glyph-name="yen.tosf" 
d="M256 0v103h-146v66h146v62h-152v64h131l-194 351h84l170 -318l169 318h79l-192 -351h136v-64h-157v-62h151v-66h-151v-103h-74z" />
    <glyph glyph-name="arrowup.case" horiz-adv-x="673" 
d="M302 70v505l-183 -185l-45 43l237 242h51l237 -242l-45 -43l-182 184v-504h-70z" />
    <glyph glyph-name="uni2197.case" horiz-adv-x="618" 
d="M122 115l-50 50l357 357l-260 -2l-1 63l339 3l36 -36l-4 -339l-62 2l1 258z" />
    <glyph glyph-name="arrowright.case" horiz-adv-x="755" 
d="M435 98l-43 45l184 182h-504v70h505l-185 183l43 45l242 -237v-51z" />
    <glyph glyph-name="uni2198.case" horiz-adv-x="619" 
d="M507 132l-339 4l2 62l258 -1l-356 356l50 50l357 -357l-2 260l63 1l3 -339z" />
    <glyph glyph-name="arrowdown.case" horiz-adv-x="673" 
d="M311 48l-237 242l45 43l182 -184v504h70v-505l183 185l45 -43l-237 -242h-51z" />
    <glyph glyph-name="uni2199.case" horiz-adv-x="618" 
d="M111 135l-36 36l4 339l62 -2l-1 -258l356 356l50 -50l-357 -357l260 2l1 -63z" />
    <glyph glyph-name="arrowleft.case" horiz-adv-x="755" 
d="M320 99l-242 237v51l242 237l43 -45l-184 -182h504v-70h-505l185 -183z" />
    <glyph glyph-name="uni2196.case" horiz-adv-x="619" 
d="M497 116l-357 357l2 -260l-63 -1l-3 339l36 36l339 -4l-2 -62l-258 1l356 -356z" />
    <glyph glyph-name="at.case" horiz-adv-x="824" 
d="M239 23.5q-85 42.5 -135 126.5t-50 205q0 120 50 207.5t134.5 133t186.5 45.5q99 0 177.5 -42.5t123 -119.5t44.5 -176q0 -67 -20 -122.5t-58 -88.5t-90 -33q-38 0 -56.5 20t-22.5 60h-2q-17 -35 -53.5 -55.5t-75.5 -20.5q-41 0 -80.5 22t-65 67.5t-25.5 111.5t25.5 112
t65.5 68.5t82 22.5q40 0 73.5 -20.5t50.5 -50.5h2v60h68v-330h26q36 0 57.5 48.5t21.5 121.5q0 129 -70 203.5t-194 74.5q-85 0 -152.5 -36t-106.5 -107t-39 -171t39 -170.5t107 -106t154 -35.5q39 0 76 8l9 -64q-42 -11 -88 -11q-104 0 -189 42.5zM492.5 268.5
q31.5 40.5 31.5 96.5t-31.5 96.5t-90.5 40.5q-54 0 -83 -36t-29 -102q0 -67 29.5 -101.5t82.5 -34.5q59 0 90.5 40.5z" />
    <glyph glyph-name="bar.case" horiz-adv-x="221" 
d="M72 -102v943h77v-943h-77z" />
    <glyph glyph-name="nobreakspace" horiz-adv-x="280" 
 />
    </font>
</defs>
</svg>
