<?xml version="1.0" standalone="no"?>
<!DOCTYPE svg PUBLIC "-//W3C//DTD SVG 1.1//EN" "http://www.w3.org/Graphics/SVG/1.1/DTD/svg11.dtd" >
<svg xmlns="http://www.w3.org/2000/svg" xmlns:xlink="http://www.w3.org/1999/xlink" version="1.1">
<metadata>
Created by FontForge 20170731 at Sun Aug 23 11:09:35 2020
 By Aleksey,,,
Copyright (c) 2020 by BumBumType. All rights reserved.
</metadata>
<defs>
<font id="AlbraGrotesk-Medium" horiz-adv-x="591" >
  <font-face 
    font-family="Albra Grotesk Medium"
    font-weight="500"
    font-stretch="normal"
    units-per-em="1000"
    panose-1="0 0 6 0 0 0 0 0 0 0"
    ascent="760"
    descent="-240"
    x-height="479"
    cap-height="715"
    bbox="-141 -221 1177 1123"
    underline-thickness="101"
    underline-position="-216"
    unicode-range="U+000D-1F10C"
  />
<missing-glyph horiz-adv-x="594" 
d="M68 0v715h457v-715h-457zM136 66h323v583h-323v-583z" />
    <glyph glyph-name="f_i" unicode="fi" horiz-adv-x="584" 
d="M123 397h-97v82h97v96q0 74 34 114t102 40q38 0 81 -12l-17 -85q-36 9 -53 9q-27 0 -37 -16.5t-10 -49.5v-96h308v-479h-101v397h-206v-397h-101v397zM431 575q-20 19 -20 47t20 47t50 19t49.5 -19t19.5 -47t-19.5 -47t-49.5 -19t-50 19z" />
    <glyph glyph-name="f_l" unicode="fl" horiz-adv-x="592" 
d="M123 397h-97v82h97v94q0 70 33.5 113t109.5 43q45 0 85 -15l-17 -83q-30 10 -57 10q-54 0 -54 -60v-102h118v-82h-117v-397h-101v397zM437 0v715h101v-715h-101z" />
    <glyph glyph-name=".notdef" horiz-adv-x="594" 
d="M68 0v715h457v-715h-457zM136 66h323v583h-323v-583z" />
    <glyph glyph-name=".null" horiz-adv-x="0" 
 />
    <glyph glyph-name="nonmarkingreturn" unicode="&#xd;" horiz-adv-x="279" 
 />
    <glyph glyph-name="space" unicode=" " horiz-adv-x="279" 
 />
    <glyph glyph-name="exclam" unicode="!" horiz-adv-x="288" 
d="M88 725h111q-10 -310 -13 -531h-85q-1 236 -13 531zM90.5 11.5q-22.5 22.5 -22.5 53.5t22.5 53.5t54.5 22.5q31 0 53 -22.5t22 -53.5t-22 -53.5t-53 -22.5q-32 0 -54.5 22.5z" />
    <glyph glyph-name="quotedbl" unicode="&#x22;" horiz-adv-x="396" 
d="M83 469l-13 256h103l-13 -256h-77zM236 469l-13 256h103l-13 -256h-77z" />
    <glyph glyph-name="numbersign" unicode="#" horiz-adv-x="778" 
d="M144 0l44 189h-120v86h140l32 136h-120v88h141l50 216h85l-51 -216h162l50 216h86l-51 -216h118v-88h-139l-32 -136h116v-86h-136l-45 -189h-84l44 189h-162l-44 -189h-84zM293 275h161l32 136h-161z" />
    <glyph glyph-name="dollar" unicode="$" horiz-adv-x="607" 
d="M263 -13q-92 11 -143 61t-68 110l96 46q11 -53 52.5 -92t112.5 -39q62 0 100 28.5t38 79.5q0 36 -19.5 58.5t-51.5 37t-88 32.5q-67 21 -112.5 42.5t-78 62.5t-32.5 105q0 82 54 134.5t140 60.5v84h86v-88q77 -13 121.5 -55.5t58.5 -90.5l-89 -45q-12 45 -48 76.5
t-97 31.5q-54 0 -88.5 -26t-34.5 -74q0 -35 19.5 -57t52.5 -36.5t96 -34.5q67 -22 113 -47.5t74 -66t28 -101.5q0 -83 -56 -135.5t-150 -62.5v-89h-86v90z" />
    <glyph glyph-name="percent" unicode="%" horiz-adv-x="971" 
d="M265 19l-72 46l515 634l71 -45zM157 370.5q-44 25.5 -69 69.5t-25 96t25.5 95t69 68t97.5 25t97 -25.5t67.5 -69t24.5 -93.5q0 -51 -24.5 -95t-67.5 -70t-97 -26t-98 25.5zM322 461.5q27 29.5 27 73.5q0 43 -27 72t-67 29q-41 0 -68 -28.5t-27 -72.5t27 -73.5t68 -29.5
q40 0 67 29.5zM620.5 11.5q-43.5 25.5 -68.5 69t-25 95.5q0 51 24.5 94.5t68.5 69t99 25.5q54 0 97 -25.5t67.5 -69t24.5 -94.5q0 -50 -24.5 -94t-68 -70t-97.5 -26t-97.5 25.5zM786 102.5q27 29.5 27 72.5t-27 72.5t-67 29.5q-41 0 -68.5 -29t-27.5 -73t27.5 -73t68.5 -29
q40 0 67 29.5z" />
    <glyph glyph-name="ampersand" unicode="&#x26;" horiz-adv-x="795" 
d="M182.5 9q-53.5 24 -84 67t-30.5 97q0 73 51.5 125t121.5 85q-31 36 -47 58t-29 52t-13 64q0 48 26 88t72 63t103 23q54 0 98.5 -21t70 -58t25.5 -83q0 -66 -45 -113t-114 -89l147 -153q48 86 45 205l94 -10q-6 -155 -74 -261l142 -148h-129l-73 76q-49 -45 -109.5 -68
t-126.5 -23q-68 0 -121.5 24zM401.5 91.5q41.5 16.5 76.5 48.5l-178 186q-60 -32 -91 -64.5t-31 -76.5q0 -49 38 -79.5t100 -30.5q44 0 85.5 16.5zM359 436q47 32 70.5 57.5t23.5 63.5q0 40 -28 66.5t-72 26.5t-72.5 -25.5t-28.5 -65.5q0 -33 18 -60t53 -63l15 -15z" />
    <glyph glyph-name="quotesingle" unicode="'" horiz-adv-x="243" 
d="M83 469l-13 256h103l-13 -256h-77z" />
    <glyph glyph-name="parenleft" unicode="(" horiz-adv-x="392" 
d="M178.5 -44q-55.5 79 -83 170t-27.5 182q0 95 30 188t85 170t128 126l49 -61q-88 -73 -143 -185t-55 -234q0 -87 26.5 -169.5t71.5 -149t101 -108.5l-48 -61q-79 53 -134.5 132z" />
    <glyph glyph-name="parenright" unicode=")" horiz-adv-x="397" 
d="M37 -111q88 72 143 184.5t55 234.5q0 87 -26.5 169.5t-72 149t-100.5 108.5l48 61q118 -79 181 -211.5t63 -273.5q0 -98 -31 -191.5t-86 -169t-125 -122.5z" />
    <glyph glyph-name="asterisk" unicode="*" horiz-adv-x="569" 
d="M190 312l-64 46l103 134l-161 46l24 76l158 -56l-6 167h79l-4 -169l157 57l24 -76l-158 -46l100 -130l-63 -46l-94 136z" />
    <glyph glyph-name="plus" unicode="+" horiz-adv-x="617" 
d="M266 54v218h-208v81h208v211h85v-211h207v-81h-207v-218h-85z" />
    <glyph glyph-name="comma" unicode="," horiz-adv-x="255" 
d="M67 -105l3 61q27 0 40.5 11t16.5 35q-30 4 -49 23.5t-19 44.5q0 30 20 51t53 21q35 0 52.5 -26t17.5 -72q0 -66 -31.5 -108t-88.5 -42z" />
    <glyph glyph-name="hyphen" unicode="-" horiz-adv-x="499" 
d="M68 217v96h363v-96h-363z" />
    <glyph glyph-name="period" unicode="." horiz-adv-x="281" 
d="M88 10q-21 22 -21 55t21 55t56 22q34 0 54.5 -22t20.5 -55q0 -32 -20.5 -54.5t-54.5 -22.5q-35 0 -56 22z" />
    <glyph glyph-name="slash" unicode="/" horiz-adv-x="478" 
d="M48 -103l289 874h93l-290 -874h-92z" />
    <glyph glyph-name="zero" unicode="0" horiz-adv-x="618" 
d="M114.5 81.5q-66.5 96.5 -66.5 267.5q0 174 68 273t193 99q124 0 192.5 -98.5t68.5 -273.5q0 -172 -67 -268t-194 -96q-128 0 -194.5 96.5zM428 142q40 70 40 209q0 137 -40.5 210t-118.5 73q-79 0 -119 -73.5t-40 -209.5q0 -138 40 -208.5t119 -70.5t119 70z" />
    <glyph glyph-name="one" unicode="1" horiz-adv-x="428" 
d="M210 564q-18 -33 -51.5 -50t-74.5 -17h-36v92h20q61 0 100.5 33.5t45.5 87.5h96v-710h-100v564z" />
    <glyph glyph-name="two" unicode="2" horiz-adv-x="567" 
d="M61 76q124 100 199 173.5t113 137.5t38 125q0 56 -31 90t-91 34q-75 0 -109.5 -51t-36.5 -122l-95 25q6 59 31.5 111.5t78.5 87t133 34.5q70 0 120 -26.5t76 -73t26 -104.5q0 -73 -40 -143t-104 -134.5t-159 -143.5h306v-96h-455v76z" />
    <glyph glyph-name="three" unicode="3" horiz-adv-x="603" 
d="M153.5 16.5q-55.5 31.5 -82.5 79t-33 98.5l109 11q3 -53 40 -93.5t117 -40.5q70 0 111 34t41 91q0 68 -55.5 105.5t-151.5 35.5v79q81 1 127.5 33.5t46.5 84.5q0 42 -32.5 71.5t-93.5 29.5q-65 0 -101.5 -35.5t-36.5 -94.5l-98 10q1 51 25 98t76.5 77.5t132.5 30.5
q71 0 123 -24.5t79 -65t27 -88.5q0 -60 -38 -104t-90 -54v-2q69 -13 115 -58.5t46 -123.5q0 -65 -33 -114t-92.5 -75.5t-136.5 -26.5q-86 0 -141.5 31.5z" />
    <glyph glyph-name="four" unicode="4" horiz-adv-x="612" 
d="M367 0v159h-340v78l327 473h114v-465h108v-86h-108v-159h-101zM127 245h242v343h-1z" />
    <glyph glyph-name="five" unicode="5" horiz-adv-x="609" 
d="M164.5 15q-54.5 30 -84 74.5t-38.5 91.5l106 12q10 -50 47.5 -85t103.5 -35q73 0 116.5 44.5t43.5 119.5q0 71 -40 114t-111 43q-56 0 -89.5 -23t-56.5 -56l-96 24l43 371h413v-94h-329l-25 -198q66 61 157 61q65 0 119 -29t85.5 -83t31.5 -127t-32.5 -131t-92.5 -91
t-140 -33q-77 0 -131.5 30z" />
    <glyph glyph-name="six" unicode="6" horiz-adv-x="612" 
d="M121 71.5q-71 86.5 -71 268.5q0 121 33 206.5t93.5 130t144.5 44.5q92 0 148 -48t77 -113l-99 -34q-10 44 -42.5 76t-86.5 32q-78 0 -123 -72.5t-42 -203.5q27 37 72 59.5t106 22.5q69 0 122.5 -29t83 -80t29.5 -115q0 -68 -33.5 -120.5t-91.5 -81.5t-129 -29
q-120 0 -191 86.5zM420 110.5q39 38.5 39 102.5t-39.5 103.5t-108.5 39.5q-65 0 -104 -33t-49 -75q0 -81 44.5 -128.5t114.5 -47.5q64 0 103 38.5z" />
    <glyph glyph-name="seven" unicode="7" horiz-adv-x="531" 
d="M204 327.5q68 151.5 203 287.5h-374v95h464v-93q-127 -143 -195 -294.5t-83 -322.5h-104q21 176 89 327.5z" />
    <glyph glyph-name="eight" unicode="8" horiz-adv-x="609" 
d="M164 13q-58 28 -89 77t-31 109q0 70 38.5 117.5t97.5 74.5v1q-44 20 -74.5 58.5t-30.5 94.5q0 50 27.5 90t79 63t122.5 23t123.5 -23t80 -63t27.5 -89q0 -55 -31.5 -92.5t-75.5 -56.5v-1q56 -26 95.5 -75t39.5 -119q0 -59 -31 -108.5t-90.5 -79t-140.5 -29.5
q-79 0 -137 28zM419.5 113q41.5 38 41.5 97q0 60 -42 100t-114 40t-115.5 -40t-43.5 -100q0 -36 18.5 -67t54 -49.5t85.5 -18.5q74 0 115.5 38zM399 462q35 30 35 79q0 46 -34 74t-96 28q-61 0 -95 -27.5t-34 -73.5q0 -50 35.5 -80t94.5 -30t94 30z" />
    <glyph glyph-name="nine" unicode="9" horiz-adv-x="612" 
d="M142 33.5q-57 48.5 -77 112.5l100 34q9 -42 41 -75t88 -33q78 0 123 72t41 204q-27 -37 -71.5 -59.5t-106.5 -22.5q-69 0 -122.5 29t-82.5 80t-29 115q0 68 33.5 121t91.5 81.5t129 28.5q120 0 191 -86.5t71 -267.5q0 -121 -33 -207t-94 -130.5t-144 -44.5
q-92 0 -149 48.5zM404 383q39 33 49 75q0 82 -44.5 129.5t-114.5 47.5q-63 0 -102.5 -39t-39.5 -103t40 -103.5t109 -39.5q64 0 103 33z" />
    <glyph glyph-name="colon" unicode=":" horiz-adv-x="281" 
d="M88 10q-21 22 -21 55t21 55t56 22q34 0 54.5 -22t20.5 -55q0 -32 -20.5 -54.5t-54.5 -22.5q-35 0 -56 22zM88 360q-21 22 -21 55t21 55t56 22q34 0 54.5 -22t20.5 -55q0 -32 -20.5 -54.5t-54.5 -22.5q-35 0 -56 22z" />
    <glyph glyph-name="semicolon" unicode=";" horiz-adv-x="281" 
d="M75 -105l3 61q27 0 40.5 11t16.5 35q-30 4 -49 23.5t-19 44.5q0 30 20 51t53 21q35 0 52.5 -26t17.5 -72q0 -66 -31.5 -108t-88.5 -42zM88 362q-21 22 -21 55t21 55t56 22q34 0 54.5 -22t20.5 -55q0 -32 -20.5 -54.5t-54.5 -22.5q-35 0 -56 22z" />
    <glyph glyph-name="less" unicode="&#x3c;" horiz-adv-x="543" 
d="M484 44l-426 226v97l426 226v-92l-344 -181l344 -188v-88z" />
    <glyph glyph-name="equal" unicode="=" horiz-adv-x="566" 
d="M58 365v83h450v-83h-450zM58 173v83h450v-83h-450z" />
    <glyph glyph-name="greater" unicode="&#x3e;" horiz-adv-x="543" 
d="M58 33v90l343 192l-343 186v92l426 -230v-99z" />
    <glyph glyph-name="question" unicode="?" horiz-adv-x="592" 
d="M234.5 242q-11.5 23 -11.5 53q0 40 25 69.5t89 75.5q41 30 62 54t21 60q0 43 -32.5 71.5t-89.5 28.5q-70 0 -101 -39t-31 -90l-106 17q4 84 60.5 143.5t176.5 59.5q73 0 126 -24t80.5 -67t27.5 -98q0 -44 -16 -76.5t-39 -54t-57 -46.5q-56 -41 -73 -57.5t-17 -34.5
q0 -10 4.5 -19.5t11 -20t10.5 -18.5l-92 -30q-17 20 -28.5 43zM237 10.5q-23 22.5 -23 54.5t23 54.5t56 22.5q32 0 55.5 -22.5t23.5 -54.5q0 -31 -23.5 -54t-55.5 -23q-33 0 -56 22.5z" />
    <glyph glyph-name="at" unicode="@" horiz-adv-x="819" 
d="M235 -81.5q-86 42.5 -136.5 127t-50.5 205.5q0 120 50.5 207.5t136 132.5t187.5 45q100 0 179 -42.5t124 -119.5t45 -176q0 -68 -21.5 -123.5t-61.5 -87t-92 -31.5q-39 0 -59 19t-26 58h-2q-16 -34 -51 -54t-72 -20q-40 0 -78.5 22t-64 67.5t-25.5 110.5q0 66 25.5 111
t64.5 67.5t80 22.5q38 0 69.5 -19.5t48.5 -47.5h2v57h78v-318h23q34 0 54.5 44.5t20.5 114.5q0 124 -67 196.5t-189 72.5q-83 0 -149 -35.5t-104 -104t-38 -165.5q0 -96 38 -164.5t104.5 -103.5t151.5 -35q35 0 74 7l10 -72q-40 -11 -88 -11q-105 0 -191 42.5zM482.5 171
q28.5 37 28.5 90q0 52 -28.5 89t-81.5 37q-49 0 -75.5 -33t-26.5 -94q0 -62 26.5 -94t75.5 -32q53 0 81.5 37z" />
    <glyph glyph-name="A" unicode="A" horiz-adv-x="699" 
d="M24 0l258 715h134l259 -715h-111l-66 185h-299l-66 -185h-109zM233 282h230l-115 321h-1z" />
    <glyph glyph-name="B" unicode="B" horiz-adv-x="625" 
d="M68 715h289q63 0 109 -23t70.5 -63.5t24.5 -91.5q0 -55 -27.5 -95.5t-72.5 -59.5v-2q59 -19 93 -66.5t34 -114.5q0 -91 -60.5 -145t-164.5 -54h-295v715zM370 94q49 0 78.5 31t29.5 83q0 58 -31 89.5t-81 31.5h-193v-235h197zM351 415q45 0 73 27.5t28 75.5
q0 47 -26.5 76t-71.5 29h-181v-208h178z" />
    <glyph glyph-name="C" unicode="C" horiz-adv-x="712" 
d="M205 26.5q-76 42.5 -120.5 127t-44.5 205.5t45 205t120 125.5t164 41.5q83 0 144 -34.5t97 -88t51 -114.5l-108 -33q-18 75 -63.5 125t-125.5 50q-60 0 -108.5 -31.5t-77 -94t-28.5 -151.5q0 -90 29 -153t79.5 -95t114.5 -32q80 0 123 46.5t54 111.5l108 -21
q-11 -57 -44 -109.5t-93 -87.5t-147 -35q-93 0 -169 42.5z" />
    <glyph glyph-name="D" unicode="D" horiz-adv-x="669" 
d="M68 715h229q110 0 184.5 -45.5t111 -126t36.5 -184.5q0 -108 -38.5 -189t-113.5 -125.5t-180 -44.5h-229v715zM303 96q107 0 162.5 69t55.5 192q0 124 -56 193t-162 69h-130v-523h130z" />
    <glyph glyph-name="E" unicode="E" horiz-adv-x="597" 
d="M68 0v715h475v-96h-370v-207h327v-93h-327v-223h369v-96h-474z" />
    <glyph glyph-name="F" unicode="F" horiz-adv-x="589" 
d="M68 0v715h484v-99h-376v-203h329v-96h-329v-317h-108z" />
    <glyph glyph-name="G" unicode="G" horiz-adv-x="753" 
d="M217 20.5q-74 36.5 -125.5 119.5t-51.5 215q0 129 49.5 213.5t126.5 123.5t162 39q115 0 186 -64t99 -148l-107 -36q-19 63 -66 108t-119 45q-54 0 -104.5 -27.5t-83.5 -90t-33 -159.5t33 -159.5t85 -91t111 -28.5q60 0 106.5 27t71.5 71.5t25 96.5v14h-213v87h316v-376
h-81l-6 156h-3q-4 -36 -34.5 -76.5t-82 -68t-116.5 -27.5q-71 0 -145 36.5z" />
    <glyph glyph-name="H" unicode="H" horiz-adv-x="699" 
d="M68 0v715h105v-299h353v299h105v-715h-105v318h-353v-318h-105z" />
    <glyph glyph-name="I" unicode="I" horiz-adv-x="242" 
d="M68 0v715h105v-715h-105z" />
    <glyph glyph-name="J" unicode="J" horiz-adv-x="583" 
d="M155 17.5q-54 33.5 -78.5 84t-28.5 105.5l107 16q4 -60 37 -101.5t105 -41.5q116 0 116 120v515h105v-504q0 -108 -58.5 -167.5t-165.5 -59.5q-85 0 -139 33.5z" />
    <glyph glyph-name="K" unicode="K" horiz-adv-x="649" 
d="M68 0v715h105v-361l308 361h131l-290 -331l309 -384h-133l-247 307l-78 -86v-221h-105z" />
    <glyph glyph-name="L" unicode="L" horiz-adv-x="565" 
d="M68 0v715h105v-615h345v-100h-450z" />
    <glyph glyph-name="M" unicode="M" horiz-adv-x="842" 
d="M68 0v715h121l236 -372l231 372h117v-715h-103v561h-3l-232 -369h-29l-232 369h-2v-561h-104z" />
    <glyph glyph-name="N" unicode="N" horiz-adv-x="706" 
d="M68 0v715h115l350 -554h1v554h104v-715h-115l-350 556h-1v-556h-104z" />
    <glyph glyph-name="O" unicode="O" horiz-adv-x="743" 
d="M213 24q-76 40 -124.5 124.5t-48.5 210.5t48.5 210t125 123t160.5 39q85 0 160 -39.5t122 -122.5t47 -208q0 -126 -47.5 -211t-123 -125.5t-159.5 -40.5t-160 40zM483.5 109.5q49.5 29.5 79.5 92.5t30 159q0 95 -30.5 156.5t-80 89.5t-108.5 28t-110 -28.5t-82.5 -90
t-31.5 -155.5q0 -95 32 -158.5t83.5 -93t110.5 -29.5q58 0 107.5 29.5z" />
    <glyph glyph-name="P" unicode="P" horiz-adv-x="606" 
d="M68 715h269q77 0 132 -29t83 -79t28 -114q0 -63 -28 -115t-85.5 -83t-141.5 -31h-152v-264h-105v715zM336 358q64 0 100.5 35t36.5 98q0 61 -36.5 94.5t-100.5 33.5h-163v-261h163z" />
    <glyph glyph-name="Q" unicode="Q" horiz-adv-x="743" 
d="M492.5 -71.5q-41.5 19.5 -69.5 59.5q-21 -4 -48 -4q-86 0 -162 40t-124.5 124.5t-48.5 210.5t48.5 210t125 123t160.5 39q85 0 160 -39.5t122 -123t47 -208.5q0 -137 -56 -225.5t-146 -125.5q39 -11 118 -11h65l-6 -89h-85q-59 0 -100.5 19.5zM483.5 109.5
q49.5 29.5 79.5 92.5t30 159q0 95 -30.5 156.5t-80 89.5t-108.5 28t-110 -28.5t-82.5 -90t-31.5 -155.5q0 -95 32 -158.5t83.5 -93t110.5 -29.5q58 0 107.5 29.5z" />
    <glyph glyph-name="R" unicode="R" horiz-adv-x="649" 
d="M68 715h281q113 0 174 -53t61 -149q0 -95 -54.5 -145.5t-130.5 -67.5l198 -298v-2h-125l-185 286h-114v-286h-105v715zM316 374q68 0 112 30t44 100q0 118 -133 118h-166v-248h143z" />
    <glyph glyph-name="S" unicode="S" horiz-adv-x="612" 
d="M129.5 37q-66.5 53 -87.5 126l103 48q11 -52 52.5 -92.5t118.5 -40.5q64 0 103 28t39 79q0 37 -21.5 60.5t-53 36.5t-92.5 32q-72 22 -120 46t-79.5 65t-31.5 104q0 61 30 107t83.5 70.5t124.5 24.5t122.5 -24t81 -59.5t40.5 -73.5l-95 -47q-12 46 -49.5 78.5
t-100.5 32.5q-56 0 -91 -26t-35 -74q0 -34 19.5 -56t49 -35t83.5 -31q5 -1 10 -3t12 -4q72 -23 119.5 -49.5t76 -67.5t28.5 -101q0 -96 -70 -151.5t-186 -55.5q-117 0 -183.5 53z" />
    <glyph glyph-name="T" unicode="T" horiz-adv-x="627" 
d="M261 0v618h-232v97h569v-97h-232v-618h-105z" />
    <glyph glyph-name="U" unicode="U" horiz-adv-x="685" 
d="M200.5 13.5q-61.5 29.5 -97 85t-35.5 128.5v488h105v-463q0 -88 47.5 -130.5t123.5 -42.5q75 0 121.5 42.5t46.5 130.5v463h105v-488q0 -73 -37 -128t-100.5 -85t-140.5 -30t-138.5 29.5z" />
    <glyph glyph-name="V" unicode="V" horiz-adv-x="680" 
d="M273 0l-253 715h112l209 -594h1l208 594h109l-252 -715h-134z" />
    <glyph glyph-name="W" unicode="W" horiz-adv-x="1015" 
d="M240 0l-216 715h109l162 -550h2l164 550h93l163 -548h2l163 548h108l-215 -715h-106l-160 553h-3l-161 -553h-105z" />
    <glyph glyph-name="X" unicode="X" horiz-adv-x="698" 
d="M29 0l254 359l-245 356h123l192 -281l186 281h124l-249 -356l255 -359h-126l-197 282l-194 -282h-123z" />
    <glyph glyph-name="Y" unicode="Y" horiz-adv-x="657" 
d="M276 0v276l-262 439h120l198 -338l196 338h114l-262 -439v-276h-104z" />
    <glyph glyph-name="Z" unicode="Z" horiz-adv-x="619" 
d="M49 0v86l381 533h-369v96h495v-86l-385 -533h399v-96h-521z" />
    <glyph glyph-name="bracketleft" unicode="[" horiz-adv-x="317" 
d="M68 -139v909h208v-89h-118v-731h118v-89h-208z" />
    <glyph glyph-name="backslash" unicode="\" horiz-adv-x="485" 
d="M337 -103l-289 874h100l289 -874h-100z" />
    <glyph glyph-name="bracketright" unicode="]" horiz-adv-x="317" 
d="M41 -139v89h118v731h-118v89h208v-909h-208z" />
    <glyph glyph-name="asciicircum" unicode="^" horiz-adv-x="632" 
d="M61 368l206 347h98l206 -347h-105l-150 259l-150 -259h-105z" />
    <glyph glyph-name="underscore" unicode="_" horiz-adv-x="448" 
d="M0 -143v95h448v-95h-448z" />
    <glyph glyph-name="grave" unicode="`" horiz-adv-x="373" 
d="M199 581l-119 144h129l84 -144h-94z" />
    <glyph glyph-name="a" unicode="a" horiz-adv-x="544" 
d="M94.5 23q-45.5 37 -45.5 102q0 59 38.5 94t90 50.5t121.5 25.5q38 6 51 9t20.5 10t7.5 23q0 33 -27 54.5t-72 21.5q-51 0 -81.5 -24.5t-42.5 -58.5l-82 45q18 47 69.5 83.5t138.5 36.5q88 0 142.5 -44.5t51.5 -135.5l-6 -203q-2 -48 42 -44v-78q-21 -3 -24 -3
q-43 0 -65.5 11t-32 34.5t-11.5 67.5h-2q-16 -52 -57.5 -83t-107.5 -31q-71 0 -116.5 37zM305 88.5q34 21.5 52.5 54.5t19.5 66l1 45q-15 -19 -60 -27q-68 -14 -100 -23t-50 -26t-18 -47q0 -64 76 -64q45 0 79 21.5z" />
    <glyph glyph-name="b" unicode="b" horiz-adv-x="554" 
d="M219.5 10.5q-38.5 24.5 -58.5 60.5h-1v-71h-101v715h101v-307h1q20 36 61.5 61t92.5 25t98 -27t76.5 -84t29.5 -141q0 -87 -31.5 -144.5t-79.5 -84.5t-99 -27t-89.5 24.5zM382 115.5q36 45.5 36 129.5q0 82 -35 123t-93 41q-60 0 -96.5 -42.5t-36.5 -120.5q0 -80 37 -128
t96 -48q56 0 92 45.5z" />
    <glyph glyph-name="c" unicode="c" horiz-adv-x="531" 
d="M149 14.5q-54 29.5 -84.5 87t-30.5 137.5q0 83 33 141t88 86.5t120 28.5q79 0 131.5 -42t73.5 -107l-96 -32q-28 96 -112 96q-56 0 -95 -42.5t-39 -127.5q0 -86 40 -128t95 -42q43 0 74 26t40 75l102 -6q-13 -77 -68 -128.5t-149 -51.5q-69 0 -123 29.5z" />
    <glyph glyph-name="d" unicode="d" horiz-adv-x="554" 
d="M145.5 13q-48.5 27 -80 85t-31.5 144q0 83 29.5 140t76.5 84.5t100 27.5q54 0 92 -25t61 -60h1v306h101v-715h-101v70h-1q-20 -34 -58 -59t-90 -25q-51 0 -99.5 27zM360 118q36 49 36 128q0 78 -35.5 120.5t-96.5 42.5q-58 0 -93 -41t-35 -122q0 -84 36 -130.5t93 -46.5
q59 0 95 49z" />
    <glyph glyph-name="e" unicode="e" horiz-adv-x="521" 
d="M151 13.5q-53 28.5 -84 85.5t-31 139q0 80 30 138t84 88.5t124 30.5q99 0 154 -61t55 -175v-43h-345q3 -62 39 -104t95 -42q51 0 81.5 27t42.5 62l81 -39q-21 -55 -73.5 -95t-133.5 -40q-66 0 -119 28.5zM380 290q-8 126 -115 126q-54 0 -85 -34.5t-38 -91.5h238z" />
    <glyph glyph-name="f" unicode="f" horiz-adv-x="368" 
d="M123 397h-97v82h97v94q0 70 33.5 113t109.5 43q45 0 85 -15l-17 -83q-30 10 -57 10q-54 0 -54 -60v-102h118v-82h-117v-397h-101v397z" />
    <glyph glyph-name="g" unicode="g" horiz-adv-x="535" 
d="M91 -181q-60 34 -60 91q0 35 23 65.5t60 46.5v2q-32 12 -48.5 31.5t-16.5 42.5q0 30 25 52.5t62 29.5v3q-85 50 -85 134q0 49 27.5 90t75.5 64.5t107 23.5h53q34 0 51 10.5t21.5 28.5t4.5 51h102v-34q0 -41 -34 -62.5t-83 -21.5v-3q38 -23 60.5 -60t22.5 -83
q0 -50 -27 -88.5t-74.5 -59.5t-107.5 -21l-57 1q-22 0 -31 -11.5t-9 -23.5q0 -16 15 -24.5t38 -8.5h153q78 0 118.5 -34t40.5 -94q0 -79 -70.5 -125.5t-191.5 -46.5q-105 0 -165 34zM374 -122q47 19 47 67q0 29 -23.5 42.5t-78.5 13.5q-42 0 -128 -3q-25 -1 -43 -21t-18 -46
q0 -39 39 -55.5t96 -16.5q62 0 109 19zM333.5 251q27.5 26 27.5 69q0 45 -29 73t-77 28t-76.5 -27.5t-28.5 -71.5q0 -45 29.5 -71t77.5 -26q49 0 76.5 26z" />
    <glyph glyph-name="h" unicode="h" horiz-adv-x="525" 
d="M59 715h101v-319h1q22 50 59.5 74t87.5 24q70 0 117 -40.5t47 -124.5v-329h-101v306q0 49 -22.5 75t-65.5 26q-54 0 -88.5 -40t-34.5 -121v-246h-101v715z" />
    <glyph glyph-name="i" unicode="i" horiz-adv-x="214" 
d="M59 0v479h101v-479h-101zM60 575q-20 19 -20 47t20 47t50 19t49.5 -19t19.5 -47t-19.5 -47t-49.5 -19t-50 19z" />
    <glyph glyph-name="j" unicode="j" horiz-adv-x="239" 
d="M-26 -198l10 83q2 0 10.5 -1t24.5 -1q42 0 53.5 21t11.5 52v523h101v-517q0 -77 -41.5 -120.5t-115.5 -43.5q-31 0 -54 4zM89 575q-20 19 -20 47t20 47t50 19t49.5 -19t19.5 -47t-19.5 -47t-49.5 -19t-50 19z" />
    <glyph glyph-name="k" unicode="k" horiz-adv-x="512" 
d="M59 0v715h101v-443l192 207h124l-192 -202l204 -277h-123l-150 208l-55 -56v-152h-101z" />
    <glyph glyph-name="l" unicode="l" horiz-adv-x="214" 
d="M59 0v715h101v-715h-101z" />
    <glyph glyph-name="m" unicode="m" horiz-adv-x="793" 
d="M59 479h101v-72h1q14 35 47 61t89 26q45 0 80.5 -23t53.5 -72q20 45 55.5 70t95.5 25q64 0 110.5 -37.5t46.5 -134.5v-322h-101v308q0 97 -81 97q-68 0 -87.5 -49.5t-19.5 -100.5v-255h-101v308q0 97 -81 97q-53 0 -80.5 -39.5t-27.5 -110.5v-255h-101v479z" />
    <glyph glyph-name="n" unicode="n" horiz-adv-x="525" 
d="M59 479h101v-73h1q19 44 59.5 66t90.5 22q68 0 114.5 -40.5t46.5 -120.5v-333h-101v312q0 44 -23 70t-65 26q-53 0 -88 -40t-35 -113v-255h-101v479z" />
    <glyph glyph-name="o" unicode="o" horiz-adv-x="542" 
d="M152.5 13.5q-53.5 28.5 -86 86t-32.5 139.5t32 140t86 87t117 29t117.5 -29t88 -87t33.5 -139q0 -80 -32.5 -138t-86.5 -87.5t-119 -29.5q-64 0 -117.5 28.5zM368 112.5q38 42.5 38 127.5q0 87 -39 128.5t-97 41.5t-96 -41.5t-38 -127.5t38.5 -128.5t97.5 -42.5
q58 0 96 42.5z" />
    <glyph glyph-name="p" unicode="p" horiz-adv-x="554" 
d="M59 479h101v-71h1q21 36 58.5 61t88.5 25q53 0 101 -26.5t79 -83.5t31 -142t-31 -142.5t-79 -85.5t-100 -28q-50 0 -88 23t-60 55h-1v-264h-101v679zM382.5 115.5q35.5 44.5 35.5 126.5q0 84 -35.5 125.5t-93.5 41.5q-61 0 -96.5 -44.5t-35.5 -121.5q0 -79 36.5 -125.5
t95.5 -46.5q58 0 93.5 44.5z" />
    <glyph glyph-name="q" unicode="q" horiz-adv-x="554" 
d="M394 64h-1q-22 -32 -60.5 -55t-87.5 -23q-52 0 -100.5 28t-79.5 85.5t-31 141.5q0 85 31.5 142t80 84t99.5 27t89.5 -25.5t58.5 -60.5h1v71h101v-679h-101v264zM360 116.5q36 45.5 36 124.5q0 78 -36 123t-95 45q-57 0 -93.5 -42.5t-36.5 -123.5q0 -82 36.5 -127
t93.5 -45q59 0 95 45.5z" />
    <glyph glyph-name="r" unicode="r" horiz-adv-x="361" 
d="M59 479h101v-73q40 88 116 88q34 0 62 -16l-18 -94q-27 14 -58 14q-48 0 -75 -41t-27 -120v-237h-101v479z" />
    <glyph glyph-name="s" unicode="s" horiz-adv-x="468" 
d="M86.5 27.5q-50.5 42.5 -59.5 98.5l90 26q8 -36 38 -61.5t84 -25.5q43 0 65.5 17.5t22.5 46.5q0 24 -14.5 38t-35.5 20.5t-63 16.5q-77 18 -124 49t-47 97q0 65 49.5 105t134.5 40q84 0 134 -36.5t69 -83.5l-85 -34q-13 29 -43.5 52t-77.5 23q-37 0 -57 -16t-20 -41
q0 -23 17.5 -37.5t39 -21t60.5 -15.5q72 -17 119 -48t47 -101q0 -66 -48.5 -108.5t-145.5 -42.5q-99 0 -149.5 42.5z" />
    <glyph glyph-name="t" unicode="t" horiz-adv-x="372" 
d="M153.5 18.5q-33.5 31.5 -33.5 79.5v299h-92v82h61q17 0 24 7.5t7 24.5v97l101 22v-151h115v-82h-115v-279q0 -46 48 -46q27 0 51 12l21 -77q-43 -20 -91 -20q-63 0 -96.5 31.5z" />
    <glyph glyph-name="u" unicode="u" horiz-adv-x="525" 
d="M100 26q-47 40 -47 120v333h101v-313q0 -43 23.5 -68.5t65.5 -25.5q52 0 87 39.5t35 111.5v256h101v-479h-101v72h-1q-21 -43 -59.5 -64.5t-87.5 -21.5q-70 0 -117 40z" />
    <glyph glyph-name="v" unicode="v" horiz-adv-x="511" 
d="M201 0l-182 479h111l127 -363l125 363h109l-183 -479h-107z" />
    <glyph glyph-name="w" unicode="w" horiz-adv-x="726" 
d="M173 0l-150 479h103l97 -338l100 338h81l98 -338l99 338h102l-150 -479h-90l-100 335l-99 -335h-91z" />
    <glyph glyph-name="x" unicode="x" horiz-adv-x="530" 
d="M25 0l178 244l-170 235h121l111 -162h2l111 162h117l-167 -232l177 -247h-120l-119 175h-2l-123 -175h-116z" />
    <glyph glyph-name="y" unicode="y" horiz-adv-x="505" 
d="M35 -192l7 85h64q77 0 94 107l-177 479h104l125 -369l127 369h103l-187 -497q-19 -50 -39.5 -85.5t-63 -63.5t-109.5 -28q-21 0 -48 3z" />
    <glyph glyph-name="z" unicode="z" horiz-adv-x="487" 
d="M51 0v80l262 312h-253v87h373v-80l-260 -311h272v-88h-394z" />
    <glyph glyph-name="braceleft" unicode="{" horiz-adv-x="474" 
d="M321.5 -146.5q-39.5 10.5 -69 56t-35.5 143.5q-5 81 -13.5 120t-39 66.5t-96.5 39.5v74q66 13 96 39t38.5 64.5t14.5 122.5q6 98 36 143.5t70 56t107 10.5h12v-95h-12q-38 0 -60.5 -7.5t-39 -39.5t-21.5 -102l-2 -35q-2 -56 -8.5 -91.5t-30 -64.5t-71.5 -38
q51 -10 73.5 -39.5t28.5 -68t10 -121.5q3 -69 20.5 -101.5t40 -40t59.5 -7.5h13v-95h-13q-68 0 -107.5 10.5z" />
    <glyph glyph-name="bar" unicode="|" horiz-adv-x="228" 
d="M68 -170v941h92v-941h-92z" />
    <glyph glyph-name="braceright" unicode="}" horiz-adv-x="474" 
d="M32 -61h12q40 0 62 7t38 39.5t21 102.5l2 36q3 58 9.5 93t30 62.5t71.5 36.5q-50 10 -72.5 38t-29.5 68t-11 123q-3 70 -20 102.5t-40 40t-60 7.5h-13v94h13q71 0 110 -10t66.5 -55.5t35.5 -144.5l2 -32q3 -58 12 -92t40 -61.5t95 -39.5v-74q-66 -13 -96 -40t-38.5 -65.5
t-14.5 -121.5q-6 -98 -36 -143.5t-70 -56t-107 -10.5h-12v96z" />
    <glyph glyph-name="asciitilde" unicode="~" horiz-adv-x="705" 
d="M411.5 237q-29.5 12 -74.5 37q-35 19 -54.5 28t-38.5 9q-29 0 -60 -21.5t-50 -48.5l-76 77q35 46 85.5 75t103.5 29q36 0 66 -12.5t71 -36.5q33 -19 52 -28t40 -9q27 0 48.5 16t48.5 47l74 -76q-29 -39 -77 -68.5t-97 -29.5q-32 0 -61.5 12z" />
    <glyph glyph-name="exclamdown" unicode="&#xa1;" horiz-adv-x="280" 
d="M98 331h85q3 -283 13 -531h-111q12 354 13 531zM86 406.5q-22 22.5 -22 53.5t22 53.5t53 22.5q32 0 54.5 -22t22.5 -54q0 -31 -22.5 -53.5t-54.5 -22.5q-31 0 -53 22.5z" />
    <glyph glyph-name="cent" unicode="&#xa2;" horiz-adv-x="547" 
d="M229 -11q-82 18 -133.5 85.5t-51.5 179.5q0 89 33 150t88.5 91.5t122.5 30.5q11 0 16 -1l11 76h62l-12 -88q53 -19 89.5 -65.5t48.5 -116.5l-100 -15q-13 70 -52 98l-47 -336q38 5 65.5 32t33.5 80l101 -5q-13 -94 -69 -146.5t-144 -54.5l-13 -91h-62zM292 434h-9
q-37 0 -68 -19.5t-50.5 -59.5t-19.5 -99q0 -71 27.5 -114t70.5 -58z" />
    <glyph glyph-name="sterling" unicode="&#xa3;" horiz-adv-x="689" 
d="M131 -0.5q-31 14.5 -51 43.5t-20 69q0 56 35 92t86 36q46 0 74.5 -27.5t41.5 -60.5q9 27 9 59q0 56 -30 107h-164v83h117q-42 62 -42 125q0 57 29.5 101.5t79.5 69t110 24.5q84 0 139 -49t69 -139l-91 -28q-12 60 -39 93.5t-82 33.5q-52 0 -84.5 -30.5t-32.5 -78.5
q0 -55 50 -122h214v-83h-167q22 -44 22 -89q0 -65 -44 -131q34 -18 79 -18q52 0 77.5 27.5t27.5 86.5l97 -6q-6 -88 -52.5 -145.5t-140.5 -57.5q-87 0 -138 51q-51 -51 -114 -51q-34 0 -65 14.5zM266 96q-12 23 -30.5 43t-44.5 20q-17 0 -29.5 -13t-12.5 -31q0 -20 15.5 -33
t40.5 -13q36 0 61 27z" />
    <glyph glyph-name="currency" unicode="&#xa4;" horiz-adv-x="609" 
d="M77 121l40 39q-48 63 -48 144q0 38 12 75t36 68l-40 40l45 45l39 -39q63 48 142 48q39 0 76.5 -12.5t69.5 -36.5l39 39l43 -43l-39 -39q48 -63 48 -144t-48 -144l39 -39l-44 -44l-40 39q-64 -48 -144 -48t-143 48l-40 -39zM235.5 143q31.5 -13 64.5 -13q35 0 68 13.5
t59 39.5q25 25 38 57.5t13 67.5q0 34 -12.5 65.5t-36.5 55.5q-23 23 -55.5 36.5t-67.5 13.5q-34 0 -66.5 -13t-57.5 -38t-38.5 -58t-13.5 -69q0 -71 50 -121q24 -24 55.5 -37z" />
    <glyph glyph-name="yen" unicode="&#xa5;" horiz-adv-x="592" 
d="M248 0v108h-158v81h158v62h-165v81h132l-202 369h109l177 -335l176 335h104l-202 -369h138v-81h-171v-62h164v-81h-164v-108h-96z" />
    <glyph glyph-name="brokenbar" unicode="&#xa6;" horiz-adv-x="229" 
d="M68 405v366h93v-366h-93zM68 -170v364h93v-364h-93z" />
    <glyph glyph-name="section" unicode="&#xa7;" horiz-adv-x="658" 
d="M193 -133q-54 39 -70 120l103 25q7 -38 32.5 -69t72.5 -31q34 0 63.5 17t29.5 55q0 27 -15 44.5t-41 32.5l-200 120q-92 55 -92 143q0 52 28 86.5t78 59.5q-47 49 -47 108q0 40 20.5 77.5t65 62t113.5 24.5q75 0 130 -34.5t67 -109.5l-103 -30q-12 90 -95 90
q-41 0 -66 -20.5t-25 -51.5q0 -29 21 -47.5t53 -35.5l154 -79q46 -24 82.5 -60.5t36.5 -102.5q0 -100 -110 -157q27 -26 41 -53t14 -61q0 -47 -26.5 -84t-74 -57.5t-106.5 -20.5q-80 0 -134 39zM469.5 189.5q17.5 19.5 17.5 50.5q0 27 -18 50.5t-50 40.5l-175 92
q-67 -30 -67 -82q0 -28 16.5 -48.5t38.5 -32.5l188 -107q32 17 49.5 36.5z" />
    <glyph glyph-name="dieresis" unicode="&#xa8;" horiz-adv-x="500" 
d="M101 615q-21 19 -21 45t21 46t50 20q28 0 49 -19.5t21 -46.5q0 -26 -20.5 -45t-50.5 -19q-28 0 -49 19zM300 614.5q-20 18.5 -20 45.5t20 46.5t48 19.5q30 0 51 -19t21 -46t-21 -46t-51 -19q-28 0 -48 18.5z" />
    <glyph glyph-name="copyright" unicode="&#xa9;" horiz-adv-x="835" 
d="M227 32.5q-87 49.5 -137 135t-50 188.5q0 104 50 190t136.5 136t191.5 50q104 0 190.5 -50.5t136 -136.5t49.5 -190q0 -103 -49.5 -188t-135.5 -134.5t-191 -49.5q-104 0 -191 49.5zM319 157.5q-47 25.5 -75 77.5t-28 128q0 75 28 126t74 76.5t101 25.5q76 0 121.5 -43.5
t60.5 -103.5l-71 -21q-10 44 -38 75t-76 31q-55 0 -91.5 -43t-36.5 -123q0 -81 37.5 -124.5t96.5 -43.5q49 0 75 28.5t32 66.5l70 -13q-11 -57 -54.5 -101t-122.5 -44q-56 0 -103 25.5zM574 89q70 41 110 111.5t40 154.5q0 85 -40.5 156.5t-110.5 113.5t-155 42
q-86 0 -156 -41.5t-110.5 -113t-40.5 -156.5q0 -84 39.5 -154.5t110 -112t157.5 -41.5q86 0 156 41z" />
    <glyph glyph-name="ordfeminine" unicode="&#xaa;" horiz-adv-x="425" 
d="M137.5 435q-29.5 16 -49.5 50.5t-20 87.5q0 51 18.5 85t47.5 50.5t60 16.5q29 0 50.5 -14t35.5 -33v38h77v-289h-76v38q-12 -19 -34 -32.5t-51 -13.5t-58.5 16zM263 506q19 26 19 69t-18.5 65.5t-50.5 22.5q-31 0 -49.5 -22t-18.5 -66q0 -45 19 -70t49 -25q31 0 50 26z
" />
    <glyph glyph-name="guillemotleft" unicode="&#xab;" horiz-adv-x="552" 
d="M392 55l-126 197v9l126 191h102l-125 -195l125 -202h-102zM186 55l-127 197v9l127 191h101l-125 -195l125 -202h-101z" />
    <glyph glyph-name="logicalnot" unicode="&#xac;" horiz-adv-x="691" 
d="M541 165v229h-483v92h575v-321h-92z" />
    <glyph glyph-name="uni00AD" unicode="&#xad;" horiz-adv-x="499" 
d="M68 217v96h363v-96h-363z" />
    <glyph glyph-name="registered" unicode="&#xae;" horiz-adv-x="859" 
d="M239 32.5q-87 49.5 -137 135t-50 188.5q0 104 50 190t136.5 136t191.5 50q104 0 190.5 -50.5t136 -136.5t49.5 -190q0 -103 -49.5 -188t-135.5 -134.5t-191 -49.5q-104 0 -191 49.5zM586 89q70 41 110 111.5t40 154.5q0 85 -40.5 156.5t-110.5 113.5t-155 42
q-86 0 -156 -41.5t-110.5 -113t-40.5 -156.5q0 -84 39.5 -154.5t110 -112t157.5 -41.5q86 0 156 41zM282 586h174q70 0 108 -32.5t38 -91.5t-33 -90t-79 -41l120 -182v-2h-81l-112 174h-67v-174h-68v439zM437 377q39 0 65.5 18t26.5 60q0 71 -79 71h-100v-149h87z" />
    <glyph glyph-name="macron" unicode="&#xaf;" horiz-adv-x="480" 
d="M80 604v85h319v-85h-319z" />
    <glyph glyph-name="degree" unicode="&#xb0;" horiz-adv-x="543" 
d="M174.5 380q-44.5 25 -70.5 69t-26 98t26 97.5t70 68t98 24.5q53 0 97 -24t69.5 -67.5t25.5 -98.5q0 -54 -25.5 -98t-69.5 -69t-97 -25t-97.5 25zM343 472q29 31 29 75q0 43 -29.5 73t-70.5 30q-42 0 -71 -30t-29 -73q0 -44 28.5 -75t71.5 -31q42 0 71 31z" />
    <glyph glyph-name="plusminus" unicode="&#xb1;" horiz-adv-x="594" 
d="M258 179v131h-143v81h143v134h85v-134h141v-81h-141v-131h-85zM58 51v84h478v-84h-478z" />
    <glyph glyph-name="uni00B2" unicode="&#xb2;" horiz-adv-x="383" 
d="M52 363q113 92 159 147.5t46 101.5q0 28 -16 46t-47 18q-42 0 -60 -30.5t-19 -70.5l-71 20q5 59 42.5 102.5t110.5 43.5q66 0 102.5 -35t36.5 -89q0 -57 -45 -115.5t-126 -122.5h172v-72h-285v56z" />
    <glyph glyph-name="uni00B3" unicode="&#xb3;" horiz-adv-x="402" 
d="M82.5 337.5q-39.5 37.5 -44.5 89.5l82 9q2 -30 22 -51t61 -21q34 0 54.5 17t20.5 47q0 36 -30.5 55.5t-80.5 17.5v58q44 1 69.5 18t25.5 45q0 23 -17 38.5t-48 15.5q-37 0 -54.5 -22.5t-18.5 -51.5l-74 9q1 49 35.5 89.5t111.5 40.5q67 0 106 -31.5t39 -78.5
q0 -35 -24 -62t-53 -32v-1q41 -10 67.5 -35t26.5 -72q0 -59 -44 -94t-116 -35q-77 0 -116.5 37.5z" />
    <glyph glyph-name="acute" unicode="&#xb4;" horiz-adv-x="373" 
d="M80 581l84 144h129l-120 -144h-93z" />
    <glyph glyph-name="uni00B5" unicode="&#xb5;" horiz-adv-x="578" 
d="M60 520h113v-306q0 -132 108 -132q79 0 101.5 50.5t22.5 97.5v290h113v-520h-105v59h-1q-4 -8 -20 -25t-46.5 -32.5t-73.5 -15.5q-33 0 -59.5 10t-39.5 23v-185h-113v686z" />
    <glyph glyph-name="paragraph" unicode="&#xb6;" horiz-adv-x="667" 
d="M350 260q-126 0 -204 58.5t-78 170.5q0 106 72.5 166t209.5 60h248v-873h-75v794h-98v-794h-75v418z" />
    <glyph glyph-name="periodcentered" unicode="&#xb7;" horiz-adv-x="286" 
d="M89 254q-21 21 -21 50t22 50t54 21t52.5 -21t20.5 -50q0 -30 -21.5 -50.5t-52.5 -20.5q-33 0 -54 21z" />
    <glyph glyph-name="cedilla" unicode="&#xb8;" horiz-adv-x="389" 
d="M117 -194.5q-29 24.5 -37 58.5l76 8q7 -28 37 -28q16 0 24.5 8.5t8.5 23.5q0 17 -9.5 26t-23.5 9q-18 0 -34 -13l-48 30l60 72h72l-44 -49q15 5 29 5q34 0 57 -21.5t23 -58.5q0 -43 -31 -69t-81 -26t-79 24.5z" />
    <glyph glyph-name="uni00B9" unicode="&#xb9;" horiz-adv-x="302" 
d="M142 629q-11 -19 -31.5 -29.5t-42.5 -10.5h-23v73h14q35 0 58.5 20t28.5 51h74v-426h-78v322z" />
    <glyph glyph-name="ordmasculine" unicode="&#xba;" horiz-adv-x="431" 
d="M111 457.5q-43 39.5 -43 112.5q0 75 42.5 115.5t103.5 40.5q39 0 73 -17.5t55 -52.5t21 -84q0 -72 -43 -113t-105 -41q-61 0 -104 39.5zM266.5 503.5q20.5 22.5 20.5 67.5q0 48 -21 70t-51 22t-50 -22.5t-20 -68.5t20 -68.5t51 -22.5q30 0 50.5 22.5z" />
    <glyph glyph-name="guillemotright" unicode="&#xbb;" horiz-adv-x="552" 
d="M265 55l125 202l-125 195h101l127 -191v-9l-127 -197h-101zM58 55l125 202l-125 195h102l126 -191v-9l-126 -197h-102z" />
    <glyph glyph-name="onequarter" unicode="&#xbc;" horiz-adv-x="889" 
d="M142 629q-11 -19 -31.5 -29.5t-42.5 -10.5h-23v73h14q35 0 58.5 20t28.5 51h74v-426h-78v322zM217 -20l-56 34l436 724l56 -33zM706 0v93h-201v57l194 276h88v-271h63v-62h-63v-93h-81zM581 155h129v182h-1z" />
    <glyph glyph-name="onehalf" unicode="&#xbd;" horiz-adv-x="895" 
d="M142 629q-11 -19 -31.5 -29.5t-42.5 -10.5h-23v73h14q35 0 58.5 20t28.5 51h74v-426h-78v322zM217 -20l-56 34l436 724l56 -33zM564 55q112 92 158.5 147.5t46.5 102.5q0 28 -16 45.5t-47 17.5q-40 0 -59 -29.5t-20 -70.5l-71 20q6 57 42.5 101t110.5 44q66 0 102.5 -35
t36.5 -88q0 -58 -44.5 -116.5t-126.5 -122.5h172v-71h-285v55z" />
    <glyph glyph-name="threequarters" unicode="&#xbe;" horiz-adv-x="970" 
d="M82.5 337.5q-39.5 37.5 -44.5 89.5l82 9q2 -30 22 -51t61 -21q34 0 54.5 17t20.5 47q0 36 -30.5 55.5t-80.5 17.5v58q44 1 69.5 18t25.5 45q0 23 -17 38.5t-48 15.5q-37 0 -54.5 -22.5t-18.5 -51.5l-74 9q1 49 35.5 89.5t111.5 40.5q67 0 106 -31.5t39 -78.5
q0 -35 -24 -62t-53 -32v-1q41 -10 67.5 -35t26.5 -72q0 -59 -44 -94t-116 -35q-77 0 -116.5 37.5zM298 -20l-56 34l436 724l56 -33zM787 0v93h-201v57l194 276h88v-271h63v-62h-63v-93h-81zM662 155h129v182h-1z" />
    <glyph glyph-name="questiondown" unicode="&#xbf;" horiz-adv-x="592" 
d="M169 -196.5q-53 24.5 -80.5 67.5t-27.5 98q0 44 16 76.5t39 54t57 46.5q56 41 73 57.5t17 34.5q0 9 -4 18t-10.5 20t-11.5 20l92 30q17 -23 28.5 -44.5t11.5 -51.5q0 -40 -24.5 -69.5t-89.5 -76.5q-41 -30 -62 -54t-21 -60q0 -42 32.5 -70.5t89.5 -28.5q69 0 100.5 38
t31.5 90l106 -17q-4 -84 -60.5 -143.5t-176.5 -59.5q-73 0 -126 24.5zM243.5 405q-23.5 23 -23.5 54q0 32 23.5 54.5t55.5 22.5t55.5 -22.5t23.5 -54.5q0 -31 -23.5 -54t-55.5 -23t-55.5 23z" />
    <glyph glyph-name="Agrave" unicode="&#xc0;" horiz-adv-x="699" 
d="M24 0l258 715h134l259 -715h-111l-66 185h-299l-66 -185h-109zM233 282h230l-115 321h-1zM322 751l-119 144h129l84 -144h-94z" />
    <glyph glyph-name="Aacute" unicode="&#xc1;" horiz-adv-x="699" 
d="M24 0l258 715h134l259 -715h-111l-66 185h-299l-66 -185h-109zM233 282h230l-115 321h-1zM300 751l84 144h129l-120 -144h-93z" />
    <glyph glyph-name="Acircumflex" unicode="&#xc2;" horiz-adv-x="699" 
d="M24 0l258 715h134l259 -715h-111l-66 185h-299l-66 -185h-109zM233 282h230l-115 321h-1zM191 750l106 145h109l104 -145h-98l-61 80l-61 -80h-99z" />
    <glyph glyph-name="Atilde" unicode="&#xc3;" horiz-adv-x="699" 
d="M24 0l258 715h134l259 -715h-111l-66 185h-299l-66 -185h-109zM233 282h230l-115 321h-1zM385.5 763.5q-17.5 7.5 -30 15t-15.5 9.5q-18 11 -31 16.5t-26 5.5q-36 0 -58 -52l-64 30q40 100 114 100q24 0 42 -7.5t39 -21.5q19 -13 32 -19.5t26 -6.5q19 0 34 13t24 38
l65 -23q-19 -53 -48 -79t-65 -26q-21 0 -38.5 7.5z" />
    <glyph glyph-name="Adieresis" unicode="&#xc4;" horiz-adv-x="699" 
d="M24 0l258 715h134l259 -715h-111l-66 185h-299l-66 -185h-109zM233 282h230l-115 321h-1zM202 785q-21 19 -21 45t21 46t50 20q28 0 49 -19.5t21 -46.5q0 -26 -20.5 -45t-50.5 -19q-28 0 -49 19zM401 784.5q-20 18.5 -20 45.5t20 46.5t48 19.5q30 0 51 -19t21 -46
t-21 -46t-51 -19q-28 0 -48 18.5z" />
    <glyph glyph-name="Aring" unicode="&#xc5;" horiz-adv-x="699" 
d="M24 0l258 715h134l259 -715h-111l-66 185h-299l-66 -185h-109zM233 282h230l-115 321h-1zM268 766.5q-33 32.5 -33 81.5t33.5 81t83.5 32q48 0 81.5 -31.5t33.5 -80.5q0 -50 -33 -82.5t-83 -32.5t-83 32.5zM390.5 807q16.5 16 16.5 42q0 25 -16.5 41t-38.5 16
q-23 0 -40 -16t-17 -41q0 -26 17 -42t40 -16q22 0 38.5 16z" />
    <glyph glyph-name="AE" unicode="&#xc6;" horiz-adv-x="969" 
d="M22 0l346 715h550v-96h-350v-207h308v-93h-308v-223h349v-96h-454v200h-233l-96 -200h-112zM278 298h185v318h-32z" />
    <glyph glyph-name="Ccedilla" unicode="&#xc7;" horiz-adv-x="712" 
d="M268 -194.5q-29 24.5 -37 58.5l76 8q7 -28 37 -28q16 0 24.5 8.5t8.5 23.5q0 17 -9.5 26t-23.5 9q-18 0 -34 -13l-48 30l51 61q-78 13 -139.5 58.5t-97.5 124.5t-36 187q0 121 45 205t120 125.5t164 41.5q83 0 144 -34.5t97 -88t51 -114.5l-108 -33q-18 75 -63.5 125
t-125.5 50q-60 0 -108.5 -31.5t-77 -94t-28.5 -151.5q0 -90 29 -153t79.5 -95t114.5 -32q80 0 123 46.5t54 111.5l108 -21q-12 -61 -46.5 -113.5t-93 -85t-138.5 -33.5l-30 -33q15 5 29 5q34 0 57 -21.5t23 -58.5q0 -43 -31 -69t-81 -26t-79 24.5z" />
    <glyph glyph-name="Egrave" unicode="&#xc8;" horiz-adv-x="597" 
d="M68 0v715h475v-96h-370v-207h327v-93h-327v-223h369v-96h-474zM287 751l-119 144h129l84 -144h-94z" />
    <glyph glyph-name="Eacute" unicode="&#xc9;" horiz-adv-x="597" 
d="M68 0v715h475v-96h-370v-207h327v-93h-327v-223h369v-96h-474zM264 751l84 144h129l-120 -144h-93z" />
    <glyph glyph-name="Ecircumflex" unicode="&#xca;" horiz-adv-x="597" 
d="M68 0v715h475v-96h-370v-207h327v-93h-327v-223h369v-96h-474zM156 750l106 145h109l104 -145h-98l-61 80l-61 -80h-99z" />
    <glyph glyph-name="Edieresis" unicode="&#xcb;" horiz-adv-x="597" 
d="M68 0v715h475v-96h-370v-207h327v-93h-327v-223h369v-96h-474zM166 785q-21 19 -21 45t21 46t50 20q28 0 49 -19.5t21 -46.5q0 -26 -20.5 -45t-50.5 -19q-28 0 -49 19zM365 784.5q-20 18.5 -20 45.5t20 46.5t48 19.5q30 0 51 -19t21 -46t-21 -46t-51 -19q-28 0 -48 18.5z
" />
    <glyph glyph-name="Igrave" unicode="&#xcc;" horiz-adv-x="242" 
d="M68 0v715h105v-715h-105zM91 751l-119 144h129l84 -144h-94z" />
    <glyph glyph-name="Iacute" unicode="&#xcd;" horiz-adv-x="242" 
d="M68 0v715h105v-715h-105zM69 751l84 144h129l-120 -144h-93z" />
    <glyph glyph-name="Icircumflex" unicode="&#xce;" horiz-adv-x="242" 
d="M68 0v715h105v-715h-105zM-24 750l96 145h98l93 -145h-88l-55 80l-55 -80h-89z" />
    <glyph glyph-name="Idieresis" unicode="&#xcf;" horiz-adv-x="242" 
d="M68 0v715h105v-715h-105zM-13 774.5q-19 16.5 -19 40.5t18.5 41.5t44.5 17.5t44.5 -17t18.5 -42q0 -23 -18.5 -40t-44.5 -17q-25 0 -44 16.5zM165 774.5q-18 16.5 -18 40.5t18 41.5t43 17.5q27 0 45.5 -17.5t18.5 -41.5q0 -23 -18.5 -40t-45.5 -17q-25 0 -43 16.5z" />
    <glyph glyph-name="Eth" unicode="&#xd0;" horiz-adv-x="669" 
d="M68 325h-71v80h71v310h229q110 0 184.5 -45.5t111 -126t36.5 -184.5q0 -108 -38.5 -189t-113.5 -125.5t-180 -44.5h-229v325zM303 96q107 0 162.5 69t55.5 192q0 124 -56 193t-162 69h-130v-214h165v-80h-165v-229h130z" />
    <glyph glyph-name="Ntilde" unicode="&#xd1;" horiz-adv-x="706" 
d="M68 0v715h115l350 -554h1v554h104v-715h-115l-350 556h-1v-556h-104zM399.5 763.5q-17.5 7.5 -30 15t-15.5 9.5q-18 11 -31 16.5t-26 5.5q-36 0 -58 -52l-64 30q40 100 114 100q24 0 42 -7.5t39 -21.5q19 -13 32 -19.5t26 -6.5q19 0 34 13t24 38l65 -23q-19 -53 -48 -79
t-65 -26q-21 0 -38.5 7.5z" />
    <glyph glyph-name="Ograve" unicode="&#xd2;" horiz-adv-x="743" 
d="M213 24q-76 40 -124.5 124.5t-48.5 210.5t48.5 210t125 123t160.5 39q85 0 160 -39.5t122 -122.5t47 -208q0 -126 -47.5 -211t-123 -125.5t-159.5 -40.5t-160 40zM483.5 109.5q49.5 29.5 79.5 92.5t30 159q0 95 -30.5 156.5t-80 89.5t-108.5 28t-110 -28.5t-82.5 -90
t-31.5 -155.5q0 -95 32 -158.5t83.5 -93t110.5 -29.5q58 0 107.5 29.5zM343 756l-119 144h129l84 -144h-94z" />
    <glyph glyph-name="Oacute" unicode="&#xd3;" horiz-adv-x="743" 
d="M213 24q-76 40 -124.5 124.5t-48.5 210.5t48.5 210t125 123t160.5 39q85 0 160 -39.5t122 -122.5t47 -208q0 -126 -47.5 -211t-123 -125.5t-159.5 -40.5t-160 40zM483.5 109.5q49.5 29.5 79.5 92.5t30 159q0 95 -30.5 156.5t-80 89.5t-108.5 28t-110 -28.5t-82.5 -90
t-31.5 -155.5q0 -95 32 -158.5t83.5 -93t110.5 -29.5q58 0 107.5 29.5zM320 756l84 144h129l-120 -144h-93z" />
    <glyph glyph-name="Ocircumflex" unicode="&#xd4;" horiz-adv-x="743" 
d="M213 24q-76 40 -124.5 124.5t-48.5 210.5t48.5 210t125 123t160.5 39q85 0 160 -39.5t122 -122.5t47 -208q0 -126 -47.5 -211t-123 -125.5t-159.5 -40.5t-160 40zM483.5 109.5q49.5 29.5 79.5 92.5t30 159q0 95 -30.5 156.5t-80 89.5t-108.5 28t-110 -28.5t-82.5 -90
t-31.5 -155.5q0 -95 32 -158.5t83.5 -93t110.5 -29.5q58 0 107.5 29.5zM212 755l106 145h109l104 -145h-98l-61 80l-61 -80h-99z" />
    <glyph glyph-name="Otilde" unicode="&#xd5;" horiz-adv-x="743" 
d="M213 24q-76 40 -124.5 124.5t-48.5 210.5t48.5 210t125 123t160.5 39q85 0 160 -39.5t122 -122.5t47 -208q0 -126 -47.5 -211t-123 -125.5t-159.5 -40.5t-160 40zM483.5 109.5q49.5 29.5 79.5 92.5t30 159q0 95 -30.5 156.5t-80 89.5t-108.5 28t-110 -28.5t-82.5 -90
t-31.5 -155.5q0 -95 32 -158.5t83.5 -93t110.5 -29.5q58 0 107.5 29.5zM406.5 768.5q-17.5 7.5 -30 15t-15.5 9.5q-18 11 -31 16.5t-26 5.5q-36 0 -58 -52l-64 30q40 100 114 100q24 0 42 -7.5t39 -21.5q19 -13 32 -19.5t26 -6.5q19 0 34 13t24 38l65 -23q-19 -53 -48 -79
t-65 -26q-21 0 -38.5 7.5z" />
    <glyph glyph-name="Odieresis" unicode="&#xd6;" horiz-adv-x="743" 
d="M213 24q-76 40 -124.5 124.5t-48.5 210.5t48.5 210t125 123t160.5 39q85 0 160 -39.5t122 -122.5t47 -208q0 -126 -47.5 -211t-123 -125.5t-159.5 -40.5t-160 40zM483.5 109.5q49.5 29.5 79.5 92.5t30 159q0 95 -30.5 156.5t-80 89.5t-108.5 28t-110 -28.5t-82.5 -90
t-31.5 -155.5q0 -95 32 -158.5t83.5 -93t110.5 -29.5q58 0 107.5 29.5zM223 790q-21 19 -21 45t21 46t50 20q28 0 49 -19.5t21 -46.5q0 -26 -20.5 -45t-50.5 -19q-28 0 -49 19zM422 789.5q-20 18.5 -20 45.5t20 46.5t48 19.5q30 0 51 -19t21 -46t-21 -46t-51 -19
q-28 0 -48 18.5z" />
    <glyph glyph-name="multiply" unicode="&#xd7;" horiz-adv-x="658" 
d="M117 44l-57 57l210 214l-210 209l58 59l211 -210l211 210l58 -59l-210 -210l210 -212l-58 -58l-211 213z" />
    <glyph glyph-name="Oslash" unicode="&#xd8;" horiz-adv-x="743" 
d="M261 3q-56 19 -101 57l-65 -75l-54 48l70 80q-71 99 -71 248q0 125 48.5 208.5t125 122.5t160.5 39q58 0 112.5 -18.5t98.5 -55.5l63 72l53 -47l-68 -78q70 -94 70 -244q0 -125 -47.5 -210t-122.5 -125.5t-158 -40.5q-58 0 -114 19zM483.5 109.5q49.5 29.5 79.5 92.5
t30 159q0 94 -32 160l-333 -383q31 -29 69 -43.5t79 -14.5q58 0 107.5 29.5zM518 580q-29 28 -66.5 41.5t-77.5 13.5q-59 0 -110 -28.5t-82.5 -90t-31.5 -155.5q0 -96 34 -164z" />
    <glyph glyph-name="Ugrave" unicode="&#xd9;" horiz-adv-x="685" 
d="M200.5 13.5q-61.5 29.5 -97 85t-35.5 128.5v488h105v-463q0 -88 47.5 -130.5t123.5 -42.5q75 0 121.5 42.5t46.5 130.5v463h105v-488q0 -73 -37 -128t-100.5 -85t-140.5 -30t-138.5 29.5zM317 751l-119 144h129l84 -144h-94z" />
    <glyph glyph-name="Uacute" unicode="&#xda;" horiz-adv-x="685" 
d="M200.5 13.5q-61.5 29.5 -97 85t-35.5 128.5v488h105v-463q0 -88 47.5 -130.5t123.5 -42.5q75 0 121.5 42.5t46.5 130.5v463h105v-488q0 -73 -37 -128t-100.5 -85t-140.5 -30t-138.5 29.5zM295 751l84 144h129l-120 -144h-93z" />
    <glyph glyph-name="Ucircumflex" unicode="&#xdb;" horiz-adv-x="685" 
d="M200.5 13.5q-61.5 29.5 -97 85t-35.5 128.5v488h105v-463q0 -88 47.5 -130.5t123.5 -42.5q75 0 121.5 42.5t46.5 130.5v463h105v-488q0 -73 -37 -128t-100.5 -85t-140.5 -30t-138.5 29.5zM186 750l106 145h109l104 -145h-98l-61 80l-61 -80h-99z" />
    <glyph glyph-name="Udieresis" unicode="&#xdc;" horiz-adv-x="685" 
d="M200.5 13.5q-61.5 29.5 -97 85t-35.5 128.5v488h105v-463q0 -88 47.5 -130.5t123.5 -42.5q75 0 121.5 42.5t46.5 130.5v463h105v-488q0 -73 -37 -128t-100.5 -85t-140.5 -30t-138.5 29.5zM197 785q-21 19 -21 45t21 46t50 20q28 0 49 -19.5t21 -46.5q0 -26 -20.5 -45
t-50.5 -19q-28 0 -49 19zM396 784.5q-20 18.5 -20 45.5t20 46.5t48 19.5q30 0 51 -19t21 -46t-21 -46t-51 -19q-28 0 -48 18.5z" />
    <glyph glyph-name="Yacute" unicode="&#xdd;" horiz-adv-x="657" 
d="M276 0v276l-262 439h120l198 -338l196 338h114l-262 -439v-276h-104zM280 751l84 144h129l-120 -144h-93z" />
    <glyph glyph-name="Thorn" unicode="&#xde;" horiz-adv-x="606" 
d="M68 715h105v-119h151q116 0 186 -56t70 -163q0 -109 -72.5 -169.5t-191.5 -60.5h-143v-147h-105v715zM332 244q67 0 104 34t37 97q0 123 -146 123h-154v-254h159z" />
    <glyph glyph-name="germandbls" unicode="&#xdf;" horiz-adv-x="608" 
d="M252.5 24.5q-46.5 37.5 -60.5 88.5l92 29q5 -29 28.5 -50t67.5 -21q37 0 65 20t28 67q0 35 -17 56t-43.5 33t-78.5 29q-50 16 -77 41.5t-27 65.5q0 42 27.5 67.5t72.5 44.5q37 16 60 33.5t23 48.5q0 33 -31.5 52t-76.5 19q-67 0 -106 -43t-39 -132v-473h-101v479
q0 119 66.5 185.5t180.5 66.5q91 0 148 -42t57 -115q0 -57 -31.5 -85t-84.5 -48q-7 -3 -28.5 -11t-31.5 -17t-10 -21q0 -17 16 -24.5t59 -19.5q73 -21 123.5 -61t50.5 -125q0 -81 -53 -128t-141 -47q-81 0 -127.5 37.5z" />
    <glyph glyph-name="agrave" unicode="&#xe0;" horiz-adv-x="544" 
d="M94.5 23q-45.5 37 -45.5 102q0 59 38.5 94t90 50.5t121.5 25.5q38 6 51 9t20.5 10t7.5 23q0 33 -27 54.5t-72 21.5q-51 0 -81.5 -24.5t-42.5 -58.5l-82 45q18 47 69.5 83.5t138.5 36.5q88 0 142.5 -44.5t51.5 -135.5l-6 -203q-2 -48 42 -44v-78q-21 -3 -24 -3
q-43 0 -65.5 11t-32 34.5t-11.5 67.5h-2q-16 -52 -57.5 -83t-107.5 -31q-71 0 -116.5 37zM305 88.5q34 21.5 52.5 54.5t19.5 66l1 45q-15 -19 -60 -27q-68 -14 -100 -23t-50 -26t-18 -47q0 -64 76 -64q45 0 79 21.5zM243 544l-119 144h129l84 -144h-94z" />
    <glyph glyph-name="aacute" unicode="&#xe1;" horiz-adv-x="544" 
d="M94.5 23q-45.5 37 -45.5 102q0 59 38.5 94t90 50.5t121.5 25.5q38 6 51 9t20.5 10t7.5 23q0 33 -27 54.5t-72 21.5q-51 0 -81.5 -24.5t-42.5 -58.5l-82 45q18 47 69.5 83.5t138.5 36.5q88 0 142.5 -44.5t51.5 -135.5l-6 -203q-2 -48 42 -44v-78q-21 -3 -24 -3
q-43 0 -65.5 11t-32 34.5t-11.5 67.5h-2q-16 -52 -57.5 -83t-107.5 -31q-71 0 -116.5 37zM305 88.5q34 21.5 52.5 54.5t19.5 66l1 45q-15 -19 -60 -27q-68 -14 -100 -23t-50 -26t-18 -47q0 -64 76 -64q45 0 79 21.5zM220 544l84 144h129l-120 -144h-93z" />
    <glyph glyph-name="acircumflex" unicode="&#xe2;" horiz-adv-x="544" 
d="M94.5 23q-45.5 37 -45.5 102q0 59 38.5 94t90 50.5t121.5 25.5q38 6 51 9t20.5 10t7.5 23q0 33 -27 54.5t-72 21.5q-51 0 -81.5 -24.5t-42.5 -58.5l-82 45q18 47 69.5 83.5t138.5 36.5q88 0 142.5 -44.5t51.5 -135.5l-6 -203q-2 -48 42 -44v-78q-21 -3 -24 -3
q-43 0 -65.5 11t-32 34.5t-11.5 67.5h-2q-16 -52 -57.5 -83t-107.5 -31q-71 0 -116.5 37zM305 88.5q34 21.5 52.5 54.5t19.5 66l1 45q-15 -19 -60 -27q-68 -14 -100 -23t-50 -26t-18 -47q0 -64 76 -64q45 0 79 21.5zM112 543l106 145h109l104 -145h-98l-61 80l-61 -80h-99z
" />
    <glyph glyph-name="atilde" unicode="&#xe3;" horiz-adv-x="544" 
d="M94.5 23q-45.5 37 -45.5 102q0 59 38.5 94t90 50.5t121.5 25.5q38 6 51 9t20.5 10t7.5 23q0 33 -27 54.5t-72 21.5q-51 0 -81.5 -24.5t-42.5 -58.5l-82 45q18 47 69.5 83.5t138.5 36.5q88 0 142.5 -44.5t51.5 -135.5l-6 -203q-2 -48 42 -44v-78q-21 -3 -24 -3
q-43 0 -65.5 11t-32 34.5t-11.5 67.5h-2q-16 -52 -57.5 -83t-107.5 -31q-71 0 -116.5 37zM305 88.5q34 21.5 52.5 54.5t19.5 66l1 45q-15 -19 -60 -27q-68 -14 -100 -23t-50 -26t-18 -47q0 -64 76 -64q45 0 79 21.5zM306.5 556.5q-17.5 7.5 -30 15t-15.5 9.5
q-18 11 -31 16.5t-26 5.5q-36 0 -58 -52l-64 30q40 100 114 100q24 0 42 -7.5t39 -21.5q19 -13 32 -19.5t26 -6.5q18 0 33.5 13t24.5 38l65 -23q-19 -53 -48 -79t-65 -26q-21 0 -38.5 7.5z" />
    <glyph glyph-name="adieresis" unicode="&#xe4;" horiz-adv-x="544" 
d="M94.5 23q-45.5 37 -45.5 102q0 59 38.5 94t90 50.5t121.5 25.5q38 6 51 9t20.5 10t7.5 23q0 33 -27 54.5t-72 21.5q-51 0 -81.5 -24.5t-42.5 -58.5l-82 45q18 47 69.5 83.5t138.5 36.5q88 0 142.5 -44.5t51.5 -135.5l-6 -203q-2 -48 42 -44v-78q-21 -3 -24 -3
q-43 0 -65.5 11t-32 34.5t-11.5 67.5h-2q-16 -52 -57.5 -83t-107.5 -31q-71 0 -116.5 37zM305 88.5q34 21.5 52.5 54.5t19.5 66l1 45q-15 -19 -60 -27q-68 -14 -100 -23t-50 -26t-18 -47q0 -64 76 -64q45 0 79 21.5zM122 578q-21 19 -21 45t21 46t50 20q28 0 49 -19.5
t21 -46.5q0 -26 -20.5 -45t-50.5 -19q-28 0 -49 19zM321 577.5q-20 18.5 -20 45.5t20 46.5t48 19.5q30 0 51 -19t21 -46t-21 -46t-51 -19q-28 0 -48 18.5z" />
    <glyph glyph-name="aring" unicode="&#xe5;" horiz-adv-x="544" 
d="M94.5 23q-45.5 37 -45.5 102q0 59 38.5 94t90 50.5t121.5 25.5q38 6 51 9t20.5 10t7.5 23q0 33 -27 54.5t-72 21.5q-51 0 -81.5 -24.5t-42.5 -58.5l-82 45q18 47 69.5 83.5t138.5 36.5q88 0 142.5 -44.5t51.5 -135.5l-6 -203q-2 -48 42 -44v-78q-21 -3 -24 -3
q-43 0 -65.5 11t-32 34.5t-11.5 67.5h-2q-16 -52 -57.5 -83t-107.5 -31q-71 0 -116.5 37zM305 88.5q34 21.5 52.5 54.5t19.5 66l1 45q-15 -19 -60 -27q-68 -14 -100 -23t-50 -26t-18 -47q0 -64 76 -64q45 0 79 21.5zM189 559.5q-33 32.5 -33 81.5t33.5 81t83.5 32
q48 0 81.5 -31.5t33.5 -80.5q0 -50 -33 -82.5t-83 -32.5t-83 32.5zM311.5 600q16.5 16 16.5 42q0 25 -16.5 41t-38.5 16q-23 0 -40 -16t-17 -41q0 -26 17 -42t40 -16q22 0 38.5 16z" />
    <glyph glyph-name="ae" unicode="&#xe6;" horiz-adv-x="855" 
d="M90 22q-44 36 -44 102q0 54 29.5 86.5t76 49.5t114.5 29q41 7 73 13q18 4 27 11t9 25q0 30 -25.5 52.5t-73.5 22.5q-51 0 -82.5 -24.5t-42.5 -59.5l-82 46q19 49 71 84.5t139 35.5q61 0 99 -20t60 -58q36 40 74.5 59t93.5 19q100 0 156 -60t56 -180v-38h-344
q2 -68 40 -107.5t95 -39.5q49 0 80 27t43 62l80 -39q-20 -53 -72 -93.5t-135 -40.5q-71 0 -123.5 33t-77.5 96q-32 -63 -78 -96t-118 -33q-74 0 -118 36zM300.5 88q34.5 21 53.5 54t19 65v47q-10 -12 -31.5 -19t-63.5 -15q-72 -14 -101.5 -32t-29.5 -56q0 -65 76 -65
q43 0 77.5 21zM716 289q-8 127 -112 127q-52 0 -86.5 -32t-39.5 -95h238z" />
    <glyph glyph-name="ccedilla" unicode="&#xe7;" horiz-adv-x="531" 
d="M200 -192.5q-29 24.5 -37 58.5l76 8q7 -28 37 -28q16 0 24.5 8.5t8.5 23.5q0 17 -9.5 26t-23.5 9q-18 0 -34 -13l-48 30l47 57q-91 10 -149 74.5t-58 177.5q0 83 33 141t88 86.5t120 28.5q79 0 131.5 -42t73.5 -107l-96 -32q-28 96 -112 96q-56 0 -95 -42.5t-39 -127.5
q0 -86 40 -128t95 -42q43 0 74 26t40 75l102 -6q-11 -67 -55.5 -116.5t-119.5 -60.5l-32 -35q15 5 29 5q34 0 57 -21.5t23 -58.5q0 -43 -31 -69t-81 -26t-79 24.5z" />
    <glyph glyph-name="egrave" unicode="&#xe8;" horiz-adv-x="521" 
d="M151 13.5q-53 28.5 -84 85.5t-31 139q0 80 30 138t84 88.5t124 30.5q99 0 154 -61t55 -175v-43h-345q3 -62 39 -104t95 -42q51 0 81.5 27t42.5 62l81 -39q-21 -55 -73.5 -95t-133.5 -40q-66 0 -119 28.5zM380 290q-8 126 -115 126q-54 0 -85 -34.5t-38 -91.5h238z
M237 542l-119 144h129l84 -144h-94z" />
    <glyph glyph-name="eacute" unicode="&#xe9;" horiz-adv-x="521" 
d="M151 13.5q-53 28.5 -84 85.5t-31 139q0 80 30 138t84 88.5t124 30.5q99 0 154 -61t55 -175v-43h-345q3 -62 39 -104t95 -42q51 0 81.5 27t42.5 62l81 -39q-21 -55 -73.5 -95t-133.5 -40q-66 0 -119 28.5zM380 290q-8 126 -115 126q-54 0 -85 -34.5t-38 -91.5h238z
M214 542l84 144h129l-120 -144h-93z" />
    <glyph glyph-name="ecircumflex" unicode="&#xea;" horiz-adv-x="521" 
d="M151 13.5q-53 28.5 -84 85.5t-31 139q0 80 30 138t84 88.5t124 30.5q99 0 154 -61t55 -175v-43h-345q3 -62 39 -104t95 -42q51 0 81.5 27t42.5 62l81 -39q-21 -55 -73.5 -95t-133.5 -40q-66 0 -119 28.5zM380 290q-8 126 -115 126q-54 0 -85 -34.5t-38 -91.5h238z
M106 541l106 145h109l104 -145h-98l-61 80l-61 -80h-99z" />
    <glyph glyph-name="edieresis" unicode="&#xeb;" horiz-adv-x="521" 
d="M151 13.5q-53 28.5 -84 85.5t-31 139q0 80 30 138t84 88.5t124 30.5q99 0 154 -61t55 -175v-43h-345q3 -62 39 -104t95 -42q51 0 81.5 27t42.5 62l81 -39q-21 -55 -73.5 -95t-133.5 -40q-66 0 -119 28.5zM380 290q-8 126 -115 126q-54 0 -85 -34.5t-38 -91.5h238z
M116 576q-21 19 -21 45t21 46t50 20q28 0 49 -19.5t21 -46.5q0 -26 -20.5 -45t-50.5 -19q-28 0 -49 19zM315 575.5q-20 18.5 -20 45.5t20 46.5t48 19.5q30 0 51 -19t21 -46t-21 -46t-51 -19q-28 0 -48 18.5z" />
    <glyph glyph-name="igrave" unicode="&#xec;" horiz-adv-x="214" 
d="M59 0v479h101v-479h-101zM81 540l-119 144h129l84 -144h-94z" />
    <glyph glyph-name="iacute" unicode="&#xed;" horiz-adv-x="214" 
d="M59 0v479h101v-479h-101zM58 540l84 144h129l-120 -144h-93z" />
    <glyph glyph-name="icircumflex" unicode="&#xee;" horiz-adv-x="214" 
d="M59 0v479h101v-479h-101zM-32 539l94 145h98l92 -145h-88l-54 80l-54 -80h-88z" />
    <glyph glyph-name="idieresis" unicode="&#xef;" horiz-adv-x="214" 
d="M59 0v479h101v-479h-101zM-18 564.5q-18 16.5 -18 40.5q0 25 18 42t42 17q25 0 43 -17.5t18 -41.5q0 -23 -18 -40t-43 -17q-24 0 -42 16.5zM152.5 564.5q-17.5 16.5 -17.5 40.5t17 41.5t42 17.5t43 -17.5t18 -41.5q0 -23 -18 -40t-43 -17q-24 0 -41.5 16.5z" />
    <glyph glyph-name="eth" unicode="&#xf0;" horiz-adv-x="573" 
d="M159 14.5q-57 29.5 -91 86.5t-34 137q0 76 30.5 134t83.5 89.5t117 31.5q78 0 140 -50q-28 70 -97 128l-128 -54l-26 59l93 39q-52 32 -113 51l26 66q93 -27 171 -81l143 60l28 -57l-115 -49q72 -68 111.5 -156t39.5 -185q0 -89 -33 -152t-90.5 -95t-129.5 -32
q-69 0 -126 29.5zM394.5 116.5q40.5 46.5 40.5 122.5t-40.5 123.5t-112.5 47.5q-68 0 -107 -44.5t-39 -123.5q0 -80 39 -126t109 -46t110.5 46.5z" />
    <glyph glyph-name="ntilde" unicode="&#xf1;" horiz-adv-x="525" 
d="M59 479h101v-73h1q19 44 59.5 66t90.5 22q68 0 114.5 -40.5t46.5 -120.5v-333h-101v312q0 44 -23 70t-65 26q-53 0 -88 -40t-35 -113v-255h-101v479zM311.5 552.5q-17.5 7.5 -30 15t-15.5 9.5q-18 11 -31 16.5t-26 5.5q-36 0 -58 -52l-64 30q40 100 114 100q24 0 42 -7.5
t39 -21.5q19 -13 32 -19.5t26 -6.5q18 0 33.5 13t24.5 38l65 -23q-19 -53 -48 -79t-65 -26q-21 0 -38.5 7.5z" />
    <glyph glyph-name="ograve" unicode="&#xf2;" horiz-adv-x="542" 
d="M152.5 13.5q-53.5 28.5 -86 86t-32.5 139.5t32 140t86 87t117 29t117.5 -29t88 -87t33.5 -139q0 -80 -32.5 -138t-86.5 -87.5t-119 -29.5q-64 0 -117.5 28.5zM368 112.5q38 42.5 38 127.5q0 87 -39 128.5t-97 41.5t-96 -41.5t-38 -127.5t38.5 -128.5t97.5 -42.5
q58 0 96 42.5zM242 542l-119 144h129l84 -144h-94z" />
    <glyph glyph-name="oacute" unicode="&#xf3;" horiz-adv-x="542" 
d="M152.5 13.5q-53.5 28.5 -86 86t-32.5 139.5t32 140t86 87t117 29t117.5 -29t88 -87t33.5 -139q0 -80 -32.5 -138t-86.5 -87.5t-119 -29.5q-64 0 -117.5 28.5zM368 112.5q38 42.5 38 127.5q0 87 -39 128.5t-97 41.5t-96 -41.5t-38 -127.5t38.5 -128.5t97.5 -42.5
q58 0 96 42.5zM220 542l84 144h129l-120 -144h-93z" />
    <glyph glyph-name="ocircumflex" unicode="&#xf4;" horiz-adv-x="542" 
d="M152.5 13.5q-53.5 28.5 -86 86t-32.5 139.5t32 140t86 87t117 29t117.5 -29t88 -87t33.5 -139q0 -80 -32.5 -138t-86.5 -87.5t-119 -29.5q-64 0 -117.5 28.5zM368 112.5q38 42.5 38 127.5q0 87 -39 128.5t-97 41.5t-96 -41.5t-38 -127.5t38.5 -128.5t97.5 -42.5
q58 0 96 42.5zM111 541l106 145h109l104 -145h-98l-61 80l-61 -80h-99z" />
    <glyph glyph-name="otilde" unicode="&#xf5;" horiz-adv-x="542" 
d="M152.5 13.5q-53.5 28.5 -86 86t-32.5 139.5t32 140t86 87t117 29t117.5 -29t88 -87t33.5 -139q0 -80 -32.5 -138t-86.5 -87.5t-119 -29.5q-64 0 -117.5 28.5zM368 112.5q38 42.5 38 127.5q0 87 -39 128.5t-97 41.5t-96 -41.5t-38 -127.5t38.5 -128.5t97.5 -42.5
q58 0 96 42.5zM305.5 554.5q-17.5 7.5 -30 15t-15.5 9.5q-18 11 -31 16.5t-26 5.5q-36 0 -58 -52l-64 30q40 100 114 100q24 0 42 -7.5t39 -21.5q19 -13 32 -19.5t26 -6.5q19 0 34 13t24 38l65 -23q-19 -53 -48 -79t-65 -26q-21 0 -38.5 7.5z" />
    <glyph glyph-name="odieresis" unicode="&#xf6;" horiz-adv-x="542" 
d="M152.5 13.5q-53.5 28.5 -86 86t-32.5 139.5t32 140t86 87t117 29t117.5 -29t88 -87t33.5 -139q0 -80 -32.5 -138t-86.5 -87.5t-119 -29.5q-64 0 -117.5 28.5zM368 112.5q38 42.5 38 127.5q0 87 -39 128.5t-97 41.5t-96 -41.5t-38 -127.5t38.5 -128.5t97.5 -42.5
q58 0 96 42.5zM122 576q-21 19 -21 45t21 46t50 20q28 0 49 -19.5t21 -46.5q0 -26 -20.5 -45t-50.5 -19q-28 0 -49 19zM321 575.5q-20 18.5 -20 45.5t20 46.5t48 19.5q30 0 51 -19t21 -46t-21 -46t-51 -19q-28 0 -48 18.5z" />
    <glyph glyph-name="divide" unicode="&#xf7;" horiz-adv-x="620" 
d="M60 273v83h500v-83h-500zM258 75q-20 19 -20 47t20 47t50 19q29 0 48.5 -19t19.5 -47q0 -29 -19.5 -47.5t-49.5 -18.5q-29 0 -49 19zM258 455q-20 19 -20 47t20 47t49 19q30 0 49.5 -18.5t19.5 -47.5q0 -28 -19.5 -47t-49.5 -19q-29 0 -49 19z" />
    <glyph glyph-name="oslash" unicode="&#xf8;" horiz-adv-x="580" 
d="M48 20l48 56q-59 72 -59 179q0 86 36 146t94.5 90.5t124.5 30.5q39 0 76.5 -11.5t69.5 -33.5l45 53l49 -42l-47 -55q58 -73 58 -180q0 -85 -35.5 -145t-93.5 -90t-123 -30q-83 0 -148 45l-46 -53zM395 124.5q41 45.5 41 129.5q0 59 -20 99l-210 -246q37 -28 87 -28
q61 0 102 45.5zM375 404q-34 27 -82 27q-40 0 -73.5 -19.5t-54.5 -59.5t-21 -97q0 -56 21 -98z" />
    <glyph glyph-name="ugrave" unicode="&#xf9;" horiz-adv-x="525" 
d="M100 26q-47 40 -47 120v333h101v-313q0 -43 23.5 -68.5t65.5 -25.5q52 0 87 39.5t35 111.5v256h101v-479h-101v72h-1q-21 -43 -59.5 -64.5t-87.5 -21.5q-70 0 -117 40zM229 540l-119 144h129l84 -144h-94z" />
    <glyph glyph-name="uacute" unicode="&#xfa;" horiz-adv-x="525" 
d="M100 26q-47 40 -47 120v333h101v-313q0 -43 23.5 -68.5t65.5 -25.5q52 0 87 39.5t35 111.5v256h101v-479h-101v72h-1q-21 -43 -59.5 -64.5t-87.5 -21.5q-70 0 -117 40zM207 540l84 144h129l-120 -144h-93z" />
    <glyph glyph-name="ucircumflex" unicode="&#xfb;" horiz-adv-x="525" 
d="M100 26q-47 40 -47 120v333h101v-313q0 -43 23.5 -68.5t65.5 -25.5q52 0 87 39.5t35 111.5v256h101v-479h-101v72h-1q-21 -43 -59.5 -64.5t-87.5 -21.5q-70 0 -117 40zM98 539l106 145h109l104 -145h-98l-61 80l-61 -80h-99z" />
    <glyph glyph-name="udieresis" unicode="&#xfc;" horiz-adv-x="525" 
d="M100 26q-47 40 -47 120v333h101v-313q0 -43 23.5 -68.5t65.5 -25.5q52 0 87 39.5t35 111.5v256h101v-479h-101v72h-1q-21 -43 -59.5 -64.5t-87.5 -21.5q-70 0 -117 40zM109 574q-21 19 -21 45t21 46t50 20q28 0 49 -19.5t21 -46.5q0 -26 -20.5 -45t-50.5 -19
q-28 0 -49 19zM308 573.5q-20 18.5 -20 45.5t20 46.5t48 19.5q30 0 51 -19t21 -46t-21 -46t-51 -19q-28 0 -48 18.5z" />
    <glyph glyph-name="yacute" unicode="&#xfd;" horiz-adv-x="505" 
d="M35 -192l7 85h64q77 0 94 107l-177 479h104l125 -369l127 369h103l-187 -497q-19 -50 -39.5 -85.5t-63 -63.5t-109.5 -28q-21 0 -48 3zM208 540l84 144h129l-120 -144h-93z" />
    <glyph glyph-name="thorn" unicode="&#xfe;" horiz-adv-x="554" 
d="M59 715h101v-307h1q21 36 58.5 61t88.5 25t100 -27t80.5 -83.5t31.5 -141.5t-31 -142.5t-79.5 -85.5t-100.5 -28q-50 0 -88 23t-60 55h-1v-264h-101v915zM382.5 121.5q35.5 43.5 35.5 120.5t-36 119t-93 42q-58 0 -94.5 -44t-36.5 -118t36.5 -118.5t94.5 -44.5t93.5 43.5
z" />
    <glyph glyph-name="ydieresis" unicode="&#xff;" horiz-adv-x="505" 
d="M35 -192l7 85h64q77 0 94 107l-177 479h104l125 -369l127 369h103l-187 -497q-19 -50 -39.5 -85.5t-63 -63.5t-109.5 -28q-21 0 -48 3zM110 574q-21 19 -21 45t21 46t50 20q28 0 49 -19.5t21 -46.5q0 -26 -20.5 -45t-50.5 -19q-28 0 -49 19zM309 573.5q-20 18.5 -20 45.5
t20 46.5t48 19.5q30 0 51 -19t21 -46t-21 -46t-51 -19q-28 0 -48 18.5z" />
    <glyph glyph-name="Amacron" unicode="&#x100;" horiz-adv-x="699" 
d="M24 0l258 715h134l259 -715h-111l-66 185h-299l-66 -185h-109zM233 282h230l-115 321h-1zM191 774v85h319v-85h-319z" />
    <glyph glyph-name="amacron" unicode="&#x101;" horiz-adv-x="544" 
d="M94.5 23q-45.5 37 -45.5 102q0 59 38.5 94t90 50.5t121.5 25.5q38 6 51 9t20.5 10t7.5 23q0 33 -27 54.5t-72 21.5q-51 0 -81.5 -24.5t-42.5 -58.5l-82 45q18 47 69.5 83.5t138.5 36.5q88 0 142.5 -44.5t51.5 -135.5l-6 -203q-2 -48 42 -44v-78q-21 -3 -24 -3
q-43 0 -65.5 11t-32 34.5t-11.5 67.5h-2q-16 -52 -57.5 -83t-107.5 -31q-71 0 -116.5 37zM305 88.5q34 21.5 52.5 54.5t19.5 66l1 45q-15 -19 -60 -27q-68 -14 -100 -23t-50 -26t-18 -47q0 -64 76 -64q45 0 79 21.5zM112 567v85h319v-85h-319z" />
    <glyph glyph-name="Abreve" unicode="&#x102;" horiz-adv-x="699" 
d="M24 0l258 715h134l259 -715h-111l-66 185h-299l-66 -185h-109zM233 282h230l-115 321h-1zM241 788q-44 42 -44 107h87q0 -34 19.5 -55.5t48.5 -21.5q30 0 48.5 22t18.5 55h86q0 -41 -19 -75t-54 -54t-80 -20q-67 0 -111 42z" />
    <glyph glyph-name="abreve" unicode="&#x103;" horiz-adv-x="544" 
d="M94.5 23q-45.5 37 -45.5 102q0 59 38.5 94t90 50.5t121.5 25.5q38 6 51 9t20.5 10t7.5 23q0 33 -27 54.5t-72 21.5q-51 0 -81.5 -24.5t-42.5 -58.5l-82 45q18 47 69.5 83.5t138.5 36.5q88 0 142.5 -44.5t51.5 -135.5l-6 -203q-2 -48 42 -44v-78q-21 -3 -24 -3
q-43 0 -65.5 11t-32 34.5t-11.5 67.5h-2q-16 -52 -57.5 -83t-107.5 -31q-71 0 -116.5 37zM305 88.5q34 21.5 52.5 54.5t19.5 66l1 45q-15 -19 -60 -27q-68 -14 -100 -23t-50 -26t-18 -47q0 -64 76 -64q45 0 79 21.5zM162 581q-44 42 -44 107h87q0 -34 19.5 -55.5t48.5 -21.5
q30 0 48.5 22t18.5 55h86q0 -41 -19 -75t-54 -54t-80 -20q-67 0 -111 42z" />
    <glyph glyph-name="Aogonek" unicode="&#x104;" horiz-adv-x="699" 
d="M511 -195q-26 25 -26 62t24.5 71t62.5 62h-8l-66 185h-299l-66 -185h-109l258 715h134l259 -715h-19q-87 -63 -87 -112q0 -17 10 -27t29 -10q28 0 61 24l9 -64q-16 -13 -43 -22t-53 -9q-45 0 -71 25zM233 282h230l-115 321h-1z" />
    <glyph glyph-name="aogonek" unicode="&#x105;" horiz-adv-x="544" 
d="M356 -195q-26 25 -26 62t24.5 71t62.5 62h1q-38 24 -40 100h-2q-16 -52 -57.5 -83t-107.5 -31q-71 0 -116.5 37t-45.5 102q0 59 38.5 94t90 50.5t121.5 25.5q38 6 51 9t20.5 10t7.5 23q0 33 -27 54.5t-72 21.5q-51 0 -81.5 -24.5t-42.5 -58.5l-82 45q18 47 69.5 83.5
t138.5 36.5q88 0 142.5 -44.5t51.5 -135.5l-6 -203q-2 -48 42 -44v-78q-15 -3 -27 -3q-70 -55 -70 -99q0 -17 10 -27t29 -10q28 0 61 24l9 -64q-16 -13 -43 -22t-53 -9q-45 0 -71 25zM305 88.5q34 21.5 52.5 54.5t19.5 66l1 45q-15 -19 -60 -27q-68 -14 -100 -23t-50 -26
t-18 -47q0 -64 76 -64q45 0 79 21.5z" />
    <glyph glyph-name="Cacute" unicode="&#x106;" horiz-adv-x="712" 
d="M205 26.5q-76 42.5 -120.5 127t-44.5 205.5t45 205t120 125.5t164 41.5q83 0 144 -34.5t97 -88t51 -114.5l-108 -33q-18 75 -63.5 125t-125.5 50q-60 0 -108.5 -31.5t-77 -94t-28.5 -151.5q0 -90 29 -153t79.5 -95t114.5 -32q80 0 123 46.5t54 111.5l108 -21
q-11 -57 -44 -109.5t-93 -87.5t-147 -35q-93 0 -169 42.5zM312 756l84 144h129l-120 -144h-93z" />
    <glyph glyph-name="cacute" unicode="&#x107;" horiz-adv-x="531" 
d="M149 14.5q-54 29.5 -84.5 87t-30.5 137.5q0 83 33 141t88 86.5t120 28.5q79 0 131.5 -42t73.5 -107l-96 -32q-28 96 -112 96q-56 0 -95 -42.5t-39 -127.5q0 -86 40 -128t95 -42q43 0 74 26t40 75l102 -6q-13 -77 -68 -128.5t-149 -51.5q-69 0 -123 29.5zM222 542l84 144
h129l-120 -144h-93z" />
    <glyph glyph-name="Ccircumflex" unicode="&#x108;" horiz-adv-x="712" 
d="M205 26.5q-76 42.5 -120.5 127t-44.5 205.5t45 205t120 125.5t164 41.5q83 0 144 -34.5t97 -88t51 -114.5l-108 -33q-18 75 -63.5 125t-125.5 50q-60 0 -108.5 -31.5t-77 -94t-28.5 -151.5q0 -90 29 -153t79.5 -95t114.5 -32q80 0 123 46.5t54 111.5l108 -21
q-11 -57 -44 -109.5t-93 -87.5t-147 -35q-93 0 -169 42.5zM203 755l106 145h109l104 -145h-98l-61 80l-61 -80h-99z" />
    <glyph glyph-name="ccircumflex" unicode="&#x109;" horiz-adv-x="531" 
d="M149 14.5q-54 29.5 -84.5 87t-30.5 137.5q0 83 33 141t88 86.5t120 28.5q79 0 131.5 -42t73.5 -107l-96 -32q-28 96 -112 96q-56 0 -95 -42.5t-39 -127.5q0 -86 40 -128t95 -42q43 0 74 26t40 75l102 -6q-13 -77 -68 -128.5t-149 -51.5q-69 0 -123 29.5zM114 541l106 145
h109l104 -145h-98l-61 80l-61 -80h-99z" />
    <glyph glyph-name="Cdotaccent" unicode="&#x10a;" horiz-adv-x="712" 
d="M205 26.5q-76 42.5 -120.5 127t-44.5 205.5t45 205t120 125.5t164 41.5q83 0 144 -34.5t97 -88t51 -114.5l-108 -33q-18 75 -63.5 125t-125.5 50q-60 0 -108.5 -31.5t-77 -94t-28.5 -151.5q0 -90 29 -153t79.5 -95t114.5 -32q80 0 123 46.5t54 111.5l108 -21
q-11 -57 -44 -109.5t-93 -87.5t-147 -35q-93 0 -169 42.5zM312.5 789q-20.5 18 -20.5 45t20 47t50 20q29 0 49.5 -18.5t20.5 -45.5t-20 -46.5t-50 -19.5q-29 0 -49.5 18z" />
    <glyph glyph-name="cdotaccent" unicode="&#x10b;" horiz-adv-x="531" 
d="M149 14.5q-54 29.5 -84.5 87t-30.5 137.5q0 83 33 141t88 86.5t120 28.5q79 0 131.5 -42t73.5 -107l-96 -32q-28 96 -112 96q-56 0 -95 -42.5t-39 -127.5q0 -86 40 -128t95 -42q43 0 74 26t40 75l102 -6q-13 -77 -68 -128.5t-149 -51.5q-69 0 -123 29.5zM222.5 575
q-20.5 18 -20.5 45t20 47t50 20q29 0 49.5 -18.5t20.5 -45.5t-20 -46.5t-50 -19.5q-29 0 -49.5 18z" />
    <glyph glyph-name="Ccaron" unicode="&#x10c;" horiz-adv-x="712" 
d="M205 26.5q-76 42.5 -120.5 127t-44.5 205.5t45 205t120 125.5t164 41.5q83 0 144 -34.5t97 -88t51 -114.5l-108 -33q-18 75 -63.5 125t-125.5 50q-60 0 -108.5 -31.5t-77 -94t-28.5 -151.5q0 -90 29 -153t79.5 -95t114.5 -32q80 0 123 46.5t54 111.5l108 -21
q-11 -57 -44 -109.5t-93 -87.5t-147 -35q-93 0 -169 42.5zM311 755l-107 145h99l62 -81l61 81h99l-106 -145h-108z" />
    <glyph glyph-name="ccaron" unicode="&#x10d;" horiz-adv-x="531" 
d="M149 14.5q-54 29.5 -84.5 87t-30.5 137.5q0 83 33 141t88 86.5t120 28.5q79 0 131.5 -42t73.5 -107l-96 -32q-28 96 -112 96q-56 0 -95 -42.5t-39 -127.5q0 -86 40 -128t95 -42q43 0 74 26t40 75l102 -6q-13 -77 -68 -128.5t-149 -51.5q-69 0 -123 29.5zM222 541
l-107 145h99l62 -81l61 81h99l-106 -145h-108z" />
    <glyph glyph-name="Dcaron" unicode="&#x10e;" horiz-adv-x="669" 
d="M68 715h229q110 0 184.5 -45.5t111 -126t36.5 -184.5q0 -108 -38.5 -189t-113.5 -125.5t-180 -44.5h-229v715zM303 96q107 0 162.5 69t55.5 192q0 124 -56 193t-162 69h-130v-523h130zM274 750l-107 145h99l62 -81l61 81h99l-106 -145h-108z" />
    <glyph glyph-name="dcaron" unicode="&#x10f;" horiz-adv-x="554" 
d="M145.5 13q-48.5 27 -80 85t-31.5 144q0 83 29.5 140t76.5 84.5t100 27.5q54 0 92 -25t61 -60h1v306h101v-715h-101v70h-1q-20 -34 -58 -59t-90 -25q-51 0 -99.5 27zM360 118q36 49 36 128q0 78 -35.5 120.5t-96.5 42.5q-58 0 -93 -41t-35 -122q0 -84 36 -130.5t93 -46.5
q59 0 95 49zM546 540l37 175h107l-65 -175h-79z" />
    <glyph glyph-name="Dcroat" unicode="&#x110;" horiz-adv-x="669" 
d="M68 325h-71v80h71v310h229q110 0 184.5 -45.5t111 -126t36.5 -184.5q0 -108 -38.5 -189t-113.5 -125.5t-180 -44.5h-229v325zM303 96q107 0 162.5 69t55.5 192q0 124 -56 193t-162 69h-130v-214h165v-80h-165v-229h130z" />
    <glyph glyph-name="dcroat" unicode="&#x111;" horiz-adv-x="554" 
d="M145.5 13q-48.5 27 -80 85t-31.5 144q0 83 29.5 140t76.5 84.5t100 27.5q54 0 92 -25t61 -60h1v119h-134v77h134v110h101v-110h60v-77h-60v-528h-101v70h-1q-20 -34 -58 -59t-90 -25q-51 0 -99.5 27zM360 118q36 49 36 128q0 78 -35.5 120.5t-96.5 42.5q-58 0 -93 -41
t-35 -122q0 -84 36 -130.5t93 -46.5q59 0 95 49z" />
    <glyph glyph-name="Emacron" unicode="&#x112;" horiz-adv-x="597" 
d="M68 0v715h475v-96h-370v-207h327v-93h-327v-223h369v-96h-474zM156 774v85h319v-85h-319z" />
    <glyph glyph-name="emacron" unicode="&#x113;" horiz-adv-x="521" 
d="M151 13.5q-53 28.5 -84 85.5t-31 139q0 80 30 138t84 88.5t124 30.5q99 0 154 -61t55 -175v-43h-345q3 -62 39 -104t95 -42q51 0 81.5 27t42.5 62l81 -39q-21 -55 -73.5 -95t-133.5 -40q-66 0 -119 28.5zM380 290q-8 126 -115 126q-54 0 -85 -34.5t-38 -91.5h238z
M106 565v85h319v-85h-319z" />
    <glyph glyph-name="Ebreve" unicode="&#x114;" horiz-adv-x="597" 
d="M68 0v715h475v-96h-370v-207h327v-93h-327v-223h369v-96h-474zM206 788q-44 42 -44 107h87q0 -34 19.5 -55.5t48.5 -21.5q30 0 48.5 22t18.5 55h86q0 -41 -19 -75t-54 -54t-80 -20q-67 0 -111 42z" />
    <glyph glyph-name="ebreve" unicode="&#x115;" horiz-adv-x="521" 
d="M151 13.5q-53 28.5 -84 85.5t-31 139q0 80 30 138t84 88.5t124 30.5q99 0 154 -61t55 -175v-43h-345q3 -62 39 -104t95 -42q51 0 81.5 27t42.5 62l81 -39q-21 -55 -73.5 -95t-133.5 -40q-66 0 -119 28.5zM380 290q-8 126 -115 126q-54 0 -85 -34.5t-38 -91.5h238z
M156 579q-44 42 -44 107h87q0 -34 19.5 -55.5t48.5 -21.5q30 0 48.5 22t18.5 55h86q0 -41 -19 -75t-54 -54t-80 -20q-67 0 -111 42z" />
    <glyph glyph-name="Edotaccent" unicode="&#x116;" horiz-adv-x="597" 
d="M68 0v715h475v-96h-370v-207h327v-93h-327v-223h369v-96h-474zM264.5 784q-20.5 18 -20.5 45t20 47t50 20q29 0 49.5 -18.5t20.5 -45.5t-20 -46.5t-50 -19.5q-29 0 -49.5 18z" />
    <glyph glyph-name="edotaccent" unicode="&#x117;" horiz-adv-x="521" 
d="M151 13.5q-53 28.5 -84 85.5t-31 139q0 80 30 138t84 88.5t124 30.5q99 0 154 -61t55 -175v-43h-345q3 -62 39 -104t95 -42q51 0 81.5 27t42.5 62l81 -39q-21 -55 -73.5 -95t-133.5 -40q-66 0 -119 28.5zM380 290q-8 126 -115 126q-54 0 -85 -34.5t-38 -91.5h238z
M214.5 575q-20.5 18 -20.5 45t20 47t50 20q29 0 49.5 -18.5t20.5 -45.5t-20 -46.5t-50 -19.5q-29 0 -49.5 18z" />
    <glyph glyph-name="Eogonek" unicode="&#x118;" horiz-adv-x="597" 
d="M421 -194q-29 26 -29 65q0 32 22 63t65 66h-411v715h475v-96h-370v-207h327v-93h-327v-223h369v-96q-69 -61 -69 -108q0 -17 11 -29t32 -12q17 0 30 6.5t30 19.5l8 -64q-13 -14 -37.5 -23.5t-51.5 -9.5q-45 0 -74 26z" />
    <glyph glyph-name="eogonek" unicode="&#x119;" horiz-adv-x="521" 
d="M254 -182q-29 26 -29 65q0 26 14 51t42 51h-11q-66 0 -119 28.5t-84 85.5t-31 139q0 80 30 138t84 88.5t124 30.5q99 0 154 -61t55 -175v-43h-345q3 -62 39 -104t95 -42q51 0 81.5 27t42.5 62l81 -39q-12 -33 -40.5 -65.5t-70.5 -50.5q-60 -56 -60 -100q0 -17 11 -29
t32 -12q17 0 30 6.5t30 19.5l8 -64q-13 -14 -37.5 -23.5t-51.5 -9.5q-45 0 -74 26zM380 290q-8 126 -115 126q-54 0 -85 -34.5t-38 -91.5h238z" />
    <glyph glyph-name="Ecaron" unicode="&#x11a;" horiz-adv-x="597" 
d="M68 0v715h475v-96h-370v-207h327v-93h-327v-223h369v-96h-474zM264 750l-107 145h99l62 -81l61 81h99l-106 -145h-108z" />
    <glyph glyph-name="ecaron" unicode="&#x11b;" horiz-adv-x="521" 
d="M151 13.5q-53 28.5 -84 85.5t-31 139q0 80 30 138t84 88.5t124 30.5q99 0 154 -61t55 -175v-43h-345q3 -62 39 -104t95 -42q51 0 81.5 27t42.5 62l81 -39q-21 -55 -73.5 -95t-133.5 -40q-66 0 -119 28.5zM380 290q-8 126 -115 126q-54 0 -85 -34.5t-38 -91.5h238z
M214 541l-107 145h99l62 -81l61 81h99l-106 -145h-108z" />
    <glyph glyph-name="Gcircumflex" unicode="&#x11c;" horiz-adv-x="753" 
d="M217 20.5q-74 36.5 -125.5 119.5t-51.5 215q0 129 49.5 213.5t126.5 123.5t162 39q115 0 186 -64t99 -148l-107 -36q-19 63 -66 108t-119 45q-54 0 -104.5 -27.5t-83.5 -90t-33 -159.5t33 -159.5t85 -91t111 -28.5q60 0 106.5 27t71.5 71.5t25 96.5v14h-213v87h316v-376
h-81l-6 156h-3q-4 -36 -34.5 -76.5t-82 -68t-116.5 -27.5q-71 0 -145 36.5zM209 754l106 145h109l104 -145h-98l-61 80l-61 -80h-99z" />
    <glyph glyph-name="gcircumflex" unicode="&#x11d;" horiz-adv-x="535" 
d="M91 -181q-60 34 -60 91q0 35 23 65.5t60 46.5v2q-32 12 -48.5 31.5t-16.5 42.5q0 30 25 52.5t62 29.5v3q-85 50 -85 134q0 49 27.5 90t75.5 64.5t107 23.5h53q36 0 52.5 11t21.5 34h-55l-61 80l-61 -80h-99l106 145h109l72 -100h94v-34q0 -41 -34 -62.5t-83 -21.5v-3
q38 -23 60.5 -60t22.5 -83q0 -50 -27 -88.5t-74.5 -59.5t-107.5 -21l-57 1q-22 0 -31 -11.5t-9 -23.5q0 -16 15 -24.5t38 -8.5h153q78 0 118.5 -34t40.5 -94q0 -79 -70.5 -125.5t-191.5 -46.5q-105 0 -165 34zM374 -122q47 19 47 67q0 29 -23.5 42.5t-78.5 13.5
q-42 0 -128 -3q-25 -1 -43 -21t-18 -46q0 -39 39 -55.5t96 -16.5q62 0 109 19zM333.5 251q27.5 26 27.5 69q0 45 -29 73t-77 28t-76.5 -27.5t-28.5 -71.5q0 -45 29.5 -71t77.5 -26q49 0 76.5 26z" />
    <glyph glyph-name="Gbreve" unicode="&#x11e;" horiz-adv-x="753" 
d="M217 20.5q-74 36.5 -125.5 119.5t-51.5 215q0 129 49.5 213.5t126.5 123.5t162 39q115 0 186 -64t99 -148l-107 -36q-19 63 -66 108t-119 45q-54 0 -104.5 -27.5t-83.5 -90t-33 -159.5t33 -159.5t85 -91t111 -28.5q60 0 106.5 27t71.5 71.5t25 96.5v14h-213v87h316v-376
h-81l-6 156h-3q-4 -36 -34.5 -76.5t-82 -68t-116.5 -27.5q-71 0 -145 36.5zM260 792q-44 42 -44 107h87q0 -34 19.5 -55.5t48.5 -21.5q30 0 48.5 22t18.5 55h86q0 -41 -19 -75t-54 -54t-80 -20q-67 0 -111 42z" />
    <glyph glyph-name="gbreve" unicode="&#x11f;" horiz-adv-x="535" 
d="M91 -181q-60 34 -60 91q0 35 23 65.5t60 46.5v2q-32 12 -48.5 31.5t-16.5 42.5q0 30 25 52.5t62 29.5v3q-85 50 -85 134q0 49 27.5 90t75.5 64.5t107 23.5h53q34 0 51 10.5t21.5 28.5t4.5 51h102v-34q0 -41 -34 -62.5t-83 -21.5v-3q38 -23 60.5 -60t22.5 -83
q0 -50 -27 -88.5t-74.5 -59.5t-107.5 -21l-57 1q-22 0 -31 -11.5t-9 -23.5q0 -16 15 -24.5t38 -8.5h153q78 0 118.5 -34t40.5 -94q0 -79 -70.5 -125.5t-191.5 -46.5q-105 0 -165 34zM374 -122q47 19 47 67q0 29 -23.5 42.5t-78.5 13.5q-42 0 -128 -3q-25 -1 -43 -21t-18 -46
q0 -39 39 -55.5t96 -16.5q62 0 109 19zM333.5 251q27.5 26 27.5 69q0 45 -29 73t-77 28t-76.5 -27.5t-28.5 -71.5q0 -45 29.5 -71t77.5 -26q49 0 76.5 26zM162 578q-44 42 -44 107h87q0 -34 19.5 -55.5t48.5 -21.5q30 0 48.5 22t18.5 55h86q0 -41 -19 -75t-54 -54t-80 -20
q-67 0 -111 42z" />
    <glyph glyph-name="Gdotaccent" unicode="&#x120;" horiz-adv-x="753" 
d="M217 20.5q-74 36.5 -125.5 119.5t-51.5 215q0 129 49.5 213.5t126.5 123.5t162 39q115 0 186 -64t99 -148l-107 -36q-19 63 -66 108t-119 45q-54 0 -104.5 -27.5t-83.5 -90t-33 -159.5t33 -159.5t85 -91t111 -28.5q60 0 106.5 27t71.5 71.5t25 96.5v14h-213v87h316v-376
h-81l-6 156h-3q-4 -36 -34.5 -76.5t-82 -68t-116.5 -27.5q-71 0 -145 36.5zM318.5 788q-20.5 18 -20.5 45t20 47t50 20q29 0 49.5 -18.5t20.5 -45.5t-20 -46.5t-50 -19.5q-29 0 -49.5 18z" />
    <glyph glyph-name="gdotaccent" unicode="&#x121;" horiz-adv-x="535" 
d="M91 -181q-60 34 -60 91q0 35 23 65.5t60 46.5v2q-32 12 -48.5 31.5t-16.5 42.5q0 30 25 52.5t62 29.5v3q-85 50 -85 134q0 49 27.5 90t75.5 64.5t107 23.5h53q34 0 51 10.5t21.5 28.5t4.5 51h102v-34q0 -41 -34 -62.5t-83 -21.5v-3q38 -23 60.5 -60t22.5 -83
q0 -50 -27 -88.5t-74.5 -59.5t-107.5 -21l-57 1q-22 0 -31 -11.5t-9 -23.5q0 -16 15 -24.5t38 -8.5h153q78 0 118.5 -34t40.5 -94q0 -79 -70.5 -125.5t-191.5 -46.5q-105 0 -165 34zM374 -122q47 19 47 67q0 29 -23.5 42.5t-78.5 13.5q-42 0 -128 -3q-25 -1 -43 -21t-18 -46
q0 -39 39 -55.5t96 -16.5q62 0 109 19zM333.5 251q27.5 26 27.5 69q0 45 -29 73t-77 28t-76.5 -27.5t-28.5 -71.5q0 -45 29.5 -71t77.5 -26q49 0 76.5 26zM220.5 574q-20.5 18 -20.5 45t20 47t50 20q29 0 49.5 -18.5t20.5 -45.5t-20 -46.5t-50 -19.5q-29 0 -49.5 18z" />
    <glyph glyph-name="uni0122" unicode="&#x122;" horiz-adv-x="753" 
d="M217 20.5q-74 36.5 -125.5 119.5t-51.5 215q0 129 49.5 213.5t126.5 123.5t162 39q115 0 186 -64t99 -148l-107 -36q-19 63 -66 108t-119 45q-54 0 -104.5 -27.5t-83.5 -90t-33 -159.5t33 -159.5t85 -91t111 -28.5q60 0 106.5 27t71.5 71.5t25 96.5v14h-213v87h316v-376
h-81l-6 156h-3q-4 -36 -34.5 -76.5t-82 -68t-116.5 -27.5q-71 0 -145 36.5zM297 -206l31 145h116l-65 -145h-82z" />
    <glyph glyph-name="uni0123" unicode="&#x123;" horiz-adv-x="535" 
d="M91 -181q-60 34 -60 91q0 35 23 65.5t60 46.5v2q-32 12 -48.5 31.5t-16.5 42.5q0 30 25 52.5t62 29.5v3q-85 50 -85 134q0 49 27.5 90t75.5 64.5t107 23.5h53q34 0 51 10.5t21.5 28.5t4.5 51h102v-34q0 -41 -34 -62.5t-83 -21.5v-3q38 -23 60.5 -60t22.5 -83
q0 -50 -27 -88.5t-74.5 -59.5t-107.5 -21l-57 1q-22 0 -31 -11.5t-9 -23.5q0 -16 15 -24.5t38 -8.5h153q78 0 118.5 -34t40.5 -94q0 -79 -70.5 -125.5t-191.5 -46.5q-105 0 -165 34zM374 -122q47 19 47 67q0 29 -23.5 42.5t-78.5 13.5q-42 0 -128 -3q-25 -1 -43 -21t-18 -46
q0 -39 39 -55.5t96 -16.5q62 0 109 19zM333.5 251q27.5 26 27.5 69q0 45 -29 73t-77 28t-76.5 -27.5t-28.5 -71.5q0 -45 29.5 -71t77.5 -26q49 0 76.5 26zM212 541l65 145h82l-31 -145h-116z" />
    <glyph glyph-name="Hcircumflex" unicode="&#x124;" horiz-adv-x="699" 
d="M68 0v715h105v-299h353v299h105v-715h-105v318h-353v-318h-105zM189 750l106 145h109l104 -145h-98l-61 80l-61 -80h-99z" />
    <glyph glyph-name="hcircumflex" unicode="&#x125;" horiz-adv-x="525" 
d="M59 715h101v-319h1q22 50 59.5 74t87.5 24q70 0 117 -40.5t47 -124.5v-329h-101v306q0 49 -22.5 75t-65.5 26q-54 0 -88.5 -40t-34.5 -121v-246h-101v715zM111 747l106 145h109l104 -145h-98l-61 80l-61 -80h-99z" />
    <glyph glyph-name="Hbar" unicode="&#x126;" horiz-adv-x="699" 
d="M68 0v517h-80v78h80v120h105v-120h353v120h105v-120h79v-78h-79v-517h-105v318h-353v-318h-105zM173 416h353v101h-353v-101z" />
    <glyph glyph-name="hbar" unicode="&#x127;" horiz-adv-x="525" 
d="M59 566h-61v78h61v71h101v-71h122v-78h-122v-170h1q22 50 59.5 74t87.5 24q70 0 117 -40.5t47 -124.5v-329h-101v306q0 49 -22.5 75t-65.5 26q-54 0 -88.5 -40t-34.5 -121v-246h-101v566z" />
    <glyph glyph-name="Itilde" unicode="&#x128;" horiz-adv-x="242" 
d="M68 0v715h105v-715h-105zM149 764.5q-18 8.5 -39 23.5q-17 11 -28 16.5t-23 5.5q-33 0 -52 -52l-58 30q35 100 104 100q21 0 37.5 -8t33.5 -21q19 -14 30 -20t23 -6q16 0 30 13t22 38l58 -23q-17 -53 -43 -79t-58 -26q-19 0 -37 8.5z" />
    <glyph glyph-name="itilde" unicode="&#x129;" horiz-adv-x="214" 
d="M59 0v479h101v-479h-101zM139 553.5q-18 8.5 -39 23.5q-17 11 -28 16.5t-23 5.5q-33 0 -52 -52l-58 30q35 100 104 100q21 0 37.5 -8t33.5 -21q19 -14 30 -20t23 -6q16 0 30 13t22 38l58 -23q-17 -53 -43 -79t-58 -26q-19 0 -37 8.5z" />
    <glyph glyph-name="Imacron" unicode="&#x12a;" horiz-adv-x="242" 
d="M68 0v715h105v-715h-105zM-24 774v85h287v-85h-287z" />
    <glyph glyph-name="imacron" unicode="&#x12b;" horiz-adv-x="214" 
d="M59 0v479h101v-479h-101zM-34 563v85h287v-85h-287z" />
    <glyph glyph-name="Ibreve" unicode="&#x12c;" horiz-adv-x="242" 
d="M68 0v715h105v-715h-105zM21 788q-39 42 -39 107h79q0 -34 17 -55.5t43 -21.5q27 0 44 22t17 55h77q0 -63 -38 -106t-100 -43q-61 0 -100 42z" />
    <glyph glyph-name="ibreve" unicode="&#x12d;" horiz-adv-x="214" 
d="M59 0v479h101v-479h-101zM11 577q-39 42 -39 107h78q0 -34 17 -55.5t44 -21.5t43.5 22t16.5 55h77q0 -63 -38 -106t-99 -43t-100 42z" />
    <glyph glyph-name="Iogonek" unicode="&#x12e;" horiz-adv-x="242" 
d="M52 -194q-29 26 -29 65q0 32 22 63t65 66h-42v715h105v-715q-69 -61 -69 -108q0 -17 11 -29t32 -12q17 0 30 6.5t30 19.5l8 -64q-13 -14 -37.5 -23.5t-51.5 -9.5q-45 0 -74 26z" />
    <glyph glyph-name="iogonek" unicode="&#x12f;" horiz-adv-x="214" 
d="M32 -194q-29 26 -29 65q0 32 22 63t65 66h-31v479h101v-479h-7q-69 -61 -69 -108q0 -17 11 -29t32 -12q17 0 30 6.5t30 19.5l8 -64q-13 -14 -37.5 -23.5t-51.5 -9.5q-45 0 -74 26zM60 575q-20 19 -20 47t20 47t50 19t49.5 -19t19.5 -47t-19.5 -47t-49.5 -19t-50 19z" />
    <glyph glyph-name="Idotaccent" unicode="&#x130;" horiz-adv-x="242" 
d="M68 0v715h105v-715h-105zM69.5 784q-20.5 18 -20.5 45t20 47t50 20q29 0 49.5 -18.5t20.5 -45.5t-20 -46.5t-50 -19.5q-29 0 -49.5 18z" />
    <glyph glyph-name="dotlessi" unicode="&#x131;" horiz-adv-x="214" 
d="M59 0v479h101v-479h-101z" />
    <glyph glyph-name="Jcircumflex" unicode="&#x134;" horiz-adv-x="583" 
d="M155 17.5q-54 33.5 -78.5 84t-28.5 105.5l107 16q4 -60 37 -101.5t105 -41.5q116 0 116 120v515h105v-504q0 -108 -58.5 -167.5t-165.5 -59.5q-85 0 -139 33.5zM298 752l106 145h109l104 -145h-98l-61 80l-61 -80h-99z" />
    <glyph glyph-name="jcircumflex" unicode="&#x135;" horiz-adv-x="239" 
d="M-26 -198l10 83q2 0 10.5 -1t24.5 -1q42 0 53.5 21t11.5 52v523h101v-517q0 -77 -41.5 -120.5t-115.5 -43.5q-31 0 -54 4zM-5 539l96 145h98l93 -145h-88l-55 80l-55 -80h-89z" />
    <glyph glyph-name="uni0136" unicode="&#x136;" horiz-adv-x="649" 
d="M68 0v715h105v-361l308 361h131l-290 -331l309 -384h-133l-247 307l-78 -86v-221h-105zM261 -206l31 145h116l-65 -145h-82z" />
    <glyph glyph-name="uni0137" unicode="&#x137;" horiz-adv-x="512" 
d="M59 0v715h101v-443l192 207h124l-192 -202l204 -277h-123l-150 208l-55 -56v-152h-101zM185 -206l31 145h116l-65 -145h-82z" />
    <glyph glyph-name="kgreenlandic" unicode="&#x138;" horiz-adv-x="507" 
d="M59 0v479h101v-207l188 207h124l-189 -202l201 -277h-122l-148 208l-54 -56v-152h-101z" />
    <glyph glyph-name="Lacute" unicode="&#x139;" horiz-adv-x="565" 
d="M68 0v715h105v-615h345v-100h-450zM70 751l84 144h129l-120 -144h-93z" />
    <glyph glyph-name="lacute" unicode="&#x13a;" horiz-adv-x="214" 
d="M59 0v715h101v-715h-101zM58 761l84 144h129l-120 -144h-93z" />
    <glyph glyph-name="uni013B" unicode="&#x13b;" horiz-adv-x="565" 
d="M68 0v715h105v-615h345v-100h-450zM209 -206l31 145h116l-65 -145h-82z" />
    <glyph glyph-name="uni013C" unicode="&#x13c;" horiz-adv-x="214" 
d="M59 0v715h101v-715h-101zM23 -206l31 145h116l-65 -145h-82z" />
    <glyph glyph-name="Lcaron" unicode="&#x13d;" horiz-adv-x="565" 
d="M68 0v715h105v-615h345v-100h-450zM283 540l37 175h107l-65 -175h-79z" />
    <glyph glyph-name="lcaron" unicode="&#x13e;" horiz-adv-x="214" 
d="M59 0v715h101v-715h-101zM212 540l37 175h107l-65 -175h-79z" />
    <glyph glyph-name="Ldot" unicode="&#x13f;" horiz-adv-x="565" 
d="M68 0v715h105v-615h345v-100h-450zM314 324q-21 21 -21 50t22 50t54 21t52.5 -21t20.5 -50q0 -30 -21.5 -50.5t-52.5 -20.5q-33 0 -54 21z" />
    <glyph glyph-name="ldot" unicode="&#x140;" horiz-adv-x="467" 
d="M59 0v715h101v-715h-101zM292 254q-21 21 -21 50t22 50t54 21t52.5 -21t20.5 -50q0 -30 -21.5 -50.5t-52.5 -20.5q-33 0 -54 21z" />
    <glyph glyph-name="Lslash" unicode="&#x141;" horiz-adv-x="565" 
d="M68 0v221l-49 -28l-35 86l84 48v388h105v-329l180 102l39 -85l-219 -123v-180h345v-100h-450z" />
    <glyph glyph-name="lslash" unicode="&#x142;" horiz-adv-x="336" 
d="M117 0v274l-93 -59v110l93 60v330h101v-265l94 60v-111l-94 -60v-339h-101z" />
    <glyph glyph-name="Nacute" unicode="&#x143;" horiz-adv-x="706" 
d="M68 0v715h115l350 -554h1v554h104v-715h-115l-350 556h-1v-556h-104zM314 751l84 144h129l-120 -144h-93z" />
    <glyph glyph-name="nacute" unicode="&#x144;" horiz-adv-x="525" 
d="M59 479h101v-73h1q19 44 59.5 66t90.5 22q68 0 114.5 -40.5t46.5 -120.5v-333h-101v312q0 44 -23 70t-65 26q-53 0 -88 -40t-35 -113v-255h-101v479zM225 540l84 144h129l-120 -144h-93z" />
    <glyph glyph-name="uni0145" unicode="&#x145;" horiz-adv-x="706" 
d="M68 0v715h115l350 -554h1v554h104v-715h-115l-350 556h-1v-556h-104zM280 -206l31 145h116l-65 -145h-82z" />
    <glyph glyph-name="uni0146" unicode="&#x146;" horiz-adv-x="525" 
d="M59 479h101v-73h1q19 44 59.5 66t90.5 22q68 0 114.5 -40.5t46.5 -120.5v-333h-101v312q0 44 -23 70t-65 26q-53 0 -88 -40t-35 -113v-255h-101v479zM178 -206l31 145h116l-65 -145h-82z" />
    <glyph glyph-name="Ncaron" unicode="&#x147;" horiz-adv-x="706" 
d="M68 0v715h115l350 -554h1v554h104v-715h-115l-350 556h-1v-556h-104zM313 750l-107 145h99l62 -81l61 81h99l-106 -145h-108z" />
    <glyph glyph-name="ncaron" unicode="&#x148;" horiz-adv-x="525" 
d="M59 479h101v-73h1q19 44 59.5 66t90.5 22q68 0 114.5 -40.5t46.5 -120.5v-333h-101v312q0 44 -23 70t-65 26q-53 0 -88 -40t-35 -113v-255h-101v479zM225 539l-107 145h99l62 -81l61 81h99l-106 -145h-108z" />
    <glyph glyph-name="Eng" unicode="&#x14a;" horiz-adv-x="706" 
d="M420.5 -181.5q-33.5 18.5 -50.5 41.5l60 58q9 -14 25.5 -26t37.5 -12q28 0 36 18.5t8 37.5v64h-14l-350 556h-1v-556h-104v715h115l350 -554h1v554h104v-715h-1v-52q0 -68 -35 -108t-101 -40q-47 0 -80.5 18.5z" />
    <glyph glyph-name="eng" unicode="&#x14b;" horiz-adv-x="525" 
d="M254.5 -181.5q-33.5 18.5 -50.5 41.5l60 58q9 -14 25.5 -26t37.5 -12q28 0 36 18.5t8 37.5v376q0 44 -23 70t-65 26q-53 0 -88 -40t-35 -113v-255h-101v479h101v-73h1q19 44 59.5 66t90.5 22q68 0 114.5 -40.5t46.5 -120.5v-333h-1v-52q0 -68 -35 -108t-101 -40
q-47 0 -80.5 18.5z" />
    <glyph glyph-name="Omacron" unicode="&#x14c;" horiz-adv-x="743" 
d="M213 24q-76 40 -124.5 124.5t-48.5 210.5t48.5 210t125 123t160.5 39q85 0 160 -39.5t122 -122.5t47 -208q0 -126 -47.5 -211t-123 -125.5t-159.5 -40.5t-160 40zM483.5 109.5q49.5 29.5 79.5 92.5t30 159q0 95 -30.5 156.5t-80 89.5t-108.5 28t-110 -28.5t-82.5 -90
t-31.5 -155.5q0 -95 32 -158.5t83.5 -93t110.5 -29.5q58 0 107.5 29.5zM212 779v85h319v-85h-319z" />
    <glyph glyph-name="omacron" unicode="&#x14d;" horiz-adv-x="542" 
d="M152.5 13.5q-53.5 28.5 -86 86t-32.5 139.5t32 140t86 87t117 29t117.5 -29t88 -87t33.5 -139q0 -80 -32.5 -138t-86.5 -87.5t-119 -29.5q-64 0 -117.5 28.5zM368 112.5q38 42.5 38 127.5q0 87 -39 128.5t-97 41.5t-96 -41.5t-38 -127.5t38.5 -128.5t97.5 -42.5
q58 0 96 42.5zM111 565v85h319v-85h-319z" />
    <glyph glyph-name="Obreve" unicode="&#x14e;" horiz-adv-x="743" 
d="M213 24q-76 40 -124.5 124.5t-48.5 210.5t48.5 210t125 123t160.5 39q85 0 160 -39.5t122 -122.5t47 -208q0 -126 -47.5 -211t-123 -125.5t-159.5 -40.5t-160 40zM483.5 109.5q49.5 29.5 79.5 92.5t30 159q0 95 -30.5 156.5t-80 89.5t-108.5 28t-110 -28.5t-82.5 -90
t-31.5 -155.5q0 -95 32 -158.5t83.5 -93t110.5 -29.5q58 0 107.5 29.5zM262 793q-44 42 -44 107h87q0 -34 19.5 -55.5t48.5 -21.5q30 0 48.5 22t18.5 55h86q0 -41 -19 -75t-54 -54t-80 -20q-67 0 -111 42z" />
    <glyph glyph-name="obreve" unicode="&#x14f;" horiz-adv-x="542" 
d="M152.5 13.5q-53.5 28.5 -86 86t-32.5 139.5t32 140t86 87t117 29t117.5 -29t88 -87t33.5 -139q0 -80 -32.5 -138t-86.5 -87.5t-119 -29.5q-64 0 -117.5 28.5zM368 112.5q38 42.5 38 127.5q0 87 -39 128.5t-97 41.5t-96 -41.5t-38 -127.5t38.5 -128.5t97.5 -42.5
q58 0 96 42.5zM162 579q-44 42 -44 107h87q0 -34 19.5 -55.5t48.5 -21.5q30 0 48.5 22t18.5 55h86q0 -41 -19 -75t-54 -54t-80 -20q-67 0 -111 42z" />
    <glyph glyph-name="Ohungarumlaut" unicode="&#x150;" horiz-adv-x="743" 
d="M213 24q-76 40 -124.5 124.5t-48.5 210.5t48.5 210t125 123t160.5 39q85 0 160 -39.5t122 -122.5t47 -208q0 -126 -47.5 -211t-123 -125.5t-159.5 -40.5t-160 40zM483.5 109.5q49.5 29.5 79.5 92.5t30 159q0 95 -30.5 156.5t-80 89.5t-108.5 28t-110 -28.5t-82.5 -90
t-31.5 -155.5q0 -95 32 -158.5t83.5 -93t110.5 -29.5q58 0 107.5 29.5zM224 756l83 144h122l-117 -144h-88zM404 756l83 144h124l-120 -144h-87z" />
    <glyph glyph-name="ohungarumlaut" unicode="&#x151;" horiz-adv-x="542" 
d="M152.5 13.5q-53.5 28.5 -86 86t-32.5 139.5t32 140t86 87t117 29t117.5 -29t88 -87t33.5 -139q0 -80 -32.5 -138t-86.5 -87.5t-119 -29.5q-64 0 -117.5 28.5zM368 112.5q38 42.5 38 127.5q0 87 -39 128.5t-97 41.5t-96 -41.5t-38 -127.5t38.5 -128.5t97.5 -42.5
q58 0 96 42.5zM124 542l83 144h122l-117 -144h-88zM304 542l83 144h124l-120 -144h-87z" />
    <glyph glyph-name="OE" unicode="&#x152;" horiz-adv-x="1122" 
d="M209 24.5q-74 40.5 -121.5 125t-47.5 210.5t47.5 209.5t122 122.5t156.5 39q73 0 132.5 -32t95.5 -97v113h474v-96h-369v-207h327v-93h-327v-223h368v-96h-473v117q-37 -67 -96.5 -100t-132.5 -33q-82 0 -156 40.5zM483.5 109.5q49.5 29.5 79.5 92.5t30 159
q0 95 -30.5 156.5t-80 89.5t-108.5 28t-110 -28.5t-82.5 -90t-31.5 -155.5q0 -95 32 -158.5t83.5 -93t110.5 -29.5q58 0 107.5 29.5z" />
    <glyph glyph-name="oe" unicode="&#x153;" horiz-adv-x="885" 
d="M152.5 13.5q-53.5 28.5 -86 86t-32.5 139.5t32 140t86 87t117 29q57 0 105 -24t79 -70q30 47 74 70.5t107 23.5q102 0 157.5 -60.5t55.5 -175.5v-42h-344q2 -63 38 -105t96 -42q48 0 79.5 26t44.5 63l80 -39q-21 -55 -73.5 -95t-133.5 -40q-60 0 -106.5 23t-75.5 69
q-30 -45 -77.5 -68.5t-104.5 -23.5q-64 0 -117.5 28.5zM368 112.5q38 42.5 38 127.5q0 87 -39 128.5t-97 41.5t-96 -41.5t-38 -127.5t38.5 -128.5t97.5 -42.5q58 0 96 42.5zM745 289q-8 127 -116 127q-54 0 -85 -34.5t-38 -92.5h239z" />
    <glyph glyph-name="Racute" unicode="&#x154;" horiz-adv-x="649" 
d="M68 715h281q113 0 174 -53t61 -149q0 -95 -54.5 -145.5t-130.5 -67.5l198 -298v-2h-125l-185 286h-114v-286h-105v715zM316 374q68 0 112 30t44 100q0 118 -133 118h-166v-248h143zM265 751l84 144h129l-120 -144h-93z" />
    <glyph glyph-name="racute" unicode="&#x155;" horiz-adv-x="361" 
d="M59 479h101v-73q40 88 116 88q34 0 62 -16l-18 -94q-27 14 -58 14q-48 0 -75 -41t-27 -120v-237h-101v479zM150 541l84 144h129l-120 -144h-93z" />
    <glyph glyph-name="uni0156" unicode="&#x156;" horiz-adv-x="649" 
d="M68 715h281q113 0 174 -53t61 -149q0 -95 -54.5 -145.5t-130.5 -67.5l198 -298v-2h-125l-185 286h-114v-286h-105v715zM247 -206l31 145h116l-65 -145h-82zM316 374q68 0 112 30t44 100q0 118 -133 118h-166v-248h143z" />
    <glyph glyph-name="uni0157" unicode="&#x157;" horiz-adv-x="361" 
d="M59 479h101v-73q40 88 116 88q34 0 62 -16l-18 -94q-27 14 -58 14q-48 0 -75 -41t-27 -120v-237h-101v479zM21 -206l31 145h116l-65 -145h-82z" />
    <glyph glyph-name="Rcaron" unicode="&#x158;" horiz-adv-x="649" 
d="M68 715h281q113 0 174 -53t61 -149q0 -95 -54.5 -145.5t-130.5 -67.5l198 -298v-2h-125l-185 286h-114v-286h-105v715zM316 374q68 0 112 30t44 100q0 118 -133 118h-166v-248h143zM265 750l-107 145h99l62 -81l61 81h99l-106 -145h-108z" />
    <glyph glyph-name="rcaron" unicode="&#x159;" horiz-adv-x="361" 
d="M59 479h101v-73q40 88 116 88q34 0 62 -16l-18 -94q-27 14 -58 14q-48 0 -75 -41t-27 -120v-237h-101v479zM150 540l-107 145h99l62 -81l61 81h99l-106 -145h-108z" />
    <glyph glyph-name="Sacute" unicode="&#x15a;" horiz-adv-x="612" 
d="M129.5 37q-66.5 53 -87.5 126l103 48q11 -52 52.5 -92.5t118.5 -40.5q64 0 103 28t39 79q0 37 -21.5 60.5t-53 36.5t-92.5 32q-72 22 -120 46t-79.5 65t-31.5 104q0 61 30 107t83.5 70.5t124.5 24.5t122.5 -24t81 -59.5t40.5 -73.5l-95 -47q-12 46 -49.5 78.5
t-100.5 32.5q-56 0 -91 -26t-35 -74q0 -34 19.5 -56t49 -35t83.5 -31q5 -1 10 -3t12 -4q72 -23 119.5 -49.5t76 -67.5t28.5 -101q0 -96 -70 -151.5t-186 -55.5q-117 0 -183.5 53zM248 756l84 144h129l-120 -144h-93z" />
    <glyph glyph-name="sacute" unicode="&#x15b;" horiz-adv-x="468" 
d="M86.5 27.5q-50.5 42.5 -59.5 98.5l90 26q8 -36 38 -61.5t84 -25.5q43 0 65.5 17.5t22.5 46.5q0 24 -14.5 38t-35.5 20.5t-63 16.5q-77 18 -124 49t-47 97q0 65 49.5 105t134.5 40q84 0 134 -36.5t69 -83.5l-85 -34q-13 29 -43.5 52t-77.5 23q-37 0 -57 -16t-20 -41
q0 -23 17.5 -37.5t39 -21t60.5 -15.5q72 -17 119 -48t47 -101q0 -66 -48.5 -108.5t-145.5 -42.5q-99 0 -149.5 42.5zM189 541l84 144h129l-120 -144h-93z" />
    <glyph glyph-name="Scircumflex" unicode="&#x15c;" horiz-adv-x="612" 
d="M129.5 37q-66.5 53 -87.5 126l103 48q11 -52 52.5 -92.5t118.5 -40.5q64 0 103 28t39 79q0 37 -21.5 60.5t-53 36.5t-92.5 32q-72 22 -120 46t-79.5 65t-31.5 104q0 61 30 107t83.5 70.5t124.5 24.5t122.5 -24t81 -59.5t40.5 -73.5l-95 -47q-12 46 -49.5 78.5
t-100.5 32.5q-56 0 -91 -26t-35 -74q0 -34 19.5 -56t49 -35t83.5 -31q5 -1 10 -3t12 -4q72 -23 119.5 -49.5t76 -67.5t28.5 -101q0 -96 -70 -151.5t-186 -55.5q-117 0 -183.5 53zM140 755l106 145h109l104 -145h-98l-61 80l-61 -80h-99z" />
    <glyph glyph-name="scircumflex" unicode="&#x15d;" horiz-adv-x="468" 
d="M86.5 27.5q-50.5 42.5 -59.5 98.5l90 26q8 -36 38 -61.5t84 -25.5q43 0 65.5 17.5t22.5 46.5q0 24 -14.5 38t-35.5 20.5t-63 16.5q-77 18 -124 49t-47 97q0 65 49.5 105t134.5 40q84 0 134 -36.5t69 -83.5l-85 -34q-13 29 -43.5 52t-77.5 23q-37 0 -57 -16t-20 -41
q0 -23 17.5 -37.5t39 -21t60.5 -15.5q72 -17 119 -48t47 -101q0 -66 -48.5 -108.5t-145.5 -42.5q-99 0 -149.5 42.5zM81 540l106 145h109l104 -145h-98l-61 80l-61 -80h-99z" />
    <glyph glyph-name="Scedilla" unicode="&#x15e;" horiz-adv-x="612" 
d="M230 -189.5q-29 24.5 -37 58.5l76 8q7 -28 37 -28q16 0 24.5 8.5t8.5 23.5q0 17 -9.5 26t-23.5 9q-18 0 -34 -13l-48 30l44 53q-98 11 -153.5 62.5t-72.5 114.5l103 48q11 -52 52.5 -92.5t118.5 -40.5q64 0 103 28t39 79q0 37 -21.5 60.5t-53 36.5t-92.5 32
q-72 22 -120 46t-79.5 65t-31.5 104q0 61 30 107t83.5 70.5t124.5 24.5t122.5 -24t81 -59.5t40.5 -73.5l-95 -47q-12 46 -49.5 78.5t-100.5 32.5q-56 0 -91 -26t-35 -74q0 -34 19.5 -56t49 -35t83.5 -31q5 -1 10 -3t12 -4q70 -23 117.5 -48.5t77 -67t29.5 -102.5
q0 -90 -62.5 -145t-168.5 -61l-26 -29q15 5 29 5q34 0 57 -21.5t23 -58.5q0 -43 -31 -69t-81 -26t-79 24.5z" />
    <glyph glyph-name="scedilla" unicode="&#x15f;" horiz-adv-x="468" 
d="M157 -194.5q-29 24.5 -37 58.5l76 8q7 -28 37 -28q16 0 24.5 8.5t8.5 23.5q0 17 -9.5 26t-23.5 9q-18 0 -34 -13l-48 30l49 59q-81 8 -123 48.5t-50 90.5l90 26q8 -36 38 -61.5t84 -25.5q43 0 65.5 17.5t22.5 46.5q0 24 -14.5 38t-35.5 20.5t-63 16.5q-77 18 -124 49
t-47 97q0 65 49.5 105t134.5 40q84 0 134 -36.5t69 -83.5l-85 -34q-13 29 -43.5 52t-77.5 23q-37 0 -57 -16t-20 -41q0 -23 17.5 -37.5t39 -21t60.5 -15.5q72 -17 119 -48t47 -101q0 -59 -40 -100t-119 -49l-32 -36q15 5 29 5q34 0 57 -21.5t23 -58.5q0 -43 -31 -69t-81 -26
t-79 24.5z" />
    <glyph glyph-name="Scaron" unicode="&#x160;" horiz-adv-x="612" 
d="M129.5 37q-66.5 53 -87.5 126l103 48q11 -52 52.5 -92.5t118.5 -40.5q64 0 103 28t39 79q0 37 -21.5 60.5t-53 36.5t-92.5 32q-72 22 -120 46t-79.5 65t-31.5 104q0 61 30 107t83.5 70.5t124.5 24.5t122.5 -24t81 -59.5t40.5 -73.5l-95 -47q-12 46 -49.5 78.5
t-100.5 32.5q-56 0 -91 -26t-35 -74q0 -34 19.5 -56t49 -35t83.5 -31q5 -1 10 -3t12 -4q72 -23 119.5 -49.5t76 -67.5t28.5 -101q0 -96 -70 -151.5t-186 -55.5q-117 0 -183.5 53zM248 755l-107 145h99l62 -81l61 81h99l-106 -145h-108z" />
    <glyph glyph-name="scaron" unicode="&#x161;" horiz-adv-x="468" 
d="M86.5 27.5q-50.5 42.5 -59.5 98.5l90 26q8 -36 38 -61.5t84 -25.5q43 0 65.5 17.5t22.5 46.5q0 24 -14.5 38t-35.5 20.5t-63 16.5q-77 18 -124 49t-47 97q0 65 49.5 105t134.5 40q84 0 134 -36.5t69 -83.5l-85 -34q-13 29 -43.5 52t-77.5 23q-37 0 -57 -16t-20 -41
q0 -23 17.5 -37.5t39 -21t60.5 -15.5q72 -17 119 -48t47 -101q0 -66 -48.5 -108.5t-145.5 -42.5q-99 0 -149.5 42.5zM189 540l-107 145h99l62 -81l61 81h99l-106 -145h-108z" />
    <glyph glyph-name="uni0162" unicode="&#x162;" horiz-adv-x="627" 
d="M230 -194.5q-29 24.5 -37 58.5l76 8q7 -28 37 -28q16 0 24.5 8.5t8.5 23.5q0 17 -9.5 26t-23.5 9q-18 0 -34 -13l-48 30l60 72h-23v618h-232v97h569v-97h-232v-618h-10l-44 -49q15 5 29 5q34 0 57 -21.5t23 -58.5q0 -43 -31 -69t-81 -26t-79 24.5z" />
    <glyph glyph-name="uni0163" unicode="&#x163;" horiz-adv-x="372" 
d="M135 -194.5q-29 24.5 -37 58.5l76 8q7 -28 37 -28q16 0 24.5 8.5t8.5 23.5q0 17 -9.5 26t-23.5 9q-18 0 -34 -13l-48 30l58 70q-33 13 -50 39.5t-17 60.5v299h-92v82h61q17 0 24 7.5t7 24.5v97l101 22v-151h115v-82h-115v-279q0 -46 48 -46q27 0 51 12l21 -77
q-43 -20 -91 -20h-1l-32 -36q15 5 29 5q34 0 57 -21.5t23 -58.5q0 -43 -31 -69t-81 -26t-79 24.5z" />
    <glyph glyph-name="Tcaron" unicode="&#x164;" horiz-adv-x="627" 
d="M261 0v618h-232v97h569v-97h-232v-618h-105zM261 750l-107 145h99l62 -81l61 81h99l-106 -145h-108z" />
    <glyph glyph-name="tcaron" unicode="&#x165;" horiz-adv-x="372" 
d="M153.5 18.5q-33.5 31.5 -33.5 79.5v299h-92v82h61q17 0 24 7.5t7 24.5v97l101 22v-151h115v-82h-115v-279q0 -46 48 -46q27 0 51 12l21 -77q-43 -20 -91 -20q-63 0 -96.5 31.5zM273 564l37 175h107l-65 -175h-79z" />
    <glyph glyph-name="Tbar" unicode="&#x166;" horiz-adv-x="627" 
d="M261 0v377h-120v80h120v161h-232v97h569v-97h-232v-161h116v-80h-116v-377h-105z" />
    <glyph glyph-name="tbar" unicode="&#x167;" horiz-adv-x="372" 
d="M153.5 18.5q-33.5 31.5 -33.5 79.5v187h-75v74h75v38h-92v82h61q17 0 24 7.5t7 24.5v97l101 22v-151h115v-82h-115v-38h87v-74h-87v-167q0 -46 48 -46q27 0 51 12l21 -77q-43 -20 -91 -20q-63 0 -96.5 31.5z" />
    <glyph glyph-name="Utilde" unicode="&#x168;" horiz-adv-x="685" 
d="M200.5 13.5q-61.5 29.5 -97 85t-35.5 128.5v488h105v-463q0 -88 47.5 -130.5t123.5 -42.5q75 0 121.5 42.5t46.5 130.5v463h105v-488q0 -73 -37 -128t-100.5 -85t-140.5 -30t-138.5 29.5zM380.5 763.5q-17.5 7.5 -30 15t-15.5 9.5q-18 11 -31 16.5t-26 5.5q-36 0 -58 -52
l-64 30q40 100 114 100q24 0 42 -7.5t39 -21.5q19 -13 32 -19.5t26 -6.5q19 0 34 13t24 38l65 -23q-19 -53 -48 -79t-65 -26q-21 0 -38.5 7.5z" />
    <glyph glyph-name="utilde" unicode="&#x169;" horiz-adv-x="525" 
d="M100 26q-47 40 -47 120v333h101v-313q0 -43 23.5 -68.5t65.5 -25.5q52 0 87 39.5t35 111.5v256h101v-479h-101v72h-1q-21 -43 -59.5 -64.5t-87.5 -21.5q-70 0 -117 40zM292.5 552.5q-17.5 7.5 -30 15t-15.5 9.5q-18 11 -31 16.5t-26 5.5q-36 0 -58 -52l-64 30
q40 100 114 100q24 0 42 -7.5t39 -21.5q19 -13 32 -19.5t26 -6.5q19 0 34 13t24 38l65 -23q-19 -53 -48 -79t-65 -26q-21 0 -38.5 7.5z" />
    <glyph glyph-name="Umacron" unicode="&#x16a;" horiz-adv-x="685" 
d="M200.5 13.5q-61.5 29.5 -97 85t-35.5 128.5v488h105v-463q0 -88 47.5 -130.5t123.5 -42.5q75 0 121.5 42.5t46.5 130.5v463h105v-488q0 -73 -37 -128t-100.5 -85t-140.5 -30t-138.5 29.5zM186 774v85h319v-85h-319z" />
    <glyph glyph-name="umacron" unicode="&#x16b;" horiz-adv-x="525" 
d="M100 26q-47 40 -47 120v333h101v-313q0 -43 23.5 -68.5t65.5 -25.5q52 0 87 39.5t35 111.5v256h101v-479h-101v72h-1q-21 -43 -59.5 -64.5t-87.5 -21.5q-70 0 -117 40zM98 563v85h319v-85h-319z" />
    <glyph glyph-name="Ubreve" unicode="&#x16c;" horiz-adv-x="685" 
d="M200.5 13.5q-61.5 29.5 -97 85t-35.5 128.5v488h105v-463q0 -88 47.5 -130.5t123.5 -42.5q75 0 121.5 42.5t46.5 130.5v463h105v-488q0 -73 -37 -128t-100.5 -85t-140.5 -30t-138.5 29.5zM237 788q-44 42 -44 107h87q0 -34 19.5 -55.5t48.5 -21.5q30 0 48.5 22t18.5 55
h86q0 -41 -19 -75t-54 -54t-80 -20q-67 0 -111 42z" />
    <glyph glyph-name="ubreve" unicode="&#x16d;" horiz-adv-x="525" 
d="M100 26q-47 40 -47 120v333h101v-313q0 -43 23.5 -68.5t65.5 -25.5q52 0 87 39.5t35 111.5v256h101v-479h-101v72h-1q-21 -43 -59.5 -64.5t-87.5 -21.5q-70 0 -117 40zM149 577q-44 42 -44 107h87q0 -34 19.5 -55.5t48.5 -21.5q30 0 48.5 22t18.5 55h86q0 -41 -19 -75
t-54 -54t-80 -20q-67 0 -111 42z" />
    <glyph glyph-name="Uring" unicode="&#x16e;" horiz-adv-x="685" 
d="M200.5 13.5q-61.5 29.5 -97 85t-35.5 128.5v488h105v-463q0 -88 47.5 -130.5t123.5 -42.5q75 0 121.5 42.5t46.5 130.5v463h105v-488q0 -73 -37 -128t-100.5 -85t-140.5 -30t-138.5 29.5zM264 766.5q-33 32.5 -33 81.5t33.5 81t83.5 32q48 0 81.5 -31.5t33.5 -80.5
q0 -50 -33 -82.5t-83 -32.5t-83 32.5zM386.5 807q16.5 16 16.5 42q0 25 -16.5 41t-38.5 16q-23 0 -40 -16t-17 -41q0 -26 17 -42t40 -16q22 0 38.5 16z" />
    <glyph glyph-name="uring" unicode="&#x16f;" horiz-adv-x="525" 
d="M100 26q-47 40 -47 120v333h101v-313q0 -43 23.5 -68.5t65.5 -25.5q52 0 87 39.5t35 111.5v256h101v-479h-101v72h-1q-21 -43 -59.5 -64.5t-87.5 -21.5q-70 0 -117 40zM176 555.5q-33 32.5 -33 81.5t33.5 81t83.5 32q48 0 81.5 -31.5t33.5 -80.5q0 -50 -33 -82.5
t-83 -32.5t-83 32.5zM298.5 596q16.5 16 16.5 42q0 25 -16.5 41t-38.5 16q-23 0 -40 -16t-17 -41q0 -26 17 -42t40 -16q22 0 38.5 16z" />
    <glyph glyph-name="Uhungarumlaut" unicode="&#x170;" horiz-adv-x="685" 
d="M200.5 13.5q-61.5 29.5 -97 85t-35.5 128.5v488h105v-463q0 -88 47.5 -130.5t123.5 -42.5q75 0 121.5 42.5t46.5 130.5v463h105v-488q0 -73 -37 -128t-100.5 -85t-140.5 -30t-138.5 29.5zM199 751l83 144h122l-117 -144h-88zM379 751l83 144h124l-120 -144h-87z" />
    <glyph glyph-name="uhungarumlaut" unicode="&#x171;" horiz-adv-x="525" 
d="M100 26q-47 40 -47 120v333h101v-313q0 -43 23.5 -68.5t65.5 -25.5q52 0 87 39.5t35 111.5v256h101v-479h-101v72h-1q-21 -43 -59.5 -64.5t-87.5 -21.5q-70 0 -117 40zM111 540l83 144h122l-117 -144h-88zM291 540l83 144h124l-120 -144h-87z" />
    <glyph glyph-name="Uogonek" unicode="&#x172;" horiz-adv-x="685" 
d="M318 -189q-29 26 -29 65q0 27 15.5 53.5t46.5 54.5h-12q-77 0 -138.5 29.5t-97 85t-35.5 128.5v488h105v-463q0 -88 47.5 -130.5t123.5 -42.5q75 0 121.5 42.5t46.5 130.5v463h105v-488q0 -87 -52 -148.5t-137 -83.5q-58 -55 -58 -98q0 -17 11 -29t32 -12q17 0 30 6.5
t30 19.5l8 -64q-13 -14 -37.5 -23.5t-51.5 -9.5q-45 0 -74 26z" />
    <glyph glyph-name="uogonek" unicode="&#x173;" horiz-adv-x="525" 
d="M321 -195q-26 25 -26 62t24.5 71t62.5 62h-17v72h-1q-21 -43 -59.5 -64.5t-87.5 -21.5q-70 0 -117 40t-47 120v333h101v-313q0 -43 23.5 -68.5t65.5 -25.5q52 0 87 39.5t35 111.5v256h101v-479q-87 -63 -87 -112q0 -17 10 -27t29 -10q28 0 61 24l9 -64q-16 -13 -43 -22
t-53 -9q-45 0 -71 25z" />
    <glyph glyph-name="Wcircumflex" unicode="&#x174;" horiz-adv-x="1015" 
d="M240 0l-216 715h109l162 -550h2l164 550h93l163 -548h2l163 548h108l-215 -715h-106l-160 553h-3l-161 -553h-105zM347 750l106 145h109l104 -145h-98l-61 80l-61 -80h-99z" />
    <glyph glyph-name="wcircumflex" unicode="&#x175;" horiz-adv-x="726" 
d="M173 0l-150 479h103l97 -338l100 338h81l98 -338l99 338h102l-150 -479h-90l-100 335l-99 -335h-91zM204 539l106 145h109l104 -145h-98l-61 80l-61 -80h-99z" />
    <glyph glyph-name="Ycircumflex" unicode="&#x176;" horiz-adv-x="657" 
d="M276 0v276l-262 439h120l198 -338l196 338h114l-262 -439v-276h-104zM172 750l106 145h109l104 -145h-98l-61 80l-61 -80h-99z" />
    <glyph glyph-name="ycircumflex" unicode="&#x177;" horiz-adv-x="505" 
d="M35 -192l7 85h64q77 0 94 107l-177 479h104l125 -369l127 369h103l-187 -497q-19 -50 -39.5 -85.5t-63 -63.5t-109.5 -28q-21 0 -48 3zM100 539l106 145h109l104 -145h-98l-61 80l-61 -80h-99z" />
    <glyph glyph-name="Ydieresis" unicode="&#x178;" horiz-adv-x="657" 
d="M276 0v276l-262 439h120l198 -338l196 338h114l-262 -439v-276h-104zM182 785q-21 19 -21 45t21 46t50 20q28 0 49 -19.5t21 -46.5q0 -26 -20.5 -45t-50.5 -19q-28 0 -49 19zM381 784.5q-20 18.5 -20 45.5t20 46.5t48 19.5q30 0 51 -19t21 -46t-21 -46t-51 -19
q-28 0 -48 18.5z" />
    <glyph glyph-name="Zacute" unicode="&#x179;" horiz-adv-x="619" 
d="M49 0v86l381 533h-369v96h495v-86l-385 -533h399v-96h-521zM257 751l84 144h129l-120 -144h-93z" />
    <glyph glyph-name="zacute" unicode="&#x17a;" horiz-adv-x="487" 
d="M51 0v80l262 312h-253v87h373v-80l-260 -311h272v-88h-394zM197 540l84 144h129l-120 -144h-93z" />
    <glyph glyph-name="Zdotaccent" unicode="&#x17b;" horiz-adv-x="619" 
d="M49 0v86l381 533h-369v96h495v-86l-385 -533h399v-96h-521zM257.5 784q-20.5 18 -20.5 45t20 47t50 20q29 0 49.5 -18.5t20.5 -45.5t-20 -46.5t-50 -19.5q-29 0 -49.5 18z" />
    <glyph glyph-name="zdotaccent" unicode="&#x17c;" horiz-adv-x="487" 
d="M51 0v80l262 312h-253v87h373v-80l-260 -311h272v-88h-394zM199 575q-20 19 -20 47t20 47t50 19t49.5 -19t19.5 -47t-19.5 -47t-49.5 -19t-50 19z" />
    <glyph glyph-name="Zcaron" unicode="&#x17d;" horiz-adv-x="619" 
d="M49 0v86l381 533h-369v96h495v-86l-385 -533h399v-96h-521zM256 750l-107 145h99l62 -81l61 81h99l-106 -145h-108z" />
    <glyph glyph-name="zcaron" unicode="&#x17e;" horiz-adv-x="487" 
d="M51 0v80l262 312h-253v87h373v-80l-260 -311h272v-88h-394zM196 539l-107 145h99l62 -81l61 81h99l-106 -145h-108z" />
    <glyph glyph-name="florin" unicode="&#x192;" horiz-adv-x="482" 
d="M-56 -196l34 82q10 -4 25.5 -6.5t28.5 -2.5q55 0 67 59l98 461h-96l17 82h96l20 94q15 70 58 113t117 43q47 0 84 -15l-35 -83q-28 10 -56 10q-32 0 -45.5 -16.5t-19.5 -43.5l-23 -102h118l-17 -82h-117l-96 -452q-15 -70 -58 -113t-117 -43q-48 0 -83 15z" />
    <glyph glyph-name="Aringacute" unicode="&#x1fa;" horiz-adv-x="699" 
d="M24 0l258 715h134l259 -715h-111l-66 185h-299l-66 -185h-109zM233 282h230l-115 321h-1zM268 766.5q-33 32.5 -33 81.5t33.5 81t83.5 32q48 0 81.5 -31.5t33.5 -80.5q0 -50 -33 -82.5t-83 -32.5t-83 32.5zM390.5 807q16.5 16 16.5 42q0 25 -16.5 41t-38.5 16
q-23 0 -40 -16t-17 -41q0 -26 17 -42t40 -16q22 0 38.5 16zM300 979l84 144h129l-120 -144h-93z" />
    <glyph glyph-name="aringacute" unicode="&#x1fb;" horiz-adv-x="544" 
d="M94.5 23q-45.5 37 -45.5 102q0 59 38.5 94t90 50.5t121.5 25.5q38 6 51 9t20.5 10t7.5 23q0 33 -27 54.5t-72 21.5q-51 0 -81.5 -24.5t-42.5 -58.5l-82 45q18 47 69.5 83.5t138.5 36.5q88 0 142.5 -44.5t51.5 -135.5l-6 -203q-2 -48 42 -44v-78q-21 -3 -24 -3
q-43 0 -65.5 11t-32 34.5t-11.5 67.5h-2q-16 -52 -57.5 -83t-107.5 -31q-71 0 -116.5 37zM305 88.5q34 21.5 52.5 54.5t19.5 66l1 45q-15 -19 -60 -27q-68 -14 -100 -23t-50 -26t-18 -47q0 -64 76 -64q45 0 79 21.5zM189 559.5q-33 32.5 -33 81.5t33.5 81t83.5 32
q48 0 81.5 -31.5t33.5 -80.5q0 -50 -33 -82.5t-83 -32.5t-83 32.5zM311.5 600q16.5 16 16.5 42q0 25 -16.5 41t-38.5 16q-23 0 -40 -16t-17 -41q0 -26 17 -42t40 -16q22 0 38.5 16zM221 772l84 144h129l-120 -144h-93z" />
    <glyph glyph-name="AEacute" unicode="&#x1fc;" horiz-adv-x="969" 
d="M22 0l346 715h550v-96h-350v-207h308v-93h-308v-223h349v-96h-454v200h-233l-96 -200h-112zM278 298h185v318h-32zM567 751l84 144h129l-120 -144h-93z" />
    <glyph glyph-name="aeacute" unicode="&#x1fd;" horiz-adv-x="855" 
d="M90 22q-44 36 -44 102q0 54 29.5 86.5t76 49.5t114.5 29q41 7 73 13q18 4 27 11t9 25q0 30 -25.5 52.5t-73.5 22.5q-51 0 -82.5 -24.5t-42.5 -59.5l-82 46q19 49 71 84.5t139 35.5q61 0 99 -20t60 -58q36 40 74.5 59t93.5 19q100 0 156 -60t56 -180v-38h-344
q2 -68 40 -107.5t95 -39.5q49 0 80 27t43 62l80 -39q-20 -53 -72 -93.5t-135 -40.5q-71 0 -123.5 33t-77.5 96q-32 -63 -78 -96t-118 -33q-74 0 -118 36zM300.5 88q34.5 21 53.5 54t19 65v47q-10 -12 -31.5 -19t-63.5 -15q-72 -14 -101.5 -32t-29.5 -56q0 -65 76 -65
q43 0 77.5 21zM716 289q-8 127 -112 127q-52 0 -86.5 -32t-39.5 -95h238zM381 542l84 144h129l-120 -144h-93z" />
    <glyph glyph-name="Oslashacute" unicode="&#x1fe;" horiz-adv-x="742" 
d="M260.5 3q-55.5 19 -100.5 57l-65 -75l-54 48l70 80q-71 97 -71 247q0 125 48.5 208.5t125 122.5t160.5 39q58 0 112 -18.5t98 -55.5l63 72l53 -47l-67 -78q69 -95 69 -243q0 -125 -47.5 -210t-122.5 -125.5t-158 -40.5q-58 0 -113.5 19zM483 109.5q49 29.5 79 92
t30 158.5q0 94 -32 160l-332 -382q30 -29 68 -43.5t79 -14.5q59 0 108 29.5zM517 579q-57 56 -143 56q-60 0 -110.5 -28.5t-82 -90t-31.5 -156.5t34 -163zM320 755l84 144h129l-120 -144h-93z" />
    <glyph glyph-name="oslashacute" unicode="&#x1ff;" horiz-adv-x="579" 
d="M48 20l48 56q-59 70 -59 178q0 86 35.5 146.5t94 91t124.5 30.5q39 0 76.5 -11.5t69.5 -33.5l45 52l50 -42l-47 -55q58 -71 58 -179q0 -85 -35.5 -145t-93.5 -90t-123 -30q-83 0 -148 45l-46 -53zM395 124q41 45 41 130q0 58 -20 98l-210 -245q37 -28 87 -28q61 0 102 45
zM375 403q-36 27 -83 27q-39 0 -73 -19.5t-54.5 -59t-20.5 -96.5q0 -56 21 -98zM239 569l84 144h129l-120 -144h-93z" />
    <glyph glyph-name="uni0218" unicode="&#x218;" horiz-adv-x="612" 
d="M129.5 37q-66.5 53 -87.5 126l103 48q11 -52 52.5 -92.5t118.5 -40.5q64 0 103 28t39 79q0 37 -21.5 60.5t-53 36.5t-92.5 32q-72 22 -120 46t-79.5 65t-31.5 104q0 61 30 107t83.5 70.5t124.5 24.5t122.5 -24t81 -59.5t40.5 -73.5l-95 -47q-12 46 -49.5 78.5
t-100.5 32.5q-56 0 -91 -26t-35 -74q0 -34 19.5 -56t49 -35t83.5 -31q5 -1 10 -3t12 -4q72 -23 119.5 -49.5t76 -67.5t28.5 -101q0 -96 -70 -151.5t-186 -55.5q-117 0 -183.5 53zM228 -201l31 145h116l-65 -145h-82z" />
    <glyph glyph-name="uni0219" unicode="&#x219;" horiz-adv-x="468" 
d="M86.5 27.5q-50.5 42.5 -59.5 98.5l90 26q8 -36 38 -61.5t84 -25.5q43 0 65.5 17.5t22.5 46.5q0 24 -14.5 38t-35.5 20.5t-63 16.5q-77 18 -124 49t-47 97q0 65 49.5 105t134.5 40q84 0 134 -36.5t69 -83.5l-85 -34q-13 29 -43.5 52t-77.5 23q-37 0 -57 -16t-20 -41
q0 -23 17.5 -37.5t39 -21t60.5 -15.5q72 -17 119 -48t47 -101q0 -66 -48.5 -108.5t-145.5 -42.5q-99 0 -149.5 42.5zM154 -206l31 145h116l-65 -145h-82z" />
    <glyph glyph-name="uni021A" unicode="&#x21a;" horiz-adv-x="627" 
d="M261 0v618h-232v97h569v-97h-232v-618h-105zM227 -206l31 145h116l-65 -145h-82z" />
    <glyph glyph-name="uni021B" unicode="&#x21b;" horiz-adv-x="372" 
d="M153.5 18.5q-33.5 31.5 -33.5 79.5v299h-92v82h61q17 0 24 7.5t7 24.5v97l101 22v-151h115v-82h-115v-279q0 -46 48 -46q27 0 51 12l21 -77q-43 -20 -91 -20q-63 0 -96.5 31.5zM133 -206l31 145h116l-65 -145h-82z" />
    <glyph glyph-name="uni0237" unicode="&#x237;" horiz-adv-x="239" 
d="M-26 -198l10 83q2 0 10.5 -1t24.5 -1q42 0 53.5 21t11.5 52v523h101v-517q0 -77 -41.5 -120.5t-115.5 -43.5q-31 0 -54 4z" />
    <glyph glyph-name="circumflex" unicode="&#x2c6;" horiz-adv-x="480" 
d="M80 580l106 145h109l104 -145h-98l-61 80l-61 -80h-99z" />
    <glyph glyph-name="caron" unicode="&#x2c7;" horiz-adv-x="481" 
d="M187 580l-107 145h99l62 -81l61 81h99l-106 -145h-108z" />
    <glyph glyph-name="breve" unicode="&#x2d8;" horiz-adv-x="469" 
d="M124 618q-44 42 -44 107h87q0 -34 19.5 -55.5t48.5 -21.5q30 0 48.5 22t18.5 55h86q0 -41 -19 -75t-54 -54t-80 -20q-67 0 -111 42z" />
    <glyph glyph-name="dotaccent" unicode="&#x2d9;" horiz-adv-x="299" 
d="M100 616q-20 19 -20 47t20 47t50 19t49.5 -19t19.5 -47t-19.5 -47t-49.5 -19t-50 19z" />
    <glyph glyph-name="ring" unicode="&#x2da;" horiz-adv-x="392" 
d="M113 596.5q-33 32.5 -33 81.5t33.5 81t83.5 32q48 0 81.5 -31.5t33.5 -80.5q0 -50 -33 -82.5t-83 -32.5t-83 32.5zM235.5 637q16.5 16 16.5 42q0 25 -16.5 41t-38.5 16q-23 0 -40 -16t-17 -41q0 -26 17 -42t40 -16q22 0 38.5 16z" />
    <glyph glyph-name="ogonek" unicode="&#x2db;" horiz-adv-x="352" 
d="M109 -194q-29 26 -29 65q0 32 22 63t65 66h63q-69 -61 -69 -108q0 -17 11 -29t32 -12q17 0 30 6.5t30 19.5l8 -64q-13 -14 -37.5 -23.5t-51.5 -9.5q-45 0 -74 26z" />
    <glyph glyph-name="tilde" unicode="&#x2dc;" horiz-adv-x="536" 
d="M304.5 593.5q-17.5 7.5 -30 15t-15.5 9.5q-18 11 -31 16.5t-26 5.5q-36 0 -58 -52l-64 30q40 100 114 100q24 0 42 -7.5t39 -21.5q19 -13 32 -19.5t26 -6.5q19 0 34 13t24 38l65 -23q-19 -53 -48 -79t-65 -26q-21 0 -38.5 7.5z" />
    <glyph glyph-name="hungarumlaut" unicode="&#x2dd;" horiz-adv-x="547" 
d="M260 581l83 144h124l-120 -144h-87zM80 581l83 144h122l-117 -144h-88z" />
    <glyph glyph-name="uni03A9" unicode="&#x3a9;" horiz-adv-x="812" 
d="M71 85h146v3q-52 36 -100.5 110.5t-48.5 182.5q0 97 45 176t122.5 123.5t171.5 44.5q93 0 170 -44.5t121.5 -122.5t44.5 -176q0 -109 -48.5 -182.5t-103.5 -111.5v-3h149v-85h-286v81q182 106 182 298q0 79 -29.5 138t-82 90.5t-118.5 31.5q-67 0 -119.5 -32t-81.5 -91
t-29 -135q0 -110 55 -185.5t126 -112.5v-83h-286v85z" />
    <glyph glyph-name="pi" unicode="&#x3c0;" horiz-adv-x="697" 
d="M170 0v389h-102v90h561v-90h-105v-389h-89v389h-174v-389h-91z" />
    <glyph glyph-name="Wgrave" unicode="&#x1e80;" horiz-adv-x="1015" 
d="M240 0l-216 715h109l162 -550h2l164 550h93l163 -548h2l163 548h108l-215 -715h-106l-160 553h-3l-161 -553h-105zM478 751l-119 144h129l84 -144h-94z" />
    <glyph glyph-name="wgrave" unicode="&#x1e81;" horiz-adv-x="726" 
d="M173 0l-150 479h103l97 -338l100 338h81l98 -338l99 338h102l-150 -479h-90l-100 335l-99 -335h-91zM335 540l-119 144h129l84 -144h-94z" />
    <glyph glyph-name="Wacute" unicode="&#x1e82;" horiz-adv-x="1015" 
d="M240 0l-216 715h109l162 -550h2l164 550h93l163 -548h2l163 548h108l-215 -715h-106l-160 553h-3l-161 -553h-105zM455 751l84 144h129l-120 -144h-93z" />
    <glyph glyph-name="wacute" unicode="&#x1e83;" horiz-adv-x="726" 
d="M173 0l-150 479h103l97 -338l100 338h81l98 -338l99 338h102l-150 -479h-90l-100 335l-99 -335h-91zM313 540l84 144h129l-120 -144h-93z" />
    <glyph glyph-name="Wdieresis" unicode="&#x1e84;" horiz-adv-x="1015" 
d="M240 0l-216 715h109l162 -550h2l164 550h93l163 -548h2l163 548h108l-215 -715h-106l-160 553h-3l-161 -553h-105zM358 785q-21 19 -21 45t21 46t50 20q28 0 49 -19.5t21 -46.5q0 -26 -20.5 -45t-50.5 -19q-28 0 -49 19zM557 784.5q-20 18.5 -20 45.5t20 46.5t48 19.5
q30 0 51 -19t21 -46t-21 -46t-51 -19q-28 0 -48 18.5z" />
    <glyph glyph-name="wdieresis" unicode="&#x1e85;" horiz-adv-x="726" 
d="M173 0l-150 479h103l97 -338l100 338h81l98 -338l99 338h102l-150 -479h-90l-100 335l-99 -335h-91zM215 574q-21 19 -21 45t21 46t50 20q28 0 49 -19.5t21 -46.5q0 -26 -20.5 -45t-50.5 -19q-28 0 -49 19zM414 573.5q-20 18.5 -20 45.5t20 46.5t48 19.5q30 0 51 -19
t21 -46t-21 -46t-51 -19q-28 0 -48 18.5z" />
    <glyph glyph-name="uni1E8A" unicode="&#x1e8a;" horiz-adv-x="698" 
d="M29 0l254 359l-245 356h123l192 -281l186 281h124l-249 -356l255 -359h-126l-197 282l-194 -282h-123zM303.5 784q-20.5 18 -20.5 45t20 47t50 20q29 0 49.5 -18.5t20.5 -45.5t-20 -46.5t-50 -19.5q-29 0 -49.5 18z" />
    <glyph glyph-name="uni1E8B" unicode="&#x1e8b;" horiz-adv-x="530" 
d="M25 0l178 244l-170 235h121l111 -162h2l111 162h117l-167 -232l177 -247h-120l-119 175h-2l-123 -175h-116zM217 575q-20 19 -20 47t20 47t50 19t49.5 -19t19.5 -47t-19.5 -47t-49.5 -19t-50 19z" />
    <glyph glyph-name="Ygrave" unicode="&#x1ef2;" horiz-adv-x="657" 
d="M276 0v276l-262 439h120l198 -338l196 338h114l-262 -439v-276h-104zM302 751l-119 144h129l84 -144h-94z" />
    <glyph glyph-name="ygrave" unicode="&#x1ef3;" horiz-adv-x="505" 
d="M35 -192l7 85h64q77 0 94 107l-177 479h104l125 -369l127 369h103l-187 -497q-19 -50 -39.5 -85.5t-63 -63.5t-109.5 -28q-21 0 -48 3zM230 540l-119 144h129l84 -144h-94z" />
    <glyph glyph-name="endash" unicode="&#x2013;" horiz-adv-x="690" 
d="M68 216v97h554v-97h-554z" />
    <glyph glyph-name="emdash" unicode="&#x2014;" horiz-adv-x="989" 
d="M68 215v99h853v-99h-853z" />
    <glyph glyph-name="quoteleft" unicode="&#x2018;" horiz-adv-x="237" 
d="M69.5 518.5q-15.5 23.5 -15.5 64.5q0 56 27 97.5t80 41.5l15 -1l-2 -54q-25 0 -37.5 -10.5t-15.5 -34.5q27 -4 44.5 -21.5t17.5 -39.5q0 -27 -18.5 -46.5t-47.5 -19.5q-32 0 -47.5 23.5z" />
    <glyph glyph-name="quoteright" unicode="&#x2019;" horiz-adv-x="237" 
d="M61 496l1 54q26 0 38.5 10.5t15.5 34.5q-28 3 -45 20.5t-17 40.5q0 27 18.5 46.5t47.5 19.5q32 0 47.5 -24t15.5 -65q0 -59 -29 -99t-72 -40q-13 0 -21 2z" />
    <glyph glyph-name="quotesinglbase" unicode="&#x201a;" horiz-adv-x="255" 
d="M67 -105l3 61q27 0 40.5 11t16.5 35q-30 4 -49 23.5t-19 44.5q0 30 20 51t53 21q35 0 52.5 -26t17.5 -72q0 -66 -31.5 -108t-88.5 -42z" />
    <glyph glyph-name="quotedblleft" unicode="&#x201c;" horiz-adv-x="400" 
d="M69.5 518.5q-15.5 23.5 -15.5 64.5q0 56 27 97.5t80 41.5l15 -1l-2 -54q-25 0 -37.5 -10.5t-15.5 -34.5q27 -4 44.5 -21.5t17.5 -39.5q0 -27 -18.5 -46.5t-47.5 -19.5q-32 0 -47.5 23.5zM233.5 519q-15.5 24 -15.5 64q0 55 27 97t81 42l13 -1l-1 -54q-25 0 -37.5 -10.5
t-15.5 -34.5q27 -4 44 -21.5t17 -39.5q0 -27 -18.5 -46.5t-46.5 -19.5q-32 0 -47.5 24z" />
    <glyph glyph-name="quotedblright" unicode="&#x201d;" horiz-adv-x="400" 
d="M61 496l1 54q26 0 38.5 10.5t15.5 34.5q-28 3 -45 20.5t-17 40.5q0 27 18.5 46.5t47.5 19.5q32 0 47.5 -24t15.5 -65q0 -59 -29 -99t-72 -40q-13 0 -21 2zM225 496l1 54q26 0 38.5 10.5t15.5 34.5q-28 3 -45 20.5t-17 40.5q0 27 18.5 46.5t47.5 19.5q32 0 47.5 -24
t15.5 -65q0 -59 -29 -99t-72 -40q-13 0 -21 2z" />
    <glyph glyph-name="quotedblbase" unicode="&#x201e;" horiz-adv-x="436" 
d="M248 -105l3 61q27 0 40.5 11t16.5 35q-30 4 -49 23.5t-19 44.5q0 30 20 51t53 21q35 0 52.5 -26t17.5 -72q0 -66 -31.5 -108t-88.5 -42zM67 -105l3 61q27 0 40.5 11t16.5 35q-30 4 -49 23.5t-19 44.5q0 30 20 51t53 21q35 0 52.5 -26t17.5 -72q0 -66 -31.5 -108
t-88.5 -42z" />
    <glyph glyph-name="dagger" unicode="&#x2020;" horiz-adv-x="528" 
d="M227 146v350h-159v81h159v148h76v-148h157v-81h-157v-350h-76z" />
    <glyph glyph-name="daggerdbl" unicode="&#x2021;" horiz-adv-x="528" 
d="M227 146v163h-159v82h159v105h-159v81h159v148h76v-148h157v-81h-157v-105h157v-82h-157v-163h-76z" />
    <glyph glyph-name="bullet" unicode="&#x2022;" horiz-adv-x="376" 
d="M102.5 222q-33.5 34 -33.5 81q0 46 34.5 79t85.5 33q52 0 85.5 -33.5t33.5 -79.5q0 -47 -34 -80.5t-86 -33.5t-85.5 34z" />
    <glyph glyph-name="ellipsis" unicode="&#x2026;" horiz-adv-x="842" 
d="M369 10q-21 22 -21 55t21 55t56 22q34 0 54.5 -22t20.5 -55q0 -32 -20.5 -54.5t-54.5 -22.5q-35 0 -56 22zM650 10q-21 22 -21 55t21 55t56 22q34 0 54.5 -22t20.5 -55q0 -32 -20.5 -54.5t-54.5 -22.5q-35 0 -56 22zM88 10q-21 22 -21 55t21 55t56 22q34 0 54.5 -22
t20.5 -55q0 -32 -20.5 -54.5t-54.5 -22.5q-35 0 -56 22z" />
    <glyph glyph-name="perthousand" unicode="&#x2030;" horiz-adv-x="1245" 
d="M303 -19l-75 44l431 713l75 -44zM162 370.5q-44 25.5 -69 69.5t-25 96t25.5 95t69 68t97.5 25t97 -25.5t67.5 -69t24.5 -93.5q0 -51 -24.5 -95t-67.5 -70t-97 -26t-98 25.5zM327.5 462q26.5 30 26.5 72q0 43 -27 72.5t-67 29.5t-67.5 -28.5t-27.5 -72.5t27 -73.5
t68 -29.5t67.5 30zM771 102.5q27 29.5 27 72.5t-27 72.5t-67 29.5q-41 0 -68.5 -29t-27.5 -73t27.5 -73t68.5 -29q40 0 67 29.5zM605.5 11.5q-43.5 25.5 -68.5 69t-25 95.5q0 51 25 94.5t68 69t96 25.5q48 0 84.5 -21t59.5 -56q24 36 60.5 56.5t84.5 20.5q53 0 96 -25.5
t67 -69t24 -94.5q0 -50 -24 -94t-66.5 -70t-95.5 -26q-49 0 -86 20.5t-60 56.5q-23 -36 -59 -56.5t-84 -20.5q-53 0 -96.5 25.5zM1055 102.5q27 29.5 27 72.5t-27 72.5t-67 29.5q-41 0 -68.5 -29t-27.5 -73t27.5 -73t68.5 -29q40 0 67 29.5z" />
    <glyph glyph-name="guilsinglleft" unicode="&#x2039;" horiz-adv-x="346" 
d="M186 55l-127 197v9l127 191h101l-125 -195l125 -202h-101z" />
    <glyph glyph-name="guilsinglright" unicode="&#x203a;" horiz-adv-x="346" 
d="M58 55l125 202l-125 195h102l126 -191v-9l-126 -197h-102z" />
    <glyph glyph-name="fraction" unicode="&#x2044;" horiz-adv-x="210" 
d="M-85 -20l-56 34l436 724l56 -33z" />
    <glyph glyph-name="Euro" unicode="&#x20ac;" horiz-adv-x="792" 
d="M297 53.5q-79 65.5 -106 188.5h-142v81h132q-1 11 -1 33q0 24 1 35h-104v81h115q18 81 60.5 136.5t100.5 83.5t123 28q110 0 175.5 -67.5t88.5 -161.5l-99 -33q-16 73 -57 122.5t-112 49.5q-62 0 -110 -41t-68 -117h288l-20 -81h-281q-1 -11 -1 -35q0 -22 1 -33h265
l-21 -81h-232q21 -80 71 -122.5t115 -42.5q73 0 111.5 46t47.5 109l99 -19q-17 -91 -80 -158t-177 -67q-104 0 -183 65.5z" />
    <glyph glyph-name="uni2113" unicode="&#x2113;" horiz-adv-x="553" 
d="M215 23q-46 40 -46 106v45q-32 -13 -77 -26l-24 74q23 5 52 15.5t49 20.5v273q0 84 35.5 134t117.5 50t122.5 -50t40.5 -124q0 -98 -65.5 -189.5t-165.5 -144.5v-45q0 -31 15.5 -64t70.5 -33q31 0 56 12.5t37 26.5l23 -74q-22 -23 -54.5 -35t-70.5 -12q-70 0 -116 40z
M329 360.5q34 39.5 53 85t19 85.5t-18 70t-58 30q-71 0 -71 -108v-225q41 23 75 62.5z" />
    <glyph glyph-name="uni2116" unicode="&#x2116;" horiz-adv-x="1129" 
d="M68 0v715h115l350 -554h1v554h104v-715h-115l-350 556h-1v-556h-104zM757 190v96h290v-96h-290zM791 436q-45 43 -45 122q0 55 21.5 93t57.5 57.5t78 19.5q41 0 77.5 -19t58.5 -56.5t22 -91.5q0 -53 -21.5 -91t-58 -57.5t-79.5 -19.5q-66 0 -111 43zM953 496q20 23 20 64
q0 42 -20.5 64.5t-49.5 22.5t-49 -22.5t-20 -64.5q0 -40 20 -63.5t50 -23.5q29 0 49 23z" />
    <glyph glyph-name="trademark" unicode="&#x2122;" horiz-adv-x="976" 
d="M465 271v443h80l144 -219l139 219h80v-443h-71v333h-2l-140 -215h-19l-139 215h-1v-333h-71zM210 271v378h-142v65h355v-65h-142v-378h-71z" />
    <glyph glyph-name="estimated" unicode="&#x212e;" horiz-adv-x="849" 
d="M240 39q-85 50 -128.5 134t-43.5 185q0 105 46 188.5t128 131t187 47.5q102 0 182 -44.5t125 -124.5t45 -181v-14h-587v-233q94 -103 247 -103q95 0 160 37.5t102 101.5l42 -6q-49 -84 -123.5 -126.5t-179.5 -42.5q-117 0 -202 50zM662 397v196q-45 48 -106 72t-130 24
q-71 0 -130 -25.5t-102 -72.5v-194h468z" />
    <glyph glyph-name="oneeighth" unicode="&#x215b;" horiz-adv-x="923" 
d="M142 629q-11 -19 -31.5 -29.5t-42.5 -10.5h-23v73h14q35 0 58.5 20t28.5 51h74v-426h-78v322zM217 -20l-56 34l436 724l56 -33zM597.5 29.5q-43.5 37.5 -43.5 93.5q0 75 77 112v1q-26 14 -42.5 36.5t-16.5 53.5q0 47 38.5 77t106.5 30t106.5 -30t38.5 -78q0 -30 -17 -52
t-43 -35q34 -16 55.5 -44.5t21.5 -69.5q0 -58 -45 -95t-118 -37q-75 0 -118.5 37.5zM777 80.5q22 19.5 22 51.5t-21.5 52.5t-60.5 20.5q-38 0 -60.5 -21t-22.5 -52q0 -30 22 -50.5t61 -20.5q38 0 60 19.5zM765.5 280q17.5 16 17.5 42q0 24 -17 38t-49 14t-49 -14.5
t-17 -38.5q0 -26 18 -41.5t48 -15.5q31 0 48.5 16z" />
    <glyph glyph-name="threeeighths" unicode="&#x215c;" horiz-adv-x="1004" 
d="M82.5 337.5q-39.5 37.5 -44.5 89.5l82 9q2 -30 22 -51t61 -21q34 0 54.5 17t20.5 47q0 36 -30.5 55.5t-80.5 17.5v58q44 1 69.5 18t25.5 45q0 23 -17 38.5t-48 15.5q-37 0 -54.5 -22.5t-18.5 -51.5l-74 9q1 49 35.5 89.5t111.5 40.5q67 0 106 -31.5t39 -78.5
q0 -35 -24 -62t-53 -32v-1q41 -10 67.5 -35t26.5 -72q0 -59 -44 -94t-116 -35q-77 0 -116.5 37.5zM298 -20l-56 34l436 724l56 -33zM678.5 29.5q-43.5 37.5 -43.5 93.5q0 75 77 112v1q-26 14 -42.5 36.5t-16.5 53.5q0 47 38.5 77t106.5 30t106.5 -30t38.5 -78q0 -30 -17 -52
t-43 -35q34 -16 55.5 -44.5t21.5 -69.5q0 -58 -45 -95t-118 -37q-75 0 -118.5 37.5zM858 80.5q22 19.5 22 51.5t-21.5 52.5t-60.5 20.5q-38 0 -60.5 -21t-22.5 -52q0 -30 22 -50.5t61 -20.5q38 0 60 19.5zM846.5 280q17.5 16 17.5 42q0 24 -17 38t-49 14t-49 -14.5
t-17 -38.5q0 -26 18 -41.5t48 -15.5q31 0 48.5 16z" />
    <glyph glyph-name="fiveeighths" unicode="&#x215d;" horiz-adv-x="1005" 
d="M89 336q-38 36 -48 84l81 11q4 -26 24 -44t55 -18q37 0 58.5 21.5t21.5 60.5t-20.5 59.5t-57.5 20.5q-52 0 -75 -45l-75 17l27 230h258v-68h-192l-13 -99q19 14 39 22t48 8q60 0 100.5 -37t40.5 -105q0 -71 -45 -112.5t-118 -41.5q-71 0 -109 36zM299 -20l-56 34l436 724
l56 -33zM679.5 29.5q-43.5 37.5 -43.5 93.5q0 75 77 112v1q-26 14 -42.5 36.5t-16.5 53.5q0 47 38.5 77t106.5 30t106.5 -30t38.5 -78q0 -30 -17 -52t-43 -35q34 -16 55.5 -44.5t21.5 -69.5q0 -58 -45 -95t-118 -37q-75 0 -118.5 37.5zM859 80.5q22 19.5 22 51.5t-21.5 52.5
t-60.5 20.5q-38 0 -60.5 -21t-22.5 -52q0 -30 22 -50.5t61 -20.5q38 0 60 19.5zM847.5 280q17.5 16 17.5 42q0 24 -17 38t-49 14t-49 -14.5t-17 -38.5q0 -26 18 -41.5t48 -15.5q31 0 48.5 16z" />
    <glyph glyph-name="seveneighths" unicode="&#x215e;" horiz-adv-x="908" 
d="M136.5 497q38.5 86 118.5 165h-218v71h290v-68q-72 -79 -110 -167.5t-48 -190.5h-82q11 104 49.5 190zM202 -20l-56 34l436 724l56 -33zM582.5 29.5q-43.5 37.5 -43.5 93.5q0 75 77 112v1q-26 14 -42.5 36.5t-16.5 53.5q0 47 38.5 77t106.5 30t106.5 -30t38.5 -78
q0 -30 -17 -52t-43 -35q34 -16 55.5 -44.5t21.5 -69.5q0 -58 -45 -95t-118 -37q-75 0 -118.5 37.5zM762 80.5q22 19.5 22 51.5t-21.5 52.5t-60.5 20.5q-38 0 -60.5 -21t-22.5 -52q0 -30 22 -50.5t61 -20.5q38 0 60 19.5zM750.5 280q17.5 16 17.5 42q0 24 -17 38t-49 14
t-49 -14.5t-17 -38.5q0 -26 18 -41.5t48 -15.5q31 0 48.5 16z" />
    <glyph glyph-name="arrowleft" unicode="&#x2190;" horiz-adv-x="753" 
d="M318 28l-242 241v49l242 242l52 -52l-175 -173h490v-81h-492l177 -175z" />
    <glyph glyph-name="arrowup" unicode="&#x2191;" horiz-adv-x="674" 
d="M297 6v492l-175 -177l-51 52l241 242h50l241 -242l-51 -52l-174 176v-491h-81z" />
    <glyph glyph-name="arrowright" unicode="&#x2192;" horiz-adv-x="753" 
d="M435 28l-52 51l176 174h-491v81h492l-177 175l52 51l242 -241v-50z" />
    <glyph glyph-name="arrowdown" unicode="&#x2193;" horiz-adv-x="674" 
d="M312 15l-241 242l51 51l174 -176v491h81v-491l175 176l51 -51l-241 -242h-50z" />
    <glyph glyph-name="uni2196" unicode="&#x2196;" horiz-adv-x="622" 
d="M496 69l-348 348l2 -248h-73l-1 341l18 18l18 17h341v-73l-247 2l347 -347z" />
    <glyph glyph-name="uni2197" unicode="&#x2197;" horiz-adv-x="621" 
d="M127 69l-58 58l348 348l-249 -2v72l342 1l35 -35l-1 -342h-72l2 248z" />
    <glyph glyph-name="uni2198" unicode="&#x2198;" horiz-adv-x="622" 
d="M511 53l-342 1v72l247 -1l-347 347l57 57l348 -348l-1 249h72l1 -342z" />
    <glyph glyph-name="uni2199" unicode="&#x2199;" horiz-adv-x="621" 
d="M111 53l-35 35l1 342l72 -1l-1 -246l347 347l57 -58l-348 -348l249 2v-73h-342z" />
    <glyph glyph-name="partialdiff" unicode="&#x2202;" horiz-adv-x="635" 
d="M177.5 12.5q-53.5 31.5 -85.5 90.5t-32 138q0 85 36.5 146t93.5 92.5t118 31.5q52 0 89.5 -21.5t59.5 -52.5q-5 61 -32 112.5t-69.5 82t-90.5 30.5q-34 0 -68 -16.5t-62 -51.5l-29 78q70 81 171 81q87 0 155 -55.5t105.5 -149t37.5 -204.5q0 -114 -39 -196t-103.5 -124.5
t-138.5 -42.5q-63 0 -116.5 31.5zM382 108.5q36 26.5 56.5 70.5t20.5 93q0 67 -37.5 106t-95.5 39q-41 0 -77 -20t-58.5 -60t-22.5 -96q0 -74 38 -116.5t95 -42.5q45 0 81 26.5z" />
    <glyph glyph-name="emptyset" unicode="&#x2205;" horiz-adv-x="725" 
d="M120 43l35 41q-39 37 -61 87.5t-22 106.5q0 77 39 140.5t105.5 100t146.5 36.5q85 0 157 -43l34 40l50 -42l-32 -37q39 -38 60.5 -88t21.5 -107q0 -76 -39 -139t-105.5 -99.5t-146.5 -36.5q-85 0 -157 43l-37 -43zM474 458q-49 29 -111 29q-61 0 -111 -28t-78 -76
t-28 -105q0 -40 14.5 -76t40.5 -64zM473 98.5q49 27.5 77 75t28 104.5q0 40 -14 76t-39 64l-274 -319q50 -28 112 -28q61 0 110 27.5z" />
    <glyph glyph-name="uni2206" unicode="&#x2206;" horiz-adv-x="828" 
d="M40 0l308 715h136l304 -715h-748zM202 105h426l-215 497z" />
    <glyph glyph-name="product" unicode="&#x220f;" horiz-adv-x="746" 
d="M168 -86v689h-150v95h710v-95h-151v-689h-93v689h-223v-689h-93z" />
    <glyph glyph-name="summation" unicode="&#x2211;" horiz-adv-x="662" 
d="M60 -85v90l252 307l-240 299v87h530v-96h-399l240 -290l-256 -302h415v-95h-542z" />
    <glyph glyph-name="minus" unicode="&#x2212;" horiz-adv-x="566" 
d="M58 272v83h450v-83h-450z" />
    <glyph glyph-name="radical" unicode="&#x221a;" horiz-adv-x="755" 
d="M351 -126l-204 522h-129v80h201l183 -493l249 849h94l-284 -958h-110z" />
    <glyph glyph-name="infinity" unicode="&#x221e;" horiz-adv-x="820" 
d="M142 187q-39 23 -61.5 61t-22.5 83t22 83.5t61 61.5t87 23q55 0 95.5 -29t86.5 -85q39 51 83 82.5t100 31.5q46 0 85 -23.5t61.5 -62.5t22.5 -85q0 -43 -21 -80.5t-59.5 -60.5t-89.5 -23q-57 0 -99 29.5t-83 84.5q-44 -56 -85 -85t-95 -29q-49 0 -88 23zM297.5 265
q28.5 23 62.5 65q-37 45 -66 67.5t-63 22.5q-37 0 -61.5 -25t-24.5 -64t25 -64t62 -25t65.5 23zM650 267q25 25 25 63q0 39 -25.5 64.5t-61.5 25.5q-35 0 -65 -23.5t-63 -65.5q36 -44 63 -66.5t63 -22.5q39 0 64 25z" />
    <glyph glyph-name="integral" unicode="&#x222b;" horiz-adv-x="369" 
d="M-30 -195l18 88q21 -7 42 -7q107 0 107 163v559q0 126 52 187t145 61q38 0 65 -10l-16 -90q-23 7 -45 7q-107 0 -107 -157v-562q0 -130 -52 -190.5t-143 -60.5q-44 0 -66 12z" />
    <glyph glyph-name="approxequal" unicode="&#x2248;" horiz-adv-x="612" 
d="M353 336.5q-27 11.5 -63 33.5q-30 18 -50.5 27.5t-41.5 9.5q-46 0 -81 -46l-59 53q24 42 59.5 66t80.5 24q33 0 60.5 -11.5t64.5 -34.5q31 -18 49 -26.5t38 -8.5q25 0 46.5 14t38.5 35l58 -51q-23 -43 -60.5 -69.5t-81.5 -26.5q-31 0 -58 11.5zM353 137.5
q-27 11.5 -63 33.5q-30 18 -50.5 27.5t-41.5 9.5q-44 0 -81 -46l-59 53q24 42 59.5 65.5t80.5 23.5q33 0 60.5 -11.5t64.5 -34.5q31 -18 49 -26.5t38 -8.5q25 0 46.5 14.5t38.5 35.5l58 -52q-23 -43 -60.5 -69t-81.5 -26q-31 0 -58 11.5z" />
    <glyph glyph-name="notequal" unicode="&#x2260;" horiz-adv-x="569" 
d="M84 79l65 94h-89v83h147l74 108h-221v83h279l58 84h84l-58 -84h86v-83h-144l-75 -108h219v-83h-277l-65 -94h-83z" />
    <glyph glyph-name="lessequal" unicode="&#x2264;" horiz-adv-x="583" 
d="M525 183l-467 155v90l467 159v-100l-346 -103l346 -102v-99zM58 49v86h467v-86h-467z" />
    <glyph glyph-name="greaterequal" unicode="&#x2265;" horiz-adv-x="585" 
d="M58 183v100l354 101l-353 103v100l468 -159v-91zM58 45v86h469v-86h-469z" />
    <glyph glyph-name="filledbox" unicode="&#x25a0;" horiz-adv-x="844" 
d="M68 0v714h708v-714h-708z" />
    <glyph glyph-name="uni25A1" unicode="&#x25a1;" horiz-adv-x="844" 
d="M68 0v714h708v-714h-708zM130 60h583v594h-583v-594z" />
    <glyph glyph-name="triagup" unicode="&#x25b2;" horiz-adv-x="913" 
d="M38 0l420 729l417 -729h-837z" />
    <glyph glyph-name="uni25B3" unicode="&#x25b3;" horiz-adv-x="901" 
d="M38 0l412 720l412 -720h-824zM152 70h594l-297 524z" />
    <glyph glyph-name="lozenge" unicode="&#x25ca;" horiz-adv-x="756" 
d="M352 0l-292 359l292 356h54l290 -356l-290 -359h-54zM379 73l238 286l-237 284l-239 -284z" />
    <glyph glyph-name="circle" unicode="&#x25cb;" horiz-adv-x="832" 
d="M226 32.5q-87 49.5 -137 135t-50 188.5q0 104 50 190t136 136t191 50t191.5 -50.5t136 -137t49.5 -189.5t-49.5 -188t-136 -134.5t-190.5 -49.5t-191 49.5zM573 89q70 41 109.5 111.5t39.5 154.5q0 85 -40.5 156.5t-110.5 113.5t-155 42q-86 0 -156 -41.5t-110.5 -113
t-40.5 -156.5q0 -84 40 -154.5t110 -112t157 -41.5t157 41z" />
    <glyph glyph-name="uni25CF" unicode="&#x25cf;" horiz-adv-x="832" 
d="M226.5 33q-86.5 50 -137 136t-50.5 189t50.5 189t137 135.5t189.5 49.5t189.5 -49.5t137 -135.5t50.5 -189t-50.5 -189t-137 -136t-189.5 -50t-189.5 50z" />
    <glyph glyph-name="uni2605" unicode="&#x2605;" horiz-adv-x="845" 
d="M666 -21l-244 177l-244 -175l94 285l-244 177h301l93 286l93 -286h302l-244 -177z" />
    <glyph glyph-name="uni2611" unicode="&#x2611;" horiz-adv-x="774" 
d="M68 0v714h708v-714h-708zM130 60h583v594h-583v-594zM402 201l-210 226l52 53l157 -172l215 259l52 -46z" />
    <glyph glyph-name="uni2612" unicode="&#x2612;" horiz-adv-x="844" 
d="M68 0v714h708v-714h-708zM130 60h583v594h-583v-594zM572 171l-145 146l-146 -145l-47 47l146 147l-146 144l48 47l145 -144l146 144l47 -47l-145 -145l146 -147z" />
    <glyph glyph-name="uni2713" unicode="&#x2713;" horiz-adv-x="936" 
d="M353 -15l-285 319l56 54l230 -261h1l462 561l51 -55l-514 -618h-1z" />
    <glyph glyph-name="uni2715" unicode="&#x2715;" horiz-adv-x="822" 
d="M114 12l-46 46l295 299l-294 294l46 44l295 -293l292 293l46 -44l-292 -295l298 -299l-46 -45l-298 297z" />
    <glyph glyph-name="uni2780" unicode="&#x2780;" horiz-adv-x="815" 
d="M217 32.5q-87 49.5 -137 135t-50 188.5q0 104 50 190t136.5 136t191.5 50q104 0 190.5 -50.5t136 -136.5t49.5 -190q0 -103 -49.5 -188t-135.5 -134.5t-191 -49.5q-104 0 -191 49.5zM385 469q-9 -18 -27.5 -27t-40.5 -9h-20v61h13q31 0 53 19t25 48h64v-391h-67v299z
M564 89q70 41 110 111.5t40 154.5q0 85 -40.5 156.5t-110.5 113.5t-155 42q-86 0 -156 -41.5t-110.5 -113t-40.5 -156.5q0 -84 39.5 -154.5t110 -112t157.5 -41.5q86 0 156 41z" />
    <glyph glyph-name="uni2781" unicode="&#x2781;" horiz-adv-x="815" 
d="M217 32.5q-87 49.5 -137 135t-50 188.5q0 104 50 190t136.5 136t191.5 50q104 0 190.5 -50.5t136 -136.5t49.5 -190q0 -103 -49.5 -188t-135.5 -134.5t-191 -49.5q-104 0 -191 49.5zM564 89q70 41 110 111.5t40 154.5q0 85 -40.5 156.5t-110.5 113.5t-155 42
q-86 0 -156 -41.5t-110.5 -113t-40.5 -156.5q0 -84 39.5 -154.5t110 -112t157.5 -41.5q86 0 156 41zM281 218q103 84 146 135t43 96q0 28 -15 45t-45 17q-40 0 -57 -28.5t-18 -65.5l-61 17q6 53 38.5 93t99.5 40q59 0 92 -32.5t33 -81.5q0 -54 -42 -107.5t-116 -113.5h159
v-62h-257v48z" />
    <glyph glyph-name="uni2782" unicode="&#x2782;" horiz-adv-x="815" 
d="M217 32.5q-87 49.5 -137 135t-50 188.5q0 104 50 190t136.5 136t191.5 50q104 0 190.5 -50.5t136 -136.5t49.5 -190q0 -103 -49.5 -188t-135.5 -134.5t-191 -49.5q-104 0 -191 49.5zM564 89q70 41 110 111.5t40 154.5q0 85 -40.5 156.5t-110.5 113.5t-155 42
q-86 0 -156 -41.5t-110.5 -113t-40.5 -156.5q0 -84 39.5 -154.5t110 -112t157.5 -41.5q86 0 156 41zM302 196q-35 34 -40 82l71 8q1 -28 20 -48.5t58 -20.5q34 0 54 17t20 46q0 35 -29.5 53t-76.5 16v50q41 2 66 18t25 43q0 21 -16.5 36.5t-45.5 15.5q-38 0 -54.5 -21
t-17.5 -49l-62 7q1 46 32 82t99 36q61 0 96 -29t35 -71q0 -33 -21.5 -57t-48.5 -30v-1q34 -7 60.5 -30.5t26.5 -67.5q0 -54 -40.5 -86.5t-106.5 -32.5q-69 0 -104 34z" />
    <glyph glyph-name="uni2783" unicode="&#x2783;" horiz-adv-x="815" 
d="M217 32.5q-87 49.5 -137 135t-50 188.5q0 104 50 190t136.5 136t191.5 50q104 0 190.5 -50.5t136 -136.5t49.5 -190q0 -103 -49.5 -188t-135.5 -134.5t-191 -49.5q-104 0 -191 49.5zM428 170v86h-185v49l177 256h75v-252h59v-53h-59v-86h-67zM564 89q70 41 110 111.5
t40 154.5q0 85 -40.5 156.5t-110.5 113.5t-155 42q-86 0 -156 -41.5t-110.5 -113t-40.5 -156.5q0 -84 39.5 -154.5t110 -112t157.5 -41.5q86 0 156 41zM307 309h123v175z" />
    <glyph glyph-name="uni2784" unicode="&#x2784;" horiz-adv-x="815" 
d="M217 32.5q-87 49.5 -137 135t-50 188.5q0 104 50 190t136.5 136t191.5 50q104 0 190.5 -50.5t136 -136.5t49.5 -190q0 -103 -49.5 -188t-135.5 -134.5t-191 -49.5q-104 0 -191 49.5zM564 89q70 41 110 111.5t40 154.5q0 85 -40.5 156.5t-110.5 113.5t-155 42
q-86 0 -156 -41.5t-110.5 -113t-40.5 -156.5q0 -84 39.5 -154.5t110 -112t157.5 -41.5q86 0 156 41zM307 194q-35 33 -44 77l69 9q4 -25 23 -43.5t52 -18.5q36 0 57 22t21 60q0 37 -19.5 57.5t-56.5 20.5q-28 0 -45 -13t-26 -30l-63 15l23 210h234v-61h-177l-12 -96
q32 30 81 30q56 0 92.5 -35t36.5 -96q0 -64 -41 -102.5t-107 -38.5q-63 0 -98 33z" />
    <glyph glyph-name="uni2785" unicode="&#x2785;" horiz-adv-x="815" 
d="M217 32.5q-87 49.5 -137 135t-50 188.5q0 104 50 190t136.5 136t191.5 50q104 0 190.5 -50.5t136 -136.5t49.5 -190q0 -103 -49.5 -188t-135.5 -134.5t-191 -49.5q-104 0 -191 49.5zM456.5 237q19.5 20 19.5 50q0 32 -19.5 52t-54.5 20q-32 0 -52 -16.5t-24 -37.5
q0 -39 21.5 -63.5t56.5 -24.5q33 0 52.5 20zM293.5 209.5q-39.5 48.5 -39.5 148.5q0 105 42.5 156.5t111.5 51.5q56 0 88 -29t41 -63l-67 -20q-5 23 -22 39t-45 16q-39 0 -60 -36t-20 -101q30 42 96 42q57 0 92.5 -35t35.5 -89q0 -58 -41 -93.5t-104 -35.5
q-69 0 -108.5 48.5zM564 89q70 41 110 111.5t40 154.5q0 85 -40.5 156.5t-110.5 113.5t-155 42q-86 0 -156 -41.5t-110.5 -113t-40.5 -156.5q0 -84 39.5 -154.5t110 -112t157.5 -41.5q86 0 156 41z" />
    <glyph glyph-name="uni2786" unicode="&#x2786;" horiz-adv-x="815" 
d="M217 32.5q-87 49.5 -137 135t-50 188.5q0 104 50 190t136.5 136t191.5 50q104 0 190.5 -50.5t136 -136.5t49.5 -190q0 -103 -49.5 -188t-135.5 -134.5t-191 -49.5q-104 0 -191 49.5zM564 89q70 41 110 111.5t40 154.5q0 85 -40.5 156.5t-110.5 113.5t-155 42
q-86 0 -156 -41.5t-110.5 -113t-40.5 -156.5q0 -84 39.5 -154.5t110 -112t157.5 -41.5q86 0 156 41zM374.5 340.5q35.5 80.5 108.5 151.5h-201v63h263v-60q-68 -76 -104 -157t-44 -174h-69q11 96 46.5 176.5z" />
    <glyph glyph-name="uni2787" unicode="&#x2787;" horiz-adv-x="815" 
d="M217 32.5q-87 49.5 -137 135t-50 188.5q0 104 50 190t136.5 136t191.5 50q104 0 190.5 -50.5t136 -136.5t49.5 -190q0 -103 -49.5 -188t-135.5 -134.5t-191 -49.5q-104 0 -191 49.5zM465.5 239q20.5 19 20.5 50t-21 50.5t-57 19.5t-57.5 -20t-21.5 -50q0 -29 20.5 -49
t58.5 -20q37 0 57.5 19zM564 89q70 41 110 111.5t40 154.5q0 85 -40.5 156.5t-110.5 113.5t-155 42q-86 0 -156 -41.5t-110.5 -113t-40.5 -156.5q0 -84 39.5 -154.5t110 -112t157.5 -41.5q86 0 156 41zM299.5 195.5q-38.5 33.5 -38.5 85.5q0 37 20 63.5t52 40.5v1
q-24 12 -39.5 33t-15.5 50q0 44 34.5 71t94.5 27q61 0 96 -27t35 -70q0 -29 -16 -50t-40 -32q32 -15 52 -41.5t20 -63.5q0 -52 -40 -86.5t-108 -34.5t-106.5 33.5zM455.5 426q17.5 15 17.5 39t-17.5 38.5t-47.5 14.5q-31 0 -48 -14.5t-17 -37.5q0 -25 18 -40t48 -15
q29 0 46.5 15z" />
    <glyph glyph-name="uni2788" unicode="&#x2788;" horiz-adv-x="815" 
d="M217 32.5q-87 49.5 -137 135t-50 188.5q0 104 50 190t136.5 136t191.5 50q104 0 190.5 -50.5t136 -136.5t49.5 -190q0 -103 -49.5 -188t-135.5 -134.5t-191 -49.5q-104 0 -191 49.5zM564 89q70 41 110 111.5t40 154.5q0 85 -40.5 156.5t-110.5 113.5t-155 42
q-86 0 -156 -41.5t-110.5 -113t-40.5 -156.5q0 -84 39.5 -154.5t110 -112t157.5 -41.5q86 0 156 41zM324.5 189q-32.5 28 -42.5 65l67 19q5 -23 22 -39t45 -16q39 0 60 36.5t20 101.5q-32 -44 -96 -44q-56 0 -91.5 36t-35.5 89q0 57 41 93t101 36q71 0 110.5 -48t39.5 -148
q0 -99 -40 -154t-113 -55q-55 0 -87.5 28zM469 384.5q19 16.5 24 36.5q0 40 -21.5 64t-56.5 24q-33 0 -52.5 -19t-19.5 -49q0 -33 19.5 -53t54.5 -20q33 0 52 16.5z" />
    <glyph glyph-name="uni278A" unicode="&#x278a;" horiz-adv-x="815" 
d="M217.5 33q-86.5 50 -137 136t-50.5 189t50.5 189t137 135.5t189.5 49.5t189.5 -49.5t137 -135.5t50.5 -189t-50.5 -189t-137 -136t-189.5 -50t-189.5 50zM452 170v391h-64q-3 -29 -25 -48t-53 -19h-13v-61h20q22 0 40.5 9t27.5 27v-299h67z" />
    <glyph glyph-name="uni278B" unicode="&#x278b;" horiz-adv-x="815" 
d="M217.5 33q-86.5 50 -137 136t-50.5 189t50.5 189t137 135.5t189.5 49.5t189.5 -49.5t137 -135.5t50.5 -189t-50.5 -189t-137 -136t-189.5 -50t-189.5 50zM538 170v62h-160q75 59 117 112.5t42 108.5q0 49 -33 81.5t-92 32.5q-66 0 -99.5 -39t-38.5 -94l61 -17
q1 37 18 65.5t57 28.5q30 0 45 -17t15 -45q0 -44 -43 -95.5t-146 -135.5v-48h257z" />
    <glyph glyph-name="uni278C" unicode="&#x278c;" horiz-adv-x="815" 
d="M217.5 33q-86.5 50 -137 136t-50.5 189t50.5 189t137 135.5t189.5 49.5t189.5 -49.5t137 -135.5t50.5 -189t-50.5 -189t-137 -136t-189.5 -50t-189.5 50zM512.5 194.5q40.5 32.5 40.5 86.5q0 44 -26 67.5t-61 30.5v1q27 6 48.5 30t21.5 57q0 42 -35 71t-96 29
q-68 0 -99 -36t-32 -82l62 -7q1 28 17.5 49t54.5 21q29 0 45.5 -15.5t16.5 -36.5q0 -27 -25 -43t-66 -18v-50q47 2 76.5 -16t29.5 -53q0 -29 -20 -46t-54 -17q-39 0 -58 20.5t-20 48.5l-71 -8q5 -46 39 -81t105 -35q66 0 106.5 32.5z" />
    <glyph glyph-name="uni278D" unicode="&#x278d;" horiz-adv-x="815" 
d="M217.5 33q-86.5 50 -137 136t-50.5 189t50.5 189t137 135.5t189.5 49.5t189.5 -49.5t137 -135.5t50.5 -189t-50.5 -189t-137 -136t-189.5 -50t-189.5 50zM428 170h67v86h59v53h-59v252h-75l-177 -256v-49h185v-86zM307 309l123 175v-175h-123z" />
    <glyph glyph-name="uni278E" unicode="&#x278e;" horiz-adv-x="815" 
d="M217.5 33q-86.5 50 -137 136t-50.5 189t50.5 189t137 135.5t189.5 49.5t189.5 -49.5t137 -135.5t50.5 -189t-50.5 -189t-137 -136t-189.5 -50t-189.5 50zM511.5 199.5q41.5 38.5 41.5 103.5q0 61 -37 95.5t-93 34.5q-48 0 -80 -30l12 96h177v61h-234l-23 -210l63 -15
q9 17 26 30t45 13q37 0 56.5 -20.5t19.5 -57.5q0 -38 -21 -60t-57 -22q-33 0 -52 18.5t-23 43.5l-69 -9q8 -43 43 -76.5t98 -33.5q66 0 107.5 38.5z" />
    <glyph glyph-name="uni278F" unicode="&#x278f;" horiz-adv-x="815" 
d="M217.5 33q-86.5 50 -137 136t-50.5 189t50.5 189t137 135.5t189.5 49.5t189.5 -49.5t137 -135.5t50.5 -189t-50.5 -189t-137 -136t-189.5 -50t-189.5 50zM347.5 241.5q-21.5 24.5 -21.5 63.5q4 21 24 37.5t52 16.5q35 0 54.5 -20t19.5 -52q0 -30 -19.5 -50t-52.5 -20
q-35 0 -56.5 24.5zM506 196.5q41 35.5 41 93.5q0 54 -35.5 89t-92.5 35q-66 0 -96 -42q-1 65 20 101t60 36q28 0 45 -16t22 -39l67 20q-9 34 -41 63t-88 29q-69 0 -111.5 -51.5t-42.5 -156.5q0 -100 39.5 -148.5t108.5 -48.5q63 0 104 35.5z" />
    <glyph glyph-name="uni2790" unicode="&#x2790;" horiz-adv-x="815" 
d="M217.5 33q-86.5 50 -137 136t-50.5 189t50.5 189t137 135.5t189.5 49.5t189.5 -49.5t137 -135.5t50.5 -189t-50.5 -189t-137 -136t-189.5 -50t-189.5 50zM397 164q8 94 43.5 175t103.5 156v60h-262v-63h201q-73 -71 -108.5 -151.5t-46.5 -176.5h69z" />
    <glyph glyph-name="uni2791" unicode="&#x2791;" horiz-adv-x="815" 
d="M217.5 33q-86.5 50 -137 136t-50.5 189t50.5 189t137 135.5t189.5 49.5t189.5 -49.5t137 -135.5t50.5 -189t-50.5 -189t-137 -136t-189.5 -50t-189.5 50zM349 240q-21 20 -21 49q0 30 21.5 50t58.5 20q36 0 57 -19.5t21 -50.5t-20.5 -50t-57.5 -19q-38 0 -59 20z
M514 196.5q40 34.5 40 86.5q0 37 -20 63.5t-52 41.5q24 11 40 32t16 50q0 43 -35 70t-96 27q-60 0 -94.5 -27t-34.5 -71q0 -29 15.5 -50t39.5 -33v-1q-32 -14 -52 -40.5t-20 -63.5q0 -52 38.5 -85.5t106.5 -33.5t108 34.5zM361 426q-18 15 -18 40q0 23 17 37.5t47 14.5
q31 0 48 -14.5t17 -37.5q0 -25 -17.5 -40t-46.5 -15t-47 15z" />
    <glyph glyph-name="uni2792" unicode="&#x2792;" horiz-adv-x="815" 
d="M217.5 33q-86.5 50 -137 136t-50.5 189t50.5 189t137 135.5t189.5 49.5t189.5 -49.5t137 -135.5t50.5 -189t-50.5 -189t-137 -136t-189.5 -50t-189.5 50zM525.5 216.5q39.5 55.5 39.5 153.5q0 100 -40 148t-109 48q-63 0 -103.5 -36.5t-40.5 -92.5q0 -53 36 -89t92 -36
q64 0 96 44q1 -65 -20 -101.5t-60 -36.5q-28 0 -45 16t-22 39l-67 -19q10 -37 42.5 -65t87.5 -28q74 0 113.5 55.5zM362.5 387.5q-19.5 19.5 -19.5 50.5q0 32 19.5 51.5t52.5 19.5q35 0 56.5 -24t21.5 -64q-5 -20 -24 -36.5t-52 -16.5q-35 0 -54.5 19.5z" />
    <glyph glyph-name="u1F10B" unicode="&#x1f10b;" horiz-adv-x="835" 
d="M227 33.5q-87 49.5 -137 135t-50 188.5t50 189.5t136.5 136.5t191.5 50q104 0 190.5 -50.5t136 -136.5t49.5 -190q0 -103 -49.5 -188t-135.5 -134.5t-191 -49.5q-104 0 -191 49.5zM574 90q70 41 110 111.5t40 154.5q0 85 -40.5 156.5t-110.5 113.5t-155 42
q-86 0 -156 -41.5t-110.5 -113t-40.5 -156.5q0 -84 39.5 -154.5t110 -112t157.5 -41.5q86 0 156 41zM307 208q-38 52 -38 147q0 96 38.5 151t109.5 55q73 0 111 -55t38 -151t-38 -147.5t-111 -51.5q-72 0 -110 52zM499 356q0 72 -21 110t-61 38t-60 -38t-20 -110
q0 -73 19.5 -108.5t60.5 -35.5q82 0 82 144z" />
    <glyph glyph-name="u1F10C" unicode="&#x1f10c;" horiz-adv-x="835" 
d="M227.5 34q-86.5 50 -137 136t-50.5 189t50.5 189t137 135.5t189.5 49.5t189.5 -49.5t137 -135.5t50.5 -189t-50.5 -189t-137 -136t-189.5 -50t-189.5 50zM527 207.5q38 51.5 38 147.5t-38 151t-110 55q-71 0 -109.5 -55t-38.5 -151q0 -95 38 -147t110 -52t110 51.5z
M356.5 247.5q-19.5 35.5 -19.5 108.5q0 72 20 110t60 38t60.5 -37.5t20.5 -110.5t-20 -108.5t-61 -35.5t-60.5 35.5z" />
    <glyph glyph-name="uni004A0301" horiz-adv-x="583" 
d="M155 17.5q-54 33.5 -78.5 84t-28.5 105.5l107 16q4 -60 37 -101.5t105 -41.5q116 0 116 120v515h105v-504q0 -108 -58.5 -167.5t-165.5 -59.5q-85 0 -139 33.5zM406 753l84 144h129l-120 -144h-93z" />
    <glyph glyph-name="R.ss04" horiz-adv-x="666" 
d="M68 715h281q113 0 174 -53t61 -149q0 -97 -57.5 -148.5t-142.5 -67.5q19 -90 66 -145.5t131 -55.5h32v-96h-43q-121 0 -190 82t-89 204h-118v-286h-105v715zM316 374q68 0 112 30t44 100q0 118 -133 118h-166v-248h143z" />
    <glyph glyph-name="Racute.ss04" horiz-adv-x="666" 
d="M68 715h281q113 0 174 -53t61 -149q0 -97 -57.5 -148.5t-142.5 -67.5q19 -90 66 -145.5t131 -55.5h32v-96h-43q-121 0 -190 82t-89 204h-118v-286h-105v715zM316 374q68 0 112 30t44 100q0 118 -133 118h-166v-248h143zM265 751l84 144h129l-120 -144h-93z" />
    <glyph glyph-name="Rcaron.ss04" horiz-adv-x="666" 
d="M68 715h281q113 0 174 -53t61 -149q0 -97 -57.5 -148.5t-142.5 -67.5q19 -90 66 -145.5t131 -55.5h32v-96h-43q-121 0 -190 82t-89 204h-118v-286h-105v715zM316 374q68 0 112 30t44 100q0 118 -133 118h-166v-248h143zM265 750l-107 145h99l62 -81l61 81h99l-106 -145
h-108z" />
    <glyph glyph-name="uni0156.ss04" horiz-adv-x="666" 
d="M68 715h281q113 0 174 -53t61 -149q0 -97 -57.5 -148.5t-142.5 -67.5q19 -90 66 -145.5t131 -55.5h32v-96h-43q-121 0 -190 82t-89 204h-118v-286h-105v715zM247 -206l31 145h116l-65 -145h-82zM316 374q68 0 112 30t44 100q0 118 -133 118h-166v-248h143z" />
    <glyph glyph-name="i.loclTRK" horiz-adv-x="214" 
d="M59 0v479h101v-479h-101zM60 575q-20 19 -20 47t20 47t50 19t49.5 -19t19.5 -47t-19.5 -47t-49.5 -19t-50 19z" />
    <glyph glyph-name="uni006A0301" horiz-adv-x="239" 
d="M-26 -198l10 83q2 0 10.5 -1t24.5 -1q42 0 53.5 21t11.5 52v523h101v-517q0 -77 -41.5 -120.5t-115.5 -43.5q-31 0 -54 4zM87 540l84 144h129l-120 -144h-93z" />
    <glyph glyph-name="germandbls.calt" horiz-adv-x="682" 
d="M276 30q-54 46 -72 106l93 44q12 -44 41.5 -73.5t82.5 -29.5q55 0 87.5 34t32.5 96q0 69 -38 106.5t-92 37.5q-47 0 -85 -26l-59 57l186 238h-134q-66 0 -106 -42t-40 -155v-423h-105v430q0 132 69 208.5t195 76.5h231v-87l-170 -206q22 10 57 10q53 0 99 -26.5
t73.5 -76.5t27.5 -117q0 -66 -27.5 -117.5t-79 -81t-121.5 -29.5q-92 0 -146 46z" />
    <glyph glyph-name="a.ss01" horiz-adv-x="553" 
d="M146 13q-49 27 -80.5 85t-31.5 144q0 83 30 140t77 84.5t100 27.5t91 -25t61 -60h1v70h100v-479h-100v70h-1q-20 -34 -57.5 -59t-89.5 -25q-51 0 -100 27zM360 118q36 49 36 128q0 78 -35.5 120.5t-96.5 42.5q-58 0 -93 -41t-35 -122q0 -84 36 -130.5t93 -46.5
q59 0 95 49z" />
    <glyph glyph-name="aacute.ss01" horiz-adv-x="553" 
d="M146 13q-49 27 -80.5 85t-31.5 144q0 83 30 140t77 84.5t100 27.5t91 -25t61 -60h1v70h100v-479h-100v70h-1q-20 -34 -57.5 -59t-89.5 -25q-51 0 -100 27zM360 118q36 49 36 128q0 78 -35.5 120.5t-96.5 42.5q-58 0 -93 -41t-35 -122q0 -84 36 -130.5t93 -46.5
q59 0 95 49zM221 581l84 144h129l-120 -144h-93z" />
    <glyph glyph-name="abreve.ss01" horiz-adv-x="553" 
d="M146 13q-49 27 -80.5 85t-31.5 144q0 83 30 140t77 84.5t100 27.5t91 -25t61 -60h1v70h100v-479h-100v70h-1q-20 -34 -57.5 -59t-89.5 -25q-51 0 -100 27zM360 118q36 49 36 128q0 78 -35.5 120.5t-96.5 42.5q-58 0 -93 -41t-35 -122q0 -84 36 -130.5t93 -46.5
q59 0 95 49zM162 618q-44 42 -44 107h87q0 -34 19.5 -55.5t48.5 -21.5q30 0 48.5 22t18.5 55h86q0 -41 -19 -75t-54 -54t-80 -20q-67 0 -111 42z" />
    <glyph glyph-name="acircumflex.ss01" horiz-adv-x="553" 
d="M146 13q-49 27 -80.5 85t-31.5 144q0 83 30 140t77 84.5t100 27.5t91 -25t61 -60h1v70h100v-479h-100v70h-1q-20 -34 -57.5 -59t-89.5 -25q-51 0 -100 27zM360 118q36 49 36 128q0 78 -35.5 120.5t-96.5 42.5q-58 0 -93 -41t-35 -122q0 -84 36 -130.5t93 -46.5
q59 0 95 49zM112 580l106 145h109l104 -145h-98l-61 80l-61 -80h-99z" />
    <glyph glyph-name="adieresis.ss01" horiz-adv-x="553" 
d="M146 13q-49 27 -80.5 85t-31.5 144q0 83 30 140t77 84.5t100 27.5t91 -25t61 -60h1v70h100v-479h-100v70h-1q-20 -34 -57.5 -59t-89.5 -25q-51 0 -100 27zM360 118q36 49 36 128q0 78 -35.5 120.5t-96.5 42.5q-58 0 -93 -41t-35 -122q0 -84 36 -130.5t93 -46.5
q59 0 95 49zM123 615q-21 19 -21 45t21 46t50 20q28 0 49 -19.5t21 -46.5q0 -26 -20.5 -45t-50.5 -19q-28 0 -49 19zM322 614.5q-20 18.5 -20 45.5t20 46.5t48 19.5q30 0 51 -19t21 -46t-21 -46t-51 -19q-28 0 -48 18.5z" />
    <glyph glyph-name="agrave.ss01" horiz-adv-x="553" 
d="M146 13q-49 27 -80.5 85t-31.5 144q0 83 30 140t77 84.5t100 27.5t91 -25t61 -60h1v70h100v-479h-100v70h-1q-20 -34 -57.5 -59t-89.5 -25q-51 0 -100 27zM360 118q36 49 36 128q0 78 -35.5 120.5t-96.5 42.5q-58 0 -93 -41t-35 -122q0 -84 36 -130.5t93 -46.5
q59 0 95 49zM243 581l-119 144h129l84 -144h-94z" />
    <glyph glyph-name="amacron.ss01" horiz-adv-x="553" 
d="M146 13q-49 27 -80.5 85t-31.5 144q0 83 30 140t77 84.5t100 27.5t91 -25t61 -60h1v70h100v-479h-100v70h-1q-20 -34 -57.5 -59t-89.5 -25q-51 0 -100 27zM360 118q36 49 36 128q0 78 -35.5 120.5t-96.5 42.5q-58 0 -93 -41t-35 -122q0 -84 36 -130.5t93 -46.5
q59 0 95 49zM112 604v85h319v-85h-319z" />
    <glyph glyph-name="aogonek.ss01" horiz-adv-x="553" 
d="M373 -194q-29 26 -29 65q0 32 22 63t65 66h-37v70h-1q-20 -34 -57.5 -59t-89.5 -25q-51 0 -100 27t-80.5 85t-31.5 144q0 83 30 140t77 84.5t100 27.5t91 -25t61 -60h1v70h100v-479q-69 -61 -69 -108q0 -17 11 -29t32 -12q17 0 30 6.5t30 19.5l8 -64q-13 -14 -37.5 -23.5
t-51.5 -9.5q-45 0 -74 26zM360 118q36 49 36 128q0 78 -35.5 120.5t-96.5 42.5q-58 0 -93 -41t-35 -122q0 -84 36 -130.5t93 -46.5q59 0 95 49z" />
    <glyph glyph-name="aring.ss01" horiz-adv-x="553" 
d="M146 13q-49 27 -80.5 85t-31.5 144q0 83 30 140t77 84.5t100 27.5t91 -25t61 -60h1v70h100v-479h-100v70h-1q-20 -34 -57.5 -59t-89.5 -25q-51 0 -100 27zM360 118q36 49 36 128q0 78 -35.5 120.5t-96.5 42.5q-58 0 -93 -41t-35 -122q0 -84 36 -130.5t93 -46.5
q59 0 95 49zM189 596.5q-33 32.5 -33 81.5t33.5 81t83.5 32q48 0 81.5 -31.5t33.5 -80.5q0 -50 -33 -82.5t-83 -32.5t-83 32.5zM311.5 637q16.5 16 16.5 42q0 25 -16.5 41t-38.5 16q-23 0 -40 -16t-17 -41q0 -26 17 -42t40 -16q22 0 38.5 16z" />
    <glyph glyph-name="aringacute.ss01" horiz-adv-x="553" 
d="M146 13q-49 27 -80.5 85t-31.5 144q0 83 30 140t77 84.5t100 27.5t91 -25t61 -60h1v70h100v-479h-100v70h-1q-20 -34 -57.5 -59t-89.5 -25q-51 0 -100 27zM360 118q36 49 36 128q0 78 -35.5 120.5t-96.5 42.5q-58 0 -93 -41t-35 -122q0 -84 36 -130.5t93 -46.5
q59 0 95 49zM189 596.5q-33 32.5 -33 81.5t33.5 81t83.5 32q48 0 81.5 -31.5t33.5 -80.5q0 -50 -33 -82.5t-83 -32.5t-83 32.5zM311.5 637q16.5 16 16.5 42q0 25 -16.5 41t-38.5 16q-23 0 -40 -16t-17 -41q0 -26 17 -42t40 -16q22 0 38.5 16zM221 809l84 144h129l-120 -144
h-93z" />
    <glyph glyph-name="atilde.ss01" horiz-adv-x="553" 
d="M146 13q-49 27 -80.5 85t-31.5 144q0 83 30 140t77 84.5t100 27.5t91 -25t61 -60h1v70h100v-479h-100v70h-1q-20 -34 -57.5 -59t-89.5 -25q-51 0 -100 27zM360 118q36 49 36 128q0 78 -35.5 120.5t-96.5 42.5q-58 0 -93 -41t-35 -122q0 -84 36 -130.5t93 -46.5
q59 0 95 49zM306.5 593.5q-17.5 7.5 -30 15t-15.5 9.5q-18 11 -31 16.5t-26 5.5q-36 0 -58 -52l-64 30q40 100 114 100q24 0 42 -7.5t39 -21.5q19 -13 32 -19.5t26 -6.5q18 0 33.5 13t24.5 38l65 -23q-19 -53 -48 -79t-65 -26q-21 0 -38.5 7.5z" />
    <glyph glyph-name="zero.zero" horiz-adv-x="618" 
d="M114.5 81.5q-66.5 96.5 -66.5 267.5q0 174 68 273t193 99q124 0 192.5 -98.5t68.5 -273.5q0 -172 -67 -268t-194 -96q-128 0 -194.5 96.5zM378 615q-29 19 -69 19q-79 0 -119 -73.5t-40 -209.5q0 -133 36 -202zM428 142q40 70 40 209q0 131 -37 205l-193 -466
q30 -18 71 -18q79 0 119 70z" />
    <glyph glyph-name="zero.numrsuperior" horiz-adv-x="420" 
d="M87 474.5q-42 56.5 -42 160.5q0 105 42.5 165t122.5 60q81 0 123 -60t42 -165t-41.5 -161t-123.5 -56q-81 0 -123 56.5zM275 519q21 35 21 116t-21 120t-65 39t-65 -39.5t-21 -118.5q0 -80 20.5 -116t65.5 -36q44 0 65 35z" />
    <glyph glyph-name="one.numrsuperior" horiz-adv-x="302" 
d="M142 748q-11 -19 -31.5 -29.5t-42.5 -10.5h-23v73h14q35 0 58.5 20t28.5 51h74v-426h-78v322z" />
    <glyph glyph-name="two.numrsuperior" horiz-adv-x="383" 
d="M52 481q112 92 158.5 147.5t46.5 102.5q0 28 -16 46t-47 18q-42 0 -60 -30.5t-19 -70.5l-71 20q5 59 42.5 102.5t110.5 43.5q66 0 102.5 -35t36.5 -89q0 -58 -44.5 -115.5t-126.5 -122.5h172v-72h-285v55z" />
    <glyph glyph-name="three.numrsuperior" horiz-adv-x="402" 
d="M82 456q-39 38 -44 90l82 9q2 -30 22 -51t61 -21q34 0 54.5 17t20.5 47q0 36 -30.5 55.5t-80.5 17.5v58q44 1 69.5 18t25.5 45q0 23 -17 38t-47 15q-38 0 -55.5 -22.5t-18.5 -50.5l-74 9q1 49 35.5 89.5t111.5 40.5q67 0 106 -32t39 -78q0 -35 -24 -62t-53 -33v-1
q40 -9 67 -34t27 -72q0 -60 -44 -95t-117 -35q-77 0 -116 38z" />
    <glyph glyph-name="four.numrsuperior" horiz-adv-x="418" 
d="M235 426v93h-201v58l194 275h88v-271h63v-62h-63v-93h-81zM110 581h129v183h-1z" />
    <glyph glyph-name="five.numrsuperior" horiz-adv-x="406" 
d="M90 453.5q-39 35.5 -49 85.5l81 10q4 -26 24 -44t55 -18q37 0 58.5 22t21.5 61t-20.5 59.5t-57.5 20.5q-52 0 -75 -45l-75 17l27 230h258v-68h-192l-13 -99q19 14 39 22t48 8q60 0 100.5 -37t40.5 -105q0 -72 -45 -113.5t-118 -41.5q-69 0 -108 35.5z" />
    <glyph glyph-name="six.numrsuperior" horiz-adv-x="411" 
d="M88.5 471q-43.5 53 -43.5 161q0 107 43.5 167.5t125.5 60.5q62 0 97.5 -31t46.5 -71l-75 -20q-5 23 -23.5 40t-49.5 17q-42 0 -65 -37.5t-21 -108.5q15 21 40.5 33.5t60.5 12.5q64 0 103.5 -38.5t39.5 -96.5q0 -61 -44.5 -101.5t-114.5 -40.5q-77 0 -120.5 53z
M267.5 503.5q20.5 20.5 20.5 53.5q0 35 -21 55.5t-58 20.5q-34 0 -56 -17.5t-26 -39.5q0 -43 21.5 -68t63.5 -25q35 0 55.5 20.5z" />
    <glyph glyph-name="seven.numrsuperior" horiz-adv-x="364" 
d="M136.5 616q38.5 86 118.5 165h-218v71h290v-68q-138 -152 -158 -358h-82q11 104 49.5 190z" />
    <glyph glyph-name="eight.numrsuperior" horiz-adv-x="412" 
d="M86.5 455.5q-43.5 37.5 -43.5 93.5q0 40 21 68.5t56 44.5v1q-26 14 -42.5 36.5t-16.5 53.5q0 47 38.5 77t106.5 30t106.5 -30.5t38.5 -78.5q0 -30 -17.5 -52t-42.5 -34q77 -39 77 -115q0 -58 -45 -95t-118 -37q-75 0 -118.5 37.5zM267 508q21 21 21 51q0 31 -22 52
t-60 21t-60.5 -21t-22.5 -52q0 -30 21.5 -51t60.5 -21q41 0 62 21zM254.5 707q17.5 16 17.5 42q0 23 -17 37.5t-49 14.5t-49 -14.5t-17 -39.5t18 -40.5t48 -15.5q31 0 48.5 16z" />
    <glyph glyph-name="nine.numrsuperior" horiz-adv-x="413" 
d="M100 449q-36 31 -47 71l78 21q5 -23 23.5 -40t47.5 -17q41 0 63.5 37t20.5 107q-32 -46 -100 -46q-64 0 -103.5 38.5t-39.5 97.5q0 63 45.5 102.5t115.5 39.5q76 0 120 -53.5t44 -161.5q0 -106 -43.5 -166.5t-126.5 -60.5q-62 0 -98 31zM258 662.5q21 17.5 26 39.5
q0 42 -22 66.5t-62 24.5q-35 0 -55 -20t-20 -52q0 -34 20.5 -55t57.5 -21q34 0 55 17.5z" />
    <glyph glyph-name="zero.osf" horiz-adv-x="592" 
d="M166 17.5q-60 32.5 -95.5 90.5t-35.5 133q0 74 35 133t95.5 91.5t132.5 32.5q71 0 130.5 -32.5t94 -91.5t34.5 -134t-35 -133t-94.5 -90t-130.5 -32t-131 32.5zM377 92q36 22 56.5 61t20.5 89q0 48 -20 87t-55.5 61.5t-80.5 22.5t-82 -23t-58 -62.5t-21 -87.5
q0 -49 21.5 -87.5t58 -60.5t80.5 -22t80 22z" />
    <glyph glyph-name="one.osf" horiz-adv-x="360" 
d="M192 330q-18 -29 -51.5 -44.5t-74.5 -15.5h-31l-3 88h18q61 0 100.5 34t45.5 87h96v-479h-100v330z" />
    <glyph glyph-name="two.osf" horiz-adv-x="492" 
d="M44 67q116 71 180 115.5t95.5 82t31.5 74.5q0 34 -24.5 54t-72.5 20q-63 0 -93 -33t-33 -79l-95 25q10 67 63 117.5t159 50.5q93 0 145.5 -41.5t52.5 -105.5q0 -47 -30 -88.5t-81 -79.5t-141 -94h254v-85h-411v67z" />
    <glyph glyph-name="three.osf" horiz-adv-x="542" 
d="M135.5 -150.5q-51.5 29.5 -76.5 73.5t-30 91l107 11q2 -47 34.5 -83.5t103.5 -36.5q61 0 97 30t36 81q0 61 -49.5 94t-132.5 31v76q70 1 111.5 31t41.5 76q0 37 -28.5 63t-81.5 26q-57 0 -90 -31.5t-33 -85.5l-95 10q1 46 22 89.5t69.5 73t125.5 29.5q66 0 114.5 -22.5
t73.5 -60.5t25 -82q0 -55 -35.5 -95.5t-81.5 -49.5v-2q66 -14 107 -56t41 -111q0 -59 -30.5 -104.5t-86 -70t-127.5 -24.5q-80 0 -131.5 29.5z" />
    <glyph glyph-name="four.osf" horiz-adv-x="564" 
d="M341 -166v166h-309v76l300 411h112v-404h98v-83h-98v-166h-103zM131 83h215v283h-1z" />
    <glyph glyph-name="five.osf" horiz-adv-x="546" 
d="M146 -151.5q-50 28.5 -76.5 70t-34.5 83.5l103 12q9 -42 41.5 -73t93.5 -31q64 0 102 38t38 105q0 64 -35.5 100t-97.5 36q-86 0 -131 -69l-93 23l40 344h383v-90h-299l-22 -176q57 54 139 54q60 0 110 -26t79 -76t29 -117q0 -68 -30.5 -122t-86 -84t-129.5 -30
q-73 0 -123 28.5z" />
    <glyph glyph-name="six.osf" horiz-adv-x="550" 
d="M101 65.5q-66 80.5 -66 246.5q0 110 30 189t87 120.5t135 41.5q86 0 138.5 -44.5t71.5 -105.5l-95 -29q-9 36 -39 64t-82 28q-69 0 -108 -61t-36 -184q24 34 64 53.5t95 19.5q64 0 114 -26.5t77.5 -72.5t27.5 -105q0 -61 -29.5 -110t-83 -77t-122.5 -28q-113 0 -179 80.5
zM377.5 106q33.5 34 33.5 90q0 59 -36 93.5t-97 34.5q-57 0 -92 -29t-45 -66q0 -74 37 -115.5t104 -41.5q62 0 95.5 34z" />
    <glyph glyph-name="seven.osf" horiz-adv-x="491" 
d="M185.5 129.5q63.5 138.5 187.5 265.5h-342v92h431v-89q-113 -131 -174.5 -270.5t-78.5 -293.5h-105q18 157 81.5 295.5z" />
    <glyph glyph-name="eight.osf" horiz-adv-x="550" 
d="M148 13q-54 27 -83.5 72.5t-29.5 99.5q0 63 34.5 106t86.5 69v1q-38 18 -65.5 53t-27.5 83q0 46 26 84t74 60t112 22q65 0 113.5 -22t74 -59.5t25.5 -82.5q0 -49 -28 -82.5t-67 -51.5v-1q51 -25 86.5 -69.5t35.5 -106.5q0 -56 -30 -102t-85 -73t-126 -27q-72 0 -126 27z
M377.5 107q37.5 35 37.5 89q0 53 -37.5 88t-101.5 35q-65 0 -103.5 -35t-38.5 -88q0 -52 37.5 -88t103.5 -36q65 0 102.5 35zM359.5 424.5q31.5 26.5 31.5 70.5q0 42 -30.5 67t-85.5 25t-85 -24.5t-30 -66.5q0 -44 32 -71t84 -27t83.5 26.5z" />
    <glyph glyph-name="nine.osf" horiz-adv-x="550" 
d="M123 -134.5q-53 45.5 -71 104.5l96 29q9 -36 39 -64t82 -28q69 0 108 61t36 184q-53 -73 -159 -73q-64 0 -114 26.5t-77.5 72.5t-27.5 105q0 61 29.5 110t83 77t122.5 28q113 0 179 -80.5t66 -245.5q0 -111 -30.5 -190t-87 -120.5t-134.5 -41.5q-87 0 -140 45.5z
M364.5 188q34.5 29 44.5 67q0 73 -37.5 114.5t-104.5 41.5q-61 0 -94.5 -34t-33.5 -90q0 -59 36 -93.5t97 -34.5q58 0 92.5 29z" />
    <glyph glyph-name="zero.tf" 
d="M103.5 80.5q-67.5 95.5 -67.5 269.5t68 273t192 99t191.5 -99.5t67.5 -272.5t-67 -269t-192 -96t-192.5 95.5zM414 142.5q40 70.5 40 208.5q0 137 -40.5 210.5t-117.5 73.5q-78 0 -118 -73.5t-40 -210.5q0 -138 39.5 -208.5t118.5 -70.5q78 0 118 70.5z" />
    <glyph glyph-name="one.tf" 
d="M293 565q-20 -35 -56 -51t-82 -16h-37v92h21q66 0 108.5 33.5t48.5 87.5h100v-711h-103v565z" />
    <glyph glyph-name="two.tf" 
d="M71 76q125 100 200.5 174t114 138t38.5 125q0 56 -31.5 90t-92.5 34q-76 0 -110.5 -51t-36.5 -122l-95 25q6 58 32 110.5t79 87.5t133 35q70 0 120 -26.5t76.5 -73t26.5 -104.5q0 -73 -40 -143.5t-105 -135.5t-160 -143h309v-96h-458v76z" />
    <glyph glyph-name="three.tf" 
d="M148 16.5q-56 31.5 -83 79t-33 98.5l109 11q3 -53 40 -93.5t117 -40.5q68 0 109 34t41 91q0 68 -55.5 106t-149.5 36v79q81 1 126.5 33.5t45.5 83.5q0 43 -32 72.5t-93 29.5q-68 0 -102.5 -37t-34.5 -93l-98 10q1 50 24.5 97t75.5 78t133 31q71 0 123 -24.5t79 -65
t27 -88.5q0 -59 -37.5 -103.5t-89.5 -54.5v-2q69 -14 114.5 -60t45.5 -124q0 -64 -33 -113t-92.5 -75.5t-135.5 -26.5q-85 0 -141 31.5z" />
    <glyph glyph-name="four.tf" 
d="M356 0v159h-339v78l326 474h115v-466h106v-86h-106v-159h-102zM118 245h241v344h-1z" />
    <glyph glyph-name="five.tf" 
d="M154.5 16q-54.5 31 -83.5 76t-37 89l106 12q10 -50 47.5 -85t102.5 -35q73 0 116.5 44.5t43.5 120.5q0 73 -41 115t-110 42q-92 0 -145 -79l-96 24l43 371h411v-94h-327l-25 -198q66 61 156 61q65 0 118.5 -29t85 -83.5t31.5 -127.5t-32 -131t-92 -91t-139 -33t-133.5 31
z" />
    <glyph glyph-name="six.tf" 
d="M111.5 71.5q-70.5 86.5 -70.5 268.5q0 121 32.5 207t93.5 130.5t144 44.5q91 0 147.5 -48t76.5 -113l-99 -34q-9 42 -41.5 75t-87.5 33q-82 0 -124 -77.5t-39 -199.5q27 38 72 60.5t105 22.5q69 0 122 -29t82.5 -80.5t29.5 -115.5q0 -68 -33.5 -120.5t-91.5 -81.5
t-129 -29q-119 0 -189.5 86.5zM409 110.5q39 38.5 39 102.5t-39.5 104t-108.5 40q-63 0 -102 -33t-49 -76q0 -81 44 -128.5t114 -47.5q63 0 102 38.5z" />
    <glyph glyph-name="seven.tf" 
d="M233.5 328q69.5 152 206.5 288h-380v95h470v-93q-129 -145 -198 -296t-84 -322h-105q21 176 90.5 328z" />
    <glyph glyph-name="eight.tf" 
d="M154 13.5q-58 28.5 -88 77.5t-30 108q0 70 37.5 117t96.5 76v1q-44 20 -74 58t-30 94q0 52 28 92t80 62.5t121 22.5q71 0 123 -23t79 -63t27 -89q0 -54 -31 -92.5t-74 -56.5v-1q55 -26 94 -75t39 -120q0 -59 -31 -108.5t-90 -79t-139 -29.5t-138 28.5zM409 113.5
q42 38.5 42 96.5q0 60 -42.5 100.5t-113.5 40.5q-72 0 -115 -40.5t-43 -100.5q0 -36 18 -67t54 -49.5t85 -18.5q73 0 115 38.5zM389.5 463q34.5 30 34.5 78t-35 75.5t-95 27.5q-61 0 -94.5 -28t-33.5 -73q0 -50 35.5 -80t93.5 -30q60 0 94.5 30z" />
    <glyph glyph-name="nine.tf" 
d="M133.5 33q-56.5 48 -77.5 113l100 34q9 -42 41 -75t88 -33q81 0 123.5 75.5t38.5 201.5q-26 -37 -70.5 -60t-106.5 -23q-69 0 -122 29t-82 80.5t-29 115.5q0 68 33.5 121t91 81.5t128.5 28.5q120 0 190.5 -86.5t70.5 -267.5q0 -121 -32.5 -207t-93.5 -131t-144 -45
q-91 0 -147.5 48zM393.5 383q38.5 33 48.5 76q0 82 -44 129.5t-114 47.5q-62 0 -101.5 -39t-39.5 -103t40 -104t108 -40q64 0 102.5 33z" />
    <glyph glyph-name="zero.tosf" 
d="M165.5 17.5q-60.5 32.5 -96 90.5t-35.5 132q0 75 35.5 134t96 92t132.5 33t130.5 -33t92.5 -92t34 -133q0 -76 -35 -134t-94 -90t-129 -32q-71 0 -131.5 32.5zM376.5 92q35.5 22 56 61t20.5 89q0 48 -19.5 87.5t-55 62t-80.5 22.5t-82 -23t-58.5 -63t-21.5 -88t21.5 -87
t58.5 -61t81 -22t79.5 22z" />
    <glyph glyph-name="one.tosf" 
d="M311 331q-21 -29 -58 -44.5t-84 -15.5h-34l-4 88h21q68 0 112 34t50 87h100v-480h-103v331z" />
    <glyph glyph-name="two.tosf" 
d="M88 67q119 71 184.5 116t98.5 82.5t33 74.5q0 34 -25.5 54t-74.5 20q-67 0 -97.5 -34t-33.5 -78l-96 25q11 68 66 118t161 50q63 0 109 -19t70 -52.5t24 -75.5q0 -47 -31 -88.5t-84.5 -80.5t-145.5 -94h263v-85h-421v67z" />
    <glyph glyph-name="three.tosf" 
d="M160.5 -151q-52.5 29 -78 72.5t-31.5 92.5l107 11q3 -49 36.5 -84.5t103.5 -35.5q62 0 98.5 30t36.5 82q0 59 -49 92.5t-135 31.5v76q70 1 112.5 31.5t42.5 76.5q0 37 -29 63t-82 26q-58 0 -91.5 -31.5t-33.5 -85.5l-95 10q1 48 23 91.5t71 72t125 28.5q67 0 115.5 -22.5
t74 -60.5t25.5 -83q0 -55 -36 -95.5t-83 -49.5v-2q62 -12 106 -53t44 -114q0 -59 -31 -104.5t-87 -70t-128 -24.5q-79 0 -131.5 29z" />
    <glyph glyph-name="four.tosf" 
d="M355 -166v166h-311v76l302 412h111v-405h100v-83h-100v-166h-102zM143 83h217v284h-1z" />
    <glyph glyph-name="five.tosf" 
d="M169 -152q-51 28 -78.5 69.5t-35.5 84.5l103 12q9 -42 43 -73t94 -31q65 0 103.5 38t38.5 104q0 64 -36 100.5t-101 36.5q-85 0 -130 -69l-95 23l41 345h387v-90h-303l-22 -177q30 28 63.5 41.5t76.5 13.5q62 0 112.5 -26.5t79.5 -76.5t29 -117q0 -68 -30.5 -122
t-86.5 -84t-130 -30q-72 0 -123 28z" />
    <glyph glyph-name="six.tosf" 
d="M119.5 65.5q-66.5 80.5 -66.5 246.5q0 110 30.5 189t87.5 121t136 42q86 0 139.5 -44.5t72.5 -105.5l-95 -29q-11 38 -41 65t-80 27q-72 0 -111.5 -61.5t-36.5 -184.5q54 74 161 74q65 0 115 -26.5t78 -73t28 -105.5q0 -61 -30 -110t-84 -77t-123 -28q-114 0 -180.5 80.5
zM399 106q34 34 34 90q0 59 -36.5 94t-98.5 35q-58 0 -93.5 -29.5t-45.5 -66.5q0 -73 38 -115t106 -42q62 0 96 34z" />
    <glyph glyph-name="seven.tosf" 
d="M235 129q64 139 192 267h-351v92h441v-89q-116 -132 -179 -272t-81 -293h-105q19 156 83 295z" />
    <glyph glyph-name="eight.tosf" 
d="M167 13q-55 27 -84.5 73.5t-29.5 101.5q0 61 35 104t88 69v1q-39 18 -66.5 53t-27.5 83q0 45 25.5 83t74 60.5t114.5 22.5q65 0 113.5 -22t74.5 -59.5t26 -82.5q0 -49 -28 -83t-67 -51v-1q50 -25 86 -69t36 -108q0 -56 -30.5 -102.5t-86 -73t-126.5 -26.5q-72 0 -127 27z
M401 108.5q37 36.5 37 86.5q0 54 -38.5 89.5t-103.5 35.5t-104 -35.5t-39 -88.5q0 -51 37.5 -87.5t105.5 -36.5t105 36.5zM381 426q32 27 32 72q0 41 -31 65.5t-87 24.5q-55 0 -85.5 -24.5t-30.5 -66.5q0 -44 32 -71t85 -27t85 27z" />
    <glyph glyph-name="nine.tosf" 
d="M143 -135.5q-53 44.5 -73 105.5l96 29q11 -38 41.5 -65t81.5 -27q70 0 109.5 61t36.5 184q-25 -34 -66 -53.5t-95 -19.5q-65 0 -115 26.5t-78 73t-28 105.5q0 60 29.5 109t83.5 77.5t124 28.5q114 0 180.5 -80.5t66.5 -246.5q0 -111 -30.5 -190.5t-88 -120.5t-135.5 -41
q-87 0 -140 44.5zM385.5 188.5q35.5 29.5 44.5 67.5q0 73 -37.5 114.5t-105.5 41.5q-62 0 -96 -34t-34 -90q0 -58 36 -93.5t99 -35.5q58 0 93.5 29.5z" />
    <glyph glyph-name="zero.subs" horiz-adv-x="420" 
d="M87 -91.5q-42 56.5 -42 160.5q0 105 42.5 164.5t122.5 59.5q81 0 123 -59.5t42 -164.5t-41.5 -161t-123.5 -56q-81 0 -123 56.5zM275 -47.5q21 35.5 21 116.5t-21 120t-65 39t-65 -39.5t-21 -118.5q0 -80 20.5 -116.5t65.5 -36.5q44 0 65 35.5z" />
    <glyph glyph-name="one.subs" horiz-adv-x="302" 
d="M142 181q-11 -19 -31.5 -29t-42.5 -10h-23v72h14q35 0 58.5 20t28.5 52h74v-426h-78v321z" />
    <glyph glyph-name="two.subs" horiz-adv-x="383" 
d="M52 -85q112 92 158.5 147.5t46.5 102.5q0 28 -16 45.5t-47 17.5q-41 0 -59.5 -30t-19.5 -70l-71 20q6 57 42.5 101t110.5 44q66 0 102.5 -35t36.5 -88q0 -58 -44.5 -116.5t-126.5 -122.5h172v-71h-285v55z" />
    <glyph glyph-name="three.subs" horiz-adv-x="402" 
d="M82 -110q-39 38 -44 90l82 9q2 -30 22 -51t61 -21q34 0 54.5 17t20.5 46q0 37 -30.5 56t-80.5 17v59q44 1 69.5 18t25.5 45q0 22 -16.5 37.5t-47.5 15.5q-38 0 -55.5 -22t-18.5 -52l-74 10q1 50 36 89.5t111 39.5q67 0 106 -31.5t39 -77.5q0 -36 -24 -62.5t-53 -32.5v-1
q94 -22 94 -106q0 -60 -44 -95t-117 -35q-77 0 -116 38z" />
    <glyph glyph-name="four.subs" horiz-adv-x="418" 
d="M235 -140v93h-201v57l194 276h88v-271h63v-62h-63v-93h-81zM110 15h129v182h-1z" />
    <glyph glyph-name="five.subs" horiz-adv-x="406" 
d="M90 -112.5q-39 35.5 -49 85.5l81 10q4 -26 24 -44t55 -18q37 0 58.5 21.5t21.5 60.5t-20.5 60t-57.5 21q-52 0 -75 -46l-75 17l27 231h258v-69h-192l-13 -99q18 15 38.5 23t48.5 8q60 0 100.5 -37t40.5 -105q0 -72 -45 -113.5t-118 -41.5q-69 0 -108 35.5z" />
    <glyph glyph-name="six.subs" horiz-adv-x="411" 
d="M88.5 -35.5q-43.5 53.5 -43.5 161.5q0 107 43.5 167t125.5 60q61 0 96.5 -30t47.5 -71l-75 -20q-6 23 -24.5 39.5t-48.5 16.5q-42 0 -65 -37t-21 -108q15 21 40.5 33.5t60.5 12.5q64 0 103.5 -38.5t39.5 -97.5q0 -63 -45.5 -102.5t-114.5 -39.5q-76 0 -119.5 53.5z
M267.5 -3.5q20.5 20.5 20.5 54.5t-21 54.5t-59 20.5q-34 0 -55.5 -17t-25.5 -39q0 -45 22.5 -69.5t61.5 -24.5q36 0 56.5 20.5z" />
    <glyph glyph-name="seven.subs" horiz-adv-x="364" 
d="M136.5 49.5q38.5 85.5 118.5 164.5h-218v72h290v-68q-72 -80 -110 -168.5t-48 -189.5h-82q11 104 49.5 189.5z" />
    <glyph glyph-name="eight.subs" horiz-adv-x="412" 
d="M86.5 -110.5q-43.5 37.5 -43.5 93.5q0 75 77 112v1q-26 14 -42.5 36.5t-16.5 53.5q0 47 38.5 77t106.5 30t106.5 -30t38.5 -78q0 -30 -17 -52t-43 -35q34 -16 55.5 -44.5t21.5 -69.5q0 -58 -45 -95t-118 -37q-75 0 -118.5 37.5zM266 -59.5q22 19.5 22 51.5t-21.5 52.5
t-60.5 20.5q-38 0 -60.5 -21t-22.5 -52q0 -30 22 -50.5t61 -20.5q38 0 60 19.5zM254.5 140q17.5 16 17.5 42q0 24 -17 38t-49 14t-49 -14.5t-17 -38.5q0 -26 18 -41.5t48 -15.5q31 0 48.5 16z" />
    <glyph glyph-name="nine.subs" horiz-adv-x="413" 
d="M100 -117q-36 31 -47 71l78 21q6 -23 22.5 -40t48.5 -17q41 0 63.5 36.5t20.5 107.5q-32 -46 -100 -46q-64 0 -103.5 38.5t-39.5 96.5q0 62 44.5 102t115.5 40q77 0 121 -53t44 -161q0 -106 -43 -166.5t-127 -60.5q-62 0 -98 31zM258 96.5q21 17.5 26 39.5q0 41 -22 66
t-62 25q-35 0 -55 -20.5t-20 -52.5q0 -33 20.5 -54t57.5 -21q34 0 55 17.5z" />
    <glyph glyph-name="zero.dnom" horiz-adv-x="420" 
d="M87 48.5q-42 56.5 -42 160.5q0 105 42.5 164.5t122.5 59.5q81 0 123 -59.5t42 -164.5t-41.5 -161t-123.5 -56q-81 0 -123 56.5zM275 92.5q21 35.5 21 116.5t-21 120t-65 39t-65 -39.5t-21 -118.5q0 -80 20.5 -116.5t65.5 -36.5q44 0 65 35.5z" />
    <glyph glyph-name="one.dnom" horiz-adv-x="302" 
d="M142 321q-11 -19 -31.5 -29t-42.5 -10h-23v72h14q35 0 58.5 20t28.5 52h74v-426h-78v321z" />
    <glyph glyph-name="two.dnom" horiz-adv-x="383" 
d="M52 55q112 92 158.5 147.5t46.5 102.5q0 28 -16 45.5t-47 17.5q-40 0 -59 -29.5t-20 -70.5l-71 20q6 57 42.5 101t110.5 44q66 0 102.5 -35t36.5 -88q0 -58 -44.5 -116.5t-126.5 -122.5h172v-71h-285v55z" />
    <glyph glyph-name="three.dnom" horiz-adv-x="402" 
d="M82 30q-39 38 -44 90l82 9q2 -30 22 -51t61 -21q34 0 54.5 17t20.5 46q0 37 -30.5 56t-80.5 17v59q44 1 69.5 18t25.5 45q0 22 -16.5 37.5t-47.5 15.5q-38 0 -55.5 -22t-18.5 -52l-74 10q1 50 36 89.5t111 39.5q67 0 106 -31.5t39 -77.5q0 -36 -24 -62.5t-53 -32.5v-1
q94 -22 94 -106q0 -60 -44 -95t-117 -35q-77 0 -116 38z" />
    <glyph glyph-name="four.dnom" horiz-adv-x="418" 
d="M235 0v93h-201v57l194 276h88v-271h63v-62h-63v-93h-81zM110 155h129v182h-1z" />
    <glyph glyph-name="five.dnom" horiz-adv-x="406" 
d="M90 27.5q-39 35.5 -49 85.5l81 10q4 -26 24 -44t55 -18q37 0 58.5 21.5t21.5 60.5t-20.5 60t-57.5 21q-52 0 -75 -46l-75 17l27 231h258v-69h-192l-13 -99q18 15 38.5 23t48.5 8q60 0 100.5 -37t40.5 -105q0 -72 -45 -113.5t-118 -41.5q-69 0 -108 35.5z" />
    <glyph glyph-name="six.dnom" horiz-adv-x="413" 
d="M89 45q-44 53 -44 163q0 114 47 169.5t124 55.5q63 0 99 -32t45 -70l-78 -20q-5 23 -23 39.5t-48 16.5q-42 0 -63.5 -36.5t-20.5 -106.5q15 21 40.5 33.5t60.5 12.5q63 0 102.5 -38.5t39.5 -98.5q0 -63 -45.5 -102t-114.5 -39q-77 0 -121 53zM268 78q20 20 20 53
q0 34 -20.5 54.5t-56.5 20.5q-34 0 -55.5 -17.5t-26.5 -38.5q0 -42 21.5 -67t62.5 -25q35 0 55 20z" />
    <glyph glyph-name="seven.dnom" horiz-adv-x="364" 
d="M136.5 189.5q38.5 85.5 118.5 164.5h-218v72h290v-68q-72 -80 -110 -168.5t-48 -189.5h-82q11 104 49.5 189.5z" />
    <glyph glyph-name="eight.dnom" horiz-adv-x="412" 
d="M86.5 29.5q-43.5 37.5 -43.5 93.5q0 75 77 112v1q-26 14 -42.5 36.5t-16.5 53.5q0 47 38.5 77t106.5 30t106.5 -30t38.5 -78q0 -30 -17 -52t-43 -35q34 -16 55.5 -44.5t21.5 -69.5q0 -58 -45 -95t-118 -37q-75 0 -118.5 37.5zM266 80.5q22 19.5 22 51.5t-21.5 52.5
t-60.5 20.5q-38 0 -60.5 -21t-22.5 -52q0 -30 22 -50.5t61 -20.5q38 0 60 19.5zM254.5 280q17.5 16 17.5 42q0 24 -17 38t-49 14t-49 -14.5t-17 -38.5q0 -26 18 -41.5t48 -15.5q31 0 48.5 16z" />
    <glyph glyph-name="nine.dnom" horiz-adv-x="413" 
d="M100 23q-36 31 -47 71l78 21q6 -23 22.5 -40t48.5 -17q41 0 63.5 36.5t20.5 107.5q-32 -46 -100 -46q-64 0 -103.5 38.5t-39.5 96.5q0 62 44.5 102t115.5 40q77 0 121 -53t44 -161q0 -106 -43 -166.5t-127 -60.5q-62 0 -98 31zM258 236.5q21 17.5 26 39.5q0 41 -22 66
t-62 25q-35 0 -55 -20.5t-20 -52.5q0 -33 20.5 -54t57.5 -21q34 0 55 17.5z" />
    <glyph glyph-name="zero.numr" horiz-adv-x="420" 
d="M87 356q-42 56 -42 160q0 105 42.5 165t122.5 60q81 0 123 -60t42 -165t-41.5 -160.5t-123.5 -55.5q-81 0 -123 56zM275 400q21 35 21 116t-21 120.5t-65 39.5t-65 -40t-21 -119q0 -80 20.5 -116t65.5 -36q44 0 65 35z" />
    <glyph glyph-name="one.numr" horiz-adv-x="302" 
d="M142 629q-11 -19 -31.5 -29.5t-42.5 -10.5h-23v73h14q35 0 58.5 20t28.5 51h74v-426h-78v322z" />
    <glyph glyph-name="two.numr" horiz-adv-x="383" 
d="M52 363q113 92 159 147.5t46 101.5q0 28 -16 46t-47 18q-42 0 -60 -30.5t-19 -70.5l-71 20q5 59 42.5 102.5t110.5 43.5q66 0 102.5 -35t36.5 -89q0 -57 -45 -115.5t-126 -122.5h172v-72h-285v56z" />
    <glyph glyph-name="three.numr" horiz-adv-x="402" 
d="M82.5 337.5q-39.5 37.5 -44.5 89.5l82 9q2 -30 22 -51t61 -21q34 0 54.5 17t20.5 47q0 36 -30.5 55.5t-80.5 17.5v58q44 1 69.5 18t25.5 45q0 23 -17 38.5t-48 15.5q-37 0 -54.5 -22.5t-18.5 -51.5l-74 9q1 49 35.5 89.5t111.5 40.5q67 0 106 -31.5t39 -78.5
q0 -35 -24 -62t-53 -32v-1q41 -10 67.5 -35t26.5 -72q0 -59 -44 -94t-116 -35q-77 0 -116.5 37.5z" />
    <glyph glyph-name="four.numr" horiz-adv-x="418" 
d="M235 307v93h-201v58l194 275h88v-271h63v-62h-63v-93h-81zM110 462h129v183h-1z" />
    <glyph glyph-name="five.numr" horiz-adv-x="406" 
d="M89 336q-38 36 -48 84l81 11q4 -26 24 -44t55 -18q37 0 58.5 21.5t21.5 60.5t-20.5 59.5t-57.5 20.5q-52 0 -75 -45l-75 17l27 230h258v-68h-192l-13 -99q19 14 39 22t48 8q60 0 100.5 -37t40.5 -105q0 -71 -45 -112.5t-118 -41.5q-71 0 -109 36z" />
    <glyph glyph-name="six.numr" horiz-adv-x="411" 
d="M88.5 352q-43.5 53 -43.5 162q0 106 43.5 166.5t125.5 60.5q62 0 97.5 -31t46.5 -71l-75 -20q-5 23 -23.5 40t-49.5 17q-42 0 -65 -37.5t-21 -108.5q32 46 101 46q64 0 103.5 -38.5t39.5 -96.5q0 -61 -44.5 -101.5t-114.5 -40.5q-77 0 -120.5 53zM267.5 384.5
q20.5 20.5 20.5 54.5t-21 54.5t-58 20.5q-35 0 -56.5 -17.5t-25.5 -39.5q0 -43 21.5 -68t63.5 -25q35 0 55.5 20.5z" />
    <glyph glyph-name="seven.numr" horiz-adv-x="364" 
d="M136.5 497q38.5 86 118.5 165h-218v71h290v-68q-72 -79 -110 -167.5t-48 -190.5h-82q11 104 49.5 190z" />
    <glyph glyph-name="eight.numr" horiz-adv-x="412" 
d="M86.5 337q-43.5 37 -43.5 94q0 39 21 67.5t56 44.5v1q-25 14 -42 36.5t-17 53.5q0 47 38.5 77t106.5 30t106.5 -30.5t38.5 -78.5q0 -29 -17.5 -51.5t-42.5 -34.5q77 -39 77 -115q0 -58 -45 -94.5t-118 -36.5q-75 0 -118.5 37zM267 389q21 21 21 51q0 31 -22 52t-60 21
t-60.5 -21t-22.5 -52q0 -30 21.5 -51t60.5 -21q41 0 62 21zM254.5 588q17.5 16 17.5 42q0 23 -17 37.5t-49 14.5q-31 0 -48.5 -14.5t-17.5 -38.5q0 -26 18 -41.5t48 -15.5q31 0 48.5 16z" />
    <glyph glyph-name="nine.numr" horiz-adv-x="413" 
d="M100 330.5q-36 30.5 -47 70.5l78 21q5 -23 23 -39.5t48 -16.5q41 0 63.5 36.5t20.5 106.5q-32 -46 -100 -46q-64 0 -103.5 38.5t-39.5 97.5q0 63 45.5 102.5t115.5 39.5q77 0 120.5 -53.5t43.5 -162.5q0 -114 -47 -169.5t-124 -55.5q-61 0 -97 30.5zM258 544q21 17 26 39
q0 42 -22 66.5t-62 24.5q-35 0 -55 -20t-20 -52q0 -34 20.5 -54.5t57.5 -20.5q34 0 55 17z" />
    <glyph glyph-name="colon.case" horiz-adv-x="289" 
d="M89 448q-21 22 -21 55q0 32 21 54t56 22q34 0 55 -22t21 -54q0 -33 -21 -55t-55 -22q-35 0 -56 22zM89 98q-21 22 -21 55q0 32 21 54t56 22q34 0 55 -22t21 -54q0 -33 -21 -55t-55 -22q-35 0 -56 22z" />
    <glyph glyph-name="exclamdown.case" horiz-adv-x="288" 
d="M102 537h85q3 -283 13 -531h-111q12 354 13 531zM90 612.5q-22 22.5 -22 53.5t22 53.5t53 22.5q32 0 54.5 -22t22.5 -54q0 -31 -22.5 -53.5t-54.5 -22.5q-31 0 -53 22.5z" />
    <glyph glyph-name="questiondown.case" horiz-adv-x="607" 
d="M176 9.5q-53 24.5 -80.5 67.5t-27.5 98q0 44 16 76.5t39 54t57 46.5q56 41 73 57.5t17 34.5q0 9 -4 18t-10.5 20t-11.5 20l92 30q17 -23 28.5 -44.5t11.5 -51.5q0 -40 -24.5 -69.5t-89.5 -76.5q-41 -30 -62 -54t-21 -60q0 -42 32.5 -70.5t89.5 -28.5q69 0 100.5 38
t31.5 90l106 -17q-4 -84 -60.5 -143.5t-176.5 -59.5q-73 0 -126 24.5zM250.5 611q-23.5 23 -23.5 54q0 32 23.5 54.5t55.5 22.5t55.5 -22.5t23.5 -54.5q0 -31 -23.5 -54t-55.5 -23t-55.5 23z" />
    <glyph glyph-name="slash.case" horiz-adv-x="478" 
d="M48 -90l289 874h93l-290 -874h-92z" />
    <glyph glyph-name="backslash.case" horiz-adv-x="485" 
d="M337 -90l-289 874h100l289 -874h-100z" />
    <glyph glyph-name="parenleft.case" horiz-adv-x="429" 
d="M178.5 -4q-55.5 79 -83 170t-27.5 182q0 95 30 188t85 170t128 126l49 -61q-88 -73 -143 -185t-55 -234q0 -87 26.5 -169.5t71.5 -149t101 -108.5l-48 -61q-79 53 -134.5 132z" />
    <glyph glyph-name="parenright.case" horiz-adv-x="429" 
d="M69 -71q88 72 143 184t55 234q0 86 -26.5 168.5t-72 149t-100.5 108.5l48 61q118 -79 181 -211t63 -273q0 -95 -30 -187.5t-85 -169.5t-128 -126z" />
    <glyph glyph-name="braceleft.case" horiz-adv-x="494" 
d="M331.5 -101.5q-39.5 10.5 -69 56t-35.5 143.5q-5 81 -13.5 120t-39 66.5t-96.5 39.5v74q66 13 96 39t38.5 64.5t14.5 122.5q6 98 36 143.5t70 56t107 10.5h12v-95h-12q-38 0 -60.5 -7.5t-39 -39.5t-21.5 -102l-2 -35q-2 -56 -8.5 -91.5t-30 -64.5t-71.5 -38
q51 -10 73.5 -39.5t28.5 -68t10 -121.5q3 -69 20.5 -101.5t40 -40t59.5 -7.5h13v-95h-13q-68 0 -107.5 10.5z" />
    <glyph glyph-name="braceright.case" horiz-adv-x="494" 
d="M42 -16h12q41 0 62.5 7t37.5 39t21 102l2 37q3 57 9.5 92t29.5 62.5t71 36.5q-49 10 -72 38.5t-29.5 68.5t-10.5 123q-3 69 -20.5 101.5t-40 40t-59.5 7.5h-13v94h13q68 0 107.5 -10.5t69 -56t35.5 -143.5q5 -81 13.5 -119.5t39 -66t96.5 -39.5v-74q-66 -13 -96 -39
t-38.5 -64.5t-14.5 -122.5q-6 -98 -36 -143.5t-70 -56t-107 -10.5h-12v96z" />
    <glyph glyph-name="bracketleft.case" horiz-adv-x="345" 
d="M68 -96v909h208v-89h-118v-731h118v-89h-208z" />
    <glyph glyph-name="bracketright.case" horiz-adv-x="344" 
d="M68 -95v89h118v730h-118v89h208v-908h-208z" />
    <glyph glyph-name="hyphen.case" horiz-adv-x="499" 
d="M68 295v96h363v-96h-363z" />
    <glyph glyph-name="endash.case" horiz-adv-x="690" 
d="M68 294v97h554v-97h-554z" />
    <glyph glyph-name="emdash.case" horiz-adv-x="989" 
d="M68 293v99h853v-99h-853z" />
    <glyph glyph-name="guillemotleft.case" horiz-adv-x="552" 
d="M392 132l-127 197v10l127 190h101l-125 -194l125 -203h-101zM185 132l-126 197v10l126 190h102l-125 -194l125 -203h-102z" />
    <glyph glyph-name="guillemotright.case" horiz-adv-x="552" 
d="M264 132l125 203l-125 194h102l126 -190v-10l-126 -197h-102zM58 132l125 203l-125 194h102l126 -190v-10l-126 -197h-102z" />
    <glyph glyph-name="guilsinglleft.case" horiz-adv-x="346" 
d="M185 132l-126 197v10l126 190h102l-125 -194l125 -203h-102z" />
    <glyph glyph-name="guilsinglright.case" horiz-adv-x="346" 
d="M58 132l125 203l-125 194h102l126 -190v-10l-126 -197h-102z" />
    <glyph glyph-name="space.tf" 
 />
    <glyph glyph-name="space.tosf" 
 />
    <glyph glyph-name="cent.osf" horiz-adv-x="536" 
d="M227 -10q-76 16 -123 78.5t-47 165.5q0 81 30.5 137.5t80.5 84.5t110 28q12 0 18 -1l10 70h57l-11 -81q49 -18 82 -60.5t45 -107.5l-92 -13q-13 65 -48 91l-43 -310q35 4 60 29t31 74l93 -5q-12 -87 -64 -135t-132 -50l-12 -83h-57zM285 400h-8q-53 0 -90 -42t-37 -123
q0 -65 25 -104.5t65 -52.5z" />
    <glyph glyph-name="dollar.osf" horiz-adv-x="568" 
d="M248 -12q-79 10 -125 56t-61 101l86 43q10 -48 45.5 -84.5t99.5 -36.5q53 0 86 26t33 72q0 36 -20 58.5t-44.5 33t-74.5 27.5q-62 21 -102.5 42t-67.5 58t-27 94q0 76 48 123t124 55v78h77v-81q67 -12 106 -50.5t52 -83.5l-80 -41q-10 41 -42 70t-84 29q-46 0 -76.5 -24
t-30.5 -68q0 -31 16.5 -51.5t41.5 -32.5t67 -26l22 -8q93 -33 141.5 -75.5t48.5 -120.5q0 -77 -49.5 -126t-132.5 -58v-82h-77v83z" />
    <glyph glyph-name="Euro.osf" horiz-adv-x="730" 
d="M277 49q-70 60 -93 174h-125v74h116q-1 10 -1 31q0 22 1 32h-91v74h101q24 111 93 169.5t158 58.5q98 0 155.5 -63t76.5 -147l-89 -31q-13 65 -48.5 112t-98.5 47q-53 0 -95 -37.5t-60 -108.5h251l-18 -74h-244q-1 -10 -1 -32q0 -21 1 -31h230l-18 -74h-201
q18 -74 61 -113t100 -39q63 0 97 42.5t42 99.5l89 -18q-15 -82 -70.5 -144t-157.5 -62q-91 0 -161 60z" />
    <glyph glyph-name="sterling.osf" horiz-adv-x="639" 
d="M105.5 17q-36.5 31 -36.5 86q0 51 31 84.5t76 33.5q41 0 66 -26t36 -55q8 21 8 54q0 51 -26 99h-145v76h103q-37 56 -37 115q0 52 26 93t70 63.5t97 22.5q76 0 124 -45.5t59 -127.5l-81 -25q-10 54 -34 85t-71 31q-46 0 -74 -27.5t-28 -72.5q0 -51 44 -112h187v-76h-146
q19 -43 19 -82q0 -61 -39 -122q34 -16 69 -16q46 0 68 25.5t24 80.5l87 -7q-5 -81 -46.5 -133.5t-124.5 -52.5q-76 0 -121 47q-45 -47 -101 -47q-47 0 -83.5 31zM250 88q-27 58 -65 58q-15 0 -26 -12t-11 -28q0 -19 14 -30.5t35 -11.5q31 0 53 24z" />
    <glyph glyph-name="yen.osf" horiz-adv-x="556" 
d="M235 0v99h-139v75h139v57h-145v74h117l-179 340h98l155 -308l153 308h94l-178 -340h121v-74h-149v-57h143v-75h-143v-99h-87z" />
    <glyph glyph-name="cent.tf" 
d="M251 -11q-83 17 -135 85t-52 180q0 89 33.5 150.5t88.5 92t120 30.5q14 0 20 -1l11 76h63l-13 -89q54 -19 91 -65t49 -116l-100 -15q-13 69 -53 98l-48 -337q39 5 67 32.5t34 79.5l101 -5q-13 -94 -69.5 -146.5t-145.5 -54.5l-13 -91h-63zM313 435h-8q-37 0 -69 -19.5
t-51.5 -60t-19.5 -99.5q0 -71 27.5 -114t71.5 -58z" />
    <glyph glyph-name="dollar.tf" 
d="M255 -13q-87 12 -138.5 61.5t-67.5 109.5l94 46q11 -54 51.5 -92.5t110.5 -38.5q59 0 96.5 28.5t37.5 79.5q0 38 -21 61.5t-49 35.5t-86 31q-67 22 -112 45t-75 63.5t-30 102.5q0 82 52.5 134t136.5 60v84h85v-88q76 -13 119 -55.5t56 -90.5l-86 -44q-12 45 -47.5 76.5
t-94.5 31.5q-52 0 -85.5 -26t-33.5 -74q0 -35 18.5 -57t46.5 -35t78 -30l21 -7q102 -35 155.5 -81.5t53.5 -130.5t-54.5 -137.5t-146.5 -63.5v-89h-85v90z" />
    <glyph glyph-name="Euro.tf" 
d="M207 57q-63 69 -84 185h-112v81h104q-1 11 -1 33q0 24 1 36h-82v81h91q15 81 50 136.5t83 83.5t101 28q94 0 148 -68t72 -161l-92 -33q-11 71 -43 121.5t-88 50.5q-47 0 -83.5 -40.5t-52.5 -117.5h223l-20 -81h-213q-1 -12 -1 -36q0 -22 1 -33h205l-19 -81h-177
q17 -80 55 -122.5t88 -42.5q57 0 87 46.5t37 108.5l91 -19q-14 -89 -66.5 -157t-146.5 -68q-93 0 -156 69z" />
    <glyph glyph-name="sterling.tf" 
d="M103.5 -0.5q-28.5 14.5 -46.5 43.5t-18 69q0 55 32 91.5t77 36.5q41 0 66.5 -27t37.5 -59q8 22 8 57q0 31 -7 55.5t-20 51.5h-146v84h104q-38 61 -38 125q0 56 26.5 100.5t72 69.5t99.5 25q75 0 124.5 -49t61.5 -139l-86 -28q-9 59 -33.5 93t-71.5 34q-44 0 -72.5 -30
t-28.5 -79q0 -56 45 -122h189v-84h-147q19 -45 19 -89q0 -67 -41 -132q32 -17 68 -17q46 0 68.5 27.5t23.5 86.5l92 -6q-5 -88 -47 -145.5t-127 -57.5q-76 0 -124 50q-46 -50 -102 -50q-30 0 -58.5 14.5zM223 94q-9 24 -25.5 44.5t-38.5 20.5q-17 0 -27.5 -13t-10.5 -31
q0 -20 13.5 -33t35.5 -13q30 0 53 25z" />
    <glyph glyph-name="yen.tf" 
d="M248 0v108h-159v81h159v62h-165v81h132l-202 370h109l177 -336l175 336h105l-202 -370h137v-81h-170v-62h162v-81h-162v-108h-96z" />
    <glyph glyph-name="cent.tosf" 
d="M253 -10q-76 16 -124 78.5t-48 164.5q0 73 26.5 130t78.5 89.5t126 32.5l11 -1l10 70h58l-11 -81q50 -19 83 -61t45 -107l-92 -13q-11 64 -49 90l-44 -310q36 4 61.5 29t31.5 74l93 -5q-12 -88 -64.5 -135.5t-133.5 -49.5l-12 -83h-58zM311 401h-8q-34 0 -63.5 -18.5
t-47.5 -56t-18 -91.5q0 -65 26 -104.5t66 -52.5z" />
    <glyph glyph-name="dollar.tosf" 
d="M259 -12q-80 10 -126 56t-61 101l86 43q10 -48 46 -84.5t100 -36.5q52 0 86 26.5t34 72.5q0 35 -19.5 57t-45 33.5t-74.5 27.5q-63 21 -104.5 42.5t-68 58.5t-26.5 93q0 76 47.5 123.5t125.5 55.5v78h77v-81q67 -12 106.5 -50.5t52.5 -83.5l-80 -41q-11 41 -42.5 70
t-84.5 29q-47 0 -77.5 -24t-30.5 -68q0 -34 18.5 -54.5t44.5 -32t86 -32.5q93 -33 141 -75.5t48 -120.5t-49 -126.5t-133 -57.5v-82h-77v83z" />
    <glyph glyph-name="Euro.tosf" 
d="M217 49q-61 60 -82 174h-105v74h97q-1 10 -1 32t1 32h-77v74h85q21 111 81.5 169.5t137.5 58.5q88 0 139 -63t67 -147l-86 -31q-11 66 -40.5 112.5t-79.5 46.5q-46 0 -81 -37.5t-50 -108.5h210l-18 -74h-201q-1 -11 -1 -33q0 -21 1 -31h193l-18 -74h-166
q15 -74 50.5 -113t82.5 -39q53 0 82 42.5t36 99.5l84 -18q-14 -83 -63 -144.5t-138 -61.5q-79 0 -140 60z" />
    <glyph glyph-name="sterling.tosf" 
d="M116.5 -0.5q-26.5 13.5 -43.5 40t-17 63.5q0 51 30 84.5t72 33.5q37 0 61 -24.5t36 -54.5q7 23 7 52q0 53 -25 99h-136v77h97q-36 58 -36 115q0 52 25 93t67 63.5t92 22.5q72 0 118.5 -45.5t56.5 -127.5l-80 -25q-18 116 -98 116q-42 0 -68 -28t-26 -72q0 -51 42 -112
h176v-77h-137q18 -43 18 -82q0 -61 -39 -122q30 -16 64 -16q43 0 64 26t22 80l86 -7q-5 -80 -44.5 -133t-118.5 -53q-73 0 -116 47q-41 -47 -96 -47q-27 0 -53.5 13.5zM228 88q-10 21 -25 39.5t-36 18.5q-14 0 -24.5 -12t-10.5 -28q0 -19 13 -30.5t33 -11.5q30 0 50 24z" />
    <glyph glyph-name="yen.tosf" 
d="M252 0v99h-146v75h146v57h-152v74h122l-186 341h100l162 -309l161 309h94l-184 -341h126v-74h-155v-57h149v-75h-149v-99h-88z" />
    <glyph glyph-name="arrowup.case" horiz-adv-x="674" 
d="M297 65v492l-175 -177l-51 51l241 243h50l241 -243l-51 -51l-174 176v-491h-81z" />
    <glyph glyph-name="uni2197.case" horiz-adv-x="621" 
d="M127 106l-58 58l348 348l-249 -2v73h342l35 -35l-1 -342l-72 1l2 246z" />
    <glyph glyph-name="arrowright.case" horiz-adv-x="753" 
d="M435 94l-52 52l175 173h-490v81h492l-177 175l52 51l242 -241v-50z" />
    <glyph glyph-name="uni2198.case" horiz-adv-x="622" 
d="M511 135l-342 1v73l247 -2l-347 347l57 57l348 -348l-1 249h72l1 -342z" />
    <glyph glyph-name="arrowdown.case" horiz-adv-x="674" 
d="M312 50l-241 242l51 51l174 -176v491h81v-491l175 176l51 -51l-241 -242h-50z" />
    <glyph glyph-name="uni2199.case" horiz-adv-x="621" 
d="M111 138l-35 35l1 342h72l-1 -247l347 347l57 -58l-348 -348l249 2v-72z" />
    <glyph glyph-name="arrowleft.case" horiz-adv-x="753" 
d="M318 96l-242 241v50l242 241l52 -52l-175 -173h490v-81h-492l177 -175z" />
    <glyph glyph-name="uni2196.case" horiz-adv-x="622" 
d="M496 107l-348 348l2 -248h-73l-1 341l18 18l18 17h341v-73l-247 2l347 -347z" />
    <glyph glyph-name="at.case" horiz-adv-x="823" 
d="M237 22.5q-86 42.5 -136.5 127t-50.5 205.5q0 120 50.5 207.5t136 132.5t187.5 45q100 0 179 -42.5t124 -119.5t45 -176q0 -68 -21.5 -123.5t-61.5 -87t-92 -31.5q-39 0 -59 19t-26 58h-2q-16 -34 -51 -54t-72 -20q-40 0 -78.5 22t-64 67.5t-25.5 110.5q0 66 25.5 111
t64.5 67.5t80 22.5q38 0 69.5 -19.5t48.5 -47.5h2v57h78v-318h23q34 0 54.5 44.5t20.5 114.5q0 124 -67 196.5t-189 72.5q-83 0 -149 -35.5t-104 -104t-38 -165.5q0 -96 38 -164.5t104.5 -103.5t151.5 -35q35 0 74 7l10 -72q-40 -11 -88 -11q-105 0 -191 42.5zM484.5 275
q28.5 37 28.5 90q0 52 -28.5 89t-81.5 37q-49 0 -75.5 -33t-26.5 -94q0 -62 26.5 -94t75.5 -32q53 0 81.5 37z" />
    <glyph glyph-name="bar.case" horiz-adv-x="228" 
d="M68 -102v941h92v-941h-92z" />
    <glyph glyph-name="nobreakspace" horiz-adv-x="279" 
 />
    </font>
</defs>
</svg>
